<svg width="24" height="23" viewBox="0 0 24 23" fill="none" xmlns="http://www.w3.org/2000/svg">
<g clip-path="url(#clip0)">
<rect x="0.945923" width="23" height="23" rx="1" fill="white"/>
<path d="M22.6764 4.06462e-08H2.21444C1.51376 0.000350993 0.945747 0.568718 0.945923 1.26957V21.7315C0.946274 22.4322 1.51464 23.0002 2.21549 23H22.6764C23.3774 23.0002 23.9457 22.432 23.9459 21.731V21.7304V1.26852C23.9456 0.567841 23.3772 -0.000175435 22.6764 4.06462e-08Z" fill="white"/>
<path d="M17.1102 23.1469V14.2523H20.1088L20.558 10.7709H17.1102V8.55358C17.1102 7.54793 17.3894 6.86269 18.8315 6.86269H20.6591V3.75729C20.3411 3.715 19.2502 3.62042 17.9808 3.62042C15.3304 3.62042 13.5165 5.23761 13.5165 8.20877V10.7709H10.5292V14.2523H13.5165V23.1469H17.1102Z" fill="#0D8284"/>
</g>
<defs>
<clipPath id="clip0">
<rect x="0.945923" width="23" height="23" rx="1" fill="white"/>
</clipPath>
</defs>
</svg>
