<svg xmlns="http://www.w3.org/2000/svg" xmlns:xlink="http://www.w3.org/1999/xlink" version="1.1" x="0px" y="0px" viewBox="0 0 96 120" style="enable-background:new 0 0 96 96;" xml:space="preserve"><path d="M86.6,15H66.2v-3.1c0-4.3-3.5-7.9-7.9-7.9H37.6c-4.3,0-7.9,3.5-7.9,7.9V15H9.4c-1.8,0-3.1,1.3-3.1,3.1s1.3,3.1,3.1,3.1h5.9  v56.2c0,8,6.5,14.6,14.6,14.6h36.3c8,0,14.6-6.5,14.6-14.6V21.2h5.9c1.8,0,3.1-1.3,3.1-3.1S88.3,15,86.6,15z M60.1,12v3.1H36V12  c0-0.9,0.7-1.7,1.7-1.7h20.8C59.4,10.3,60.1,11.1,60.1,12z M74.5,77.4c0,4.6-3.7,8.3-8.3,8.3H29.9c-4.6,0-8.3-3.7-8.3-8.3V21.2h52.9  V77.4z"/></svg>