<svg xmlns="http://www.w3.org/2000/svg" xmlns:xlink="http://www.w3.org/1999/xlink" version="1.1" x="0px" y="0px" viewBox="0 0 32 40" style="enable-background:new 0 0 32 32;" xml:space="preserve"><g><g><path d="M2.74,30.26c-0.26,0-0.52-0.1-0.71-0.29c-0.29-0.29-0.37-0.71-0.22-1.09l2.38-5.79c0.05-0.12,0.12-0.23,0.22-0.33    l18.5-18.5c1.33-1.33,3.5-1.33,4.83,0c1.33,1.33,1.33,3.5,0,4.83c0,0,0,0,0,0l-18.5,18.5c-0.09,0.09-0.2,0.17-0.33,0.22    l-5.79,2.38C3,30.24,2.87,30.26,2.74,30.26z M5.97,24.03l-1.39,3.4l3.4-1.39L26.32,7.68c0.55-0.55,0.55-1.45,0-2    c-0.55-0.55-1.45-0.55-2,0L5.97,24.03z M27.03,8.39L27.03,8.39L27.03,8.39z"/></g></g></svg>