<svg xmlns="http://www.w3.org/2000/svg" viewBox="0 0 40 50" x="0px" y="0px"><path fill="#000000" fill-rule="evenodd" d="M20,36 C11.163444,36 4,28.836556 4,20 C4,11.163444 11.163444,4 20,4 C28.836556,4 36,11.163444 36,20 C36,28.836556 28.836556,36 20,36 Z M20,34 C27.7319865,34 34,27.7319865 34,20 C34,12.2680135 27.7319865,6 20,6 C12.2680135,6 6,12.2680135 6,20 C6,27.7319865 12.2680135,34 20,34 Z M20,28 C18.8954305,28 18,27.1045695 18,26 C18,24.8954305 18.8954305,24 20,24 C21.1045695,24 22,24.8954305 22,26 C22,27.1045695 21.1045695,28 20,28 Z M18.1904462,13.9044615 C18.0852656,12.8526565 18.8482971,12 19.9062805,12 L20.0937195,12 C21.1465291,12 21.9147406,12.8525944 21.8095538,13.9044615 L21.0995398,21.0046024 C21.0445655,21.5543453 20.5561352,22 20,22 C19.4477153,22 18.9557409,21.5574094 18.9004602,21.0046024 L18.1904462,13.9044615 Z"/></svg>