<svg width="25" height="25" viewBox="0 0 25 25" fill="none" xmlns="http://www.w3.org/2000/svg">
<path d="M17.7083 2.08331H7.29168C4.4152 2.08331 2.08334 4.41517 2.08334 7.29165V17.7083C2.08334 20.5848 4.4152 22.9166 7.29168 22.9166H17.7083C20.5848 22.9166 22.9167 20.5848 22.9167 17.7083V7.29165C22.9167 4.41517 20.5848 2.08331 17.7083 2.08331Z" stroke="white" stroke-width="2" stroke-linecap="round" stroke-linejoin="round"/>
<path d="M16.6669 11.8439C16.7954 12.7107 16.6474 13.5962 16.2438 14.3741C15.8401 15.152 15.2014 15.7828 14.4185 16.1768C13.6357 16.5708 12.7485 16.708 11.8833 16.5688C11.018 16.4295 10.2187 16.0209 9.59899 15.4013C8.97928 14.7816 8.57076 13.9822 8.43152 13.117C8.29229 12.2517 8.42944 11.3646 8.82346 10.5817C9.21748 9.79887 9.84831 9.16021 10.6262 8.75657C11.4042 8.35292 12.2895 8.20485 13.1565 8.3334C14.0407 8.46453 14.8594 8.87659 15.4916 9.50872C16.1236 10.1409 16.5357 10.9595 16.6669 11.8439Z" stroke="white" stroke-width="2" stroke-linecap="round" stroke-linejoin="round"/>
<path d="M18.2292 6.77081H18.2404" stroke="white" stroke-width="2" stroke-linecap="round" stroke-linejoin="round"/>
</svg>
