<svg width="24" height="23" viewBox="0 0 24 23" fill="none" xmlns="http://www.w3.org/2000/svg">
<g clip-path="url(#clip0)">
<path d="M21.8113 0H2.97238C1.82335 0 0.891846 0.9315 0.891846 2.08054V20.9194C0.891846 22.0685 1.82335 23 2.97238 23H21.8112C22.9603 23 23.8918 22.0685 23.8918 20.9194V2.08054C23.8918 0.9315 22.9603 0 21.8113 0ZM8.00902 19.8597C8.00902 20.1941 7.73796 20.4652 7.40355 20.4652H4.82623C4.49183 20.4652 4.22076 20.1941 4.22076 19.8597V9.05568C4.22076 8.72127 4.49183 8.45021 4.82623 8.45021H7.40355C7.73796 8.45021 8.00902 8.72127 8.00902 9.05568V19.8597ZM6.11489 7.43177C4.76265 7.43177 3.66642 6.33554 3.66642 4.98329C3.66642 3.63105 4.76265 2.53482 6.11489 2.53482C7.46714 2.53482 8.56337 3.63105 8.56337 4.98329C8.56337 6.33554 7.4672 7.43177 6.11489 7.43177ZM21.4781 19.9085C21.4781 20.2159 21.2288 20.4652 20.9214 20.4652H18.1557C17.8483 20.4652 17.599 20.2159 17.599 19.9085V14.8408C17.599 14.0848 17.8207 11.528 15.6233 11.528C13.9189 11.528 13.5732 13.278 13.5037 14.0634V19.9085C13.5037 20.2159 13.2545 20.4652 12.947 20.4652H10.2722C9.96474 20.4652 9.71548 20.2159 9.71548 19.9085V9.00691C9.71548 8.69948 9.96474 8.45021 10.2722 8.45021H12.947C13.2545 8.45021 13.5037 8.69948 13.5037 9.00691V9.94949C14.1358 9.00101 15.075 8.26892 17.0749 8.26892C21.5034 8.26892 21.4781 12.4063 21.4781 14.6795V19.9085Z" fill="white"/>
</g>
<defs>
<clipPath id="clip0">
<rect width="23" height="23" fill="white" transform="translate(0.891846)"/>
</clipPath>
</defs>
</svg>
