<svg width="14" height="15" viewBox="0 0 14 15" fill="none" xmlns="http://www.w3.org/2000/svg">
<g clip-path="url(#clip0)">
<path d="M7.00175 0.5H6.99825C3.13863 0.5 0 3.6395 0 7.5C0 9.03125 0.4935 10.4505 1.33263 11.6029L0.46025 14.2034L3.15088 13.3433C4.25775 14.0765 5.57812 14.5 7.00175 14.5C10.8614 14.5 14 11.3596 14 7.5C14 3.64038 10.8614 0.5 7.00175 0.5Z" fill="white"/>
<path d="M11.075 10.3849C10.9061 10.8618 10.2359 11.2573 9.70123 11.3728C9.33548 11.4507 8.85773 11.5128 7.24948 10.846C5.19236 9.99378 3.86761 7.90341 3.76436 7.76778C3.66548 7.63216 2.93311 6.66091 2.93311 5.65641C2.93311 4.65191 3.44323 4.16279 3.64886 3.95279C3.81773 3.78041 4.09686 3.70166 4.36461 3.70166C4.45123 3.70166 4.52911 3.70604 4.59911 3.70954C4.80473 3.71829 4.90798 3.73054 5.04361 4.05516C5.21248 4.46204 5.62373 5.46653 5.67273 5.56978C5.72261 5.67303 5.77248 5.81303 5.70248 5.94866C5.63686 6.08866 5.57911 6.15078 5.47586 6.26978C5.37261 6.38878 5.27461 6.47978 5.17136 6.60753C5.07686 6.71866 4.97011 6.83766 5.08911 7.04328C5.20811 7.24453 5.61936 7.91566 6.22486 8.45466C7.00623 9.15028 7.63973 9.37253 7.86636 9.46703C8.03523 9.53703 8.23648 9.52041 8.35986 9.38916C8.51648 9.22028 8.70986 8.94028 8.90673 8.66466C9.04673 8.46691 9.22348 8.44241 9.40898 8.51241C9.59798 8.57803 10.5981 9.07241 10.8037 9.17478C11.0094 9.27803 11.145 9.32703 11.1949 9.41366C11.2439 9.50028 11.2439 9.90716 11.075 10.3849Z" fill="#0D8284"/>
</g>
<defs>
<clipPath id="clip0">
<rect width="14" height="14" fill="white" transform="translate(0 0.5)"/>
</clipPath>
</defs>
</svg>
