<?xml version="1.0" encoding="utf-8"?>
<!-- Generator: Adobe Illustrator 21.1.0, SVG Export Plug-In . SVG Version: 6.00 Build 0)  -->
<svg version="1.1" id="Layer_1" xmlns="http://www.w3.org/2000/svg" xmlns:xlink="http://www.w3.org/1999/xlink" x="0px" y="0px"
	 viewBox="0 0 512 159" style="enable-background:new 0 0 512 159;" xml:space="preserve">
<style type="text/css">
	.st0{fill:#007937;}
	.st1{fill:#C8D300;}
	.st2{fill:#154634;}
	.st3{fill:#555759;}
	.st4{fill:#A0A0A1;}
</style>
<path class="st0" d="M103.3,154.2C77.8,154.2,4,133.5,4,108c0-25.5,73.8-46.1,99.3-46.1c25.5,0,46.1,20.6,46.1,46.1
	C149.4,133.5,128.8,154.2,103.3,154.2"/>
<path class="st1" d="M80.6,79.2C64,69.2,24.1,26.6,34.2,10c10.1-16.6,66.3-0.9,82.8,9.2c16.6,10.1,21.9,31.7,11.8,48.2
	C118.7,84,97.2,89.3,80.6,79.2"/>
<path class="st2" d="M66.6,68.1c5.3,4.9,10.2,8.9,14,11.2c16.1,9.8,36.8,5.1,47.3-10.3c-7.1-4.4-15.5-7.1-24.5-7.1
	C94.9,61.9,81.2,64.1,66.6,68.1"/>
<path class="st3" d="M212.7,41.3c1.7,0.7,3.2,1.6,4.4,2.7c1.3,1.1,2.3,2.4,3.1,3.7c0.8,1.4,1.4,2.9,1.8,4.4c0.4,1.6,0.6,3.2,0.6,4.8
	c0,2.8-0.5,5.4-1.7,7.8c-1.1,2.4-2.6,4.4-4.5,6.1c-1.9,1.7-4.1,3-6.7,3.9c-2.6,0.9-5.3,1.3-8.3,1.3h-22.1c-1.9,0-3.3-0.4-4-1.2
	c-0.7-0.8-1.1-2.1-1.1-4V17.8c0-1.7,0.3-3,1.1-3.9c0.7-0.9,2.1-1.3,4-1.3l21-0.1c2.8,0,5.4,0.3,7.8,0.9c2.4,0.6,4.5,1.5,6.2,2.8
	c1.7,1.3,3.1,2.9,4.1,4.9c1,2,1.5,4.4,1.5,7.1c0,2.7-0.7,5.2-2,7.4c-1.4,2.2-3.1,3.9-5.1,5V41.3z M185.3,37.3h14.6
	c0.9,0,1.8-0.1,2.8-0.3c1-0.2,1.9-0.6,2.8-1.2c0.8-0.6,1.5-1.3,2.1-2.4c0.5-1,0.8-2.3,0.8-3.9c0-2.2-0.7-3.9-2.1-5.1
	c-1.4-1.3-3.3-1.9-5.8-1.9h-15.2V37.3z M211.2,56.3c0-2.9-0.9-5.3-2.8-7.1c-1.8-1.8-4.5-2.7-8.1-2.7h-15v19.7h14.9
	c2.2,0,3.9-0.3,5.3-1c1.4-0.6,2.5-1.4,3.4-2.4c0.8-1,1.4-2,1.8-3.2C211,58.4,211.2,57.3,211.2,56.3"/>
<path class="st3" d="M264.8,70.9c0,1.5-0.6,2.5-1.7,3c-1.3,0.6-2.8,1.1-4.3,1.5c-1.5,0.4-3.1,0.7-4.7,1c-1.6,0.2-3.3,0.4-4.9,0.5
	c-1.6,0.1-3.1,0.1-4.6,0.1c-4,0-7.3-0.4-9.9-1.2c-2.6-0.8-4.7-1.9-6.3-3.3c-1.5-1.4-2.6-3-3.2-4.8c-0.6-1.8-0.9-3.8-0.9-5.8
	c0-2.1,0.3-4.1,1-6.1c0.7-1.9,1.8-3.7,3.4-5.1c1.6-1.5,3.6-2.7,6.1-3.6c2.5-0.9,5.6-1.4,9.2-1.4h10.1v-1.5c0-1.2-0.1-2.2-0.4-3.2
	c-0.2-1-0.7-1.8-1.4-2.5c-0.7-0.7-1.6-1.3-2.8-1.7c-1.2-0.4-2.8-0.6-4.7-0.6c-2,0-4.3,0.2-6.7,0.6c-2.4,0.4-4.4,0.8-5.9,1.3
	c-0.7,0.2-1.2,0.2-1.5,0.1c-0.3-0.1-0.5-0.5-0.6-1L229,32c-0.2-1,0-1.6,0.8-1.9c2.5-1,5.3-1.7,8.3-2c3-0.4,5.8-0.6,8.5-0.6
	c6.3,0,10.9,1.4,13.8,4.2c2.9,2.8,4.4,6.8,4.4,12.1V70.9z M254.1,53.8h-8.7c-1,0-2.1,0.1-3.3,0.2c-1.2,0.1-2.3,0.5-3.4,1
	c-1.1,0.6-1.9,1.3-2.6,2.4c-0.7,1-1,2.5-1,4.3c0,2.6,0.9,4.4,2.6,5.5c1.7,1,4.1,1.5,7,1.5c0.4,0,1,0,1.8,0c0.8,0,1.5-0.1,2.4-0.2
	c0.9-0.1,1.7-0.3,2.7-0.4c0.9-0.2,1.8-0.4,2.6-0.7V53.8z"/>
<path class="st3" d="M288.8,36.5c-0.7,0-1.6,0-2.8,0.1c-1.3,0-2.7,0.2-4.3,0.5v37.5c0,0.7-0.1,1.1-0.4,1.3c-0.2,0.2-0.7,0.3-1.3,0.3
	h-7.1c-0.6,0-1-0.1-1.3-0.3c-0.3-0.2-0.4-0.6-0.4-1.3V35.8c0-2.2,0.4-3.9,1.2-5.1c0.8-1.2,2.4-2,4.9-2.4c0.6,0,1.4-0.1,2.4-0.3
	c1-0.1,2.1-0.2,3.2-0.3c1.2-0.1,2.3-0.1,3.3-0.2c1.1,0,2-0.1,2.8-0.1c4,0,7.4,0.4,10.4,1.3c2.9,0.9,5.3,2.2,7.2,4
	c1.9,1.8,3.3,4.2,4.2,7.2c0.9,2.9,1.4,6.5,1.4,10.7v23.9c0,0.7-0.1,1.1-0.4,1.3c-0.2,0.2-0.7,0.3-1.3,0.3h-7.1c-0.6,0-1-0.1-1.3-0.3
	c-0.3-0.2-0.4-0.6-0.4-1.3V50.5c0-2.4-0.2-4.4-0.6-6.1c-0.4-1.7-1.1-3.2-2-4.3c-1-1.2-2.3-2-3.9-2.6
	C293.4,36.8,291.3,36.5,288.8,36.5"/>
<path class="st3" d="M339.3,67.9c1.9,0,3.9-0.3,5.8-0.7c1.9-0.5,3.5-1,4.8-1.6c0.7-0.3,1.1-0.4,1.4-0.3c0.3,0.1,0.5,0.4,0.7,0.9
	l2.3,5.2c0.6,1,0.4,1.7-0.6,2.3c-2.5,1.4-5.1,2.3-8,2.8c-2.9,0.5-5.5,0.7-8,0.7c-6.8,0-11.9-2.1-15.5-6.2
	c-3.6-4.1-5.4-10.2-5.4-18.3c0-3.8,0.5-7.2,1.5-10.3c1-3.1,2.5-5.8,4.4-8c1.9-2.2,4.2-3.9,6.9-5.1c2.7-1.2,5.7-1.8,9.1-1.8
	c2.5,0,4.9,0.3,7.2,0.8c2.3,0.5,4.5,1.3,6.5,2.4c0.6,0.3,0.9,0.6,1,0.9c0.1,0.3,0,0.8-0.3,1.4l-2.3,5.3c-0.2,0.5-0.5,0.8-0.8,0.9
	c-0.3,0.1-0.8,0-1.5-0.3c-1.5-0.6-3-1-4.5-1.4c-1.6-0.4-3.2-0.6-5-0.6c-2.1,0-3.8,0.4-5.3,1.3c-1.5,0.9-2.7,2-3.6,3.5
	c-0.9,1.5-1.6,3.1-2,5c-0.4,1.9-0.6,3.9-0.6,5.9c0,2.1,0.2,4.1,0.6,5.9c0.4,1.9,1,3.5,1.9,4.8c0.9,1.4,2.1,2.5,3.6,3.3
	C335,67.5,336.9,67.9,339.3,67.9"/>
<path class="st3" d="M399.8,52.1c0,8-1.9,14.2-5.6,18.5c-3.7,4.3-9.2,6.5-16.6,6.5c-7.3,0-12.8-2.1-16.3-6.3
	c-3.6-4.2-5.4-10.3-5.4-18.4c0-4,0.6-7.5,1.6-10.6c1.1-3.1,2.6-5.7,4.5-7.8c1.9-2.1,4.2-3.7,6.9-4.8c2.7-1.1,5.6-1.7,8.9-1.7
	c7.2,0,12.6,2.2,16.3,6.6C398,38.4,399.8,44.4,399.8,52.1 M389.1,52.4c0-2.2-0.2-4.2-0.5-6.2c-0.3-1.9-0.9-3.6-1.7-5.1
	c-0.8-1.5-2-2.7-3.4-3.5c-1.4-0.8-3.2-1.3-5.4-1.3c-1.9,0-3.6,0.4-5.1,1.2c-1.4,0.8-2.6,1.9-3.6,3.3c-1,1.4-1.7,3.1-2.1,5
	c-0.5,2-0.7,4-0.7,6.3c0,5,0.8,9,2.4,11.9c1.6,2.9,4.5,4.3,8.7,4.3c2.1,0,3.9-0.4,5.3-1.3c1.5-0.9,2.6-2,3.5-3.5
	c0.9-1.4,1.5-3.1,1.9-5.1C388.9,56.5,389.1,54.5,389.1,52.4"/>
<path class="st4" d="M256.6,149c0,1.5-0.6,2.4-1.7,3c-1.3,0.6-2.8,1.1-4.3,1.5c-1.6,0.4-3.2,0.8-4.8,1c-1.6,0.2-3.3,0.4-4.8,0.5
	c-1.6,0.1-3.2,0.1-4.6,0.1c-4,0-7.4-0.4-10-1.2c-2.7-0.8-4.7-1.9-6.3-3.3c-1.5-1.4-2.6-3-3.2-4.9c-0.6-1.8-0.9-3.8-0.9-5.8
	c0-2.2,0.4-4.2,1.1-6.2c0.7-2,1.8-3.7,3.4-5.2c1.6-1.5,3.6-2.7,6.2-3.6c2.5-0.9,5.6-1.4,9.2-1.4H246v-1.5c0-1.1-0.1-2.2-0.3-3.2
	c-0.3-0.9-0.7-1.8-1.4-2.5c-0.7-0.7-1.7-1.3-2.9-1.6c-1.3-0.4-2.8-0.6-4.8-0.6c-2.1,0-4.3,0.2-6.8,0.6c-2.4,0.3-4.4,0.7-5.9,1.3
	c-0.7,0.2-1.1,0.2-1.4,0.1c-0.3-0.1-0.5-0.4-0.6-1l-1.3-5.2c-0.2-1,0-1.6,0.8-1.9c2.5-0.9,5.4-1.7,8.4-2.1c3.1-0.4,5.9-0.6,8.6-0.6
	c6.3,0,10.9,1.4,13.9,4.2c3,2.8,4.4,6.9,4.4,12.3V149z M245.9,131.7h-8.8c-1,0-2.1,0.1-3.3,0.2c-1.2,0.1-2.3,0.5-3.4,1
	c-1,0.6-1.9,1.3-2.6,2.4c-0.7,1-1,2.5-1,4.3c0,2.6,0.9,4.5,2.6,5.5c1.8,1,4.1,1.6,7,1.6c0.4,0,1,0,1.8-0.1c0.8,0,1.6-0.1,2.4-0.2
	c0.8-0.1,1.8-0.3,2.7-0.5c1-0.2,1.8-0.4,2.6-0.7V131.7z"/>
<path class="st4" d="M324.7,149c0,1.5-0.6,2.4-1.7,3c-1.3,0.6-2.8,1.1-4.3,1.5c-1.6,0.4-3.2,0.8-4.8,1c-1.7,0.2-3.3,0.4-4.9,0.5
	c-1.6,0.1-3.2,0.1-4.6,0.1c-4,0-7.3-0.4-10-1.2c-2.7-0.8-4.8-1.9-6.3-3.3c-1.5-1.4-2.6-3-3.2-4.9c-0.6-1.8-0.9-3.8-0.9-5.8
	c0-2.2,0.4-4.2,1.1-6.2c0.7-2,1.8-3.7,3.4-5.2c1.6-1.5,3.7-2.7,6.2-3.6c2.5-0.9,5.6-1.4,9.2-1.4h10.2v-1.5c0-1.1-0.1-2.2-0.4-3.2
	c-0.2-0.9-0.7-1.8-1.4-2.5c-0.7-0.7-1.7-1.3-2.9-1.6c-1.2-0.4-2.8-0.6-4.8-0.6c-2.1,0-4.3,0.2-6.7,0.6c-2.4,0.3-4.4,0.7-5.9,1.3
	c-0.7,0.2-1.1,0.2-1.4,0.1c-0.3-0.1-0.5-0.4-0.7-1l-1.3-5.2c-0.3-1,0-1.6,0.8-1.9c2.6-0.9,5.4-1.7,8.4-2.1c3.1-0.4,5.9-0.6,8.6-0.6
	c6.3,0,11,1.4,13.9,4.2c2.9,2.8,4.4,6.9,4.4,12.3V149z M314,131.7h-8.8c-1.1,0-2.2,0.1-3.3,0.2c-1.2,0.1-2.3,0.5-3.4,1
	c-1.1,0.6-2,1.3-2.7,2.4c-0.7,1-1,2.5-1,4.3c0,2.6,0.8,4.5,2.6,5.5c1.7,1,4.1,1.6,7,1.6c0.4,0,1,0,1.8-0.1c0.7,0,1.6-0.1,2.4-0.2
	c0.8-0.1,1.7-0.3,2.7-0.5c1-0.2,1.8-0.4,2.6-0.7V131.7z"/>
<path class="st4" d="M399.2,105.2c7,0,12.2,1.8,15.6,5.4c3.4,3.6,5,8.5,5,14.8c0,1.6-0.2,2.9-0.6,4c-0.3,1-0.9,1.8-1.5,2.4
	c-0.7,0.6-1.5,1.1-2.3,1.3c-0.9,0.3-1.8,0.4-2.9,0.4h-24.2c0.1,2.4,0.4,4.4,1.1,6c0.7,1.6,1.6,2.9,2.7,3.9c1.2,1,2.5,1.7,4,2.1
	c1.6,0.4,3.2,0.6,5,0.6c1.9,0,3.9-0.3,5.7-0.7c1.9-0.5,3.5-1.1,4.9-1.7c0.9-0.4,1.6-0.3,2,0.5l2.5,5.2c0.4,1,0.2,1.7-0.6,2.1
	c-2.3,1.4-4.8,2.4-7.6,2.9c-2.7,0.5-5.3,0.8-7.8,0.8c-7.4,0-13-2-16.9-5.9c-3.9-3.9-5.9-10.2-5.9-18.8c0-4,0.6-7.6,1.7-10.7
	c1.1-3.2,2.6-5.8,4.5-7.9c1.9-2.2,4.2-3.8,6.9-4.9C393.1,105.7,396,105.2,399.2,105.2 M399.3,114c-1.6,0-3.1,0.3-4.4,1
	c-1.3,0.7-2.4,1.5-3.3,2.6c-0.9,1.1-1.6,2.3-2.2,3.7c-0.5,1.4-0.9,2.8-0.9,4.4h21c0-1.7-0.2-3.1-0.5-4.6c-0.3-1.4-0.8-2.6-1.6-3.7
	c-0.8-1.1-1.8-1.9-3.1-2.5C403.1,114.3,401.4,114,399.3,114"/>
<path class="st4" d="M509,149c0,1.5-0.6,2.4-1.8,3c-1.3,0.6-2.7,1.1-4.3,1.5c-1.6,0.4-3.2,0.8-4.8,1c-1.7,0.2-3.3,0.4-4.9,0.5
	c-1.6,0.1-3.2,0.1-4.6,0.1c-4,0-7.3-0.4-10-1.2c-2.6-0.8-4.7-1.9-6.3-3.3c-1.5-1.4-2.6-3-3.2-4.9c-0.6-1.8-0.9-3.8-0.9-5.8
	c0-2.2,0.3-4.2,1.1-6.2c0.7-2,1.8-3.7,3.4-5.2c1.6-1.5,3.6-2.7,6.1-3.6c2.5-0.9,5.6-1.4,9.3-1.4h10.2v-1.5c0-1.1-0.1-2.2-0.4-3.2
	c-0.2-0.9-0.7-1.8-1.4-2.5c-0.7-0.7-1.7-1.3-2.9-1.6c-1.2-0.4-2.8-0.6-4.7-0.6c-2.1,0-4.3,0.2-6.8,0.6c-2.4,0.3-4.4,0.7-5.9,1.3
	c-0.7,0.2-1.2,0.2-1.5,0.1c-0.3-0.1-0.5-0.4-0.6-1l-1.3-5.2c-0.3-1,0-1.6,0.8-1.9c2.5-0.9,5.3-1.7,8.4-2.1c3.1-0.4,5.9-0.6,8.6-0.6
	c6.3,0,11,1.4,13.9,4.2c2.9,2.8,4.4,6.9,4.4,12.3V149z M498.2,131.7h-8.8c-1,0-2.1,0.1-3.3,0.2c-1.2,0.1-2.3,0.5-3.4,1
	c-1.1,0.6-1.9,1.3-2.7,2.4c-0.7,1-1,2.5-1,4.3c0,2.6,0.9,4.5,2.6,5.5c1.7,1,4.1,1.6,7,1.6c0.4,0,1,0,1.8-0.1c0.8,0,1.6-0.1,2.4-0.2
	c0.9-0.1,1.8-0.3,2.7-0.5c0.9-0.2,1.8-0.4,2.6-0.7V131.7z"/>
<path class="st4" d="M217.7,90.7c-0.2-0.3-0.8-0.5-1.6-0.5h-25.7c-3.1,0-5.7,0.4-7.7,1.4c-2.1,0.9-3.8,2.1-5,3.6
	c-1.3,1.5-2.2,3.3-2.7,5.3c-0.5,2-0.8,4-0.8,6.2v45.6c0,0.8,0.2,1.3,0.5,1.5c0.4,0.2,0.9,0.4,1.6,0.4h2.9c2-0.1,6.1-1.1,6.1-7.1v-21
	h27.4c0.8,0,1.3-0.2,1.5-0.6c0.2-0.4,0.3-0.9,0.3-1.6v-5.2c0-0.9-0.1-1.4-0.3-1.7c-0.2-0.3-0.7-0.5-1.5-0.5h-27.4V106
	c0-1.9,0.5-3.4,1.5-4.4c0.9-1,2.5-1.5,4.8-1.5h24.5c0.8,0,1.3-0.2,1.5-0.5c0.3-0.3,0.4-0.8,0.4-1.6v-5.6
	C218.1,91.6,217.9,91,217.7,90.7"/>
<path class="st4" d="M372.4,119.9c-0.8-3-2.1-5.6-3.8-7.8c-1.7-2.2-3.8-3.9-6.5-5.1c-2.6-1.3-5.8-1.8-9.4-1.8
	c-1.7,0-3.5,0.1-5.6,0.4c-2.1,0.3-4.1,0.7-5.8,1.2l-0.1-17.7c0-0.8-0.1-1.2-0.4-1.4c-0.2-0.2-0.7-0.3-1.4-0.3h-2.9
	c-2,0.1-5.9,1.2-6,6.9v55.4c0,0.5,0.1,1,0.3,1.4c0.2,0.3,0.6,0.6,1.1,0.8c2.8,1.2,5.7,2.1,9,2.5c3.3,0.5,6.5,0.8,9.6,0.8
	c4,0,7.5-0.6,10.4-1.9c2.9-1.3,5.3-3.1,7.2-5.4c1.9-2.3,3.3-5,4.2-8.1c0.9-3.1,1.3-6.5,1.3-10.1
	C373.6,126.2,373.2,122.9,372.4,119.9 M361.8,137.6c-0.6,2-1.5,3.7-2.6,4.9c-1.1,1.3-2.4,2.2-4,2.8c-1.5,0.6-3.3,0.8-5.2,0.8
	c-1.3,0-2.7,0-4.2-0.2c-1.6-0.1-3.1-0.4-4.6-0.9v-29.2c1.9-0.6,3.8-1,5.6-1.2c1.8-0.2,3.2-0.3,4.1-0.3c3.7,0,6.5,1.3,8.6,4
	c2.1,2.6,3.1,6.6,3.1,11.9C362.7,133.1,362.4,135.6,361.8,137.6"/>
<path class="st4" d="M443.3,152l-0.6-5.1c-0.1-0.5-0.2-0.8-0.4-1c-0.2-0.1-0.5-0.2-1-0.1c-0.4,0.1-1,0.1-1.6,0.2
	c-0.6,0.1-1.2,0.1-1.7,0.1c-1.2,0-2-0.3-2.5-0.9c-0.4-0.5-0.6-1.6-0.6-3.2V89c0-0.7-0.2-1.1-0.4-1.3c-0.3-0.2-0.8-0.3-1.4-0.3h-3
	c-2,0.1-5.8,1.2-6,6.6v50.4c0,4,0.8,6.7,2.4,8.3c1.6,1.6,4.1,2.4,7.5,2.4c1.2,0,2.6-0.1,4.1-0.2c1.6-0.2,3-0.5,4.2-1
	c0.6-0.3,1-0.6,1.1-0.8C443.4,153,443.4,152.6,443.3,152"/>
<path class="st4" d="M466.7,152l-0.6-5.1c-0.1-0.5-0.2-0.8-0.4-1c-0.2-0.1-0.6-0.2-1-0.1c-0.4,0.1-1,0.1-1.6,0.2
	c-0.6,0.1-1.2,0.1-1.7,0.1c-1.2,0-2-0.3-2.5-0.9c-0.4-0.5-0.6-1.6-0.6-3.2V89c0-0.7-0.2-1.1-0.4-1.3c-0.2-0.2-0.7-0.3-1.4-0.3h-2.9
	c-2,0.1-6,1.2-6,7v50c0,4,0.8,6.7,2.4,8.3c1.6,1.6,4.1,2.4,7.5,2.4c1.2,0,2.6-0.1,4.2-0.2c1.5-0.2,2.9-0.5,4.1-1
	c0.6-0.3,1-0.6,1.1-0.8C466.8,153,466.8,152.6,466.7,152"/>
<path class="st4" d="M282.6,152l-0.6-5.1c-0.1-0.5-0.2-0.8-0.4-1c-0.2-0.1-0.6-0.2-1.1-0.1c-0.4,0.1-1,0.1-1.6,0.2
	c-0.6,0.1-1.2,0.1-1.7,0.1c-1.2,0-2-0.3-2.4-0.9c-0.5-0.5-0.7-1.6-0.7-3.2V89c0-0.7-0.1-1.1-0.4-1.3c-0.3-0.2-0.7-0.3-1.4-0.3h-3
	c-2,0.1-6,1.2-6,7.1v50c0,4,0.8,6.7,2.4,8.3c1.6,1.6,4.1,2.4,7.5,2.4c1.2,0,2.6-0.1,4.1-0.2c1.5-0.2,2.9-0.5,4.1-1
	c0.6-0.3,1-0.6,1.1-0.8C282.7,153,282.7,152.6,282.6,152"/>
</svg>
