<svg width="194" height="33" viewBox="0 0 194 33" fill="none" xmlns="http://www.w3.org/2000/svg">
<path d="M7.56535 5.85909V28.8441C7.56535 30.889 5.87083 32.5483 3.78267 32.5483C1.69452 32.5447 0 30.889 0 28.8441V5.85909C0 3.81427 1.69452 2.15491 3.78267 2.15491C5.87083 2.15491 7.56535 3.81427 7.56535 5.85909Z" fill="#20A2A5"/>
<path d="M25.9913 18.5393C25.9913 16.4725 25.5789 15.0371 24.1581 15.0371C22.4636 15.0371 20.6753 17.3719 20.6753 21.278V29.4977C20.6753 31.1791 19.2807 32.5448 17.5637 32.5448H16.544C14.827 32.5448 13.4324 31.1791 13.4324 29.4977V20.8742C13.4324 17.9079 12.99 15.7823 12.4801 14.3139C11.9103 12.6839 12.7988 10.9107 14.4783 10.3931C15.9741 9.93051 17.6087 10.6207 18.2423 12.0267C18.4709 12.5334 18.6809 13.1207 18.8421 13.7815C20.4466 10.9988 23.427 9.69556 26.6811 9.69556C31.4497 9.69556 33.283 12.794 33.283 17.5078V29.5014C33.283 31.1828 31.8884 32.5484 30.1714 32.5484H29.1067C27.3897 32.5484 25.995 31.1828 25.995 29.5014V18.5393H25.9913Z" fill="#20A2A5"/>
<path d="M37.2682 16.2962C37.2682 12.4819 40.2936 9.60742 45.3809 9.60742C47.4465 9.60742 49.336 9.98922 50.7906 10.4114C52.3726 10.8703 53.1824 12.5847 52.5076 14.0605C51.919 15.3528 50.4044 15.9695 49.0511 15.4666C48.2038 15.1509 47.2703 14.9049 46.3856 14.9049C45.4221 14.9049 44.6423 15.3087 44.6423 16.2081C44.6423 17.1516 46.0182 18.0951 48.0801 18.9468C51.7016 20.43 53.8122 22.3133 53.8122 25.7715C53.8122 29.6335 50.9705 33 45.5608 33C43.1315 33 40.9759 32.5374 39.2964 32.0198C37.7331 31.5352 36.9458 29.8318 37.6206 28.3706L37.6693 28.2605C38.2767 26.9426 39.8437 26.3478 41.2083 26.8985C42.1568 27.2803 43.2365 27.6107 44.185 27.6107C45.4671 27.6107 46.3856 27.1188 46.3856 26.1753C46.3856 25.0519 45.2384 24.1084 43.6826 23.5284C39.1014 21.7259 37.2682 19.6627 37.2682 16.2962Z" fill="#20A2A5"/>
<path d="M59.2706 10.1911L59.7617 7.27621C59.9342 6.24462 60.7364 5.41861 61.7787 5.19467L63.162 4.89731C64.789 4.54855 66.3299 5.7637 66.3299 7.39369V10.1874H71.7396L70.8698 15.3931H66.3299V25.4043C66.3299 26.7076 67.0647 27.3794 68.4405 27.3794C68.7929 27.3794 69.1641 27.35 69.524 27.3097C70.8173 27.1555 72.0245 27.9815 72.3469 29.2187C72.718 30.6394 71.7921 32.0711 70.3225 32.3575C69.2615 32.5667 67.9756 32.7246 66.4686 32.7246C61.8836 32.7246 59.1319 31.0652 59.1319 26.6195V15.3968H55.5104V10.1911H59.2706Z" fill="#20A2A5"/>
<path d="M95.0731 31.8326L92.8612 32.5154C92.0214 32.7761 91.1142 32.4383 90.6531 31.7004C90.1845 30.9478 89.6596 29.8502 89.3934 28.4184C88.385 31.2011 86.413 32.8164 83.114 32.8164C77.1082 32.8164 74.2665 28.3707 74.2665 21.6378C74.2665 14.7691 78.9414 9.69556 85.772 9.69556C88.3325 9.69556 91.5341 10.2829 93.3823 10.6684C94.2633 10.852 94.8931 11.6156 94.8931 12.5003V21.7259C94.8931 25.4521 95.5904 27.8567 96.2502 29.2921C96.7151 30.3127 96.1565 31.4985 95.0731 31.8326ZM87.6464 16.7735C87.6464 15.7603 86.8217 14.9086 85.7832 14.9012C85.7795 14.9012 85.772 14.9012 85.7682 14.9012C82.7878 14.9012 81.963 17.5481 81.963 21.1862C81.963 24.5086 82.1018 27.6071 84.3024 27.6071C86.1806 27.6071 87.6502 24.2406 87.6502 20.4704V16.7735H87.6464Z" fill="#20A2A5"/>
<path d="M108.367 2.15492V32.5483H100.801V2.15492H108.367ZM127.85 32.5447H119.415L108.869 15.8887V15.349C114.279 12.7902 116.022 8.61613 117.488 2.15125H125.004C123.261 10.6353 120.42 14.0458 117.12 16.5605L127.85 32.5447Z" fill="#67BE9F"/>
<path d="M151.596 31.1094L145.774 32.9045C145.774 32.9045 144.124 31.3773 143.573 28.4147C142.564 31.1975 140.593 32.8128 137.293 32.8128C131.288 32.8128 128.446 28.367 128.446 21.6341C128.446 14.7654 133.121 9.69189 139.951 9.69189C143.757 9.69189 148.983 10.9952 149.073 10.9952V21.7259C149.073 28.8222 151.596 31.1094 151.596 31.1094ZM141.83 15.2647C141.417 15.0848 140.499 14.9049 139.951 14.9049C136.971 14.9049 136.146 17.5518 136.146 21.1899C136.146 24.5123 136.285 27.6108 138.486 27.6108C140.364 27.6108 141.833 24.2443 141.833 20.474V15.2647H141.83Z" fill="#67BE9F"/>
<path d="M153.748 16.2962C153.748 12.4819 156.773 9.60742 161.86 9.60742C166.445 9.60742 170.157 11.4944 170.157 11.4944L167.87 16.5202C166.861 16.0246 164.754 14.9049 162.872 14.9049C161.909 14.9049 161.129 15.3087 161.129 16.2081C161.129 17.1516 162.505 18.0951 164.567 18.9468C168.188 20.43 170.299 22.3133 170.299 25.7715C170.299 29.6335 167.457 33 162.048 33C157.83 33 154.437 31.6086 152.927 30.9331L155.311 25.7715C155.907 26.0395 158.61 27.6107 160.676 27.6107C161.958 27.6107 162.876 27.1188 162.876 26.1753C162.876 25.0519 161.729 24.1084 160.173 23.5284C155.581 21.7259 153.748 19.6627 153.748 16.2962Z" fill="#67BE9F"/>
<path d="M187.398 9.6955C192.167 9.6955 194 12.7462 194 17.5077V32.5447H186.712V18.5393C186.712 16.4284 186.3 15.037 184.879 15.037C183.274 15.037 181.396 17.192 181.396 20.6943V32.5447H174.153V1.21148L181.392 0V11.7183C182.997 10.3269 185.149 9.6955 187.398 9.6955Z" fill="#67BE9F"/>
</svg>
