<svg width="353" height="363" viewBox="0 0 353 363" fill="none" xmlns="http://www.w3.org/2000/svg">
<path d="M197.241 137.081C197.521 136.111 280.158 106.422 301.964 77.4299C301.964 77.4299 303.358 68.7302 309.541 64.0589C315.724 59.3875 328.535 63.6779 328.567 67.7332C328.591 71.7204 320.745 82.3468 304.568 86.4735C304.568 86.4735 259.777 132.03 197.925 144.99C197.847 145.007 195.92 141.913 197.241 137.081Z" fill="#F9CEB5"/>
<path d="M194.754 94.8509C194.754 94.8509 135.714 177.593 80.8164 189.931C25.9191 202.27 19.2851 241.693 19.2851 241.693C19.2851 241.693 63.5882 222.14 79.0875 232.758C94.5868 243.376 134.162 245.278 147.288 234.317C160.326 223.303 178.297 199.641 194.559 203.331C210.812 206.951 231.338 171.153 231.338 171.153L194.754 94.8509Z" fill="#FF4B55"/>
<path opacity="0.3" d="M200.87 199.765C193.851 203.548 185.292 206.573 178.13 204.417C176.547 203.937 175.094 203.228 173.451 202.894C169.342 202.058 164.764 203.732 160.696 205.637C152.569 209.513 145.056 214.403 138.468 220.244C133.603 224.593 128.599 229.707 122.031 230.85C117.419 231.659 113.008 230.349 108.977 228.893C104.938 227.373 100.795 225.672 98.1665 222.723C95.4605 219.789 94.5466 215.282 97.0236 211.624C98.236 209.9 100.045 208.457 100.929 206.667C101.813 204.877 101.001 202.36 98.8469 202.399C98.371 202.429 97.8259 202.541 97.3672 202.701C91.1367 204.58 84.9839 206.442 78.7619 208.386C73.3015 210.039 67.2267 211.886 61.8635 210.636C57.9795 209.687 57.3672 206.862 55.9064 204.881C27.3622 220.109 23.2105 243.222 23.2105 243.222C23.2105 243.222 66.7157 225 81.9359 234.895C97.1561 244.791 136.019 246.563 148.908 236.348C161.711 226.084 179.359 204.032 195.328 207.471C211.288 210.844 231.444 177.482 231.444 177.482L230.995 176.501C222.008 185.381 212.295 193.605 200.87 199.765Z" fill="black"/>
<path opacity="0.3" d="M181.149 188.876C170.975 198.379 159.61 206.998 150.703 217.295C143.075 226.07 137.431 236.015 134.163 246.046C139.001 244.585 143.198 242.658 146.157 240.21C153.78 233.821 163.037 223.643 172.58 216.197C174.287 211.478 176.255 206.831 178.732 202.194C185.445 189.518 194.478 177.996 200.024 165.482C195.823 173.861 188.7 181.804 181.149 188.876Z" fill="#20A2A5"/>
<path opacity="0.3" d="M194.487 165.406C196.066 162.324 197.196 159.283 197.942 156.043C197.019 159.328 195.889 162.369 194.487 165.406Z" fill="black"/>
<path opacity="0.3" d="M76.8185 228.769C79.1075 225.834 81.7351 223.009 84.5422 220.332C95.1241 210.424 108.234 202.72 120.798 194.507C129.705 188.667 138.426 182.616 146.874 176.311C157.734 168.195 167.734 160.419 171.756 149.489C153.849 171.457 120.718 194.527 64.0879 209.499C54.0943 212.141 39.3593 228.071 33.8129 235.525C46.9414 230.96 66.1721 225.476 76.8185 228.769Z" fill="black"/>
<path d="M193.497 188.209C196.318 194.734 169.966 288.619 169.443 291.172C168.919 293.724 186.336 322.447 186.336 322.447C186.336 322.447 193.37 322.142 180.046 291.106L211.939 198.821L193.497 188.209Z" fill="#B3353C"/>
<path d="M224.573 175.602C226.792 182.291 189.466 273.212 188.651 275.675C187.837 278.138 202.755 308.32 202.755 308.32C202.755 308.32 210.051 308.654 199.646 276.585L242.511 187.826L224.573 175.602Z" fill="#B3353C"/>
<path d="M262.265 124.494C271.936 76.3449 262.932 35.5572 242.156 33.3922C221.379 31.2273 196.696 68.5048 187.026 116.654C177.355 164.803 186.359 205.591 207.135 207.756C227.912 209.921 252.595 172.643 262.265 124.494Z" fill="#FFEB4C"/>
<path opacity="0.6" d="M200.103 138.446L181.532 141.471C181.115 145.428 180.927 149.192 180.887 152.782C188.342 151.673 195.062 150.686 195.062 150.686L200.103 138.446Z" fill="#FFEB4C"/>
<path opacity="0.6" d="M182.624 114.341C182.133 116.142 181.643 117.944 181.227 119.656L201.996 116.807L208.331 94.5849L189.378 95.3558C186.705 101.422 184.486 107.789 182.624 114.341Z" fill="#FFEB4C"/>
<path opacity="0.5" d="M205.63 62.7015C220.61 64.0169 238.897 65.756 238.897 65.756L214.521 165.667L178.065 165.885C180.913 187.371 190.446 202.017 204.981 203.201C213.208 203.927 221.993 200.203 230.447 193.133L253.971 80.1909C253.971 80.1909 254.005 57.0942 253.47 39.0574C251.006 37.8436 248.339 37.0537 245.476 36.7618C232.33 35.733 217.917 45.8396 205.63 62.7015Z" fill="#EAB726"/>
<path d="M268.677 126.283C278.314 78.2274 270.319 37.6213 250.821 35.5865C231.323 33.5516 207.704 70.8586 198.067 118.914C188.43 166.969 196.424 207.575 215.922 209.61C235.42 211.645 259.039 174.338 268.677 126.283Z" fill="#FFDD50"/>
<path opacity="0.5" d="M261.558 160.957C241.643 174.527 221.656 186.837 201.732 198.983C201.659 199.074 201.496 199.11 201.423 199.201C197.789 195.64 194.902 190.641 192.797 184.496C220.931 154.501 249.455 126.298 278.088 98.971C277.473 107.585 276.094 116.815 273.752 126.406C270.762 138.914 266.573 150.558 261.558 160.957ZM189.636 140.61C188.822 147.616 188.563 154.351 188.832 160.596C201.963 151.956 215.122 142.86 228.317 133.381C244.977 121.345 261.711 108.543 278.344 95.6132C279.073 79.7705 276.955 66.0489 272.389 56.3128L272.316 56.4037C265.321 65.0573 256.945 71.3852 249.605 78.613C234.388 93.4857 219.225 108.797 204.235 124.821C199.323 129.944 194.511 135.195 189.636 140.61Z" fill="#FFEB4C"/>
<path d="M266.352 126.04C275.365 81.0941 267.908 43.1172 249.695 41.2165C231.482 39.3158 209.411 74.2109 200.398 119.157C191.385 164.103 198.842 202.08 217.055 203.981C235.268 205.881 257.339 170.986 266.352 126.04Z" fill="#F9A91C"/>
<path d="M263.028 125.633C271.638 82.7007 264.516 46.4251 247.12 44.6096C229.725 42.7942 208.644 76.1264 200.034 119.059C191.425 161.992 198.547 198.268 215.942 200.083C233.338 201.898 254.419 168.566 263.028 125.633Z" fill="#FFEB4C"/>
<path d="M234.324 86.7671L219.605 155.598C218.294 161.732 214.014 165.909 210.034 164.941C206.053 163.973 203.895 158.23 205.206 152.096L219.925 83.2652C221.236 77.1317 225.516 72.9547 229.496 73.9229C233.477 74.891 235.635 80.6336 234.324 86.7671Z" fill="#EAB726"/>
<path d="M230.853 131.988L228.351 116.456L228.706 114.824C231.34 113.661 233.672 112.145 235.82 110.305L230.853 131.988Z" fill="#EAB726"/>
<path d="M235.092 109.609C241.109 104.428 245.421 96.6015 249.732 85.9803C251.541 81.5047 254.915 78.9222 257.975 79.6573C262.575 80.7629 264.294 88.6012 261.396 95.1706C254.795 110.032 248.761 116.686 242.577 121.468L248.987 156.702C250.345 164.214 245.259 172.573 240.056 171.323C237.791 170.779 236.1 168.416 235.571 165.135L230.11 131.247L235.092 109.609Z" fill="#EAB726"/>
<path opacity="0.3" d="M242.408 176.782C231.603 177.848 221.508 173.386 216.372 160.726C213.17 152.878 212.089 142.276 211.934 131.323C211.758 122.986 212.051 114.166 213.374 105.127C214.736 95.6951 217.396 86.0646 220.828 76.9613C224.012 68.6792 227.864 60.7929 232.173 53.7313C232.317 53.4703 232.469 53.2842 232.613 53.0233C217.496 64.6091 203.115 88.9451 195.927 117.822C185.668 159.336 194.177 194.404 214.964 196.211C225.491 197.124 237.198 189.259 247.496 175.854C245.883 176.351 244.155 176.641 242.408 176.782Z" fill="#EAB726"/>
<path d="M182.38 150.883C182.917 149.957 265.864 145.167 295.609 121.472C295.609 121.472 300.097 112.705 307.128 109.694C314.229 106.755 323.82 115.439 322.385 119.713C320.873 123.989 310.15 132.725 294.559 131.82C294.559 131.82 238.755 165.666 180.043 159.406C180.036 159.482 179.461 155.596 182.38 150.883Z" fill="#F9CEB5"/>
</svg>
