<svg width="778" height="702" viewBox="0 0 778 702" fill="none" xmlns="http://www.w3.org/2000/svg">
<path opacity="0.1" d="M70.0444 265.084C70.0444 265.084 -97.9556 61.0838 90.0444 9.08377C278.044 -42.9162 344.044 169.084 472.044 175.084C600.044 181.084 750.044 95.0838 790.044 95.0838C830.044 95.0838 902.044 99.0838 898.044 169.084C894.044 239.084 842.044 303.084 840.044 337.084C838.044 371.084 886.044 463.084 894.044 485.084C902.044 507.084 912.044 569.084 868.044 573.084C845.524 575.084 717.044 600.084 543.044 549.084C411.374 510.494 205.284 577.084 157.234 577.084C141.673 577.122 126.487 572.313 113.784 563.324C78.4844 538.214 22.3144 475.144 72.0444 345.084C98.0444 277.084 70.0444 265.084 70.0444 265.084Z" fill="#67BE9F"/>
<path d="M238.039 298.084C266.206 298.084 289.039 275.251 289.039 247.084C289.039 218.917 266.206 196.084 238.039 196.084C209.873 196.084 187.039 218.917 187.039 247.084C187.039 275.251 209.873 298.084 238.039 298.084Z" fill="white"/>
<path d="M176.039 290.084C194.817 290.084 210.039 274.862 210.039 256.084C210.039 237.306 194.817 222.084 176.039 222.084C157.261 222.084 142.039 237.306 142.039 256.084C142.039 274.862 157.261 290.084 176.039 290.084Z" fill="white"/>
<path d="M292.039 290.084C310.264 290.084 325.039 275.309 325.039 257.084C325.039 238.859 310.264 224.084 292.039 224.084C273.814 224.084 259.039 238.859 259.039 257.084C259.039 275.309 273.814 290.084 292.039 290.084Z" fill="white"/>
<path d="M153.039 505.084C171.817 505.084 187.039 489.862 187.039 471.084C187.039 452.306 171.817 437.084 153.039 437.084C134.261 437.084 119.039 452.306 119.039 471.084C119.039 489.862 134.261 505.084 153.039 505.084Z" fill="white"/>
<path d="M193.039 501.084C206.294 501.084 217.039 490.339 217.039 477.084C217.039 463.829 206.294 453.084 193.039 453.084C179.784 453.084 169.039 463.829 169.039 477.084C169.039 490.339 179.784 501.084 193.039 501.084Z" fill="white"/>
<path d="M357.241 292.081C357.521 291.111 440.158 261.422 461.964 232.43C461.964 232.43 463.358 223.73 469.541 219.059C475.724 214.387 488.535 218.678 488.567 222.733C488.591 226.72 480.745 237.347 464.568 241.474C464.568 241.474 419.777 287.03 357.925 299.99C357.847 300.007 355.92 296.913 357.241 292.081Z" fill="#F9CEB5"/>
<path d="M354.754 249.851C354.754 249.851 295.714 332.593 240.816 344.931C185.919 357.27 179.285 396.693 179.285 396.693C179.285 396.693 223.588 377.14 239.087 387.758C254.587 398.376 294.162 400.278 307.288 389.317C320.326 378.303 338.297 354.641 354.559 358.331C370.812 361.951 391.338 326.153 391.338 326.153L354.754 249.851Z" fill="#FF4B55"/>
<path opacity="0.3" d="M360.87 354.765C353.851 358.548 345.292 361.573 338.13 359.417C336.547 358.937 335.094 358.228 333.451 357.894C329.342 357.058 324.764 358.732 320.696 360.637C312.569 364.513 305.056 369.403 298.468 375.244C293.603 379.593 288.599 384.707 282.031 385.85C277.419 386.659 273.008 385.349 268.977 383.893C264.938 382.373 260.795 380.672 258.166 377.723C255.461 374.789 254.547 370.282 257.024 366.624C258.236 364.9 260.045 363.457 260.929 361.667C261.813 359.877 261.001 357.36 258.847 357.399C258.371 357.429 257.826 357.541 257.367 357.701C251.137 359.58 244.984 361.442 238.762 363.386C233.302 365.039 227.227 366.886 221.863 365.636C217.979 364.687 217.367 361.862 215.906 359.881C187.362 375.109 183.21 398.222 183.21 398.222C183.21 398.222 226.716 380 241.936 389.895C257.156 399.791 296.019 401.563 308.908 391.348C321.711 381.084 339.359 359.032 355.328 362.471C371.288 365.844 391.444 332.482 391.444 332.482L390.995 331.501C382.008 340.381 372.295 348.605 360.87 354.765Z" fill="black"/>
<path opacity="0.3" d="M341.149 343.876C330.975 353.379 319.61 361.998 310.703 372.295C303.075 381.07 297.431 391.015 294.163 401.046C299.001 399.585 303.198 397.658 306.157 395.21C313.78 388.821 323.037 378.643 332.58 371.197C334.287 366.478 336.255 361.831 338.732 357.194C345.445 344.518 354.478 332.996 360.024 320.482C355.823 328.861 348.7 336.804 341.149 343.876Z" fill="#20A2A5"/>
<path opacity="0.3" d="M354.487 320.406C356.066 317.324 357.196 314.283 357.942 311.043C357.019 314.328 355.889 317.369 354.487 320.406Z" fill="black"/>
<path opacity="0.3" d="M236.819 383.769C239.108 380.834 241.735 378.009 244.542 375.332C255.124 365.424 268.234 357.72 280.798 349.507C289.705 343.667 298.426 337.616 306.874 331.311C317.734 323.195 327.734 315.419 331.756 304.489C313.849 326.457 280.718 349.527 224.088 364.499C214.094 367.141 199.359 383.071 193.813 390.525C206.941 385.96 226.172 380.476 236.819 383.769Z" fill="black"/>
<path d="M353.497 343.209C356.318 349.734 329.966 443.619 329.443 446.172C328.919 448.724 346.336 477.447 346.336 477.447C346.336 477.447 353.37 477.142 340.046 446.106L371.939 353.821L353.497 343.209Z" fill="#B3353C"/>
<path d="M384.573 330.602C386.792 337.291 349.466 428.212 348.651 430.675C347.837 433.138 362.755 463.32 362.755 463.32C362.755 463.32 370.051 463.654 359.646 431.585L402.511 342.826L384.573 330.602Z" fill="#B3353C"/>
<path d="M422.265 279.494C431.936 231.345 422.932 190.557 402.156 188.392C381.379 186.227 356.696 223.505 347.026 271.654C337.355 319.803 346.359 360.591 367.135 362.756C387.912 364.921 412.595 327.643 422.265 279.494Z" fill="#FFEB4C"/>
<path opacity="0.6" d="M360.103 293.446L341.532 296.471C341.115 300.428 340.927 304.192 340.887 307.782C348.342 306.673 355.062 305.686 355.062 305.686L360.103 293.446Z" fill="#FFEB4C"/>
<path opacity="0.6" d="M342.624 269.341C342.133 271.142 341.643 272.944 341.227 274.656L361.996 271.807L368.331 249.585L349.378 250.356C346.705 256.422 344.486 262.789 342.624 269.341Z" fill="#FFEB4C"/>
<path opacity="0.5" d="M365.63 217.702C380.61 219.017 398.897 220.756 398.897 220.756L374.521 320.667L338.065 320.885C340.913 342.371 350.446 357.017 364.981 358.201C373.208 358.927 381.993 355.203 390.447 348.133L413.971 235.191C413.971 235.191 414.005 212.094 413.47 194.057C411.006 192.844 408.339 192.054 405.476 191.762C392.33 190.733 377.917 200.84 365.63 217.702Z" fill="#EAB726"/>
<path d="M428.677 281.283C438.314 233.227 430.319 192.621 410.821 190.586C391.323 188.552 367.704 225.859 358.067 273.914C348.43 321.969 356.424 362.575 375.922 364.61C395.42 366.645 419.039 329.338 428.677 281.283Z" fill="#FFDD50"/>
<path opacity="0.5" d="M421.558 315.957C401.643 329.527 381.656 341.837 361.732 353.983C361.659 354.074 361.496 354.11 361.423 354.201C357.789 350.64 354.902 345.641 352.797 339.496C380.931 309.501 409.455 281.298 438.088 253.971C437.473 262.585 436.094 271.815 433.752 281.406C430.762 293.914 426.573 305.558 421.558 315.957ZM349.636 295.61C348.822 302.616 348.563 309.351 348.832 315.596C361.963 306.956 375.122 297.86 388.317 288.381C404.977 276.345 421.711 263.543 438.344 250.613C439.073 234.77 436.955 221.049 432.389 211.313L432.316 211.404C425.321 220.057 416.945 226.385 409.605 233.613C394.388 248.486 379.225 263.797 364.235 279.821C359.323 284.944 354.511 290.195 349.636 295.61Z" fill="#FFEB4C"/>
<path d="M426.352 281.04C435.365 236.094 427.908 198.117 409.695 196.216C391.482 194.316 369.411 229.211 360.398 274.157C351.385 319.103 358.842 357.08 377.055 358.981C395.268 360.881 417.339 325.986 426.352 281.04Z" fill="#F9A91C"/>
<path d="M423.028 280.633C431.638 237.701 424.516 201.425 407.12 199.61C389.725 197.794 368.644 231.126 360.034 274.059C351.425 316.992 358.547 353.268 375.942 355.083C393.338 356.898 414.419 323.566 423.028 280.633Z" fill="#FFEB4C"/>
<path d="M394.324 241.767L379.605 310.598C378.294 316.732 374.014 320.909 370.034 319.941C366.053 318.973 363.895 313.23 365.206 307.096L379.925 238.265C381.236 232.132 385.516 227.955 389.496 228.923C393.477 229.891 395.635 235.634 394.324 241.767Z" fill="#EAB726"/>
<path d="M390.853 286.988L388.351 271.456L388.706 269.824C391.34 268.661 393.672 267.145 395.82 265.305L390.853 286.988Z" fill="#EAB726"/>
<path d="M395.092 264.609C401.109 259.428 405.421 251.602 409.732 240.98C411.541 236.505 414.915 233.922 417.975 234.657C422.575 235.763 424.294 243.601 421.396 250.171C414.795 265.032 408.761 271.686 402.577 276.468L408.987 311.702C410.345 319.214 405.259 327.573 400.056 326.323C397.791 325.779 396.1 323.416 395.571 320.135L390.11 286.247L395.092 264.609Z" fill="#EAB726"/>
<path opacity="0.3" d="M402.408 331.782C391.603 332.848 381.508 328.386 376.372 315.726C373.17 307.878 372.089 297.276 371.934 286.323C371.758 277.986 372.051 269.166 373.374 260.127C374.736 250.695 377.396 241.065 380.828 231.961C384.012 223.679 387.864 215.793 392.173 208.731C392.317 208.47 392.469 208.284 392.613 208.023C377.496 219.609 363.115 243.945 355.927 272.822C345.668 314.336 354.177 349.404 374.964 351.211C385.491 352.124 397.198 344.259 407.496 330.854C405.883 331.351 404.155 331.641 402.408 331.782Z" fill="#EAB726"/>
<path d="M342.38 305.883C342.917 304.957 425.864 300.167 455.609 276.472C455.609 276.472 460.097 267.705 467.128 264.694C474.229 261.755 483.82 270.439 482.385 274.713C480.873 278.989 470.15 287.725 454.559 286.82C454.559 286.82 398.755 320.666 340.043 314.406C340.036 314.482 339.461 310.596 342.38 305.883Z" fill="#F9CEB5"/>
<path d="M894.875 792.142C894.875 792.142 953.674 683.422 841.881 665.595C807.618 660.147 787.845 647.248 787.845 627.699C787.845 608.151 806.538 581.151 859.532 586.358C912.527 591.526 933.3 449.276 792.008 449.276C650.716 449.276 597.201 419.992 567.342 407.534C537.482 395.076 268.827 298.172 232.123 536.965C226.919 570.735 235.245 610.754 268.467 631.305C301.688 651.855 299.647 679.015 274.711 695.039C249.774 711.103 181.21 708.058 177.047 796.909L894.875 792.142Z" fill="#DCEBE8" fill-opacity="0.9"/>
<path opacity="0.51" d="M383.914 460.574C402.692 460.574 417.914 445.352 417.914 426.574C417.914 407.797 402.692 392.574 383.914 392.574C365.136 392.574 349.914 407.797 349.914 426.574C349.914 445.352 365.136 460.574 383.914 460.574Z" fill="white"/>
<path d="M503.477 457.049C521.702 457.049 536.477 442.274 536.477 424.049C536.477 405.823 521.702 391.049 503.477 391.049C485.251 391.049 470.477 405.823 470.477 424.049C470.477 442.274 485.251 457.049 503.477 457.049Z" fill="#EEF6F4"/>
<path d="M447.477 466.049C475.643 466.049 498.477 443.215 498.477 415.049C498.477 386.882 475.643 364.049 447.477 364.049C419.31 364.049 396.477 386.882 396.477 415.049C396.477 443.215 419.31 466.049 447.477 466.049Z" fill="#EEF6F4"/>
</svg>
