<?xml version="1.0" encoding="utf-8"?>
<!-- Generator: Adobe Illustrator 24.2.1, SVG Export Plug-In . SVG Version: 6.00 Build 0)  -->
<svg version="1.1" id="Capa_1" xmlns="http://www.w3.org/2000/svg" xmlns:xlink="http://www.w3.org/1999/xlink" x="0px" y="0px"
	 viewBox="0 0 56 56" style="enable-background:new 0 0 56 56;" xml:space="preserve">
<style type="text/css">
	.st0{fill:#3482FF;}
</style>
<path class="st0" d="M0.8,33.8h20.4c0.4,0,0.8,0.4,0.8,0.8V55c0,0.4,0.4,0.8,0.8,0.8h10.3c0.4,0,0.8-0.4,0.8-0.8V34.6
	c0-0.4,0.4-0.8,0.8-0.8h20.4c0.4,0,0.8-0.4,0.8-0.8V22.7c0-0.4-0.4-0.8-0.8-0.8H34.8c-0.4,0-0.8-0.4-0.8-0.8V1
	c0-0.4-0.4-0.8-0.8-0.8H22.9C22.4,0.2,22,0.6,22,1v20.1c0,0.4-0.4,0.8-0.8,0.8H0.8c-0.4,0-0.8,0.4-0.8,0.8V33
	C0,33.4,0.4,33.8,0.8,33.8z"/>
</svg>
