<?xml version="1.0" encoding="utf-8"?>
<!-- Generator: Adobe Illustrator 24.0.1, SVG Export Plug-In . SVG Version: 6.00 Build 0)  -->
<svg version="1.1" id="Capa_1" xmlns="http://www.w3.org/2000/svg" xmlns:xlink="http://www.w3.org/1999/xlink" x="0px" y="0px"
	 viewBox="0 0 1335 677" style="enable-background:new 0 0 1335 677;" xml:space="preserve">
<style type="text/css">
	.st0{fill:none;}
	.st1{fill:#7FB2FF;}
	.st2{opacity:0.3;fill:#C3E5D9;enable-background:new    ;}
</style>
<g>
	<path class="st0" d="M1037.9,464.9c-12.3-1-24.6-1.3-36.9-0.8c-4.4,0.2-8.8,0.5-13.2,0.8c4.4,0.2,8.8,0.3,13.2,0.4
		C1013.3,465.5,1025.7,465.3,1037.9,464.9z"/>
	<path class="st1" d="M1037.9,464.9c-12.3,0.5-24.6,0.6-36.9,0.4c-4.4-0.1-8.8-0.2-13.2-0.4c-55.3,4.7-110.5,24.4-165.8,44.2
		c-51.7,18.5-103.4,37-155.1,43.1c-72.4,8.6-144.7-7-217.1-22.6c-39-8.4-77.9-16.8-116.9-21.4c-111.3-13.2-222.7,4.4-278.3,13.2h0h0
		L-1,530.1v50.4v72.4l55.7-4h0h0c55.7-4,167-12.1,278.3-6c39,2.1,77.9,5.9,116.9,9.8c72.4,7.1,144.7,14.2,217.1,10.3
		c51.7-2.8,103.4-11.2,155.1-19.7c59.6-9.7,119.3-19.5,178.9-20.5c111.3-2,222.7,26.1,278.3,40.2L1335,677v-89.4V583l-55.7-30.8
		C1229.8,524.7,1136.3,472.9,1037.9,464.9z"/>
	<path class="st2" d="M1279.3,30.8c-55.7,30.8-167,92.5-278.3,88.1c-59.6-2.4-119.3-23.7-178.9-45C770.4,55.5,718.7,37,667,30.8
		c-72.4-8.6-144.7,7-217.1,22.6c-39,8.4-77.9,16.8-116.9,21.4C221.7,88.1,110.3,70.5,54.7,61.7L-1,52.9l0,138.8v179.9v126.9v31.7
		l55.7-8.8h0h0c55.7-8.8,167-26.4,278.3-13.2c39,4.6,77.9,13,116.9,21.4c72.4,15.6,144.7,31.2,217.1,22.6
		c51.7-6.1,103.4-24.6,155.1-43.1c55.3-19.8,110.5-39.5,165.8-44.2c4.4-0.4,8.8-0.7,13.2-0.8c12.3-0.5,24.7-0.2,36.9,0.8
		c98.4,8,191.9,59.8,241.4,87.3L1335,583v-2.5v-73v-9V411v-24v-15.4V211.5v-19.8V0L1279.3,30.8z"/>
</g>
</svg>
