<svg width="214" height="238" viewBox="0 0 214 238" fill="none" xmlns="http://www.w3.org/2000/svg">
<path d="M114.841 207.979C114.841 207.979 114.068 211.402 114.905 215.297C115.731 219.192 116.965 221.714 116.965 221.714L110.731 225.717C110.731 225.717 105.483 218.43 107.265 210.457C107.265 210.457 111.675 208.258 114.841 207.979Z" fill="#5EAB90"/>
<path d="M111.428 214.514C110.806 214.567 110.376 215.598 110.484 216.821C110.591 218.045 111.171 219 111.804 218.946C112.426 218.892 112.856 217.862 112.748 216.639C112.641 215.415 112.061 214.471 111.428 214.514Z" fill="#A5D8C6"/>
<path d="M115.688 220.212C115.324 219.171 114.798 217.518 114.368 215.512C113.961 213.591 113.918 211.756 113.961 210.5C113.285 210.232 112.931 209.674 112.791 209.052C111.385 209.374 109.99 209.953 109.046 210.393C108.874 211.337 108.306 211.831 107.694 212.089C106.782 218.763 110.988 224.612 110.988 224.612L115.098 222.079C114.969 221.306 115.248 220.684 115.688 220.212ZM111.911 220.212C110.731 220.308 109.647 218.828 109.486 216.907C109.325 214.986 110.151 213.344 111.332 213.248C112.512 213.151 113.596 214.632 113.757 216.553C113.918 218.484 113.092 220.115 111.911 220.212Z" fill="#A5D8C6"/>
<path d="M137.648 197.549C137.648 197.549 149.335 195.872 164.495 185.256L160.587 197.344C160.587 197.344 143.222 207.305 132.943 207.435L137.648 197.549Z" fill="#5EAB90"/>
<path d="M147.455 197.352C145.418 198.327 144.173 199.555 144.657 200.126C145.151 200.684 147.189 200.351 149.23 199.4C151.268 198.426 152.513 197.198 152.029 196.626C151.535 196.069 149.484 196.392 147.455 197.352Z" fill="#A5D8C6"/>
<path d="M160.659 188.616C151.309 194.872 143.651 197.113 140.478 197.82C139.872 198.527 139.133 198.955 138.414 199.21L135.841 204.814C136.42 205.019 136.974 205.288 137.399 205.652C144.349 204.378 153.372 199.836 157.212 197.782C157.796 196.872 158.577 195.977 159.563 195.229L161.549 189.083C161.201 188.96 160.906 188.792 160.659 188.616ZM154.124 195.63C155.043 196.697 153.206 198.787 150.014 200.308C146.822 201.829 143.482 202.189 142.563 201.122C141.644 200.055 143.48 197.965 146.673 196.444C149.855 194.937 153.191 194.553 154.124 195.63Z" fill="#A5D8C6"/>
<path d="M104.537 86.1454C104.537 86.1454 110.857 92.7926 124.401 97.6175L114.987 100.581C114.987 100.581 100.866 94.0644 96.1595 87.6138L104.537 86.1454Z" fill="#5EAB90"/>
<path d="M109.074 92.2683C107.54 91.4161 106.203 91.1801 106.058 91.7439C105.927 92.3077 107.055 93.4483 108.576 94.3136C110.11 95.1658 111.447 95.4018 111.591 94.8381C111.722 94.2743 110.595 93.1205 109.074 92.2683Z" fill="#A5D8C6"/>
<path d="M120.546 96.6999C112.378 93.5926 107.514 89.7511 105.639 88.0598C104.918 87.9943 104.315 87.7189 103.83 87.3781L99.1228 88.2696C99.2539 88.7285 99.3326 89.2005 99.2932 89.6331C103.227 93.4615 110.162 97.1326 113.191 98.6404C114.03 98.601 114.948 98.6928 115.865 98.9812L120.651 97.4735C120.572 97.1982 120.546 96.9359 120.546 96.6999ZM113.165 95.7166C112.902 96.7786 110.752 96.5557 108.353 95.2184C105.954 93.8811 104.223 91.9276 104.485 90.8656C104.747 89.8036 106.898 90.0265 109.297 91.3638C111.683 92.7011 113.427 94.6415 113.165 95.7166Z" fill="#A5D8C6"/>
<path d="M146.842 112.986C146.842 112.986 155.051 121.884 168.035 117.411L167.404 127.628C167.404 127.628 156.09 131.703 145.406 124.067L146.842 112.986Z" fill="#5EAB90"/>
<path d="M156.978 121.37C155.168 121.089 153.591 121.603 153.451 122.526C153.311 123.448 154.654 124.417 156.452 124.697C158.262 124.978 159.838 124.464 159.978 123.541C160.13 122.631 158.787 121.662 156.978 121.37Z" fill="#A5D8C6"/>
<path d="M166.471 125.422L166.844 120.156C166.05 119.98 165.49 119.513 165.093 118.965C157.071 120.961 151.186 117.505 148.769 115.672C148.314 115.894 147.858 115.964 147.415 115.929L146.726 122.059C148.057 122.432 149.038 123.308 148.921 125.118C155.296 128.586 161.543 127.967 164.532 127.337C164.824 126.543 165.385 125.807 166.471 125.422ZM156.219 126.192C153.393 125.749 151.315 123.974 151.583 122.234C151.852 120.494 154.374 119.443 157.2 119.887C160.025 120.331 162.104 122.106 161.835 123.845C161.567 125.585 159.056 126.636 156.219 126.192Z" fill="#A5D8C6"/>
<g clip-path="url(#clip0)">
<path d="M135.77 196.526C161.273 179.16 167.998 143.742 150.791 117.419C133.583 91.0951 98.9601 83.8338 73.4571 101.2C47.9542 118.567 41.2291 153.984 58.4363 180.308C75.6435 206.631 110.267 213.893 135.77 196.526Z" fill="#EAB726"/>
<path d="M119.594 204.13C118.84 204.408 118.079 204.674 117.308 204.921C117.047 205.003 116.786 205.086 116.526 205.162C115.932 205.342 115.339 205.513 114.742 205.676C86.2179 213.298 56.3595 196.594 47.1908 167.356C38.4435 139.468 51.5957 109.956 76.8467 98.3044C78.8606 97.3734 80.9507 96.5589 83.1126 95.8666C83.887 95.617 84.6672 95.3886 85.4443 95.1764C86.2007 94.9699 86.9604 94.7808 87.7201 94.6085C90.0471 94.0815 92.3762 93.7157 94.7023 93.5034C98.1592 93.1832 101.601 93.1982 104.992 93.5375C115.505 94.5833 125.502 98.6797 133.818 105.208C142.643 112.13 149.576 121.785 153.227 133.431C162.419 162.752 147.417 193.866 119.594 204.13Z" fill="#FFEB4D"/>
<path d="M90.9633 201.195C86.3903 200.236 81.9175 198.611 77.6583 196.328C65.7923 189.97 57.0047 179.283 52.913 166.234C48.8213 153.185 49.9153 139.335 55.9949 127.237C62.0745 115.139 72.4096 106.241 85.0975 102.182C111.293 93.8004 139.475 108.9 147.921 135.839C156.367 162.779 141.931 191.513 115.736 199.891C107.599 202.49 99.1235 202.906 90.9633 201.195ZM109.593 102.254C101.817 100.623 93.5675 100.917 85.5066 103.494C73.1604 107.444 63.1034 116.102 57.1875 127.872C51.2716 139.643 50.2089 153.121 54.1905 165.819C58.172 178.516 66.7228 188.915 78.2676 195.102C89.8124 201.288 102.973 202.518 115.319 198.568C140.807 190.413 154.856 162.455 146.636 136.243C141.016 118.321 126.414 105.782 109.593 102.254Z" fill="#EAB726"/>
<path d="M90.1474 126.526L99.7026 175.543C100.554 179.911 97.8052 184.113 93.5544 184.942C89.3035 185.77 85.1776 182.908 84.3261 178.541L74.7709 129.524C73.9194 125.156 76.6683 120.954 80.9192 120.125C85.17 119.296 89.2959 122.158 90.1474 126.526Z" fill="#EAB726"/>
<path d="M103.523 156.579L95.4699 147.682L95.2439 146.523C97.4739 144.829 99.2736 143.022 100.774 141.079L103.523 156.579Z" fill="#EAB726"/>
<path d="M100.649 141.131C104.841 135.668 106.377 129.156 106.915 120.879C107.135 117.394 109.6 114.534 112.933 113.884C117.945 112.907 122.465 117.232 121.899 122.436C120.575 134.224 116.892 140.623 112.391 145.895L131.39 165.812C135.432 170.061 133.309 177.192 127.641 178.297C125.174 178.778 122.634 177.902 120.933 176.022L103.367 156.61L100.649 141.131Z" fill="#EAB726"/>
</g>
<path d="M172.714 183.215C172.714 183.215 199.227 186.763 212.321 201.583L213.115 187.58C213.115 187.58 198.411 176.68 184.524 175.536L172.714 183.215Z" fill="#5EAB90"/>
<path d="M210.524 194.978L211.084 189.47C210.454 188.863 209.847 188.116 209.357 187.16C209.24 186.949 209.147 186.763 209.077 186.576C205.039 184.009 195.983 178.711 187.511 177.24C186.391 177.894 185.13 177.917 183.987 177.707L179.389 181.045C180.229 181.488 180.952 182.048 181.396 182.795C187.371 184.009 199.507 187.276 207.956 195.072C208.703 194.908 209.544 194.862 210.524 194.978ZM196.403 186.529C192.412 185.129 189.238 182.632 189.355 180.951C189.471 179.271 192.786 179.037 196.8 180.438C200.791 181.838 203.965 184.335 203.849 186.016C203.732 187.696 200.394 187.93 196.403 186.529Z" fill="#A5D8C6"/>
<path d="M196.707 181.861C194.163 180.975 192.039 180.975 191.992 181.861C191.946 182.748 193.953 184.195 196.497 185.082C199.041 185.969 201.165 185.969 201.211 185.082C201.281 184.195 199.251 182.748 196.707 181.861Z" fill="#A5D8C6"/>
<path d="M30.7762 182.772C30.7762 182.772 37.6179 189.968 52.2808 195.192L42.0892 198.4C42.0892 198.4 26.8017 191.345 21.7059 184.362L30.7762 182.772Z" fill="#5EAB90"/>
<path d="M35.6875 189.4C34.0267 188.478 32.5789 188.222 32.4227 188.833C32.2808 189.443 33.5015 190.678 35.1481 191.615C36.8088 192.537 38.2567 192.793 38.4128 192.183C38.5547 191.572 37.334 190.323 35.6875 189.4Z" fill="#A5D8C6"/>
<path d="M48.1082 194.198C39.265 190.834 33.9988 186.675 31.969 184.844C31.1883 184.773 30.5354 184.475 30.0102 184.106L24.9143 185.071C25.0563 185.568 25.1414 186.079 25.0989 186.548C29.3572 190.692 36.8661 194.667 40.145 196.299C41.0535 196.257 42.0471 196.356 43.0407 196.668L48.2217 195.036C48.1365 194.738 48.1082 194.454 48.1082 194.198ZM40.1167 193.134C39.8328 194.284 37.5049 194.042 34.9073 192.594C32.3097 191.147 30.436 189.032 30.7199 187.882C31.0038 186.732 33.3317 186.973 35.9293 188.421C38.5127 189.869 40.4005 191.97 40.1167 193.134Z" fill="#A5D8C6"/>
<path d="M76.0447 212.682C76.0447 212.682 58.7013 212.627 48.7361 205.415L39.5398 214.144C39.5398 214.144 49.8341 223.124 66.2932 223.938L76.0447 212.682Z" fill="#5EAB90"/>
<path d="M47.625 208.387L43.0212 212.96C43.2887 213.758 43.1765 214.433 42.8769 214.979C45.567 216.812 53.0354 221.234 63.4839 222.261C64.1089 221.386 65.169 220.773 66.9014 220.896L71.6537 215.284C71.252 214.883 70.9699 214.326 70.8909 213.582C66.8281 213.239 57.6717 212.045 50.9596 208.093C49.6209 208.966 48.5042 208.877 47.625 208.387ZM57.7007 211.802C61.2701 212.609 63.7745 215.041 63.2781 217.245C62.7817 219.448 59.482 220.568 55.8983 219.764C52.3289 218.957 49.8245 216.525 50.3209 214.321C50.8317 212.115 54.1314 210.995 57.7007 211.802Z" fill="#A5D8C6"/>
<path d="M52.6785 214.849C52.4195 216.012 54.0553 217.372 56.3359 217.884C58.6164 218.396 60.6756 217.879 60.9346 216.715C61.1937 215.552 59.5579 214.192 57.2773 213.68C54.9941 213.154 52.9376 213.686 52.6785 214.849Z" fill="#A5D8C6"/>
<path d="M26.2492 86.4915C21.6527 85.667 15.0232 86.2861 11.1864 91.7412C3.02159 103.328 15.6211 119.756 15.6211 119.756C15.6211 119.756 24.4948 102.896 29.8918 99.5678C29.8918 99.5678 23.6949 92.6723 26.2492 86.4915Z" fill="#5EAB90"/>
<path opacity="0.2" d="M16.7601 94.3879C19.1874 94.3919 18.9649 87.8331 18.9649 87.8331C18.9649 87.8331 15.2088 86.8932 14.433 90.2529C14.4331 90.2295 13.8893 94.3831 16.7601 94.3879Z" fill="#A5D8C6"/>
<path opacity="0.2" d="M20.7878 86.5524C20.7878 86.5524 21.9857 96.0303 16.9895 96.9556C11.9932 97.9042 12.6588 90.6 12.6588 90.6C12.7529 90.2034 12.8934 89.8769 13.0574 89.5504C12.543 90.1097 12.0751 90.7624 11.7004 91.532C8.42157 98.2951 11.0447 106.888 13.2301 112.003C14.4431 112.402 15.6089 113.151 16.6811 113.993C18.6241 110.472 22.416 103.943 25.6425 100.588C25.4102 99.9104 25.2713 99.21 25.3426 98.4399C25.4138 97.7398 25.6715 97.1567 26.0924 96.714C24.7893 94.3078 23.2788 90.3842 24.685 86.8623C23.495 86.6502 22.0949 86.5079 20.6477 86.5522C20.7178 86.5523 20.7878 86.5524 20.7878 86.5524Z" fill="#A5D8C6"/>
<path d="M52.1613 69.4031C44.921 72.3786 29.1629 88.7602 29.1629 88.7602C21.6074 84.7799 13.8042 89.4115 10.4374 92.9769C11.4207 91.1347 12.3103 89.5258 13.1997 88.0568C15.4934 84.1863 17.879 81.1794 22.6466 77.3829C30.5692 71.0944 38.7644 69.3342 44.5299 68.9937C49.1515 68.7446 52.1613 69.4031 52.1613 69.4031Z" fill="#5EAB90"/>
<path d="M24.5951 84.7149C26.0924 82.5468 28.8477 81.8511 31.6952 81.8092C34.594 78.9899 38.6146 75.2622 42.1901 72.5374C41.5615 71.6261 41.003 70.5983 40.6315 69.454C36.079 70.17 30.638 71.8881 25.2172 75.5434C24.2565 77.8057 22.7828 79.7638 21.473 81.4655C19.859 83.5867 17.3362 84.8895 14.908 85.4223C14.323 86.2849 13.7614 87.1475 13.1997 88.0802C15.8874 85.8907 20.1387 83.8439 24.5951 84.7149Z" fill="#A5D8C6"/>
<path d="M5.25632 155.028C5.25632 155.028 16.3274 141.898 22.5192 115.697L29.9723 132.608C29.9723 132.608 20.7513 160.231 9.71424 170.319L5.25632 155.028Z" fill="#5EAB90"/>
<path d="M15.7187 145.325C14.4484 148.355 14.2844 150.893 15.3634 151.045C16.4397 151.173 18.3306 148.84 19.6281 145.831C20.8984 142.8 21.0624 140.263 19.9834 140.11C18.9071 139.982 16.9918 142.319 15.7187 145.325Z" fill="#A5D8C6"/>
<path d="M21.6047 123.06C17.5029 138.903 11.3544 148.747 8.59242 152.585C8.61886 153.94 8.23057 155.119 7.69598 156.092L10.3244 164.669C11.1515 164.331 12.0138 164.087 12.8272 164.072C19.143 155.963 24.5478 142.298 26.7306 136.35C26.4846 134.797 26.4665 133.07 26.8144 131.302L23.0229 122.705C22.5266 122.909 22.044 123.011 21.6047 123.06ZM21.2942 137.001C23.3248 137.27 23.3526 141.318 21.3575 146.059C19.3624 150.8 16.0827 154.424 14.0521 154.154C12.0215 153.885 11.9937 149.837 13.9888 145.096C15.9866 140.379 19.2392 136.734 21.2942 137.001Z" fill="#A5D8C6"/>
<path d="M47.0371 120.486C43.2737 127.932 39.8176 134.611 31.7771 144.663L37.7193 156.832C37.7193 156.832 49.7259 142.143 52.5125 132.577C52.5125 132.577 50.6379 125.137 47.0371 120.486Z" fill="#5EAB90"/>
<path d="M44.9935 135.102C46.0141 135.612 46.0448 137.671 45.0169 139.688C44.0046 141.714 42.3446 142.928 41.324 142.417C40.3035 141.906 40.2728 139.848 41.3006 137.831C42.313 135.805 43.9574 134.583 44.9935 135.102Z" fill="#A5D8C6"/>
<path d="M45.4232 126.136C46.4401 126.215 47.3739 125.861 48.1665 125.284C49.4286 127.44 50.2786 129.713 50.7663 131.211C50.5062 132.332 50.6329 133.199 50.9454 133.843C48.7904 139.986 42.5603 148.337 39.6928 151.997C38.922 151.77 38.0798 151.706 37.2089 151.912L34.453 146.591C35.9378 144.524 35.7012 142.942 34.9338 141.798C39.7095 135.715 42.8389 130.894 45.4232 126.136ZM39.6253 136.995C38.0328 140.165 38.3374 143.521 40.2766 144.505C42.2246 145.474 45.0905 143.711 46.6675 140.532C48.26 137.361 47.9554 134.006 46.0162 133.021C44.0925 132.046 41.2178 133.824 39.6253 136.995Z" fill="#A5D8C6"/>
<path d="M54.9989 92.1659C54.9989 92.1659 62.405 94.0114 70.9157 92.3797C79.4258 90.7713 84.969 88.2098 84.969 88.2098L93.3711 101.96C93.3711 101.96 77.2737 113.018 60.0228 108.759C60.0228 108.759 55.4525 99.0629 54.9989 92.1659Z" fill="#5EAB90"/>
<path d="M69.0444 99.902C69.1309 101.258 71.3502 102.241 74.0155 102.067C76.6808 101.893 78.7855 100.679 78.6994 99.2996C78.6128 97.9436 76.3935 96.9605 73.7283 97.1347C71.063 97.3089 68.9816 98.5233 69.0444 99.902Z" fill="#A5D8C6"/>
<path d="M81.6408 90.9137C79.3598 91.6568 75.7409 92.7202 71.3567 93.5566C67.1603 94.3504 63.1681 94.355 60.4401 94.201C59.8241 95.6581 58.5936 96.4011 57.2335 96.6744C57.8655 99.7467 59.0581 102.808 59.9692 104.883C62.0143 105.302 63.0601 106.562 63.5906 107.905C78.0602 110.211 90.9805 101.347 90.9805 101.347L85.6724 92.2873C83.9861 92.53 82.6462 91.8932 81.6408 90.9137ZM81.4582 99.1272C81.6111 101.699 78.3387 103.984 74.1541 104.241C69.9696 104.498 66.4394 102.622 66.2865 100.051C66.1335 97.4792 69.406 95.1941 73.5906 94.9369C77.7985 94.6803 81.3053 96.5559 81.4582 99.1272Z" fill="#A5D8C6"/>
<path d="M165.932 100.525L149.893 89.9605C149.893 89.9605 151.13 86.0903 149.767 81.6575C150.32 81.4505 150.917 81.2726 151.54 81.1874C153.301 80.8851 155.214 81.0869 157.079 81.9603C161.236 83.8934 165.067 89.314 165.932 100.525Z" fill="#638F3F"/>
<path d="M165.932 100.525L149.893 89.9605C149.893 89.9605 151.13 86.0903 149.767 81.6575C150.32 81.4505 150.917 81.2726 151.54 81.1874C153.301 80.8851 155.214 81.0869 157.079 81.9603C161.236 83.8934 165.067 89.314 165.932 100.525Z" fill="#5EAB90"/>
<path opacity="0.2" d="M163.504 96.7237L151.606 88.9603C151.606 88.9603 152.697 85.6832 151.322 81.23C151.383 81.1955 151.435 81.1927 151.508 81.1784C153.269 80.8761 155.182 81.078 157.047 81.9513C159.887 84.0691 162.033 89.0772 163.504 96.7237Z" fill="#A5D8C6"/>
<path d="M161.4 85.4106C155.268 79.955 153.94 81.1124 150.134 81.8783C144.911 82.9388 138.215 88.7286 138.215 88.7286C133.386 84.197 113.458 77.1827 113.458 77.1827C124.334 68.5899 133.928 69.5558 136.885 70.1309C137.001 70.1457 137.117 70.1604 137.212 70.1868C137.614 70.2804 137.805 70.333 137.805 70.333C145.335 72.5789 151.286 76.3926 155.304 79.6396C159.036 82.6195 161.143 85.1002 161.4 85.4106Z" fill="#5EAB90"/>
<path d="M145.607 75.9405C143.291 75.0284 141.437 73.1824 140.252 71.1441C139.454 70.8728 138.644 70.5812 137.805 70.333C137.805 70.333 137.583 70.2716 137.212 70.1867C137.117 70.1604 137.001 70.1456 136.885 70.1308C134.02 69.7181 128.939 69.893 122.56 73.7845C122.896 74.8015 122.471 75.8484 121.574 76.868C125.347 78.4555 133.094 81.8396 137.227 84.4848C138.616 83.481 140.508 82.8896 143.006 83.0814C145.039 81.7926 147.515 80.3863 149.624 79.7521C151.661 79.1321 153.54 79.0849 155.316 79.6598C154.64 79.1311 153.92 78.5734 153.149 78.0185C150.399 77.8087 147.828 76.8264 145.607 75.9405Z" fill="#A5D8C6"/>
<path d="M59.0283 234.978L72.1376 226.897C72.1376 226.897 74.5316 229.106 78.2152 229.616C78.1782 230.088 78.1055 230.583 77.9566 231.064C77.5801 232.446 76.7858 233.768 75.5196 234.828C72.7068 237.196 67.4701 238.145 59.0283 234.978Z" fill="#638F3F"/>
<path d="M59.0283 234.978L72.1376 226.897C72.1376 226.897 74.5316 229.106 78.2152 229.616C78.1782 230.088 78.1055 230.583 77.9566 231.064C77.5801 232.446 76.7858 233.768 75.5196 234.828C72.7068 237.196 67.4701 238.145 59.0283 234.978Z" fill="#5EAB90"/>
<path opacity="0.2" d="M62.6133 234.5L72.2844 228.481C72.2844 228.481 74.2968 230.383 77.999 230.892C78.0036 230.948 77.9879 230.986 77.9738 231.044C77.5973 232.426 76.8029 233.748 75.5367 234.808C73.0358 236.155 68.6691 236.02 62.6133 234.5Z" fill="#A5D8C6"/>
<path d="M71.5485 236.801C77.5898 234.191 77.1985 232.834 77.9304 229.808C78.9277 225.653 76.9867 218.826 76.9867 218.826C81.9152 216.85 93.7603 204.741 93.7603 204.741C96.3237 215.555 92.3735 222.201 90.9543 224.156C90.9043 224.235 90.8544 224.314 90.803 224.375C90.5987 224.635 90.4958 224.756 90.4958 224.756C86.3142 229.469 81.5276 232.503 77.8071 234.324C74.3775 236.028 71.8611 236.72 71.5485 236.801Z" fill="#5EAB90"/>
<path d="M83.7784 228.528C85.2257 227.153 87.1951 226.431 89.0775 226.26C89.545 225.772 90.0311 225.282 90.4956 224.756C90.4956 224.756 90.6156 224.615 90.8027 224.375C90.8542 224.314 90.9041 224.235 90.954 224.156C92.224 222.213 93.8171 218.461 93.1483 212.507C92.2954 212.407 91.6785 211.743 91.2412 210.746C88.8096 212.951 83.7272 217.436 80.4053 219.545C80.6646 220.894 80.4539 222.47 79.4688 224.22C79.7173 226.134 79.9012 228.41 79.6481 230.158C79.4092 231.848 78.8073 233.229 77.7882 234.326C78.4013 234.013 79.0502 233.679 79.7148 233.306C80.7982 231.379 82.3826 229.843 83.7784 228.528Z" fill="#A5D8C6"/>
<path d="M174.918 66.8835C174.918 66.8835 180.463 72.128 188.678 74.8858C196.881 77.6637 202.968 78.1543 202.968 78.1543L203.535 94.2587C203.535 94.2587 184.082 95.9868 171.146 83.8056C171.146 83.8056 171.926 73.1144 174.918 66.8835Z" fill="#5EAB90"/>
<path d="M183.354 80.5196C182.764 81.7434 184.214 83.6896 186.622 84.8467C189.029 86.0037 191.459 85.9798 192.061 84.736C192.651 83.5123 191.201 81.566 188.793 80.409C186.386 79.2519 183.977 79.2877 183.354 80.5196Z" fill="#A5D8C6"/>
<path d="M198.741 78.8755C196.389 78.4027 192.714 77.552 188.485 76.1277C184.439 74.7585 180.959 72.8021 178.658 71.3284C177.406 72.2951 175.969 72.3382 174.65 71.9083C173.692 74.8951 173.228 78.1476 173.003 80.4022C174.578 81.7715 174.871 83.3832 174.673 84.8131C186.146 93.9274 201.754 92.5503 201.754 92.5503L201.578 82.0519C199.99 81.4352 199.136 80.2225 198.741 78.8755ZM194.549 85.9409C193.419 88.256 189.446 88.6397 185.675 86.8088C181.903 84.9779 179.749 81.6101 180.879 79.295C182.008 76.9799 185.981 76.5963 189.753 78.4271C193.544 80.2699 195.678 83.6258 194.549 85.9409Z" fill="#A5D8C6"/>
<path d="M112.344 20.6588C112.344 20.6588 118.59 23.3236 126.297 23.0895C133.999 22.8757 139.229 21.4067 139.229 21.4067L144.673 34.6699C144.673 34.6699 128.974 42.1157 114.419 35.9435C114.419 35.9435 111.771 26.7814 112.344 20.6588Z" fill="#5EAB90"/>
<path d="M123.593 29.4336C123.478 30.637 125.289 31.8134 127.655 32.0359C130.02 32.2585 132.04 31.4887 132.159 30.2649C132.274 29.0616 130.463 27.8852 128.097 27.6626C125.731 27.4401 123.732 28.2136 123.593 29.4336Z" fill="#A5D8C6"/>
<path d="M135.925 23.313C133.816 23.6443 130.487 24.0685 126.518 24.1854C122.72 24.2915 119.212 23.733 116.838 23.2132C116.091 24.4064 114.905 24.8858 113.672 24.9342C113.794 27.7221 114.411 30.5795 114.919 32.5304C116.656 33.1867 117.397 34.4414 117.674 35.6955C130.06 39.7602 142.659 33.794 142.659 33.794L139.273 25.0877C137.757 25.0633 136.67 24.3151 135.925 23.313ZM134.607 30.5025C134.379 32.7829 131.182 34.3292 127.47 33.9655C123.758 33.6017 120.921 31.4562 121.149 29.1757C121.377 26.8953 124.574 25.3491 128.286 25.7128C132.019 26.0803 134.835 28.2221 134.607 30.5025Z" fill="#A5D8C6"/>
<path d="M149.277 126.056C149.277 126.056 157.828 127.69 165.011 138.139L156.713 142.84C156.713 142.84 149.981 131.474 138.495 130.106L149.277 126.056Z" fill="#5EAB90"/>
<path d="M153.46 134.063C154.655 134.992 156.022 135.258 156.5 134.647C156.978 134.036 156.394 132.788 155.186 131.845C153.991 130.916 152.623 130.65 152.145 131.261C151.667 131.872 152.265 133.12 153.46 134.063Z" fill="#A5D8C6"/>
<path d="M143.647 130.412C150.074 132.363 154.588 137.781 156.301 140.144C156.978 140.078 157.695 140.171 158.373 140.543L162.011 138.511C161.891 137.608 162.104 136.931 162.462 136.413C158.067 130.624 153.911 128.234 151.348 127.464C150.246 127.61 148.746 127.291 148.746 127.291L143.342 129.349C143.581 129.628 143.7 129.987 143.647 130.412ZM150.91 130.305C151.813 129.15 154.07 129.402 155.956 130.863C157.841 132.324 158.638 134.448 157.735 135.617C156.832 136.772 154.575 136.519 152.69 135.059C150.804 133.585 150.007 131.461 150.91 130.305Z" fill="#A5D8C6"/>
<path d="M40.881 186.433C40.881 186.433 23.0613 193.302 9.95532 189.881L4.00392 202.511C4.00392 202.511 18.1533 207.614 35.3687 201.878L40.881 186.433Z" fill="#5EAB90"/>
<path d="M10.002 193.374L7.10398 199.906C7.69691 200.617 7.85136 201.355 7.76207 202.035C11.2545 202.842 20.684 204.397 31.8163 201.279C32.1084 200.132 32.9512 199.079 34.7783 198.513L37.414 190.856C36.8417 190.605 36.3298 190.147 35.9518 189.415C31.6456 190.685 21.7728 193.117 13.3065 191.741C12.2816 193.172 11.1 193.526 10.002 193.374ZM21.7054 192.856C25.6905 192.258 29.2318 193.754 29.6022 196.214C29.9726 198.673 27.0337 201.14 23.035 201.745C19.05 202.343 15.5087 200.847 15.1383 198.387C14.7815 195.92 17.7204 193.453 21.7054 192.856Z" fill="#A5D8C6"/>
<path d="M17.7682 197.987C17.9668 199.284 20.1887 200.027 22.7333 199.642C25.2779 199.256 27.1844 197.903 26.9858 196.606C26.7872 195.309 24.5654 194.566 22.0207 194.952C19.4676 195.324 17.5696 196.69 17.7682 197.987Z" fill="#A5D8C6"/>
<path d="M185.946 149.432L188.063 151.337C188.952 152.141 188.486 154.342 186.962 157.263C186.962 157.305 186.92 157.348 186.92 157.348C186.2 158.702 185.269 160.226 184.126 161.834C184.126 161.877 184.084 161.877 184.084 161.919C183.153 163.231 182.052 164.628 180.867 166.067L180.825 166.11C180.274 166.744 179.724 167.422 179.132 168.099C178.539 168.776 177.946 169.411 177.354 170.004L177.311 170.088C176.042 171.401 174.772 172.628 173.544 173.729C173.502 173.729 173.502 173.771 173.46 173.771C171.978 175.083 170.581 176.184 169.269 177.03C169.227 177.072 169.227 177.072 169.185 177.072C166.476 178.893 164.359 179.612 163.428 178.808L161.312 176.903L185.946 149.432Z" fill="#E2A935"/>
<path d="M164.825 173.051L169.311 177.072C169.269 177.114 169.269 177.114 169.227 177.114C166.518 178.935 164.401 179.654 163.47 178.85L161.354 176.945L164.825 173.051Z" fill="#E0A94D"/>
<path d="M168.38 169.072L173.544 173.728C173.502 173.728 173.502 173.771 173.459 173.771C171.978 175.083 170.581 176.183 169.269 177.03C169.227 177.072 169.227 177.072 169.184 177.072L164.74 173.093L168.38 169.072Z" fill="#DC9A31"/>
<path d="M171.893 165.136L177.353 170.003L177.311 170.088C176.041 171.4 174.771 172.628 173.544 173.728C173.502 173.728 173.502 173.771 173.459 173.771L168.295 169.157L171.893 165.136Z" fill="#E2A434"/>
<path d="M185.946 149.432L188.062 151.337C188.951 152.141 188.486 154.342 186.962 157.263C186.962 157.305 186.919 157.347 186.919 157.347L182.433 153.326L185.946 149.432Z" fill="#E0A94D"/>
<path d="M182.518 153.284L186.962 157.263C186.962 157.305 186.92 157.347 186.92 157.347C186.2 158.702 185.269 160.226 184.126 161.834C184.126 161.876 184.084 161.876 184.084 161.919L178.92 157.263L182.518 153.284Z" fill="#DC9A31"/>
<path d="M178.962 157.22L184.126 161.834C184.126 161.876 184.084 161.876 184.084 161.919C183.153 163.231 182.052 164.628 180.867 166.067L180.825 166.109L175.364 161.241L178.962 157.22Z" fill="#E2A434"/>
<path d="M175.449 161.199L180.909 166.067L180.867 166.109C180.316 166.744 179.766 167.421 179.173 168.099C178.581 168.776 177.988 169.411 177.396 170.003L177.353 170.088L171.893 165.22L175.449 161.199Z" fill="#EEBD37"/>
<path d="M177.025 166.214C183.821 158.617 187.818 151.106 185.953 149.439C184.089 147.771 177.069 152.578 170.274 160.175C163.478 167.773 159.481 175.284 161.346 176.951C163.21 178.619 170.23 173.812 177.025 166.214Z" fill="#FADE4B"/>
<path d="M184.295 151.294C184.507 151.548 184.634 151.929 184.549 152.437C184.507 152.31 184.422 152.141 184.338 152.056C182.983 150.66 177.099 154.808 171.216 161.284C166.348 166.617 163.004 171.908 162.75 174.363C162.2 172.416 165.756 166.49 171.174 160.48C177.057 154.003 182.941 149.855 184.295 151.294Z" fill="#E2A935"/>
<path opacity="0.5" d="M184.338 152.057C184.422 152.141 184.507 152.311 184.549 152.438C184.295 154.893 180.951 160.183 176.084 165.559C170.2 172.035 164.317 176.183 162.962 174.787C162.878 174.66 162.793 174.533 162.751 174.363C163.047 171.866 166.391 166.617 171.216 161.284C177.1 154.766 182.983 150.66 184.338 152.057Z" fill="#E2A935"/>
<g filter="url(#filter0_f)">
<path d="M39.0077 227.173L36.8323 227.396C35.9162 227.487 34.9036 226.087 34.0271 223.714C34.003 223.692 34.0007 223.646 34.0007 223.646C33.6009 222.538 33.2138 221.222 32.8876 219.743C32.8635 219.721 32.8853 219.697 32.8612 219.675C32.5946 218.468 32.3671 217.122 32.1591 215.705L32.1569 215.659C32.0792 215.019 31.9775 214.356 31.8976 213.67C31.8177 212.983 31.7619 212.319 31.7302 211.676L31.7039 211.608C31.6118 210.209 31.568 208.853 31.5746 207.587C31.5964 207.563 31.5723 207.541 31.5941 207.517C31.6112 205.997 31.7051 204.635 31.8999 203.451C31.8976 203.405 31.8976 203.405 31.9195 203.381C32.2804 200.901 32.9622 199.325 33.9001 199.21L36.0754 198.988L39.0077 227.173Z" fill="#E2A935"/>
<path d="M36.4564 202.973L31.8543 203.454C31.852 203.408 31.8521 203.408 31.8739 203.384C32.2348 200.903 32.9166 199.328 33.8545 199.212L36.0298 198.99L36.4564 202.973Z" fill="#E0A94D"/>
<path d="M36.8878 207.049L31.5751 207.587C31.5969 207.563 31.5728 207.541 31.5947 207.517C31.6117 205.997 31.7056 204.635 31.9004 203.451C31.8981 203.405 31.8981 203.405 31.92 203.381L36.4762 202.903L36.8878 207.049Z" fill="#DC9A31"/>
<path d="M37.3167 211.078L31.7308 211.676L31.7044 211.608C31.6124 210.209 31.5685 208.853 31.5751 207.587C31.5969 207.563 31.5729 207.541 31.5947 207.517L36.8833 206.957L37.3167 211.078Z" fill="#E2A434"/>
<path d="M39.0081 227.173L36.8327 227.396C35.9167 227.487 34.904 226.087 34.0275 223.714C34.0034 223.692 34.0011 223.646 34.0011 223.646L38.6033 223.166L39.0081 227.173Z" fill="#E0A94D"/>
<path d="M38.5839 223.236L34.0277 223.714C34.0036 223.692 34.0013 223.646 34.0013 223.646C33.6015 222.538 33.2144 221.222 32.8882 219.743C32.8641 219.721 32.886 219.697 32.8619 219.675L38.1746 219.137L38.5839 223.236Z" fill="#DC9A31"/>
<path d="M38.1768 219.182L32.8881 219.743C32.8641 219.721 32.8859 219.697 32.8618 219.675C32.5951 218.468 32.3676 217.122 32.1597 215.705L32.1574 215.659L37.7433 215.061L38.1768 219.182Z" fill="#E2A434"/>
<path d="M37.7237 215.132L32.1377 215.729L32.1355 215.683C32.0579 215.043 31.9562 214.38 31.8763 213.694C31.7964 213.007 31.7406 212.343 31.7089 211.7L31.6825 211.632L37.2685 211.034L37.7237 215.132Z" fill="#EEBD37"/>
<path d="M34.0562 213.443C34.8763 221.228 37.0899 227.375 39.0005 227.174C40.911 226.973 41.7949 220.499 40.9748 212.714C40.1547 204.929 37.941 198.781 36.0305 198.982C34.12 199.184 33.236 205.658 34.0562 213.443Z" fill="#FADE4B"/>
<path d="M38.7987 225.274C38.545 225.263 38.2628 225.139 38.0173 224.829C38.1114 224.87 38.2514 224.909 38.3433 224.905C39.8367 224.854 40.5096 219.367 39.8575 212.679C39.332 207.158 38.0449 202.527 36.7786 201.117C38.1705 201.807 39.7099 206.887 40.337 213.069C40.9891 219.757 40.3162 225.245 38.7987 225.274Z" fill="#E2A935"/>
<path opacity="0.5" d="M38.3442 224.905C38.2523 224.909 38.1123 224.87 38.0182 224.829C36.7519 223.418 35.4648 218.787 34.9153 213.245C34.2632 206.557 34.9361 201.069 36.4295 201.018C36.5454 201.036 36.6613 201.053 36.7795 201.116C38.0481 202.573 39.3111 207.182 39.8584 212.679C40.5345 219.388 39.8376 224.854 38.3442 224.905Z" fill="#E2A935"/>
</g>
<path d="M36.1678 17.4106L47.0797 17.2199C47.0797 17.2199 47.7409 19.4321 49.8025 21.0736C49.6093 21.3483 49.3865 21.6232 49.1218 21.8629C48.3929 22.5696 47.431 23.0887 46.2761 23.2774C43.7059 23.7047 40.1704 22.3912 36.1678 17.4106Z" fill="#638F3F"/>
<path d="M36.1678 17.4106L47.0797 17.2199C47.0797 17.2199 47.7409 19.4321 49.8025 21.0736C49.6093 21.3483 49.3865 21.6232 49.1218 21.8629C48.3929 22.5696 47.431 23.0887 46.2761 23.2774C43.7059 23.7047 40.1704 22.3912 36.1678 17.4106Z" fill="#5EAB90"/>
<path opacity="0.2" d="M38.5259 18.4148L46.5968 18.2387C46.5968 18.2387 47.1364 20.1258 49.2099 21.7731C49.1924 21.8089 49.1689 21.8269 49.1395 21.8568C48.4106 22.5635 47.4486 23.0826 46.2938 23.2713C44.2823 23.1892 41.6689 21.5291 38.5259 18.4148Z" fill="#A5D8C6"/>
<path d="M43.1423 23.0457C47.7683 23.6372 48.0202 22.6681 49.5595 21.0878C51.6686 18.9151 52.9519 14.0513 52.9519 14.0513C56.6703 14.6275 68.2668 11.5241 68.2668 11.5241C65.9228 19.0432 61.1133 21.6681 59.5419 22.3471C59.4828 22.3773 59.4238 22.4075 59.3706 22.4258C59.1519 22.5109 59.0455 22.5475 59.0455 22.5475C54.7936 23.9098 50.7792 24.0303 47.8528 23.7966C45.1463 23.5964 43.3623 23.1089 43.1423 23.0457Z" fill="#5EAB90"/>
<path d="M53.5872 22.4203C54.9663 22.1049 56.4279 22.376 57.6374 22.9519C58.0988 22.8231 58.5722 22.7 59.0453 22.5473C59.0453 22.5473 59.1694 22.5047 59.3704 22.4257C59.4236 22.4074 59.4826 22.3772 59.5416 22.347C61.0177 21.6215 63.3446 19.9093 65.0879 16.0377C64.604 15.6685 64.4677 15.0411 64.5614 14.2751C62.2822 14.7412 57.5633 15.6393 54.7763 15.7246C54.4468 16.6411 53.7492 17.5254 52.5162 18.2368C51.9763 19.4934 51.2662 20.9473 50.4805 21.9214C49.7242 22.8656 48.8581 23.4905 47.8407 23.7906C48.3273 23.8217 48.8437 23.8525 49.3835 23.8652C50.7404 23.0815 52.2614 22.7174 53.5872 22.4203Z" fill="#A5D8C6"/>
<path d="M90.1756 22.6201C89.3771 20.0068 87.2841 16.7205 83.4191 16.18C75.2061 15.0236 70.0178 25.9715 70.0178 25.9715C70.0178 25.9715 81.1659 26.0884 84.3404 28.0092C84.3404 28.0092 86.2753 22.9411 90.1756 22.6201Z" fill="#5EAB90"/>
<path opacity="0.2" d="M83.5299 19.7887C84.1761 21.0536 87.5315 19.1859 87.5315 19.1859C87.5315 19.1859 87.0176 16.9793 85.0612 17.4727C85.0733 17.4665 82.7656 18.2928 83.5299 19.7887Z" fill="#A5D8C6"/>
<path opacity="0.2" d="M88.6851 19.793C88.6851 19.793 84.0705 22.9482 82.2542 20.594C80.4259 18.2461 84.4066 16.6418 84.4066 16.6418C84.6382 16.5848 84.8457 16.5708 85.0595 16.5689C84.6309 16.4505 84.1661 16.3812 83.6653 16.3917C79.2684 16.491 75.495 20.1519 73.4156 22.6559C73.5319 23.394 73.4534 24.2009 73.3014 24.9841C75.6536 25.0553 80.0656 25.2857 82.6744 26.0692C82.965 25.7674 83.2926 25.508 83.7125 25.3395C84.096 25.1896 84.4684 25.168 84.8114 25.2689C85.7161 23.9478 87.3554 22.1133 89.5647 21.9048C89.3572 21.2286 89.0574 20.4616 88.6478 19.72C88.6665 19.7565 88.6851 19.793 88.6851 19.793Z" fill="#A5D8C6"/>
<path d="M105.993 31.5469C102.51 28.572 89.7725 24.7431 89.7725 24.7431C89.8268 19.7463 85.3312 16.9207 82.5757 16.1201C83.7975 16.14 84.8728 16.1734 85.8751 16.2441C88.5029 16.4045 90.7056 16.8434 93.9556 18.3117C99.3458 20.7569 102.451 24.5535 104.168 27.4643C105.532 29.804 105.993 31.5469 105.993 31.5469Z" fill="#5EAB90"/>
<path d="M90.6588 21.2844C92.1875 21.4849 93.2856 22.7336 94.068 24.2049C96.3101 24.9611 99.3247 26.0588 101.698 27.1926C102.005 26.6219 102.391 26.0566 102.887 25.5575C101.299 23.3786 98.951 21.0046 95.6 19.1586C94.1655 19.2627 92.7524 19.0184 91.5166 18.791C89.9812 18.5172 88.629 17.5517 87.7031 16.4298C87.0977 16.3556 86.4986 16.2936 85.863 16.2503C87.7208 17.0648 89.9219 18.7315 90.6588 21.2844Z" fill="#A5D8C6"/>
<g filter="url(#filter1_f)">
<path d="M98.1682 73.4956L95.8868 75.4691C94.9241 76.2974 92.6718 75.5176 89.8027 73.5306C89.7582 73.525 89.7193 73.4749 89.7193 73.4749C88.3905 72.5398 86.9115 71.3599 85.3715 69.9464C85.327 69.9409 85.3325 69.8964 85.288 69.8908C84.0316 68.7388 82.7084 67.3977 81.3519 65.962L81.313 65.912C80.7182 65.2498 80.0789 64.5821 79.4451 63.8698C78.8114 63.1575 78.2222 62.4509 77.6774 61.7498L77.594 61.6941C76.3822 60.1862 75.2594 58.6895 74.2644 57.254C74.27 57.2095 74.2255 57.2039 74.2311 57.1594C73.0472 55.429 72.0746 53.8156 71.3578 52.3246C71.3189 52.2745 71.3189 52.2745 71.3244 52.23C69.7685 49.1423 69.2913 46.8226 70.2595 45.9499L72.5409 43.9764L98.1682 73.4956Z" fill="#E2A935"/>
<path d="M76.1269 48.1773L71.3081 52.3633C71.2692 52.3132 71.2692 52.3132 71.2748 52.2687C69.7189 49.181 69.2416 46.8614 70.2099 45.9886L72.4913 44.0151L76.1269 48.1773Z" fill="#E0A94D"/>
<path d="M79.8404 52.4396L74.2648 57.2538C74.2704 57.2093 74.2259 57.2037 74.2315 57.1592C73.0476 55.4288 72.075 53.8154 71.3582 52.3244C71.3193 52.2743 71.3193 52.2743 71.3249 52.2298L76.0936 48.0827L79.8404 52.4396Z" fill="#DC9A31"/>
<path d="M83.5148 56.6518L77.6778 61.7495L77.5944 61.6938C76.3825 60.1859 75.2597 58.6892 74.2648 57.2537C74.2704 57.2092 74.2259 57.2036 74.2315 57.1591L79.7625 52.3394L83.5148 56.6518Z" fill="#E2A434"/>
<path d="M98.1686 73.4953L95.8872 75.4687C94.9245 76.297 92.6722 75.5173 89.8031 73.5302C89.7586 73.5246 89.7197 73.4745 89.7197 73.4745L94.5385 69.2886L98.1686 73.4953Z" fill="#E0A94D"/>
<path d="M94.5718 69.3834L89.8031 73.5304C89.7586 73.5249 89.7197 73.4748 89.7197 73.4748C88.3908 72.5397 86.9118 71.3598 85.3718 69.9463C85.3273 69.9407 85.3329 69.8963 85.2884 69.8907L90.8639 65.0765L94.5718 69.3834Z" fill="#DC9A31"/>
<path d="M90.9029 65.1267L85.3719 69.9464C85.3274 69.9409 85.3329 69.8964 85.2884 69.8908C84.032 68.7388 82.7088 67.3977 81.3523 65.9621L81.3134 65.912L87.1505 60.8143L90.9029 65.1267Z" fill="#E2A434"/>
<path d="M87.1838 60.9086L81.3468 66.0063L81.3079 65.9562C80.713 65.294 80.0737 64.6263 79.44 63.914C78.8062 63.2018 78.217 62.4951 77.6722 61.794L77.5888 61.7383L83.4259 56.6407L87.1838 60.9086Z" fill="#EEBD37"/>
<path d="M81.7039 61.9045C88.7938 70.0497 96.1618 75.2422 98.1607 73.5022C100.16 71.7623 96.0326 63.7488 88.9427 55.6036C81.8528 47.4584 74.4848 42.2659 72.4859 44.0059C70.487 45.7458 74.614 53.7593 81.7039 61.9045Z" fill="#FADE4B"/>
<path d="M96.4286 71.5144C96.1337 71.7034 95.7165 71.7866 95.1938 71.6306C95.3328 71.6029 95.522 71.5362 95.6221 71.4584C97.2691 70.2188 93.6847 63.487 87.6532 56.448C82.689 50.6277 77.5684 46.4148 75.0212 45.824C77.1405 45.5024 82.9007 50.0216 88.5042 56.5096C94.5357 63.5486 98.1201 70.2804 96.4286 71.5144Z" fill="#E2A935"/>
<path opacity="0.5" d="M95.6219 71.4585C95.5218 71.5363 95.3326 71.603 95.1935 71.6307C92.6464 71.0399 87.5257 66.827 82.517 61.0011C76.4855 53.9621 72.9011 47.2303 74.5481 45.9907C74.6928 45.9185 74.8374 45.8462 75.021 45.8241C77.607 46.4649 82.6832 50.6723 87.653 56.4481C93.729 63.4927 97.2689 70.2189 95.6219 71.4585Z" fill="#E2A935"/>
</g>
<path d="M25.4187 39.0372C25.4187 39.0372 33.4935 41.0493 42.7724 39.2703C52.0508 37.5167 58.0943 34.724 58.0943 34.724L67.255 49.7157C67.255 49.7157 49.7044 61.772 30.8962 57.1287C30.8962 57.1287 25.9133 46.5568 25.4187 39.0372Z" fill="#5EAB90"/>
<path d="M40.7322 47.4716C40.8266 48.95 43.2462 50.0219 46.1521 49.832C49.0579 49.6421 51.3527 48.3186 51.2588 46.8148C51.1644 45.3364 48.7448 44.2645 45.8389 44.4545C42.9331 44.6444 40.6638 45.9684 40.7322 47.4716Z" fill="#A5D8C6"/>
<path d="M54.4658 37.6719C51.9788 38.482 48.0333 39.6415 43.2533 40.5534C38.678 41.4189 34.3255 41.4239 31.3512 41.256C30.6796 42.8446 29.338 43.6547 27.8551 43.9526C28.5442 47.3023 29.8445 50.64 30.8378 52.902C33.0675 53.3588 34.2078 54.7331 34.7861 56.1968C50.5619 58.711 64.6486 49.0467 64.6486 49.0467L58.8613 39.1696C57.0228 39.4341 55.5619 38.7399 54.4658 37.6719ZM54.2667 46.6269C54.4334 49.4304 50.8655 51.9219 46.3032 52.2022C41.7409 52.4826 37.8921 50.4372 37.7254 47.6336C37.5586 44.8301 41.1265 42.3387 45.6888 42.0583C50.2765 41.7785 54.0999 43.8234 54.2667 46.6269Z" fill="#A5D8C6"/>
<defs>
<filter id="filter0_f" x="29.5739" y="196.977" width="13.7071" height="32.4226" filterUnits="userSpaceOnUse" color-interpolation-filters="sRGB">
<feFlood flood-opacity="0" result="BackgroundImageFix"/>
<feBlend mode="normal" in="SourceGraphic" in2="BackgroundImageFix" result="shape"/>
<feGaussianBlur stdDeviation="1" result="effect1_foregroundBlur"/>
</filter>
<filter id="filter1_f" x="67.7087" y="41.67" width="32.9559" height="36.1262" filterUnits="userSpaceOnUse" color-interpolation-filters="sRGB">
<feFlood flood-opacity="0" result="BackgroundImageFix"/>
<feBlend mode="normal" in="SourceGraphic" in2="BackgroundImageFix" result="shape"/>
<feGaussianBlur stdDeviation="1" result="effect1_foregroundBlur"/>
</filter>
<clipPath id="clip0">
<rect width="116.698" height="116.698" fill="white" transform="translate(34.0479 103.425) rotate(-11.0308)"/>
</clipPath>
</defs>
</svg>
