<?xml version="1.0" encoding="utf-8"?>
<!-- Generator: Adobe Illustrator 24.0.1, SVG Export Plug-In . SVG Version: 6.00 Build 0)  -->
<svg version="1.1" id="Capa_1" xmlns="http://www.w3.org/2000/svg" xmlns:xlink="http://www.w3.org/1999/xlink" x="0px" y="0px"
	 viewBox="0 0 614 440.9" style="enable-background:new 0 0 614 440.9;" xml:space="preserve">
<style type="text/css">
	.st0{fill:#6DA2E2;}
	.st1{fill:#E4F1F7;}
	.st2{fill:#FFEC66;}
	.st3{fill:#FFA600;}
	.st4{fill:#FFD766;}
	.st5{fill:#FD5C00;}
	.st6{fill:#F47458;}
	.st7{fill:#E09613;}
	.st8{fill:#0948F0;}
	.st9{fill:#002B9C;}
	.st10{fill:#F7AB08;}
	.st11{fill:#FAE0B2;}
	.st12{fill:#FFC5E6;}
	.st13{fill:#02235E;}
	.st14{fill:#FF5C53;}
	.st15{fill:#F7A491;}
</style>
<g>
	<ellipse class="st0" cx="300.2" cy="410.7" rx="289.2" ry="17.5"/>
	<g>
		<polygon class="st1" points="338.3,269.3 366,194.7 337.7,209.4 304.3,194.7 		"/>
		<g>
			<path class="st2" d="M205,331.7h-96.3c-3.9,0-7-2.9-7-6.6l0,0c0-3.6,3.1-6.6,7-6.6H205c3.9,0,7,2.9,7,6.6l0,0
				C212,328.7,208.9,331.7,205,331.7z"/>
			<path class="st3" d="M203.5,318.5h-97.1c-3.6,0-6.6-2.9-6.6-6.6l0,0c0-3.6,2.9-6.6,6.6-6.6h97.1c3.6,0,6.6,2.9,6.6,6.6l0,0
				C210.1,315.5,207.1,318.5,203.5,318.5z"/>
			<path class="st2" d="M214.4,305.3h-96.3c-3.9,0-7-2.9-7-6.6l0,0c0-3.6,3.1-6.6,7-6.6h96.3c3.9,0,7,2.9,7,6.6l0,0
				C221.4,302.4,218.2,305.3,214.4,305.3z"/>
		</g>
		<g>
			<path class="st2" d="M181.4,410.7H90.7c-3.6,0-6.6-2.9-6.6-6.6l0,0c0-3.6,2.9-6.6,6.6-6.6h90.6c3.6,0,6.6,2.9,6.6,6.6l0,0
				C187.9,407.7,185,410.7,181.4,410.7z"/>
			<path class="st3" d="M179.5,397.5H88.9c-3.6,0-6.6-2.9-6.6-6.6l0,0c0-3.6,2.9-6.6,6.6-6.6h90.6c3.6,0,6.6,2.9,6.6,6.6l0,0
				C186.1,394.6,183.1,397.5,179.5,397.5z"/>
			<path class="st4" d="M190.1,384.3H99.5c-3.6,0-6.6-2.9-6.6-6.6l0,0c0-3.6,2.9-6.6,6.6-6.6h90.6c3.6,0,6.6,2.9,6.6,6.6l0,0
				C196.7,381.4,193.8,384.3,190.1,384.3z"/>
			<path class="st2" d="M179.2,371.2H88.5c-3.6,0-6.6-2.9-6.6-6.6l0,0c0-3.6,2.9-6.6,6.6-6.6h90.6c3.6,0,6.6,2.9,6.6,6.6l0,0
				C185.8,368.2,182.8,371.2,179.2,371.2z"/>
			<path class="st3" d="M177.3,358H86.7c-3.6,0-6.6-2.9-6.6-6.6l0,0c0-3.6,2.9-6.6,6.6-6.6h90.6c3.6,0,6.6,2.9,6.6,6.6l0,0
				C183.9,355.1,181,358,177.3,358z"/>
			<path class="st4" d="M188,344.8H97.3c-3.6,0-6.6-2.9-6.6-6.6l0,0c0-3.6,2.9-6.6,6.6-6.6H188c3.6,0,6.6,2.9,6.6,6.6l0,0
				C194.5,341.9,191.6,344.8,188,344.8z"/>
		</g>
		<g>
			<path class="st3" d="M361.8,122.2c11.8,16.8,7.7,40-9.1,51.8c-16.8,11.8-40,7.7-51.8-9.1c-11.8-16.8-7.7-40,9.1-51.8
				C326.8,101.3,350,105.4,361.8,122.2z"/>
			<path class="st2" d="M356.9,125.6c9.9,14.1,6.5,33.5-7.6,43.4c-14.1,9.9-33.5,6.5-43.4-7.6c-9.9-14.1-6.5-33.5,7.6-43.4
				C327.6,108.1,347,111.5,356.9,125.6z"/>
			<g>
				<path class="st3" d="M335,165.4l-1.4-5c-2.3,0.5-4.6,0.7-6.6,0.6c-1.7-0.1-3-1.5-3-3.1l0-0.2c0-1.8,1.5-3.3,3.4-3.2
					c1.9,0.1,3.9,0,6-0.6c3-0.8,4.8-2.5,4.2-4.7c-0.5-2-2.6-2.8-6.9-3.1c-6.2-0.4-10.8-2-12.1-7.1c-1.3-4.7,1-9.2,6.4-11.8l-1.4-5
					l5.2-1.4l1.3,4.7c1.9-0.4,3.6-0.6,5-0.6c1.7,0,3.1,1.4,3.2,3.1l0,0c0,1.8-1.4,3.2-3.2,3.2c-1.3,0-3,0.1-4.8,0.6
					c-3.4,0.9-4.1,2.7-3.7,4.2c0.5,1.7,2.6,2.4,7.6,2.8c6.9,0.5,10.2,2.7,11.5,7.5c1.3,4.7-1,9.6-6.8,12.3l1.5,5.4L335,165.4z"/>
			</g>
		</g>
		<g>
			<path class="st5" d="M343.7,263.6l-91.4,12.6c-3.7,0.5-7.1-2.1-7.6-5.7l0,0c-0.5-3.7,2.1-7.1,5.7-7.6l91.4-12.6
				c3.7-0.5,7.1,2.1,7.6,5.7l0,0C349.9,259.7,347.4,263.1,343.7,263.6z"/>
			<g>
				<path class="st5" d="M392.3,278.7l-92.3-2.1c-3.7-0.1-6.6-3.2-6.6-6.9l0,0c0.1-3.7,3.2-6.6,6.9-6.6l92.3,2.1
					c3.7,0.1,6.6,3.2,6.6,6.9l0,0C399,275.9,396,278.8,392.3,278.7z"/>
				<path class="st6" d="M392.4,278.9c-0.1,0-0.1,0-0.2,0l-92.3-2.1c-3.8-0.1-6.8-3.2-6.7-7c0.1-3.7,3.2-6.7,6.9-6.7
					c0.1,0,0.1,0,0.2,0l92.3,2.1c3.8,0.1,6.8,3.2,6.7,7C399.2,275.9,396.1,278.9,392.4,278.9z M300.1,263.4c-3.5,0-6.5,2.9-6.5,6.4
					c-0.1,3.6,2.8,6.6,6.4,6.7l92.3,2.1c0.1,0,0.1,0,0.1,0c3.5,0,6.5-2.9,6.5-6.4c0.1-3.6-2.8-6.6-6.4-6.7l-92.3-2.1
					C300.2,263.4,300.2,263.4,300.1,263.4z"/>
			</g>
			<path class="st7" d="M333.6,296.8l-86.1-33.3c-3.5-1.3-5.2-5.2-3.8-8.7l0,0c1.3-3.5,5.2-5.2,8.7-3.8l86.1,33.3
				c3.5,1.3,5.2,5.2,3.8,8.7l0,0C340.9,296.4,337,298.1,333.6,296.8z"/>
			<path class="st3" d="M378.7,301l-86.1-33.3c-3.5-1.3-5.2-5.2-3.8-8.7l0,0c1.3-3.5,5.2-5.2,8.7-3.8l86.1,33.3
				c3.5,1.3,5.2,5.2,3.8,8.7l0,0C386,300.6,382.2,302.3,378.7,301z"/>
			<g>
				<path class="st8" d="M451.8,410.7c7-12.1,11.7-31.5,11-41.8c-1.6-23.5-42.9-60.7-43.3-84.3c-0.2-9.6,16.4-34.7,16.4-34.7
					L315.3,293l-120-43.1c0,0,16.6,25.2,16.4,34.7c-0.4,23.6-41.7,60.8-43.3,84.3c-0.7,10.2,4,29.6,11,41.8H451.8z"/>
				<g>
					<path class="st5" d="M315.3,293l-120-43.1c0,0,5.6,8.5,10.2,17.5L315.3,293z"/>
					<path class="st9" d="M462.8,368.9c-1.6-23.5-42.9-60.7-43.3-84.3c-0.2-9.6,16.4-34.7,16.4-34.7l-48.6,17.4
						c-3.4,6.5-6.3,13.4-6.2,17.4c0.4,23.6,41.7,60.8,43.3,84.3c0.7,10.2-4,29.6-11,41.8h38.4C458.8,398.5,463.5,379.1,462.8,368.9z
						"/>
				</g>
				<g>
					<g>
						<g>
							<path class="st2" d="M315.3,299.5l-131.9-48.2c-2.8-1-4.2-4.1-3.2-6.9c1-2.8,4.1-4.2,6.9-3.2L315.3,288l132.3-48.5
								c2.8-1,5.9,0.4,6.9,3.2c1,2.8-0.4,5.9-3.2,6.9L315.3,299.5z"/>
						</g>
					</g>
					<path class="st2" d="M331.4,295.1c0,8.7-7,15.7-15.7,15.7c-8.7,0-15.7-7-15.7-15.7c0-8.7,7-15.7,15.7-15.7
						C324.3,279.4,331.4,286.4,331.4,295.1z"/>
					<path class="st7" d="M322,295.1c0,3.5-2.8,6.4-6.4,6.4c-3.5,0-6.4-2.8-6.4-6.4c0-3.5,2.8-6.4,6.4-6.4
						C319.2,288.7,322,291.6,322,295.1z"/>
					<g>
						<path class="st3" d="M173.1,255.6l-1.3-2.3c0.4-0.3,10.7-6.2,16.7-6.2v2.6C183.1,249.7,173.2,255.5,173.1,255.6z"/>
					</g>
					<g>
						<path class="st10" d="M462.9,256c-0.1-0.1-10.3-9-16.6-9v-2.6c7.4,0,17.9,9.3,18.4,9.7L462.9,256z"/>
					</g>
					<path class="st11" d="M471,256c0,4.5-3.6,8.1-8.1,8.1c-4.5,0-8.1-3.6-8.1-8.1c0-4.5,3.6-8.1,8.1-8.1
						C467.4,247.9,471,251.6,471,256z"/>
					<path class="st3" d="M179.8,256c0,4.5-3.6,8.1-8.1,8.1c-4.5,0-8.1-3.6-8.1-8.1c0-4.5,3.6-8.1,8.1-8.1
						C176.2,247.9,179.8,251.6,179.8,256z"/>
				</g>
			</g>
		</g>
		<g>
			<g>
				<g>
					<path class="st12" d="M480.2,385.3c0,0-0.9,11.2-0.2,14.9c0.4,2,2.6,6,1.6,7.8c-1,1.8-2.1,2.3-2.1,2.3l-25.9,0.4
						c-1.4,0-0.5-0.9,0.7-1.7c1.9-1.3,3.4-2.2,9.3-5.1c0.4-0.2,1.8-1.1,2.3-1.4c1.3-0.8,2.6-2,3.7-3.2c1.9-2,2-11.9,2-11.9
						L480.2,385.3z"/>
					<path class="st13" d="M460,236.1c0,0-11.1-5.5-9,6.5c2.1,11.9,18.5,146.2,18.5,146.2l15.3,0.8c0,0,2-44.8,1.5-51.2
						c-0.4-6.4-3-16.4-3-16.4l-1.3-39.7l-14.4-49L460,236.1z"/>
					<path class="st5" d="M465.8,402.5c6.9,1.7,11.9,0.6,14.8-0.6c0.7,2,1.7,4.6,1.2,6.1c-0.6,1.8-1.4,2.6-2.2,2.6
						c-6.3,0.2-23,0-27.8,0c-0.7,0-1-0.8-0.6-1.3C452.3,408,465.3,402.8,465.8,402.5z"/>
					<path class="st12" d="M451,155.4c0,0-9.4-18.1-10.9-24.8c-1.5-6.7-6.5-40.1-6.1-42.3c0.4-2.2,8.4-7.3,7.4-9.2
						c-1-1.8-8.6-1.8-10.4-1.7c-1.7,0.2-5.3,1.2-6.8,2.4c-1.5,1.2,1.7,41.4,2.6,50c1,8.6,12.7,35.3,12.7,35.3L451,155.4z"/>
					<g>
						<path class="st12" d="M524.3,296.6c0,0,7.8-8.1,9.5-11.4c0.9-1.8,1.8-6.3,3.7-7.1c1.9-0.8,3.1-0.4,3.1-0.4l20.4,16
							c1.1,0.9-0.2,1-1.6,0.9c-2.3-0.1-4-0.4-10.4-1.9c-0.4-0.1-2.1-0.3-2.7-0.4c-1.5-0.2-3.3-0.1-4.9,0.2c-2.7,0.4-9.1,8-9.1,8
							L524.3,296.6z"/>
						<path class="st5" d="M546.3,292.3c-4.2-5.7-8.9-7.9-11.8-8.9c0.7-2,1.5-4.7,2.8-5.5c1.6-1,2.7-0.8,3.4-0.3
							c5,3.8,18,14.3,21.7,17.2c0.5,0.4,0.3,1.2-0.3,1.4C560.3,296.5,546.9,292.4,546.3,292.3z"/>
						<path class="st5" d="M524.5,149.9c-4.8-10.1-15.5-15.7-25.9-13c-3.7-5-9.5-8.6-15.5-9.4c-11.8-1.7-27.1,4.1-25.5,16.4
							c-3.7,8.6-2.8,20.5,4.6,26.3c-1.4,11.3,10,21.4,23.5,20c5.4,7.5,14.8,11.9,23.6,10.2c2.1-0.4,5.3-1.2,5.9-1.1
							c-0.7-0.1,15.4,10.4,26.4-8.3C552.9,172,541.8,150.6,524.5,149.9z"/>
						<path class="st9" d="M455.5,240.5c0,0,25-11.1,25.4-9.8c3.1,10.1,12.9,6.8,18.7,24.6c2.4,7.4,4.9,56.9,4.9,56.9
							s9.9-8.2,23.9-22.5c1.1-1.1,11.7,9,11.7,9c-27.9,37.7-40,39.7-44.7,37.6c-9.7-4.4-30.3-66.1-30.2-66.1
							C462.6,265.3,455.5,240.5,455.5,240.5z"/>
						<path class="st12" d="M496.9,170.7c0,0,36.1,0,43.8-0.5c7-0.4,34.7,0.3,35.8,0.2c1.1-0.1,8.3-12.3,9.4-11c1.2,1.3-4,6-2.4,7.2
							c1.6,1.2,18.8-1.5,18.6-0.2c-0.4,2.4-10.5,2.1-10.5,3.2c0,1.1,10.5-0.6,11.2,1.3c0.7,1.9-10.1,0.8-10.5,1.6
							c-0.4,0.9,10,2.4,9,4.2c-0.6,1-9.3-1.6-9.2-0.3c0,1.3,6.4,4.3,5.6,5.4c-0.8,1-5-3.2-8.7-3.3c-3.7-0.1-6.3-2-12.2-0.4
							c-2.9,0.8-25,3.5-43.7,5.1c-19.2,1.6-34.9,2.2-34.9,2.2L496.9,170.7z"/>
						<path class="st8" d="M443.3,196.3c-0.5-5.8,0.7-10.3,0.9-12.2c-1.8-6-5.5-18.9-6.8-21.4c0,0,6.3-12.1,12.7-12
							c0,0,6.6,14.8,11.7,17.5c0.1,0,1.8,0.8,2.6,0.8c4.9,0,22-0.6,25.2-0.6l-1.8,24.3c-12.4,24.3-9.1,37.1-4.3,41.9
							c2.2,2.2-31,11.2-32.5,8.1C449.2,238.9,444.3,208,443.3,196.3z"/>
						<path class="st8" d="M480.9,169.2c3.2-1.5,26-0.8,26-0.8s3.2,15.9,0.6,19.8c0,0-20.5,3-19.9,4.7L480.9,169.2z"/>
						<path class="st12" d="M474.9,159c0,0-0.4,8.7,0,12.3c0.4,3.6-3.7,12.1-11.4,12.3c-7.7,0.1-1.1-8.1-0.5-11.7
							c0.7-3.6,1.5-17.5,1.5-17.5L474.9,159z"/>
						<path class="st6" d="M464.6,154.3c0,0-0.2,3.2-0.5,7c2.4,2.9,6.1,4.4,10.7,2.6c0-2.7,0.2-4.9,0.2-4.9L464.6,154.3z"/>
						<path class="st12" d="M475.5,133.1c0,0,4.3,1.3,6.8,5.6c2.4,4.3,3.5,16.7-5.9,21.8c-9.4,5.1-15.8-3.5-15.4-11.4
							C461.5,141.3,463.9,130.9,475.5,133.1z"/>
						<path class="st12" d="M459.2,146.6c0.6,2,2.1,3.2,3.2,2.9c1.1-0.4,1.5-2.3,0.9-4.2c-0.6-2-2.1-3.2-3.2-2.9
							C459,142.7,458.5,144.6,459.2,146.6z"/>
						<path class="st14" d="M474.2,132.7c0,0,4.8,13,9.6,14.5c4.9,1.5,4.4,7.8,4.4,7.8s0.9-14.7-3.5-18.4
							C480.3,133,474.2,132.7,474.2,132.7z"/>
						<path class="st12" d="M481.7,149.7c-0.8,2-0.3,4.1,1,4.6c1.4,0.5,3.1-0.7,3.9-2.7c0.8-2,0.3-4.1-1-4.6
							C484.2,146.5,482.5,147.7,481.7,149.7z"/>
					</g>
					<path class="st6" d="M423,83c0,0,10.6,0.5,11.8,0.5c1.2,0,4.9-3.7,4.9-3.7L423,83z"/>
				</g>
				<g>
					<path class="st3" d="M458.4,26.2c11.5,16.5,7.6,39.1-8.9,50.7c-16.5,11.5-39.1,7.6-50.7-8.9c-11.5-16.5-7.6-39.1,8.9-50.7
						C424.2,5.7,446.9,9.7,458.4,26.2z"/>
					<path class="st2" d="M453.6,29.5c9.7,13.8,6.4,32.9-7.5,42.5c-13.8,9.7-32.9,6.4-42.5-7.5c-9.7-13.8-6.4-32.9,7.5-42.5
						C424.9,12.4,444,15.7,453.6,29.5z"/>
					<g>
						<path class="st3" d="M432.2,68.5l-1.3-4.9c-2.2,0.5-4.5,0.7-6.5,0.6c-1.6-0.1-2.9-1.4-2.9-3.1l0-0.2c0-1.8,1.5-3.3,3.3-3.1
							c1.8,0.1,3.9,0,5.9-0.6c3-0.8,4.7-2.5,4.1-4.6c-0.5-2-2.5-2.8-6.7-3c-6-0.4-10.5-1.9-11.9-7c-1.2-4.6,1-9,6.3-11.6l-1.3-4.9
							l5.1-1.4l1.2,4.6c1.9-0.4,3.5-0.6,4.9-0.6c1.7,0,3.1,1.4,3.1,3.1l0,0c0,1.8-1.4,3.2-3.2,3.1c-1.3,0-2.9,0.1-4.7,0.6
							c-3.4,0.9-4.1,2.7-3.7,4.1c0.5,1.7,2.6,2.3,7.4,2.8c6.8,0.5,10,2.7,11.3,7.3c1.2,4.6-1,9.4-6.6,12.1l1.4,5.3L432.2,68.5z"/>
					</g>
				</g>
			</g>
			<path class="st15" d="M434.8,83.5l4.4-3.9c0,0-2.1-2.5-1.2-2.9c1.4-0.8,3.8,2.2,3.6,2.9c-0.2,0.7-2.8,3.1-2.8,3.1L434.8,83.5z"/>
		</g>
	</g>
</g>
</svg>
