<svg width="1335" height="677" viewBox="0 0 1335 677" fill="none" xmlns="http://www.w3.org/2000/svg">
<path fill-rule="evenodd" clip-rule="evenodd" d="M-0.999961 435.121L54.6667 439.141L54.6668 439.141C110.333 443.161 221.667 451.202 333 445.171C371.967 443.061 410.933 439.226 449.9 435.392C522.267 428.272 594.633 421.151 667 425.071C718.69 427.87 770.381 436.303 822.071 444.735C881.714 454.465 941.357 464.195 1001 465.272C1112.33 467.282 1223.67 439.141 1279.33 425.071L1335 411V498.438V507.484V580.516V587.552V677L1279.33 662.929C1223.67 648.859 1112.33 620.718 1001 622.728C941.357 623.805 881.714 633.535 822.071 643.265C770.381 651.697 718.69 660.13 667 662.929C594.633 666.849 522.267 659.728 449.9 652.608C410.933 648.773 371.967 644.939 333 642.829C221.667 636.799 110.335 644.839 54.6677 648.859L54.6671 648.859L54.6667 648.859L-0.999981 652.879L-1 580.516L-0.999975 498.438L-0.999961 435.121Z" fill="#0D8284"/>
<path fill-rule="evenodd" clip-rule="evenodd" d="M-0.999961 52.8665L54.6667 61.6776C110.333 70.4887 221.667 88.1108 333 74.8942C371.967 70.2684 410.933 61.8648 449.9 53.4613C522.267 37.8546 594.633 22.248 667 30.8388C718.69 36.9751 770.381 55.457 822.071 73.9389C881.714 95.2642 941.357 116.59 1001 118.95C1112.33 123.355 1223.67 61.6776 1279.33 30.8388L1335 0V191.641V211.466V371.534V386.953V583L1279.33 552.161C1223.67 521.322 1112.33 459.645 1001 464.05C941.357 466.41 881.714 487.736 822.071 509.061C770.381 527.543 718.69 546.025 667 552.161C594.633 560.752 522.267 545.145 449.9 529.539C410.933 521.135 371.967 512.732 333 508.106C221.668 494.889 110.336 512.511 54.6684 521.322L54.6674 521.322L54.6667 521.322L-0.999981 530.133L-1 371.534L-0.999975 191.641L-0.999961 52.8665Z" fill="#FFFDED"/>
</svg>
