<?xml version="1.0" encoding="utf-8"?>
<!-- Generator: Adobe Illustrator 24.0.1, SVG Export Plug-In . SVG Version: 6.00 Build 0)  -->
<svg version="1.1" id="Capa_1" xmlns="http://www.w3.org/2000/svg" xmlns:xlink="http://www.w3.org/1999/xlink" x="0px" y="0px"
	 viewBox="0 0 614 682.9" style="enable-background:new 0 0 614 682.9;" xml:space="preserve">
<style type="text/css">
	.st0{fill:#6DA2E2;}
	.st1{fill:#FFA600;}
	.st2{fill:#FFEC66;}
	.st3{fill:#50BFA5;}
	.st4{fill:#0948F0;}
	.st5{fill:#FFFFFF;}
	.st6{opacity:0.3;fill:#C3E5D9;enable-background:new    ;}
	.st7{opacity:0.3;enable-background:new    ;}
	.st8{fill:#C3E5D9;}
	.st9{fill:#FD5C00;}
	.st10{fill:#FD89C6;}
	.st11{fill:#FFC5E6;}
	.st12{fill:#002B9C;}
	.st13{fill:#7FB2FF;}
	.st14{fill:#3482FF;}
	.st15{fill:#659DEF;}
	.st16{fill:#ABD0FF;}
	.st17{fill:#FFD766;}
</style>
<g>
	<ellipse class="st0" cx="313.8" cy="658.1" rx="251.2" ry="15.2"/>
	<g>
		<g>
			<path class="st1" d="M361.2,367.8c-4.9,21.5-26.2,34.9-47.7,30c-21.5-4.9-34.9-26.2-30-47.7c4.9-21.5,26.2-34.9,47.7-30
				C352.7,325,366.1,346.4,361.2,367.8z"/>
			<path class="st2" d="M355,366.4c-4.1,18-22,29.3-40,25.2c-18-4.1-29.3-22-25.2-40c4.1-18,22-29.3,40-25.2
				C347.8,330.5,359.1,348.4,355,366.4z"/>
			<g>
				<path class="st1" d="M307.5,377.6l3-4.7c-2.1-1.5-3.9-3.2-5.2-4.9c-1.1-1.4-1-3.4,0.3-4.6l0.2-0.1c1.4-1.3,3.7-1.2,5,0.4
					c1.2,1.6,2.8,3.1,4.8,4.4c2.8,1.8,5.4,2,6.7,0c1.2-1.9,0.4-4.1-2.5-7.7c-4.1-5.2-6.2-10-3.1-14.8c2.8-4.4,8.1-5.8,14-3.4l3-4.7
					l4.8,3.1l-2.8,4.4c1.7,1.2,3.1,2.4,4.1,3.6c1.3,1.4,1.2,3.5-0.2,4.8l0,0c-1.4,1.3-3.6,1.2-4.9-0.3c-0.9-1.1-2.2-2.3-3.9-3.4
					c-3.2-2.1-5.1-1.3-6,0c-1,1.6,0,3.8,3.2,8.1c4.5,5.9,5.2,10.1,2.3,14.6c-2.8,4.4-8.4,6.2-14.7,3.5l-3.2,5L307.5,377.6z"/>
			</g>
		</g>
		<path class="st3" d="M271.6,384.3H135.1c-6.7,0-12.2,5.4-12.2,12.2v99.9c0,6.7,5.4,12.2,12.2,12.2h136.5c6.7,0,12.2-5.4,12.2-12.2
			v-99.9C283.7,389.8,278.3,384.3,271.6,384.3z"/>
		<g>
			<path class="st4" d="M129.6,657.7h148.5c11.7,0,21.2-9.5,21.2-21.2V317.6c0-11.7-9.5-21.2-21.2-21.2H129.6
				c-11.7,0-21.2,9.5-21.2,21.2v318.9C108.4,648.2,117.9,657.7,129.6,657.7z"/>
			<path class="st5" d="M290.1,599V331.9c0-11.2-9.1-20.3-20.3-20.3H140.7c-11.2,0-20.3,9.1-20.3,20.3V599
				c0,11.2,9.1,20.3,20.3,20.3h129.1C281,619.3,290.1,610.2,290.1,599z"/>
		</g>
		<g>
			<path class="st6" d="M255.2,467.8h-97.6c-4.3,0-7.7-3.5-7.7-7.7l0,0c0-4.3,3.5-7.7,7.7-7.7h97.6c4.3,0,7.7,3.5,7.7,7.7l0,0
				C262.9,464.4,259.4,467.8,255.2,467.8z"/>
			<g>
				<path class="st1" d="M249.4,409.9c7.7,22.3-4.2,46.6-26.5,54.3c-22.3,7.7-46.6-4.2-54.3-26.5c-7.7-22.3,4.2-46.6,26.5-54.3
					S241.7,387.6,249.4,409.9z"/>
				<path class="st2" d="M242.9,412.2c6.4,18.7-3.5,39.1-22.2,45.6c-18.7,6.4-39.1-3.5-45.6-22.2c-6.4-18.7,3.5-39.1,22.2-45.6
					C216.1,383.5,236.5,393.5,242.9,412.2z"/>
				<g>
					<path class="st1" d="M206,449.2l0.1-6c-2.7-0.2-5.3-0.7-7.5-1.5c-1.8-0.6-2.8-2.6-2.3-4.4l0.1-0.2c0.6-2,2.7-3.2,4.7-2.5
						c2,0.7,4.3,1.2,6.8,1.3c3.6,0.1,6.1-1.3,6.1-3.8c0-2.4-2-3.9-6.6-5.6c-6.7-2.4-11.2-5.6-11.1-11.7c0.1-5.5,4.1-9.8,10.8-11
						l0.1-6l6.2,0.1l-0.1,5.5c2.3,0.1,4.2,0.5,5.7,0.9c1.9,0.5,3,2.5,2.5,4.5l0,0c-0.5,2-2.6,3.1-4.6,2.5c-1.5-0.5-3.3-0.8-5.5-0.9
						c-4.1-0.1-5.4,1.7-5.5,3.4c0,2.1,2.1,3.4,7.5,5.5c7.5,2.8,10.4,6.3,10.3,12c-0.1,5.6-4.1,10.3-11.4,11.5l-0.1,6.4L206,449.2z"
						/>
				</g>
			</g>
		</g>
		<g class="st7">
			<path class="st8" d="M266.3,516H151.7c-6.1,0-11-4.9-11-11l0,0c0-6.1,4.9-11,11-11h114.6c6.1,0,11,4.9,11,11l0,0
				C277.3,511.1,272.4,516,266.3,516z"/>
		</g>
		<path class="st9" d="M268.1,505c0-6.1-4.9-11-11-11H151.7c-6.1,0-11,4.9-11,11s4.9,11,11,11h105.4
			C263.2,516,268.1,511.1,268.1,505z"/>
		<g>
			<path class="st1" d="M502.9,13.7c19.7,9.8,27.7,33.8,17.8,53.5c-9.8,19.7-33.8,27.7-53.5,17.8c-19.7-9.8-27.7-33.8-17.8-53.5
				C459.3,11.8,483.2,3.9,502.9,13.7z"/>
			<path class="st2" d="M500.1,19.4c16.5,8.3,23.2,28.4,15,44.9c-8.3,16.5-28.4,23.2-44.9,15c-16.5-8.3-23.2-28.4-15-44.9
				C463.4,17.9,483.5,11.2,500.1,19.4z"/>
			<g>
				<path class="st1" d="M499.7,68.2l-3.8-4.1c-1.9,1.7-4,3-6,3.9c-1.6,0.8-3.6,0.1-4.4-1.4l-0.1-0.2c-1-1.7-0.3-3.9,1.5-4.7
					c1.8-0.8,3.7-2,5.4-3.6c2.4-2.3,3.2-4.8,1.6-6.5c-1.5-1.6-3.9-1.3-8,0.6c-6,2.8-11.2,3.6-15.1-0.5c-3.6-3.8-3.7-9.2,0-14.4
					l-3.8-4.1l4.2-4l3.6,3.8c1.6-1.4,3.1-2.4,4.4-3.1c1.6-0.9,3.7-0.3,4.6,1.3l0,0c0.9,1.7,0.3,3.8-1.4,4.7c-1.3,0.7-2.7,1.6-4.2,3
					c-2.8,2.6-2.5,4.7-1.4,5.9c1.3,1.4,3.7,0.9,8.6-1.2c6.8-3,11-2.6,14.7,1.2c3.6,3.8,4,9.6-0.1,15.1l4.1,4.3L499.7,68.2z"/>
			</g>
		</g>
		<g>
			<path class="st1" d="M428.4,163.4c-1.3,22-20.2,38.7-42.2,37.4c-22-1.3-38.7-20.2-37.4-42.2c1.3-22,20.2-38.7,42.2-37.4
				C413,122.6,429.7,141.4,428.4,163.4z"/>
			<path class="st2" d="M422,163.1c-1.1,18.4-16.9,32.5-35.4,31.4c-18.4-1.1-32.5-16.9-31.4-35.4c1.1-18.4,16.9-32.5,35.4-31.4
				C409.1,128.8,423.1,144.6,422,163.1z"/>
			<g>
				<path class="st1" d="M377,181.9l2.2-5.1c-2.3-1.1-4.4-2.5-6-3.9c-1.3-1.2-1.5-3.2-0.4-4.6l0.1-0.2c1.2-1.6,3.5-1.8,5-0.5
					c1.5,1.4,3.3,2.6,5.4,3.5c3.1,1.3,5.7,1,6.6-1.1c0.9-2.1-0.3-4.1-3.7-7.2c-4.9-4.4-7.7-8.8-5.5-14.1c2-4.8,7-7,13.3-5.7l2.2-5.1
					l5.3,2.3l-2,4.8c1.9,0.9,3.4,1.9,4.6,2.8c1.5,1.2,1.7,3.3,0.6,4.7l0,0c-1.2,1.5-3.4,1.8-4.9,0.5c-1.1-0.9-2.5-1.9-4.5-2.7
					c-3.5-1.5-5.3-0.5-5.9,1c-0.8,1.8,0.6,3.7,4.5,7.4c5.4,5,6.8,9.1,4.7,14c-2.1,4.8-7.2,7.4-13.9,5.8l-2.4,5.5L377,181.9z"/>
			</g>
		</g>
		<g>
			<g>
				<g>
					<path class="st9" d="M213.3,225.4c22.2,9.1,29.3-10.8,28.8-10.3c0.4-0.5,3.8-1.9,5.9-3c8.9-4.4,8.6-19.7,8.4-29.9
						c12.7-7.8,15.9-22.6,7.2-31.7c2.7-10.1,3.3-16.5-5.8-21.6c-6.8-11.9-26-7.9-35.3,1.5c-4.7,4.7-7.4,11.7-7.4,18.6
						c-10.9,4.5-16.6,16.6-14.2,28.7C186.2,189.9,190.6,216.1,213.3,225.4z"/>
					<path class="st10" d="M295,259.8c-1.8-1.8-4.9-3.3-4.7-3.6c0.7-1,8.5,7,8,4.7c-0.3-1.3-5.8-7.8-7.8-8
						c-1.9-0.2-14.3-2.2-14.3-2.2l-28.5-19c0,0-1.4-22.4,4.6-37.5c-6.6-2-7.9-2.5-14.7-1.9c-3.9,15.3-8.1,41.2-3,48.7
						c2.1,3.2,39.2,15.4,39.2,15.4s8,3,9.5,3.1c1.1,0.1,4.3-0.2,5.8,0c3.5,0.5,7.8,5.7,8.1,5.1C297.3,264.2,296.8,261.6,295,259.8z"
						/>
					<path class="st4" d="M255.8,192.4c-2.7-5-5.4-8.9-5.4-8.9c-2.8-5-10-7.5-10-7.5s-2.4,0-5.2,0.2c-0.2,0.5-0.3,0.8-0.5,0.9
						c-1,0.8-7-0.2-10.8,2.4c-12.9,11.1-9.3,64.7-8.3,81.6l32.1,0.1c0,0,2.1-36.2,10.1-45.6C263.3,209.2,259.7,199.7,255.8,192.4z"
						/>
					<path class="st10" d="M264.6,381c0.3-0.6,4.8-11.4,8.5-16.2c5.3-7,51.1-70,49.2-85.3c-0.8-6.7-20.7-12.4-23-12.8
						c-12.6,1.7,0.6,12.6-8.8,21.5c6.2,2.1,9.8,4.7,8.5,6.5c-5.3,6.9-33.7,62.9-34.9,63.6c-5.5,3.2-7.6,1.7-7.6,1.7
						s1.3,31.5,3.9,30.5C262.8,389.5,260.7,388.2,264.6,381z"/>
					<path class="st9" d="M254,360.2l5.3,31.7c1.2,4.1,3.2,4.1,3.7,3.5c1.1-1.1,1.5-9.6,1.7-14.4c-2.4-7.3-2.2-21.2-0.7-22.7
						C260.3,358.3,254,359.5,254,360.2z"/>
					<path class="st11" d="M272.9,282.6c7.1-11.8,6.7-10.3,19.1-15.6c5,2,21.5,12.4,23.6,14.3l-26.4,19.1
						C290.1,298.2,280.9,287.6,272.9,282.6z"/>
					<path class="st11" d="M238.1,157.9c0,0-2.2,15.4-3.7,19.2c-1.5,3.7,8.3,11.8,16.4,14.2c8.1,2.4-2.5-8.3-2.1-12.3
						c0.3-4,1.8-23,1.8-23L238.1,157.9z"/>
					<path class="st10" d="M250.1,161.4c0.2-3.1,0.4-5.4,0.4-5.4l-12.4,1.9c0,0-0.3,1.8-0.7,4.4C242.5,165.2,247,164.3,250.1,161.4z
						"/>
					<path class="st11" d="M242,129.7c0,0-4.9,1.1-7.9,5.7c-3,4.6-5.1,18.2,4.9,24.6c9.9,6.4,17.7-2.6,17.8-11.4
						C256.9,139.9,255,128.2,242,129.7z"/>
					<path class="st11" d="M259,145.9c-0.8,2.1-2.5,3.4-3.8,2.9c-1.2-0.5-1.5-2.6-0.7-4.7c0.8-2.1,2.5-3.4,3.8-2.9
						C259.6,141.7,259.9,143.8,259,145.9z"/>
					<path class="st11" d="M233.9,147.6c0.7,2.3,0.1,4.5-1.5,5c-1.5,0.5-3.4-1-4.1-3.2c-0.7-2.3-0.1-4.5,1.5-5
						C231.4,143.9,233.2,145.3,233.9,147.6z"/>
					<path class="st12" d="M271.4,262.2c-5.5-0.5-23.7-2.3-23.7-2.3l-32.2-4.3c0,0-5.7,13.6-5.9,22.2c-0.4,14.9,13.4,27.5,25.1,26.8
						c7-0.4,46.6-1.3,54.4-4.2c1.6-12.2,3.4-25.4,11.6-34.1C287.6,264.4,278.9,262.9,271.4,262.2z"/>
					<path class="st11" d="M271.8,374.9c0.9-0.9,8-49.3,12.2-69.6c1-4.9,4.1-9.1,8.5-11.5l23-12.6c8,7.3-29.2,89.1-32.6,97.7
						c-2.3,5.9-3.8,18.1-4,18.9c-1.9,8.4,0.6,9.1-1.8,10.8c-2.4,1.8-13-28.8-13-28.8S267.2,379.7,271.8,374.9z"/>
					<path class="st13" d="M264.9,264.3L264.9,264.3c0,1.2,1.1,2.2,2.5,2.2l39.1,0.1c1.4,0,2.8-1.2,3.2-2.7l-0.7,0.5
						c0-1.2-1.1-2.2-2.5-2.2l-39.1-0.1C266,262.1,264.9,263.1,264.9,264.3z"/>
					<g>
						<path class="st13" d="M306.1,265.8c-0.2,0-0.5,0-0.7,0c-2-0.3-3.3-1.5-3-2.9l14.9-51.6c0.4-1.3,2.3-2.2,4.4-2
							c2,0.3,3.3,1.5,3,2.9l-14.9,51.6C309.4,265,307.8,265.8,306.1,265.8z"/>
					</g>
					<path class="st11" d="M294.6,258.8c-2.2-1.1-5.7-1.6-5.6-1.9c0.4-1.2,10.3,5.1,9.1,3.1c-0.7-1.1-8-6.7-10-6.3
						c-1.9,0.4-14.2,2.3-14.2,2.3l-31.8-11.5c0,0-6.1-19.8-5-36c-6.9,0.1-11.8,1.3-18.1,3.9c1.1,15.8,5.1,41.6,12.2,47.2
						c3,2.4,42.1,2.5,42.1,2.5s8.6,0.4,10,0c1.1-0.3,4-1.5,5.5-1.7c3.5-0.6,9.1,3,9.2,2.4C298.2,262.2,296.9,259.9,294.6,258.8z"/>
					<path class="st12" d="M239.3,191.3c-0.4-5-1.1-10-6.1-12.2c-3.2-1.3-6.9-0.8-9.8,1c-3.4,2.2-4.7,6.2-5.2,10
						c-1,8.8-1.5,17.9-0.9,26.8c6.3-2.6,14.9-1.2,21.8-1.4C240.7,207.8,239.9,197.8,239.3,191.3z"/>
				</g>
				<path class="st11" d="M289.9,254.1c5.4,1.4,5.1,1.3,5.3,1.4c3.8,2.4,3.5,3.5-2.4,0.9c-0.1-0.1-0.3-0.1-0.5-0.1l-2.8,0
					c-1.1,0-1.6-1.3-0.8-2l0,0C289.1,254.1,289.5,254,289.9,254.1z"/>
				<path class="st9" d="M279.2,396c0,0-0.2,3.8,1.1,6.9s6.2,4.2,5,5.8c-1.2,1.6-10.7,0-10.7,0l-11-27c-0.5-1-0.2-2.2,0.6-2.9
					c1.3-1.2,3.8-2.8,7.6-4C271.8,375,271.2,391.9,279.2,396z"/>
			</g>
		</g>
	</g>
	<g>
		<polygon class="st14" points="60.7,410.9 67.9,410.9 67.9,418.1 71.8,418.1 71.8,410.9 79,410.9 79,407 71.8,407 71.8,399.9 
			67.9,399.9 67.9,407 60.7,407 		"/>
		<polygon class="st13" points="49,476.7 51.9,479.7 59.6,472 67.3,479.7 70.2,476.7 62.6,469 70.3,461.4 67.3,458.4 59.6,466.1 
			51.9,458.4 49,461.4 56.7,469 		"/>
	</g>
	<g>
		<g>
			<g>
				<path class="st15" d="M314.4,658.2c0,0,60.6-29.9,71-45.4c10.4-15.6-4.9-16.5-4.9-16.5s27-26.3,23.2-37.4
					c-3.8-11.1-18-0.5-18-0.5s17.6-39.1,9.4-43c-15.3-7.2-36.7,34.4-36.7,34.4s4.6-18.1-5.9-17.5c-15.9,0.9-15.2,41.8-15.2,41.8
					s-1.8-15.7-11.3-10.6C308.9,572.7,314.4,658.2,314.4,658.2z"/>
			</g>
			<path class="st16" d="M322.5,557.2c7.5-4.1,14.9,8,14.9,8s-0.8-31.9,15.1-32.8c10.5-0.6,5.9,17.5,5.9,17.5s21.4-41.6,36.7-34.4
				l-80.8,142.1C313.8,647.6,307.8,565.4,322.5,557.2z"/>
			<g>
				<path class="st15" d="M316,658.5c0,0,49.5,6.2,62.4,0.7c12.8-5.5,3.6-12.3,3.6-12.3s27.5-5.4,29.7-13.9c2.1-8.4-11-7.6-11-7.6
					s26.8-17.3,23.3-23c-6.6-10.7-36.8,6.5-36.8,6.5s10.2-9.4,3.4-13.3c-10.2-5.9-26.5,19.9-26.5,19.9s1-6.4-7-7.1
					C342.6,607.3,316,658.5,316,658.5z"/>
			</g>
			<path class="st16" d="M357.9,599.9c8,0.7,7.9,8.5,7.9,8.5s14.8-23.4,25-17.5c6.8,3.9-1.2,16.7-1.2,16.7s27.8-15.9,34.4-5.2
				l-108.1,55.8C319.5,651.8,344.4,598.7,357.9,599.9z"/>
		</g>
		<g>
			<path class="st2" d="M323.3,662.4h49.9c2,0,3.6-1.6,3.6-3.6l0,0c0-2-1.6-3.6-3.6-3.6h-49.9c-2,0-3.6,1.6-3.6,3.6l0,0
				C319.6,660.8,321.2,662.4,323.3,662.4z"/>
			<path class="st1" d="M324.3,655.1h49.9c2,0,3.6-1.6,3.6-3.6l0,0c0-2-1.6-3.6-3.6-3.6h-49.9c-2,0-3.6,1.6-3.6,3.6l0,0
				C320.6,653.5,322.3,655.1,324.3,655.1z"/>
			<path class="st17" d="M318.4,647.9h49.9c2,0,3.6-1.6,3.6-3.6l0,0c0-2-1.6-3.6-3.6-3.6h-49.9c-2,0-3.6,1.6-3.6,3.6l0,0
				C314.8,646.2,316.4,647.9,318.4,647.9z"/>
			<path class="st2" d="M324.5,640.6h49.9c2,0,3.6-1.6,3.6-3.6l0,0c0-2-1.6-3.6-3.6-3.6h-49.9c-2,0-3.6,1.6-3.6,3.6l0,0
				C320.8,639,322.5,640.6,324.5,640.6z"/>
			<path class="st1" d="M325.5,633.4h49.9c2,0,3.6-1.6,3.6-3.6l0,0c0-2-1.6-3.6-3.6-3.6h-49.9c-2,0-3.6,1.6-3.6,3.6l0,0
				C321.8,631.7,323.5,633.4,325.5,633.4z"/>
			<path class="st2" d="M319.6,626.1h49.9c2,0,3.6-1.6,3.6-3.6l0,0c0-2-1.6-3.6-3.6-3.6h-49.9c-2,0-3.6,1.6-3.6,3.6l0,0
				C316,624.5,317.6,626.1,319.6,626.1z"/>
		</g>
	</g>
</g>
</svg>
