<?xml version="1.0" encoding="utf-8"?>
<!-- Generator: Adobe Illustrator 24.2.1, SVG Export Plug-In . SVG Version: 6.00 Build 0)  -->
<svg version="1.1" id="Capa_1" xmlns="http://www.w3.org/2000/svg" xmlns:xlink="http://www.w3.org/1999/xlink" x="0px" y="0px"
	 viewBox="0 0 255 166" style="enable-background:new 0 0 255 166;" xml:space="preserve">
<style type="text/css">
	
		.st0{fill:none;stroke:#002B9C;stroke-width:3.1724;stroke-linecap:round;stroke-linejoin:round;stroke-miterlimit:10;stroke-dasharray:12.72,12.72;}
	.st1{fill:#FACBB4;}
	.st2{fill:#F99352;}
	.st3{fill:none;stroke:#F99352;stroke-width:3.8225;stroke-linecap:round;stroke-linejoin:round;stroke-miterlimit:10;}
	.st4{fill:#69BEA0;}
	.st5{fill:#FFA600;}
	.st6{fill:#FFEC66;}
	.st7{fill:#0948F0;}
	.st8{fill:#FFFFFF;}
	.st9{opacity:0.3;fill:#C3E5D9;enable-background:new    ;}
	.st10{fill:#FD5C00;}
	.st11{fill:#6DA2E2;}
</style>
<path class="st0" d="M66.6,78.6c0-33.3,27.4-60.4,61.2-60.4c33.8,0,61.2,27,61.2,60.4"/>
<path class="st1" d="M254.5,169.4l-31.3-29.9l-25.8,18.7l21.5,23.2h35.6V169.4z"/>
<path class="st2" d="M254.5,171.2v-3.5l-29.7-28.4l-1.5-1.4l-1.7,1.3l-23.8,17.3l-2.3,1.7l1.9,2l19.8,21.4h3.4l-21.4-23l23.8-17.3
	L254.5,171.2z"/>
<path class="st1" d="M222.8,146.9c1.6-4.1,1.8-10.1,1.1-14.7c-0.7-5.1-2.3-16.7-6.1-21.3c-2.9-3.4-13.7-14.9-17.2-16.9
	c-9.5-5.4-30.2,31.2-26.6,41.2c1.4,3.7,11.9,14.8,15.7,18.3c8.4,7.7,10.9,7.2,17.9,5.8"/>
<path class="st3" d="M222.8,146.9c1.6-4.1,1.8-10.1,1.1-14.7c-0.7-5.1-2.3-16.7-6.1-21.3c-2.9-3.4-13.7-14.9-17.2-16.9
	c-9.5-5.4-30.2,31.2-26.6,41.2c1.4,3.7,11.9,14.8,15.7,18.3c8.4,7.7,10.9,7.2,17.9,5.8"/>
<path class="st1" d="M36.4,181.5l21.5-23.2l-25.8-18.7l-31.3,30v12H36.4z"/>
<path class="st2" d="M56.1,158.4l-21.4,23h3.4l19.8-21.4l1.9-2l-2.3-1.7l-23.8-17.3l-1.7-1.3l-1.5,1.4L0.8,167.8v3.5l31.5-30
	L56.1,158.4z"/>
<path class="st1" d="M32.5,146.9c-1.6-4.1-1.8-10.1-1.1-14.7c0.7-5.1,2.3-16.7,6.1-21.3c2.9-3.4,13.7-14.9,17.2-16.9
	c9.5-5.4,30.2,31.2,26.6,41.2c-1.4,3.7-11.9,14.8-15.7,18.3c-8.4,7.7-10.9,7.2-17.9,5.8"/>
<path class="st3" d="M32.5,146.9c-1.6-4.1-1.8-10.1-1.1-14.7c0.7-5.1,2.3-16.7,6.1-21.3c2.9-3.4,13.7-14.9,17.2-16.9
	c9.5-5.4,30.2,31.2,26.6,41.2c-1.4,3.7-11.9,14.8-15.7,18.3c-8.4,7.7-10.9,7.2-17.9,5.8"/>
<path class="st4" d="M63.5,139.8c-1.5,0-2.7-1.1-2.7-2.3c0-1.3,1.2-2.3,2.7-2.3h13.6c1.5,0,2.7,1.1,2.7,2.3c0,1.3-1.2,2.3-2.7,2.3
	H63.5z"/>
<g>
	<path class="st5" d="M143.7,11.7c3,8.7-1.6,18.3-10.4,21.3c-8.7,3-18.3-1.6-21.3-10.4s1.6-18.3,10.4-21.3S140.7,3,143.7,11.7z"/>
	<path class="st6" d="M141.1,12.6c2.5,7.3-1.4,15.3-8.7,17.9c-7.3,2.5-15.3-1.4-17.9-8.7c-2.5-7.3,1.4-15.3,8.7-17.9
		C130.6,1.4,138.6,5.3,141.1,12.6z"/>
	<g>
		<path class="st5" d="M126.7,27.1l0-2.4c-1.1-0.1-2.1-0.3-2.9-0.6c-0.7-0.2-1.1-1-0.9-1.7l0-0.1c0.2-0.8,1.1-1.3,1.8-1
			c0.8,0.3,1.7,0.5,2.7,0.5c1.4,0,2.4-0.5,2.4-1.5c0-0.9-0.8-1.5-2.6-2.2c-2.6-0.9-4.4-2.2-4.4-4.6c0-2.2,1.6-3.8,4.2-4.3l0-2.4
			l2.4,0l0,2.2c0.9,0,1.6,0.2,2.2,0.4c0.7,0.2,1.2,1,1,1.8l0,0c-0.2,0.8-1,1.2-1.8,1c-0.6-0.2-1.3-0.3-2.2-0.4
			c-1.6,0-2.1,0.7-2.2,1.3c0,0.8,0.8,1.3,2.9,2.2c2.9,1.1,4.1,2.5,4,4.7c0,2.2-1.6,4-4.5,4.5l0,2.5L126.7,27.1z"/>
	</g>
</g>
<g>
	<g>
		<g>
			<path class="st7" d="M49.1,143.5h37.2c2.9,0,5.3-2.4,5.3-5.3V58.3c0-2.9-2.4-5.3-5.3-5.3H49.1c-2.9,0-5.3,2.4-5.3,5.3v79.9
				C43.8,141.1,46.2,143.5,49.1,143.5z"/>
			<path class="st8" d="M89.3,128.8V61.8c0-2.8-2.3-5.1-5.1-5.1H51.9c-2.8,0-5.1,2.3-5.1,5.1v66.9c0,2.8,2.3,5.1,5.1,5.1h32.3
				C87.1,133.8,89.3,131.6,89.3,128.8z"/>
		</g>
		<g>
			<path class="st9" d="M80.6,95.9H56.1c-1.1,0-1.9-0.9-1.9-1.9l0,0c0-1.1,0.9-1.9,1.9-1.9h24.4c1.1,0,1.9,0.9,1.9,1.9l0,0
				C82.5,95,81.6,95.9,80.6,95.9z"/>
		</g>
		<path class="st10" d="M83.8,105.2c0-1.5-1.2-2.8-2.8-2.8H54.7c-1.5,0-2.8,1.2-2.8,2.8c0,1.5,1.2,2.8,2.8,2.8h26.4
			C82.6,108,83.8,106.7,83.8,105.2z"/>
	</g>
	<circle class="st11" cx="67.7" cy="139" r="2.8"/>
</g>
<g>
	<g>
		<g>
			<path class="st7" d="M169.1,143.5h37.2c2.9,0,5.3-2.4,5.3-5.3V58.3c0-2.9-2.4-5.3-5.3-5.3h-37.2c-2.9,0-5.3,2.4-5.3,5.3v79.9
				C163.8,141.1,166.2,143.5,169.1,143.5z"/>
			<path class="st8" d="M209.3,128.8V61.8c0-2.8-2.3-5.1-5.1-5.1h-32.3c-2.8,0-5.1,2.3-5.1,5.1v66.9c0,2.8,2.3,5.1,5.1,5.1h32.3
				C207.1,133.8,209.3,131.6,209.3,128.8z"/>
		</g>
		<g>
			<path class="st9" d="M200.6,95.9h-24.4c-1.1,0-1.9-0.9-1.9-1.9l0,0c0-1.1,0.9-1.9,1.9-1.9h24.4c1.1,0,1.9,0.9,1.9,1.9l0,0
				C202.5,95,201.6,95.9,200.6,95.9z"/>
		</g>
		<path class="st10" d="M203.8,105.2c0-1.5-1.2-2.8-2.8-2.8h-26.4c-1.5,0-2.8,1.2-2.8,2.8c0,1.5,1.2,2.8,2.8,2.8h26.4
			C202.6,108,203.8,106.7,203.8,105.2z"/>
	</g>
	<circle class="st11" cx="187.7" cy="139" r="2.8"/>
</g>
<path class="st1" d="M31.7,130.9c-0.2-9,1.8-14.5,4.8-18.1c1.6-1.9,17.1-6.5,19.9-6.7c4.4,0,3.7,4.2,3.7,6.1
	c-0.1,7.6-15.9,10.8-20.2,17.6"/>
<path class="st3" d="M31.7,130.9c-0.2-9,1.8-14.5,4.8-18.1c1.6-1.9,17.1-6.5,19.9-6.7c4.4,0,3.7,4.2,3.7,6.1
	c-0.1,7.6-15.9,10.8-20.2,17.6"/>
<path class="st1" d="M223.7,130.9c0.2-9-1.8-14.5-4.8-18.1c-1.6-1.9-17.1-6.5-19.9-6.7c-4.4,0-3.7,4.2-3.7,6.1
	c0.1,7.6,15.9,10.8,20.2,17.6"/>
<path class="st3" d="M223.7,130.9c0.2-9-1.8-14.5-4.8-18.1c-1.6-1.9-17.1-6.5-19.9-6.7c-4.4,0-3.7,4.2-3.7,6.1
	c0.1,7.6,15.9,10.8,20.2,17.6"/>
<path class="st1" d="M87.2,94.7c-2.1,0-5.7-0.3-6.3-2.4c-0.3-1.1-0.8-5.4,0.5-7.4c0.5-0.8,1.2-1.1,1.7-1.2c1.4-0.2,2.6-0.5,3.6-0.7
	c2-0.4,3.5-0.7,5.1-0.7c0.5,0,1,0,1.5,0.1c0.5,0.1,1.1,0.3,1.6,1.3c0.9,1.7,1.4,5.7-0.2,8.6C93.4,94.6,88.2,94.7,87.2,94.7z"/>
<path class="st2" d="M91.8,83.6c0.4,0,0.9,0,1.4,0.1c1.1,0.1,2,5.1,0.5,8c-0.6,1.1-3.6,1.8-6.4,1.8c-2.5,0-4.8-0.5-5.1-1.6
	c-0.4-1.3-0.7-6.7,1.3-7C87.5,84.3,89.4,83.6,91.8,83.6z M91.8,81.2c-1.7,0-3.3,0.3-5.3,0.7c-1,0.2-2.1,0.4-3.5,0.7
	c-1,0.2-2,0.8-2.6,1.7c-1.6,2.6-1,7.3-0.7,8.4c0.8,2.7,4.5,3.3,7.6,3.3c2.1,0,7.1-0.3,8.6-3.1c1.8-3.3,1.3-7.8,0.2-9.7
	c-0.8-1.5-2-1.9-2.6-1.9C92.8,81.2,92.3,81.2,91.8,81.2z"/>
<path class="st1" d="M86.9,109.9c-2.3,0-6.3-0.4-7-2.6c-0.4-1.2-0.8-5.9,0.5-8.1c0.5-0.9,1.3-1.2,1.8-1.3c1.6-0.2,2.8-0.5,3.9-0.7
	c2.1-0.4,3.8-0.7,5.5-0.7c0.6,0,1.1,0.1,1.7,0.1c0.5,0.1,1.1,0.3,1.7,1.3c1,1.9,1.5,6.2-0.2,9.3C93.6,109.7,88.4,109.9,86.9,109.9z"
	/>
<path class="st2" d="M91.7,97.9c0.5,0,1,0,1.6,0.1c1.2,0.1,2.3,5.6,0.5,8.8c-0.7,1.3-3.9,1.9-6.9,1.9c-2.8,0-5.4-0.5-5.8-1.7
	c-0.4-1.4-0.8-7.3,1.4-7.7C87,98.5,89.2,97.9,91.7,97.9z M91.7,95.3c-1.9,0-3.6,0.3-5.7,0.7c-1.1,0.2-2.4,0.4-3.9,0.7
	c-1.1,0.2-2,0.8-2.6,1.8c-1.7,2.7-1,7.9-0.7,9.1c0.8,2.9,4.9,3.5,8.2,3.5c2.2,0,7.5-0.3,9.1-3.2c1.9-3.5,1.3-8.3,0.2-10.4
	c-0.8-1.6-2-1.9-2.6-2C92.9,95.3,92.3,95.3,91.7,95.3z"/>
<path class="st1" d="M86,121.8c-2.3,0-6.3-0.4-7-2.6c-0.4-1.2-0.8-5.9,0.5-8.1c0.5-0.9,1.3-1.2,1.8-1.3c1.6-0.2,2.8-0.5,3.9-0.7
	c2.1-0.4,3.8-0.7,5.5-0.7c0.6,0,1.1,0.1,1.7,0.1c0.5,0.1,1.1,0.3,1.7,1.3c1,1.9,1.5,6.2-0.2,9.3C92.8,121.6,87.6,121.8,86,121.8z"/>
<path class="st2" d="M90.9,109.7c0.5,0,1,0,1.6,0.1c1.2,0.1,2.3,5.6,0.5,8.8c-0.7,1.3-3.9,1.9-6.9,1.9c-2.8,0-5.4-0.5-5.8-1.7
	c-0.4-1.4-0.8-7.3,1.4-7.7C86.2,110.4,88.4,109.7,90.9,109.7z M90.9,107.2c-1.9,0-3.6,0.3-5.7,0.7c-1.1,0.2-2.4,0.4-3.9,0.7
	c-1.1,0.2-2,0.8-2.6,1.8c-1.7,2.7-1,7.9-0.7,9.1c0.8,2.9,4.9,3.5,8.2,3.5c2.2,0,7.5-0.3,9.1-3.2c1.9-3.5,1.3-8.3,0.2-10.4
	c-0.8-1.6-2-1.9-2.6-2C92.1,107.3,91.5,107.2,90.9,107.2z"/>
<path class="st1" d="M86.6,130.6c-2.9,0-4.6-0.7-5-2c-0.3-1-0.8-4.8,0.3-6.7c0.5-0.8,1.1-1.1,1.6-1.2c1.3-0.2,2.3-0.5,3.2-0.7
	c2-0.5,3.5-0.8,5.2-0.8c0.2,0,0.5,0,0.7,0c0.4,0,1.1,0.2,1.6,1.1c0.9,1.5,1.4,5.1,0.1,7.8C92.9,130.6,86.9,130.6,86.6,130.6z"/>
<path class="st2" d="M91.8,120.4c0.2,0,0.4,0,0.7,0c1,0.1,2,4.4,0.6,7.1c-0.6,1.2-3.8,1.9-6.4,1.9c-1.9,0-3.6-0.4-3.8-1.1
	c-0.4-1.1-0.8-5.9,1-6.3C87.8,121,89.5,120.4,91.8,120.4z M91.8,117.9c-1.9,0-3.4,0.4-5.5,0.9c-0.9,0.2-1.9,0.5-3.2,0.7
	c-1,0.2-1.9,0.8-2.4,1.8c-0.6,1-0.9,2.4-0.8,4.3c0,1.3,0.2,2.6,0.4,3.4c0.6,1.9,2.7,2.9,6.2,2.9c1.2,0,7.2-0.2,8.7-3.2
	c1.4-2.8,1.1-6.9-0.1-9c-0.8-1.4-2-1.7-2.6-1.7C92.4,117.9,92.1,117.9,91.8,117.9z"/>
<path class="st1" d="M168.2,94.7c-1,0-6.3-0.1-7.5-2.4c-1.6-2.9-1.1-6.9-0.2-8.6c0.5-1,1.1-1.2,1.6-1.3c0.5-0.1,1-0.1,1.5-0.1
	c1.6,0,3.1,0.3,5.1,0.7c1,0.2,2.1,0.4,3.6,0.7c0.5,0.1,1.2,0.4,1.7,1.2c1.3,2,0.8,6.3,0.5,7.4C173.9,94.4,170.2,94.7,168.2,94.7z"/>
<path class="st2" d="M163.6,83.6c2.3,0,4.3,0.6,8.5,1.3c1.9,0.3,1.6,5.7,1.3,7c-0.3,1-2.6,1.6-5.1,1.6c-2.8,0-5.7-0.6-6.4-1.8
	c-1.6-3-0.7-7.9,0.5-8C162.7,83.7,163.1,83.6,163.6,83.6z M163.6,81.2c-0.5,0-1.1,0-1.6,0.1c-0.6,0.1-1.8,0.4-2.6,1.9
	c-1.1,2-1.6,6.5,0.2,9.7c0.5,0.9,2.3,3.1,8.6,3.1c3,0,6.7-0.6,7.5-3.3c0.3-1.1,0.9-5.9-0.7-8.4c-0.6-1-1.5-1.6-2.6-1.7
	c-1.4-0.2-2.5-0.5-3.5-0.7C166.9,81.5,165.4,81.2,163.6,81.2z"/>
<path class="st1" d="M168.5,109.9c-1.6,0-6.7-0.2-8-2.6c-1.7-3-1.1-7.5-0.2-9.3c0.5-1,1.2-1.3,1.7-1.3c0.6-0.1,1.1-0.1,1.7-0.1
	c1.7,0,3.3,0.3,5.5,0.7c1.1,0.2,2.4,0.5,3.9,0.7c0.5,0.1,1.3,0.4,1.8,1.3c1.4,2.2,0.9,6.9,0.5,8.1
	C174.8,109.6,170.8,109.9,168.5,109.9z"/>
<path class="st2" d="M163.6,97.9c2.5,0,4.7,0.7,9.3,1.4c2.2,0.4,1.8,6.3,1.4,7.7c-0.4,1.1-3,1.7-5.8,1.7c-3,0-6.3-0.7-6.9-1.9
	c-1.7-3.2-0.7-8.7,0.5-8.8C162.6,97.9,163.1,97.9,163.6,97.9z M163.6,95.3c-0.6,0-1.2,0.1-1.9,0.1c-0.7,0.1-1.8,0.4-2.6,2
	c-1.1,2.1-1.7,7,0.2,10.4c1.6,2.9,6.9,3.2,9.1,3.2c3.3,0,7.3-0.6,8.2-3.5c0.4-1.1,1-6.3-0.7-9.1c-0.7-1-1.6-1.7-2.6-1.8
	c-1.6-0.2-2.8-0.5-3.9-0.7C167.2,95.6,165.5,95.3,163.6,95.3z"/>
<path class="st1" d="M169.3,121.8c-1.6,0-6.7-0.2-8-2.6c-1.7-3-1.1-7.5-0.2-9.3c0.5-1,1.2-1.3,1.7-1.3c0.6-0.1,1.1-0.1,1.7-0.1
	c1.7,0,3.3,0.3,5.5,0.7c1.1,0.2,2.4,0.5,3.9,0.7c0.5,0.1,1.3,0.4,1.8,1.3c1.4,2.2,0.9,6.9,0.5,8.1
	C175.6,121.4,171.6,121.8,169.3,121.8z"/>
<path class="st2" d="M164.5,109.7c2.5,0,4.7,0.7,9.3,1.4c2.2,0.4,1.8,6.3,1.4,7.7c-0.4,1.1-3,1.7-5.8,1.7c-3,0-6.3-0.7-6.9-1.9
	c-1.7-3.2-0.7-8.7,0.5-8.8C163.4,109.8,164,109.7,164.5,109.7z M164.5,107.2c-0.6,0-1.2,0.1-1.9,0.1c-0.7,0.1-1.8,0.4-2.6,2
	c-1.1,2.1-1.7,7,0.2,10.4c1.6,2.9,6.9,3.2,9.1,3.2c3.3,0,7.3-0.6,8.2-3.5c0.4-1.1,1-6.3-0.7-9.1c-0.7-1-1.6-1.7-2.6-1.8
	c-1.6-0.2-2.8-0.5-3.9-0.7C168,107.6,166.4,107.2,164.5,107.2z"/>
<path class="st1" d="M168.8,130.6c-0.2,0-6.3,0-7.6-2.6c-1.3-2.7-0.8-6.3,0.1-7.8c0.5-0.9,1.1-1.1,1.6-1.1c0.2,0,0.5,0,0.7,0
	c1.7,0,3.2,0.4,5.2,0.8c0.9,0.2,1.9,0.5,3.2,0.7c0.5,0.1,1.1,0.4,1.6,1.2c1.1,1.9,0.6,5.7,0.3,6.7
	C173.3,129.9,171.6,130.6,168.8,130.6z"/>
<path class="st2" d="M163.5,120.4c2.3,0,4.1,0.7,8.1,1.6c1.7,0.4,1.3,5.1,1,6.3c-0.2,0.8-1.9,1.1-3.8,1.1c-2.7,0-5.9-0.7-6.4-1.9
	c-1.4-2.7-0.4-7,0.6-7.1C163.1,120.4,163.3,120.4,163.5,120.4z M163.5,117.9c-0.2,0-0.5,0-0.8,0c-0.6,0.1-1.8,0.3-2.6,1.7
	c-1.2,2-1.5,6.1-0.1,9c1.6,3.1,7.5,3.2,8.7,3.2c3.5,0,5.6-1,6.2-2.9c0.2-0.8,0.4-2.1,0.4-3.4c0-1.9-0.2-3.3-0.8-4.3
	c-0.5-1-1.4-1.6-2.4-1.8c-1.3-0.2-2.3-0.5-3.2-0.7C166.9,118.2,165.4,117.9,163.5,117.9z"/>
<g>
	<path class="st5" d="M81.7,58.1c1.9,5.6-1.1,11.8-6.7,13.7c-5.6,1.9-11.8-1.1-13.7-6.7s1.1-11.8,6.7-13.7
		C73.6,49.4,79.8,52.4,81.7,58.1z"/>
	<path class="st6" d="M80.1,58.6c1.6,4.7-0.9,9.9-5.6,11.5c-4.7,1.6-9.9-0.9-11.5-5.6c-1.6-4.7,0.9-9.9,5.6-11.5
		C73.3,51.4,78.5,53.9,80.1,58.6z"/>
	<g>
		<path class="st5" d="M70.7,68l0-1.5c-0.7-0.1-1.3-0.2-1.9-0.4c-0.5-0.2-0.7-0.7-0.6-1.1l0-0.1c0.2-0.5,0.7-0.8,1.2-0.6
			c0.5,0.2,1.1,0.3,1.7,0.3c0.9,0,1.5-0.3,1.5-1c0-0.6-0.5-1-1.7-1.4c-1.7-0.6-2.8-1.4-2.8-3c0-1.4,1-2.5,2.7-2.8l0-1.5l1.6,0l0,1.4
			c0.6,0,1.1,0.1,1.4,0.2c0.5,0.1,0.8,0.6,0.6,1.1l0,0c-0.1,0.5-0.7,0.8-1.2,0.6c-0.4-0.1-0.8-0.2-1.4-0.2c-1,0-1.4,0.4-1.4,0.9
			c0,0.5,0.5,0.9,1.9,1.4c1.9,0.7,2.6,1.6,2.6,3c0,1.4-1,2.6-2.9,2.9l0,1.6L70.7,68z"/>
	</g>
</g>
<g>
	<path class="st5" d="M194.8,58.1c1.9,5.6-1.1,11.8-6.7,13.7c-5.6,1.9-11.8-1.1-13.7-6.7s1.1-11.8,6.7-13.7
		C186.7,49.4,192.9,52.4,194.8,58.1z"/>
	<path class="st6" d="M193.2,58.6c1.6,4.7-0.9,9.9-5.6,11.5c-4.7,1.6-9.9-0.9-11.5-5.6c-1.6-4.7,0.9-9.9,5.6-11.5
		C186.4,51.4,191.6,53.9,193.2,58.6z"/>
	<g>
		<path class="st5" d="M183.8,68l0-1.5c-0.7-0.1-1.3-0.2-1.9-0.4c-0.5-0.2-0.7-0.7-0.6-1.1l0-0.1c0.2-0.5,0.7-0.8,1.2-0.6
			c0.5,0.2,1.1,0.3,1.7,0.3c0.9,0,1.5-0.3,1.5-1c0-0.6-0.5-1-1.7-1.4c-1.7-0.6-2.8-1.4-2.8-3c0-1.4,1-2.5,2.7-2.8l0-1.5l1.6,0l0,1.4
			c0.6,0,1.1,0.1,1.4,0.2c0.5,0.1,0.8,0.6,0.6,1.1l0,0c-0.1,0.5-0.7,0.8-1.2,0.6c-0.4-0.1-0.8-0.2-1.4-0.2c-1,0-1.4,0.4-1.4,0.9
			c0,0.5,0.5,0.9,1.9,1.4c1.9,0.7,2.6,1.6,2.6,3c0,1.4-1,2.6-2.9,2.9l0,1.6L183.8,68z"/>
	</g>
</g>
</svg>
