<svg width="255" height="166" viewBox="0 0 255 166" fill="none" xmlns="http://www.w3.org/2000/svg">
<path d="M66.6406 78.639C66.6406 45.3006 94.0739 18.2871 127.843 18.2871C161.671 18.2871 189.044 45.3006 189.044 78.639" stroke="#20A2A5" stroke-width="3.17244" stroke-miterlimit="10" stroke-linecap="round" stroke-linejoin="round" stroke-dasharray="12.72 12.72"/>
<path d="M254.496 169.433L223.213 139.523L197.422 158.269L218.914 181.492H254.496V169.433Z" fill="#FACBB4"/>
<path d="M254.495 171.164V167.701L224.824 139.344L223.331 137.911L221.659 139.165L197.839 156.418L195.57 158.09L197.481 160.119L217.242 181.492H220.645L199.272 158.448L223.092 141.194L254.495 171.164Z" fill="#F99352"/>
<path d="M222.795 146.926C224.406 142.806 224.586 136.836 223.929 132.18C223.212 127.105 221.601 115.523 217.839 110.926C214.974 107.523 204.108 96.0607 200.646 94.0309C191.153 88.5981 170.437 125.195 174.079 135.224C175.452 138.926 185.959 150.03 189.78 153.552C198.198 161.254 200.646 160.716 207.69 159.343" fill="#FACBB4"/>
<path d="M222.795 146.926C224.406 142.806 224.586 136.836 223.929 132.179C223.212 127.105 221.601 115.523 217.839 110.926C214.974 107.523 204.108 96.0607 200.646 94.0309C191.153 88.5981 170.437 125.195 174.079 135.224C175.452 138.926 185.959 150.03 189.78 153.552C198.198 161.254 200.646 160.716 207.69 159.343" stroke="#F99352" stroke-width="3.82246" stroke-miterlimit="10" stroke-linecap="round" stroke-linejoin="round"/>
<path d="M163.632 142.806C161.304 142.806 159.453 140.955 159.453 138.627V57.912C159.453 55.5837 161.364 53.733 163.632 53.733H206.378C208.706 53.733 210.557 55.5837 210.557 57.912V138.627C210.557 140.955 208.706 142.806 206.378 142.806H163.632Z" fill="#C3E5D9"/>
<path d="M206.377 54.4494C208.288 54.4494 209.84 56.0016 209.84 57.912V138.627C209.84 140.538 208.288 142.09 206.377 142.09H163.632C161.721 142.09 160.169 140.538 160.169 138.627V57.912C160.169 56.0016 161.721 54.4494 163.632 54.4494H206.377ZM206.377 52.9569H163.632C160.945 52.9569 158.736 55.1658 158.736 57.8523V138.567C158.736 141.254 160.945 143.463 163.632 143.463H206.377C209.064 143.463 211.273 141.254 211.273 138.567V57.912C211.333 55.1658 209.124 52.9569 206.377 52.9569Z" fill="#20A2A5"/>
<path d="M205.78 128.418C205.78 129.971 204.467 131.284 202.855 131.284H167.035C165.423 131.284 164.109 130.03 164.109 128.418V62.3299C164.109 60.7777 165.423 59.4643 167.035 59.4643H202.855C204.467 59.4643 205.78 60.718 205.78 62.3299V128.418Z" fill="#F0F8F5"/>
<path d="M178.198 139.821C176.706 139.821 175.512 138.747 175.512 137.493C175.512 136.179 176.706 135.165 178.198 135.165H191.81C193.302 135.165 194.496 136.239 194.496 137.493C194.496 138.806 193.302 139.821 191.81 139.821H178.198Z" fill="#69BEA0"/>
<path d="M191.81 135.881C192.884 135.881 193.78 136.597 193.78 137.493C193.78 138.388 192.884 139.105 191.81 139.105H178.198C177.123 139.105 176.228 138.388 176.228 137.493C176.228 136.597 177.123 135.881 178.198 135.881H191.81ZM191.81 134.388H178.198C176.287 134.388 174.795 135.762 174.795 137.433C174.795 139.105 176.347 140.478 178.198 140.478H191.81C193.72 140.478 195.213 139.105 195.213 137.433C195.213 135.762 193.72 134.388 191.81 134.388Z" fill="#20A2A5"/>
<path d="M166.736 68.7775V124.12" stroke="#20A2A5" stroke-width="2.2228" stroke-miterlimit="10" stroke-linecap="round" stroke-linejoin="round" stroke-dasharray="9.6 9.6"/>
<path d="M223.693 130.866C223.932 121.851 221.902 116.359 218.917 112.777C217.305 110.866 201.843 106.27 198.977 106.031C194.619 106.031 195.275 110.269 195.275 112.18C195.395 119.822 211.216 122.986 215.514 129.792" fill="#FACBB4"/>
<path d="M223.693 130.866C223.932 121.851 221.902 116.359 218.917 112.777C217.305 110.866 201.843 106.27 198.977 106.031C194.619 106.031 195.275 110.269 195.275 112.18C195.395 119.822 211.216 122.986 215.514 129.792" stroke="#F99352" stroke-width="3.82246" stroke-miterlimit="10" stroke-linecap="round" stroke-linejoin="round"/>
<path d="M163.155 94.7473C162.14 94.7473 156.886 94.6279 155.692 92.2996C154.14 89.4339 154.618 85.434 155.513 83.7027C155.991 82.7475 156.648 82.5087 157.125 82.449C157.663 82.3893 158.14 82.3893 158.618 82.3893C160.23 82.3893 161.722 82.6878 163.692 83.046C164.707 83.2251 165.842 83.4639 167.274 83.7027C167.752 83.7624 168.468 84.0609 168.946 84.8967C170.259 86.9265 169.782 91.225 169.483 92.2996C168.886 94.4488 165.245 94.7473 163.155 94.7473Z" fill="#FACBB4"/>
<path d="M158.559 83.643C160.887 83.643 162.857 84.24 167.036 84.9564C168.947 85.2549 168.648 90.6876 168.29 91.9413C167.991 92.9563 165.663 93.4936 163.156 93.4936C160.35 93.4936 157.424 92.8966 156.768 91.7025C155.156 88.7175 156.111 83.8221 157.245 83.7027C157.663 83.7027 158.141 83.643 158.559 83.643ZM158.559 81.1953C158.021 81.1953 157.484 81.1953 156.947 81.255C156.35 81.3147 155.156 81.6729 154.38 83.1654C153.305 85.1355 152.827 89.6727 154.559 92.8966C155.036 93.7921 156.887 96.001 163.156 96.001C166.141 96.001 169.902 95.404 170.678 92.6578C170.976 91.5831 171.573 86.8071 170.021 84.24C169.424 83.2848 168.529 82.6281 167.454 82.5087C166.081 82.2699 164.947 82.0311 163.932 81.852C161.902 81.4938 160.35 81.1953 158.559 81.1953Z" fill="#F99352"/>
<path d="M163.454 109.851C161.902 109.851 156.708 109.672 155.454 107.284C153.783 104.24 154.32 99.8218 155.275 97.9711C155.812 96.9562 156.469 96.6577 156.947 96.6577C157.544 96.598 158.081 96.5383 158.678 96.5383C160.409 96.5383 162.021 96.8368 164.17 97.2547C165.305 97.4935 166.558 97.7323 168.111 97.9711C168.588 98.0308 169.364 98.3293 169.902 99.2248C171.275 101.434 170.797 106.09 170.439 107.284C169.782 109.553 165.782 109.851 163.454 109.851Z" fill="#FACBB4"/>
<path d="M158.617 97.8517C161.124 97.8517 163.333 98.5084 167.87 99.2248C170.02 99.583 169.661 105.493 169.244 106.926C168.885 108.06 166.258 108.657 163.453 108.657C160.408 108.657 157.184 108.001 156.527 106.747C154.796 103.523 155.811 98.0905 157.065 97.9711C157.602 97.8517 158.139 97.8517 158.617 97.8517ZM158.617 95.3443C158.02 95.3443 157.423 95.404 156.766 95.4637C156.109 95.5234 154.975 95.8816 154.139 97.4338C153.005 99.583 152.468 104.419 154.318 107.881C155.871 110.807 161.184 111.105 163.453 111.105C166.736 111.105 170.796 110.508 171.632 107.583C171.99 106.449 172.646 101.255 170.915 98.5084C170.258 97.4935 169.363 96.8368 168.288 96.7174C166.736 96.4786 165.482 96.2398 164.408 96.001C162.199 95.6428 160.527 95.3443 158.617 95.3443Z" fill="#F99352"/>
<path d="M164.29 121.792C162.738 121.792 157.544 121.613 156.29 119.225C154.618 116.18 155.156 111.762 156.111 109.911C156.648 108.896 157.305 108.598 157.783 108.598C158.38 108.538 158.917 108.478 159.514 108.478C161.245 108.478 162.857 108.777 165.006 109.195C166.141 109.434 167.394 109.672 168.947 109.911C169.424 109.971 170.2 110.269 170.738 111.165C172.111 113.374 171.633 118.031 171.275 119.225C170.618 121.433 166.618 121.792 164.29 121.792Z" fill="#FACBB4"/>
<path d="M159.455 109.732C161.962 109.732 164.171 110.389 168.708 111.105C170.858 111.463 170.499 117.374 170.081 118.807C169.723 119.941 167.096 120.538 164.29 120.538C161.246 120.538 158.022 119.881 157.365 118.627C155.634 115.404 156.649 109.971 157.903 109.852C158.44 109.792 158.977 109.732 159.455 109.732ZM159.455 107.225C158.858 107.225 158.261 107.284 157.604 107.344C156.947 107.404 155.813 107.762 154.977 109.314C153.843 111.463 153.306 116.299 155.156 119.762C156.708 122.687 162.022 122.986 164.29 122.986C167.574 122.986 171.634 122.389 172.469 119.463C172.828 118.329 173.484 113.135 171.753 110.389C171.096 109.374 170.201 108.717 169.126 108.598C167.574 108.359 166.32 108.12 165.246 107.881C163.037 107.583 161.365 107.225 159.455 107.225Z" fill="#F99352"/>
<path d="M163.752 130.568C163.513 130.568 157.424 130.568 156.17 128C154.856 125.314 155.334 121.672 156.23 120.18C156.767 119.284 157.364 119.105 157.841 119.045C158.08 119.045 158.319 119.045 158.558 119.045C160.289 119.045 161.782 119.404 163.752 119.881C164.647 120.12 165.662 120.359 166.916 120.598C167.394 120.717 167.991 120.956 168.468 121.792C169.602 123.702 169.065 127.523 168.767 128.478C168.349 129.911 166.617 130.568 163.752 130.568Z" fill="#FACBB4"/>
<path d="M158.497 120.359C160.826 120.359 162.557 121.016 166.617 121.911C168.348 122.269 167.93 127.045 167.572 128.18C167.333 128.956 165.662 129.314 163.751 129.314C161.065 129.314 157.841 128.597 157.303 127.463C155.93 124.777 156.886 120.419 157.9 120.359C158.08 120.359 158.259 120.359 158.497 120.359ZM158.497 117.851C158.259 117.851 157.96 117.851 157.721 117.851C157.124 117.911 155.93 118.15 155.154 119.583C153.96 121.613 153.662 125.732 155.095 128.597C156.647 131.702 162.617 131.821 163.811 131.821C167.333 131.821 169.423 130.866 170.02 128.956C170.258 128.18 170.438 126.866 170.438 125.553C170.438 123.702 170.199 122.269 169.602 121.254C169.064 120.299 168.229 119.642 167.214 119.463C165.96 119.224 164.945 118.926 164.05 118.747C161.9 118.21 160.408 117.851 158.497 117.851Z" fill="#F99352"/>
<path d="M36.4088 181.492L57.901 158.269L32.1104 139.523L0.767578 169.492V181.492H36.4088Z" fill="#FACBB4"/>
<path d="M56.0503 158.448L34.6775 181.492H38.0804L57.901 160.119L59.8114 158.09L57.4831 156.418L33.6626 139.165L31.991 137.911L30.4985 139.344L0.767578 167.761V171.224L32.2298 141.194L56.0503 158.448Z" fill="#F99352"/>
<path d="M32.5302 146.926C30.9182 142.806 30.7391 136.836 31.3958 132.18C32.1123 127.105 33.7242 115.523 37.4853 110.926C40.3509 107.523 51.2164 96.0607 54.6791 94.0309C64.1714 88.5982 84.8875 125.195 81.2458 135.224C79.8727 138.926 69.3057 150.03 65.5446 153.552C57.1268 161.254 54.6791 160.716 47.6344 159.343" fill="#FACBB4"/>
<path d="M32.5302 146.926C30.9182 142.806 30.7391 136.836 31.3958 132.18C32.1123 127.105 33.7242 115.523 37.4853 110.926C40.3509 107.523 51.2164 96.0607 54.6791 94.0309C64.1714 88.5982 84.8875 125.195 81.2458 135.224C79.8727 138.926 69.3057 150.03 65.5446 153.552C57.1268 161.254 54.6791 160.716 47.6344 159.343" stroke="#F99352" stroke-width="3.82246" stroke-miterlimit="10" stroke-linecap="round" stroke-linejoin="round"/>
<path d="M48.9447 142.806C46.6163 142.806 44.7656 140.955 44.7656 138.627V57.912C44.7656 55.5837 46.676 53.733 48.9447 53.733H91.6903C94.0186 53.733 95.8693 55.5837 95.8693 57.912V138.627C95.8693 140.955 94.0186 142.806 91.6903 142.806H48.9447Z" fill="#C3E5D9"/>
<path d="M91.6918 54.4494C93.6022 54.4494 95.1544 56.0016 95.1544 57.912V138.627C95.1544 140.538 93.6022 142.09 91.6918 142.09H48.9462C47.0358 142.09 45.4836 140.538 45.4836 138.627V57.912C45.4836 56.0016 47.0358 54.4494 48.9462 54.4494H91.6918ZM91.6918 52.9569H48.9462C46.2597 52.9569 44.0508 55.1658 44.0508 57.8523V138.567C44.0508 141.254 46.2597 143.463 48.9462 143.463H91.6918C94.3783 143.463 96.5873 141.254 96.5873 138.567V57.912C96.647 55.1658 94.438 52.9569 91.6918 52.9569Z" fill="#20A2A5"/>
<path d="M91.1553 128.418C91.1553 129.971 89.8419 131.284 88.23 131.284H52.4097C50.7978 131.284 49.4844 130.03 49.4844 128.418V62.3299C49.4844 60.7777 50.7978 59.4643 52.4097 59.4643H88.23C89.8419 59.4643 91.1553 60.718 91.1553 62.3299V128.418Z" fill="#F0F8F5"/>
<path d="M63.5146 139.821C62.0221 139.821 60.8281 138.747 60.8281 137.493C60.8281 136.179 62.0221 135.165 63.5146 135.165H77.1264C78.6189 135.165 79.8129 136.239 79.8129 137.493C79.8129 138.806 78.6189 139.821 77.1264 139.821H63.5146Z" fill="#69BEA0"/>
<path d="M77.124 135.881C78.1986 135.881 79.0941 136.597 79.0941 137.493C79.0941 138.388 78.1986 139.105 77.124 139.105H63.5123C62.4377 139.105 61.5422 138.388 61.5422 137.493C61.5422 136.597 62.4377 135.881 63.5123 135.881H77.124ZM77.124 134.388H63.5123C61.6019 134.388 60.1094 135.762 60.1094 137.433C60.1094 139.105 61.6616 140.478 63.5123 140.478H77.124C79.0344 140.478 80.527 139.105 80.527 137.433C80.5867 135.762 79.0344 134.388 77.124 134.388Z" fill="#20A2A5"/>
<path d="M52.0527 68.7775V124.12" stroke="#20A2A5" stroke-width="2.2228" stroke-miterlimit="10" stroke-linecap="round" stroke-linejoin="round" stroke-dasharray="9.6 9.6"/>
<path d="M31.6929 130.866C31.4541 121.851 33.4839 116.359 36.4689 112.777C38.0808 110.866 53.5433 106.269 56.4089 106.031C60.767 106.031 60.1103 110.269 60.1103 112.18C59.9909 119.821 44.1703 122.986 39.8719 129.791" fill="#FACBB4"/>
<path d="M31.6929 130.866C31.4541 121.851 33.4839 116.359 36.4689 112.777C38.0808 110.866 53.5433 106.269 56.4089 106.031C60.767 106.031 60.1103 110.269 60.1103 112.18C59.9909 119.821 44.1703 122.986 39.8719 129.791" stroke="#F99352" stroke-width="3.82246" stroke-miterlimit="10" stroke-linecap="round" stroke-linejoin="round"/>
<path d="M92.2307 94.7472C90.1412 94.7472 86.4994 94.4487 85.9024 92.2995C85.6039 91.2249 85.1263 86.9265 86.4397 84.8966C86.977 84.0608 87.6337 83.7623 88.1114 83.7026C89.4845 83.4638 90.6785 83.225 91.6934 83.0459C93.7232 82.628 95.156 82.3892 96.7679 82.3892C97.2455 82.3892 97.7231 82.3892 98.2604 82.4489C98.738 82.5086 99.335 82.7474 99.8724 83.7026C100.768 85.4339 101.245 89.4339 99.6933 92.2995C98.4395 94.6278 93.2456 94.7472 92.2307 94.7472Z" fill="#FACBB4"/>
<path d="M96.765 83.6429C97.1829 83.6429 97.6606 83.6429 98.1382 83.7026C99.2128 83.822 100.168 88.7772 98.6158 91.7025C98.0188 92.8368 95.0337 93.4935 92.2278 93.4935C89.7204 93.4935 87.3921 93.0159 87.0936 91.9413C86.7354 90.6279 86.3771 85.2549 88.3473 84.9564C92.4666 84.2997 94.4367 83.6429 96.765 83.6429ZM96.765 81.1952C95.0337 81.1952 93.4218 81.4937 91.4517 81.9116C90.4368 82.0907 89.3025 82.3295 87.9294 82.5683C86.9145 82.7474 85.9592 83.3444 85.3622 84.2996C83.7503 86.8668 84.3473 91.6428 84.7055 92.7174C85.4816 95.4637 89.2428 96.0607 92.2875 96.0607C94.377 96.0607 99.3919 95.7622 100.884 92.9562C102.675 89.6727 102.138 85.1952 101.063 83.225C100.287 81.7325 99.0934 81.3743 98.4964 81.3146C97.8397 81.1952 97.3023 81.1952 96.765 81.1952Z" fill="#F99352"/>
<path d="M91.8716 109.852C89.5433 109.852 85.5433 109.493 84.8866 107.225C84.5284 106.031 84.0508 101.374 85.424 99.1651C85.9613 98.2696 86.7374 97.9711 87.215 97.9114C88.7672 97.6726 90.0209 97.4338 91.1552 97.195C93.3044 96.7771 94.9163 96.4786 96.6477 96.4786C97.2447 96.4786 97.782 96.5383 98.379 96.598C98.8566 96.6577 99.5133 96.8965 100.051 97.9114C101.006 99.7621 101.543 104.12 99.8715 107.225C98.6178 109.672 93.4238 109.852 91.8716 109.852Z" fill="#FACBB4"/>
<path d="M96.7076 97.8517C97.2449 97.8517 97.7225 97.8517 98.3195 97.9114C99.5135 98.0308 100.588 103.464 98.8568 106.687C98.2001 107.941 94.9763 108.598 91.9316 108.598C89.1256 108.598 86.4988 108.061 86.1406 106.867C85.7227 105.434 85.3645 99.5233 87.5137 99.1651C91.9913 98.5084 94.2002 97.8517 96.7076 97.8517ZM96.7076 95.3443C94.8569 95.3443 93.1256 95.6428 90.9764 96.0607C89.842 96.2398 88.5883 96.4786 87.0958 96.7771C86.0212 96.9562 85.066 97.6129 84.469 98.5681C82.7377 101.314 83.4541 106.449 83.7526 107.643C84.5884 110.508 88.648 111.165 91.9316 111.165C94.1405 111.165 99.4538 110.866 101.066 107.941C102.976 104.478 102.379 99.6427 101.245 97.4935C100.409 95.9413 99.215 95.5831 98.618 95.5234C97.9016 95.3443 97.3046 95.3443 96.7076 95.3443Z" fill="#F99352"/>
<path d="M91.0357 121.792C88.7073 121.792 84.7074 121.433 84.0507 119.165C83.6925 117.971 83.2149 113.314 84.588 111.105C85.1253 110.21 85.9014 109.911 86.379 109.852C87.9312 109.613 89.185 109.374 90.3193 109.135C92.4685 108.717 94.0804 108.419 95.8117 108.419C96.4087 108.419 96.946 108.478 97.543 108.538C98.0206 108.598 98.6773 108.837 99.2146 109.852C100.17 111.702 100.707 116.06 99.0355 119.165C97.7818 121.613 92.5879 121.792 91.0357 121.792Z" fill="#FACBB4"/>
<path d="M95.8717 109.732C96.409 109.732 96.8866 109.732 97.4836 109.792C98.6776 109.911 99.7522 115.344 98.0209 118.568C97.3642 119.822 94.1404 120.478 91.0956 120.478C88.2897 120.478 85.6629 119.941 85.3047 118.747C84.8868 117.314 84.5286 111.404 86.6778 111.046C91.1553 110.389 93.3642 109.732 95.8717 109.732ZM95.8717 107.225C94.021 107.225 92.2896 107.523 90.1404 107.941C89.0061 108.12 87.7524 108.359 86.2599 108.658C85.1853 108.837 84.2301 109.493 83.6331 110.449C81.9017 113.195 82.6181 118.329 82.9167 119.523C83.7525 122.389 87.8121 123.045 91.0956 123.045C93.3045 123.045 98.6179 122.747 100.23 119.822C102.14 116.359 101.543 111.523 100.409 109.374C99.5731 107.762 98.3791 107.463 97.7821 107.404C97.0657 107.284 96.4687 107.225 95.8717 107.225Z" fill="#F99352"/>
<path d="M91.5741 130.568C88.6487 130.568 86.9771 129.911 86.5592 128.538C86.2607 127.583 85.7831 123.762 86.8577 121.851C87.3353 121.015 87.992 120.717 88.4099 120.657C89.6636 120.418 90.6785 120.12 91.5741 119.941C93.6039 119.463 95.0367 119.105 96.768 119.105C97.0068 119.105 97.2456 119.105 97.4844 119.105C97.9023 119.105 98.559 119.344 99.0366 120.239C99.9321 121.732 100.41 125.374 99.0963 128.06C97.9023 130.568 91.8726 130.568 91.5741 130.568Z" fill="#FACBB4"/>
<path d="M96.8274 120.359C97.0662 120.359 97.2453 120.359 97.4841 120.359C98.499 120.419 99.4542 124.777 98.0811 127.463C97.4841 128.657 94.2602 129.314 91.6334 129.314C89.723 129.314 88.0514 128.956 87.8126 128.18C87.4544 127.045 87.0365 122.269 88.7678 121.911C92.7677 121.016 94.499 120.359 96.8274 120.359ZM96.8274 117.851C94.9169 117.851 93.4244 118.21 91.3349 118.747C90.4394 118.986 89.4245 119.224 88.1708 119.463C87.1559 119.702 86.3201 120.299 85.7828 121.254C85.1857 122.269 84.8873 123.702 84.947 125.553C84.947 126.866 85.1261 128.18 85.3649 128.956C85.9619 130.866 88.0514 131.821 91.5737 131.821C92.7677 131.821 98.7378 131.642 100.29 128.597C101.723 125.792 101.424 121.672 100.23 119.583C99.3945 118.15 98.2602 117.911 97.6632 117.851C97.3647 117.851 97.1259 117.851 96.8274 117.851Z" fill="#F99352"/>
<path d="M58.9902 74.3889H87.0411" stroke="#20A2A5" stroke-width="3.17244" stroke-miterlimit="10" stroke-linecap="round" stroke-linejoin="round"/>
<path d="M173.744 74.3889H201.795" stroke="#20A2A5" stroke-width="3.17244" stroke-miterlimit="10" stroke-linecap="round" stroke-linejoin="round"/>
<g clip-path="url(#clip0)">
<path d="M134.15 32.45C142.395 29.1289 146.463 19.5741 143.237 11.1088C140.011 2.64349 130.712 -1.52668 122.468 1.79445C114.224 5.11558 110.156 14.6704 113.382 23.1357C116.608 31.601 125.906 35.7711 134.15 32.45Z" fill="#EAB726"/>
<path d="M129.132 33.5966C128.903 33.6284 128.672 33.6565 128.44 33.6787C128.362 33.6859 128.283 33.6931 128.205 33.6985C128.027 33.7127 127.85 33.7243 127.671 33.7335C119.176 34.1267 111.798 27.5917 111.014 18.7998C110.265 10.414 115.779 2.91603 123.601 1.1877C124.225 1.04937 124.863 0.948508 125.514 0.88645C125.748 0.863758 125.981 0.847417 126.213 0.835423C126.439 0.823762 126.664 0.817204 126.888 0.815372C127.576 0.80997 128.254 0.850075 128.921 0.9332C129.914 1.0554 130.882 1.27107 131.815 1.57479C134.71 2.51485 137.272 4.28172 139.211 6.62972C141.269 9.11998 142.628 12.2631 142.94 15.765C143.726 24.5815 137.593 32.4167 129.132 33.5966Z" fill="#FFEB4D"/>
<path d="M121.255 31.0119C120.027 30.4611 118.868 29.7291 117.809 28.8248C114.86 26.3067 113.044 22.7593 112.694 18.8356C112.343 14.9119 113.502 11.081 115.956 8.0496C118.41 5.01816 121.865 3.14886 125.686 2.78577C133.573 2.03574 140.577 8.01618 141.299 16.1168C142.021 24.2173 136.194 31.4174 128.307 32.1666C125.857 32.398 123.446 31.9947 121.255 31.0119ZM132.575 4.31055C130.487 3.37398 128.147 2.94985 125.72 3.18011C122.003 3.53344 118.641 5.35232 116.253 8.30165C113.865 11.251 112.738 14.9791 113.079 18.7971C113.419 22.6151 115.187 26.0671 118.056 28.5173C120.925 30.9675 124.554 32.1218 128.271 31.7685C135.945 31.0388 141.616 24.0335 140.913 16.1515C140.432 10.7625 137.092 6.33655 132.575 4.31055Z" fill="#EAB726"/>
<path d="M125.612 9.94728L125.291 24.3293C125.262 25.6109 124.23 26.6247 122.983 26.5968C121.736 26.5689 120.75 25.5101 120.779 24.2285L121.101 9.84645C121.129 8.56488 122.161 7.55109 123.408 7.57897C124.655 7.60684 125.641 8.66571 125.612 9.94728Z" fill="#EAB726"/>
<path d="M127.531 19.2268L125.811 16.2282L125.818 15.888C126.55 15.5482 127.167 15.1504 127.709 14.6956L127.531 19.2268Z" fill="#EAB726"/>
<path d="M127.67 14.7026C129.185 13.4226 130.017 11.6841 130.677 9.38773C130.953 8.42037 131.823 7.76704 132.8 7.78889C134.271 7.82176 135.277 9.31642 134.799 10.7462C133.702 13.9826 132.272 15.5574 130.682 16.7645L134.806 23.5368C135.682 24.9811 134.647 26.8575 132.984 26.8203C132.26 26.8042 131.599 26.4016 131.235 25.7682L127.484 19.2258L127.67 14.7026Z" fill="#EAB726"/>
</g>
<g clip-path="url(#clip1)">
<path d="M75.7522 71.619C81.1711 69.436 83.8451 63.1556 81.7246 57.5914C79.6042 52.0271 73.4924 49.286 68.0735 51.469C62.6546 53.652 59.9807 59.9324 62.1011 65.4967C64.2215 71.0609 70.3333 73.802 75.7522 71.619Z" fill="#EAB726"/>
<path d="M72.4526 72.3727C72.302 72.3936 72.1505 72.412 71.998 72.4266C71.9463 72.4313 71.8946 72.4361 71.8434 72.4396C71.7262 72.449 71.6098 72.4566 71.4927 72.4626C65.9084 72.7211 61.0592 68.4256 60.5435 62.6466C60.0512 57.1346 63.6757 52.2062 68.8173 51.0702C69.2274 50.9792 69.647 50.9129 70.0748 50.8722C70.2282 50.8572 70.3817 50.8465 70.534 50.8386C70.6823 50.8309 70.8305 50.8266 70.978 50.8254C71.4297 50.8219 71.8753 50.8482 72.3142 50.9029C72.9666 50.9832 73.6028 51.125 74.2163 51.3246C76.119 51.9425 77.8028 53.1039 79.0778 54.6472C80.4307 56.2841 81.3236 58.35 81.5287 60.6519C82.0455 66.447 78.0141 71.5971 72.4526 72.3727Z" fill="#FFEB4D"/>
<path d="M67.2735 70.6737C66.4663 70.3117 65.7045 69.8305 65.0087 69.2361C63.0703 67.581 61.8761 65.2492 61.646 62.6702C61.4159 60.0911 62.1775 57.5731 63.7905 55.5805C65.4036 53.5879 67.6747 52.3592 70.1857 52.1206C75.37 51.6276 79.9738 55.5585 80.4486 60.8831C80.9234 66.2076 77.0929 70.9403 71.9089 71.4327C70.2987 71.5848 68.714 71.3197 67.2735 70.6737ZM74.7142 53.1228C73.3416 52.5072 71.8037 52.2284 70.2085 52.3798C67.7651 52.612 65.5551 53.8076 63.9855 55.7462C62.4159 57.6848 61.6752 60.1353 61.8991 62.6449C62.1231 65.1545 63.285 67.4235 65.1709 69.034C67.0568 70.6446 69.4418 71.4033 71.8852 71.171C76.9294 70.6914 80.657 66.0868 80.1945 60.9059C79.8786 57.3637 77.6835 54.4545 74.7142 53.1228Z" fill="#EAB726"/>
<path d="M70.1385 56.8279L69.9272 66.2813C69.9084 67.1236 69.2302 67.79 68.4104 67.7717C67.5906 67.7534 66.9429 67.0574 66.9617 66.215L67.173 56.7616C67.1918 55.9192 67.87 55.2529 68.6898 55.2712C69.5096 55.2895 70.1573 55.9855 70.1385 56.8279Z" fill="#EAB726"/>
<path d="M71.4004 62.9274L70.2698 60.9564L70.2748 60.7328C70.7558 60.5094 71.1616 60.248 71.5176 59.949L71.4004 62.9274Z" fill="#EAB726"/>
<path d="M71.4915 59.9536C72.4875 59.1123 73.0346 57.9695 73.4683 56.4601C73.6496 55.8242 74.2212 55.3948 74.8639 55.4092C75.8304 55.4308 76.492 56.4132 76.1773 57.353C75.4564 59.4804 74.5168 60.5155 73.4713 61.3089L76.1818 65.7603C76.7581 66.7097 76.0774 67.9431 74.9843 67.9186C74.5086 67.908 74.074 67.6434 73.8352 67.227L71.3694 62.9267L71.4915 59.9536Z" fill="#EAB726"/>
</g>
<g clip-path="url(#clip2)">
<path d="M188.856 71.619C194.275 69.436 196.949 63.1556 194.828 57.5914C192.708 52.0271 186.596 49.286 181.177 51.469C175.758 53.652 173.084 59.9324 175.205 65.4967C177.325 71.0609 183.437 73.802 188.856 71.619Z" fill="#EAB726"/>
<path d="M185.556 72.3727C185.406 72.3936 185.254 72.412 185.101 72.4266C185.05 72.4313 184.998 72.4361 184.947 72.4396C184.83 72.449 184.713 72.4566 184.596 72.4626C179.012 72.7211 174.163 68.4256 173.647 62.6466C173.155 57.1346 176.779 52.2062 181.921 51.0702C182.331 50.9792 182.75 50.9129 183.178 50.8722C183.332 50.8572 183.485 50.8465 183.638 50.8386C183.786 50.8309 183.934 50.8266 184.081 50.8254C184.533 50.8219 184.979 50.8482 185.418 50.9029C186.07 50.9832 186.706 51.125 187.32 51.3246C189.222 51.9425 190.906 53.1039 192.181 54.6472C193.534 56.2841 194.427 58.35 194.632 60.6519C195.149 66.447 191.118 71.5971 185.556 72.3727Z" fill="#FFEB4D"/>
<path d="M180.377 70.6737C179.57 70.3117 178.808 69.8305 178.112 69.2361C176.174 67.581 174.98 65.2492 174.75 62.6702C174.519 60.0911 175.281 57.5731 176.894 55.5805C178.507 53.5879 180.778 52.3592 183.289 52.1206C188.474 51.6276 193.077 55.5585 193.552 60.8831C194.027 66.2076 190.196 70.9403 185.012 71.4327C183.402 71.5848 181.817 71.3197 180.377 70.6737ZM187.818 53.1228C186.445 52.5072 184.907 52.2284 183.312 52.3798C180.869 52.612 178.659 53.8076 177.089 55.7462C175.519 57.6848 174.779 60.1353 175.003 62.6449C175.227 65.1545 176.389 67.4235 178.274 69.034C180.16 70.6446 182.545 71.4033 184.989 71.171C190.033 70.6914 193.761 66.0868 193.298 60.9059C192.982 57.3637 190.787 54.4545 187.818 53.1228Z" fill="#EAB726"/>
<path d="M183.242 56.8279L183.031 66.2813C183.012 67.1236 182.334 67.79 181.514 67.7717C180.694 67.7534 180.046 67.0574 180.065 66.215L180.276 56.7616C180.295 55.9192 180.973 55.2529 181.793 55.2712C182.613 55.2895 183.261 55.9855 183.242 56.8279Z" fill="#EAB726"/>
<path d="M184.504 62.9274L183.373 60.9564L183.378 60.7328C183.859 60.5094 184.265 60.248 184.621 59.949L184.504 62.9274Z" fill="#EAB726"/>
<path d="M184.595 59.9536C185.591 59.1123 186.138 57.9695 186.572 56.4601C186.753 55.8242 187.325 55.3948 187.967 55.4092C188.934 55.4308 189.596 56.4132 189.281 57.353C188.56 59.4804 187.62 60.5155 186.575 61.3089L189.285 65.7603C189.862 66.7097 189.181 67.9431 188.088 67.9186C187.612 67.908 187.178 67.6434 186.939 67.227L184.473 62.9267L184.595 59.9536Z" fill="#EAB726"/>
</g>
<defs>
<clipPath id="clip0">
<rect width="33.6163" height="33.6163" fill="white" transform="translate(111.24) rotate(1.28033)"/>
</clipPath>
<clipPath id="clip1">
<rect width="22.0961" height="22.0961" fill="white" transform="translate(60.6934 50.2895) rotate(1.28033)"/>
</clipPath>
<clipPath id="clip2">
<rect width="22.0961" height="22.0961" fill="white" transform="translate(173.797 50.2895) rotate(1.28033)"/>
</clipPath>
</defs>
</svg>
