<svg width="190" height="321" viewBox="0 0 190 321" fill="none" xmlns="http://www.w3.org/2000/svg">
<path d="M169.375 297.391C169.375 297.391 170.195 293.145 160.803 280.123C158.766 277.324 152.566 266.724 152.566 266.724C150.103 266.095 142.504 270.31 140.468 271.568C140.073 271.82 139.83 271.977 139.83 271.977C139.83 271.977 136.577 286.603 143.507 284.967C143.72 284.904 143.933 284.873 144.146 284.841C150.863 283.772 157.307 290.629 160.256 295.001C162.171 297.863 168.098 297.517 169.375 297.391Z" fill="#233862"/>
<path d="M119.677 268.958C119.677 268.958 120.497 264.711 111.105 251.69C109.069 248.891 102.868 238.291 102.868 238.291C100.406 237.662 92.8066 241.877 90.7701 243.135C90.3749 243.386 90.1317 243.544 90.1317 243.544C90.1317 243.544 86.8793 258.169 93.8097 256.534C94.0224 256.471 94.2352 256.439 94.448 256.408C101.166 255.338 107.61 262.195 110.558 266.567C112.473 269.429 118.4 269.052 119.677 268.958Z" fill="#233862"/>
<path d="M13.594 196.49C15.509 187.935 36.9383 161.232 47.9113 167.428C58.8844 173.624 53.2003 207.184 41.7713 246.784C41.5889 247.381 41.4066 247.979 41.2242 248.576C64.2645 244.676 91.7122 243.481 91.7122 243.481L94.5999 257.257C73.8393 263.202 33.5036 283.835 16.5729 292.705C10.0985 295.724 2.49944 295.724 0.949242 289.843C-4.24851 270.153 13.594 196.49 13.594 196.49Z" fill="#0D6C6E"/>
<path d="M54.5074 319.848C54.5074 319.848 103.536 296.951 133.416 287.704C137.124 286.571 140.529 285.628 143.507 284.967L140.377 271.694C140.377 271.694 137.459 271.631 132.686 271.631C114.084 271.694 67.4865 272.763 59.158 282.231C48.6713 294.12 54.5074 319.848 54.5074 319.848Z" fill="#FFD3AA"/>
<path d="M17.4544 6.10573C15.8434 9.94295 14.5668 14.9754 15.661 17.6174C16.9073 20.6369 16.5425 22.8071 16.5425 22.8071L19.187 23.4676L22.3482 24.2539C22.3482 24.2539 22.5306 23.9708 22.7737 23.499C23.0169 23.0273 23.3512 22.3353 23.6856 21.5804C23.6856 21.5804 23.8376 20.1336 25.175 19.4731C26.5125 18.8126 27.9107 17.1456 28.1842 15.5101C28.4274 13.906 30.0384 10.8551 29.5825 10.5406C28.4882 9.75424 26.8164 14.4721 25.8437 14.6923C24.9623 14.881 24.6887 14.252 24.6279 14.1262V14.0947C23.1081 10.2575 25.9349 0.570063 23.6856 0.00391513C22.8345 -0.153348 18.1535 4.47019 17.4544 6.10573Z" fill="#FFD3AA"/>
<path d="M187.095 83.5429C184.36 86.6253 180.439 89.865 177.642 89.8964C174.481 89.9279 172.688 91.1545 172.688 91.1545L171.046 88.9214L169.071 86.2479C169.071 86.2479 169.253 85.9648 169.557 85.5559C169.861 85.1156 172.11 83.1969 172.141 81.6557C172.171 80.1145 173.083 78.1015 174.42 77.2209C175.758 76.3087 177.764 73.5723 178.22 73.8868C179.344 74.6103 175.849 78.0701 176.062 79.0766C176.244 79.9887 176.943 79.9887 177.065 79.9887H177.095C181.107 79.8944 188.524 73.2892 189.922 75.2079C190.439 75.8998 188.251 82.2219 187.095 83.5429Z" fill="#FFD3AA"/>
<path d="M68.4897 202.875C80.5873 206.146 77.5477 221.181 75.7239 262.478C75.5112 267.165 75.0856 271.663 74.5081 275.972C92.2291 272.292 119.464 271.726 132.656 271.694C132.656 271.694 134.845 276.727 134.753 280.753C134.541 289.339 130.316 295.001 130.316 295.001C100.436 304.248 54.477 319.848 54.477 319.848C54.477 319.848 54.477 319.848 54.477 319.817C51.407 320.635 48.5194 319.062 46.2396 314.501C37.0904 296.385 21.4668 175.857 21.4668 175.857C21.3148 167.082 56.392 199.636 68.4897 202.875Z" fill="#0D8284"/>
<path d="M86.6107 113.71C86.6107 113.71 82.3552 102.544 90.623 86.6597L78.8596 89.3646L70.8654 91.1889C70.8654 91.1889 69.5584 94.0197 67.8258 99.241C67.3699 100.625 65.6981 106.129 65.1814 107.859C62.3849 107.985 66.4276 112.388 72.1725 113.238C78.6165 114.213 86.6107 113.71 86.6107 113.71Z" fill="#FFD3AA"/>
<path d="M70.8957 91.189C70.8957 91.189 69.5887 94.0198 67.8561 99.241C74.7256 101.348 86.9449 94.4601 86.9449 94.4601C84.1788 91.8495 81.4432 90.2454 78.8899 89.3647L70.8957 91.189Z" fill="#ED975D"/>
<path d="M65.6069 87.0371C65.6069 87.0371 79.2244 102.606 88.4648 93.7051C97.7053 84.7726 105.699 80.7781 97.4013 70.4616C89.1032 60.1451 83.8446 61.6234 80.0755 63.8251C76.276 66.0267 62.3241 82.7596 65.6069 87.0371Z" fill="#FFD3AA"/>
<path d="M89.2551 92.73C89.2551 92.73 87.8569 91.1259 89.8934 89.05C91.8996 86.9741 94.2097 83.9547 91.9908 83.0426C89.7718 82.1304 88.5256 83.5458 88.4648 82.0675C88.404 80.5893 91.2005 76.9093 86.0331 72.2543C80.8658 67.5993 77.2182 67.7251 75.5768 64.5484C73.9658 61.3717 76.8231 57.3458 76.8231 57.3458C76.8231 57.3458 76.4583 59.3273 77.1878 60.6483C77.1878 60.6483 77.5526 51.3383 85.4556 51.2754C93.3586 51.181 96.2462 57.8805 98.9211 60.3338C104.757 65.7751 108.435 69.3921 107.25 75.2423C106.003 81.0296 96.2766 91.9437 89.2551 92.73Z" fill="#2B478B"/>
<path d="M74.1178 83.7975L69.072 78.8909C69.072 78.8909 67.0051 82.1619 68.4641 83.5773C69.8927 84.9612 74.1178 83.7975 74.1178 83.7975Z" fill="white"/>
<path d="M7.9099 50.9578C10.068 37.1185 16.5728 21.9268 16.5728 21.9268L23.6551 21.5808C23.6551 21.5808 22.8648 40.3267 23.0472 53.4111C23.1384 59.7017 25.7828 65.3946 26.5124 66.4011C28.7009 69.4521 61.1032 101.691 62.1671 102.729L62.1975 102.761C65.6323 103.358 65.2675 109.24 68.7935 110.215C74.6903 111.851 84.5083 108.862 89.7364 110.875C89.7364 110.875 131.774 110.938 138.188 107.762C144.602 104.585 169.526 85.5559 169.526 85.5559L174.147 91.1231C174.147 91.1231 157.034 125.249 143.447 131.383C136.06 134.717 119.829 138.743 106.576 141.731C101.348 142.894 97.1227 146.92 95.5421 152.236C83.0797 193.848 89.3413 228.95 89.3413 228.95C89.3413 228.95 77.3956 230.333 62.5014 226.056C43.1391 220.489 29.0048 211.493 29.0048 211.493C23.5639 204.668 26.7859 179.569 26.7859 179.569C26.7859 179.569 23.0168 183.783 21.7706 190.797C20.8587 195.861 20.3723 198.66 20.0684 200.453C19.7948 202.12 17.9102 202.907 16.5728 201.9C13.7764 199.761 9.79445 196.427 8.54822 193.974C4.20155 185.419 13.8675 150.569 27.2723 126.256C29.6736 121.915 29.5824 116.568 27.0291 112.322C18.7917 98.6718 6.1469 77.0007 5.99492 72.6288C5.90373 70.2698 6.66365 58.9154 7.9099 50.9578Z" fill="#FF912B"/>
</svg>
