<svg width="411" height="380" viewBox="0 0 411 380" fill="none" xmlns="http://www.w3.org/2000/svg">
<path d="M362.572 202.555V236.11C362.572 242.536 367.833 247.791 374.259 247.791H398.315C404.741 247.791 410.002 242.536 410.002 236.11V202.555C410.002 196.129 404.741 190.874 398.315 190.874H374.259C367.833 190.876 362.572 196.132 362.572 202.555Z" fill="#FFBD80"/>
<path d="M362.572 202.555V221.248C362.572 227.671 367.833 232.93 374.259 232.93H398.315C404.741 232.93 410.002 227.671 410.002 221.248V202.555C410.002 196.129 404.741 190.874 398.315 190.874H374.259C367.833 190.876 362.572 196.132 362.572 202.555Z" fill="#FFD3AA"/>
<path d="M96.033 219.333C96.033 236.503 99.5471 252.893 105.892 267.82C124.926 312.601 169.431 344.211 220.964 344.211H256.681C302.278 344.211 342.373 319.466 364.191 282.747C375.249 264.132 381.612 242.442 381.612 219.336C381.612 202.166 378.098 185.778 371.753 170.849C352.722 126.07 308.214 94.4603 256.681 94.4603H220.964C174.102 94.4603 133.049 120.6 111.684 159.01C101.715 176.921 96.033 197.496 96.033 219.333Z" fill="#FFBD80"/>
<path d="M111.682 160.629C108.718 175.033 111.051 195.618 114.84 206.517C140.051 279 199.314 292.085 259.892 297.597C302.967 301.515 364.186 284.363 364.186 284.363C375.244 265.749 381.607 244.058 381.607 220.952C381.607 203.782 378.093 187.395 371.749 172.465C352.717 127.687 308.209 96.0768 256.676 96.0768H220.959C174.1 96.0794 133.047 122.217 111.682 160.629Z" fill="#FFD3AA"/>
<path d="M271.407 125.743H320.544C325.498 125.743 329.515 122.736 329.515 119.027V51.9667C329.515 50.8229 329.154 49.7812 328.533 48.8782C326.132 45.3919 319.816 43.9549 315.116 46.6168C296.459 57.1858 265.895 80.1612 262.457 118.571C262.108 122.45 266.217 125.743 271.407 125.743Z" fill="#FFD3AA"/>
<path d="M318.546 125.744H320.544C325.498 125.744 329.515 122.737 329.515 119.028V51.9678C329.515 50.824 329.154 49.7823 328.533 48.8793C328.324 49.0599 328.117 49.2588 327.926 49.4708C317.253 61.3485 301.868 84.6824 306.202 117.368C306.836 122.119 312.167 125.744 318.546 125.744Z" fill="#FFBD80"/>
<path d="M344.446 170.573C344.446 166.532 341.168 163.255 337.125 163.255C333.082 163.255 329.803 166.532 329.803 170.573C329.803 174.615 333.082 177.892 337.125 177.892C341.168 177.892 344.446 174.615 344.446 170.573Z" fill="#3F2A0B"/>
<path d="M199.822 291.196L211.475 366.83C213.022 372.688 208.602 378.425 202.54 378.425H171.916C165.352 378.425 159.337 374.761 156.331 368.927L108.733 274.028L199.822 291.196Z" fill="#FFBD80"/>
<path d="M269.416 300.024L260.489 367.752C258.943 373.29 263.359 378.714 269.416 378.714H300.014C306.573 378.714 312.583 375.249 315.586 369.734L364.603 283.85L317.7 295.172L269.416 300.024Z" fill="#FFBD80"/>
<path d="M66.2691 254.895C66.9735 254.895 67.6779 254.806 68.377 254.62C73.8079 253.191 76.9135 246.71 76.4867 237.707C76.0677 228.881 72.373 219.56 66.3451 212.137C63.6767 208.852 60.5999 205.979 57.1644 203.544C58.7853 200.872 60.9744 198.31 63.9176 196.103C68.9217 192.35 74.0933 191.269 79.7258 192.797C94.8663 196.907 107.697 218.537 108.737 220.968C109.208 222.269 110.633 222.963 111.952 222.523C113.293 222.076 114.018 220.628 113.571 219.285C113.12 217.937 109.37 211.48 104.141 205.086C95.0234 193.941 87.0813 189.717 82.0249 188.139C74.5228 185.796 67.3951 187.097 60.8461 192.01C57.5965 194.446 54.9098 197.407 52.8254 200.815C47.6302 197.922 41.7778 195.912 35.4121 194.87C34.0138 194.643 32.6992 195.588 32.4714 196.983C32.2436 198.378 33.1889 199.694 34.5846 199.922C40.4266 200.88 45.7789 202.725 50.5054 205.387C49.0548 208.887 48.133 212.747 47.7716 216.909C47.0279 225.478 48.7483 234.835 52.4955 242.575C56.3055 250.461 61.3305 254.892 66.2691 254.895ZM54.8941 208.227C57.6776 210.282 60.1809 212.669 62.37 215.365C67.7224 221.958 71.0034 230.189 71.3727 237.95C71.6659 244.109 69.8984 248.927 67.073 249.671C64.2188 250.419 60.1181 246.587 57.0989 240.347C53.7917 233.513 52.2101 224.918 52.8673 217.351C53.103 214.632 53.6738 211.452 54.8941 208.227ZM108.716 220.906C108.721 220.921 108.726 220.937 108.732 220.95C108.724 220.934 108.721 220.919 108.716 220.906Z" fill="#FFBD80"/>
<path d="M310.945 228.766C310.945 228.766 315.925 235.773 320.492 235.873C325.058 235.969 332.005 232.624 332.005 232.624C332.005 232.624 336.198 223.286 333.353 219.631C333.353 219.631 330.501 218.38 327.519 220.59C327.006 220.971 326.487 221.452 325.974 222.067C325.252 222.936 324.438 223.431 323.578 223.691C320.32 224.682 316.452 222.351 315.007 224.601C314.161 225.909 313.245 226.891 312.487 227.581C311.595 228.374 310.945 228.766 310.945 228.766Z" fill="#79C7C9"/>
<path d="M375.873 279.319C375.873 279.319 358.271 236.684 326.585 235.871C326.585 235.871 297.336 239.119 295.713 279.319H375.873Z" fill="#79C7C9"/>
<path d="M335.266 237.172C335.266 237.172 322.566 239.994 318.647 238.335C318.647 238.335 318.056 233.027 323.404 233.771C327.065 234.281 329.448 232.522 330.853 231.808C332.835 230.801 335.793 234.952 335.266 237.172Z" fill="#1D9294"/>
<path d="M324.215 229.171C325.026 229.781 327.522 220.587 327.522 220.587C327.009 220.969 326.49 221.449 325.977 222.064C325.255 222.934 324.441 223.428 323.581 223.688C323.573 223.957 323.428 228.578 324.215 229.171Z" fill="#D2ECED"/>
<path d="M312.492 227.578C312.669 227.683 318.544 231.2 319.342 231.2C320.153 231.2 315.012 224.598 315.012 224.598C314.166 225.905 313.247 226.888 312.492 227.578Z" fill="#D2ECED"/>
<path d="M358.675 267.405C359 267.126 346.217 248.592 342.698 248.458C339.177 248.323 331.268 252.517 325.542 253.06C319.815 253.602 314.262 251.978 313.18 255.361C312.097 258.744 309.118 270.74 310.945 272.66C312.772 274.577 351.648 273.406 358.675 267.405Z" fill="#E1F2EC"/>
<path d="M294.734 371.465V376.601C294.734 377.011 294.855 377.389 295.059 377.706C295.274 378.039 295.583 378.299 295.946 378.446C296.057 378.492 296.172 378.526 296.293 378.548C296.402 378.568 296.513 378.579 296.626 378.579H374.793C375.8 378.579 376.63 377.743 376.682 376.702C376.682 376.669 376.684 376.635 376.684 376.601V371.465C376.684 371.431 376.684 371.397 376.682 371.363C376.63 370.323 375.8 369.487 374.793 369.487H296.626C296.513 369.487 296.402 369.498 296.293 369.518C296.172 369.54 296.057 369.574 295.946 369.619C295.583 369.766 295.274 370.026 295.059 370.36C294.855 370.676 294.734 371.055 294.734 371.465Z" fill="#FFEB4D"/>
<path d="M333.123 378.579H375C375.898 378.579 376.64 377.743 376.685 376.702C376.685 376.669 376.688 376.635 376.688 376.601V371.465C376.688 371.431 376.688 371.397 376.685 371.363C376.64 370.323 375.898 369.487 375 369.487H338.266C337.678 372.163 336.31 375.866 333.123 378.579Z" fill="#EAB726"/>
<path d="M304.25 378.576H305.139V369.483H304.25V378.576Z" fill="#EAB726"/>
<path d="M307.256 378.576H308.145V369.483H307.256V378.576Z" fill="#EAB726"/>
<path d="M310.863 378.576H311.752V369.483H310.863V378.576Z" fill="#EAB726"/>
<path d="M316.391 378.576H317.281V369.483H316.391V378.576Z" fill="#EAB726"/>
<path d="M322.236 378.576H323.125V369.483H322.236V378.576Z" fill="#EAB726"/>
<path d="M331.197 378.576H332.086V369.483H331.197V378.576Z" fill="#EAB726"/>
<path d="M339.585 378.576H340.474V369.483H339.585V378.576Z" fill="#EAB726"/>
<path d="M347.081 378.576H347.97V369.483H347.081V378.576Z" fill="#EAB726"/>
<path d="M301.385 378.576H302.274V369.483H301.385V378.576Z" fill="#EAB726"/>
<path d="M297.669 378.576H298.558V369.483H297.669V378.576Z" fill="#EAB726"/>
<path d="M295.061 370.358V377.704C295.277 378.037 295.585 378.297 295.948 378.444V369.617C295.588 369.764 295.277 370.024 295.061 370.358Z" fill="#EAB726"/>
<path d="M303.097 362.37V367.506C303.097 367.916 303.217 368.295 303.421 368.611C303.637 368.945 303.945 369.205 304.308 369.352C304.419 369.397 304.535 369.431 304.655 369.454C304.764 369.473 304.875 369.485 304.988 369.485H383.155C384.162 369.485 384.992 368.648 385.045 367.608C385.045 367.574 385.047 367.54 385.047 367.506V362.37C385.047 362.336 385.047 362.303 385.045 362.269C384.992 361.226 384.162 360.392 383.155 360.392H304.988C304.939 360.392 304.889 360.395 304.839 360.398C304.818 360.398 304.796 360.4 304.775 360.403C304.753 360.406 304.728 360.409 304.705 360.414C304.689 360.417 304.671 360.42 304.655 360.423C304.535 360.446 304.419 360.479 304.308 360.525C304.292 360.53 304.276 360.539 304.258 360.544C304.242 360.55 304.226 360.559 304.21 360.567C304.179 360.581 304.147 360.598 304.115 360.615C304.097 360.624 304.079 360.635 304.061 360.646C304.045 360.658 304.029 360.666 304.013 360.674C303.984 360.694 303.954 360.714 303.925 360.734C303.891 360.756 303.859 360.782 303.827 360.81C303.802 360.83 303.777 360.85 303.755 360.872C303.752 360.872 303.752 360.875 303.75 360.878C303.734 360.892 303.718 360.906 303.702 360.923C303.655 360.968 303.609 361.019 303.566 361.07C303.553 361.084 303.539 361.101 303.528 361.115C303.516 361.13 303.503 361.147 303.491 361.163C303.466 361.197 303.444 361.231 303.421 361.265C303.215 361.582 303.097 361.961 303.097 362.37Z" fill="#FFEB4D"/>
<path d="M341.477 369.485H383.353C384.254 369.485 384.993 368.648 385.039 367.608C385.039 367.574 385.041 367.54 385.041 367.506V362.37C385.041 362.336 385.041 362.303 385.039 362.269C384.993 361.226 384.252 360.392 383.353 360.392H346.621C346.605 360.465 346.587 360.542 346.569 360.615C345.956 363.272 344.58 366.845 341.477 369.485Z" fill="#EAB726"/>
<path d="M312.608 369.484H313.497V360.391H312.608V369.484Z" fill="#EAB726"/>
<path d="M315.614 369.484H316.503V360.391H315.614V369.484Z" fill="#EAB726"/>
<path d="M319.218 369.484H320.107V360.391H319.218V369.484Z" fill="#EAB726"/>
<path d="M324.748 369.484H325.637V360.391H324.748V369.484Z" fill="#EAB726"/>
<path d="M330.59 369.484H331.479V360.391H330.59V369.484Z" fill="#EAB726"/>
<path d="M339.555 369.484H340.444V360.391H339.555V369.484Z" fill="#EAB726"/>
<path d="M347.946 369.484H348.835V360.391H347.946V369.484Z" fill="#EAB726"/>
<path d="M355.439 369.484H356.328V360.391H355.439V369.484Z" fill="#EAB726"/>
<path d="M309.743 369.484H310.632V360.391H309.743V369.484Z" fill="#EAB726"/>
<path d="M306.027 369.484H306.916V360.391H306.027V369.484Z" fill="#EAB726"/>
<path d="M303.419 361.267V368.613C303.635 368.947 303.943 369.207 304.306 369.354V360.527C303.943 360.674 303.635 360.934 303.419 361.267Z" fill="#EAB726"/>
<path d="M299.056 353.501V358.637C299.056 359.047 299.176 359.426 299.381 359.742C299.596 360.076 299.905 360.336 300.267 360.483C300.379 360.528 300.494 360.562 300.614 360.585C300.723 360.604 300.834 360.616 300.948 360.616H379.114C379.427 360.616 379.725 360.534 379.986 360.392C380.539 360.09 380.934 359.508 380.997 358.829C380.999 358.801 381.002 358.77 381.004 358.742C381.004 358.708 381.006 358.674 381.006 358.64V353.504C381.006 353.47 381.006 353.436 381.004 353.402C380.952 352.362 380.122 351.526 379.114 351.526H300.948C300.834 351.526 300.723 351.537 300.614 351.557C300.494 351.579 300.379 351.613 300.267 351.658C299.905 351.805 299.596 352.065 299.381 352.399C299.176 352.713 299.056 353.091 299.056 353.501Z" fill="#FFEB4D"/>
<path d="M337.439 360.616H379.316C379.597 360.616 379.86 360.534 380.094 360.392C380.588 360.09 380.94 359.508 380.997 358.829C380.999 358.801 381.001 358.77 381.003 358.742C381.003 358.708 381.006 358.674 381.006 358.64V353.504C381.006 353.47 381.006 353.436 381.003 353.402C380.958 352.362 380.216 351.526 379.318 351.526H342.584C342.012 354.129 340.703 357.704 337.698 360.395C337.612 360.466 337.525 360.542 337.439 360.616Z" fill="#EAB726"/>
<path d="M308.565 360.616H309.454V351.523H308.565V360.616Z" fill="#EAB726"/>
<path d="M311.571 360.616H312.46V351.523H311.571V360.616Z" fill="#EAB726"/>
<path d="M315.181 360.616H316.07V351.523H315.181V360.616Z" fill="#EAB726"/>
<path d="M320.709 360.616H321.599V351.523H320.709V360.616Z" fill="#EAB726"/>
<path d="M326.554 360.616H327.443V351.523H326.554V360.616Z" fill="#EAB726"/>
<path d="M335.514 360.616H336.404V351.523H335.514V360.616Z" fill="#EAB726"/>
<path d="M343.906 360.616H344.795V351.523H343.906V360.616Z" fill="#EAB726"/>
<path d="M351.394 360.616H352.283V351.523H351.394V360.616Z" fill="#EAB726"/>
<path d="M305.703 360.616H306.592V351.523H305.703V360.616Z" fill="#EAB726"/>
<path d="M301.987 360.616H302.876V351.523H301.987V360.616Z" fill="#EAB726"/>
<path d="M299.379 352.402V359.748C299.595 360.082 299.903 360.342 300.266 360.489V351.662C299.906 351.809 299.595 352.069 299.379 352.402Z" fill="#EAB726"/>
<path d="M297.183 344.409V349.545C297.183 349.955 297.303 350.334 297.507 350.65C297.723 350.984 298.031 351.244 298.394 351.391C298.505 351.436 298.621 351.47 298.741 351.493C298.85 351.512 298.961 351.524 299.074 351.524H377.241C378.248 351.524 379.078 350.687 379.13 349.647C379.13 349.613 379.133 349.579 379.133 349.545V344.409C379.133 344.375 379.133 344.342 379.13 344.308C379.083 343.344 378.368 342.558 377.466 342.445C377.393 342.437 377.318 342.431 377.241 342.431H299.074C298.961 342.431 298.85 342.442 298.741 342.462C298.621 342.485 298.505 342.518 298.394 342.564C298.031 342.711 297.723 342.971 297.507 343.304C297.303 343.621 297.183 344 297.183 344.409Z" fill="#FFEB4D"/>
<path d="M335.567 351.524H377.444C378.342 351.524 379.084 350.687 379.129 349.647C379.129 349.613 379.131 349.579 379.131 349.545V344.409C379.131 344.375 379.131 344.342 379.129 344.308C379.088 343.344 378.449 342.558 377.643 342.445C377.578 342.437 377.512 342.431 377.444 342.431H340.709C340.709 342.437 340.707 342.442 340.707 342.445C340.117 345.119 338.752 348.813 335.567 351.524Z" fill="#EAB726"/>
<path d="M306.693 351.521H307.582V342.428H306.693V351.521Z" fill="#EAB726"/>
<path d="M309.699 351.521H310.589V342.428H309.699V351.521Z" fill="#EAB726"/>
<path d="M313.306 351.521H314.196V342.428H313.306V351.521Z" fill="#EAB726"/>
<path d="M318.833 351.521H319.722V342.428H318.833V351.521Z" fill="#EAB726"/>
<path d="M324.678 351.521H325.567V342.428H324.678V351.521Z" fill="#EAB726"/>
<path d="M333.643 351.521H334.532V342.428H333.643V351.521Z" fill="#EAB726"/>
<path d="M342.03 351.521H342.919V342.428H342.03V351.521Z" fill="#EAB726"/>
<path d="M349.522 351.521H350.412V342.428H349.522V351.521Z" fill="#EAB726"/>
<path d="M301.939 351.521H302.829V342.428H301.939V351.521Z" fill="#EAB726"/>
<path d="M298.741 342.461V351.491C298.85 351.511 298.961 351.523 299.075 351.523H299.63V342.43H299.075C298.959 342.427 298.85 342.438 298.741 342.461Z" fill="#EAB726"/>
<path d="M302.932 335.331V340.467C302.932 340.877 303.053 341.256 303.257 341.572C303.472 341.906 303.781 342.166 304.144 342.313C304.255 342.358 304.37 342.392 304.491 342.415C304.527 342.42 304.563 342.429 304.599 342.432C304.62 342.434 304.64 342.437 304.661 342.437C304.681 342.44 304.702 342.44 304.722 342.443C304.756 342.446 304.79 342.446 304.822 342.446H382.988C383.995 342.446 384.826 341.609 384.878 340.569C384.88 340.535 384.88 340.501 384.88 340.467V335.331C384.88 335.297 384.88 335.264 384.878 335.23C384.878 335.201 384.876 335.173 384.873 335.148C384.798 334.311 384.218 333.619 383.456 333.415C383.437 333.409 383.417 333.404 383.399 333.401C383.267 333.37 383.131 333.353 382.991 333.353H304.822C304.765 333.353 304.708 333.356 304.652 333.361C304.627 333.364 304.602 333.367 304.577 333.37C304.547 333.375 304.518 333.381 304.488 333.384C304.368 333.407 304.252 333.44 304.141 333.486C303.778 333.633 303.47 333.893 303.254 334.226C303.05 334.543 302.932 334.922 302.932 335.331Z" fill="#FFEB4D"/>
<path d="M341.315 342.444H383.192C384.09 342.444 384.832 341.608 384.877 340.567C384.88 340.533 384.88 340.5 384.88 340.466V335.33C384.88 335.296 384.88 335.262 384.877 335.228C384.877 335.2 384.875 335.172 384.873 335.146C384.805 334.29 384.265 333.586 383.564 333.402C383.539 333.394 383.516 333.388 383.491 333.385C383.394 333.365 383.294 333.354 383.192 333.354H346.457C346.453 333.377 346.448 333.397 346.444 333.419C345.852 336.087 344.484 339.742 341.333 342.433C341.327 342.433 341.32 342.439 341.315 342.444Z" fill="#EAB726"/>
<path d="M312.442 342.441H313.331V333.348H312.442V342.441Z" fill="#EAB726"/>
<path d="M315.448 342.441H316.337V333.348H315.448V342.441Z" fill="#EAB726"/>
<path d="M319.057 342.441H319.946V333.348H319.057V342.441Z" fill="#EAB726"/>
<path d="M324.585 342.441H325.474V333.348H324.585V342.441Z" fill="#EAB726"/>
<path d="M330.428 342.441H331.317V333.348H330.428V342.441Z" fill="#EAB726"/>
<path d="M339.39 342.441H340.279V333.348H339.39V342.441Z" fill="#EAB726"/>
<path d="M347.778 342.441H348.668V333.348H347.778V342.441Z" fill="#EAB726"/>
<path d="M355.271 342.441H356.16V333.348H355.271V342.441Z" fill="#EAB726"/>
<path d="M307.69 342.441H308.579V333.348H307.69V342.441Z" fill="#EAB726"/>
<path d="M304.488 333.384V342.415C304.597 342.435 304.708 342.446 304.821 342.446H305.377V333.353H304.821C304.708 333.35 304.597 333.362 304.488 333.384Z" fill="#EAB726"/>
<path d="M302.799 326.248V331.711C302.799 332.147 302.919 332.55 303.124 332.886C303.34 333.241 303.65 333.518 304.014 333.674C304.101 333.713 304.192 333.743 304.285 333.764H304.287C304.312 333.77 304.337 333.776 304.362 333.782C304.472 333.803 304.583 333.815 304.697 333.815H383.144C383.226 333.815 383.31 333.809 383.39 333.797C383.422 333.794 383.453 333.788 383.483 333.782C384.337 333.611 384.995 332.802 385.04 331.819C385.04 331.783 385.042 331.747 385.042 331.711V326.248C385.042 326.212 385.042 326.176 385.04 326.14C384.988 325.034 384.155 324.144 383.144 324.144H304.697C304.647 324.144 304.597 324.147 304.547 324.15C304.526 324.153 304.504 324.156 304.483 324.156C304.46 324.159 304.435 324.162 304.413 324.165C304.397 324.168 304.378 324.171 304.362 324.174C304.242 324.198 304.126 324.234 304.014 324.282C303.998 324.288 303.982 324.297 303.964 324.303C303.948 324.309 303.932 324.318 303.916 324.327C303.884 324.342 303.853 324.36 303.821 324.378C303.787 324.399 303.752 324.42 303.718 324.444C303.689 324.466 303.659 324.484 303.629 324.508C303.595 324.532 303.563 324.559 303.532 324.589C303.507 324.61 303.482 324.631 303.459 324.655C303.456 324.655 303.456 324.658 303.454 324.661C303.438 324.676 303.422 324.691 303.406 324.709C303.359 324.757 303.313 324.811 303.27 324.865C303.256 324.88 303.242 324.898 303.231 324.913C303.22 324.932 303.206 324.947 303.195 324.965C303.17 325.001 303.147 325.037 303.124 325.073C302.917 325.41 302.799 325.815 302.799 326.248Z" fill="#FFEB4D"/>
<path d="M341.503 333.815H383.355C383.389 333.815 383.42 333.815 383.454 333.812C383.491 333.809 383.527 333.806 383.563 333.8C384.368 333.677 385 332.841 385.041 331.819C385.041 331.783 385.044 331.747 385.044 331.711V326.248C385.044 326.212 385.044 326.176 385.041 326.14C384.996 325.034 384.255 324.144 383.357 324.144H346.646C346.631 324.222 346.612 324.303 346.594 324.381C345.987 327.183 344.627 330.944 341.58 333.746C341.553 333.77 341.528 333.794 341.503 333.815Z" fill="#EAB726"/>
<path d="M311.971 333.814H312.921V324.321H311.971V333.814Z" fill="#EAB726"/>
<path d="M315.179 333.814H316.128V324.321H315.179V333.814Z" fill="#EAB726"/>
<path d="M319.032 333.814H319.981V324.321H319.032V333.814Z" fill="#EAB726"/>
<path d="M324.937 333.814H325.886V324.321H324.937V333.814Z" fill="#EAB726"/>
<path d="M331.18 333.814H332.129V324.321H331.18V333.814Z" fill="#EAB726"/>
<path d="M340.75 333.814H341.7V324.321H340.75V333.814Z" fill="#EAB726"/>
<path d="M347.942 333.208H348.831V324.32H347.942V333.208Z" fill="#EAB726"/>
<path d="M355.433 333.208H356.322V324.32H355.433V333.208Z" fill="#EAB726"/>
<path d="M306.89 333.814H307.84V324.321H306.89V333.814Z" fill="#EAB726"/>
<path d="M303.476 324.353V333.78C303.593 333.801 303.711 333.813 303.832 333.813H304.426V324.321H303.832C303.711 324.318 303.593 324.329 303.476 324.353Z" fill="#EAB726"/>
<path d="M299.056 317.432V322.568C299.056 322.978 299.176 323.357 299.381 323.673C299.596 324.007 299.905 324.267 300.267 324.414C300.379 324.459 300.494 324.493 300.614 324.516C300.723 324.535 300.834 324.547 300.948 324.547H379.114C379.427 324.547 379.725 324.465 379.986 324.323C380.539 324.021 380.934 323.439 380.997 322.757C380.999 322.729 381.002 322.698 381.004 322.67C381.004 322.636 381.006 322.602 381.006 322.568V317.432C381.006 317.398 381.006 317.364 381.004 317.331C380.952 316.29 380.122 315.454 379.114 315.454H300.948C300.834 315.454 300.723 315.465 300.614 315.485C300.494 315.507 300.379 315.541 300.267 315.587C299.905 315.734 299.596 315.994 299.381 316.327C299.176 316.641 299.056 317.022 299.056 317.432Z" fill="#FFEB4D"/>
<path d="M337.27 324.749H379.703C379.988 324.749 380.255 324.662 380.492 324.512C380.993 324.19 381.349 323.571 381.406 322.846C381.409 322.816 381.411 322.783 381.413 322.753C381.413 322.717 381.416 322.681 381.416 322.645V317.182C381.416 317.146 381.416 317.11 381.413 317.074C381.367 315.968 380.616 315.078 379.706 315.078H342.483C341.904 317.847 340.577 321.65 337.532 324.512C337.445 324.59 337.357 324.668 337.27 324.749Z" fill="#EAB726"/>
<path d="M308.568 324.546H309.457V315.453H308.568V324.546Z" fill="#EAB726"/>
<path d="M311.572 324.546H312.461V315.453H311.572V324.546Z" fill="#EAB726"/>
<path d="M315.181 324.546H316.07V315.453H315.181V324.546Z" fill="#EAB726"/>
<path d="M320.709 324.546H321.598V315.453H320.709V324.546Z" fill="#EAB726"/>
<path d="M326.556 324.546H327.445V315.453H326.556V324.546Z" fill="#EAB726"/>
<path d="M335.516 324.546H336.405V315.453H335.516V324.546Z" fill="#EAB726"/>
<path d="M343.904 324.546H344.793V315.453H343.904V324.546Z" fill="#EAB726"/>
<path d="M351.397 324.546H352.286V315.453H351.397V324.546Z" fill="#EAB726"/>
<path d="M303.815 324.546H304.705V315.453H303.815V324.546Z" fill="#EAB726"/>
<path d="M300.613 315.485V324.516C300.722 324.536 300.833 324.547 300.947 324.547H301.502V315.454H300.947C300.833 315.451 300.722 315.463 300.613 315.485Z" fill="#EAB726"/>
<path d="M293.825 308.537V313.528C293.825 313.926 293.941 314.294 294.14 314.602C294.349 314.926 294.649 315.178 295.002 315.321C295.11 315.365 295.222 315.398 295.339 315.42C295.445 315.439 295.553 315.45 295.663 315.45H371.622C372.601 315.45 373.407 314.637 373.458 313.626C373.458 313.593 373.46 313.561 373.46 313.528V308.537C373.46 308.504 373.46 308.471 373.458 308.438C373.412 307.501 372.72 306.738 371.84 306.628C371.77 306.62 371.697 306.614 371.622 306.614H295.663C295.553 306.614 295.445 306.625 295.339 306.644C295.222 306.666 295.11 306.699 295.002 306.743C294.649 306.886 294.349 307.139 294.14 307.463C293.941 307.771 293.825 308.141 293.825 308.537Z" fill="#FFEB4D"/>
<path d="M331.201 315.707H373.077C373.976 315.707 374.717 314.87 374.763 313.83C374.763 313.796 374.765 313.762 374.765 313.728V308.593C374.765 308.559 374.765 308.525 374.763 308.491C374.722 307.527 374.082 306.741 373.277 306.628C373.211 306.62 373.146 306.614 373.077 306.614H336.343C336.343 306.62 336.341 306.623 336.341 306.628C335.753 309.305 334.385 312.999 331.201 315.707Z" fill="#EAB726"/>
<path d="M302.178 315.452H303.067V306.359H302.178V315.452Z" fill="#EAB726"/>
<path d="M305.184 315.452H306.073V306.359H305.184V315.452Z" fill="#EAB726"/>
<path d="M308.791 315.452H309.68V306.359H308.791V315.452Z" fill="#EAB726"/>
<path d="M314.321 315.452H315.21V306.359H314.321V315.452Z" fill="#EAB726"/>
<path d="M320.164 315.452H321.054V306.359H320.164V315.452Z" fill="#EAB726"/>
<path d="M329.125 315.452H330.014V306.359H329.125V315.452Z" fill="#EAB726"/>
<path d="M337.516 315.452H338.405V306.359H337.516V315.452Z" fill="#EAB726"/>
<path d="M345.007 315.452H345.896V306.359H345.007V315.452Z" fill="#EAB726"/>
<path d="M297.424 315.452H298.313V306.359H297.424V315.452Z" fill="#EAB726"/>
<path d="M294.226 306.389V315.419C294.335 315.439 294.446 315.451 294.559 315.451H295.115V306.358H294.559C294.446 306.358 294.335 306.369 294.226 306.389Z" fill="#EAB726"/>
<path d="M301.836 299.31V304.583C301.836 305.003 301.96 305.392 302.169 305.717C302.391 306.06 302.707 306.327 303.08 306.478C303.194 306.524 303.313 306.559 303.436 306.582C303.474 306.588 303.511 306.597 303.548 306.599C303.578 306.605 303.609 306.605 303.639 306.608C303.653 306.608 303.669 306.611 303.683 306.611C303.713 306.611 303.746 306.614 303.779 306.614H384.031C385.065 306.614 385.917 305.755 385.971 304.687C385.973 304.652 385.973 304.617 385.973 304.583V299.31C385.973 299.275 385.973 299.24 385.971 299.205C385.917 298.137 385.065 297.278 384.031 297.278H303.776C303.741 297.278 303.709 297.278 303.674 297.281C303.592 297.284 303.513 297.296 303.434 297.31C303.311 297.334 303.192 297.368 303.078 297.415C303.02 297.438 302.964 297.464 302.91 297.493C302.875 297.511 302.843 297.528 302.81 297.548C302.808 297.548 302.803 297.551 302.798 297.554C302.766 297.574 302.733 297.595 302.7 297.618C302.693 297.621 302.689 297.627 302.684 297.63C302.654 297.65 302.626 297.673 302.598 297.696C302.53 297.751 302.465 297.809 302.405 297.873C302.386 297.894 302.367 297.914 302.349 297.934C302.346 297.937 302.342 297.94 302.339 297.946C302.328 297.957 302.316 297.969 302.307 297.984C302.305 297.986 302.302 297.989 302.3 297.992C302.281 298.015 302.26 298.042 302.244 298.068C302.216 298.103 302.19 298.14 302.167 298.178C301.958 298.5 301.836 298.892 301.836 299.31Z" fill="#FFEB4D"/>
<path d="M340.733 306.698H384.49C385.428 306.698 386.203 305.824 386.251 304.737C386.253 304.701 386.253 304.666 386.253 304.631V299.264C386.253 299.229 386.253 299.193 386.251 299.158C386.203 298.071 385.428 297.197 384.49 297.197H346.106C346.092 297.268 346.075 297.341 346.056 297.415C345.418 300.189 343.985 303.922 340.749 306.683C340.745 306.689 340.737 306.695 340.733 306.698Z" fill="#EAB726"/>
<path d="M311.966 306.614H312.879V297.281H311.966V306.614Z" fill="#EAB726"/>
<path d="M315.054 306.614H315.967V297.281H315.054V306.614Z" fill="#EAB726"/>
<path d="M318.756 306.614H319.669V297.281H318.756V306.614Z" fill="#EAB726"/>
<path d="M324.429 306.614H325.342V297.281H324.429V306.614Z" fill="#EAB726"/>
<path d="M330.431 306.614H331.344V297.281H330.431V306.614Z" fill="#EAB726"/>
<path d="M339.626 306.614H340.539V297.281H339.626V306.614Z" fill="#EAB726"/>
<path d="M348.238 306.614H349.15V297.281H348.238V306.614Z" fill="#EAB726"/>
<path d="M355.93 306.614H356.843V297.281H355.93V306.614Z" fill="#EAB726"/>
<path d="M307.087 306.614H307.999V297.281H307.087V306.614Z" fill="#EAB726"/>
<path d="M303.802 297.31V306.58C303.914 306.6 304.028 306.612 304.144 306.612H304.715V297.278H304.144C304.028 297.278 303.914 297.29 303.802 297.31Z" fill="#EAB726"/>
<path d="M297.183 290.378V295.514C297.183 295.924 297.303 296.303 297.507 296.619C297.723 296.953 298.031 297.213 298.394 297.36C298.505 297.405 298.621 297.439 298.741 297.462C298.85 297.481 298.961 297.493 299.074 297.493H377.241C377.545 297.493 377.831 297.416 378.085 297.284C378.654 296.984 379.062 296.39 379.124 295.698C379.126 295.672 379.128 295.644 379.128 295.616C379.128 295.582 379.13 295.548 379.13 295.514V290.378C379.13 290.344 379.13 290.31 379.128 290.277C379.081 289.313 378.366 288.527 377.463 288.414C377.391 288.405 377.316 288.4 377.239 288.4H299.072C298.959 288.4 298.848 288.411 298.739 288.431C298.618 288.453 298.503 288.487 298.392 288.533C298.029 288.68 297.72 288.94 297.505 289.273C297.303 289.587 297.183 289.969 297.183 290.378Z" fill="#FFEB4D"/>
<path d="M335.567 297.488H377.444C377.714 297.488 377.97 297.412 378.197 297.279C378.707 296.979 379.068 296.386 379.125 295.693C379.127 295.668 379.129 295.64 379.129 295.611C379.129 295.577 379.131 295.544 379.131 295.51V290.374C379.131 290.34 379.131 290.306 379.129 290.272C379.088 289.308 378.449 288.523 377.643 288.409C377.578 288.401 377.512 288.395 377.444 288.395H340.709C340.709 288.401 340.707 288.407 340.707 288.409C340.133 291.016 338.82 294.591 335.808 297.279C335.73 297.35 335.649 297.42 335.567 297.488Z" fill="#EAB726"/>
<path d="M306.693 297.493H307.582V288.401H306.693V297.493Z" fill="#EAB726"/>
<path d="M309.699 297.493H310.588V288.401H309.699V297.493Z" fill="#EAB726"/>
<path d="M313.306 297.493H314.195V288.401H313.306V297.493Z" fill="#EAB726"/>
<path d="M318.836 297.493H319.725V288.401H318.836V297.493Z" fill="#EAB726"/>
<path d="M324.678 297.493H325.567V288.401H324.678V297.493Z" fill="#EAB726"/>
<path d="M333.643 297.493H334.532V288.401H333.643V297.493Z" fill="#EAB726"/>
<path d="M342.031 297.493H342.92V288.401H342.031V297.493Z" fill="#EAB726"/>
<path d="M349.522 297.493H350.411V288.401H349.522V297.493Z" fill="#EAB726"/>
<path d="M303.831 297.493H304.72V288.401H303.831V297.493Z" fill="#EAB726"/>
<path d="M300.115 297.493H301.004V288.401H300.115V297.493Z" fill="#EAB726"/>
<path d="M297.508 289.275V296.621C297.723 296.955 298.032 297.215 298.395 297.362V288.535C298.032 288.679 297.723 288.942 297.508 289.275Z" fill="#EAB726"/>
<path d="M294.734 281.296V286.432C294.734 286.842 294.855 287.22 295.059 287.537C295.274 287.87 295.583 288.13 295.946 288.277C296.057 288.323 296.172 288.357 296.293 288.379C296.329 288.385 296.365 288.393 296.402 288.396C296.422 288.399 296.442 288.402 296.463 288.402C296.483 288.405 296.504 288.405 296.524 288.407C296.558 288.41 296.592 288.41 296.624 288.41H374.79C375.798 288.41 376.628 287.574 376.68 286.533C376.68 286.5 376.682 286.466 376.682 286.432V281.296C376.682 281.262 376.682 281.228 376.68 281.194C376.628 280.154 375.798 279.317 374.79 279.317H296.624C296.51 279.317 296.399 279.329 296.29 279.348C296.17 279.371 296.055 279.405 295.943 279.45C295.58 279.597 295.272 279.857 295.056 280.191C294.855 280.507 294.734 280.889 294.734 281.296Z" fill="#FFEB4D"/>
<path d="M333.123 288.41H375C375.898 288.41 376.64 287.574 376.685 286.533C376.685 286.5 376.688 286.466 376.688 286.432V281.296C376.688 281.262 376.688 281.228 376.685 281.194C376.64 280.154 375.898 279.317 375 279.317H338.266C337.68 281.991 336.317 285.683 333.139 288.396C333.135 288.402 333.128 288.407 333.123 288.41Z" fill="#EAB726"/>
<path d="M304.25 288.415H305.139V279.322H304.25V288.415Z" fill="#EAB726"/>
<path d="M307.254 288.415H308.143V279.322H307.254V288.415Z" fill="#EAB726"/>
<path d="M310.863 288.415H311.752V279.322H310.863V288.415Z" fill="#EAB726"/>
<path d="M316.39 288.415H317.279V279.322H316.39V288.415Z" fill="#EAB726"/>
<path d="M322.238 288.415H323.127V279.322H322.238V288.415Z" fill="#EAB726"/>
<path d="M331.198 288.415H332.087V279.322H331.198V288.415Z" fill="#EAB726"/>
<path d="M339.586 288.415H340.475V279.322H339.586V288.415Z" fill="#EAB726"/>
<path d="M347.969 279.318H347.08V288.411H347.969V279.318Z" fill="#EAB726"/>
<path d="M299.494 288.415H300.383V279.322H299.494V288.415Z" fill="#EAB726"/>
<path d="M296.296 279.349V288.38C296.405 288.4 296.516 288.411 296.629 288.411H297.185V279.318H296.629C296.516 279.318 296.405 279.33 296.296 279.349Z" fill="#EAB726"/>
<path d="M138.245 175.154C139.739 174.098 143.131 171.778 143.307 172.294C143.434 172.666 143.252 173.299 142.845 173.957C144.898 173.193 146.977 172.69 151.901 173.633C152.886 173.822 153.781 174.383 154.322 175.227C154.825 176.008 155.011 176.985 153.754 177.767C151.24 179.329 151.97 178.393 148.479 180.668C144.987 182.943 140.71 183.521 138.156 181.928L134.726 181.356L134.299 175.719C134.306 175.715 136.262 175.485 138.245 175.154Z" fill="#FFBD80"/>
<path d="M48.4158 127.879C48.4158 127.879 56.4972 137.461 66.7892 133.455C66.7892 133.455 69.0032 128.103 69.0342 124.159C69.0376 123.674 69.0445 123.202 69.0514 122.755C69.1065 118.311 69.2546 115.819 69.2546 115.819C69.2546 115.819 69.2511 115.819 69.2442 115.816C68.776 115.62 53.5119 109.356 53.5257 109.876C53.7874 121.891 48.4158 127.879 48.4158 127.879Z" fill="#FFBD80"/>
<path d="M55.0581 112.74C56.5318 115.466 61.5796 120.804 69.0514 122.752C69.1065 118.309 69.2546 115.817 69.2546 115.817C69.2546 115.817 69.2511 115.817 69.2442 115.814C68.8242 115.7 54.6208 111.938 55.0581 112.74Z" fill="#ED975D"/>
<path d="M72.4545 115.356C72.4545 115.356 55.2862 119.389 52.9379 108.665C50.5896 97.9404 46.7917 91.2394 57.6518 88.2106C68.5119 85.1819 71.5454 88.806 73.2017 92.1962C74.8579 95.5828 76.8585 114.031 72.4545 115.356Z" fill="#FFBD80"/>
<path d="M53.526 111.588C53.2919 111.739 49.5972 112.871 42.6039 98.9427C41.5055 96.7572 40.7583 92.0248 43.3167 87.8465C45.875 83.6682 54.9515 80.3813 62.4923 78.9496C70.0331 77.5212 71.8443 81.7615 73.621 86.0224C75.4838 90.4966 80.8691 94.1793 80.8691 94.1793C74.3647 97.8103 66.5347 92.6167 63.8214 93.4703C61.1081 94.3239 60.1508 98.5985 59.9477 99.9683C59.7445 101.338 59.4312 102.477 56.0189 101.252C52.6066 100.027 54.4763 106.084 55.0238 107.244C55.0169 107.248 55.4818 110.335 53.526 111.588Z" fill="#3F2A0B"/>
<path d="M35.0073 378.141H24.612C22.4324 378.141 20.0118 375.959 19.4057 371.967C18.7997 367.971 14.32 365.792 13.3525 362.526C12.3815 359.256 17.3501 354.654 17.3501 354.654L18.18 353.588L19.0442 352.476L27.2771 354.41C27.2771 354.41 27.4803 356.372 27.6077 358.867C27.6937 360.671 27.7454 362.753 27.6421 364.581C27.401 368.941 28.8645 373.632 32.7347 374.479C36.6084 375.329 35.0073 378.141 35.0073 378.141Z" fill="#1D9294"/>
<path d="M81.664 379.025H54.1108C53.8456 378.973 53.646 378.915 53.5254 378.856C51.6867 377.937 52.2617 370.896 52.4821 368.72C52.5234 368.318 52.5544 368.08 52.5544 368.08C52.5544 368.08 62.2438 360.333 63.5764 366.266C63.6177 366.452 63.6659 366.635 63.7176 366.81V366.814C65.3979 372.362 72.918 374.885 77.26 375.587C80.5828 376.127 81.4436 378.061 81.664 379.025Z" fill="#1D9294"/>
<path d="M76.1111 220.208C76.1111 220.208 74.6408 238.56 72.9088 260.614C70.557 290.578 67.7301 327.384 67.4512 334.357C66.9691 346.465 65.0271 365.832 65.0271 365.832C65.0271 365.832 60.4269 370.434 51.223 368.493C51.223 368.493 43.0176 340.845 40.6762 311.594C40.6383 311.115 40.6039 310.63 40.566 310.148C38.3864 280.37 34.9982 217.665 34.9982 217.665L76.1111 220.208Z" fill="#20A2A5"/>
<path d="M76.1111 220.208C76.1111 220.208 74.6408 238.56 72.9088 260.614L40.6762 311.594C40.6383 311.115 40.6039 310.63 40.566 310.148C38.3864 280.37 34.9982 217.665 34.9982 217.665L76.1111 220.208Z" fill="#1D9294"/>
<path d="M66.9449 216.292C66.9449 216.292 52.0492 277.682 40.6795 311.594C29.3098 345.505 28.8277 361.922 28.8277 361.922C28.8277 361.922 15.9395 359.406 14.545 356.897C14.545 356.897 10.1307 298.818 18.8938 282.218C23.8453 272.84 23.0086 251.105 23.0086 241.203C23.0086 222.858 28.7382 204.641 28.7382 204.641L66.9449 216.292Z" fill="#20A2A5"/>
<path d="M8.9076 210.311L8.62871 214.586C8.62871 214.586 11.4488 222.178 3.54641 226.074C3.54641 226.074 0.165109 227.437 0.0273771 224.808C-0.110354 222.175 0.323479 223.166 0.0480156 219.459C-0.227448 215.753 1.23253 212.252 3.68415 211.072L5.69502 208.752L8.9076 210.311Z" fill="#FFBD80"/>
<path d="M5.82125 213.427C8.75837 214.37 9.22667 214.157 9.22667 214.157C9.22667 214.157 23.5163 188.154 24.9625 185.776C26.4087 183.394 55.2979 156.617 55.2979 156.617L47.8741 128.946C47.8741 128.946 15.0148 171.476 11.4683 177.578C5.60433 187.662 2.16792 211.083 2.16792 211.083C2.16792 211.083 3.51424 212.687 5.82125 213.427Z" fill="#FF912B"/>
<path d="M81.7135 167.478C81.6102 173.161 81.2796 179.549 80.8354 186.036C80.8079 186.422 80.7804 186.807 80.7528 187.189C80.467 191.209 80.1571 195.236 79.8059 199.167C79.6647 200.743 79.5132 202.299 79.3549 203.83L79.3307 204.037C79.317 204.608 79.2481 205.231 79.1861 205.795C77.7365 220.512 76.218 232.135 75.9391 232.314C75.6017 232.538 75.2229 232.651 74.8097 232.603C70.9498 232.118 59.4286 232.996 50.0009 230.944C42.0434 229.265 35.1912 226.085 27.9294 221.796C26.9652 221.228 24.7685 219.717 24.9475 218.592C25.1231 217.353 25.4468 215.563 25.8599 213.312C27.2889 205.486 29.7612 192.022 30.6014 176.262C30.7666 173.326 31.0042 170.428 31.3141 167.578C32.1233 160.154 33.4214 153.102 35.1603 146.838C38.3935 135.202 43.1452 126.288 49.1056 122.801C49.8837 122.364 54.0742 125.031 57.9238 127.499C61.4773 129.778 65.2201 130.407 68.8597 130.087L72.062 133.629C75.9425 138.138 80.0711 144.137 81.2005 152.665C81.2865 153.295 81.3588 153.966 81.4174 154.675C81.7238 158.155 81.7996 162.553 81.7135 167.478Z" fill="#FF912B"/>
<path d="M81.7136 167.48C81.6103 173.162 81.2797 179.55 80.8355 186.038C80.808 186.424 80.7804 186.809 80.7529 187.191C58.6986 173.393 55.3036 148.144 55.3036 148.144C66.1533 148.619 74.7719 151.115 81.414 154.677C81.7239 158.156 81.7996 162.555 81.7136 167.48Z" fill="#FC7600"/>
<path d="M137.431 178.347C137.658 175.078 135.964 174.534 135.964 174.534C135.964 174.534 102.713 168.511 99.8856 167.623C97.0587 166.735 72.8903 141.603 72.8903 141.603C72.8903 141.603 63.6244 131.161 56.0388 133.467C49.4483 135.47 46.8694 140.612 45.9948 145.506C44.948 151.34 47.6406 157.211 52.6954 160.312C64.041 167.268 86.7598 180.977 92.1107 182.543C104.018 186.033 136.009 182.822 136.009 182.822C136.009 182.822 137.252 180.915 137.431 178.347Z" fill="#FF912B"/>
<path d="M198.093 59.0055C187.226 48.1429 187.226 30.5312 198.093 19.6686C208.961 8.806 226.58 8.806 237.448 19.6686C248.315 30.5312 248.315 48.1429 237.448 59.0055C226.58 69.8681 208.961 69.8681 198.093 59.0055Z" fill="#EAB726"/>
<path d="M205.301 64.2622C205.644 64.4705 205.992 64.6739 206.346 64.8694C206.467 64.9351 206.587 65.0007 206.707 65.0632C206.981 65.209 207.255 65.35 207.532 65.4877C220.784 71.9935 236.949 67 244.153 53.9373C251.026 41.4785 247.331 26.0463 236.056 17.9418C235.157 17.2946 234.21 16.6954 233.216 16.1475C232.86 15.9505 232.5 15.7631 232.139 15.5836C231.788 15.409 231.434 15.2424 231.078 15.0838C229.988 14.5984 228.882 14.1899 227.764 13.8551C226.102 13.3552 224.416 13.0172 222.725 12.8394C217.482 12.2851 212.209 13.2415 207.532 15.5292C202.57 17.9546 198.28 21.8763 195.411 27.0796C188.188 40.1792 192.638 56.563 205.301 64.2622Z" fill="#FFEB4D"/>
<path d="M219.588 65.7312C221.915 65.7312 224.255 65.4028 226.552 64.7379C232.95 62.8876 238.244 58.6583 241.459 52.8286C244.674 46.9989 245.426 40.2657 243.574 33.8704C241.723 27.4752 237.492 22.1838 231.66 18.9702C219.619 12.3346 204.423 16.7289 197.786 28.7648C191.149 40.8007 195.544 55.9894 207.585 62.6233C211.326 64.6819 215.435 65.7312 219.588 65.7312ZM219.665 16.5479C223.622 16.5479 227.632 17.5155 231.338 19.5565C237.013 22.6836 241.13 27.8325 242.932 34.0547C244.733 40.2769 244.001 46.8291 240.872 52.5018C237.744 58.1745 232.593 62.2901 226.368 64.0907C220.143 65.8914 213.587 65.1593 207.912 62.0321C196.196 55.576 191.919 40.7975 198.378 29.0868C202.793 21.08 211.105 16.5479 219.665 16.5479Z" fill="#EAB726"/>
<path d="M207.36 43.2173C207.414 43.0795 207.474 42.9481 207.533 42.8168C207.985 41.8251 208.546 41.0209 209.221 40.4057C209.984 39.7121 210.868 39.1898 211.878 38.8438C212.888 38.4961 214.013 38.2847 215.253 38.2094C216.495 38.1325 217.848 38.1165 219.308 38.1565C220.21 38.1838 220.983 38.1677 221.624 38.1101C222.264 38.0524 222.808 37.9338 223.254 37.7544C223.701 37.575 224.063 37.3299 224.342 37.0175C224.621 36.7067 224.85 36.327 225.033 35.8768C225.216 35.4283 225.32 34.9829 225.347 34.5408C225.374 34.1002 225.309 33.6805 225.15 33.2832C224.991 32.8875 224.733 32.5206 224.374 32.1842C224.017 31.8478 223.544 31.5594 222.954 31.3207C221.869 30.8802 220.855 30.8898 219.914 31.3496C218.973 31.8094 218.207 32.769 217.616 34.2252L211.947 31.9247C212.44 30.712 213.059 29.6851 213.803 28.8488C214.545 28.0126 215.383 27.3654 216.316 26.9088C217.247 26.4522 218.262 26.1863 219.361 26.1078C220.459 26.0309 221.6 26.1463 222.783 26.457L224.389 22.5049L227.527 23.7785L225.943 27.6762C227.077 28.2641 228.037 28.9466 228.825 29.7251C229.612 30.5053 230.218 31.348 230.641 32.2547C231.066 33.163 231.287 34.1163 231.308 35.1143C231.329 36.1124 231.13 37.128 230.71 38.1597C230.226 39.35 229.604 40.292 228.841 40.9873C228.078 41.6825 227.195 42.2 226.187 42.5412C225.181 42.8824 224.054 43.0875 222.808 43.1532C221.563 43.2205 220.207 43.2189 218.744 43.1484C217.895 43.1003 217.157 43.1051 216.532 43.1628C215.907 43.2205 215.367 43.3406 214.912 43.5233C214.457 43.7075 214.078 43.9638 213.777 44.2938C213.476 44.6238 213.221 45.0435 213.014 45.5546C212.832 46.0048 212.742 46.4517 212.743 46.8987C212.745 47.3456 212.844 47.7718 213.046 48.1787C213.247 48.5856 213.546 48.9621 213.947 49.3081C214.348 49.6541 214.854 49.9505 215.47 50.202C216.005 50.4199 216.559 50.5625 217.133 50.6346C217.707 50.705 218.266 50.649 218.811 50.4664C219.358 50.2853 219.869 49.9553 220.343 49.4763C220.82 48.9989 221.233 48.3277 221.584 47.4658L227.253 49.7631C226.661 51.2193 225.918 52.3759 225.023 53.2282C224.129 54.0821 223.15 54.6925 222.086 55.0593C221.021 55.4278 219.909 55.588 218.749 55.5399C217.588 55.4935 216.441 55.3044 215.311 54.9728L213.848 58.5789L210.729 57.3133L212.2 53.6896C211.067 53.1033 210.097 52.4256 209.29 51.6582C208.541 50.9485 207.956 50.186 207.533 49.3658C207.499 49.3001 207.466 49.2328 207.434 49.1655C207.006 48.2716 206.778 47.3232 206.751 46.322C206.722 45.3207 206.926 44.2858 207.36 43.2173Z" fill="#EAB726"/>
<path d="M142.389 173.151C141.993 172.94 141.633 172.687 141.313 172.397L141.309 172.393C141.069 172.177 140.852 171.942 140.652 171.685L139.658 170.618L139.869 170.371C137.529 165.097 140.7 154.738 148.296 144.558C157.477 132.253 169.71 124.778 175.916 127.588L176.207 127.242L177.608 128.775C177.68 128.85 177.749 128.924 177.814 129.002L177.853 129.046L177.861 129.057C178.184 129.444 178.461 129.876 178.689 130.356L178.693 130.364C181.183 135.584 178.026 146.051 170.346 156.344C160.999 168.881 148.481 176.404 142.389 173.151Z" fill="#EAB726"/>
<path d="M146.828 142.928C137.474 155.461 134.833 168.265 140.921 171.517C147.013 174.773 159.531 167.247 168.885 154.714C178.239 142.18 180.881 129.377 174.792 126.124C168.7 122.868 156.178 130.39 146.828 142.928Z" fill="#FFEB4D"/>
<path d="M167.271 153.978C163.351 159.083 158.694 163.373 154.158 166.058C149.517 168.806 145.515 169.554 142.893 168.162C141.553 167.453 140.659 166.254 140.233 164.599C138.969 159.703 142.039 151.475 148.059 143.637C151.979 138.532 156.636 134.243 161.171 131.558C165.813 128.809 169.815 128.062 172.437 129.453C173.777 130.162 174.671 131.361 175.097 133.016C175.321 133.879 175.407 134.846 175.368 135.894C175.19 140.804 172.232 147.524 167.271 153.978ZM141.2 164.419C141.554 165.787 142.273 166.771 143.343 167.334C145.599 168.531 149.338 167.766 153.605 165.24C158.04 162.612 162.605 158.402 166.457 153.39C171.259 147.141 174.199 140.473 174.373 135.781C174.408 134.835 174.33 133.966 174.133 133.2C173.78 131.832 173.057 130.851 171.991 130.285C169.735 129.088 165.995 129.854 161.728 132.379C157.294 135.007 152.728 139.217 148.877 144.23C144.075 150.479 141.135 157.146 140.961 161.838C140.925 162.784 141.004 163.653 141.2 164.419Z" fill="#EAB726"/>
<path d="M161.697 142.93C161.762 142.643 161.76 142.39 161.694 142.179C161.629 141.969 161.501 141.804 161.305 141.689C161.11 141.57 160.839 141.514 160.5 141.515C160.204 141.52 159.883 141.573 159.54 141.68C159.198 141.787 158.849 141.974 158.485 142.24C158.126 142.503 157.763 142.857 157.4 143.295C157.038 143.734 156.691 144.279 156.351 144.932L153.201 144.957C153.773 143.852 154.396 142.904 155.068 142.111C155.74 141.318 156.429 140.658 157.133 140.135C157.837 139.611 158.544 139.209 159.251 138.928C159.957 138.646 160.633 138.461 161.278 138.376L162.695 135.642L164.426 135.626L163.001 138.374C163.613 138.451 164.11 138.632 164.496 138.91C164.882 139.191 165.141 139.564 165.277 140.03C165.41 140.495 165.416 141.049 165.288 141.693C165.161 142.334 164.888 143.062 164.469 143.873C164.005 144.764 163.492 145.542 162.921 146.197C162.355 146.853 161.734 147.427 161.065 147.924C160.397 148.421 159.673 148.858 158.901 149.24C158.13 149.622 157.297 149.996 156.407 150.36C155.856 150.585 155.379 150.802 154.979 151.01C154.579 151.218 154.228 151.441 153.927 151.68C153.626 151.914 153.371 152.171 153.153 152.45C152.939 152.725 152.743 153.034 152.565 153.374C152.387 153.715 152.259 154.034 152.179 154.327C152.099 154.621 152.078 154.875 152.12 155.091C152.162 155.307 152.267 155.474 152.44 155.598C152.612 155.722 152.86 155.78 153.187 155.778C153.79 155.773 154.412 155.496 155.055 154.946C155.699 154.395 156.306 153.567 156.878 152.462L160.028 152.436C159.552 153.356 159.025 154.187 158.447 154.93C157.87 155.672 157.265 156.317 156.626 156.864C155.987 157.411 155.328 157.854 154.642 158.199C153.956 158.545 153.275 158.773 152.59 158.892L151.037 161.889L149.294 161.904L150.827 158.949C150.214 158.872 149.725 158.684 149.352 158.389C148.982 158.095 148.731 157.711 148.599 157.235C148.471 156.759 148.468 156.199 148.6 155.558C148.731 154.913 149 154.204 149.406 153.421C149.874 152.519 150.392 151.738 150.958 151.086C151.524 150.434 152.142 149.856 152.81 149.367C153.478 148.877 154.198 148.439 154.973 148.065C155.749 147.687 156.577 147.324 157.467 146.978C157.982 146.779 158.435 146.579 158.827 146.374C159.22 146.169 159.57 145.945 159.875 145.704C160.18 145.462 160.452 145.195 160.682 144.9C160.916 144.604 161.132 144.264 161.331 143.877C161.513 143.534 161.633 143.222 161.697 142.93Z" fill="#EAB726"/>
</svg>
