<?xml version="1.0" encoding="utf-8"?>
<!-- Generator: Adobe Illustrator 24.0.1, SVG Export Plug-In . SVG Version: 6.00 Build 0)  -->
<svg version="1.1" id="Capa_1" xmlns="http://www.w3.org/2000/svg" xmlns:xlink="http://www.w3.org/1999/xlink" x="0px" y="0px"
	 viewBox="0 0 734.9 679.5" style="enable-background:new 0 0 734.9 679.5;" xml:space="preserve">
<style type="text/css">
	.st0{opacity:0.4;fill:#C3E5D9;enable-background:new    ;}
	.st1{fill:#00B7FF;}
	.st2{fill:#0948F0;}
	.st3{fill:#7FB2FF;}
	.st4{fill:#FFA600;}
	.st5{fill:#FFFFFF;}
	.st6{fill:#FFEC66;}
	.st7{fill:#DD4A00;}
	.st8{fill:#FD5C00;}
	.st9{fill:#002B9C;}
	.st10{fill:#FFC5E6;}
	.st11{fill:#FD89C6;}
	.st12{fill:#3482FF;}
</style>
<path class="st0" d="M96.5,267.2C214.5,198.1,265.1,98.8,322,65.5C378.9,32.2,514.5-10,644.5,211.9
	c129.9,221.9-11.7,348.5-74.2,385.1C277.4,768.5-112.5,389.6,96.5,267.2z"/>
<g>
	<path class="st1" d="M278.1,430.5h-86.9c-6.1,0-11.7,4.4-11.7,7.5v188.6c0,3.1,5.6,6.1,11.7,6.1h86.9c6.1,0,13.1-3,13.1-6.1V438
		C291.2,434.9,284.1,430.5,278.1,430.5z"/>
	<path class="st2" d="M165.2,499.6c0-1.6-5.5-3.2-11.6-3.2H67.8c-6.1,0-11.5,1.6-11.5,3.2v130c0,1.6,5.4,3.1,11.5,3.1h85.9
		c6.1,0,11.6-1.5,11.6-3.1V499.6z"/>
	<path class="st2" d="M659.4,191.1c0-3.9-6.5-6.9-12.6-6.9h-87c-6.1,0-10.8,3-10.8,6.9v433.4c0,3.9,4.7,8.2,10.8,8.2h87
		c6.1,0,12.6-4.3,12.6-8.2V191.1z"/>
	<path class="st3" d="M413.3,353.2c0-2.9-5.3-5.5-11.3-5.5h-85.9c-6.1,0-10.4,2.7-10.4,5.5v274c0,2.9,4.3,5.5,10.4,5.5H402
		c6.1,0,11.3-2.7,11.3-5.5V353.2z"/>
	<path class="st1" d="M535.6,268.6c0-3.2-4.8-5.4-10.9-5.4h-85.9c-6.1,0-10.8,2.2-10.8,5.4v358.5c0,3.2,4.7,5.6,10.8,5.6h85.9
		c6.1,0,10.9-2.3,10.9-5.6V268.6z"/>
	<path class="st2" d="M528.5,186.2L598,83.8c2-3,6.2-3,8.3-0.1L678,186.1c2.5,3.5,0.1,8.5-4.1,8.5H532.7
		C528.5,194.6,526.1,189.7,528.5,186.2z"/>
</g>
<g>
	<g>
		
			<ellipse transform="matrix(0.3827 -0.9239 0.9239 0.3827 -11.0044 821.4739)" class="st4" cx="609.2" cy="419" rx="68.9" ry="68.9"/>
		
			<ellipse transform="matrix(0.5257 -0.8507 0.8507 0.5257 -67.4697 716.9291)" class="st5" cx="609.2" cy="419" rx="66.6" ry="66.6"/>
		<path class="st5" d="M554.3,392.8c-0.2,0-0.5-0.1-0.7-0.2c-0.8-0.4-1.1-1.3-0.7-2.1c10.8-21.4,32.4-34.7,56.3-34.7
			c3.8,0,7.6,0.3,11.4,1c0.8,0.2,1.4,0.9,1.2,1.8c-0.2,0.8-0.9,1.4-1.8,1.2c-3.5-0.6-7.2-1-10.8-1c-22.8,0-43.3,12.6-53.6,33
			C555.4,392.5,554.9,392.8,554.3,392.8z"/>
		
			<ellipse transform="matrix(0.9697 -0.2445 0.2445 0.9697 -84.2508 162.0436)" class="st6" cx="610.7" cy="420.4" rx="56.4" ry="56.4"/>
		<g>
			<path class="st4" d="M605.1,462.3v-6.1c-6.4-0.3-12.7-1.8-17.2-3.7c-1.6-0.7-2.4-2.5-2-4.2l1.6-5.7c0.6-2.1,2.9-3.2,4.9-2.3
				c4.5,1.9,10,3.3,15.9,3.3c6.2,0,10.7-2.1,10.7-6.4c0-3.9-3.5-6.2-12.1-8.5c-12.2-3.3-21-8.7-21-19.4c0-9.7,7.1-17.1,19.4-19.1
				v-6.1c0-2,1.6-3.6,3.6-3.6h3.6c2,0,3.6,1.6,3.6,3.6v5.5c5.9,0.2,10.2,1.2,13.6,2.4c1.8,0.6,2.7,2.5,2.2,4.3l-1.4,5.3
				c-0.6,2-2.7,3.2-4.7,2.4c-3.1-1.2-7.6-2.4-13.4-2.4c-7.3,0-9.4,3-9.4,5.7c0,3.3,4.4,5.6,13.9,8.6c13.6,4.1,19.2,9.7,19.2,19.8
				c0,9.3-6.9,17.6-20.2,19.7v6.9c0,2-1.6,3.6-3.6,3.6h-3.6C606.7,465.9,605.1,464.3,605.1,462.3z"/>
		</g>
	</g>
	<path class="st4" d="M663.8,532.9H554.6c-7.1,0-12.9-5.8-12.9-12.9v0c0-7.1,5.8-12.9,12.9-12.9h109.3c7.1,0,12.9,5.8,12.9,12.9v0
		C676.7,527.2,670.9,532.9,663.8,532.9z"/>
	<path class="st6" d="M664,562H554.7c-7.1,0-12.9-5.8-12.9-12.9v0c0-7.1,5.8-12.9,12.9-12.9H664c7.1,0,12.9,5.8,12.9,12.9v0
		C676.8,556.2,671.1,562,664,562z"/>
	<path class="st4" d="M664.1,591H554.8c-7.1,0-12.9-5.8-12.9-12.9v0c0-7.1,5.8-12.9,12.9-12.9h109.3c7.1,0,12.9,5.8,12.9,12.9v0
		C676.9,585.2,671.2,591,664.1,591z"/>
	<path class="st6" d="M664.2,619.3H554.9c-7.1,0-12.9-5.8-12.9-12.9v0c0-7.1,5.8-12.9,12.9-12.9h109.3c7.1,0,12.9,5.8,12.9,12.9v0
		C677,613.5,671.3,619.3,664.2,619.3z"/>
	<path class="st4" d="M664.3,647.6H555c-7.1,0-12.9-5.8-12.9-12.9v0c0-7.1,5.8-12.9,12.9-12.9h109.3c7.1,0,12.9,5.8,12.9,12.9v0
		C677.1,641.8,671.4,647.6,664.3,647.6z"/>
</g>
<g>
	<g>
		
			<ellipse transform="matrix(0.3667 -0.9303 0.9303 0.3667 -124.9887 715.3934)" class="st4" cx="463" cy="449.5" rx="68.9" ry="68.9"/>
		
			<ellipse transform="matrix(0.5019 -0.8649 0.8649 0.5019 -158.1837 624.3191)" class="st5" cx="463" cy="449.5" rx="66.6" ry="66.6"/>
		<path class="st5" d="M408.1,423.4c-0.2,0-0.5-0.1-0.7-0.2c-0.8-0.4-1.1-1.3-0.7-2.1c10.8-21.4,32.4-34.7,56.3-34.7
			c3.8,0,7.6,0.3,11.4,1c0.8,0.2,1.4,0.9,1.2,1.8c-0.2,0.8-0.9,1.4-1.8,1.2c-3.5-0.6-7.2-1-10.8-1c-22.8,0-43.3,12.6-53.6,33
			C409.2,423.1,408.6,423.4,408.1,423.4z"/>
		
			<ellipse transform="matrix(0.9951 -9.853732e-02 9.853732e-02 0.9951 -42.1756 47.9582)" class="st6" cx="464.4" cy="451" rx="56.4" ry="56.4"/>
		<g>
			<path class="st4" d="M458.9,492.9v-6.1c-6.4-0.3-12.7-1.8-17.2-3.7c-1.6-0.7-2.4-2.5-2-4.2l1.6-5.7c0.6-2.1,2.9-3.2,4.9-2.3
				c4.5,1.9,10,3.3,15.9,3.3c6.2,0,10.7-2.1,10.7-6.4c0-3.9-3.5-6.2-12.1-8.5c-12.2-3.3-21-8.7-21-19.4c0-9.7,7.1-17.1,19.4-19.1
				v-6.1c0-2,1.6-3.6,3.6-3.6h3.6c2,0,3.6,1.6,3.6,3.6v5.5c5.9,0.2,10.2,1.2,13.6,2.4c1.8,0.6,2.7,2.5,2.2,4.3l-1.4,5.3
				c-0.6,2-2.7,3.2-4.7,2.4c-3.1-1.2-7.6-2.4-13.4-2.4c-7.3,0-9.4,3-9.4,5.7c0,3.3,4.4,5.6,13.9,8.6c13.6,4.1,19.2,9.7,19.2,19.8
				c0,9.3-6.9,17.6-20.2,19.7v6.9c0,2-1.6,3.6-3.6,3.6h-3.6C460.5,496.4,458.9,494.8,458.9,492.9z"/>
		</g>
	</g>
	<path class="st6" d="M517.6,560.5H408.3c-7.1,0-12.9-5.8-12.9-12.9l0,0c0-7.1,5.8-12.9,12.9-12.9h109.3c7.1,0,12.9,5.8,12.9,12.9
		l0,0C530.5,554.7,524.7,560.5,517.6,560.5z"/>
	<path class="st4" d="M517.7,589.5H408.4c-7.1,0-12.9-5.8-12.9-12.9v0c0-7.1,5.8-12.9,12.9-12.9h109.3c7.1,0,12.9,5.8,12.9,12.9v0
		C530.6,583.7,524.8,589.5,517.7,589.5z"/>
	<path class="st6" d="M517.8,618.5H408.6c-7.1,0-12.9-5.8-12.9-12.9v0c0-7.1,5.8-12.9,12.9-12.9h109.3c7.1,0,12.9,5.8,12.9,12.9v0
		C530.7,612.8,524.9,618.5,517.8,618.5z"/>
	<path class="st4" d="M517.9,647.6H408.7c-7.1,0-12.9-5.8-12.9-12.9v0c0-7.1,5.8-12.9,12.9-12.9h109.3c7.1,0,12.9,5.8,12.9,12.9v0
		C530.8,641.8,525,647.6,517.9,647.6z"/>
</g>
<g>
	<path class="st7" d="M360.2,206.3c0,0,4.4,26.6-14.7,31.9c-19.2,5.4-39.8,6-44.5,14.1c0,0,1.4-52.7,53.7-53.8L360.2,206.3z"/>
	<path class="st1" d="M416.6,200.1c0,0,13.2,22.9,8.5,30.5c-4.5,7.3-55.4,38.8-60.3,41.9c-0.2,0.1-0.5,0.1-0.7-0.1l0,0
		c-1.3-1.7-1.6-4-1-6.1c3.2-10,12.9-39.7,18.7-47.7C388.9,208.9,416.6,200.1,416.6,200.1z"/>
	<path class="st5" d="M380.9,258.3c0.2,0,0.3,0,0.5-0.1c0.3-0.2,27.9-17.9,39.4-26.1c2.1-1.4,3.1-4,2.6-6.4
		c-0.8-3.9-2.5-11.4-5.5-18.4c-0.1-0.3-0.5-0.4-0.8-0.3c-0.3,0.1-0.4,0.5-0.3,0.8c3,6.9,4.7,14.3,5.5,18.1c0.4,2-0.4,4-2.1,5.2
		c-11.6,8.1-39.1,25.8-39.4,26c-0.3,0.2-0.4,0.6-0.2,0.8C380.6,258.1,380.8,258.2,380.9,258.3z"/>
	<path class="st1" d="M380.3,150.5c0,0-17.9-19.5-26.5-17.3c-8.3,2.1-53.7,41.1-58.2,44.9c-0.2,0.2-0.2,0.5-0.1,0.7l0,0
		c1.3,1.7,3.3,2.8,5.5,2.8c10.5,0,41.7-0.3,51.1-3.4C363.5,174.3,380.3,150.5,380.3,150.5z"/>
	<path class="st5" d="M314.5,167.5c0.2,0,0.4,0,0.5-0.1c0.3-0.2,25.5-21.1,36.7-29.7c1.6-1.2,3.8-1.4,5.6-0.4
		c3.4,1.9,10,5.8,15.6,10.7c0.3,0.2,0.6,0.2,0.9-0.1c0.2-0.3,0.2-0.6-0.1-0.9c-5.4-4.7-11.6-8.5-15.9-10.8c-2.2-1.2-4.9-1-6.9,0.5
		c-11.2,8.6-36.5,29.5-36.8,29.7c-0.3,0.2-0.3,0.6-0.1,0.9C314.3,167.4,314.4,167.5,314.5,167.5z"/>
	<path class="st8" d="M488.1,147.3c-7.5,10.4-17.3,21-30,30.4c-39.4,29-73.4,43.5-83.1,47.4c-1.8,0.7-3.8,0.4-5.2-0.9
		c-11.5-9.6-20.2-21.3-26-35c-1.1-2.6-0.6-5.6,1.2-7.7c7.8-9.4,31.5-36.2,69.4-63.8c12.6-9.2,25.6-15.3,37.7-19.3
		C471.7,113.9,482.6,135,488.1,147.3z"/>
	<path class="st4" d="M451.9,98.4c26.8-8.8,49.8-7.5,57.5-6.6c1.5,0.2,2.5,1.6,2.2,3c-1.5,7.5-7.1,29.7-23.5,52.5
		C482.6,135,471.7,113.9,451.9,98.4z"/>
	<g>
		<path class="st1" d="M424.3,125.9c-10.2,7.5-12,22.4-4,33.4c8,11,22.8,13.8,33.1,6.3c10.2-7.5,12-22.4,4-33.4
			S434.5,118.5,424.3,125.9z"/>
		<path class="st9" d="M427.3,129c-8.1,6-9.6,17.9-3.2,26.6c6.4,8.7,18.2,11,26.3,5c8.1-6,9.6-17.9,3.2-26.6
			C447.3,125.3,435.5,123.1,427.3,129z"/>
		<path class="st5" d="M449.8,154c0.2,0.1,0.5,0,0.6-0.2c3.9-5.2,3.8-12.7-0.2-18.1c-1-1.4-2.2-2.6-3.6-3.6
			c-0.3-0.2-0.7-0.1-0.8,0.1c-0.2,0.3-0.1,0.7,0.1,0.8c1.3,0.9,2.4,2,3.3,3.3c3.7,5,3.8,11.9,0.2,16.7c-0.2,0.3-0.1,0.7,0.1,0.9
			C449.6,153.9,449.7,153.9,449.8,154z"/>
	</g>
	<g>
		<path class="st1" d="M392,159.9c-6.8,4.9-7.9,14.8-2.6,22.1c5.3,7.3,15.1,9.1,21.8,4.2c6.8-4.9,7.9-14.8,2.6-22.1
			C408.5,156.8,398.7,155,392,159.9z"/>
		<path class="st9" d="M394,162c-5.4,3.9-6.3,11.8-2.1,17.6c4.2,5.8,12,7.3,17.4,3.3c5.4-3.9,6.3-11.8,2.1-17.6
			C407.2,159.5,399.4,158,394,162z"/>
		<path class="st5" d="M408.8,178.6c0.2,0.1,0.5,0,0.6-0.2c2.6-3.5,2.6-8.5-0.1-12.2c-0.7-0.9-1.5-1.7-2.4-2.4
			c-0.3-0.2-0.7-0.1-0.8,0.1c-0.2,0.3-0.1,0.7,0.1,0.8c0.8,0.6,1.5,1.3,2.1,2.1c2.4,3.3,2.4,7.7,0.1,10.8c-0.2,0.3-0.1,0.7,0.1,0.9
			C408.6,178.6,408.7,178.6,408.8,178.6z"/>
	</g>
</g>
<g>
	<path class="st8" d="M250.3,630.4c0,0-1.3,7.1-1.9,14.1c-0.2,2.7,1.9,5.1,4.6,5.2c9.3,0.4,29.3,1.1,36.5,0.8c1.1,0,1.8-1.2,1.4-2.2
		c-0.3-0.8-1-1.5-1.8-1.9l-33-15.2L250.3,630.4z"/>
	<path class="st10" d="M249.3,626.2l1,8.5c0,0,5.8,2.7,9.7-0.3l-2.4-9.4L249.3,626.2z"/>
	<path class="st9" d="M250,467c-0.4,2.2-2.3,110.4,9.2,158.9c0.2,0.8-0.2,1.6-1,1.9c-1.8,0.7-5.3,1.8-9.4,1.9c-1.3,0-2.4-0.8-2.8-2
		c-3.3-11.2-19.1-67.6-21.2-121.4c-2.3-60.2,0-2,0-2l1.4-37.2L250,467z"/>
	<path class="st8" d="M212.3,634.1c0,0-2,3.6-3.9,13.1c-0.3,1.7,0.9,3.4,2.6,3.5c3.1,0.3,7.8,0.7,11.6,0.7c1.8,0,3.1-1.5,2.9-3.3
		c-0.4-3.5-1.7-9.2-5.8-13.6L212.3,634.1z"/>
	<path class="st10" d="M210.6,623.2l2.3,12.8c0,0,2.3,1.7,6.9,0.5l-1.1-13.8L210.6,623.2z"/>
	<path class="st9" d="M204.2,470.3c-9.5,57.1,2.1,141.1,5.9,157.5c0.2,1,1,1.8,2.1,1.9c1.7,0.3,4.6,0.5,7.4-0.3
		c1-0.3,1.6-1.2,1.7-2.2c0.5-13.3-0.4-94.9,8.4-127.1c0.4-1.6,1.4-3.1,2.8-4l17.1-12.2l1.3-19.7L204.2,470.3z"/>
	<g>
		<path class="st2" d="M264.5,362.1c-28.3-0.5-59.6,7.4-59.6,7.4c-8.4,49.3-1.5,106.2-1.5,106.2c21.9,5.8,46.7-3.5,46.7-3.5
			c3.6-20.6,20.7-78.6,20.7-78.6c13.8-1.7,25.3-5.7,34.7-11c-7.2-8.3-10.5-18.9-12-25.1C283.4,360.6,273.2,362.3,264.5,362.1z"/>
		<path class="st10" d="M348.2,320.4c-2.8-3.4-6.3-1.8-6.3-1.8c-4.2,17.6-26,31.9-48.5,38.9c1.5,6.2,4.8,16.8,12,25.1
			C342.7,361.6,348.2,320.4,348.2,320.4z"/>
	</g>
	<g>
		<path class="st10" d="M347.5,321.2c0.3,0.9-3.1,2.3-5.1-1.5c-0.1-1.8-1.2-9.6-0.1-11.1c5.8-7.9,17-17.8,17-17.8
			c1.9,1.9,0.3,3.7,0.3,3.7l-5.4,5.7c1.1,2.1,2.5,3.8,3.2,6.3c0.5,1.9,0.2,3.9-0.8,5.6c-1,1.7-2.3,4-3.5,5.7
			C350.9,321.2,347.5,321.2,347.5,321.2z"/>
		<path class="st11" d="M351.9,304l-5,4.2l-1.6,4.2l4.4,4.9c0,0,1.5-8.3,2.6-10.1C353.5,305.4,352.9,304.5,351.9,304z"/>
	</g>
	<path class="st2" d="M215.8,397l-10.9-27.4c0,0-26.5,18-30.8,40.8c5,0.4,14.1,1.7,23,6.2C199,405.8,215.8,397,215.8,397z"/>
	<path class="st10" d="M238.9,422.8c0,0-29.7,16.8-39.8,2.5c-2.1-3-2.6-5.9-2.1-8.8c-8.9-4.5-18-5.8-23-6.2
		c-1.3,6.9-0.6,14.2,3.4,21.6c17.6,32.1,65.3-1.8,65.3-1.8L238.9,422.8z"/>
	<g>
		<path class="st9" d="M235.3,444.1l16.2-56.6c0.2-0.6,0.7-1.1,1.4-1.2c2.9-0.3,11.5-1.3,21.3-2.1c11.8-1,25.6-1.8,33.8-1.1
			c1.2,0.1,1.9,1.3,1.4,2.4c-4.7,9.5-23.9,47.9-33.5,60.5c-0.3,0.4-0.8,0.7-1.3,0.7l-37.6-0.4C235.8,446.2,235,445.1,235.3,444.1z"
			/>
		<path class="st4" d="M275.9,379.2l11.8-2c0.6-0.1,1.1,0.5,0.9,1.1l-1.2,3.5c-0.1,0.3-0.4,0.5-0.7,0.6l-11.3,1.5
			c-0.6,0.1-1.1-0.5-0.9-1l0.7-3.1C275.3,379.5,275.6,379.3,275.9,379.2z"/>
		<path class="st4" d="M267.1,389.2l1-5c0.1-0.5,0.5-0.9,1-0.9l23.8-2.4c0.8-0.1,1.4,0.7,1.3,1.4l-1.5,6.3c-0.1,0.5-0.6,0.9-1.1,0.9
			l-23.2,1.2C267.6,390.6,267,389.9,267.1,389.2z"/>
		<path class="st10" d="M239.2,430.4c0,0-2.3-9.3-1.3-12.6c0.9-3.3,2.7-7.5,8.6-6.6c5.9,0.9,12.8,3.4,12.8,3.4s-0.4,4.3-4.8,2.9
			l2.8,2.1c0,0-0.4,3.4-4.2,1.6l2.6,2.8c0,0-1.6,2.8-4.4,1C248.5,423.3,247.1,431.5,239.2,430.4z"/>
	</g>
	<path class="st10" d="M235.8,339.1l-9,26.1c-0.1,0.4,0,0.9,0.4,1.1c2.5,1.4,11.3,5.3,22-1.5c1.1-0.7,1.9-1.9,2-3.2l2.9-22.6H235.8z
		"/>
	<g>
		<path class="st10" d="M255.4,315c0,0,9.9,18.6,8.6,26.2c-1.3,7.5-13.5,7-24.3,0.9l-7.5-20.1L255.4,315z"/>
		<path class="st8" d="M240.3,332.1c0.4-0.2,0.6-0.7,0.3-1.1c-0.8-1.2-2.3-3.7-2.8-5.8c0,0-1.8-1.1,4.5-2.7
			c6.3-1.5,15.7-3.9,17.7-9.2c1.9-5.2-3.1-18.4-11.2-7.9c-0.3,0.4-0.9,0.4-1.2,0c-1.3-1.7-4.8-5.3-9.6-3.1c-4.5,2-5,5.3-5,7
			c0,0.5-0.4,0.9-0.9,0.8c-2.3-0.4-7.8-0.8-10.3,4.8c-2.1,4.6-0.7,7.3,0.5,8.6c0.4,0.4,0.2,1.1-0.3,1.3c-1.5,0.5-3.4,1.7-3.3,5.3
			c0.3,4.9,5.7,4.4,7.3,4.2c0.3,0,0.5,0.1,0.7,0.2c1.3,1.5,7.3,7.7,13.8,8.5c0.6,0.1,1-0.5,0.8-1l-2.8-8.2c-0.1-0.4,0.1-0.8,0.4-1
			L240.3,332.1z"/>
		<path class="st10" d="M241.4,333.3c0,0-7.1-4.8-7.6-0.8c-0.5,4.1,6.3,5.9,9.7,4.4L241.4,333.3z"/>
	</g>
</g>
<g>
	<polygon class="st12" points="128.5,408.8 121.6,408.8 121.6,401.9 117.8,401.9 117.8,408.8 110.9,408.8 110.9,412.5 117.8,412.5 
		117.8,419.5 121.6,419.5 121.6,412.5 128.5,412.5 	"/>
	<polygon class="st3" points="139.8,345.4 136.9,342.5 129.5,349.9 122.1,342.5 119.3,345.4 126.7,352.8 119.3,360.2 122.1,363 
		129.5,355.6 136.9,363 139.8,360.2 132.4,352.8 	"/>
</g>
<g>
	<polygon class="st12" points="700.5,311.8 693.6,311.8 693.6,304.9 689.8,304.9 689.8,311.8 682.9,311.8 682.9,315.5 689.8,315.5 
		689.8,322.5 693.6,322.5 693.6,315.5 700.5,315.5 	"/>
	<polygon class="st3" points="711.8,248.4 708.9,245.5 701.5,252.9 694.1,245.5 691.3,248.4 698.7,255.8 691.3,263.2 694.1,266 
		701.5,258.6 708.9,266 711.8,263.2 704.4,255.8 	"/>
</g>
</svg>
