<svg width="397" height="108" viewBox="0 0 397 108" fill="none" xmlns="http://www.w3.org/2000/svg">
<path d="M387.432 471.9L-329.774 500.696C-329.774 500.696 -528.416 304.352 -474.974 196.684C-453.098 152.613 -391.629 91.8874 -335.848 113.797C-294.674 129.97 -284.781 128.176 -263.386 124.89C-263.386 124.89 -235.688 115.815 -235.894 108.997C-237.219 65.2682 -188.841 36.64 -151.754 18.871C-150.557 18.2965 -149.35 17.7358 -148.133 17.1888C-88.856 -9.55455 -46.3574 0.151593 -7.91025 19.5551C57.5031 52.5708 60.6933 95.3418 188.449 76.0608C316.204 56.7827 350.67 173.731 322.136 235.165C281.651 322.334 433.951 295.457 387.432 471.9Z" fill="#FFF394"/>
</svg>
