<?xml version="1.0" encoding="utf-8"?>
<!-- Generator: Adobe Illustrator 24.2.1, SVG Export Plug-In . SVG Version: 6.00 Build 0)  -->
<svg version="1.1" id="Capa_1" xmlns="http://www.w3.org/2000/svg" xmlns:xlink="http://www.w3.org/1999/xlink" x="0px" y="0px"
	 viewBox="0 0 397 108" style="enable-background:new 0 0 397 108;" xml:space="preserve">
<style type="text/css">
	.st0{fill:#ABD5FF;}
</style>
<path class="st0" d="M387.4,471.9l-717.2,28.8c0,0-198.6-196.3-145.2-304c21.9-44.1,83.3-104.8,139.1-82.9
	c41.2,16.2,51.1,14.4,72.5,11.1c0,0,27.7-9.1,27.5-15.9c-1.3-43.7,47.1-72.4,84.1-90.1c1.2-0.6,2.4-1.1,3.6-1.7
	C-88.9-9.6-46.4,0.2-7.9,19.6c65.4,33,68.6,75.8,196.4,56.5c127.8-19.3,162.2,97.7,133.7,159.1C281.7,322.3,434,295.5,387.4,471.9z"
	/>
</svg>
