<svg width="469" height="104" viewBox="0 0 469 104" fill="none" xmlns="http://www.w3.org/2000/svg">
<path d="M657.419 185.417L174.206 429.239C174.206 429.239 -9.6251 379.632 0.560832 300.967C4.73017 268.767 31.8897 214.47 75.3807 209.352C107.484 205.574 113.807 201.41 127.628 192.745C127.628 192.745 144.341 178.764 142.532 174.92C130.926 150.27 156.99 118.524 177.994 96.5828C178.671 95.874 179.359 95.17 180.057 94.4707C198.926 75.5659 245.459 52.446 276.488 51.3846C329.282 49.5806 341.928 73.0905 424.54 21.5454C507.153 -29.9981 559.329 26.1259 554.857 70.3902C548.513 133.196 646.043 69.5168 657.419 185.417Z" fill="#FFF394"/>
</svg>
