<?xml version="1.0" encoding="utf-8"?>
<!-- Generator: Adobe Illustrator 24.2.1, SVG Export Plug-In . SVG Version: 6.00 Build 0)  -->
<svg version="1.1" id="Capa_1" xmlns="http://www.w3.org/2000/svg" xmlns:xlink="http://www.w3.org/1999/xlink" x="0px" y="0px"
	 viewBox="0 0 469 104" style="enable-background:new 0 0 469 104;" xml:space="preserve">
<style type="text/css">
	.st0{fill:#ABD5FF;}
</style>
<path class="st0" d="M657.4,185.4L174.2,429.2c0,0-183.8-49.6-173.6-128.3c4.2-32.2,31.3-86.5,74.8-91.6
	c32.1-3.8,38.4-7.9,52.2-16.6c0,0,16.7-14,14.9-17.8c-11.6-24.6,14.5-56.4,35.5-78.3c0.7-0.7,1.4-1.4,2.1-2.1
	c18.9-18.9,65.4-42,96.4-43.1c52.8-1.8,65.4,21.7,148.1-29.8c82.6-51.5,134.8,4.6,130.3,48.8C548.5,133.2,646,69.5,657.4,185.4z"/>
</svg>
