<?xml version="1.0" encoding="utf-8"?>
<!-- Generator: Adobe Illustrator 25.2.0, SVG Export Plug-In . SVG Version: 6.00 Build 0)  -->
<svg version="1.1" id="Capa_1" xmlns="http://www.w3.org/2000/svg" xmlns:xlink="http://www.w3.org/1999/xlink" x="0px" y="0px"
	 viewBox="0 0 436.7 450.5" style="enable-background:new 0 0 436.7 450.5;" xml:space="preserve">
<style type="text/css">
	.st0{fill:#68BD9E;}
	.st1{fill:#FFFBDB;}
</style>
<path class="st0" d="M109.4,73.1h217.8c11.9,0,21.5,9.6,21.5,21.5v355.9H87.9V94.6C87.9,82.7,97.5,73.1,109.4,73.1z"/>
<g>
	<path class="st1" d="M163.9,331.1h-24.4c-2.8,0-5.1-2.3-5.1-5.1v-24.4c0-2.8,2.3-5.1,5.1-5.1h24.4c2.8,0,5.1,2.3,5.1,5.1V326
		C169.1,328.8,166.8,331.1,163.9,331.1z"/>
	<path class="st1" d="M228.7,331.1h-24.4c-2.8,0-5.1-2.3-5.1-5.1v-24.4c0-2.8,2.3-5.1,5.1-5.1h24.4c2.8,0,5.1,2.3,5.1,5.1V326
		C233.8,328.8,231.6,331.1,228.7,331.1z"/>
	<path class="st1" d="M297.1,331.1h-24.4c-2.8,0-5.1-2.3-5.1-5.1v-24.4c0-2.8,2.3-5.1,5.1-5.1h24.4c2.8,0,5.1,2.3,5.1,5.1V326
		C302.3,328.8,300,331.1,297.1,331.1z"/>
</g>
<g>
	<path class="st1" d="M163.9,243.3h-24.4c-2.8,0-5.1-2.3-5.1-5.1v-24.4c0-2.8,2.3-5.1,5.1-5.1h24.4c2.8,0,5.1,2.3,5.1,5.1v24.4
		C169.1,241,166.8,243.3,163.9,243.3z"/>
	<path class="st1" d="M228.7,243.3h-24.4c-2.8,0-5.1-2.3-5.1-5.1v-24.4c0-2.8,2.3-5.1,5.1-5.1h24.4c2.8,0,5.1,2.3,5.1,5.1v24.4
		C233.8,241,231.6,243.3,228.7,243.3z"/>
	<path class="st1" d="M297.1,243.3h-24.4c-2.8,0-5.1-2.3-5.1-5.1v-24.4c0-2.8,2.3-5.1,5.1-5.1h24.4c2.8,0,5.1,2.3,5.1,5.1v24.4
		C302.3,241,300,243.3,297.1,243.3z"/>
</g>
<g>
	<path class="st1" d="M163.9,156h-24.4c-2.8,0-5.1-2.3-5.1-5.1v-24.4c0-2.8,2.3-5.1,5.1-5.1h24.4c2.8,0,5.1,2.3,5.1,5.1v24.4
		C169.1,153.7,166.8,156,163.9,156z"/>
	<path class="st1" d="M228.7,156h-24.4c-2.8,0-5.1-2.3-5.1-5.1v-24.4c0-2.8,2.3-5.1,5.1-5.1h24.4c2.8,0,5.1,2.3,5.1,5.1v24.4
		C233.8,153.7,231.6,156,228.7,156z"/>
	<path class="st1" d="M297.1,156h-24.4c-2.8,0-5.1-2.3-5.1-5.1v-24.4c0-2.8,2.3-5.1,5.1-5.1h24.4c2.8,0,5.1,2.3,5.1,5.1v24.4
		C302.3,153.7,300,156,297.1,156z"/>
</g>
<rect x="87.9" y="271.2" class="st1" width="260.9" height="7"/>
<rect x="87.9" y="176.9" class="st1" width="260.9" height="6.9"/>
<g>
	<rect x="160.4" y="350.4" class="st1" width="115.8" height="100.1"/>
</g>
</svg>
