<svg width="20" height="20" viewBox="0 0 20 20" fill="none" xmlns="http://www.w3.org/2000/svg">
<g clip-path="url(#clip0)">
<path d="M5.83333 0H3.33333C2.44928 0 1.60143 0.35119 0.976311 0.976311C0.35119 1.60143 0 2.44928 0 3.33333L0 5.83333C0 6.71739 0.35119 7.56524 0.976311 8.19036C1.60143 8.81548 2.44928 9.16667 3.33333 9.16667H5.83333C6.71739 9.16667 7.56524 8.81548 8.19036 8.19036C8.81548 7.56524 9.16667 6.71739 9.16667 5.83333V3.33333C9.16667 2.44928 8.81548 1.60143 8.19036 0.976311C7.56524 0.35119 6.71739 0 5.83333 0V0ZM7.5 5.83333C7.5 6.27536 7.32441 6.69928 7.01184 7.01184C6.69928 7.32441 6.27536 7.5 5.83333 7.5H3.33333C2.89131 7.5 2.46738 7.32441 2.15482 7.01184C1.84226 6.69928 1.66667 6.27536 1.66667 5.83333V3.33333C1.66667 2.89131 1.84226 2.46738 2.15482 2.15482C2.46738 1.84226 2.89131 1.66667 3.33333 1.66667H5.83333C6.27536 1.66667 6.69928 1.84226 7.01184 2.15482C7.32441 2.46738 7.5 2.89131 7.5 3.33333V5.83333Z" fill="#0D8284"/>
<path d="M5.83333 10.8333H3.33333C2.44928 10.8333 1.60143 11.1845 0.976311 11.8096C0.35119 12.4347 0 13.2826 0 14.1666L0 16.6666C0 17.5507 0.35119 18.3985 0.976311 19.0237C1.60143 19.6488 2.44928 20 3.33333 20H5.83333C6.71739 20 7.56524 19.6488 8.19036 19.0237C8.81548 18.3985 9.16667 17.5507 9.16667 16.6666V14.1666C9.16667 13.2826 8.81548 12.4347 8.19036 11.8096C7.56524 11.1845 6.71739 10.8333 5.83333 10.8333ZM7.5 16.6666C7.5 17.1087 7.32441 17.5326 7.01184 17.8452C6.69928 18.1577 6.27536 18.3333 5.83333 18.3333H3.33333C2.89131 18.3333 2.46738 18.1577 2.15482 17.8452C1.84226 17.5326 1.66667 17.1087 1.66667 16.6666V14.1666C1.66667 13.7246 1.84226 13.3007 2.15482 12.9881C2.46738 12.6756 2.89131 12.5 3.33333 12.5H5.83333C6.27536 12.5 6.69928 12.6756 7.01184 12.9881C7.32441 13.3007 7.5 13.7246 7.5 14.1666V16.6666Z" fill="#0D8284"/>
<path d="M16.6663 10.8333H14.1663C13.2823 10.8333 12.4344 11.1845 11.8093 11.8096C11.1842 12.4347 10.833 13.2826 10.833 14.1666V16.6666C10.833 17.5507 11.1842 18.3985 11.8093 19.0237C12.4344 19.6488 13.2823 20 14.1663 20H16.6663C17.5504 20 18.3982 19.6488 19.0234 19.0237C19.6485 18.3985 19.9997 17.5507 19.9997 16.6666V14.1666C19.9997 13.2826 19.6485 12.4347 19.0234 11.8096C18.3982 11.1845 17.5504 10.8333 16.6663 10.8333ZM18.333 16.6666C18.333 17.1087 18.1574 17.5326 17.8449 17.8452C17.5323 18.1577 17.1084 18.3333 16.6663 18.3333H14.1663C13.7243 18.3333 13.3004 18.1577 12.9878 17.8452C12.6753 17.5326 12.4997 17.1087 12.4997 16.6666V14.1666C12.4997 13.7246 12.6753 13.3007 12.9878 12.9881C13.3004 12.6756 13.7243 12.5 14.1663 12.5H16.6663C17.1084 12.5 17.5323 12.6756 17.8449 12.9881C18.1574 13.3007 18.333 13.7246 18.333 14.1666V16.6666Z" fill="#0D8284"/>
<path d="M11.6663 5.83335H18.333C18.554 5.83335 18.766 5.74556 18.9223 5.58928C19.0785 5.433 19.1663 5.22103 19.1663 5.00002C19.1663 4.77901 19.0785 4.56705 18.9223 4.41076C18.766 4.25448 18.554 4.16669 18.333 4.16669H11.6663C11.4453 4.16669 11.2334 4.25448 11.0771 4.41076C10.9208 4.56705 10.833 4.77901 10.833 5.00002C10.833 5.22103 10.9208 5.433 11.0771 5.58928C11.2334 5.74556 11.4453 5.83335 11.6663 5.83335Z" fill="#0D8284"/>
</g>
<defs>
<clipPath id="clip0">
<rect width="20" height="20" fill="white"/>
</clipPath>
</defs>
</svg>
