<svg width="23" height="21" viewBox="0 0 23 21" fill="none" xmlns="http://www.w3.org/2000/svg">
<path d="M21.5496 14.3616L18.5208 11.3328C18.4364 11.2429 18.3348 11.1709 18.222 11.121C18.1092 11.0712 17.9876 11.0445 17.8643 11.0426C17.741 11.0407 17.6185 11.0636 17.5042 11.1099C17.39 11.1562 17.2861 11.225 17.199 11.3123C17.1118 11.3995 17.0431 11.5034 16.9968 11.6177C16.9506 11.732 16.9278 11.8544 16.9298 11.9777C16.9318 12.101 16.9585 12.2227 17.0085 12.3354C17.0584 12.4482 17.1305 12.5498 17.2204 12.6341L19.328 14.7453C18.1823 14.7479 17.0477 14.5213 15.9909 14.0787C14.9342 13.6362 13.9766 12.9867 13.1747 12.1684C13.0857 12.0864 12.9811 12.0232 12.8671 11.9824C12.7531 11.9416 12.6321 11.9241 12.5112 11.9309C12.3904 11.9378 12.2721 11.9689 12.1635 12.0223C12.0549 12.0758 11.9581 12.1505 11.8789 12.2421L11.867 12.2605C11.7122 12.4405 11.633 12.6733 11.6459 12.9103C11.6587 13.1473 11.7627 13.3702 11.936 13.5324C12.9021 14.5095 14.0542 15.2831 15.3243 15.8075C16.5944 16.332 17.9567 16.5967 19.3307 16.586L17.2204 18.6963C17.1243 18.779 17.0463 18.8807 16.9913 18.995C16.9363 19.1093 16.9055 19.2337 16.9009 19.3604C16.8962 19.4872 16.9179 19.6135 16.9644 19.7315C17.0109 19.8495 17.0813 19.9566 17.1712 20.0461C17.2611 20.1356 17.3685 20.2056 17.4867 20.2516C17.6049 20.2976 17.7313 20.3187 17.858 20.3135C17.9848 20.3084 18.1091 20.2771 18.2231 20.2216C18.3372 20.1661 18.4385 20.0877 18.5208 19.9911L21.5496 16.9624C21.8941 16.6173 22.0876 16.1496 22.0876 15.662C22.0876 15.1743 21.8941 14.7067 21.5496 14.3616Z" fill="#0D8284"/>
<path d="M19.3276 5.54288L17.2201 7.6504C17.2021 7.67463 17.1855 7.69982 17.1704 7.72587C17.0219 7.90694 16.9486 8.13817 16.9658 8.37172C16.9829 8.60528 17.0892 8.82331 17.2626 8.98074C17.4359 9.13817 17.6632 9.22294 17.8973 9.21754C18.1314 9.21215 18.3545 9.11698 18.5205 8.95173L20.0905 7.38351L21.5502 5.92481C21.7969 5.6761 21.9676 5.36212 22.0421 5.01977C22.1166 4.67742 22.0918 4.32091 21.9707 3.99214C21.8813 3.74048 21.7374 3.51169 21.5492 3.32215L18.5205 0.297067C18.4365 0.20578 18.3348 0.132424 18.2217 0.0814073C18.1087 0.0303907 17.9864 0.00276736 17.8624 0.000197471C17.7383 -0.00237242 17.6151 0.0201642 17.4999 0.0664529C17.3848 0.112741 17.2803 0.181826 17.1925 0.269555C17.1048 0.357283 17.0357 0.461844 16.9894 0.576953C16.9432 0.692061 16.9206 0.815341 16.9232 0.939381C16.9258 1.06342 16.9534 1.18566 17.0044 1.29875C17.0554 1.41185 17.1288 1.51346 17.2201 1.59748L19.3304 3.70684C14.7904 3.71789 12.3019 6.16777 10.0453 8.74466C7.97271 6.40522 5.51638 4.07037 1.36299 3.74458L0.920318 3.70224C0.676234 3.70224 0.442148 3.7992 0.269555 3.9718C0.0969617 4.14439 0 4.37848 0 4.62256C0.00471216 4.86517 0.103187 5.09653 0.274769 5.26811C0.446351 5.43969 0.677709 5.53817 0.920318 5.54288C0.98658 5.54288 1.18445 5.57325 1.18445 5.57325C4.77001 5.84474 6.82784 7.86392 8.82953 10.1445C6.8398 12.414 4.79577 14.47 1.23967 14.7092L0.871541 14.7286C0.629288 14.7437 0.402969 14.8544 0.242371 15.0364C0.0817732 15.2184 5.20696e-05 15.4568 0.0151852 15.699C0.0303184 15.9413 0.141066 16.1676 0.323066 16.3282C0.505065 16.4888 0.743407 16.5705 0.98566 16.5554C1.12923 16.549 1.36299 16.5434 1.47803 16.5342C6.09802 16.1781 8.60405 13.2211 10.8386 10.6359C13.0952 8.02774 15.2267 5.55944 19.3276 5.54288Z" fill="#0D8284"/>
</svg>
