<svg width="70" height="70" viewBox="0 0 70 70" fill="none" xmlns="http://www.w3.org/2000/svg">
<g clip-path="url(#clip0)">
<path d="M49.2024 66.4888C66.2106 59.1913 74.2349 39.1108 67.1253 21.6378C60.0156 4.16474 40.4643 -4.08412 23.4561 3.21341C6.44798 10.5109 -1.57633 30.5914 5.53331 48.0644C12.643 65.5375 32.1943 73.7863 49.2024 66.4888Z" fill="#EAB726"/>
<path d="M38.8057 69.1093C38.3302 69.1862 37.8516 69.2554 37.3695 69.3124C37.2062 69.331 37.0429 69.3496 36.881 69.3646C36.5105 69.4025 36.1422 69.4349 35.7717 69.4622C18.1034 70.6761 2.44123 57.4148 0.39885 39.1482C-1.55057 21.7255 9.57997 5.85962 25.7839 1.89761C27.0765 1.58061 28.4005 1.34094 29.7528 1.18146C30.2374 1.12336 30.7229 1.07848 31.2048 1.04272C31.6739 1.00795 32.1428 0.983814 32.6099 0.969558C34.0404 0.926336 35.4537 0.978283 36.8476 1.12027C38.9195 1.32847 40.9445 1.73243 42.9017 2.32128C48.9716 4.14364 54.3869 7.70272 58.534 12.5006C62.935 17.589 65.909 24.0691 66.7217 31.3449C68.7686 49.6626 56.3651 66.2592 38.8057 69.1093Z" fill="#FFEB4D"/>
<path d="M22.2892 64.0949C19.7069 63.0054 17.2601 61.5354 15.0145 59.7022C8.75798 54.5971 4.81077 47.2966 3.89937 39.1445C2.98797 30.9924 5.22172 22.9634 10.1896 16.5384C15.1575 10.1133 22.2635 6.06106 30.1995 5.12743C46.5842 3.19904 61.4434 15.3233 63.3241 32.1535C65.2048 48.9837 53.408 64.244 37.024 66.1706C31.9352 66.7664 26.8972 66.039 22.2892 64.0949ZM44.6129 7.98117C40.222 6.12859 35.3314 5.35448 30.2898 5.94676C22.5675 6.85529 15.6528 10.7983 10.8188 17.0493C5.9849 23.3004 3.8123 31.114 4.69919 39.0465C5.58608 46.9791 9.42684 54.0831 15.5139 59.0505C21.6009 64.0179 29.2083 66.252 36.9305 65.3435C52.8725 63.4674 64.3526 48.6198 62.5211 32.2437C61.2696 21.0473 54.1116 11.9887 44.6129 7.98117Z" fill="#EAB726"/>
<path d="M30.3775 20.0397V49.9953C30.3775 52.6646 28.2768 54.8232 25.679 54.8232C23.0812 54.8232 20.9805 52.6646 20.9805 49.9953V20.0397C20.9805 17.3704 23.0812 15.2119 25.679 15.2119C28.2768 15.2119 30.3775 17.3704 30.3775 20.0397Z" fill="#EAB726"/>
<path d="M34.8023 39.2686L31.082 33.1061V32.3976C32.5894 31.6561 33.8562 30.7993 34.9627 29.8271L34.8023 39.2686Z" fill="#EAB726"/>
<path d="M34.8834 29.8437C37.9783 27.1085 39.63 23.4505 40.8969 18.6392C41.4261 16.6125 43.206 15.2119 45.2426 15.2119C48.3055 15.2119 50.4703 18.2767 49.5402 21.2755C47.4074 28.0642 44.5049 31.409 41.2497 33.996L50.1496 47.9027C52.0418 50.8686 49.9732 54.8232 46.5094 54.8232C45.0021 54.8232 43.6069 54.0158 42.8212 52.7141L34.707 39.2687L34.8834 29.8437Z" fill="#EAB726"/>
</g>
<defs>
<clipPath id="clip0">
<rect width="70" height="70" fill="white"/>
</clipPath>
</defs>
</svg>
