<svg width="24" height="22" viewBox="0 0 24 22" fill="none" xmlns="http://www.w3.org/2000/svg">
<path d="M9.08252 14.6946C9.27347 14.8639 9.44501 15.0003 9.5875 15.1063V16.3375H8.75C7.95824 16.3375 7.19054 16.5684 6.60484 17.0586C6.00406 17.5615 5.65 18.294 5.65 19.1562V19.5781C5.65 20.2937 6.20634 20.85 6.92188 20.85H17.3281C17.9621 20.85 18.6 20.3388 18.6 19.5781V19.1562C18.6 18.2841 18.2294 17.5532 17.6285 17.0557C17.0426 16.5707 16.2785 16.3375 15.5 16.3375H14.6625V15.1C14.8016 14.9942 14.9691 14.858 15.1559 14.6892C15.604 14.2841 16.1643 13.69 16.7091 12.8751C18.0972 12.6448 19.424 12.1245 20.566 11.3038C22.0728 10.222 23.1 8.69361 23.1 7.0625V5.09375C23.1 4.16728 22.3327 3.4 21.4062 3.4H18.6V2.84375C18.6 1.91728 17.8327 1.15 16.9062 1.15H7.34375C6.35906 1.15 5.65 1.94067 5.65 2.84375V3.4H2.84375C1.85906 3.4 1.15 4.19067 1.15 5.09375V7.0625C1.15 8.68208 2.12961 10.213 3.64881 11.3038C4.79097 12.1246 6.11787 12.6449 7.50615 12.8751C8.05474 13.6932 8.62517 14.289 9.08252 14.6946ZM5.69875 7.35C5.71632 7.55057 5.73782 7.74687 5.76288 7.9389C5.51763 7.74474 5.35227 7.55405 5.24761 7.39358C5.23784 7.3786 5.22871 7.36407 5.22018 7.35H5.69875ZM19.019 7.35C18.9947 7.38666 18.9668 7.42539 18.9351 7.46588C18.8049 7.63231 18.6344 7.79808 18.4517 7.94118C18.4769 7.74843 18.4985 7.55136 18.5161 7.35H19.019Z" stroke="#0D8284" stroke-width="1.7"/>
</svg>
