<svg width="215" height="222" viewBox="0 0 215 222" fill="none" xmlns="http://www.w3.org/2000/svg">
<path d="M153.774 186.691L72.4333 165.704C66.1338 164.08 62.4209 157.566 64.2363 151.316L81.81 90.7659C83.319 85.121 89.8164 80.9233 96.7019 82.1963L166.529 102.438L175.969 105.179C180.584 106.515 183.145 111.437 181.591 115.986L180.009 120.63C181.938 122.819 182.682 125.949 181.669 128.921L163.821 181.271C162.409 185.428 158.026 187.791 153.774 186.691Z" fill="#82420A"/>
<g opacity="0.3">
<path opacity="0.3" d="M100.861 95.7372C95.5857 95.8794 84.6255 84.6187 97.6992 86.6293L166.011 106.389L174.648 108.896C179.264 110.233 181.824 115.154 180.274 119.699" fill="#650000"/>
</g>
<g opacity="0.3">
<path opacity="0.3" d="M153.775 186.691L72.4342 165.704C68.1753 164.605 65.0954 161.267 64.1149 157.29C65.5858 158.95 67.5459 160.201 69.8565 160.801L151.197 181.788C155.449 182.888 159.832 180.525 161.248 176.364L163.879 168.651L149.479 164.607C144.112 163.099 141.089 157.413 142.849 152.118C143.305 150.741 144.041 149.53 144.974 148.531C147.393 145.94 151.138 144.77 154.761 145.786L170.197 150.118L174.076 151.209L167.76 169.732L163.832 181.26C162.41 185.428 158.027 187.791 153.775 186.691Z" fill="#650000"/>
</g>
<g opacity="0.3">
<path opacity="0.3" d="M174.069 151.216L170.19 150.125L179.091 124.01C179.574 122.59 179.658 121.138 179.403 119.772C179.637 119.901 179.902 120.046 180.163 120.182L180.017 120.623C181.945 122.812 182.689 125.941 181.676 128.913L174.069 151.216Z" fill="#650000"/>
</g>
<g opacity="0.6">
<path opacity="0.6" d="M180.857 121.769C178.192 120.58 175.443 119.584 172.633 118.783L103.381 99.1055C101.314 98.5151 99.3865 97.5048 97.7521 96.108C96.6251 95.1441 95.272 93.8468 93.8282 92.1585C96.6475 94.5664 99.6099 96.3257 102.75 97.3191C102.75 97.3191 175.019 117.808 175.19 117.859C175.357 117.913 180.857 121.769 180.857 121.769Z" fill="white"/>
</g>
<g opacity="0.6">
<path opacity="0.6" d="M181.058 109.303C180.139 108.465 179.023 107.825 177.744 107.454L168.304 104.713L98.4768 84.4712C91.5949 83.2016 85.0938 87.396 83.5848 93.0408L66.0114 153.598C65.0835 156.8 65.5999 160.064 67.1752 162.712C64.2942 159.838 63.0134 155.52 64.2343 151.32L81.8113 90.7659C83.3203 85.1211 89.8178 80.9233 96.7033 82.1963L166.53 102.438L175.97 105.179C178.255 105.835 180.031 107.372 181.058 109.303Z" fill="white"/>
</g>
<path d="M134.946 106.184L120.78 102.058L101.038 96.3049L98.0924 86.7113L94.3743 74.6078L132.718 62.8351L139.398 84.595L138.403 89.4132L134.946 106.184Z" fill="#69BEA0"/>
<path d="M134.666 83.973L131.051 72.2037C128.868 72.873 126.561 71.6506 125.892 69.468L103.739 76.2708C104.408 78.4535 103.185 80.7608 101.003 81.4301L103.054 88.1207L106.024 97.791L126.053 103.936L128.318 87.7927L128.633 86.7266L128.963 83.4298L134.666 83.973Z" fill="#69BEA0"/>
<path d="M119.291 95.9876C122.126 95.8904 124.345 93.5136 124.248 90.6788C124.151 87.844 121.774 85.6248 118.939 85.722C116.105 85.8192 113.885 88.196 113.983 91.0308C114.08 93.8655 116.457 96.0848 119.291 95.9876Z" fill="#E1F2EC"/>
<g opacity="0.3">
<path opacity="0.3" d="M134.946 106.184L120.78 102.059L121.148 99.2599L121.671 95.3057L122.717 87.3516L133.501 88.7688L138.403 89.4133L134.946 106.184Z" fill="#650000"/>
</g>
<path d="M164.894 114.876L166.01 106.389L166.532 102.434L168.377 88.4095L139.398 84.5944L128.609 83.1738L127.563 91.1279L127.041 95.0821L125.928 103.566" fill="#69BEA0"/>
<path d="M160.679 113.649L161.799 105.165L162.974 96.2353C160.712 95.9399 159.121 93.8628 159.417 91.6013L136.441 88.5759C136.146 90.8374 134.069 92.4282 131.807 92.1329L131.257 96.2991L130.141 104.78" fill="#69BEA0"/>
<g opacity="0.6">
<path opacity="0.6" d="M164.894 114.876L163.103 114.354L163.942 108.021L164.457 104.067L166.308 90.0423L137.325 86.2238L128.364 85.0466L128.609 83.1738L139.398 84.5944L168.377 88.4095L166.532 102.434L166.01 106.389L164.894 114.876Z" fill="white"/>
</g>
<g opacity="0.55">
<path opacity="0.55" d="M139.398 84.595L137.179 84.2982L131.394 65.4766L95.0003 76.6547L94.3743 74.6078L132.718 62.8351L139.398 84.595Z" fill="white"/>
</g>
<path d="M146.969 109.497C149.804 109.4 152.023 107.023 151.926 104.189C151.829 101.354 149.452 99.1345 146.617 99.2317C143.782 99.3289 141.563 101.706 141.66 104.54C141.758 107.375 144.134 109.594 146.969 109.497Z" fill="#E1F2EC"/>
<path d="M66.826 163.652C65.9175 162.804 65.1306 161.811 64.4979 160.696C62.8174 157.746 62.4117 154.327 63.3586 151.062L80.9322 90.5109C81.0738 90.0241 81.5779 89.7465 82.0646 89.8881C82.5478 90.0263 82.829 90.5338 82.6874 91.0206L65.114 151.578C64.3053 154.36 64.6518 157.282 66.0853 159.797C67.5188 162.313 69.856 164.1 72.6599 164.827L154.001 185.814C157.77 186.79 161.707 184.664 162.963 180.98L180.811 128.63C181.681 126.089 181.109 123.255 179.334 121.237C178.393 120.169 177.17 119.394 175.795 118.995L101.789 97.51C101.402 97.3932 101.053 97.2785 100.736 97.1662C94.4314 94.9798 90.0074 90.7063 90.877 87.6478C91.1563 86.6638 92.4369 84.5128 98.2928 85.8176C98.782 85.9274 99.0942 86.4162 98.9844 86.9054C98.8745 87.3947 98.3857 87.7069 97.8965 87.597C94.5821 86.8559 92.8645 87.3404 92.6351 88.1397C92.2525 89.4966 94.898 93.198 101.342 95.4324C101.641 95.5347 101.968 95.6431 102.316 95.7507L176.305 117.226C178.013 117.719 179.535 118.684 180.702 120.012C182.913 122.518 183.617 126.04 182.541 129.204L164.693 181.554C163.133 186.138 158.239 188.779 153.547 187.568L72.2064 166.581C70.1553 166.06 68.3268 165.053 66.826 163.652Z" fill="#650000"/>
<path d="M165.385 107.057C165.142 106.83 165.031 106.475 165.132 106.134C165.273 105.647 165.777 105.37 166.264 105.511L174.902 108.019C177.374 108.736 179.39 110.387 180.58 112.675C181.77 114.963 181.969 117.562 181.138 119.997C180.975 120.477 180.456 120.727 179.979 120.568C179.502 120.408 179.248 119.886 179.408 119.409C180.076 117.448 179.92 115.357 178.963 113.518C178.007 111.68 176.385 110.349 174.392 109.774L165.754 107.266C165.616 107.225 165.487 107.152 165.385 107.057Z" fill="#650000"/>
<path d="M86.9556 95.8091C86.9338 95.7887 86.9084 95.765 86.8933 95.7374C86.246 94.9153 85.8386 94.1132 85.6898 93.362C85.622 93.0266 85.8394 92.6991 86.1748 92.6313C86.5101 92.5635 86.8377 92.7809 86.9055 93.1163C87.0159 93.6683 87.3509 94.3076 87.8695 94.9687C88.0793 95.2394 88.0363 95.6278 87.7622 95.8413C87.5192 96.036 87.1736 96.0127 86.9556 95.8091Z" fill="#650000"/>
<path d="M71.685 160.372C71.4706 160.172 71.4239 159.836 71.5876 159.581C71.7747 159.293 72.1588 159.209 72.4466 159.397C73.5439 160.108 74.861 160.665 76.3586 161.049L76.7419 161.149C77.0756 161.236 77.2737 161.577 77.183 161.908C77.096 162.241 76.7545 162.439 76.4243 162.349L76.0443 162.246C74.4224 161.826 72.9803 161.214 71.7715 160.433C71.7393 160.416 71.7105 160.396 71.685 160.372ZM80.8557 163.453C80.6921 163.3 80.6173 163.067 80.6799 162.839C80.7669 162.506 81.1084 162.308 81.4386 162.398L86.1354 163.648C86.469 163.735 86.6672 164.076 86.5765 164.407C86.4894 164.74 86.148 164.938 85.8177 164.848L81.121 163.598C81.018 163.57 80.9284 163.52 80.8557 163.453ZM90.2455 165.948C90.0819 165.796 90.0071 165.562 90.0697 165.335C90.1567 165.002 90.4982 164.803 90.8284 164.894L95.5252 166.144C95.8588 166.231 96.0569 166.572 95.9663 166.902C95.8756 167.233 95.5377 167.434 95.2075 167.343L90.5108 166.094C90.4078 166.066 90.3182 166.016 90.2455 165.948ZM99.6387 168.44C99.4751 168.288 99.4003 168.055 99.4629 167.827C99.5499 167.494 99.8914 167.295 100.222 167.386L104.918 168.636C105.252 168.723 105.45 169.064 105.359 169.394C105.272 169.728 104.931 169.926 104.601 169.836L99.904 168.586C99.801 168.558 99.7113 168.508 99.6387 168.44ZM109.032 170.932C108.868 170.78 108.793 170.547 108.856 170.319C108.943 169.986 109.285 169.788 109.615 169.878L114.312 171.128C114.645 171.215 114.843 171.556 114.753 171.887C114.666 172.22 114.324 172.418 113.994 172.328L109.297 171.078C109.191 171.054 109.105 171 109.032 170.932ZM118.422 173.428C118.258 173.275 118.183 173.042 118.246 172.815C118.333 172.481 118.674 172.283 119.005 172.374L123.701 173.623C124.035 173.711 124.233 174.052 124.142 174.382C124.055 174.716 123.714 174.914 123.384 174.823L118.687 173.574C118.584 173.546 118.494 173.496 118.422 173.428ZM127.815 175.92C127.651 175.767 127.576 175.534 127.639 175.307C127.726 174.973 128.068 174.775 128.398 174.866L133.095 176.116C133.428 176.203 133.626 176.544 133.536 176.874C133.449 177.208 133.107 177.406 132.777 177.315L128.08 176.066C127.981 176.041 127.888 175.988 127.815 175.92ZM137.208 178.412C137.045 178.26 136.97 178.026 137.032 177.799C137.119 177.466 137.461 177.267 137.791 177.358L142.488 178.608C142.821 178.695 143.02 179.036 142.929 179.366C142.842 179.7 142.5 179.898 142.17 179.807L137.473 178.558C137.371 178.537 137.281 178.48 137.208 178.412ZM146.598 180.908C146.434 180.755 146.359 180.522 146.422 180.295C146.509 179.961 146.851 179.763 147.181 179.854L151.373 180.966C151.526 181.006 151.685 181.04 151.841 181.069C152.177 181.132 152.4 181.462 152.334 181.795C152.272 182.131 151.941 182.353 151.609 182.287C151.424 182.252 151.24 182.209 151.059 182.162L146.867 181.05C146.764 181.029 146.671 180.976 146.598 180.908ZM156.069 181.663C156.003 181.602 155.955 181.53 155.92 181.443C155.79 181.124 155.943 180.763 156.262 180.633C157.299 180.207 158.248 179.555 159.011 178.738C159.269 178.461 159.505 178.165 159.72 177.855C159.914 177.574 160.302 177.501 160.583 177.695C160.864 177.89 160.937 178.278 160.743 178.559C160.495 178.919 160.215 179.263 159.916 179.582C159.034 180.527 157.931 181.286 156.727 181.781C156.495 181.877 156.239 181.823 156.069 181.663ZM161.645 174.19C161.474 174.031 161.398 173.777 161.478 173.538L163.019 168.93C163.128 168.603 163.48 168.429 163.808 168.537C164.135 168.646 164.309 168.998 164.201 169.326L162.66 173.934C162.551 174.261 162.198 174.435 161.871 174.327C161.786 174.295 161.71 174.251 161.645 174.19ZM90.6425 98.9372C90.4317 98.7404 90.3818 98.4149 90.5384 98.1598C90.7183 97.8652 91.1021 97.7746 91.3933 97.9581C92.6689 98.741 94.1062 99.4164 95.6659 99.968C95.9898 100.08 96.1603 100.436 96.0449 100.764C95.9329 101.088 95.5764 101.258 95.2488 101.143C93.6073 100.563 92.0913 99.8478 90.7437 99.0181C90.7076 98.9912 90.6715 98.9643 90.6425 98.9372ZM164.727 164.974C164.556 164.815 164.48 164.56 164.56 164.322L166.101 159.714C166.21 159.386 166.562 159.212 166.89 159.321C167.217 159.429 167.391 159.782 167.283 160.109L165.742 164.718C165.633 165.045 165.28 165.219 164.953 165.11C164.868 165.078 164.789 165.032 164.727 164.974ZM99.6819 102.398C99.5148 102.242 99.4397 102.002 99.509 101.767C99.6068 101.437 99.9485 101.246 100.279 101.343L104.948 102.696C105.278 102.794 105.469 103.135 105.371 103.466C105.274 103.796 104.932 103.988 104.602 103.89L99.9329 102.537C99.8406 102.512 99.751 102.463 99.6819 102.398ZM109.019 105.103C108.852 104.947 108.777 104.707 108.846 104.472C108.944 104.142 109.286 103.951 109.616 104.049L114.285 105.401C114.615 105.499 114.806 105.84 114.709 106.171C114.611 106.501 114.269 106.693 113.939 106.595L109.27 105.242C109.174 105.214 109.088 105.168 109.019 105.103ZM167.805 155.754C167.634 155.595 167.559 155.34 167.639 155.102L169.18 150.494C169.288 150.167 169.641 149.993 169.968 150.101C170.296 150.209 170.47 150.562 170.361 150.89L168.82 155.498C168.712 155.825 168.359 155.999 168.032 155.891C167.943 155.862 167.871 155.815 167.805 155.754ZM118.353 107.805C118.185 107.649 118.11 107.409 118.18 107.174C118.277 106.844 118.619 106.653 118.95 106.75L123.618 108.103C123.949 108.2 124.14 108.542 124.042 108.873C123.944 109.203 123.603 109.394 123.272 109.297L118.604 107.944C118.504 107.919 118.422 107.869 118.353 107.805ZM127.686 110.507C127.519 110.35 127.444 110.11 127.513 109.876C127.611 109.545 127.953 109.354 128.283 109.452L132.952 110.804C133.282 110.902 133.473 111.244 133.376 111.574C133.278 111.905 132.936 112.096 132.606 111.998L127.937 110.646C127.841 110.624 127.755 110.571 127.686 110.507ZM170.884 146.541C170.713 146.382 170.638 146.128 170.717 145.889L172.258 141.281C172.367 140.954 172.72 140.78 173.047 140.888C173.374 140.997 173.548 141.349 173.44 141.677L171.899 146.285C171.79 146.612 171.438 146.786 171.11 146.678C171.025 146.646 170.946 146.599 170.884 146.541ZM137.023 113.212C136.856 113.056 136.781 112.815 136.85 112.581C136.948 112.25 137.29 112.059 137.62 112.157L142.289 113.509C142.619 113.607 142.811 113.949 142.713 114.279C142.615 114.61 142.273 114.801 141.943 114.703L137.274 113.351C137.175 113.326 137.092 113.276 137.023 113.212ZM146.353 115.917C146.186 115.761 146.111 115.521 146.181 115.286C146.278 114.956 146.62 114.765 146.951 114.862L151.619 116.215C151.95 116.312 152.141 116.654 152.043 116.985C151.945 117.315 151.604 117.506 151.273 117.409L146.605 116.056C146.509 116.028 146.423 115.981 146.353 115.917ZM173.962 137.322C173.792 137.162 173.716 136.908 173.796 136.669L175.337 132.061C175.445 131.734 175.798 131.56 176.125 131.668C176.453 131.777 176.627 132.13 176.518 132.457L174.977 137.065C174.869 137.392 174.516 137.566 174.189 137.458C174.1 137.429 174.024 137.379 173.962 137.322ZM155.687 118.619C155.52 118.462 155.445 118.222 155.514 117.988C155.612 117.657 155.954 117.466 156.284 117.564L160.953 118.916C161.283 119.014 161.474 119.356 161.377 119.686C161.279 120.017 160.937 120.208 160.607 120.11L155.938 118.758C155.846 118.733 155.756 118.683 155.687 118.619ZM165.024 121.324C164.857 121.168 164.782 120.927 164.851 120.693C164.949 120.362 165.291 120.171 165.621 120.269L170.29 121.621C170.62 121.719 170.811 122.061 170.714 122.391C170.616 122.722 170.274 122.913 169.944 122.815L165.275 121.463C165.176 121.438 165.093 121.388 165.024 121.324ZM176.772 128.048C176.655 127.939 176.576 127.783 176.574 127.611C176.545 126.557 176.088 125.538 175.314 124.816C175.056 124.575 174.771 124.37 174.459 124.208C174.154 124.046 174.04 123.674 174.198 123.366C174.36 123.061 174.732 122.947 175.04 123.105C175.449 123.316 175.827 123.588 176.165 123.904C177.179 124.85 177.784 126.191 177.818 127.576C177.826 127.917 177.558 128.204 177.214 128.215C177.041 128.218 176.888 128.156 176.772 128.048Z" fill="#650000"/>
<path d="M68.4494 156.807C68.3949 156.756 68.3506 156.694 68.3164 156.622C67.949 155.857 67.692 155.032 67.5604 154.168C67.51 153.828 67.7383 153.511 68.0742 153.457C68.4137 153.407 68.7311 153.635 68.7848 153.971C68.9017 154.713 69.123 155.423 69.434 156.08C69.5818 156.388 69.4504 156.762 69.1424 156.91C68.9073 157.031 68.6311 156.977 68.4494 156.807Z" fill="#650000"/>
<path d="M179.389 121.295C179.134 121.058 179.027 120.685 179.145 120.333L180.73 115.691C181.398 113.73 181.242 111.639 180.286 109.8C179.329 107.962 177.707 106.631 175.714 106.056L166.274 103.316C165.787 103.174 165.51 102.67 165.651 102.183C165.793 101.697 166.297 101.419 166.784 101.561L176.224 104.301C178.697 105.018 180.717 106.672 181.903 108.957C183.089 111.241 183.287 113.841 182.457 116.283L180.871 120.924C180.708 121.405 180.189 121.655 179.712 121.495C179.594 121.446 179.48 121.38 179.389 121.295Z" fill="#650000"/>
<path d="M81.1896 91.4309C80.9498 91.207 80.8396 90.866 80.9301 90.5288C82.6384 84.1314 89.7884 79.9851 96.8687 81.2972C97.3678 81.3891 97.6936 81.8634 97.6017 82.3625C97.5132 82.8581 97.0355 83.1875 96.5364 83.0956C90.3695 81.9562 84.1594 85.5039 82.6911 91.0031C82.5601 91.493 82.06 91.781 81.57 91.6501C81.4242 91.6023 81.295 91.5293 81.1896 91.4309Z" fill="#650000"/>
<path d="M125.304 104.236C125.096 104.042 124.981 103.751 125.02 103.447L127.708 83.0542C127.742 82.8138 127.865 82.5951 128.057 82.4478C128.249 82.3005 128.493 82.2358 128.729 82.2664L168.497 87.5021C168.737 87.5361 168.956 87.6587 169.103 87.8506C169.25 88.0426 169.315 88.2866 169.284 88.5233L165.798 114.987C165.731 115.488 165.275 115.838 164.773 115.771C164.272 115.704 163.922 115.248 163.989 114.746L167.355 89.184L129.4 84.1852L126.836 103.673C126.768 104.175 126.313 104.525 125.811 104.457C125.61 104.447 125.438 104.361 125.304 104.236Z" fill="#0D8284"/>
<path d="M129.596 105.372C129.414 105.202 129.311 104.949 129.347 104.684L131.013 92.0299C131.069 91.5918 131.473 91.2824 131.908 91.3414C133.731 91.5814 135.407 90.2963 135.647 88.4729C135.675 88.2609 135.785 88.0707 135.953 87.9419C136.121 87.813 136.333 87.7529 136.542 87.7845L159.517 90.8099C159.956 90.8652 160.265 91.2697 160.206 91.7044C159.966 93.5277 161.251 95.2038 163.074 95.4438C163.286 95.4717 163.477 95.5813 163.606 95.7492C163.734 95.9172 163.794 96.1297 163.763 96.3383L161.468 113.752C161.413 114.19 161.009 114.499 160.574 114.44C160.136 114.385 159.826 113.981 159.885 113.546L162.089 96.8635C160.073 96.2537 158.656 94.4063 158.587 92.3016L137.064 89.4691C136.454 91.4845 134.607 92.9022 132.502 92.9708L130.934 104.893C130.879 105.331 130.474 105.641 130.039 105.582C129.866 105.556 129.712 105.48 129.596 105.372Z" fill="#0D8284"/>
<path d="M100.413 96.9734C100.301 96.8682 100.215 96.7339 100.164 96.5774L93.5 74.8802C93.3532 74.3963 93.6242 73.8875 94.1045 73.7374L132.448 61.9647C132.932 61.818 133.441 62.089 133.591 62.5693L140.271 84.3291C140.418 84.8131 140.147 85.3219 139.667 85.472C139.183 85.6188 138.674 85.3478 138.524 84.8675L132.109 63.9814L95.5096 75.2194L101.905 96.0463C102.051 96.5303 101.78 97.0391 101.3 97.1892C100.98 97.2776 100.642 97.1871 100.413 96.9734Z" fill="#0D8284"/>
<path d="M105.481 98.3721C105.383 98.2805 105.305 98.1601 105.261 98.0244L100.237 81.6671C100.106 81.246 100.344 80.8016 100.765 80.6711C102.52 80.1325 103.508 78.2659 102.972 76.5079C102.842 76.0867 103.08 75.6424 103.501 75.5118L125.654 68.709C125.856 68.6457 126.075 68.6664 126.261 68.7655C126.448 68.8647 126.587 69.0358 126.65 69.2376C127.189 70.9921 129.059 71.9832 130.813 71.4447C131.235 71.3142 131.682 71.5486 131.81 71.9734L135.425 83.7427C135.555 84.1638 135.317 84.6082 134.896 84.7387C134.475 84.8692 134.027 84.6278 133.9 84.21L130.506 73.1437C129.491 73.2841 128.457 73.1014 127.533 72.6125C126.609 72.1235 125.879 71.3676 125.425 70.4475L104.675 76.8189C104.958 78.9057 103.867 80.9622 101.982 81.8957L106.79 97.5534C106.92 97.9745 106.682 98.4189 106.261 98.5494C105.979 98.64 105.684 98.5621 105.481 98.3721Z" fill="#0D8284"/>
<path d="M169.985 166.577L150.13 161.003C144.763 159.495 141.74 153.809 143.497 148.518C145.142 143.565 150.386 140.782 155.409 142.193L175.931 147.955C177.246 148.325 177.986 149.717 177.552 151.012L172.894 165.035C172.502 166.241 171.217 166.925 169.985 166.577Z" fill="#82420A"/>
<g opacity="0.6">
<path opacity="0.6" d="M152.987 156.651C155.361 156.57 157.219 154.579 157.138 152.206C157.057 149.832 155.066 147.974 152.693 148.055C150.319 148.136 148.461 150.127 148.542 152.501C148.623 154.874 150.614 156.733 152.987 156.651Z" fill="white"/>
</g>
<g opacity="0.3">
<path opacity="0.3" d="M169.985 166.577L150.13 161.004C144.763 159.496 141.74 153.809 143.5 148.515C143.625 148.141 143.767 147.784 143.931 147.441C143.388 152.103 146.29 156.636 151 157.959L170.855 163.533C172.084 163.878 173.366 163.197 173.771 161.984L177.687 150.199C177.692 150.463 177.652 150.738 177.566 151.005L172.911 165.024C172.503 166.241 171.214 166.922 169.985 166.577Z" fill="#650000"/>
</g>
<g opacity="0.6">
<path opacity="0.6" d="M177.558 150.998C177.254 150.523 176.78 150.155 176.198 149.992L155.675 144.231C152.049 143.212 148.307 144.385 145.888 146.976C144.955 147.975 144.223 149.182 143.763 150.563C143.4 151.659 143.241 152.769 143.268 153.862C142.858 152.159 142.904 150.318 143.504 148.524C143.959 147.147 144.695 145.937 145.628 144.937C148.048 142.346 151.792 141.177 155.415 142.192L175.938 147.954C177.249 148.321 177.989 149.706 177.558 150.998Z" fill="white"/>
</g>
<path d="M145.484 159.422C144.63 158.624 143.901 157.678 143.337 156.607C141.953 154.002 141.703 151.028 142.631 148.228C144.432 142.801 150.153 139.763 155.655 141.309L176.178 147.07C177.055 147.318 177.775 147.895 178.204 148.703C178.632 149.512 178.709 150.427 178.423 151.296L173.764 165.318C173.206 166.994 171.437 167.934 169.732 167.458L149.877 161.885C148.208 161.414 146.712 160.568 145.484 159.422ZM176.295 149.173C176.125 149.014 175.92 148.898 175.689 148.832L155.167 143.07C150.602 141.788 145.859 144.311 144.367 148.808C143.595 151.128 143.803 153.594 144.95 155.753C146.097 157.913 148.025 159.468 150.376 160.126L170.231 165.7C170.991 165.913 171.786 165.492 172.035 164.745L176.693 150.722C176.824 150.334 176.786 149.924 176.594 149.561C176.515 149.412 176.412 149.282 176.295 149.173Z" fill="#650000"/>
<path d="M152.782 155.78C155.156 155.698 157.014 153.708 156.933 151.334C156.852 148.96 154.861 147.102 152.488 147.183C150.114 147.265 148.255 149.255 148.337 151.629C148.418 154.003 150.408 155.861 152.782 155.78Z" fill="#650000"/>
<g opacity="0.19">
<path opacity="0.19" d="M103.355 136.144L92.889 133.147C90.8214 132.557 89.6423 130.381 90.2754 128.326L94.1548 115.691C94.7719 113.683 96.8856 112.541 98.9003 113.129L109.279 116.154C111.329 116.749 112.501 118.903 111.885 120.947L108.092 133.554C107.489 135.57 105.38 136.722 103.355 136.144Z" fill="white"/>
</g>
<g opacity="0.19">
<path opacity="0.19" d="M99.9288 151.816L86.9327 147.864C85.5926 147.457 84.8368 146.037 85.2483 144.7L85.9223 142.506C86.3241 141.195 87.6984 140.444 89.0231 140.81L102.103 144.446C103.471 144.824 104.258 146.254 103.851 147.615L103.096 150.121C102.685 151.465 101.269 152.224 99.9288 151.816Z" fill="white"/>
</g>
<g opacity="0.19">
<path opacity="0.19" d="M152.582 150.389C153.568 150.261 154.31 149.716 154.239 149.171C154.168 148.627 153.311 148.289 152.326 148.417C151.34 148.545 150.598 149.091 150.669 149.635C150.74 150.18 151.597 150.518 152.582 150.389Z" fill="white"/>
</g>
<g clip-path="url(#clip0)">
<path d="M29.7981 93.4602C34.9213 87.8191 34.4941 78.9257 28.8439 73.5963C23.1937 68.2668 14.4601 68.5195 9.33692 74.1605C4.21372 79.8016 4.64093 88.695 10.2911 94.0245C15.9413 99.3539 24.6749 99.1013 29.7981 93.4602Z" fill="#EAB726"/>
<path d="M26.3502 96.219C26.1852 96.3291 26.0178 96.4368 25.847 96.5406C25.789 96.5755 25.731 96.6104 25.6729 96.6437C25.5406 96.7212 25.4082 96.7963 25.2741 96.8699C18.8636 100.345 10.7299 98.0553 6.84206 91.5623C3.13335 85.3696 4.59016 77.5238 9.98236 73.2696C10.4123 72.9299 10.8673 72.6138 11.3466 72.3229C11.5181 72.2183 11.6923 72.1184 11.8667 72.0227C12.0365 71.9294 12.208 71.8402 12.3805 71.755C12.909 71.4943 13.4472 71.2722 13.9936 71.087C14.8053 70.8108 15.6328 70.616 16.4666 70.5019C19.0518 70.1468 21.6886 70.5542 24.0622 71.6423C26.5806 72.796 28.8024 74.7148 30.3507 77.3012C34.2489 83.8125 32.4402 92.1496 26.3502 96.219Z" fill="#FFEB4D"/>
<path d="M19.3061 97.1648C18.1526 97.1982 16.9848 97.0659 15.8302 96.7631C12.614 95.9205 9.88743 93.8607 8.1524 90.963C6.41737 88.0653 5.88146 84.676 6.6439 81.4201C7.40633 78.1641 9.37526 75.4314 12.1882 73.725C17.9958 70.2016 25.6344 72.2028 29.216 78.1854C32.7977 84.1679 30.9878 91.9008 25.1802 95.4233C23.3759 96.5165 21.3645 97.1053 19.3061 97.1648ZM18.075 72.3299C16.1135 72.3866 14.1493 72.9327 12.3621 74.0165C9.62492 75.677 7.70894 78.336 6.96693 81.5039C6.22493 84.6717 6.74691 87.9699 8.43524 90.7896C10.1236 93.6093 12.7767 95.6136 15.9059 96.4336C19.0351 97.2537 22.2666 96.79 25.0038 95.1295C30.6545 91.7014 32.4163 84.1774 28.9307 78.3564C26.5478 74.3765 22.318 72.2072 18.075 72.3299Z" fill="#EAB726"/>
<path d="M14.8042 79.28L19.9253 90.5005C20.3816 91.5004 19.9638 92.668 18.9907 93.1121C18.0176 93.5563 16.8618 93.1069 16.4054 92.107L11.2843 80.8865C10.828 79.8867 11.2458 78.719 12.2189 78.2749C13.192 77.8308 14.3478 78.2802 14.8042 79.28Z" fill="#EAB726"/>
<path d="M19.7498 85.726L17.3027 84.0537L17.1816 83.7883C17.6195 83.2529 17.9475 82.7153 18.1958 82.162L19.7498 85.726Z" fill="#EAB726"/>
<path d="M18.169 82.1819C18.8607 80.6283 18.854 78.9758 18.506 76.957C18.3578 76.1074 18.785 75.2785 19.5479 74.9303C20.6951 74.4067 22.03 75.1846 22.1943 76.4669C22.5559 79.3743 22.0406 81.1234 21.2635 82.6489L26.9746 86.3365C28.1904 87.1239 28.0916 88.9588 26.7942 89.551C26.2296 89.8087 25.569 89.7448 25.0521 89.3915L19.7142 85.7424L18.169 82.1819Z" fill="#EAB726"/>
</g>
<g clip-path="url(#clip1)">
<path d="M73.7761 51.0609C86.0324 48.8687 94.3482 36.9321 92.3499 24.3998C90.3516 11.8675 78.796 3.48515 66.5397 5.67734C54.2834 7.86953 45.9676 19.8061 47.9659 32.3384C49.9642 44.8708 61.5198 53.2531 73.7761 51.0609Z" fill="#EAB726"/>
<path d="M66.5645 51.195C66.2412 51.173 65.9171 51.1455 65.5925 51.1094C65.4826 51.0968 65.3728 51.0841 65.2645 51.0692C65.0159 51.0377 64.7696 51.0028 64.5227 50.9643C52.7601 49.0695 44.5162 37.9948 45.9592 25.714C47.3347 14.0003 57.0442 5.29852 68.2656 5.16959C69.1609 5.15869 70.065 5.20324 70.9754 5.30464C71.3018 5.34035 71.6268 5.38487 71.948 5.43482C72.2607 5.48345 72.5716 5.53904 72.8799 5.60082C73.8238 5.79031 74.742 6.03954 75.6338 6.34482C76.9598 6.79675 78.2252 7.36978 79.4181 8.05367C83.1181 10.1721 86.1247 13.3288 88.1117 17.1042C90.2208 21.1087 91.183 25.8079 90.6076 30.6993C89.1598 43.0143 78.5049 52.0011 66.5645 51.195Z" fill="#FFEB4D"/>
<path d="M56.5033 45.3939C54.9771 44.2868 53.5975 42.951 52.4052 41.4078C49.0827 37.1099 47.6078 31.7249 48.2518 26.2442C48.8959 20.7635 51.5822 15.8424 55.8159 12.3886C60.0496 8.93485 65.323 7.36145 70.6655 7.95803C81.6957 9.18922 89.5866 19.3966 88.2563 30.7115C86.9261 42.0264 76.8722 50.23 65.8427 48.9977C62.4174 48.6133 59.2268 47.3695 56.5033 45.3939ZM79.6759 12.0227C77.0806 10.1402 73.9938 8.88824 70.5999 8.50868C65.4013 7.92819 60.2698 9.45909 56.1504 12.8192C52.031 16.1794 49.4176 20.9687 48.7909 26.3018C48.1642 31.6349 49.5993 36.8749 52.8316 41.0568C56.064 45.2387 60.7088 47.861 65.9074 48.4415C76.6395 49.6395 86.423 41.6582 87.7164 30.6484C88.6012 23.121 85.2899 16.0951 79.6759 12.0227Z" fill="#EAB726"/>
<path d="M68.5124 17.7571L63.9512 37.3865C63.5448 39.1357 61.8396 40.2302 60.1373 39.8347C58.435 39.4391 57.3871 37.7048 57.7935 35.9557L62.3547 16.3263C62.7612 14.5771 64.4664 13.4826 66.1687 13.8781C67.871 14.2737 68.9189 16.008 68.5124 17.7571Z" fill="#EAB726"/>
<path d="M68.4846 31.0314L66.9851 26.4268L67.093 25.9625C68.1936 25.7062 69.1542 25.3376 70.0273 24.869L68.4846 31.0314Z" fill="#EAB726"/>
<path d="M69.9736 24.8677C72.4181 23.5466 74.0574 21.4011 75.6202 18.4412C76.2755 17.1937 77.6552 16.547 78.9897 16.8571C80.9968 17.3235 81.9487 19.6614 80.8826 21.4849C78.4513 25.6086 76.0401 27.3585 73.513 28.558L77.2275 39.026C78.0158 41.2576 76.0581 43.534 73.7884 43.0066C72.8007 42.777 72.0094 42.0355 71.6927 41.0629L68.4229 31.0169L69.9736 24.8677Z" fill="#EAB726"/>
</g>
<g clip-path="url(#clip2)">
<path d="M21.3291 38.7668C25.0878 35.8994 25.8246 30.425 22.9748 26.5394C20.1249 22.6538 14.7676 21.8284 11.0089 24.6958C7.25017 27.5632 6.51337 33.0376 9.36321 36.9232C12.213 40.8088 17.5703 41.6342 21.3291 38.7668Z" fill="#EAB726"/>
<path d="M18.9171 40.0636C18.8041 40.1123 18.6898 40.1592 18.574 40.2034C18.5347 40.2182 18.4954 40.233 18.4562 40.2468C18.3668 40.2792 18.2775 40.3102 18.1875 40.34C13.8862 41.7415 9.18006 39.4321 7.53608 35.0342C5.9677 30.8396 7.73657 26.2158 11.5039 24.2248C11.8043 24.0657 12.1174 23.9238 12.4425 23.8001C12.5589 23.7555 12.6764 23.7141 12.7935 23.6752C12.9076 23.6374 13.0222 23.6022 13.137 23.5696C13.4887 23.4698 13.8421 23.3946 14.1962 23.3429C14.7225 23.2654 15.2493 23.2393 15.7708 23.2632C17.388 23.3365 18.9513 23.8808 20.2775 24.811C21.6848 25.7974 22.8253 27.2174 23.4799 28.9692C25.1281 33.3794 23.0895 38.2636 18.9171 40.0636Z" fill="#FFEB4D"/>
<path d="M14.5135 39.8506C13.8059 39.7416 13.1082 39.5299 12.4377 39.2156C10.5697 38.3407 9.13708 36.7781 8.40342 34.8154C7.66976 32.8527 7.7229 30.7246 8.5533 28.8234C9.38369 26.9222 10.8916 25.4757 12.7993 24.75C16.7381 23.2515 21.1745 25.3292 22.689 29.3813C24.2034 33.4334 22.2317 37.9488 18.293 39.4468C17.0695 39.9114 15.7761 40.0451 14.5135 39.8506ZM16.5477 24.5589C15.3446 24.3736 14.0848 24.4865 12.8728 24.9473C11.0164 25.6535 9.54905 27.0611 8.741 28.9108C7.93295 30.7605 7.88154 32.8315 8.59545 34.7413C9.30936 36.6512 10.7034 38.1717 12.5208 39.0231C14.3382 39.8744 16.3619 39.9539 18.2183 39.2477C22.0507 37.7898 23.9696 33.3964 22.4957 29.4537C21.4881 26.758 19.1505 24.9599 16.5477 24.5589Z" fill="#EAB726"/>
<path d="M13.7732 28.4329L15.6395 35.8537C15.8058 36.515 15.4198 37.1806 14.7763 37.3424C14.1328 37.5043 13.4779 37.1004 13.3116 36.4392L11.4453 29.0184C11.279 28.3571 11.6649 27.6915 12.3085 27.5297C12.952 27.3678 13.6069 27.7717 13.7732 28.4329Z" fill="#EAB726"/>
<path d="M16.0684 32.9207L14.7629 31.6258L14.7187 31.4503C15.046 31.1727 15.3064 30.8815 15.5199 30.5718L16.0684 32.9207Z" fill="#EAB726"/>
<path d="M15.5002 30.5809C16.0965 29.7105 16.2778 28.7014 16.2918 27.4306C16.2967 26.8955 16.6504 26.4377 17.1549 26.3108C17.9136 26.12 18.6408 26.7443 18.5973 27.5452C18.4919 29.3598 17.9812 30.3692 17.336 31.2129L20.4071 34.1035C21.0607 34.7203 20.7946 35.8289 19.9365 36.0446C19.5631 36.1386 19.1672 36.0255 18.8914 35.752L16.0437 32.9267L15.5002 30.5809Z" fill="#EAB726"/>
</g>
<defs>
<clipPath id="clip0">
<rect width="28.8218" height="28.8218" fill="white" transform="translate(0 76.9669) rotate(-24.5322)"/>
</clipPath>
<clipPath id="clip1">
<rect width="47.0919" height="47.0919" fill="white" transform="translate(51.6582) rotate(13.0815)"/>
</clipPath>
<clipPath id="clip2">
<rect width="17.8808" height="17.8808" fill="white" transform="translate(5 25.3611) rotate(-14.1166)"/>
</clipPath>
</defs>
</svg>
