<?xml version="1.0" encoding="utf-8"?>
<!-- Generator: Adobe Illustrator 24.2.1, SVG Export Plug-In . SVG Version: 6.00 Build 0)  -->
<svg version="1.1" id="Capa_1" xmlns="http://www.w3.org/2000/svg" xmlns:xlink="http://www.w3.org/1999/xlink" x="0px" y="0px"
	 viewBox="0 0 215 222" style="enable-background:new 0 0 215 222;" xml:space="preserve">
<style type="text/css">
	.st0{fill:#FFA600;}
	.st1{fill:#FFEC66;}
	.st2{fill:#F7A491;}
	.st3{fill:#FD6000;}
	.st4{fill:#C44500;}
	.st5{fill:#F77E00;}
	.st6{fill:#F05B00;}
	.st7{fill:#FF9100;}
	.st8{fill:#FF8633;}
	.st9{fill:#FFCD7D;}
	.st10{fill:#69BEA0;}
	.st11{fill:#E1F2EC;}
	.st12{opacity:0.3;}
	.st13{opacity:0.3;fill:#650000;enable-background:new    ;}
	.st14{opacity:0.6;}
	.st15{opacity:0.6;fill:#FFFFFF;enable-background:new    ;}
	.st16{opacity:0.55;}
	.st17{opacity:0.55;fill:#FFFFFF;enable-background:new    ;}
	.st18{fill:#0D8284;}
</style>
<g>
	<path class="st0" d="M90.6,20.3c4.2,12.2-2.3,25.5-14.5,29.7s-25.5-2.4-29.7-14.5S48.7,9.9,61,5.7S86.4,8,90.6,20.3z"/>
	<path class="st1" d="M87,21.5c3.5,10.2-1.9,21.4-12.1,24.9C64.7,49.9,53.6,44.5,50,34.3C46.5,24,51.9,12.9,62.1,9.4
		C72.4,5.8,83.5,11.3,87,21.5z"/>
	<g>
		<path class="st0" d="M66.9,41.7l0.1-3.3c-1.5-0.1-2.9-0.4-4.1-0.8c-1-0.3-1.6-1.4-1.3-2.4l0.1-0.1c0.3-1.1,1.5-1.8,2.6-1.4
			c1.1,0.4,2.4,0.7,3.7,0.7c2,0.1,3.3-0.7,3.3-2.1c0-1.3-1.1-2.2-3.6-3c-3.6-1.3-6.2-3-6.1-6.4c0.1-3,2.2-5.3,5.9-6l0.1-3.3l3.4,0.1
			l-0.1,3c1.3,0.1,2.3,0.3,3.1,0.5c1,0.3,1.6,1.4,1.4,2.4l0,0c-0.3,1.1-1.4,1.7-2.5,1.4c-0.8-0.3-1.8-0.4-3-0.5
			c-2.2-0.1-3,0.9-3,1.8c0,1.1,1.1,1.8,4.1,3c4.1,1.6,5.7,3.4,5.6,6.6c-0.1,3-2.2,5.6-6.2,6.3l-0.1,3.5L66.9,41.7z"/>
	</g>
</g>
<g>
	<g>
		<g>
			<path class="st0" d="M23.8,26.5c2.9,4.2,1.9,9.9-2.2,12.8c-4.2,2.9-9.9,1.9-12.8-2.2c-2.9-4.2-1.9-9.9,2.2-12.8
				C15.2,21.3,20.9,22.3,23.8,26.5z"/>
			<path class="st1" d="M22.6,27.3c2.4,3.5,1.6,8.3-1.9,10.7c-3.5,2.4-8.3,1.6-10.7-1.9c-2.4-3.5-1.6-8.3,1.9-10.7
				C15.3,23,20.2,23.8,22.6,27.3z"/>
			<g>
				<path class="st0" d="M17.2,37.2l-0.3-1.2c-0.6,0.1-1.1,0.2-1.6,0.2c-0.4,0-0.7-0.4-0.7-0.8v-0.1c0-0.5,0.4-0.8,0.8-0.8
					c0.5,0,1,0,1.5-0.2c0.8-0.2,1.2-0.6,1-1.2c-0.1-0.5-0.6-0.7-1.7-0.8c-1.5-0.1-2.7-0.5-3-1.8c-0.3-1.2,0.3-2.3,1.6-2.9l-0.3-1.2
					l1.3-0.4l0.3,1.2c0.5-0.1,0.9-0.2,1.2-0.2c0.4,0,0.8,0.4,0.8,0.8l0,0c0,0.5-0.4,0.8-0.8,0.8c-0.3,0-0.7,0-1.2,0.2
					c-0.9,0.2-1,0.7-0.9,1c0.1,0.4,0.7,0.6,1.9,0.7c1.7,0.1,2.5,0.7,2.9,1.8c0.3,1.2-0.3,2.4-1.7,3.1l0.4,1.3L17.2,37.2z"/>
			</g>
		</g>
	</g>
	<path class="st2" d="M17.8,41l1.1-1c0,0-0.5-0.6-0.3-0.7c0.4-0.2,1,0.6,0.9,0.7c-0.1,0.2-0.7,0.8-0.7,0.8L17.8,41z"/>
</g>
<g>
	<g>
		<g>
			<path class="st0" d="M40,75.4c4.4,6.3,2.9,14.9-3.4,19.3c-6.3,4.4-14.9,2.9-19.3-3.4C13,85,14.5,76.4,20.7,72
				C27,67.6,35.7,69.1,40,75.4z"/>
			<path class="st1" d="M38.2,76.6c3.7,5.2,2.4,12.5-2.9,16.2c-5.2,3.7-12.5,2.4-16.2-2.9c-3.7-5.2-2.4-12.5,2.9-16.2
				C27.3,70.1,34.6,71.4,38.2,76.6z"/>
			<g>
				<path class="st0" d="M30.1,91.5l-0.5-1.9c-0.8,0.2-1.7,0.3-2.5,0.2c-0.6,0-1.1-0.5-1.1-1.2v-0.1c0-0.7,0.6-1.3,1.3-1.2
					c0.7,0,1.5,0,2.2-0.2c1.1-0.3,1.8-1,1.6-1.7c-0.2-0.8-1-1.1-2.5-1.1c-2.3-0.2-4-0.7-4.5-2.7c-0.5-1.7,0.4-3.4,2.4-4.4l-0.5-1.9
					l1.9-0.5l0.5,1.7c0.7-0.2,1.3-0.2,1.9-0.2c0.6,0,1.2,0.5,1.2,1.2l0,0c0,0.7-0.5,1.2-1.2,1.2c-0.5,0-1.1,0-1.8,0.2
					c-1.3,0.3-1.6,1-1.4,1.6c0.2,0.6,1,0.9,2.8,1.1c2.6,0.2,3.8,1,4.3,2.8c0.5,1.7-0.4,3.6-2.5,4.6l0.5,2L30.1,91.5z"/>
			</g>
		</g>
	</g>
	<path class="st2" d="M31.1,97.2l1.7-1.5c0,0-0.8-1-0.5-1.1c0.5-0.3,1.4,0.8,1.4,1.1c-0.1,0.3-1.1,1.2-1.1,1.2L31.1,97.2z"/>
</g>
<g>
	<g>
		<path class="st3" d="M187.3,149.7c-0.1,0.6-0.5,1.1-1,1.4s-1.1,0.4-1.7,0.3l-9.1-2l1-4.5l9.1,2
			C186.8,147.3,187.6,148.5,187.3,149.7z"/>
		<path class="st4" d="M192,115l-14.9,67.7c-0.3,1.4-1.8,2.4-3.2,2L68.2,161.5l14-63.5c0,0,0.5-2.1,1-4.7c0.3-1.3,1.1-2.4,2.1-3
			c1-0.7,2.3-0.9,3.6-0.6l101,22.2C191.4,112.1,192.3,113.5,192,115z"/>
		<path class="st5" d="M181.9,120.3l-0.9,4.3l-91.4-20.1c-2.6-0.6-4.3-3.2-3.7-5.8c0.3-1.3,1.1-2.3,2.1-3c1-0.7,2.3-0.9,3.6-0.6
			l86.4,19C180.7,114.7,182.5,117.5,181.9,120.3z"/>
		<path class="st6" d="M86.9,99c-2.6-0.6-4.2-3.1-3.7-5.7l-1,4.7l-15.5,70.3c-0.3,1.4,0.6,2.9,2,3.2l99.7,21.9
			c1.4,0.3,2.9-0.6,3.2-2l14.9-67.7c0.3-1.4-0.6-2.9-2-3.2L86.9,99z"/>
		<g>
			<g>
				<path class="st7" d="M72.5,166.8l-2.4-0.5c-0.3-0.1-0.4-0.3-0.4-0.6c0.1-0.3,0.3-0.4,0.6-0.4l2.4,0.5c0.3,0.1,0.4,0.3,0.4,0.6
					C73,166.7,72.7,166.9,72.5,166.8z"/>
			</g>
			<g>
				<path class="st7" d="M164.3,187l-2.6-0.6c-0.3-0.1-0.4-0.3-0.4-0.6c0.1-0.3,0.3-0.4,0.6-0.4l2.6,0.6c0.6,0.1,1.1,0,1.6-0.4
					c0.2-0.2,0.5-0.1,0.7,0.1c0.2,0.2,0.1,0.5-0.1,0.7C166.1,187,165.2,187.2,164.3,187z M157,185.4l-4.7-1
					c-0.3-0.1-0.4-0.3-0.4-0.6c0.1-0.3,0.3-0.4,0.6-0.4l4.7,1c0.3,0.1,0.4,0.3,0.4,0.6C157.5,185.3,157.3,185.5,157,185.4z
					 M147.6,183.4l-4.7-1c-0.3-0.1-0.4-0.3-0.4-0.6c0.1-0.3,0.3-0.4,0.6-0.4l4.7,1c0.3,0.1,0.4,0.3,0.4,0.6
					C148.1,183.2,147.9,183.4,147.6,183.4z M138.2,181.3l-4.7-1c-0.3-0.1-0.4-0.3-0.4-0.6c0.1-0.3,0.3-0.4,0.6-0.4l4.7,1
					c0.3,0.1,0.4,0.3,0.4,0.6C138.7,181.2,138.5,181.3,138.2,181.3z M128.8,179.2l-4.7-1c-0.3-0.1-0.4-0.3-0.4-0.6
					c0.1-0.3,0.3-0.4,0.6-0.4l4.7,1c0.3,0.1,0.4,0.3,0.4,0.6C129.3,179.1,129.1,179.3,128.8,179.2z M119.4,177.2l-4.7-1
					c-0.3-0.1-0.4-0.3-0.4-0.6c0.1-0.3,0.3-0.4,0.6-0.4l4.7,1c0.3,0.1,0.4,0.3,0.4,0.6C120,177.1,119.7,177.2,119.4,177.2z
					 M110,175.1l-4.7-1c-0.3-0.1-0.4-0.3-0.4-0.6c0.1-0.3,0.3-0.4,0.6-0.4l4.7,1c0.3,0.1,0.4,0.3,0.4,0.6
					C110.6,175,110.3,175.2,110,175.1z M100.7,173l-4.7-1c-0.3-0.1-0.4-0.3-0.4-0.6c0.1-0.3,0.3-0.4,0.6-0.4l4.7,1
					c0.3,0.1,0.4,0.3,0.4,0.6C101.2,172.9,100.9,173.1,100.7,173z M91.3,171l-4.7-1c-0.3-0.1-0.4-0.3-0.4-0.6
					c0.1-0.3,0.3-0.4,0.6-0.4l4.7,1c0.3,0.1,0.4,0.3,0.4,0.6C91.8,170.9,91.5,171,91.3,171z M81.9,168.9l-4.7-1
					c-0.3-0.1-0.4-0.3-0.4-0.6c0.1-0.3,0.3-0.4,0.6-0.4l4.7,1c0.3,0.1,0.4,0.3,0.4,0.6C82.4,168.8,82.1,169,81.9,168.9z
					 M167.8,182.1c-0.3-0.1-0.4-0.3-0.4-0.6l1-4.7c0.1-0.3,0.3-0.4,0.6-0.4c0.3,0.1,0.4,0.3,0.4,0.6l-1,4.7
					C168.4,182,168.1,182.1,167.8,182.1z M169.9,172.7c-0.3-0.1-0.4-0.3-0.4-0.6l1-4.7c0.1-0.3,0.3-0.4,0.6-0.4
					c0.3,0.1,0.4,0.3,0.4,0.6l-1,4.7C170.4,172.6,170.2,172.7,169.9,172.7z M172,163.3c-0.3-0.1-0.4-0.3-0.4-0.6l1-4.7
					c0.1-0.3,0.3-0.4,0.6-0.4c0.3,0.1,0.4,0.3,0.4,0.6l-1,4.7C172.5,163.2,172.2,163.4,172,163.3z M174,153.9
					c-0.3-0.1-0.4-0.3-0.4-0.6l1-4.7c0.1-0.3,0.3-0.4,0.6-0.4c0.3,0.1,0.4,0.3,0.4,0.6l-1,4.7C174.6,153.8,174.3,154,174,153.9z
					 M176.1,144.5c-0.3-0.1-0.4-0.3-0.4-0.6l1-4.7c0.1-0.3,0.3-0.4,0.6-0.4c0.3,0.1,0.4,0.3,0.4,0.6l-1,4.7
					C176.6,144.4,176.4,144.6,176.1,144.5z M178.2,135.1c-0.3-0.1-0.4-0.3-0.4-0.6l1-4.7c0.1-0.3,0.3-0.4,0.6-0.4
					c0.3,0.1,0.4,0.3,0.4,0.6l-1,4.7C178.7,135,178.4,135.2,178.2,135.1z M178.9,125.9c-0.1,0-0.1-0.1-0.2-0.1
					c-0.2-0.2-0.5-0.3-0.8-0.4l-3.6-0.8c-0.3-0.1-0.4-0.3-0.4-0.6s0.3-0.4,0.6-0.4l3.6,0.8c0.5,0.1,0.9,0.3,1.2,0.6
					c0.2,0.2,0.2,0.5,0.1,0.7C179.3,125.9,179.1,125.9,178.9,125.9z M169.6,123.6l-4.7-1c-0.3-0.1-0.4-0.3-0.4-0.6
					c0.1-0.3,0.3-0.4,0.6-0.4l4.7,1c0.3,0.1,0.4,0.3,0.4,0.6S169.9,123.6,169.6,123.6z M160.2,121.5l-4.7-1
					c-0.3-0.1-0.4-0.3-0.4-0.6c0.1-0.3,0.3-0.4,0.6-0.4l4.7,1c0.3,0.1,0.4,0.3,0.4,0.6S160.5,121.6,160.2,121.5z M150.8,119.4
					l-4.7-1c-0.3-0.1-0.4-0.3-0.4-0.6s0.3-0.4,0.6-0.4l4.7,1c0.3,0.1,0.4,0.3,0.4,0.6S151.1,119.5,150.8,119.4z M141.4,117.4l-4.7-1
					c-0.3-0.1-0.4-0.3-0.4-0.6s0.3-0.4,0.6-0.4l4.7,1c0.3,0.1,0.4,0.3,0.4,0.6S141.7,117.4,141.4,117.4z M132,115.3l-4.7-1
					c-0.3-0.1-0.4-0.3-0.4-0.6c0.1-0.3,0.3-0.4,0.6-0.4l4.7,1c0.3,0.1,0.4,0.3,0.4,0.6S132.3,115.4,132,115.3z M122.7,113.3l-4.7-1
					c-0.3-0.1-0.4-0.3-0.4-0.6s0.3-0.4,0.6-0.4l4.7,1c0.3,0.1,0.4,0.3,0.4,0.6C123.2,113.1,122.9,113.3,122.7,113.3z M113.3,111.2
					l-4.7-1c-0.3-0.1-0.4-0.3-0.4-0.6s0.3-0.4,0.6-0.4l4.7,1c0.3,0.1,0.4,0.3,0.4,0.6S113.5,111.2,113.3,111.2z M103.9,109.1l-4.7-1
					c-0.3-0.1-0.4-0.3-0.4-0.6s0.3-0.4,0.6-0.4l4.7,1c0.3,0.1,0.4,0.3,0.4,0.6C104.4,109,104.1,109.2,103.9,109.1z M94.5,107.1
					l-4.7-1c-0.3-0.1-0.4-0.3-0.4-0.6c0.1-0.3,0.3-0.4,0.6-0.4l4.7,1c0.3,0.1,0.4,0.3,0.4,0.6C95,106.9,94.7,107.1,94.5,107.1z"/>
			</g>
			<g>
				<path class="st7" d="M85.1,104.9C85.1,104.9,85,104.9,85.1,104.9c-0.9-0.4-1.7-0.9-2.2-1.5c-0.2-0.2-0.2-0.5,0-0.7
					c0.2-0.2,0.5-0.2,0.7,0c0.5,0.5,1.1,0.9,1.8,1.2c0.2,0.1,0.4,0.4,0.3,0.6C85.6,104.8,85.3,105,85.1,104.9z"/>
			</g>
		</g>
		<path class="st8" d="M186.3,151.2c-0.5,0.3-1.1,0.4-1.7,0.3l-17.4-3.8c-4.6-1-9.1,1.9-10.1,6.5l0,0c-1,4.6,1.9,9.1,6.5,10.1
			l17.3,3.8c1.3,0.3,2.6-0.5,2.9-1.8l3.1-14.2l0.5-2.2C187.2,150.4,186.8,150.9,186.3,151.2z"/>
		<circle class="st9" cx="165.4" cy="155.9" r="3.9"/>
	</g>
	<g>
		<path class="st10" d="M137.6,109.9l-13.6-3.3l-19-4.6l-3.2-9l-4.1-11.3l35.9-12.9l7.3,20.4l-0.7,4.6L137.6,109.9z"/>
		<path class="st10" d="M136.3,88.8l-4-11c-2,0.7-4.3-0.3-5-2.4l-20.7,7.5c0.7,2-0.3,4.3-2.4,5l2.3,6.3l3.3,9l19.3,4.9l1.4-15.4
			l0.2-1l0.2-3.1L136.3,88.8z"/>
		<path class="st11" d="M122.2,100.9c2.7-0.2,4.7-2.6,4.5-5.3c-0.2-2.7-2.6-4.7-5.3-4.5c-2.7,0.2-4.7,2.6-4.5,5.3
			C117.2,99.1,119.6,101.1,122.2,100.9z"/>
		<g class="st12">
			<path class="st13" d="M137.6,109.9l-13.6-3.3l0.2-2.7l0.3-3.8l0.6-7.6l10.3,0.8l4.7,0.4L137.6,109.9z"/>
		</g>
		<path class="st10" d="M166.4,116.7l0.7-8.1l0.3-3.8l1.1-13.4l-27.7-2.3l-10.3-0.9l-0.6,7.6l-0.3,3.8l-0.7,8.1"/>
		<path class="st10" d="M162.4,115.8l0.7-8.1l0.7-8.5c-2.2-0.2-3.8-2.1-3.6-4.2l-22-1.8c-0.2,2.2-2.1,3.8-4.2,3.6l-0.3,4l-0.7,8.1"
			/>
		<g class="st14">
			<path class="st15" d="M166.4,116.7l-1.7-0.4l0.5-6.1l0.3-3.8l1.1-13.4l-27.7-2.3l-8.6-0.7l0.1-1.8l10.3,0.9l27.7,2.3l-1.1,13.4
				l-0.3,3.8L166.4,116.7z"/>
		</g>
		<g class="st16">
			<path class="st17" d="M140.8,89.2l-2.1-0.2l-6.4-17.6l-34,12.3l-0.7-1.9l35.9-12.9L140.8,89.2z"/>
		</g>
		<path class="st11" d="M149.1,112.5c2.7-0.2,4.7-2.6,4.5-5.3c-0.2-2.7-2.6-4.7-5.3-4.5c-2.7,0.2-4.7,2.6-4.5,5.3
			C144.1,110.7,146.5,112.7,149.1,112.5z"/>
		<path class="st18" d="M128.3,108.5c-0.2-0.2-0.3-0.4-0.3-0.7l1.6-19.5c0-0.2,0.1-0.4,0.3-0.6c0.2-0.1,0.4-0.2,0.6-0.2l38,3.1
			c0.2,0,0.4,0.1,0.6,0.3c0.1,0.2,0.2,0.4,0.2,0.6l-2.1,25.3c0,0.5-0.5,0.8-0.9,0.8c-0.5,0-0.8-0.5-0.8-0.9l2-24.4l-36.3-3
			l-1.5,18.6c0,0.5-0.5,0.8-0.9,0.8C128.6,108.7,128.5,108.6,128.3,108.5z"/>
		<path class="st18" d="M132.5,109.4c-0.2-0.2-0.3-0.4-0.3-0.6l1-12.1c0-0.4,0.4-0.7,0.8-0.7c1.7,0.1,3.3-1.2,3.4-2.9
			c0-0.2,0.1-0.4,0.3-0.5c0.2-0.1,0.4-0.2,0.6-0.2l22,1.8c0.4,0,0.7,0.4,0.7,0.8c-0.1,1.7,1.2,3.3,2.9,3.4c0.2,0,0.4,0.1,0.5,0.3
			c0.1,0.2,0.2,0.4,0.2,0.6l-1.4,16.6c0,0.4-0.4,0.7-0.8,0.7c-0.4,0-0.7-0.4-0.7-0.8l1.3-15.9c-1.9-0.5-3.4-2.2-3.5-4.2l-20.6-1.7
			c-0.5,1.9-2.2,3.4-4.2,3.5l-0.9,11.4c0,0.4-0.4,0.7-0.8,0.7C132.7,109.5,132.6,109.4,132.5,109.4z"/>
		<path class="st18" d="M104.4,102.7c-0.1-0.1-0.2-0.2-0.3-0.4l-7.3-20.3c-0.2-0.5,0.1-0.9,0.5-1.1L133.2,68
			c0.5-0.2,0.9,0.1,1.1,0.5l7.3,20.4c0.2,0.5-0.1,0.9-0.5,1.1c-0.5,0.2-0.9-0.1-1.1-0.5l-7.1-19.5L98.7,82.3l7,19.5
			c0.2,0.5-0.1,0.9-0.5,1.1C104.9,103,104.6,102.9,104.4,102.7z"/>
		<path class="st18" d="M109.2,103.8c-0.1-0.1-0.2-0.2-0.2-0.3l-5.5-15.3c-0.1-0.4,0.1-0.8,0.5-1c1.6-0.6,2.5-2.4,1.9-4.1
			c-0.1-0.4,0.1-0.8,0.5-1l20.7-7.5c0.2-0.1,0.4-0.1,0.6,0c0.2,0.1,0.3,0.2,0.4,0.4c0.6,1.6,2.4,2.5,4.1,1.9c0.4-0.1,0.8,0.1,1,0.5
			l4,11c0.1,0.4-0.1,0.8-0.5,1c-0.4,0.1-0.8-0.1-1-0.5l-3.7-10.4c-1,0.2-1.9,0.1-2.8-0.4c-0.9-0.4-1.6-1.1-2.1-2l-19.4,7
			c0.4,2-0.6,4-2.3,4.9l5.3,14.6c0.1,0.4-0.1,0.8-0.5,1C109.7,104,109.4,104,109.2,103.8z"/>
	</g>
</g>
</svg>
