<svg width="1337" height="766" viewBox="0 0 1337 766" fill="none" xmlns="http://www.w3.org/2000/svg">
<rect width="1336" height="766" fill="white"/>
<mask id="mask0" mask-type="alpha" maskUnits="userSpaceOnUse" x="0" y="0" width="421" height="766">
<rect width="421" height="766" transform="matrix(1 0 0 -1 0 766)" fill="#C4C4C4"/>
</mask>
<g mask="url(#mask0)">
<path d="M-511.118 355.515L-319.758 1192.2C-319.758 1192.2 -82.1246 1281.14 39.4059 1176.92C160.944 1072.71 39.1691 988.945 136.945 957.278C140.255 956.203 143.652 955.681 146.917 954.934C147.695 954.759 148.459 954.571 149.214 954.359C205.908 938.533 235.175 896.074 246.229 846.35C246.587 844.744 246.924 843.133 247.241 841.516C262.776 762.697 234.096 667.491 196.883 630.95C133.564 568.78 77.5093 582.079 61.6333 427.426C45.7537 272.774 -115.716 279.516 -185.684 336.723C-284.962 417.892 -298.879 231.983 -511.118 355.515Z" fill="#FFF394"/>
</g>
<mask id="mask1" mask-type="alpha" maskUnits="userSpaceOnUse" x="916" y="0" width="421" height="766">
<rect width="421" height="766" transform="matrix(-1 0 0 1 1337 0)" fill="#C4C4C4"/>
</mask>
<g mask="url(#mask1)">
<path d="M1866.98 348.269L1566.29 -169.483C1566.29 -169.483 1361.9 -163.459 1284 -58.1245C1206.09 47.2138 1305.68 39.0159 1269.68 94.1182C1263.26 103.936 1258.54 107.899 1251.85 114.05C1251.85 114.05 1243.03 120.592 1236.45 124.761C1194.28 151.502 1178.61 188.729 1178.68 225.801C1178.68 226.998 1178.7 228.193 1178.74 229.387C1180.43 287.592 1220.12 344.566 1256.16 359.07C1317.46 383.745 1359.58 358.909 1399.69 460.088C1439.8 561.266 1566.73 511.288 1612.08 452.551C1676.42 369.209 1720.53 492.289 1866.98 348.269Z" fill="#FFF394"/>
</g>
<path d="M1241.68 102.902C1254.73 94.132 1258.42 76.2981 1249.92 63.0693C1241.41 49.8404 1223.94 46.2261 1210.88 54.9965C1197.83 63.7668 1194.14 81.6007 1202.64 94.8295C1211.15 108.058 1228.62 111.673 1241.68 102.902Z" fill="#EAB726"/>
<path d="M1244.01 103.407C1257.05 94.6219 1260.74 76.7686 1252.26 63.5304C1243.77 50.2923 1226.31 46.6823 1213.27 55.4673C1200.23 64.2523 1196.53 82.1056 1205.02 95.3437C1213.51 108.582 1230.96 112.192 1244.01 103.407Z" fill="#FFEB4D"/>
<path d="M1207.06 94.2632C1203.32 88.4306 1202.04 81.4372 1203.46 74.5747C1204.88 67.7122 1208.82 61.8015 1214.57 57.9312C1220.32 54.0607 1227.18 52.6917 1233.89 54.0793C1240.6 55.467 1246.35 59.4434 1250.09 65.2777C1253.83 71.1103 1255.11 78.1037 1253.69 84.9645C1252.27 91.8253 1248.32 97.7377 1242.58 101.61C1236.83 105.48 1229.97 106.849 1223.26 105.462C1216.55 104.074 1210.8 100.096 1207.06 94.2632ZM1204.96 74.8866C1202.2 88.207 1210.55 101.236 1223.58 103.93C1236.6 106.623 1249.44 97.9768 1252.19 84.6564C1254.95 71.336 1246.59 58.3068 1233.57 55.6133C1220.55 52.9199 1207.71 61.5645 1204.96 74.8866Z" fill="#EAB726"/>
<path d="M1230.5 87.9431C1230.68 87.402 1230.76 86.9002 1230.75 86.4382C1230.73 85.9759 1230.61 85.5203 1230.39 85.073C1230.16 84.6236 1229.83 84.1685 1229.38 83.7056C1228.94 83.2427 1228.38 82.7461 1227.7 82.2155C1226.53 81.2932 1225.49 80.387 1224.58 79.5021C1223.67 78.6155 1222.94 77.7018 1222.4 76.7598C1221.85 75.8175 1221.52 74.8181 1221.39 73.7603C1221.27 72.7024 1221.42 71.5425 1221.83 70.2806C1222.19 69.1866 1222.71 68.2528 1223.39 67.4791C1224.07 66.7055 1224.87 66.1027 1225.8 65.6692C1226.72 65.2375 1227.74 64.9769 1228.86 64.8891C1229.98 64.8012 1231.17 64.9034 1232.43 65.1989L1233.79 61.0653L1237.04 62.1592L1235.66 66.3499C1236.77 66.8959 1237.72 67.5666 1238.51 68.362C1239.3 69.1574 1239.9 70.0465 1240.31 71.0295C1240.73 72.0121 1240.94 73.0833 1240.96 74.2394C1240.97 75.3969 1240.77 76.6187 1240.34 77.9058L1234.47 75.9309C1234.98 74.3867 1235.03 73.1184 1234.62 72.1254C1234.2 71.1344 1233.43 70.4489 1232.31 70.0714C1231.7 69.8665 1231.14 69.7771 1230.65 69.8036C1230.15 69.8283 1229.71 69.9452 1229.32 70.1514C1228.94 70.359 1228.61 70.6449 1228.34 71.0108C1228.07 71.3764 1227.86 71.799 1227.7 72.2744C1227.54 72.7498 1227.46 73.2047 1227.47 73.637C1227.48 74.0693 1227.59 74.5043 1227.82 74.9454C1228.04 75.3848 1228.38 75.8423 1228.83 76.3166C1229.28 76.7909 1229.86 77.3185 1230.57 77.9015C1231.72 78.8458 1232.74 79.7634 1233.65 80.6537C1234.55 81.5438 1235.27 82.4634 1235.81 83.4126C1236.36 84.3614 1236.69 85.3643 1236.82 86.4221C1236.94 87.4799 1236.79 88.6333 1236.38 89.8819C1236.01 91.0144 1235.48 91.9678 1234.79 92.7383C1234.11 93.5106 1233.31 94.1058 1232.39 94.5258C1231.47 94.9458 1230.44 95.1882 1229.31 95.2512C1228.19 95.3163 1227 95.2007 1225.74 94.9069L1224.47 98.75L1221.24 97.6641L1222.51 93.8396C1221.42 93.3456 1220.42 92.7289 1219.5 91.989C1218.58 91.2492 1217.83 90.3802 1217.26 89.3789C1216.69 88.3776 1216.34 87.2428 1216.22 85.9704C1216.1 84.6993 1216.29 83.2908 1216.8 81.7465L1222.67 83.7214C1222.37 84.6354 1222.24 85.4405 1222.29 86.1361C1222.34 86.8317 1222.51 87.4349 1222.81 87.942C1223.11 88.4507 1223.5 88.8691 1223.99 89.196C1224.47 89.5243 1224.99 89.7811 1225.55 89.9676C1226.18 90.1819 1226.77 90.2868 1227.3 90.2808C1227.84 90.275 1228.32 90.1782 1228.74 89.991C1229.17 89.8039 1229.52 89.5353 1229.82 89.1838C1230.11 88.8348 1230.34 88.4202 1230.5 87.9431Z" fill="#EAB726"/>
<path d="M216.413 637.389C231.364 617.355 227.493 588.666 207.767 573.311C188.04 557.956 159.928 561.749 144.977 581.783C130.026 601.817 133.897 630.506 153.623 645.861C173.35 661.216 201.461 657.423 216.413 637.389Z" fill="#EAB726"/>
<path d="M220.175 636.917C235.103 616.866 231.228 588.146 211.519 572.769C191.811 557.391 163.733 561.18 148.805 581.231C133.876 601.281 137.752 630.001 157.46 645.379C177.168 660.756 205.247 656.967 220.175 636.917Z" fill="#FFEB4D"/>
<path d="M159.94 642.687C151.256 635.912 145.651 626.099 144.161 615.059C142.672 604.02 145.474 593.075 152.054 584.24C158.631 575.406 168.199 569.736 178.992 568.28C189.785 566.823 200.51 569.753 209.194 576.531C217.877 583.306 223.483 593.119 224.972 604.155C226.461 615.192 223.66 626.139 217.08 634.977C210.503 643.811 200.935 649.481 190.145 650.937C179.352 652.394 168.626 649.461 159.94 642.687ZM146.574 614.736C149.465 636.164 168.863 651.299 189.812 648.472C210.761 645.646 225.454 625.911 222.563 604.483C219.671 583.055 200.274 567.921 179.325 570.747C158.375 573.574 143.683 593.305 146.574 614.736Z" fill="#EAB726"/>
<path d="M191.762 620.85C191.744 619.944 191.604 619.148 191.343 618.461C191.079 617.775 190.659 617.155 190.083 616.604C189.504 616.05 188.763 615.544 187.857 615.082C186.951 614.621 185.848 614.172 184.546 613.736C182.306 612.969 180.269 612.158 178.438 611.311C176.605 610.461 175.03 609.475 173.718 608.35C172.402 607.224 171.372 605.903 170.629 604.381C169.886 602.86 169.495 601.043 169.456 598.931C169.421 597.1 169.708 595.425 170.316 593.908C170.925 592.39 171.807 591.064 172.966 589.927C174.125 588.792 175.522 587.862 177.156 587.139C178.789 586.417 180.625 585.943 182.663 585.725L182.535 578.805L187.984 578.732L188.114 585.748C190.07 585.98 191.85 586.485 193.455 587.261C195.059 588.037 196.429 589.053 197.566 590.31C198.701 591.567 199.586 593.061 200.221 594.785C200.854 596.513 201.193 598.453 201.233 600.607L191.392 600.74C191.343 598.155 190.747 596.227 189.597 594.958C188.45 593.692 186.933 593.07 185.05 593.096C184.029 593.109 183.152 593.267 182.421 593.569C181.689 593.868 181.088 594.276 180.622 594.787C180.154 595.302 179.813 595.903 179.6 596.595C179.385 597.286 179.287 598.033 179.301 598.829C179.315 599.625 179.442 600.347 179.681 600.991C179.919 601.636 180.322 602.228 180.889 602.771C181.455 603.313 182.202 603.821 183.131 604.293C184.061 604.766 185.21 605.251 186.581 605.751C188.797 606.563 190.818 607.399 192.64 608.258C194.46 609.118 196.029 610.116 197.345 611.253C198.659 612.39 199.69 613.717 200.433 615.238C201.176 616.759 201.569 618.565 201.608 620.655C201.643 622.551 201.353 624.259 200.733 625.776C200.114 627.295 199.224 628.61 198.065 629.725C196.906 630.841 195.498 631.744 193.84 632.433C192.185 633.124 190.336 633.58 188.298 633.801L188.419 640.234L183.006 640.308L182.887 633.905C180.998 633.737 179.169 633.341 177.397 632.717C175.626 632.093 174.047 631.184 172.664 629.983C171.281 628.782 170.16 627.264 169.31 625.419C168.458 623.577 168.008 621.362 167.959 618.777L177.8 618.645C177.828 620.175 178.063 621.449 178.501 622.467C178.939 623.485 179.517 624.298 180.233 624.901C180.948 625.507 181.755 625.928 182.658 626.161C183.558 626.398 184.475 626.509 185.405 626.496C186.473 626.481 187.406 626.33 188.205 626.039C189.007 625.748 189.673 625.35 190.208 624.847C190.744 624.343 191.141 623.751 191.402 623.067C191.655 622.39 191.776 621.649 191.762 620.85Z" fill="#EAB726"/>
<path d="M146.859 528.604C150.591 515.477 143.037 501.595 129.988 497.598C116.939 493.6 103.336 501.002 99.6051 514.129C95.8739 527.257 103.427 541.139 116.476 545.136C129.525 549.133 143.128 541.732 146.859 528.604Z" fill="#EAB726"/>
<path d="M148.686 527.632C152.402 514.501 144.841 500.603 131.797 496.591C118.753 492.58 105.166 499.972 101.45 513.104C97.7337 526.235 105.295 540.132 118.339 544.144C131.383 548.156 144.97 540.763 148.686 527.632Z" fill="#FFEB4D"/>
<path d="M119.081 542.288C113.334 540.521 108.566 536.605 105.659 531.263C102.753 525.921 102.054 519.793 103.693 514.007C105.33 508.222 109.108 503.468 114.331 500.627C119.553 497.785 125.594 497.194 131.342 498.963C137.089 500.73 141.857 504.646 144.763 509.986C147.669 515.327 148.368 521.456 146.73 527.244C145.093 533.029 141.315 537.783 136.094 540.624C130.871 543.465 124.829 544.055 119.081 542.288ZM106.828 530.629C112.469 540.998 125.308 544.947 135.445 539.431C145.582 533.915 149.239 520.991 143.597 510.622C137.956 500.254 125.117 496.305 114.98 501.821C104.843 507.337 101.185 520.259 106.828 530.629Z" fill="#EAB726"/>
<path d="M131.068 524.961C130.883 524.502 130.656 524.123 130.39 523.824C130.122 523.525 129.787 523.29 129.386 523.121C128.983 522.951 128.506 522.837 127.955 522.778C127.403 522.719 126.753 522.704 126.004 522.735C124.712 522.779 123.515 522.762 122.416 522.686C121.316 522.609 120.321 522.412 119.433 522.093C118.543 521.775 117.76 521.301 117.085 520.669C116.411 520.038 115.858 519.187 115.427 518.117C115.053 517.19 114.874 516.28 114.889 515.387C114.904 514.495 115.097 513.647 115.467 512.841C115.837 512.037 116.369 511.291 117.062 510.604C117.755 509.918 118.599 509.32 119.596 508.812L118.185 505.307L120.951 504.21L122.381 507.764C123.424 507.502 124.431 507.413 125.4 507.497C126.369 507.581 127.266 507.833 128.09 508.253C128.913 508.674 129.655 509.263 130.315 510.02C130.974 510.778 131.524 511.701 131.963 512.793L126.969 514.774C126.441 513.465 125.762 512.597 124.929 512.174C124.097 511.751 123.203 511.729 122.247 512.108C121.729 512.313 121.312 512.565 120.998 512.861C120.683 513.155 120.455 513.481 120.317 513.832C120.178 514.185 120.122 514.558 120.148 514.953C120.172 515.347 120.267 515.747 120.429 516.151C120.591 516.554 120.797 516.897 121.044 517.18C121.291 517.462 121.611 517.686 122.006 517.853C122.4 518.019 122.88 518.133 123.446 518.193C124.012 518.253 124.692 518.277 125.489 518.266C126.778 518.249 127.971 518.283 129.068 518.367C130.163 518.451 131.157 518.656 132.05 518.979C132.942 519.304 133.726 519.78 134.4 520.412C135.075 521.043 135.626 521.888 136.053 522.947C136.44 523.907 136.624 524.835 136.602 525.729C136.582 526.624 136.384 527.468 136.009 528.263C135.635 529.057 135.092 529.792 134.381 530.466C133.671 531.14 132.816 531.732 131.82 532.241L133.132 535.499L130.385 536.589L129.079 533.347C128.083 533.628 127.073 533.782 126.048 533.808C125.023 533.834 124.041 533.677 123.102 533.334C122.163 532.99 121.296 532.433 120.504 531.657C119.711 530.883 119.05 529.841 118.523 528.532L123.517 526.551C123.829 527.326 124.196 527.93 124.618 528.364C125.039 528.799 125.492 529.101 125.975 529.269C126.457 529.439 126.951 529.497 127.457 529.441C127.962 529.386 128.451 529.264 128.923 529.077C129.465 528.862 129.912 528.603 130.263 528.3C130.615 527.995 130.877 527.663 131.053 527.302C131.228 526.941 131.316 526.561 131.316 526.162C131.313 525.767 131.23 525.366 131.068 524.961Z" fill="#EAB726"/>
</svg>
