<?xml version="1.0" encoding="utf-8"?>
<!-- Generator: Adobe Illustrator 24.2.1, SVG Export Plug-In . SVG Version: 6.00 Build 0)  -->
<svg version="1.1" id="Capa_1" xmlns="http://www.w3.org/2000/svg" xmlns:xlink="http://www.w3.org/1999/xlink" x="0px" y="0px"
	 viewBox="0 0 1337 766" style="enable-background:new 0 0 1337 766;" xml:space="preserve">
<style type="text/css">
	.st0{fill:transparent;}
	.st1{fill:#C4C4C4;filter:url(#Adobe_OpacityMaskFilter);}
	.st2{mask:url(#mask0_1_);}
	.st3{fill:#ABD5FF;}
	.st4{fill:#C4C4C4;filter:url(#Adobe_OpacityMaskFilter_1_);}
	.st5{mask:url(#mask1_1_);}
	.st6{fill:#FFA600;}
	.st7{fill:#FFEC66;}
	.st8{fill:#F7A491;}
</style>
<rect class="st0" width="1336" height="766"/>
<defs>
	<filter id="Adobe_OpacityMaskFilter" filterUnits="userSpaceOnUse" x="-511.1" y="299.4" width="762.7" height="928.2">
		<feColorMatrix  type="matrix" values="1 0 0 0 0  0 1 0 0 0  0 0 1 0 0  0 0 0 1 0"/>
	</filter>
</defs>
<mask maskUnits="userSpaceOnUse" x="-511.1" y="299.4" width="762.7" height="928.2" id="mask0_1_">
	<rect class="st1" width="421" height="766"/>
</mask>
<g class="st2">
	<path class="st3" d="M-511.1,355.5l191.4,836.7c0,0,237.6,88.9,359.2-15.3c121.5-104.2-0.2-188,97.5-219.6c3.3-1.1,6.7-1.6,10-2.3
		c0.8-0.2,1.5-0.4,2.3-0.6c56.7-15.8,86-58.3,97-108c0.4-1.6,0.7-3.2,1-4.8c15.5-78.8-13.1-174-50.4-210.6
		c-63.3-62.2-119.4-48.9-135.2-203.5c-15.9-154.7-177.3-147.9-247.3-90.7C-285,417.9-298.9,232-511.1,355.5z"/>
</g>
<defs>
	<filter id="Adobe_OpacityMaskFilter_1_" filterUnits="userSpaceOnUse" x="1178.7" y="-169.5" width="688.3" height="687.6">
		<feColorMatrix  type="matrix" values="1 0 0 0 0  0 1 0 0 0  0 0 1 0 0  0 0 0 1 0"/>
	</filter>
</defs>
<mask maskUnits="userSpaceOnUse" x="1178.7" y="-169.5" width="688.3" height="687.6" id="mask1_1_">
	<rect x="916" class="st4" width="421" height="766"/>
</mask>
<g class="st5">
	<path class="st3" d="M1867,348.3l-300.7-517.8c0,0-204.4,6-282.3,111.4c-77.9,105.3,21.7,97.1-14.3,152.2
		c-6.4,9.8-11.1,13.8-17.8,19.9c0,0-8.8,6.5-15.4,10.7c-42.2,26.7-57.8,64-57.8,101c0,1.2,0,2.4,0.1,3.6
		c1.7,58.2,41.4,115.2,77.4,129.7c61.3,24.7,103.4-0.2,143.5,101c40.1,101.2,167,51.2,212.4-7.5
		C1676.4,369.2,1720.5,492.3,1867,348.3z"/>
</g>
<g>
	<path class="st6" d="M228.3,594.2c8.5,24.7-4.7,51.8-29.4,60.3s-51.8-4.8-60.3-29.5s4.5-51.8,29.4-60.4S219.7,569.4,228.3,594.2z"
		/>
	<path class="st7" d="M221.1,596.7c7.1,20.7-3.8,43.4-24.6,50.7c-20.7,7.1-43.4-3.8-50.7-24.6c-7.1-20.9,3.8-43.5,24.6-50.7
		C191.3,564.8,213.9,576,221.1,596.7z"/>
	<g>
		<path class="st6" d="M180.1,637.8l0.1-6.7c-3-0.3-5.9-0.8-8.4-1.6c-2.1-0.7-3.2-2.9-2.6-4.9l0.1-0.3c0.7-2.2,3-3.6,5.2-2.7
			c2.2,0.8,4.8,1.4,7.6,1.5c4,0.1,6.7-1.5,6.7-4.3c0-2.6-2.2-4.4-7.3-6.2c-7.4-2.6-12.5-6.2-12.4-13c0.1-6,4.5-10.8,11.9-12.2
			l0.1-6.7l6.9,0.1l-0.1,6c2.6,0.1,4.7,0.5,6.3,1c2.1,0.5,3.3,2.7,2.7,4.9l0,0c-0.5,2.2-2.9,3.4-5.1,2.7c-1.6-0.5-3.7-0.8-6-1
			c-4.5-0.1-6,1.9-6,3.7c0,2.3,2.3,3.7,8.4,6c8.4,3.2,11.5,7,11.4,13.3c-0.1,6.2-4.5,11.4-12.6,12.8l-0.1,7.1L180.1,637.8z"/>
	</g>
</g>
<g>
	<g>
		<g>
			<path class="st6" d="M144,506.3c8,11.5,5.3,27.2-6.2,35.3c-11.5,8-27.2,5.3-35.3-6.2c-8-11.5-5.3-27.2,6.2-35.3
				C120.2,492,136,494.8,144,506.3z"/>
			<path class="st7" d="M140.6,508.6c6.8,9.6,4.5,22.9-5.2,29.6c-9.6,6.8-22.9,4.5-29.6-5.2c-6.8-9.6-4.5-22.9,5.2-29.6
				C120.7,496.7,134,499,140.6,508.6z"/>
			<g>
				<path class="st6" d="M125.7,535.8l-0.9-3.4c-1.5,0.3-3.1,0.5-4.5,0.4c-1.1-0.1-2-1-2-2.2v-0.1c0-1.3,1-2.3,2.3-2.2
					c1.3,0.1,2.7,0,4.1-0.4c2.1-0.6,3.3-1.7,2.9-3.2c-0.3-1.4-1.7-1.9-4.7-2.1c-4.2-0.3-7.3-1.3-8.3-4.9c-0.8-3.2,0.7-6.3,4.4-8.1
					l-0.9-3.4l3.6-1l0.8,3.2c1.3-0.3,2.4-0.4,3.4-0.4c1.2,0,2.2,1,2.2,2.2l0,0c0,1.3-1,2.2-2.2,2.2c-0.9,0-2,0.1-3.3,0.4
					c-2.4,0.6-2.9,1.9-2.6,2.9c0.3,1.2,1.8,1.6,5.2,1.9c4.7,0.3,7,1.9,7.9,5.1c0.8,3.2-0.7,6.5-4.6,8.4l1,3.7L125.7,535.8z"/>
			</g>
		</g>
	</g>
	<path class="st8" d="M127.5,546.2l3.1-2.7c0,0-1.5-1.7-0.8-2c1-0.6,2.6,1.5,2.5,2s-1.9,2.2-1.9,2.2L127.5,546.2z"/>
</g>
<g>
	<g>
		<g>
			<path class="st6" d="M1243.7,55.8c8,11.5,5.3,27.2-6.2,35.3c-11.5,8-27.2,5.3-35.3-6.2c-8-11.5-5.3-27.2,6.2-35.3
				S1235.7,44.3,1243.7,55.8z"/>
			<path class="st7" d="M1240.3,58.1c6.8,9.6,4.5,22.9-5.2,29.6c-9.6,6.8-22.9,4.5-29.6-5.2c-6.8-9.6-4.5-22.9,5.2-29.6
				C1220.3,46.2,1233.6,48.5,1240.3,58.1z"/>
			<g>
				<path class="st6" d="M1225.4,85.3l-0.9-3.4c-1.5,0.3-3.1,0.5-4.5,0.4c-1.1-0.1-2-1-2-2.2V80c0-1.3,1-2.3,2.3-2.2
					c1.3,0.1,2.7,0,4.1-0.4c2.1-0.6,3.3-1.7,2.9-3.2c-0.3-1.4-1.7-1.9-4.7-2.1c-4.2-0.3-7.3-1.3-8.3-4.9c-0.8-3.2,0.7-6.3,4.4-8.1
					l-0.9-3.4l3.6-1l0.8,3.2c1.3-0.3,2.4-0.4,3.4-0.4c1.2,0,2.2,1,2.2,2.2l0,0c0,1.3-1,2.2-2.2,2.2c-0.9,0-2,0.1-3.3,0.4
					c-2.4,0.6-2.9,1.9-2.6,2.9c0.3,1.2,1.8,1.6,5.2,1.9c4.7,0.3,7,1.9,7.9,5.1c0.8,3.2-0.7,6.5-4.6,8.4l1,3.7L1225.4,85.3z"/>
			</g>
		</g>
	</g>
	<path class="st8" d="M1227.2,95.7l3.1-2.7c0,0-1.5-1.7-0.8-2c1-0.6,2.6,1.5,2.5,2c-0.1,0.5-1.9,2.2-1.9,2.2L1227.2,95.7z"/>
</g>
</svg>
