<svg width="207" height="211" viewBox="0 0 207 211" fill="none" xmlns="http://www.w3.org/2000/svg">
<g clip-path="url(#clip0)">
<path d="M137.356 172.042H183.861L178.512 204.427L130.392 203.871L137.356 172.042Z" fill="#A62D4D"/>
<path d="M172.305 206.905H181.616L188.303 177.604C188.858 175.151 187.319 172.724 184.896 172.143C182.449 171.587 180.026 173.104 179.471 175.556L173.112 203.441L172.305 206.905Z" fill="#EB3C3D"/>
<path d="M125.773 206.905H135.085L141.771 177.604C142.327 175.151 140.787 172.724 138.365 172.143C135.917 171.587 133.495 173.104 132.914 175.556L126.556 203.441L125.773 206.905Z" fill="#EB3C3D"/>
<path d="M81.5644 60.1975H90.6484V70.31H81.5644V60.1975Z" fill="#FF9280"/>
<path d="M123.705 149.314V138.19C114.596 138.19 106.143 134.069 100.49 126.915C94.1316 118.85 90.6494 108.763 90.6494 98.4734V70.2595H79.5467V98.4734C79.5467 111.24 83.8868 123.78 91.7596 133.791C95.5446 138.595 100.44 142.564 105.941 145.218C111.442 147.898 117.599 149.314 123.705 149.314Z" fill="#20A2A5"/>
<path d="M79.5457 65.7595H90.6484V70.3102H79.5457V65.7595Z" fill="#A6DADB"/>
<path d="M186.044 60.4341L194.881 62.542L187.944 91.7346L179.107 89.6267L186.044 60.4341Z" fill="#FF9280"/>
<path d="M195.24 66.9225L194.761 68.9197L194.685 69.2231L193.701 68.9955L193.777 68.6922L194.256 66.6697L195.24 66.9225Z" fill="#FF9280"/>
<path d="M135.009 138.19V149.314C149.115 149.314 162.614 143.322 172.102 132.881C179.319 124.943 184.416 115.235 186.914 104.819L192.264 82.3438L181.464 79.7651L176.114 102.24C174.07 110.836 169.831 118.85 163.901 125.398C156.533 133.513 145.986 138.19 135.009 138.19Z" fill="#20A2A5"/>
<path d="M119.465 138.216V169.994L134.53 147.949L141.191 138.19L137.129 133.134L127.187 136.143H121.484C120.929 136.143 120.424 136.37 120.071 136.724C119.693 137.078 119.491 137.584 119.491 138.14L119.465 138.216Z" fill="#A6DADB"/>
<path d="M119.466 145.623V149.112L123.68 143.196C123.882 142.918 124.159 142.741 124.487 142.665C124.79 142.614 125.093 142.69 125.345 142.867L133.849 148.91L134.984 147.241L126.506 141.224C125.799 140.718 124.967 140.541 124.134 140.668C123.301 140.82 122.519 141.3 122.04 142.008L119.466 145.623Z" fill="#7AC3C5"/>
<path d="M119.466 160.438V169.994L126.658 159.452L125.396 149.188L130.014 143.676L126.531 141.224C124.412 139.732 121.485 141.249 121.485 143.853V149.188V149.213L119.466 160.438Z" fill="#EA5E3F"/>
<path d="M121.485 149.213H125.396L130.014 143.702L126.531 141.249C124.412 139.758 121.485 141.275 121.485 143.879V149.213Z" fill="#DF3738"/>
<path d="M121.484 121.227V136.168L125.421 139.303L137.129 133.134V121.227H121.484Z" fill="#EB5B59"/>
<path d="M110.407 140.668V200.079C110.407 202.177 112.098 203.871 114.192 203.871H146.567C148.661 203.871 150.377 202.177 150.377 200.079V140.668L141.242 138.19H141.192L134.53 147.949L119.466 169.994V138.19L110.407 140.668Z" fill="#20A2A5"/>
<path d="M119.465 183.191C118.768 183.191 118.203 182.625 118.203 181.927C118.203 181.229 118.768 180.663 119.465 180.663C120.162 180.663 120.727 181.229 120.727 181.927C120.727 182.625 120.162 183.191 119.465 183.191Z" fill="#262763"/>
<path d="M119.465 190.902C118.768 190.902 118.203 190.336 118.203 189.638C118.203 188.939 118.768 188.374 119.465 188.374C120.162 188.374 120.727 188.939 120.727 189.638C120.727 190.336 120.162 190.902 119.465 190.902Z" fill="#262763"/>
<path d="M108.042 103.986C107.796 101.723 109.427 99.6891 111.685 99.4422C113.943 99.1952 115.973 100.829 116.22 103.092C116.466 105.354 114.835 107.388 112.577 107.635C110.319 107.882 108.289 106.248 108.042 103.986Z" fill="#FFB18F"/>
<path d="M119.49 74.5726L121.572 75.27L112.138 103.539L110.056 102.841L119.49 74.5726Z" fill="#3F2A0B"/>
<path d="M112.527 98.625L110.483 113.313C110.13 115.892 110.458 118.496 111.442 120.898L112.78 124.159C112.956 124.614 113.183 125.044 113.41 125.448C116.186 130.302 122.393 132.249 127.516 129.569L129.484 128.558L135.767 125.271C139.981 123.072 142.883 118.951 143.539 114.224L150.731 97.5885C151.841 89.5237 140.561 87.6782 132.537 86.5405L129.156 86.0602C121.081 84.9478 113.663 90.5603 112.527 98.625Z" fill="#FFB18F"/>
<path d="M131.074 101.099L136.291 103.103C136.856 103.326 137.139 103.832 136.933 104.318C136.702 104.844 135.982 105.127 135.34 104.945L129.867 103.508C129.199 103.326 128.839 102.759 129.07 102.253L129.301 101.686C129.584 101.12 130.406 100.836 131.074 101.099Z" fill="#3F2A0B"/>
<path d="M114.993 98.7781L120.534 98.0181C121.133 97.9297 121.732 98.1771 121.932 98.6013C122.156 99.0608 121.807 99.5557 121.158 99.6971L115.842 100.952C115.193 101.111 114.494 100.864 114.294 100.404L114.069 99.9092C113.82 99.4143 114.269 98.8841 114.993 98.7781Z" fill="#3F2A0B"/>
<path d="M121.813 75.3411L119.038 83.6333L146.82 92.9368L140.158 112.909L147.45 115.361C147.45 115.361 161.581 101.532 154.289 89.7767C152.396 86.7176 145.962 83.3805 144.448 82.8243C137.408 80.2203 121.813 75.3411 121.813 75.3411Z" fill="#3F2A0B"/>
<path d="M142 91.5002C142.025 91.5002 142.05 91.5021 142.077 91.5058L149 92.0002L143 105.5C145.926 94.7709 143.144 91.6527 142.077 91.5058L142 91.5002Z" fill="#3F2A0B"/>
<path d="M137.51 110.78L143.66 112.84L142.268 117.012L136.118 114.952L137.51 110.78Z" fill="#FFB18F"/>
<path d="M107.454 90.2065C107.328 90.5099 107.505 90.8891 107.808 90.9902L116.942 94.0492C120.273 95.1616 123.73 95.1869 126.884 94.3273C127.338 94.2009 127.742 94.6307 127.591 95.0858L127.162 96.4004C127.036 96.7543 127.288 97.1335 127.666 97.1841C133.066 97.715 138.34 95.6167 141.898 91.6728C142.049 91.4958 142.302 91.42 142.529 91.4958L152.168 94.7065C153.909 95.288 152.976 94.3526 154.086 93.038C154.414 92.6335 154.262 92.7093 154.414 92.229C154.439 92.1784 154.439 92.1279 154.464 92.1026C154.666 91.7739 154.515 91.3694 154.161 91.243L140.687 86.2879C140.435 86.1868 140.182 86.2879 140.031 86.4901C136.422 91.0408 130.19 93.1138 124.386 91.1925C117.018 88.7149 112.955 80.5996 115.428 73.2175L111.82 72.004C111.492 71.9029 111.164 72.0798 111.063 72.4085C110.104 75.7709 110.508 79.2091 111.971 82.1418C112.249 82.6979 112.577 83.2289 112.93 83.7598C113.132 84.0631 113.031 84.4676 112.703 84.6193C110.382 85.7317 108.464 87.6784 107.454 90.2065Z" fill="#3F2A0B"/>
<path d="M115.428 73.1921C112.955 80.5995 117.017 88.7148 124.385 91.1671C130.315 93.1643 136.725 90.9142 140.283 86.1361L140.308 86.1108C141.645 84.2906 140.787 81.6866 138.642 80.9787L129.987 78.0714C129.281 77.8186 128.65 77.3635 128.246 76.7315L123.25 69.1218C121.988 67.2004 119.213 67.074 117.774 68.869C116.765 70.1583 115.958 71.6247 115.428 73.1921Z" fill="#3F2A0B"/>
<path d="M116.007 117.182C116.285 119.002 117.546 120.519 119.288 121.125L119.464 121.176C121.205 121.757 123.148 121.302 124.46 120.013C125.52 118.977 125.091 117.207 123.703 116.726L118.581 115.007C117.193 114.552 115.805 115.715 116.007 117.182Z" fill="white"/>
<path d="M140.002 115.004C139.449 112.797 140.787 110.558 142.99 110.004C145.193 109.45 147.428 110.79 147.981 112.997C148.534 115.204 147.196 117.443 144.993 117.997C142.79 118.551 140.556 117.211 140.002 115.004Z" fill="#FFB18F"/>
<path d="M133.823 110.785C134.327 110.962 134.832 110.558 134.832 110.052C134.807 109.648 134.706 109.243 134.529 108.889C134.176 108.207 133.596 107.676 132.864 107.448C132.132 107.195 131.35 107.246 130.669 107.6C130.29 107.777 129.987 108.03 129.735 108.358C129.407 108.763 129.583 109.395 130.088 109.547C130.391 109.648 130.719 109.547 130.921 109.294C131.047 109.142 131.173 109.041 131.35 108.965C131.678 108.813 132.031 108.788 132.384 108.889C132.738 109.016 133.015 109.243 133.167 109.572C133.268 109.749 133.293 109.951 133.318 110.153C133.318 110.431 133.52 110.684 133.823 110.785Z" fill="#3F2A0B"/>
<path d="M118.331 105.603C118.835 105.78 119.34 105.375 119.34 104.87C119.315 104.465 119.214 104.061 119.037 103.707C118.684 103.024 118.103 102.493 117.372 102.266C116.211 101.886 114.974 102.266 114.243 103.176C113.915 103.58 114.091 104.212 114.596 104.389C114.899 104.49 115.227 104.389 115.429 104.136C115.782 103.732 116.362 103.53 116.892 103.707C117.447 103.884 117.801 104.389 117.826 104.92C117.826 105.224 118.028 105.502 118.331 105.603Z" fill="#3F2A0B"/>
<path d="M182.053 78.0002L192.854 80.5764L191.802 85.0033L181.001 82.427L182.053 78.0002Z" fill="#A6DADB"/>
<path d="M41.9154 40.9046C41.0302 38.1873 38.4941 35.075 33.6513 34.3318C32.7485 34.2004 31.9545 34.8755 31.9157 35.7793C31.9056 36.5431 32.442 37.219 33.2049 37.3216C36.7389 37.8679 38.4663 40.1205 39.0125 41.8196C39.227 42.4655 39.8345 42.8826 40.5138 42.8585C41.5362 42.8505 42.2336 41.8455 41.9154 40.9046Z" fill="#FFCA3D"/>
<path d="M64.5068 33.2731C66.5507 31.2758 68.1909 27.5848 66.6769 22.933C66.3993 22.0735 65.4152 21.669 64.6077 22.0482C63.9012 22.3768 63.5732 23.1606 63.8003 23.8937C64.8853 27.3067 63.6489 29.8348 62.3872 31.0989C61.9078 31.5792 61.8068 32.3124 62.1349 32.9191C62.6143 33.804 63.8003 33.9809 64.5068 33.2731Z" fill="#FF8166"/>
<path d="M160.874 69.0206C162.918 67.0234 164.558 63.3323 163.044 58.6806C162.766 57.821 161.782 57.4165 160.975 57.7957C160.268 58.1244 159.94 58.9081 160.167 59.6413C161.252 63.0542 160.016 65.5824 158.754 66.8464C158.275 67.3268 158.174 68.0599 158.502 68.6667C158.981 69.5263 160.167 69.7032 160.874 69.0206Z" fill="#FF8166"/>
<path d="M131.628 20.86C134.378 20.051 137.558 17.5987 138.416 12.7952C138.567 11.9104 137.911 11.0761 137.003 11.0255C136.246 10.975 135.564 11.5059 135.413 12.2643C134.757 15.7784 132.486 17.447 130.77 17.9526C130.114 18.1549 129.685 18.7363 129.685 19.4189C129.71 20.4049 130.669 21.138 131.628 20.86Z" fill="#FF8166"/>
<path d="M98.1435 33.0456C98.5724 33.0456 99.0014 33.0203 99.4556 32.9697C100.364 32.8686 100.97 32.0091 100.768 31.1242C100.591 30.3658 99.9098 29.8854 99.1276 29.936C95.5697 30.2899 93.3491 28.5455 92.365 27.0539C91.9865 26.4725 91.3052 26.2196 90.6492 26.4219C89.6903 26.7 89.2613 27.8377 89.7912 28.6719C91.2043 30.8714 94.0052 33.0456 98.1435 33.0456Z" fill="#FFCA3D"/>
<path d="M175.384 31.2253C175.813 31.2253 176.242 31.2 176.696 31.1494C177.604 31.0483 178.21 30.1887 178.008 29.3039C177.831 28.5455 177.15 28.0651 176.368 28.1157C172.81 28.4696 170.589 26.7252 169.605 25.2336C169.227 24.6521 168.545 24.3993 167.889 24.6016C166.931 24.8797 166.502 26.0173 167.031 26.8516C168.445 29.0764 171.245 31.2253 175.384 31.2253Z" fill="#FFCA3D"/>
<path d="M87.848 62.7511H83.9116C81.1359 62.7511 78.8649 60.4757 78.8649 57.6948V48.4924H91.0779V53.1442H95.1152V58.3774L92.2891 60.9814C91.0779 62.119 89.4882 62.7511 87.848 62.7511Z" fill="#FFB18F"/>
<path opacity="0.6" d="M78.8403 48.4924H92.3906V54.838H78.8403V48.4924Z" fill="#FF9280"/>
<path d="M85.1736 48.5176V51.0205C85.1736 52.1328 86.082 53.043 87.1923 53.043C88.3025 53.043 89.2109 52.1328 89.2109 51.0205V48.5176C89.2109 47.4052 88.3025 46.4951 87.1923 46.4951C86.0568 46.4951 85.1736 47.4052 85.1736 48.5176Z" fill="#FF9280"/>
<path d="M88.7068 48.5176V51.0205C88.7068 52.1328 89.6152 53.043 90.7255 53.043C91.8357 53.043 92.7441 52.1328 92.7441 51.0205V48.5176C92.7441 47.4052 91.8357 46.4951 90.7255 46.4951C89.59 46.4951 88.7068 47.4052 88.7068 48.5176Z" fill="#FF9280"/>
<path d="M81.6423 48.5176V51.0205C81.6423 52.1328 82.5507 53.043 83.661 53.043C84.7713 53.043 85.6797 52.1328 85.6797 51.0205V48.5176C85.6797 47.4052 84.7713 46.4951 83.661 46.4951C82.5255 46.4951 81.6423 47.4052 81.6423 48.5176Z" fill="#FF9280"/>
<path d="M78.1091 49.5288V51.0204C78.1091 52.1328 79.0175 53.0429 80.1278 53.0429C81.2381 53.0429 82.1465 52.1328 82.1465 51.0204V49.5288C82.1465 48.4165 81.2381 47.5063 80.1278 47.5063C78.9923 47.5063 78.1091 48.4165 78.1091 49.5288Z" fill="#FF9280"/>
<path d="M85.1736 47.5064V50.0092C85.1736 51.1216 86.082 52.0317 87.1923 52.0317C88.3025 52.0317 89.2109 51.1216 89.2109 50.0092V47.5064C89.2109 46.394 88.3025 45.4839 87.1923 45.4839C86.0568 45.4839 85.1736 46.394 85.1736 47.5064Z" fill="#FFB18F"/>
<path d="M88.7068 47.5064V50.0092C88.7068 51.1216 89.6152 52.0317 90.7255 52.0317C91.8357 52.0317 92.7441 51.1216 92.7441 50.0092V47.5064C92.7441 46.394 91.8357 45.4839 90.7255 45.4839C89.59 45.4839 88.7068 46.394 88.7068 47.5064Z" fill="#FFB18F"/>
<path d="M81.6423 47.5064V50.0092C81.6423 51.1216 82.5507 52.0317 83.661 52.0317C84.7713 52.0317 85.6797 51.1216 85.6797 50.0092V47.5064C85.6797 46.394 84.7713 45.4839 83.661 45.4839C82.5255 45.4839 81.6423 46.394 81.6423 47.5064Z" fill="#FFB18F"/>
<path d="M78.1091 48.5176V50.0092C78.1091 51.1216 79.0175 52.0317 80.1278 52.0317C81.2381 52.0317 82.1465 51.1216 82.1465 50.0092V48.5176C82.1465 47.4052 81.2381 46.4951 80.1278 46.4951C78.9923 46.4951 78.1091 47.4052 78.1091 48.5176Z" fill="#FFB18F"/>
<path d="M95.1152 58.4025V56.7087V53.0176L89.7153 47.6074L89.0088 48.3153C87.8228 49.5035 87.8228 51.4249 89.0088 52.6131L91.1031 54.7115V54.8631L89.6144 55.1412L89.5387 55.1665C88.1004 55.4446 86.8639 56.1778 85.9303 57.2143C84.9462 58.3267 84.3406 59.793 84.3154 61.3604V61.5374H91.734L95.1152 58.4025Z" fill="#FFB18F"/>
<path d="M84.7942 61.5374V61.3605C84.8195 59.9447 85.3494 58.6048 86.283 57.543C87.1662 56.557 88.3017 55.8997 89.5886 55.6469L89.6895 55.6216L91.582 55.2677V54.484L89.3615 52.2592C88.3774 51.2732 88.3774 49.6805 89.3615 48.6946L90.068 47.9867L89.3615 47.2788L88.6549 47.9867C87.2671 49.3772 87.2671 51.6019 88.6549 52.9924L90.1942 54.5345L89.412 54.6862C87.8979 54.9643 86.5606 55.7227 85.526 56.8857C84.441 58.1245 83.8101 59.7172 83.7849 61.3605V61.5374H84.7942Z" fill="#FF9280"/>
<path d="M186.688 75.1641L190.498 76.15C193.198 76.8579 195.948 75.2399 196.655 72.5348L198.951 63.6358L187.142 60.5515L185.981 65.0516L182.07 64.0403L180.758 69.0966L182.827 72.3326C183.71 73.7483 185.098 74.7596 186.688 75.1641Z" fill="#FFB18F"/>
<path opacity="0.6" d="M185.84 60.2086L198.955 63.6189L197.358 69.7853L184.242 66.375L185.84 60.2086Z" fill="#FF9280"/>
<path d="M192.845 62.0684L192.214 64.4954C191.936 65.5825 190.826 66.2145 189.741 65.9364C188.656 65.6583 188.025 64.546 188.303 63.4589L188.934 61.0319C189.211 59.9448 190.321 59.3128 191.407 59.5908C192.492 59.8689 193.122 60.9813 192.845 62.0684Z" fill="#FF9280"/>
<path d="M189.438 61.1582L188.807 63.5852C188.53 64.6723 187.42 65.3044 186.334 65.0263C185.249 64.7482 184.619 63.6358 184.896 62.5487L185.527 60.1217C185.805 59.0346 186.915 58.4026 188 58.6807C189.06 58.9841 189.716 60.0964 189.438 61.1582Z" fill="#FF9280"/>
<path d="M196.276 62.9532L195.645 65.3802C195.368 66.4673 194.257 67.0993 193.172 66.8212C192.087 66.5431 191.457 65.4307 191.734 64.3436L192.365 61.9166C192.642 60.8295 193.753 60.1975 194.838 60.4756C195.898 60.7537 196.554 61.8661 196.276 62.9532Z" fill="#FF9280"/>
<path d="M199.431 64.824L199.052 66.2651C198.775 67.3522 197.664 67.9842 196.579 67.7061C195.494 67.428 194.864 66.3156 195.141 65.2285L195.52 63.7875C195.797 62.7004 196.907 62.0684 197.992 62.3465C199.077 62.6246 199.708 63.7369 199.431 64.824Z" fill="#FF9280"/>
<path d="M193.097 61.0823L192.466 63.5093C192.188 64.5964 191.078 65.2284 189.993 64.9504C188.908 64.6723 188.277 63.5599 188.555 62.4728L189.186 60.0458C189.463 58.9587 190.573 58.3267 191.658 58.6048C192.744 58.8829 193.374 59.9952 193.097 61.0823Z" fill="#FFB18F"/>
<path d="M189.69 60.1976L189.059 62.6246C188.782 63.7116 187.671 64.3437 186.586 64.0656C185.501 63.7875 184.871 62.6751 185.148 61.588L185.779 59.161C186.057 58.0739 187.167 57.4419 188.252 57.72C189.312 57.9981 189.968 59.1105 189.69 60.1976Z" fill="#FFB18F"/>
<path d="M196.528 61.9673L195.897 64.3943C195.62 65.4814 194.509 66.1135 193.424 65.8354C192.339 65.5573 191.708 64.4449 191.986 63.3578L192.617 60.9308C192.894 59.8437 194.005 59.2117 195.09 59.4898C196.15 59.7931 196.806 60.8802 196.528 61.9673Z" fill="#FFB18F"/>
<path d="M199.683 63.8379L199.304 65.279C199.027 66.366 197.916 66.9981 196.831 66.72C195.746 66.4419 195.115 65.3295 195.393 64.2424L195.772 62.8014C196.049 61.7143 197.159 61.0823 198.244 61.3604C199.329 61.6385 199.96 62.7508 199.683 63.8379Z" fill="#FFB18F"/>
<path d="M180.758 69.1219L181.187 67.5039L182.121 63.9392L188.707 60.0459L189.211 60.9307C190.069 62.3718 189.565 64.2426 188.126 65.0769L185.578 66.5685L185.527 66.7201L186.89 67.3775L186.966 67.4027C188.278 68.0348 189.312 69.0713 189.943 70.2848C190.625 71.6247 190.826 73.1669 190.448 74.709L190.397 74.886L183.231 73.0152L180.758 69.1219Z" fill="#FFB18F"/>
<path d="M190.927 74.9871L190.977 74.8102C191.356 73.2174 191.154 71.5236 190.422 70.0573C189.715 68.6668 188.605 67.605 187.217 66.9477L187.167 66.9224L186.536 66.619L188.429 65.5067C190.119 64.5207 190.674 62.3465 189.69 60.6527L189.186 59.7678L188.328 60.2734L188.832 61.1583C189.539 62.3465 189.135 63.9139 187.924 64.6218L185.199 66.2145L184.997 66.973L186.814 67.8325C188.025 68.3887 188.958 69.3241 189.564 70.5124C190.195 71.7764 190.372 73.2174 190.044 74.5826L189.993 74.7596L190.927 74.9871Z" fill="#FF9280"/>
<path d="M63.5987 207.941H204.401C205.839 207.941 207 205.666 207 202.885C207 200.104 205.839 197.829 204.401 197.829H63.5987C62.1604 197.829 60.9997 200.104 60.9997 202.885C60.9997 205.691 62.1604 207.941 63.5987 207.941Z" fill="#FFCA3D"/>
<path d="M64.9099 207.967H203.088V211H64.9099V207.967Z" fill="#F09516"/>
<path d="M123.705 107.271C123.705 107.271 123.377 110.153 122.242 110.558C121.611 110.785 120.45 111.063 120.677 112.429C120.753 112.96 121.182 113.693 122.57 113.288" stroke="#FF9280" stroke-miterlimit="10" stroke-linecap="round" stroke-linejoin="round"/>
</g>
<path d="M1.94241 14.838C4.69285 14.029 7.87225 11.5767 8.73018 6.77326C8.88158 5.88841 8.22551 5.05413 7.31711 5.00357C6.56011 4.95301 5.87882 5.48392 5.72742 6.24235C5.07135 9.75645 2.80035 11.425 1.08448 11.9306C0.428414 12.1329 -0.000556946 12.7144 -0.000556946 13.3969C0.0246763 14.3829 0.983547 15.1161 1.94241 14.838Z" fill="#FFCA3D"/>
<path d="M52.434 2.67516C49.7455 1.70639 45.7086 1.83941 42.1822 5.22991C41.5297 5.85444 41.5947 6.91645 42.288 7.47782C42.8918 7.97041 43.7401 7.92397 44.3009 7.39996C46.8995 4.93557 49.7137 4.94618 51.4014 5.53058C52.0427 5.75265 52.7465 5.52386 53.1495 4.96413C53.7369 4.1469 53.3791 3.00242 52.434 2.67516Z" fill="#FF8166"/>
<defs>
<clipPath id="clip0">
<rect width="173" height="200" fill="white" transform="matrix(-1 0 0 1 207 11.0002)"/>
</clipPath>
</defs>
</svg>
