<?xml version="1.0" encoding="utf-8"?>
<!-- Generator: Adobe Illustrator 24.2.1, SVG Export Plug-In . SVG Version: 6.00 Build 0)  -->
<svg version="1.1" id="Capa_1" xmlns="http://www.w3.org/2000/svg" xmlns:xlink="http://www.w3.org/1999/xlink" x="0px" y="0px"
	 viewBox="0 0 323 142" style="enable-background:new 0 0 323 142;" xml:space="preserve">
<style type="text/css">
	.st0{fill:#0948F0;}
	.st1{fill:#FD5C00;}
</style>
<path class="st0" d="M12.6,137.9c-0.9-2.7-3.4-5.8-8.3-6.6c-0.9-0.1-1.7,0.5-1.7,1.4c0,0.8,0.5,1.4,1.3,1.5c3.5,0.5,5.3,2.8,5.8,4.5
	c0.2,0.6,0.8,1.1,1.5,1C12.2,139.8,12.9,138.8,12.6,137.9z"/>
<path class="st1" d="M3.6,16.4c2-2,3.7-5.7,2.2-10.3C5.5,5.2,4.5,4.8,3.7,5.1C3,5.5,2.6,6.3,2.9,7c1.1,3.4-0.2,5.9-1.4,7.2
	C1,14.7,0.9,15.4,1.2,16C1.7,16.9,2.9,17.1,3.6,16.4z"/>
<path class="st0" d="M306.9,138.8c2.8-0.8,5.9-3.3,6.8-8.1c0.2-0.9-0.5-1.7-1.4-1.8c-0.8-0.1-1.4,0.5-1.6,1.2
	c-0.7,3.5-2.9,5.2-4.6,5.7c-0.7,0.2-1.1,0.8-1.1,1.5C305,138.4,306,139.1,306.9,138.8z"/>
<path class="st1" d="M11.4,100.7c-2.7-1-6.7-0.8-10.3,2.6c-0.7,0.6-0.6,1.7,0.1,2.2c0.6,0.5,1.5,0.4,2-0.1c2.6-2.5,5.4-2.5,7.1-1.9
	c0.6,0.2,1.3,0,1.7-0.6C12.7,102.1,12.4,101,11.4,100.7z"/>
<path class="st1" d="M305.3,58c2-2,3.7-5.7,2.2-10.3c-0.3-0.9-1.3-1.3-2.1-0.9c-0.7,0.3-1,1.1-0.8,1.8c1.1,3.4-0.2,5.9-1.4,7.2
	c-0.5,0.5-0.6,1.2-0.3,1.8C303.4,58.5,304.6,58.7,305.3,58z"/>
<path class="st1" d="M45.8,5.4c2.3,1.7,6.2,2.7,10.6,0.4c0.8-0.4,1-1.5,0.5-2.2c-0.4-0.6-1.3-0.8-2-0.5C51.8,4.8,49.1,4,47.6,3
	c-0.6-0.4-1.3-0.4-1.8,0.1C45,3.6,45,4.8,45.8,5.4z"/>
<path class="st1" d="M276.1,9.8c2.8-0.8,5.9-3.3,6.8-8.1c0.2-0.9-0.5-1.7-1.4-1.8c-0.8-0.1-1.4,0.5-1.6,1.2
	c-0.7,3.5-2.9,5.2-4.6,5.7c-0.7,0.2-1.1,0.8-1.1,1.5C274.1,9.4,275.1,10.1,276.1,9.8z"/>
<path class="st0" d="M242.6,22c0.4,0,0.9,0,1.3-0.1c0.9-0.1,1.5-1,1.3-1.8c-0.2-0.8-0.9-1.2-1.6-1.2c-3.6,0.4-5.8-1.4-6.8-2.9
	c-0.4-0.6-1.1-0.8-1.7-0.6c-1,0.3-1.4,1.4-0.9,2.2C235.6,19.8,238.4,22,242.6,22z"/>
<path class="st0" d="M43.6,129.7c0.4,0,0.9,0,1.3-0.1c0.9-0.1,1.5-1,1.3-1.8c-0.2-0.8-0.9-1.2-1.6-1.2c-3.6,0.4-5.8-1.4-6.8-2.9
	c-0.4-0.6-1.1-0.8-1.7-0.6c-1,0.3-1.4,1.4-0.9,2.2C36.6,127.5,39.4,129.7,43.6,129.7z"/>
<path class="st0" d="M319.8,20.2c0.4,0,0.9,0,1.3-0.1c0.9-0.1,1.5-1,1.3-1.8c-0.2-0.8-0.9-1.2-1.6-1.2c-3.6,0.4-5.8-1.4-6.8-2.9
	c-0.4-0.6-1.1-0.8-1.7-0.6c-1,0.3-1.4,1.4-0.9,2.2C312.9,18.1,315.7,20.2,319.8,20.2z"/>
<path class="st0" d="M290.7,28.7c0.1,0.4,0.1,0.8,0.2,1.3c0.2,0.9,1.2,1.4,2,1.1c0.7-0.3,1.1-1,1-1.8c-0.8-3.5,0.6-5.9,2-7.1
	c0.5-0.5,0.7-1.2,0.4-1.8c-0.4-0.9-1.6-1.2-2.3-0.6C291.9,21.6,290.1,24.6,290.7,28.7z"/>
</svg>
