<?xml version="1.0" encoding="utf-8"?>
<!-- Generator: Adobe Illustrator 24.2.1, SVG Export Plug-In . SVG Version: 6.00 Build 0)  -->
<svg version="1.1" id="Capa_1" xmlns="http://www.w3.org/2000/svg" xmlns:xlink="http://www.w3.org/1999/xlink" x="0px" y="0px"
	 viewBox="0 0 70 70" style="enable-background:new 0 0 70 70;" xml:space="preserve">
<style type="text/css">
	.st0{clip-path:url(#SVGID_2_);}
	.st1{fill:#FFA600;}
	.st2{fill:#FFEC66;}
</style>
<g>
	<g>
		<defs>
			<rect id="SVGID_1_" x="0" y="0.6" width="70" height="70"/>
		</defs>
		<clipPath id="SVGID_2_">
			<use xlink:href="#SVGID_1_"  style="overflow:visible;"/>
		</clipPath>
		<g class="st0">
			<path class="st1" d="M67.7,24.4c6.2,18-3.4,37.7-21.4,43.9S8.6,64.8,2.4,46.8s3.3-37.7,21.4-44S61.4,6.3,67.7,24.4z"/>
			<path class="st2" d="M62.4,26.2c5.2,15.1-2.8,31.6-17.9,36.9c-15.1,5.2-31.6-2.8-36.9-17.9C2.4,30,10.4,13.5,25.5,8.3
				C40.7,3,57.2,11.1,62.4,26.2z"/>
			<g>
				<path class="st1" d="M32.6,56.1l0.1-4.9c-2.2-0.2-4.3-0.6-6.1-1.2c-1.5-0.5-2.3-2.1-1.9-3.6l0.1-0.2c0.5-1.6,2.2-2.6,3.8-2
					c1.6,0.6,3.5,1,5.5,1.1c2.9,0.1,4.9-1.1,4.9-3.1c0-1.9-1.6-3.2-5.3-4.5c-5.4-1.9-9.1-4.5-9-9.5c0.1-4.4,3.3-7.9,8.7-8.9l0.1-4.9
					l5,0.1l-0.1,4.4c1.9,0.1,3.4,0.4,4.6,0.7c1.5,0.4,2.4,2,2,3.6l0,0c-0.4,1.6-2.1,2.5-3.7,2c-1.2-0.4-2.7-0.6-4.4-0.7
					c-3.3-0.1-4.4,1.4-4.4,2.7c0,1.7,1.7,2.7,6.1,4.4c6.1,2.3,8.4,5.1,8.3,9.7c-0.1,4.5-3.3,8.3-9.2,9.3l-0.1,5.2L32.6,56.1z"/>
			</g>
		</g>
	</g>
</g>
</svg>
