<?xml version="1.0" encoding="utf-8"?>
<!-- Generator: Adobe Illustrator 24.2.1, SVG Export Plug-In . SVG Version: 6.00 Build 0)  -->
<svg version="1.1" id="Capa_1" xmlns="http://www.w3.org/2000/svg" xmlns:xlink="http://www.w3.org/1999/xlink" x="0px" y="0px"
	 viewBox="0 0 207 211" style="enable-background:new 0 0 207 211;" xml:space="preserve">
<style type="text/css">
	.st0{fill:#0948F0;}
	.st1{fill:#FD5C00;}
	.st2{clip-path:url(#SVGID_2_);}
	.st3{fill:#DED8D1;}
	.st4{fill:#C0B9B3;}
	.st5{fill:#CEC6BF;}
	.st6{fill:#FBC4A1;}
	.st7{fill:#ED9269;}
	.st8{fill:#EAEAE9;}
	.st9{opacity:0.1;fill:#351F33;}
	.st10{fill-rule:evenodd;clip-rule:evenodd;fill:#FBC69E;}
	.st11{fill:#E5AD87;}
	.st12{fill:#FBC69E;}
	.st13{fill:#FBC69F;}
	.st14{opacity:0.3;}
	.st15{opacity:0.4;fill:#ED907B;}
	.st16{fill:#482E2F;}
	.st17{fill:#F6F8F9;}
	.st18{fill:#56321C;}
	.st19{opacity:0.5;}
	.st20{fill:#FFFFFF;}
	.st21{fill:#EA7C69;}
	.st22{fill:#E3E2E2;}
	.st23{fill:#482D2F;}
	.st24{fill:#331E21;}
	.st25{fill:#5B3D41;}
	.st26{opacity:7.000000e-02;}
	.st27{fill:#382224;}
	.st28{fill:#F89E24;}
	.st29{fill:#FAC379;}
	.st30{fill:#282828;}
	.st31{opacity:0.1;fill:#FFFFFF;}
	.st32{opacity:0.27;}
	.st33{opacity:0.2;fill:#FFFFFF;}
	.st34{opacity:5.000000e-02;fill:#FFFFFF;}
	.st35{fill-rule:evenodd;clip-rule:evenodd;fill:#A82A35;}
	.st36{fill-rule:evenodd;clip-rule:evenodd;fill:#901C2A;}
	.st37{fill-rule:evenodd;clip-rule:evenodd;fill:#F0B01D;}
	.st38{fill-rule:evenodd;clip-rule:evenodd;fill:#FABB3E;}
	.st39{fill-rule:evenodd;clip-rule:evenodd;fill:#D79829;}
	.st40{fill-rule:evenodd;clip-rule:evenodd;fill:#C2842B;}
	.st41{fill:#02235E;}
</style>
<path class="st0" d="M1.9,14.8c2.8-0.8,5.9-3.3,6.8-8.1C8.9,5.9,8.2,5.1,7.3,5C6.6,5,5.9,5.5,5.7,6.2c-0.7,3.5-2.9,5.2-4.6,5.7
	C0.4,12.1,0,12.7,0,13.4C0,14.4,1,15.1,1.9,14.8z"/>
<path class="st1" d="M52.4,2.7c-2.7-1-6.7-0.8-10.3,2.6c-0.7,0.6-0.6,1.7,0.1,2.2c0.6,0.5,1.5,0.4,2-0.1c2.6-2.5,5.4-2.5,7.1-1.9
	c0.6,0.2,1.3,0,1.7-0.6C53.7,4.1,53.4,3,52.4,2.7z"/>
<g>
	<defs>
		<rect id="SVGID_1_" x="34" y="11" width="173" height="200"/>
	</defs>
	<clipPath id="SVGID_2_">
		<use xlink:href="#SVGID_1_"  style="overflow:visible;"/>
	</clipPath>
	<g class="st2">
		<g>
			<g>
				<g>
					<g>
						<g>
							<path class="st3" d="M99.4,145.7c4.6-7.7,26.1-14.6,27.2-14.7c7.6-0.2,24.1,10.1,25.8,14c0.8,1.7-0.3,9.8-1.5,19.1
								c-1.2,9.3-2.5,19.8-2.1,26.3c0.4,6.8-4.3,22.8,1.1,18.6c1.3-1-43.8-1.6-45.2,0.2c-3.4,4.1,0.8-9.1,0.7-14.6
								C105.2,183.5,97.5,149,99.4,145.7z"/>
							<g>
								<path class="st4" d="M129.4,152.1c0,0.6-0.5,1-1.1,1c-0.6,0-1-0.5-1-1.1c0-0.6,0.5-1,1.1-1
									C129,151.1,129.4,151.5,129.4,152.1z"/>
								<path class="st4" d="M130.8,163.4c0,0.6-0.5,1-1.1,1c-0.6,0-1-0.5-1-1.1c0-0.6,0.5-1,1.1-1
									C130.4,162.3,130.9,162.8,130.8,163.4z"/>
								<path class="st4" d="M131.7,174.4c0,0.6-0.5,1-1.1,1c-0.6,0-1-0.5-1-1.1c0-0.6,0.5-1,1.1-1
									C131.2,173.3,131.7,173.8,131.7,174.4z"/>
								<path class="st4" d="M132.5,184.5c0,0.6-0.5,1-1.1,1c-0.6,0-1-0.5-1-1.1c0-0.6,0.5-1,1.1-1
									C132.1,183.4,132.5,183.9,132.5,184.5z"/>
								<path class="st4" d="M132.5,194.5c0,0.6-0.5,1-1.1,1c-0.6,0-1-0.5-1-1.1c0-0.6,0.5-1,1.1-1
									C132.1,193.4,132.5,193.9,132.5,194.5z"/>
								<path class="st4" d="M132.8,204.5c0,0.6-0.5,1-1.1,1c-0.6,0-1-0.5-1-1.1c0-0.6,0.5-1,1.1-1
									C132.4,203.4,132.8,203.9,132.8,204.5z"/>
							</g>
							<path class="st5" d="M115,181.1c-4.1-0.2-11.2-14.7-14.8-22.7c1.8,12,5,29,5.1,36.1c0.1,5.1-0.5,8.8-0.7,13.5
								C108.3,201.6,119.7,181.3,115,181.1z"/>
						</g>
						<g>
							<path class="st4" d="M117.9,129c1.3-1.8,14.9-2.1,15.6-0.3l-0.3,8.2l-16.1-0.1L117.9,129z"/>
							<g>
								<g>
									<path class="st6" d="M121.4,118.3c0,0,0.4,5.2-0.6,9.4c-0.9,4.2-3.7,9.8-3.7,9.8l7.3,0.5l5.1,7.1l1.3-8.3l5.5-2.1
										c0,0-5.3-3.2-5.1-9c0.2-5,0.3-7.8,0.3-7.8L121.4,118.3z"/>
								</g>
								<path class="st7" d="M121.3,124.7c3.1,3,7.5,6.6,13.5,9.9c0.2,0.1,0.4,0.2,0.6,0.3l0.9-0.3c0,0-5.3-3.2-5.1-9
									c0.2-5,0.3-7.8,0.3-7.8l-10,0.4C121.4,118.3,121.6,121.4,121.3,124.7z"/>
							</g>
							<g>
								<path class="st8" d="M117.9,129c0,0-0.4,1.6,2.8,4.4c1,0.9,4.3,3,4.3,3l4.9,9.2l-1.1,0.2l-4.7-8.6l-4.6,6.9
									c-1.5-1.9-3.8-6.5-4.1-9L117.9,129z"/>
								<polygon class="st4" points="119.6,144.1 124.1,137.2 128.8,145.8 123.3,141.4 								"/>
							</g>
							<g>
								<path class="st8" d="M133.5,128.8c0.1,2.2-1.4,6.3-2.7,7.4l-2,9.6l1.1-0.2l1.6-8.6l3.3,6.5c1.6-2.7,2.2-7,1.3-10.1
									L133.5,128.8z"/>
								<polygon class="st4" points="134.9,143.5 131.6,137 129.9,145.6 131.7,140.9 								"/>
							</g>
						</g>
					</g>
					<g>
						<path class="st6" d="M196.4,134.1c-0.1-0.4-0.4-0.7-0.7-1c-0.3-0.3-0.8-1-1.3-0.8c-0.4,0.2-0.8,0.7-1.1,1.2
							c0.2-0.4,0.4-0.9,0.6-1.3c0.2-0.6-0.6-1.5-1.2-1.8c-0.8-0.4-1.9,0.4-2.1,1.1c0.1-0.3,0.4-0.9,0.3-1.3c-0.2-0.3-0.7-0.6-1-0.7
							c-0.6-0.3-0.9,0-1.4,0.2c-0.2,0.1-0.8,0.8-0.9,1.3c0-0.3,0.1-0.7,0.1-1c0-0.2-0.2-0.4-0.5-0.6c-0.2-0.2-0.5-0.4-0.7-0.4
							c-0.4,0-1,0.2-1.4,0.4c-0.6,0.3-0.6,0.8-0.9,1.4c-0.2,0.5-0.4,1-0.4,1.4c0,0.5,0.1,1,0.2,1.4c0.2,0.8,0.4,1.5,0.4,2.7
							c-1.2-1.1-1.7-2.4-3.3-2.8c-0.5-0.1-1.2-0.1-1.3,0.4c-0.1,0.3,0.1,0.7,0.3,1c0.8,1.3,1.6,2.6,2.4,3.9c0.8,1.2,0.7,2.7,1.7,3.8
							c0.1,0.1,0.2,0.2,0.3,0.3l-2.2,5.8l5,2.9l2.4-6.5c1-0.1,2.1-0.5,2.8-1.2c0.9-0.8,1.5-1.8,1.8-2.9c0.3-1.1,0.2-2.5,0.2-3.7
							c0.4-0.5,0.7-1,1-1.6c0.3-0.4,0.6-0.8,0.8-1.3C196.4,134.4,196.4,134.2,196.4,134.1z"/>
						<g>
							<path class="st3" d="M137.8,137.5c-2,2-0.4,7.3,0.4,9.5c1.7,4.2,4.5,10.4,6.5,12.8c8.5,10.3,23.1,24.6,25.6,25.6
								c3.5,1.3,10.9,1.2,13.6-3.3c2.7-4.5,5.8-33.4,5.8-33.4l-7.1-2.9L172,164.9l-9-10.7c-1.2-1.4-2.5-2.9-3.7-4.3
								c-3.2-3.8-6.1-7.4-10.4-10c-1.7-1-4.2-2.5-6.1-2.8c-1.4-0.2-3.4-0.7-4.7,0.2C138,137.3,137.9,137.4,137.8,137.5z"/>
							<path class="st9" d="M172.4,165.2c-1.3,2.5-2.7,10.6-1.7,11.1c0.7,0.4,1.6-7.6,1.6-7.6s-0.8,10.1,1.4,10.2
								c1.2,0-1-5.9-0.5-13.1C173.1,165.8,173.1,163.8,172.4,165.2z"/>
						</g>
					</g>
					<g>
						<path class="st6" d="M80.1,59.3c-1.4-1.7-3.7-1-4.2,1.1c-0.6,2.5-4,13.1-4,13.1s4.7-0.8,5.6-1.8c0.4-0.4,0.5-1.7,0.7-3.3
							c0.2-1.1,0.2-2.2,0.6-3.2c0.5-1.3,1.7-2.6,1.8-4C80.7,60.5,80.6,59.9,80.1,59.3z"/>
						<path class="st6" d="M77.1,61.7c0-1.2,0.1-4.1-0.2-5.9c-0.3-1.5-0.8-2.1-2-2.1c-2.6,0.1-3.5,2.4-4.5,3.7
							c-1,1.3-3.7,2.1-5.2,4.4c-0.8,1.2-0.5,2.4-0.5,3.8c0,1.4,0.2,3,0.6,4.8c0.9,3.6,3.8,4.7,3.8,4.7s3.2-0.8,6.3-2.7
							C78.5,70.5,77.1,63.9,77.1,61.7z"/>
						<path class="st3" d="M107.1,142.8c-0.2-1.1,1.1-1,0.2-3.1c-2.2-4.9-6.5-10.2-10.7-16.9c-5.9-9.4-11.8-19.7-11.8-19.7L77,72.1
							c0,0-6.2-0.9-9.8,2.5c0,0,2.1,19.9,5.3,35c1.6,7.6,4.4,11.5,5.5,15.8c1.7,6.4,6.2,13.7,10.4,19.9c4.4,6.4,8.5,11.8,11.6,13.8
							C106.2,163,108.3,150.5,107.1,142.8z"/>
						<path class="st9" d="M84.6,103.8c-1.7,0.3-6,2.9-5.8,3.5c0.1,0.5,4.1-2.2,4.1-2.2s-5,3.5-4.2,4.5c0.4,0.6,2.3-2.7,5.9-5.3
							C84.6,104.4,85.6,103.6,84.6,103.8z"/>
					</g>
					<g>
						<g>
							<g>
								<g>
									<g>
										<path class="st10" d="M107.8,91.9c-1.3-0.9-3.6-1.3-4.7-0.9c-2.4,0.6-2.9,3.9-1.5,7.2c1.2,3.4,4.2,5.5,6.5,4.8
											c0.3-0.1,0.4-0.2,0.6-0.3L107.8,91.9z"/>
									</g>
									<g>
										<path class="st11" d="M107.4,103.5c-2.4,0.1-4.8-2.1-6-5.1c-1-2.3-1.1-4.6-0.2-6.1c0.4-0.7,1.1-1.2,1.8-1.4
											c0.3-0.1,0.7-0.2,1.1-0.2c1.3,0,2.8,0.4,3.8,1.1l0.1,0.1l1,11.1L109,103c-0.2,0.2-0.4,0.3-0.7,0.3
											C108,103.4,107.7,103.5,107.4,103.5z M104.2,91.1c-0.4,0-0.6,0.1-0.9,0.2l0,0c-0.6,0.2-1.2,0.6-1.5,1.1
											c-0.8,1.4-0.8,3.6,0.2,5.7c1.1,2.8,3.3,4.8,5.4,4.8c0.2,0,0.5,0,0.7-0.1c0.1,0,0.3-0.1,0.4-0.2l-0.9-10.6
											C106.6,91.5,105.3,91.1,104.2,91.1z"/>
									</g>
								</g>
								<g>
									<g>
										<g>
											<g>
												<path class="st11" d="M107.8,99.7c-1.6,0.5-3.5-0.4-4.2-2c-0.7-1.6,0-3.3,1.6-3.8l0,0c1.6-0.5,3.5,0.4,4.2,2
													c0.4,0.8,0.4,1.6,0.1,2.3C109.2,98.9,108.6,99.4,107.8,99.7L107.8,99.7z"/>
											</g>
										</g>
										<g>
											<path class="st11" d="M105.1,93.7L105.1,93.7L105.1,93.7c-1.7,0.5-2.5,2.3-1.7,4c0.8,1.7,2.8,2.6,4.5,2.2l0,0
												c0.8-0.3,1.4-0.8,1.7-1.6c0.3-0.8,0.3-1.6-0.1-2.4C108.8,94.1,106.8,93.2,105.1,93.7z M107.8,99.5
												C107.8,99.5,107.7,99.5,107.8,99.5c-1.5,0.5-3.3-0.4-4-1.9c-0.7-1.5,0-3.1,1.5-3.6c0,0,0,0,0,0c1.5-0.4,3.3,0.4,4,1.9
												C109.9,97.4,109.3,99,107.8,99.5z"/>
										</g>
									</g>
									<g>
										<g>
											<g>
												<path class="st12" d="M107.4,98.6c-1.4,0.4-2.9-0.2-3.8-1.5c0.1,0.2,0.1,0.3,0.2,0.5c0.7,1.5,2.5,2.4,4,1.9
													c1.5-0.5,2.2-2.1,1.4-3.6c0-0.1-0.1-0.3-0.2-0.4C109.4,96.9,108.7,98.2,107.4,98.6z"/>
											</g>
										</g>
									</g>
								</g>
							</g>
							<g>
								<g>
									<g>
										<path class="st10" d="M144.6,91.2c1.3-0.9,3.5-1.4,4.6-1c2.4,0.6,3,3.9,1.6,7.2c-1.2,3.4-4,5.6-6.4,5
											c-0.3-0.1-0.5-0.2-0.6-0.3L144.6,91.2z"/>
									</g>
									<g>
										<path class="st11" d="M144.4,102.6c-0.2-0.1-0.5-0.2-0.7-0.3l-0.1-0.1l0.7-11.1l0.1-0.1c1-0.7,2.5-1.2,3.8-1.2
											c0.4,0,0.8,0.1,1.1,0.2c0.8,0.2,1.4,0.7,1.9,1.3c0.9,1.4,0.9,3.8-0.1,6.1c-1.1,3.1-3.5,5.2-5.9,5.2
											C145,102.7,144.7,102.7,144.4,102.6z M144.9,91.3l-0.7,10.7c0.1,0.1,0.3,0.1,0.4,0.2c0.3,0.1,0.5,0.1,0.7,0.1
											c2.1,0,4.3-2.1,5.3-4.9c0.9-2.2,0.9-4.4,0.1-5.8c-0.3-0.6-0.9-1-1.5-1.1l-0.1,0c-0.2-0.1-0.5-0.1-0.9-0.1
											C147.1,90.3,145.8,90.7,144.9,91.3z"/>
									</g>
								</g>
								<g>
									<g>
										<g>
											<g>
												<path class="st11" d="M144.8,98.9c1.6,0.4,3.5-0.5,4.2-2.1c0.7-1.6,0-3.3-1.6-3.8h0c-1.6-0.4-3.5,0.5-4.2,2.1
													c-0.3,0.8-0.4,1.6,0,2.3C143.4,98.1,144,98.7,144.8,98.9L144.8,98.9z"/>
											</g>
										</g>
										<g>
											<path class="st11" d="M143,95.1c-0.4,0.8-0.4,1.7-0.1,2.4c0.3,0.7,1,1.3,1.8,1.5l0,0c1.7,0.4,3.7-0.5,4.4-2.2
												c0.7-1.7,0-3.5-1.7-4l0,0l0,0C145.7,92.4,143.7,93.4,143,95.1z M143.3,95.2c0.7-1.5,2.4-2.4,3.9-2c0,0,0,0,0,0
												c1.5,0.4,2.2,2,1.5,3.5c-0.7,1.5-2.4,2.4-3.9,2c0,0,0,0,0,0C143.3,98.3,142.6,96.7,143.3,95.2z"/>
										</g>
									</g>
									<g>
										<g>
											<g>
												<path class="st12" d="M145.2,97.8c1.4,0.4,2.9-0.3,3.7-1.6c-0.1,0.2-0.1,0.3-0.2,0.5c-0.7,1.5-2.4,2.4-3.9,2
													c-1.5-0.4-2.2-2-1.5-3.5c0-0.1,0.1-0.3,0.2-0.4C143.2,96.1,143.9,97.4,145.2,97.8z"/>
											</g>
										</g>
									</g>
								</g>
							</g>
							<path class="st13" d="M147.3,82.7c-1.6-1.1-2.1-9.1-3.6-9.9c-15.3-8-29.3-1.9-35.2,0.9c-2.6,1.2-3.3,7.7-3.3,7.7l1.1,9.9
								l2.1,14.4c0.8,4.3,4.3,7.9,7.7,10.3c3.2,2.2,7.1,4.9,11.1,4.9c4.8-0.1,9.9-4.4,13.3-7.5c2.6-2.4,3.8-5.2,4.4-8.7
								c0.7-4.3,1.5-8.6,2.2-12.9C147.5,88.8,146.8,85.8,147.3,82.7z"/>
							<g class="st14">
								<path class="st15" d="M139,96.9c-2.7,0-4.8,2.2-4.8,4.9c0,2.7,2.2,4.8,4.9,4.8c2.7,0,4.8-2.2,4.8-4.9
									C143.9,99,141.7,96.8,139,96.9z"/>
								<path class="st15" d="M114.9,97.1c-2.7,0-4.8,2.2-4.8,4.9c0,2.7,2.2,4.8,4.9,4.8c2.7,0,4.8-2.2,4.8-4.9
									C119.8,99.3,117.6,97.1,114.9,97.1z"/>
							</g>
							<g>
								<g>
									<path class="st16" d="M134.3,90.5c-0.9,0-1.7,0.7-1.7,1.7l0,0.8c0,0.9,0.7,1.7,1.6,1.7c0.9,0,1.7-0.7,1.7-1.7l0-0.8
										C136,91.2,135.3,90.5,134.3,90.5z"/>
									<g>
										<g>
											<path class="st17" d="M135.1,91.8c0,0.4-0.3,0.8-0.8,0.8c-0.4,0-0.8-0.4-0.8-0.8c0-0.4,0.4-0.8,0.8-0.8
												C134.8,91,135.1,91.3,135.1,91.8z"/>
										</g>
									</g>
								</g>
								<g>
									<path class="st16" d="M119.4,90.3c-0.9,0-1.7,0.7-1.7,1.7l0,0.8c0,0.9,0.7,1.7,1.7,1.7c0.9,0,1.7-0.8,1.7-1.7l0-0.8
										C121,91.1,120.3,90.3,119.4,90.3z"/>
									<g>
										<g>
											<path class="st17" d="M120.2,91.6c0,0.4-0.4,0.8-0.8,0.8c-0.4,0-0.8-0.3-0.8-0.8c0-0.4,0.4-0.8,0.8-0.8
												C119.8,90.8,120.2,91.2,120.2,91.6z"/>
										</g>
									</g>
								</g>
							</g>
							<g id="XMLID_10_">
								<g id="XMLID_22_">
									<path id="XMLID_23_" class="st13" d="M124.3,99.3c0,0-2.8,6,3,5.9c5.7-0.1,2.8-6,2.8-6l0,0
										C128.2,98.5,126.2,98.5,124.3,99.3L124.3,99.3z"/>
								</g>
								<g id="XMLID_15_">
									<path id="XMLID_21_" class="st18" d="M124.3,99.3c0,0,0,0.1-0.1,0.2c-0.1,0.1-0.1,0.3-0.3,0.5c-0.1,0.2-0.2,0.5-0.3,0.8
										c-0.1,0.3-0.2,0.7-0.3,1.1c-0.1,0.4-0.1,0.9,0,1.4c0,0.2,0.1,0.5,0.3,0.7c0.1,0.2,0.3,0.5,0.5,0.7c0.2,0.2,0.4,0.4,0.7,0.5
										c0.2,0.1,0.5,0.3,0.8,0.3c0.5,0.2,1.1,0.2,1.7,0.2l0.2,0c0.1,0,0.1,0,0.2,0c0.2,0,0.3,0,0.4,0c0.3,0,0.5-0.1,0.8-0.2
										c0.3-0.1,0.6-0.2,0.8-0.3c0.2-0.1,0.5-0.3,0.7-0.5c0.2-0.2,0.4-0.5,0.5-0.7c0.1-0.2,0.2-0.5,0.2-0.7c0.1-0.5,0.1-0.9,0-1.4
										c-0.1-0.4-0.2-0.8-0.3-1.1c-0.1-0.3-0.2-0.6-0.3-0.8c-0.1-0.2-0.2-0.4-0.2-0.5c-0.1-0.1-0.1-0.2-0.1-0.2s0,0.1,0.1,0.2
										c0,0.1,0.1,0.3,0.1,0.5c0.1,0.2,0.1,0.5,0.2,0.8c0.1,0.3,0.1,0.7,0.1,1c0,0.4,0,0.8-0.1,1.2c-0.1,0.2-0.1,0.4-0.2,0.6
										c-0.1,0.2-0.2,0.3-0.4,0.5c-0.2,0.1-0.3,0.3-0.5,0.4c-0.2,0.1-0.4,0.2-0.6,0.2c-0.2,0.1-0.5,0.1-0.7,0.1
										c-0.1,0-0.2,0-0.4,0c0,0-0.1,0-0.2,0l-0.2,0c-0.5,0-1,0-1.4-0.1c-0.2-0.1-0.4-0.1-0.6-0.2c-0.2-0.1-0.4-0.2-0.5-0.3
										c-0.1-0.1-0.3-0.3-0.4-0.5c-0.1-0.2-0.2-0.4-0.2-0.6c-0.1-0.4-0.1-0.8-0.1-1.2c0-0.4,0-0.7,0.1-1c0-0.3,0.1-0.6,0.2-0.8
										c0-0.2,0.1-0.4,0.1-0.5C124.3,99.4,124.3,99.3,124.3,99.3z"/>
								</g>
								<g id="XMLID_13_" class="st19">
									<path id="XMLID_14_" class="st20" d="M127.2,99.2c-0.1,0.3,0.5,0.2,1.2,0.4c0.6,0.2,1.1,0.6,1.2,0.4c0.1-0.3-0.4-0.6-1-0.8
										C127.9,98.8,127.3,98.9,127.2,99.2z"/>
								</g>
								<g id="XMLID_11_">
									<path id="XMLID_12_" class="st21" d="M124.4,99.7c-0.4,1.4-0.5,3.9,2.8,3.8c3.3,0,3.1-2.4,2.7-3.9c0.5,1.2,1.6,5-2.7,5
										C122.9,104.7,123.9,101,124.4,99.7z"/>
								</g>
							</g>
							<g>
								<path class="st16" d="M147.7,74.9c1.1,8.9-0.8,18.7-0.8,18.7s-7.2-9.8-6-20.2c2.2-2.5,4.1,0.1,5.2-3.1
									C147,72,147.5,73.4,147.7,74.9z"/>
								<path class="st16" d="M115.8,71.6c-1-0.9-2.3-1.4-3.5-2.1c-1-0.5-2.1-0.2-3.2,0c-1,0.1-1.8,0.5-2.5,1.4
									c-0.7,1-1.4,2.3-1.6,4.1c-1.6,9.4,1.4,19.1,1.4,19.1c2.4-2.8,3.6-6.6,4.3-10.2c0.4-1.7,0.7-3.4,0.8-5.1
									c0.2-2.8,2.1-3.5,4.7-3.4c0.6,0,1.3,0.4,1.5-0.4C118,74,116.5,72.1,115.8,71.6z"/>
							</g>
							<g>
								<path class="st20" d="M118.4,107.9c1.9,4.4,5.1,6.3,8.8,6.3c3.7,0,6.9-2,8.8-6.3H118.4z"/>
								<path class="st22" d="M120.1,110.6c0,0,0.2,0,0.5,0.1c0.1,0,0.3,0,0.5,0.1c0.1,0,0.2,0,0.3,0c0.1,0,0.2,0,0.3,0
									c0.2,0,0.4,0,0.6,0.1c0.1,0,0.2,0,0.3,0c0.1,0,0.2,0,0.2,0c0.3,0,0.5,0.1,0.5,0.1s-0.2,0.1-0.5,0.1c-0.1,0-0.2,0-0.2,0
									c-0.1,0-0.2,0-0.3,0c-0.1,0-0.2,0-0.3,0c-0.1,0-0.2,0-0.3,0c-0.2,0-0.4-0.1-0.6-0.1c-0.2,0-0.3-0.1-0.5-0.2
									c-0.1-0.1-0.3-0.1-0.3-0.2C120.1,110.7,120.1,110.6,120.1,110.6z"/>
								<path class="st22" d="M131.4,111.1c0,0,0.2,0,0.5-0.1c0.3,0,0.7,0,1.1-0.1c0.1,0,0.2,0,0.3,0c0.1,0,0.2,0,0.3,0
									c0.2,0,0.3,0,0.5-0.1c0.1,0,0.1,0,0.2-0.1c0.1,0,0.1,0,0.1-0.1c0.1,0,0.1-0.1,0.1-0.1s0,0-0.1,0.1c0,0-0.1,0.1-0.1,0.1
									c0,0-0.1,0.1-0.2,0.1c-0.1,0.1-0.3,0.1-0.5,0.2c-0.2,0-0.4,0.1-0.6,0.1c-0.2,0-0.4,0-0.6,0c-0.2,0-0.4,0-0.5-0.1
									C131.5,111.1,131.4,111.1,131.4,111.1z"/>
							</g>
							<g>
								<path class="st23" d="M123,88.4c-2.8-3.4-6.9-1.8-8.7-0.5c-0.3,0.2-0.4,0.6-0.1,0.9c0.2,0.3,0.6,0.4,0.9,0.1
									c0,0,1.1-0.8,2.5-1.1c1.8-0.4,3.2,0,4.4,1.4c0.1,0.2,0.3,0.2,0.5,0.2c0.1,0,0.3,0,0.4-0.2C123.2,89.2,123.3,88.7,123,88.4z"
									/>
								<path class="st24" d="M122.9,89.1c-0.1,0.1-0.3,0.1-0.4,0.1c-0.2,0-0.4-0.1-0.5-0.2c-1.1-1.4-2.6-1.8-4.4-1.4
									c-1.4,0.4-2.5,1.1-2.5,1.1c-0.3,0.2-0.7,0.2-0.9-0.1c-0.1-0.1-0.1-0.1-0.1-0.2c0,0.2,0,0.4,0.1,0.6c0.2,0.3,0.6,0.4,0.9,0.1
									c0,0,1.1-0.8,2.5-1.1c1.8-0.4,3.2,0,4.4,1.4c0.1,0.2,0.3,0.2,0.5,0.2c0.1,0,0.3,0,0.4-0.2c0.2-0.2,0.3-0.4,0.2-0.7
									C123.1,88.8,123,89,122.9,89.1z"/>
								<path class="st25" d="M114.4,88.3c1.8-1.3,5.9-2.9,8.7,0.5c0.1,0.1,0.1,0.2,0.1,0.3c0.1-0.2,0-0.4-0.1-0.6
									c-2.8-3.4-6.9-1.8-8.7-0.5c-0.2,0.2-0.3,0.5-0.2,0.7C114.2,88.5,114.2,88.4,114.4,88.3z"/>
							</g>
							<g>
								<path class="st23" d="M131,88.5c2.8-3.4,6.9-1.8,8.7-0.5c0.3,0.2,0.4,0.6,0.1,0.9c-0.2,0.3-0.6,0.4-0.9,0.1
									c0,0-1.1-0.8-2.5-1.1c-1.8-0.4-3.2,0-4.4,1.4c-0.1,0.2-0.3,0.2-0.5,0.2c-0.1,0-0.3,0-0.4-0.1
									C130.8,89.2,130.7,88.8,131,88.5z"/>
								<path class="st24" d="M131.1,89.1c0.1,0.1,0.3,0.1,0.4,0.1c0.2,0,0.4-0.1,0.5-0.2c1.1-1.4,2.6-1.8,4.4-1.4
									c1.4,0.4,2.5,1.1,2.5,1.1c0.3,0.2,0.7,0.2,0.9-0.1c0.1-0.1,0.1-0.1,0.1-0.2c0,0.2,0,0.4-0.1,0.6c-0.2,0.3-0.6,0.4-0.9,0.1
									c0,0-1.1-0.8-2.5-1.1c-1.8-0.4-3.2,0-4.4,1.4c-0.1,0.2-0.3,0.2-0.5,0.2c-0.1,0-0.3,0-0.4-0.1c-0.2-0.2-0.3-0.4-0.2-0.7
									C130.9,88.9,130.9,89,131.1,89.1z"/>
								<path class="st25" d="M139.6,88.4c-1.8-1.3-5.9-2.9-8.7,0.5c-0.1,0.1-0.1,0.2-0.1,0.3c-0.1-0.2,0-0.4,0.1-0.6
									c2.8-3.4,6.9-1.8,8.7-0.5c0.2,0.2,0.3,0.4,0.2,0.7C139.8,88.6,139.8,88.5,139.6,88.4z"/>
							</g>
							<g>
								<path class="st26" d="M147.3,68c-0.7,1.7-1.8,3.5-3.1,5c-0.8,1-1.8,1.8-2.8,2.6c-1.8,1.4-3.7,2.2-5.5,3.1
									c-1.5,0.7-3,1.6-4.6,2c-7.9,1.9-19.2,0.1-23-8.5c-0.4-0.9-0.6-1.7-0.8-2.6c0,0,0,0.1,0,0.1c-0.3,1.6-0.1,3.4,0.8,5.4
									c3.8,8.6,15.1,10.4,23,8.5c1.6-0.4,3.1-1.3,4.6-2c1.8-0.9,3.7-1.7,5.5-3.1c1-0.8,1.9-1.6,2.8-2.6c1.4-1.5,2.5-3.3,3.1-5
									c0.4-1.1,0.7-2.5,0.8-4c0-0.8,0-1.6,0-2.4C147.9,65.7,147.7,67,147.3,68z"/>
								<g>
									<path class="st16" d="M148.4,58.5c-0.8-1.5-1.9-3.2-3.3-4.2c-1.6-1.1-2.4-0.5-3.2,0.6c-0.4,0.5-0.8,1.1-1.3,1.7
										c-5.4,6.1-16.6,0.9-23.2,2.4c-2.2,0.5-4.4,0.8-6.2,2c-1.3,0.9-2.3,2.6-3.1,3.9c-0.6,0.9-1,1.9-1.1,2.9
										c-0.3,1.6-0.1,3.4,0.8,5.4c3.9,8.6,15.8,10.4,24.1,8.5c1.7-0.4,3.3-1.3,4.8-2c1.9-0.9,3.9-1.7,5.8-3.1c1-0.8,2-1.6,2.9-2.6
										c1.4-1.5,2.6-3.3,3.3-5c0.5-1.1,0.7-2.5,0.8-4C149.6,62.7,149.3,60.2,148.4,58.5z"/>
									<path class="st27" d="M148.4,58.5c-0.8-1.5-1.9-3.2-3.3-4.2c-0.7-0.5-1.2-0.6-1.7-0.6c0.1,0.1,0.2,0.1,0.4,0.2
										c1.4,1,2.5,2.7,3.3,4.2c0.9,1.7,1.2,4.2,1.1,6.5c-0.1,1.5-0.4,2.9-0.8,4c-0.7,1.7-1.9,3.5-3.3,5c-0.9,1-1.9,1.8-2.9,2.6
										c-1.9,1.4-3.9,2.2-5.8,3.1c-1.5,0.7-3.1,1.6-4.8,2c-3.7,0.9-8.1,1-12.3,0c4.5,1.3,9.5,1.2,13.6,0.3c1.7-0.4,3.3-1.3,4.8-2
										c1.9-0.9,3.9-1.7,5.8-3.1c1-0.8,2-1.6,2.9-2.6c1.4-1.5,2.6-3.3,3.3-5c0.5-1.1,0.7-2.5,0.8-4
										C149.6,62.7,149.3,60.2,148.4,58.5z"/>
								</g>
							</g>
						</g>
						<g>
							<g>
								<path class="st28" d="M147,91.7c0.2,0,0.4-0.5,0.4-1c0-0.6-0.2-1-0.4-1c-0.2,0-0.4,0.5-0.4,1
									C146.7,91.2,146.8,91.7,147,91.7z"/>
								<path class="st29" d="M147.1,90.9c0.1,0,0.2-0.3,0.2-0.6c0-0.3-0.1-0.6-0.2-0.6c-0.1,0-0.2,0.3-0.2,0.6
									C146.9,90.7,147,90.9,147.1,90.9z"/>
								<path class="st30" d="M148.4,89c-1.2-0.1-10.4-1.6-20.5,1.7c-0.2,0-0.6,0.1-0.8,0.1c-0.3,0-0.7,0-0.9,0
									c-10.2-3-19.4-1.4-20.5-1.2c-0.6,0.1,0.1,3.2,0.1,3.2s1.4,0.1,1.6,1.9c0.2,2.4,0.4,8.7,8.2,8.6c9.8-0.1,9-9.4,11.5-9.8
									c2.5,0.4,1.9,9.7,11.7,9.6c7.8-0.1,7.8-6.4,8-8.8c0.1-1.7,1.5-1.9,1.5-1.9S149,89.1,148.4,89z M123.2,95.3
									c-1,3.9-2.1,6.5-7.5,6.6l-0.1,0c-2.2,0-3.9-0.7-5-2c-1.7-2-1.6-4.9-1.3-7c0.1-0.8,0.6-1.8,2.2-2.4c0.8-0.3,1.8-0.4,3-0.4
									c0.6,0,1.1,0,1.4,0l0,0c2.6,0.1,5.6,0.3,6.9,2C123.4,93,123.5,94,123.2,95.3z M143.8,99.6c-1.1,1.3-2.8,2-5,2.1l-0.1,0
									c-5.4,0.1-6.5-2.5-7.6-6.4c-0.4-1.3-0.2-2.3,0.4-3.2c1.3-1.8,4.2-2,6.9-2.2c0.4,0,0.9-0.1,1.5-0.1c1.2,0,2.2,0.1,3,0.4
									c1.6,0.5,2.1,1.6,2.2,2.3C145.4,94.6,145.5,97.6,143.8,99.6z"/>
								<path class="st31" d="M126.3,91.8c0,0.4,0.5,0.6,1.1,0.6c0.6,0,1.1-0.3,1.1-0.6c0-0.4-0.5-0.6-1.1-0.6
									C126.8,91.2,126.3,91.5,126.3,91.8z"/>
								<path class="st32" d="M107.9,97.7c0.2,0.3,0.3,0.6,0.5,0.9c0.9,1.5,2,2.5,3.6,3.1c1.5,0.6,3.6,0.9,5.1,0.7
									c1.6-0.2,3.2-0.9,4.5-1.9c1.9-1.5,2.3-3.5,3.3-5.6c0.9-1.8,2.5-3.3,3.8-0.8c1.1,2.1,1.9,4.1,3.6,5.8
									c1.8,1.7,3.8,2.3,6.3,2.3c1.7,0,3.3-0.3,4.9-1.1c0.3-0.2,1.1-0.6,1.7-0.9c-1.1,1.5-3,2.7-6.3,2.7c-9.8,0.2-9.2-9.2-11.7-9.6
									c-2.5,0.5-1.7,9.8-11.5,9.8C110.3,103.2,108.5,100.3,107.9,97.7z"/>
								<g>
									<path class="st31" d="M107.2,92.1c0.2,0,0.4-0.5,0.4-1c0-0.6-0.2-1-0.4-1c-0.2,0-0.4,0.5-0.3,1
										C106.8,91.6,107,92.1,107.2,92.1z"/>
									<path class="st31" d="M147,91.7c0.2,0,0.3-0.5,0.3-1c0-0.6-0.2-1-0.4-1c-0.2,0-0.4,0.5-0.4,1
										C146.7,91.2,146.8,91.7,147,91.7z"/>
								</g>
							</g>
							<g>
								<path class="st33" d="M131.1,95.2c1.1,3.9,2.2,6.5,7.6,6.4l0.1,0c2.2,0,3.9-0.7,5-2.1c1.7-2,1.6-5,1.2-7.1
									c-0.1-0.8-0.6-1.8-2.2-2.3c-0.8-0.3-1.8-0.4-3-0.4c-0.6,0-1.1,0-1.5,0.1l0,0c-2.6,0.2-5.6,0.4-6.9,2.2
									C130.8,92.9,130.7,94,131.1,95.2z"/>
								<path class="st31" d="M136.1,94.3c0,2.1,2,3.8,4.4,3.7c2.4,0,4.3-1.8,4.3-3.8c0-2.1-2-3.8-4.4-3.7
									C138,90.5,136.1,92.2,136.1,94.3z"/>
								<path class="st33" d="M110.6,99.9c1.1,1.3,2.8,2,5,2l0.1,0c5.4-0.1,6.5-2.6,7.5-6.6c0.3-1.3,0.2-2.3-0.4-3.2
									c-1.3-1.8-4.3-1.9-6.9-2l0,0c-0.4,0-0.9,0-1.4,0c-1.2,0-2.2,0.2-3,0.4c-1.6,0.6-2,1.6-2.2,2.4C108.9,95,108.9,98,110.6,99.9
									z"/>
								<path class="st31" d="M114.1,94.5c0,2.1,2,3.8,4.4,3.7c2.4,0,4.3-1.7,4.3-3.8c0-2.1-2-3.8-4.4-3.7
									C116.1,90.7,114.1,92.4,114.1,94.5z"/>
								<path class="st34" d="M139,93.4c0,1.2,1.1,2.2,2.5,2.2c1.4,0,2.5-1,2.5-2.2c0-1.2-1.1-2.2-2.5-2.2
									C140.1,91.2,139,92.2,139,93.4z"/>
								<path class="st34" d="M116.9,93.6c0,1.2,1.2,2.2,2.5,2.2c1.4,0,2.5-1,2.5-2.2c0-1.2-1.1-2.2-2.5-2.2
									C118,91.4,116.9,92.4,116.9,93.6z"/>
							</g>
						</g>
					</g>
				</g>
				<path class="st35" d="M128.7,150.2c0.2,0,10.5,18.2-2.6,27.1c-9.1,6.2,15,12-8.5,26.4c-4.9,3-19.3,1.3-27.5-0.8
					c-4.5-1.2-7.3-0.5-10.8-4.7c-6.1-7.3-7.6-1.9,1.5-11.9c0.3-0.3,8.9,7.2,16.5,9.5c9,2.7,30.9,3.4,21.4-11.5
					c-5.8-9.2,12.5-4.7,10.2-26.1C128.8,156.3,127.6,150.1,128.7,150.2z"/>
				<path class="st35" d="M130.1,150.9l2.7-6.1c-1.6-0.2-6.3-0.2-7.5,0.4l2.3,6.2L130.1,150.9z"/>
				<polygon class="st35" points="123.3,141.4 127.5,144.8 125.3,145.1 126.4,147.8 120.3,143.6 				"/>
				<polygon class="st35" points="131.7,140.9 130.3,144.7 132.8,144.8 133.8,142.6 				"/>
				<polygon class="st36" points="129.5,150.9 130,150.9 130.8,147.6 				"/>
				<polygon class="st36" points="128.4,151.2 127.8,151.2 126.6,148 				"/>
				<polygon class="st36" points="129.5,150.9 129,150.9 127.8,146.4 				"/>
			</g>
			<g>
				<polygon class="st37" points="128.4,189.4 122.1,189.7 121.3,188.8 122.1,188.1 128.4,188.4 				"/>
				<polygon class="st38" points="121.6,189 122.3,188.4 128.4,188.6 128.4,188.4 122.1,188.1 121.3,188.8 122.1,189.7 122.1,189.7 
									"/>
				<path class="st39" d="M129.8,189.2c0,0.3-0.3,0.6-0.6,0.6h-0.8c-0.3,0-0.6-0.3-0.6-0.6v-0.7c0-0.3,0.3-0.6,0.6-0.6h0.8
					c0.3,0,0.6,0.3,0.6,0.6V189.2z"/>
				<path class="st40" d="M128,189.2v-0.7c0-0.3,0.3-0.6,0.6-0.6h-0.3c-0.3,0-0.6,0.3-0.6,0.6v0.7c0,0.3,0.3,0.6,0.6,0.6h0.3
					C128.3,189.8,128,189.6,128,189.2z"/>
			</g>
		</g>
		<g>
			<path class="st0" d="M47.9,40.9c-0.9-2.7-3.4-5.8-8.3-6.6c-0.9-0.1-1.7,0.5-1.7,1.4c0,0.8,0.5,1.4,1.3,1.5
				c3.5,0.5,5.3,2.8,5.8,4.5c0.2,0.6,0.8,1.1,1.5,1C47.5,42.9,48.2,41.8,47.9,40.9z"/>
			<path class="st1" d="M64.5,33.3c2-2,3.7-5.7,2.2-10.3c-0.3-0.9-1.3-1.3-2.1-0.9c-0.7,0.3-1,1.1-0.8,1.8c1.1,3.4-0.2,5.9-1.4,7.2
				c-0.5,0.5-0.6,1.2-0.3,1.8C62.6,33.8,63.8,34,64.5,33.3z"/>
			<path class="st1" d="M160.9,69c2-2,3.7-5.7,2.2-10.3c-0.3-0.9-1.3-1.3-2.1-0.9c-0.7,0.3-1,1.1-0.8,1.8c1.1,3.4-0.2,5.9-1.4,7.2
				c-0.5,0.5-0.6,1.2-0.3,1.8C159,69.5,160.2,69.7,160.9,69z"/>
			<path class="st1" d="M131.6,20.9c2.8-0.8,5.9-3.3,6.8-8.1c0.2-0.9-0.5-1.7-1.4-1.8c-0.8-0.1-1.4,0.5-1.6,1.2
				c-0.7,3.5-2.9,5.2-4.6,5.7c-0.7,0.2-1.1,0.8-1.1,1.5C129.7,20.4,130.7,21.1,131.6,20.9z"/>
			<path class="st0" d="M98.1,33c0.4,0,0.9,0,1.3-0.1c0.9-0.1,1.5-1,1.3-1.8c-0.2-0.8-0.9-1.2-1.6-1.2c-3.6,0.4-5.8-1.4-6.8-2.9
				c-0.4-0.6-1.1-0.8-1.7-0.6c-1,0.3-1.4,1.4-0.9,2.2C91.2,30.9,94,33,98.1,33z"/>
			<path class="st0" d="M175.4,31.2c0.4,0,0.9,0,1.3-0.1c0.9-0.1,1.5-1,1.3-1.8c-0.2-0.8-0.9-1.2-1.6-1.2c-3.6,0.4-5.8-1.4-6.8-2.9
				c-0.4-0.6-1.1-0.8-1.7-0.6c-1,0.3-1.4,1.4-0.9,2.2C168.4,29.1,171.2,31.2,175.4,31.2z"/>
			<path class="st41" d="M63.6,207.9h140.8c1.4,0,2.6-2.3,2.6-5.1c0-2.8-1.2-5.1-2.6-5.1H63.6c-1.4,0-2.6,2.3-2.6,5.1
				C61,205.7,62.2,207.9,63.6,207.9z"/>
			<path class="st1" d="M64.9,208h138.2v3H64.9V208z"/>
		</g>
	</g>
</g>
</svg>
