<svg width="57" height="40" viewBox="0 0 57 40" fill="none" xmlns="http://www.w3.org/2000/svg">
<path opacity="0.2" d="M11.5462 15.602C16.423 12.7461 18.5172 8.64231 20.8671 7.26621C23.217 5.89011 28.8233 4.14579 34.1928 13.3151C39.5624 22.4844 33.7109 27.718 31.1262 29.2316C19.023 36.32 2.90935 20.6597 11.5462 15.602Z" fill="#87CBB3"/>
<path d="M43 24.776V14C42.9976 12.0116 42.2067 10.1053 40.8006 8.69933C39.3946 7.29332 37.4884 6.50238 35.5 6.5H20.5C18.5116 6.50238 16.6053 7.29332 15.1993 8.69933C13.7933 10.1053 13.0024 12.0116 13 14V24.776C11.9999 25.1282 11.1569 25.823 10.62 26.7373C10.0832 27.6516 9.88723 28.7264 10.0669 29.7713C10.2465 30.8162 10.7902 31.7638 11.6016 32.4463C12.413 33.1287 13.4397 33.502 14.5 33.5H41.5C42.5602 33.502 43.587 33.1287 44.3983 32.4463C45.2097 31.7638 45.7534 30.8162 45.9331 29.7713C46.1127 28.7264 45.9168 27.6516 45.3799 26.7373C44.8431 25.823 44 25.1282 43 24.776ZM20.5 9.5H35.5C36.6934 9.5 37.838 9.97411 38.682 10.818C39.5259 11.6619 40 12.8065 40 14V24.5H33.7735C33.3372 24.4997 32.9061 24.5946 32.5102 24.778C32.1144 24.9614 31.7633 25.229 31.4815 25.562L31.111 26H24.8875L24.5185 25.562C24.2366 25.229 23.8856 24.9614 23.4897 24.778C23.0938 24.5946 22.6628 24.4997 22.2265 24.5H16V14C16 12.8065 16.4741 11.6619 17.318 10.818C18.1619 9.97411 19.3065 9.5 20.5 9.5ZM41.5 30.5H14.5C14.1021 30.5 13.7206 30.342 13.4393 30.0607C13.158 29.7794 13 29.3978 13 29C13 28.6022 13.158 28.2206 13.4393 27.9393C13.7206 27.658 14.1021 27.5 14.5 27.5H22.228L22.597 27.938C22.8786 28.2708 23.2295 28.5383 23.6251 28.7217C24.0206 28.9051 24.4514 29.0001 24.8875 29H31.111C31.5473 29.0003 31.9783 28.9054 32.3742 28.722C32.7701 28.5386 33.1211 28.271 33.403 27.938L33.7735 27.5H41.5C41.8978 27.5 42.2793 27.658 42.5606 27.9393C42.8419 28.2206 43 28.6022 43 29C43 29.3978 42.8419 29.7794 42.5606 30.0607C42.2793 30.342 41.8978 30.5 41.5 30.5Z" fill="#0D8284"/>
</svg>
