<svg width="245" height="42" viewBox="0 0 245 42" fill="none" xmlns="http://www.w3.org/2000/svg">
<path d="M9.55418 7.4571V36.7108C9.55418 39.3133 7.41419 41.4252 4.77709 41.4252C2.13998 41.4205 0 39.3133 0 36.7108V7.4571C0 4.85459 2.13998 2.74268 4.77709 2.74268C7.41419 2.74268 9.55418 4.85459 9.55418 7.4571Z" fill="white"/>
<path d="M32.824 23.5956C32.824 20.965 32.3033 19.1381 30.5089 19.1381C28.3689 19.1381 26.1106 22.1098 26.1106 27.0812V37.5426C26.1106 39.6825 24.3493 41.4207 22.1809 41.4207H20.8932C18.7248 41.4207 16.9635 39.6825 16.9635 37.5426V26.5672C16.9635 22.7919 16.4049 20.0866 15.761 18.2177C15.0413 16.1432 16.1634 13.8864 18.2845 13.2276C20.1735 12.6389 22.2377 13.5173 23.0379 15.3068C23.3267 15.9516 23.5918 16.6992 23.7954 17.5402C25.8217 13.9985 29.5857 12.3398 33.6952 12.3398C39.7174 12.3398 42.0326 16.2833 42.0326 22.2826V37.5473C42.0326 39.6872 40.2714 41.4253 38.103 41.4253H36.7584C34.59 41.4253 32.8288 39.6872 32.8288 37.5473V23.5956H32.824Z" fill="white"/>
<path d="M47.0655 20.7407C47.0655 15.8861 50.8862 12.2277 57.3109 12.2277C59.9196 12.2277 62.3058 12.7136 64.1427 13.2509C66.1407 13.835 67.1633 16.017 66.3111 17.8952C65.5678 19.5399 63.6551 20.3249 61.9459 19.6848C60.876 19.2829 59.6971 18.9699 58.5797 18.9699C57.363 18.9699 56.3782 19.4838 56.3782 20.6286C56.3782 21.8294 58.1158 23.0302 60.7197 24.1142C65.2932 26.0018 67.9587 28.3987 67.9587 32.8001C67.9587 37.7154 64.37 42 57.5382 42C54.4702 42 51.7479 41.4113 49.6268 40.7525C47.6526 40.1357 46.6583 37.9677 47.5105 36.1081L47.5721 35.968C48.3391 34.2906 50.3181 33.5337 52.0414 34.2345C53.2392 34.7204 54.6028 35.141 55.8006 35.141C57.4198 35.141 58.5797 34.5149 58.5797 33.3141C58.5797 31.8843 57.131 30.6835 55.1662 29.9453C49.3806 27.6511 47.0655 25.0253 47.0655 20.7407Z" fill="white"/>
<path d="M74.8521 12.9705L75.4723 9.26059C75.6901 7.94766 76.7032 6.89637 78.0194 6.61136L79.7665 6.2329C81.8212 5.78902 83.7671 7.33558 83.7671 9.41011V12.9658H90.5989L89.5005 19.5912H83.7671V32.3327C83.7671 33.9914 84.6951 34.8465 86.4326 34.8465C86.8776 34.8465 87.3464 34.8091 87.8009 34.7577C89.4343 34.5615 90.9588 35.6127 91.3659 37.1873C91.8346 38.9955 90.6652 40.8178 88.8093 41.1822C87.4695 41.4485 85.8455 41.6494 83.9423 41.6494C78.152 41.6494 74.6769 39.5375 74.6769 33.8793V19.5959H70.1034V12.9705H74.8521Z" fill="white"/>
<path d="M120.066 40.5142L117.273 41.3833C116.213 41.715 115.067 41.2852 114.485 40.346C113.893 39.3882 113.23 37.9911 112.894 36.1689C111.62 39.7106 109.13 41.7664 104.963 41.7664C97.3788 41.7664 93.7901 36.1082 93.7901 27.5391C93.7901 18.7971 99.694 12.3398 108.32 12.3398C111.554 12.3398 115.597 13.0874 117.931 13.578C119.044 13.8116 119.839 14.7835 119.839 15.9095V27.6512C119.839 32.3936 120.72 35.454 121.553 37.2809C122.14 38.5799 121.435 40.089 120.066 40.5142ZM110.687 21.3482C110.687 20.0586 109.646 18.9746 108.334 18.9653C108.33 18.9653 108.32 18.9653 108.315 18.9653C104.552 18.9653 103.51 22.334 103.51 26.9644C103.51 31.1928 103.685 35.1363 106.464 35.1363C108.836 35.1363 110.692 30.8518 110.692 26.0532V21.3482H110.687Z" fill="white"/>
<path d="M136.855 2.74259V41.4251H127.301V2.74259H136.855ZM161.46 41.4204H150.807L137.489 20.2219V19.5351C144.321 16.2784 146.523 10.966 148.374 2.73792H157.866C155.665 13.5358 152.076 17.8764 147.91 21.077L161.46 41.4204Z" fill="white"/>
<path d="M191.448 39.5938L184.095 41.8786C184.095 41.8786 182.012 39.9349 181.316 36.1643C180.043 39.7059 177.552 41.7618 173.386 41.7618C165.801 41.7618 162.213 36.1035 162.213 27.5344C162.213 18.7924 168.117 12.3352 176.743 12.3352C181.548 12.3352 188.148 13.9939 188.262 13.9939V27.6512C188.262 36.6829 191.448 39.5938 191.448 39.5938ZM179.115 19.4279C178.594 19.1989 177.434 18.97 176.743 18.97C172.979 18.97 171.937 22.3387 171.937 26.9691C171.937 31.1975 172.113 35.141 174.892 35.141C177.264 35.141 179.12 30.8565 179.12 26.0579V19.4279H179.115Z" fill="white"/>
<path d="M194.166 20.7407C194.166 15.8861 197.986 12.2277 204.411 12.2277C210.201 12.2277 214.889 14.6293 214.889 14.6293L212 21.0257C210.727 20.395 208.066 18.9699 205.689 18.9699C204.473 18.9699 203.488 19.4838 203.488 20.6286C203.488 21.8294 205.225 23.0302 207.829 24.1142C212.403 26.0018 215.068 28.3987 215.068 32.8001C215.068 37.7154 211.48 42 204.648 42C199.322 42 195.037 40.2292 193.129 39.3694L196.14 32.8001C196.893 33.1412 200.306 35.141 202.915 35.141C204.534 35.141 205.694 34.5149 205.694 33.3141C205.694 31.8843 204.245 30.6835 202.281 29.9453C196.481 27.6511 194.166 25.0253 194.166 20.7407Z" fill="white"/>
<path d="M236.663 12.3397C242.685 12.3397 245 16.2225 245 22.2825V41.4205H235.796V23.5955C235.796 20.9088 235.275 19.138 233.481 19.138C231.455 19.138 229.083 21.8807 229.083 26.3381V41.4205H219.936V1.54188L229.078 0V14.9142C231.104 13.1434 233.822 12.3397 236.663 12.3397Z" fill="white"/>
</svg>
