<?xml version="1.0" encoding="utf-8"?>
<!-- Generator: Adobe Illustrator 24.2.1, SVG Export Plug-In . SVG Version: 6.00 Build 0)  -->
<svg version="1.1" id="Capa_1" xmlns="http://www.w3.org/2000/svg" xmlns:xlink="http://www.w3.org/1999/xlink" x="0px" y="0px"
	 viewBox="0 0 90 90" style="enable-background:new 0 0 90 90;" xml:space="preserve">
<style type="text/css">
	.st0{fill:#0948F0;}
	.st1{fill:none;}
	.st2{fill:#C0B9B3;}
	.st3{fill:#FBC4A1;}
	.st4{fill:#ED9269;}
	.st5{fill:#EAEAE9;}
	.st6{fill:#FAC082;}
	.st7{fill:#52382A;}
	.st8{fill:#FFFFFF;}
	.st9{fill:#513829;}
	.st10{fill:#1C1C1C;}
	.st11{opacity:0.1;fill:#FFFFFF;}
	.st12{fill:#1B283E;}
	.st13{fill:none;stroke:#1C1C1C;stroke-width:0;stroke-linecap:round;stroke-linejoin:round;}
	.st14{opacity:0.1;fill:none;stroke:#FFFFFF;stroke-width:0;stroke-linecap:round;stroke-linejoin:round;}
	.st15{opacity:0.2;fill:#FFFFFF;}
	.st16{opacity:0.2;fill:none;stroke:#FFFFFF;stroke-width:0;stroke-linecap:round;stroke-linejoin:round;}
	.st17{fill:#DED8D1;}
</style>
<circle class="st0" cx="45" cy="45" r="45"/>
<g>
	<path class="st1" d="M37.2,72.9c0,0,0,0,0,0.1L37.2,72.9z"/>
	<path class="st1" d="M26.9,27.6c-0.3,3.7-0.2,7.6,0.4,11.2c0.2,0,0.4,0.1,0.5,0.1C27.4,35.5,26.9,31.1,26.9,27.6z"/>
	<path class="st1" d="M65.9,20.4c-0.2-0.6-0.6-1.2-0.9-1.6c0.1,0.1,0.2,0.3,0.2,0.4c2.1,4.1-1.5,8-1.5,8.1c0,0,0,0,0,0
		C65.7,25.8,67,23.3,65.9,20.4z"/>
	<path class="st2" d="M38.7,76c0.5-1.4,1-2.8,1.3-4.2c-1.4,0.3-2.5,0.6-2.8,1l0,0.1C37.1,73.4,37.2,74.4,38.7,76z"/>
	<path class="st2" d="M52.6,73.4l0-0.7c-0.2-0.4-1-0.7-2.2-0.9c0.3,1.5,1,2.7,1.7,3.7C52.4,74.7,52.5,74,52.6,73.4z"/>
	<path class="st3" d="M39.9,77.2c1,0.9,4.3,3,4.3,3l4.1,7.7L50,80c0.5-0.5,1.2-1.6,1.7-2.8c-4.8-2.9-8.5-6-11.1-8.6
		c-0.1,1-0.2,2-0.4,3c0,0.1,0,0.2-0.1,0.3c-0.3,1.3-0.8,2.8-1.3,4.2C39,76.4,39.4,76.8,39.9,77.2z"/>
	<path class="st4" d="M52.2,75.5c-0.7-1-1.4-2.3-1.7-3.7c-0.1-0.7-0.2-1.4-0.2-2.2c0.1-1.8,0.1-3.2,0.2-4.4c-0.9,0.6-1.8,1-2.6,1.3
		c-1,0.3-3.8,0.5-4.7,0.2c-0.8-0.3-1.6-0.7-2.4-1.1c0,0,0,0,0,0c0,0.1,0,0.1,0,0.2c0,0.1,0,0.3,0,0.4c0,0,0,0.1,0,0.1
		c0,0.5-0.1,1.1-0.1,1.7c0,0,0,0,0,0c0,0.2,0,0.4-0.1,0.6c0,0,0,0,0,0c2.6,2.6,6.3,5.6,11.1,8.6C51.8,76.6,52,76,52.2,75.5z"/>
	<path class="st5" d="M38.8,87.8l4.6-6.8l4.6,8.5l1.1-0.2l1.6-8.6l3.3,6.5c1.5-2.6,2.1-6.7,1.4-9.7c0-0.1,0-0.2,0-0.2l-2.7-4.6
		l0,0.7c-0.1,0.6-0.2,1.4-0.4,2.1c-0.2,0.6-0.4,1.2-0.6,1.7c-0.5,1.3-1.1,2.3-1.7,2.8l-1.7,7.9l-4.1-7.7c0,0-3.3-2.1-4.3-3
		c-0.5-0.4-0.9-0.8-1.2-1.2c-1.4-1.6-1.5-2.7-1.5-3c0-0.1,0-0.1,0-0.1l-2.4,5.8l-0.1,0.1C35,81.3,37.3,85.9,38.8,87.8z"/>
	<polygon class="st2" points="38.8,87.8 42.5,85.1 48,89.5 43.3,81 	"/>
	<polygon class="st2" points="49,89.3 50.8,84.7 54,87.2 50.7,80.8 	"/>
	<path class="st4" d="M27.5,40.1c-1.2-0.9-2.8-0.6-3.3-0.1c-0.7,1-1,2.5-0.8,4.3c0.5,3.4,3.1,7.7,5.6,6.4c0,0,0.1,0,0.1,0
		c-0.5-2.3-0.7-4.9-0.8-7.6C28,42,27.7,41,27.5,40.1z"/>
	<path class="st4" d="M27.6,40.1c0.2,0.9,0.5,1.8,0.7,2.6c0-0.3,0-0.6,0-0.9c-0.1-0.4-0.1-0.8-0.2-1.2
		C27.9,40.4,27.7,40.2,27.6,40.1z"/>
	<path class="st6" d="M27.8,39c-0.1,0-0.3-0.1-0.5-0.1c0.1,0.4,0.2,0.8,0.2,1.2c0.2,0.1,0.4,0.3,0.5,0.5C28,40.1,27.9,39.6,27.8,39z
		"/>
	<path class="st6" d="M27.5,40.1c-0.1-0.4-0.2-0.8-0.3-1.2c-0.3,0-0.5,0-0.9,0c0,0,0,0,0,0c-0.1,0-0.1,0-0.2,0c0,0-0.1,0-0.1,0
		c-0.1,0-0.3,0.1-0.4,0.1c0,0,0,0-0.1,0c-0.1,0-0.2,0.1-0.3,0.1c-0.1,0-0.1,0.1-0.2,0.1c0,0,0,0-0.1,0c-0.6,0.3-0.8,0.8-0.8,0.8
		c0,0,0,0,0,0C24.7,39.5,26.3,39.2,27.5,40.1z"/>
	<path class="st4" d="M63.2,39.9c-0.3,2.8-0.7,4.8-1.1,4.8c0,0-0.1,0-0.1,0c-0.1,2.1-0.3,4.1-0.7,6c0,0,0.1,0,0.1,0.1
		c2.5,1.3,5.1-3,5.6-6.4c0.2-1.8-0.1-3.3-0.8-4.3C65.8,39.5,64.4,39.3,63.2,39.9z"/>
	<path class="st6" d="M66.2,40C66.2,40,66.2,40,66.2,40c0,0-0.2-0.4-0.8-0.7c0,0,0,0-0.1,0c-0.1,0-0.1-0.1-0.2-0.1
		c-0.1,0-0.2-0.1-0.3-0.1c0,0,0,0-0.1,0c-0.1,0-0.2-0.1-0.4-0.1c0,0-0.1,0-0.1,0c-0.1,0-0.1,0-0.2,0c0,0,0,0,0,0c-0.2,0-0.5,0-0.7,0
		c0,0.4-0.1,0.7-0.1,1C64.4,39.3,65.8,39.5,66.2,40z"/>
	<path class="st3" d="M47.9,66.5c0.8-0.3,1.7-0.8,2.6-1.3c3.3-2.1,6.7-5.7,8.3-7.9c1.3-1.8,2.1-4.1,2.6-6.6c0.4-1.8,0.6-3.9,0.7-6
		c-0.2-0.2-0.4-0.7-0.6-1.6c-0.3,1-0.6,2-1,3c-0.5,1.3-1.5,2.1-2.9,2.3c-2,0.3-4,0.3-5.9-0.3c-1.1-0.3-2.1-0.9-2.6-1.9
		c-0.5-1-1-2-1.4-3c-0.4-1-0.6-2.1-0.9-3.1c-0.1-0.5-0.4-0.6-0.9-0.6c-0.6,0-0.7,0.1-0.9,0.6c-0.1,0.3-0.2,0.6-0.2,0.9
		c-0.5,1.8-1,3.5-2,5.1c-0.7,1.1-1.6,1.8-2.9,2.1c-1.8,0.5-3.5,0.5-5.3,0.3c-1.5-0.1-2.8-0.8-3.3-2.4c-0.5-1.3-0.8-2.6-1.2-3.9
		c-0.1-0.2-0.1-0.5-0.3-0.7c-0.3,1.7-0.5,2.8-0.7,2.8c-0.2,0-0.4-1-0.7-2.5c0,0.3,0,0.6,0,0.9c0.2,0.5,0.3,1,0.5,1.5
		c0,0.1-0.1,0.2-0.1,0.1c-0.1-0.4-0.3-0.9-0.4-1.4c0.1,2.7,0.3,5.3,0.8,7.6c0.5,2.6,1.3,4.8,2.6,6.6c1.7,2.4,5.5,6.2,9,8.3
		c0.8,0.5,1.7,0.9,2.4,1.1C44.1,67,46.9,66.8,47.9,66.5z M42.3,50c0.9-0.6,4.9-0.5,5.9,0c0.9,0.5-2,1.3-3,1.3
		C44.3,51.3,41.4,50.6,42.3,50z M41.2,55.3c2.4,0.4,6.1,0.1,8.3-0.2c0.3,0,0.4,0,0,0.1c-0.6,0.3-2.3,2.3-3.9,2.4
		c-1.6,0.1-3.9-1.9-4.5-2.2C40.8,55.3,40.9,55.3,41.2,55.3z"/>
	<path class="st3" d="M34.1,36.6c0.1,0,0.2,0,0.4-0.1c1.4-0.2,2.8-0.2,4.2-0.2c-1-0.3-2.1-0.6-2.5-0.7
		C35.7,35.7,34.8,36.2,34.1,36.6z"/>
	<path class="st3" d="M35.7,34.1c0.9-0.3,5.9,0.7,5.9,0.7s-0.3,1.2-0.6,1.7c0.5,0.1,1,0.1,1.4,0.2c2.1,0.4,4.1,0.5,6.2,0.1
		c1.9-0.3,3.8-0.7,5.8-0.6c0.6,0,1.2,0.1,1.7,0.1c-0.7-0.4-1.5-0.9-2-0.9c-0.8,0.1-4.4,1.4-4.7,1c-0.3-0.4-0.7-1.8-0.7-1.8
		s5-1,5.9-0.7c0.8,0.2,1.7,1.5,2.1,2.5c0,0,0,0,0.1,0c1.3,0.2,2.6,0.4,4,0.6c-0.3-2.9-0.5-5.9-0.7-7.9c-3.4,0.5-8.2-1-12.5-2.8
		c-0.1,0-0.2,0-0.3,0c0,0,0,0,0,0c0.3,0.2,0.6,0.4,0.9,0.6c0.3,0.2,0.7,0.4,1,0.6c0.3,0.2,0.7,0.4,1,0.5c0.4,0.2,0.7,0.3,1,0.5
		c0.4,0.1,0.7,0.3,1,0.4c0.3,0.1,0.6,0.2,0.9,0.3c0.6,0.2,1.1,0.4,1.4,0.5c0.3,0.1,0.5,0.2,0.5,0.2s-0.2,0-0.6,0
		c-0.4,0-0.9,0-1.5-0.1c-0.3,0-0.6-0.1-1-0.2c-0.4-0.1-0.7-0.2-1.1-0.3c-0.4-0.1-0.8-0.2-1.1-0.4c-0.4-0.1-0.8-0.3-1.1-0.5
		c-0.3-0.2-0.7-0.4-1-0.6c0.1,0.1,0.2,0.2,0.3,0.2c0.3,0.2,0.5,0.5,0.8,0.7c0.3,0.2,0.5,0.4,0.7,0.6c0.5,0.4,0.9,0.7,1.1,0.9
		c0.3,0.2,0.4,0.4,0.4,0.4s-0.2-0.1-0.5-0.2c-0.3-0.1-0.8-0.3-1.4-0.6c-0.3-0.1-0.6-0.3-0.9-0.5c-0.3-0.2-0.6-0.4-0.9-0.6
		c-0.3-0.2-0.6-0.5-0.9-0.8c-0.3-0.3-0.6-0.6-0.9-0.9c-0.3-0.3-0.5-0.6-0.7-0.9c-5.3,0.1-10.1,0.9-13.5,2.1c0,0-0.1,0-0.1,0
		c-0.2,2-0.6,5.5-1,8.8c1.1-0.2,2.1-0.4,3.2-0.5C34,35.7,34.9,34.4,35.7,34.1z"/>
	<path class="st4" d="M45.3,51.3c1,0,3.8-0.8,3-1.3c-1.1-0.5-5-0.6-5.9,0C41.4,50.6,44.3,51.3,45.3,51.3z"/>
	<path class="st7" d="M54.6,34c-0.9-0.3-5.9,0.7-5.9,0.7s0.4,1.4,0.7,1.8c0.3,0.4,3.9-0.9,4.7-1c0.5,0,1.4,0.5,2,0.9
		c0.2,0,0.4,0,0.6,0.1C56.2,35.5,55.3,34.2,54.6,34z"/>
	<path class="st7" d="M35.7,34.1c-0.8,0.2-1.7,1.6-2.2,2.6c0.2,0,0.4-0.1,0.6-0.1c0.7-0.4,1.6-0.9,2.1-0.9c0.4,0,1.5,0.4,2.5,0.7
		c0.7,0,1.5,0.1,2.2,0.2c0.3-0.5,0.6-1.7,0.6-1.7S36.6,33.9,35.7,34.1z"/>
	<path class="st8" d="M49.5,55.2c0.3-0.1,0.2-0.2,0-0.1c-2.2,0.3-5.9,0.6-8.3,0.2c-0.2,0-0.3,0-0.1,0.1c0.6,0.3,2.8,2.3,4.5,2.2
		C47.2,57.5,48.9,55.5,49.5,55.2z"/>
	<path class="st9" d="M28.3,43c0.1,0.5,0.3,0.9,0.4,1.4c0,0.1,0.2,0,0.1-0.1c-0.2-0.5-0.4-1-0.5-1.5c-0.3-0.9-0.5-1.7-0.7-2.6
		c-0.1-0.4-0.2-0.8-0.2-1.2c-0.7-3.7-0.7-7.5-0.4-11.2c0.1,3.4,0.5,7.9,0.9,11.3c0.1,0.6,0.2,1.1,0.2,1.7c0.1,0.4,0.1,0.8,0.2,1.2
		c0.3,1.5,0.5,2.5,0.7,2.5c0.2,0,0.4-1.1,0.7-2.8c0,0-0.1-0.1-0.2-0.1c-0.1-0.1-0.2-0.3-0.2-0.5c0-0.9,0-1.8,0.1-2.7
		c0.1-0.8,0.1-0.8,0.8-0.9c0,0,0,0,0.1,0c0.4-3.2,0.8-6.8,1-8.8c0,0,0.1,0,0.1,0c3.4-1.2,8.2-2,13.5-2.1c0.2,0.3,0.4,0.6,0.7,0.9
		c0.3,0.3,0.6,0.6,0.9,0.9c0.3,0.3,0.6,0.5,0.9,0.8c0.3,0.2,0.6,0.5,0.9,0.6c0.3,0.2,0.6,0.3,0.9,0.5c0.5,0.3,1,0.5,1.4,0.6
		c0.3,0.1,0.5,0.2,0.5,0.2s-0.2-0.1-0.4-0.4c-0.3-0.2-0.7-0.5-1.1-0.9c-0.2-0.2-0.5-0.4-0.7-0.6c-0.3-0.2-0.5-0.5-0.8-0.7
		c-0.1-0.1-0.2-0.2-0.3-0.2c0.3,0.2,0.6,0.4,1,0.6c0.4,0.2,0.8,0.4,1.1,0.5c0.4,0.2,0.8,0.3,1.1,0.4c0.4,0.1,0.7,0.2,1.1,0.3
		c0.4,0.1,0.7,0.1,1,0.2c0.6,0.1,1.1,0.1,1.5,0.1c0.4,0,0.6,0,0.6,0s-0.2-0.1-0.5-0.2c-0.3-0.1-0.8-0.3-1.4-0.5
		c-0.3-0.1-0.6-0.2-0.9-0.3c-0.3-0.1-0.7-0.3-1-0.4c-0.4-0.1-0.7-0.3-1-0.5c-0.4-0.1-0.7-0.3-1-0.5c-0.4-0.2-0.7-0.4-1-0.6
		c-0.3-0.2-0.6-0.4-0.9-0.6c0,0,0,0,0,0c0.1,0,0.2,0,0.3,0c4.3,1.8,9.1,3.3,12.5,2.8c0.2,2,0.4,5.1,0.7,7.9c0.3,0.1,0.7,0.1,1,0.2
		c0.3,0.1,0.5,0.2,0.5,0.6c0,1,0.1,2,0.1,3c0,0.2-0.1,0.4-0.2,0.6c-0.1,0.2-0.3,0.4-0.4,0.7c-0.1,0.3-0.2,0.6-0.3,1
		c0.2,0.9,0.4,1.4,0.6,1.6c0,0,0.1,0,0.1,0c0.4,0,0.8-2,1.1-4.8c0-0.3,0.1-0.7,0.1-1c0.4-3.7,0.6-8.2,0.4-11.1
		c2.3-1.5,3.6-4.4,2.5-7.5c-0.3-1-0.9-1.7-1.5-2.3c-0.1-0.1-0.2-0.2-0.4-0.3c-0.2-0.2-0.4-0.3-0.6-0.4c0,0,0,0,0.1,0
		c-1.2-1-2-2.4-4.6-3.7c-3.6-1.9-9.7-3.6-15.2-3.7c-4.3,0.5-7.6,1.7-10,3.2c-5.8,3.8-7.2,8.9-7.3,9.2c-0.1,0.3-0.2,0.6-0.3,0.9
		c-0.3,1.6,0,2.2,0.3,3.7c0.1,0.7-0.2,1.5-0.3,2.1c-0.2,1.7-0.2,3.4-0.1,5.2c0.1,1.6,0.4,3.2,0.7,4.8c0.1,0.4,0.2,0.8,0.3,1.2
		C27.7,41,28,42,28.3,43z M65.2,19.2c-0.1-0.2-0.2-0.3-0.2-0.4c0.4,0.5,0.7,1,0.9,1.6c1.1,2.9-0.2,5.3-2.1,6.9c0,0,0,0,0,0
		C63.8,27.3,67.3,23.3,65.2,19.2z"/>
	<path class="st10" d="M62.1,41.4c0.1-0.2,0.2-0.4,0.2-0.6c0-1-0.1-2-0.1-3c0-0.3-0.2-0.5-0.5-0.6c-0.3-0.1-0.7-0.1-1-0.2
		c-1.3-0.2-2.6-0.4-4-0.6c0,0,0,0-0.1,0c-0.2,0-0.4,0-0.6-0.1c-0.6,0-1.2-0.1-1.7-0.1c-2-0.1-3.9,0.2-5.8,0.6
		c-2.1,0.4-4.2,0.3-6.2-0.1c-0.5-0.1-1-0.2-1.4-0.2c-0.7-0.1-1.5-0.2-2.2-0.2c-1.4,0-2.8,0-4.2,0.2c-0.1,0-0.2,0-0.4,0.1
		c-0.2,0-0.4,0.1-0.6,0.1c-1.1,0.2-2.1,0.3-3.2,0.5c0,0,0,0-0.1,0c-0.7,0.1-0.8,0.2-0.8,0.9c-0.1,0.9-0.1,1.8-0.1,2.7
		c0,0.2,0.1,0.4,0.2,0.5c0.1,0,0.1,0.1,0.2,0.1c0.2,0.2,0.2,0.4,0.3,0.7c0.4,1.3,0.7,2.6,1.2,3.9c0.6,1.5,1.8,2.2,3.3,2.4
		c1.8,0.2,3.6,0.2,5.3-0.3c1.2-0.3,2.2-1,2.9-2.1c1-1.6,1.6-3.3,2-5.1c0.1-0.3,0.2-0.6,0.2-0.9c0.2-0.5,0.3-0.6,0.9-0.6
		c0.4,0,0.7,0.1,0.9,0.6c0.3,1.1,0.5,2.1,0.9,3.1c0.4,1,0.9,2,1.4,3c0.5,1.1,1.5,1.6,2.6,1.9c2,0.5,3.9,0.6,5.9,0.3
		c1.3-0.2,2.4-0.9,2.9-2.3c0.4-1,0.7-2,1-3c0.1-0.3,0.2-0.6,0.3-1C61.8,41.9,62,41.7,62.1,41.4z M43.5,41.9c0,0.2-0.1,0.4-0.2,0.6
		c-0.1,0.3-0.2,0.6-0.3,0.9c-0.1,0.2-0.2,0.4-0.3,0.6c-0.1,0.2-0.2,0.5-0.3,0.7c-0.1,0.2-0.3,0.4-0.4,0.6c-0.1,0.2-0.2,0.4-0.4,0.6
		c0,0-0.1,0.1-0.1,0.1c-0.4,0.5-0.9,0.8-1.5,1c-1.2,0.4-2.4,0.5-3.7,0.5c-0.5,0-1-0.1-1.6-0.1c-1.3-0.1-2.2-0.8-2.7-2
		c-0.6-1.5-0.8-3.1-0.6-4.7c0.1-0.7,0.1-1.5,0.8-1.9c0.4-0.2,0.9-0.5,1.3-0.6c0.4-0.1,0.8-0.2,1.2-0.3c0,0,0,0,0,0
		c0.1,0,0.2,0,0.3,0c0.3,0,0.6-0.1,0.9-0.1c0.1,0,0.3,0,0.4,0c0.3,0,0.5,0,0.8,0c0.1,0,0.2,0,0.4,0c0.4,0,0.8,0,1.2,0
		c1.3,0.1,2.5,0.2,3.7,0.7c1,0.4,1.4,0.9,1.3,2C43.7,41,43.6,41.5,43.5,41.9z M59.3,46.1c-0.4,0.7-0.9,1.1-1.6,1.3
		c-0.1,0-0.2,0-0.3,0c-0.2,0-0.4,0.1-0.6,0.1c-0.2,0-0.4,0.1-0.6,0.1c-0.3,0-0.5,0-0.8,0c-0.2,0-0.3,0-0.5,0c-0.3,0-0.6,0-0.9,0
		c-0.1,0-0.2,0-0.3,0c-0.4,0-0.9-0.1-1.3-0.2c-1.2-0.3-2.1-0.9-2.7-1.9C48.8,44,48.3,42.6,48,41c-0.3-1.6,0.1-2.2,1.6-2.7
		c0.3-0.1,0.6-0.2,0.9-0.2c0.1,0,0.2,0,0.3,0c0.1,0,0.3-0.1,0.4-0.1c0.1,0,0.1,0,0.2,0c0.3,0,0.5-0.1,0.8-0.1c0.1,0,0.2,0,0.4,0
		c0.4,0,0.8,0,1.2-0.1c0.5,0,1.3,0,2.1,0.1c1.1,0.1,2.2,0.3,3.2,0.8c0.5,0.2,0.9,0.5,1,1.1C60.6,41.9,60.4,44,59.3,46.1z"/>
	<path class="st3" d="M59.1,38.6c-1-0.5-2.1-0.7-3.2-0.8c-0.8-0.1-1.6-0.1-2.1-0.1c-0.4,0-0.8,0-1.2,0.1c-0.1,0-0.2,0-0.4,0
		c-0.3,0-0.5,0.1-0.8,0.1c-0.1,0-0.1,0-0.2,0c0.7,0.2,1.4,0.5,2.1,0.9c0.4,0,0.7,0.3,0.9,0.6c1.6,1.2,2.8,2.9,3,5.1
		c0.1,0.9,0.2,1.9,0.2,2.8c0.1,0,0.2,0,0.3,0c0.8-0.1,1.3-0.6,1.6-1.3c1-2,1.3-4.1,0.8-6.4C60,39.2,59.6,38.9,59.1,38.6z"/>
	<path class="st11" d="M59.1,38.6c-1-0.5-2.1-0.7-3.2-0.8c-0.8-0.1-1.6-0.1-2.1-0.1c-0.4,0-0.8,0-1.2,0.1c-0.1,0-0.2,0-0.4,0
		c-0.3,0-0.5,0.1-0.8,0.1c-0.1,0-0.1,0-0.2,0c0.7,0.2,1.4,0.5,2.1,0.9c0.4,0,0.7,0.3,0.9,0.6c1.6,1.2,2.8,2.9,3,5.1
		c0.1,0.9,0.2,1.9,0.2,2.8c0.1,0,0.2,0,0.3,0c0.8-0.1,1.3-0.6,1.6-1.3c1-2,1.3-4.1,0.8-6.4C60,39.2,59.6,38.9,59.1,38.6z"/>
	<path class="st12" d="M53.3,38.8c0.3,0.2,0.6,0.4,0.9,0.6C53.9,39.1,53.6,38.9,53.3,38.8z"/>
	<path class="st11" d="M53.3,38.8c0.3,0.2,0.6,0.4,0.9,0.6C53.9,39.1,53.6,38.9,53.3,38.8z"/>
	<path class="st10" d="M57.4,47.3c0.1,0,0.2,0,0.3,0C57.6,47.3,57.5,47.3,57.4,47.3C57.4,47.3,57.4,47.3,57.4,47.3z"/>
	<path class="st11" d="M57.4,47.3c0.1,0,0.2,0,0.3,0C57.6,47.3,57.5,47.3,57.4,47.3C57.4,47.3,57.4,47.3,57.4,47.3z"/>
	<path class="st13" d="M52.6,37.8c-0.1,0-0.2,0-0.4,0"/>
	<path class="st14" d="M52.6,37.8c-0.1,0-0.2,0-0.4,0"/>
	<path class="st10" d="M51.4,37.9c-0.1,0-0.1,0-0.2,0c0,0,0,0,0,0C51.3,38,51.3,37.9,51.4,37.9z"/>
	<path class="st11" d="M51.4,37.9c-0.1,0-0.1,0-0.2,0c0,0,0,0,0,0C51.3,38,51.3,37.9,51.4,37.9z"/>
	<path class="st3" d="M57.2,44.5c-0.3-2.2-1.4-3.9-3-5.1c0.2,0.3,0.4,0.7,0.4,1.2c0,1-0.6,1.8-1.3,1.8c-0.7,0-1.3-0.8-1.3-1.8
		c0-1,0.6-1.8,1.3-1.8c0,0,0.1,0,0.1,0c-0.6-0.4-1.3-0.7-2.1-0.9c-0.1,0-0.3,0-0.4,0.1c-0.1,0-0.2,0-0.3,0c-0.3,0.1-0.6,0.1-0.9,0.2
		c-1.5,0.5-1.9,1.1-1.6,2.7c0.3,1.6,0.8,3,1.6,4.4c0.6,1.1,1.5,1.7,2.7,1.9c0.4,0.1,0.9,0.2,1.3,0.2c0.1,0,0.2,0,0.3,0
		c0.3,0,0.6,0,0.9,0c0.2,0,0.3,0,0.5,0c0.3,0,0.5,0,0.8,0c0.2,0,0.4-0.1,0.6-0.1c0.2,0,0.4-0.1,0.6-0.1
		C57.4,46.4,57.3,45.5,57.2,44.5z"/>
	<path class="st15" d="M57.2,44.5c-0.3-2.2-1.4-3.9-3-5.1c0.2,0.3,0.4,0.7,0.4,1.2c0,1-0.6,1.8-1.3,1.8c-0.7,0-1.3-0.8-1.3-1.8
		c0-1,0.6-1.8,1.3-1.8c0,0,0.1,0,0.1,0c-0.6-0.4-1.3-0.7-2.1-0.9c-0.1,0-0.3,0-0.4,0.1c-0.1,0-0.2,0-0.3,0c-0.3,0.1-0.6,0.1-0.9,0.2
		c-1.5,0.5-1.9,1.1-1.6,2.7c0.3,1.6,0.8,3,1.6,4.4c0.6,1.1,1.5,1.7,2.7,1.9c0.4,0.1,0.9,0.2,1.3,0.2c0.1,0,0.2,0,0.3,0
		c0.3,0,0.6,0,0.9,0c0.2,0,0.3,0,0.5,0c0.3,0,0.5,0,0.8,0c0.2,0,0.4-0.1,0.6-0.1c0.2,0,0.4-0.1,0.6-0.1
		C57.4,46.4,57.3,45.5,57.2,44.5z"/>
	<path class="st12" d="M51.8,40.6c0,1,0.6,1.8,1.3,1.8c0.7,0,1.3-0.8,1.3-1.8c0-0.5-0.1-0.9-0.4-1.2c-0.3-0.2-0.6-0.4-0.9-0.6
		c0,0-0.1,0-0.1,0C52.4,38.8,51.8,39.6,51.8,40.6z"/>
	<path class="st15" d="M51.8,40.6c0,1,0.6,1.8,1.3,1.8c0.7,0,1.3-0.8,1.3-1.8c0-0.5-0.1-0.9-0.4-1.2c-0.3-0.2-0.6-0.4-0.9-0.6
		c0,0-0.1,0-0.1,0C52.4,38.8,51.8,39.6,51.8,40.6z"/>
	<path class="st10" d="M56.9,47.4c0.2,0,0.4,0,0.6-0.1c0,0,0,0,0,0C57.2,47.4,57,47.4,56.9,47.4z"/>
	<path class="st15" d="M56.9,47.4c0.2,0,0.4,0,0.6-0.1c0,0,0,0,0,0C57.2,47.4,57,47.4,56.9,47.4z"/>
	<path class="st13" d="M52.4,47.3c0.4,0.1,0.9,0.2,1.3,0.2"/>
	<path class="st16" d="M52.4,47.3c0.4,0.1,0.9,0.2,1.3,0.2"/>
	<path class="st10" d="M51.2,38c-0.1,0-0.3,0-0.4,0.1C50.9,38,51.1,38,51.2,38C51.2,38,51.2,38,51.2,38z"/>
	<path class="st15" d="M51.2,38c-0.1,0-0.3,0-0.4,0.1C50.9,38,51.1,38,51.2,38C51.2,38,51.2,38,51.2,38z"/>
	<path class="st13" d="M49.6,38.3c0.3-0.1,0.6-0.2,0.9-0.2"/>
	<path class="st16" d="M49.6,38.3c0.3-0.1,0.6-0.2,0.9-0.2"/>
	<path class="st13" d="M55,47.6c-0.3,0-0.6,0-0.9,0"/>
	<path class="st16" d="M55,47.6c-0.3,0-0.6,0-0.9,0"/>
	<path class="st13" d="M56.3,47.5c-0.3,0-0.5,0-0.8,0"/>
	<path class="st16" d="M56.3,47.5c-0.3,0-0.5,0-0.8,0"/>
	<path class="st3" d="M39.8,41.6c-0.4-0.6-1-1.2-1.5-1.7c0.1,0.3,0.2,0.6,0.2,0.9c0,1-0.6,1.8-1.3,1.8c-0.7,0-1.3-0.8-1.3-1.8
		c0-1,0.6-1.8,1.3-1.8c-0.7-0.4-1.5-0.8-2.3-1c-0.4,0.1-0.8,0.2-1.2,0.3c-0.5,0.1-0.9,0.3-1.3,0.6c-0.7,0.4-0.7,1.2-0.8,1.9
		c-0.2,1.6,0.1,3.2,0.6,4.7c0.5,1.3,1.4,1.9,2.7,2c0.5,0,1.1,0.1,1.6,0.1c1.3,0,2.5-0.1,3.7-0.5c0.6-0.2,1.1-0.5,1.5-1
		c0,0,0-0.1,0.1-0.1C41.3,44.4,40.8,42.9,39.8,41.6z"/>
	<path class="st15" d="M39.8,41.6c-0.4-0.6-1-1.2-1.5-1.7c0.1,0.3,0.2,0.6,0.2,0.9c0,1-0.6,1.8-1.3,1.8c-0.7,0-1.3-0.8-1.3-1.8
		c0-1,0.6-1.8,1.3-1.8c-0.7-0.4-1.5-0.8-2.3-1c-0.4,0.1-0.8,0.2-1.2,0.3c-0.5,0.1-0.9,0.3-1.3,0.6c-0.7,0.4-0.7,1.2-0.8,1.9
		c-0.2,1.6,0.1,3.2,0.6,4.7c0.5,1.3,1.4,1.9,2.7,2c0.5,0,1.1,0.1,1.6,0.1c1.3,0,2.5-0.1,3.7-0.5c0.6-0.2,1.1-0.5,1.5-1
		c0,0,0-0.1,0.1-0.1C41.3,44.4,40.8,42.9,39.8,41.6z"/>
	<path class="st12" d="M35.7,40.8c0,1,0.6,1.8,1.3,1.8c0.7,0,1.3-0.8,1.3-1.8c0-0.3-0.1-0.6-0.2-0.9c-0.4-0.3-0.8-0.6-1.2-0.9
		C36.3,39,35.7,39.8,35.7,40.8z"/>
	<path class="st15" d="M35.7,40.8c0,1,0.6,1.8,1.3,1.8c0.7,0,1.3-0.8,1.3-1.8c0-0.3-0.1-0.6-0.2-0.9c-0.4-0.3-0.8-0.6-1.2-0.9
		C36.3,39,35.7,39.8,35.7,40.8z"/>
	<path class="st10" d="M34.7,38c-0.4,0.1-0.8,0.2-1.2,0.3C33.9,38.2,34.3,38.1,34.7,38C34.7,38,34.7,38,34.7,38z"/>
	<path class="st15" d="M34.7,38c-0.4,0.1-0.8,0.2-1.2,0.3C33.9,38.2,34.3,38.1,34.7,38C34.7,38,34.7,38,34.7,38z"/>
	<path class="st10" d="M41.5,46.1c0,0,0.1-0.1,0.1-0.1c0,0,0,0,0,0C41.6,46,41.6,46,41.5,46.1z"/>
	<path class="st15" d="M41.5,46.1c0,0,0.1-0.1,0.1-0.1c0,0,0,0,0,0C41.6,46,41.6,46,41.5,46.1z"/>
	<path class="st3" d="M42.5,38.5c-1.2-0.5-2.5-0.6-3.7-0.7c-0.4,0-0.8,0-1.2,0c-0.1,0-0.2,0-0.4,0c-0.3,0-0.5,0-0.8,0
		c-0.1,0-0.3,0-0.4,0c-0.3,0-0.6,0.1-0.9,0.1c-0.1,0-0.2,0-0.3,0c0,0,0,0,0,0c0.8,0.2,1.6,0.5,2.3,1c0,0,0,0,0.1,0
		c0.5,0,0.9,0.4,1.2,0.9c0.6,0.5,1.1,1.1,1.5,1.7c1,1.4,1.5,2.8,1.8,4.4c0.1-0.2,0.3-0.4,0.4-0.6c0.1-0.2,0.3-0.4,0.4-0.6
		c0.1-0.2,0.2-0.5,0.3-0.7c0.1-0.2,0.2-0.4,0.3-0.6c0.1-0.3,0.2-0.6,0.3-0.9c0.1-0.2,0.1-0.4,0.2-0.6c0.1-0.5,0.2-1,0.2-1.5
		C43.8,39.4,43.4,38.9,42.5,38.5z"/>
	<path class="st11" d="M42.5,38.5c-1.2-0.5-2.5-0.6-3.7-0.7c-0.4,0-0.8,0-1.2,0c-0.1,0-0.2,0-0.4,0c-0.3,0-0.5,0-0.8,0
		c-0.1,0-0.3,0-0.4,0c-0.3,0-0.6,0.1-0.9,0.1c-0.1,0-0.2,0-0.3,0c0,0,0,0,0,0c0.8,0.2,1.6,0.5,2.3,1c0,0,0,0,0.1,0
		c0.5,0,0.9,0.4,1.2,0.9c0.6,0.5,1.1,1.1,1.5,1.7c1,1.4,1.5,2.8,1.8,4.4c0.1-0.2,0.3-0.4,0.4-0.6c0.1-0.2,0.3-0.4,0.4-0.6
		c0.1-0.2,0.2-0.5,0.3-0.7c0.1-0.2,0.2-0.4,0.3-0.6c0.1-0.3,0.2-0.6,0.3-0.9c0.1-0.2,0.1-0.4,0.2-0.6c0.1-0.5,0.2-1,0.2-1.5
		C43.8,39.4,43.4,38.9,42.5,38.5z"/>
	<path class="st12" d="M37.1,39C37.1,39,37,39,37.1,39c0.4,0.3,0.8,0.6,1.2,0.9C38,39.3,37.6,39,37.1,39z"/>
	<path class="st11" d="M37.1,39C37.1,39,37,39,37.1,39c0.4,0.3,0.8,0.6,1.2,0.9C38,39.3,37.6,39,37.1,39z"/>
	<path class="st13" d="M43.8,40.4c0,0.5-0.1,1-0.2,1.5"/>
	<path class="st14" d="M43.8,40.4c0,0.5-0.1,1-0.2,1.5"/>
	<path class="st10" d="M34.8,38C34.7,38,34.7,38,34.8,38C34.7,38,34.7,38,34.8,38C34.7,38,34.7,38,34.8,38z"/>
	<path class="st11" d="M34.8,38C34.7,38,34.7,38,34.8,38C34.7,38,34.7,38,34.8,38C34.7,38,34.7,38,34.8,38z"/>
	<path class="st13" d="M38.7,37.8c-0.4,0-0.8,0-1.2,0"/>
	<path class="st14" d="M38.7,37.8c-0.4,0-0.8,0-1.2,0"/>
	<path class="st13" d="M35.1,37.9c0.3,0,0.6-0.1,0.9-0.1"/>
	<path class="st14" d="M35.1,37.9c0.3,0,0.6-0.1,0.9-0.1"/>
	<path class="st13" d="M42.8,44c-0.1,0.2-0.2,0.5-0.3,0.7"/>
	<path class="st14" d="M42.8,44c-0.1,0.2-0.2,0.5-0.3,0.7"/>
	<path class="st13" d="M36.4,37.8c0.3,0,0.5,0,0.8,0"/>
	<path class="st14" d="M36.4,37.8c0.3,0,0.5,0,0.8,0"/>
	<path class="st13" d="M43.3,42.5c-0.1,0.3-0.2,0.6-0.3,0.9"/>
	<path class="st14" d="M43.3,42.5c-0.1,0.3-0.2,0.6-0.3,0.9"/>
	<path class="st10" d="M41.6,46c0.1-0.2,0.3-0.4,0.4-0.6C41.9,45.6,41.8,45.8,41.6,46C41.6,46,41.6,46,41.6,46z"/>
	<path class="st11" d="M41.6,46c0.1-0.2,0.3-0.4,0.4-0.6C41.9,45.6,41.8,45.8,41.6,46C41.6,46,41.6,46,41.6,46z"/>
	<path class="st17" d="M66.7,84.2c-3.1-2.3-7.3-4.9-11.4-6.7c0.8,3,0.2,7.1-1.4,9.7l-3.2-2.6L49,89.3L48,89.5l-5.5-4.4l-3.7,2.7
		c-1.4-1.9-3.8-6.5-4-9l0.1-0.1c-3.8,1.6-7.8,3.6-11,5.8c6.3,3.4,13.5,5.3,21.1,5.3C52.8,89.8,60.3,87.8,66.7,84.2z"/>
</g>
</svg>
