<svg width="90" height="90" viewBox="0 0 90 90" fill="none" xmlns="http://www.w3.org/2000/svg">
<circle cx="45" cy="45" r="45" fill="#0D8284"/>
<mask id="mask0_6291_46702" style="mask-type:alpha" maskUnits="userSpaceOnUse" x="0" y="0" width="90" height="90">
<circle cx="45" cy="45" r="45" fill="white"/>
</mask>
<g mask="url(#mask0_6291_46702)">
<mask id="mask1_6291_46702" style="mask-type:alpha" maskUnits="userSpaceOnUse" x="0" y="1" width="90" height="90">
<circle cx="45" cy="46" r="45" fill="white"/>
</mask>
<g mask="url(#mask1_6291_46702)">
<path d="M60.3076 81.9158C49.7491 78.1761 39.0781 78.3094 28.4353 81.9158V71.9385C39.1483 69.2021 49.7631 69.3775 60.3076 71.9385V81.9158Z" fill="url(#paint0_linear_6291_46702)"/>
<path d="M55.8218 63.4414C55.0214 63.4344 56.4606 73.5521 57.1978 75.9797C58.1806 79.2143 64.3164 81.7262 70.6206 83.6346C73.513 84.5117 78.8625 88.3707 79.5996 89.8652C80.0209 90.7212 79.9998 90.8194 79.9998 90.8194H10L14.4088 86.5885C15.7707 85.2835 17.4416 84.3503 19.2669 83.8802L21.4151 83.3259L24.0407 82.091C24.5461 81.8525 25.0235 81.5648 25.4658 81.228L30.8574 77.1445C30.8574 77.1445 32.5493 75.0325 32.4089 71.8401C32.2685 68.6476 32.2685 63.4554 32.2685 63.4554H55.8218V63.4414Z" fill="#F0CCB9"/>
<path d="M70.6206 83.6346C64.3164 81.7262 58.1806 79.2143 57.1978 75.9797C55.2956 77.7292 51.0854 81.4006 49.4623 82.091C47.4334 82.9541 42.3611 83.3259 40.2308 82.091C38.5265 81.1031 33.2718 78.3817 30.8574 77.1445L25.4658 81.228C25.0235 81.5648 24.5461 81.8525 24.0407 82.091L21.4151 83.3259L19.2669 83.8802C17.4416 84.3503 15.7707 85.2835 14.4088 86.5886L10 90.8194H79.9998C79.9998 90.8194 80.0209 90.7212 79.5996 89.8652C78.8625 88.3707 73.513 84.5117 70.6206 83.6346Z" fill="#ECECEC"/>
<path d="M40.356 90.7354H48.4645L46.0986 87.7534H42.8131L40.356 90.7354Z" fill="#676767"/>
<path d="M43.6414 80.6948L39.1694 85.1643C39.1694 85.1643 40.061 88.8689 42.0618 88.4971C42.2514 88.462 42.0478 88.6725 42.9534 89.0794C43.9152 89.5074 45.1297 89.0654 46.0423 88.9391C47.2007 88.7777 48.2186 88.0901 48.8084 87.0798L49.9035 85.2134L45.6492 80.8772L43.6414 80.6948Z" fill="#676767"/>
<path d="M26.3293 80.6528C26.3293 80.6528 33.6937 86.701 38.8607 87.3114C39.2749 87.3605 40.349 87.3956 40.5245 87.136L44.5752 80.8703L29.4815 75.9167L26.3293 80.6528Z" fill="url(#paint1_radial_6291_46702)"/>
<path d="M62.8914 80.7439C62.8914 80.7439 55.527 86.792 50.3601 87.4025C49.9459 87.4516 48.8718 87.4867 48.6962 87.2271L44.6455 80.9614L59.7392 76.0078L62.8914 80.7439Z" fill="url(#paint2_radial_6291_46702)"/>
<path d="M27.8947 54.145C27.8947 54.145 30.1272 65.0835 35.7435 68.4795C44.5119 73.7839 50.5353 69.2864 50.5353 69.2864C50.5353 69.2864 57.5346 63.0207 58.6789 59.3301C59.7039 56.0324 60.0619 54.145 60.0619 54.145C60.0619 54.145 60.9886 54.145 61.5994 53.3802C62.2172 52.6154 62.3716 47.739 62.8279 46.3638C63.2913 44.9886 63.6002 42.7012 62.0557 42.8556C60.5183 43.0099 59.746 45.599 59.746 45.599C59.746 45.599 62.6524 35.6287 61.7258 32.8782C60.7991 30.1348 59.8934 29.7349 56.2007 27.4475C52.508 25.1602 50.6687 23.35 48.4011 24.1077C46.1336 24.8725 35.5469 25.3496 32.6264 24.2831C29.699 23.2166 26.954 32.1626 26.4907 34.4499C26.0273 36.7373 27.7262 43.7607 27.8807 45.592C28.0351 47.4232 28.0351 47.4232 28.0351 47.4232C28.0351 47.4232 26.961 42.5468 26.0343 42.2381C25.1077 41.9364 23.4158 41.9364 23.7247 45.592C24.0335 49.2545 24.4056 46.4199 25.7255 53.2188C26.5117 57.1901 27.8947 54.145 27.8947 54.145Z" fill="#F0CCB9"/>
<path d="M28.4145 72.0085C28.4145 72.0085 27.0736 79.895 26.2101 80.1125C25.3536 80.337 35.7437 85.445 39.5698 85.9361C39.5698 85.9361 41.8655 81.9648 44.4419 80.765C44.4419 80.772 28.948 75.5238 28.4145 72.0085Z" fill="#F9F7F7"/>
<path d="M60.3359 71.9382C60.3359 71.9382 61.747 79.8106 62.5964 80.0211C63.4459 80.2316 53.2243 85.4589 49.4473 85.9921C49.4473 85.9921 47.1376 82.0489 44.5752 80.8771C44.5822 80.8701 59.8515 75.4535 60.3359 71.9382Z" fill="#F9F7F7"/>
<path d="M27.9931 45.0515C27.9931 45.0515 26.7154 41.0311 26.9962 39.0174C27.284 37.0037 25.8589 28.8225 30.6959 27.3842C35.5329 25.9458 39.5135 27.5245 40.7982 27.2438C42.0759 26.9562 47.0884 24.6267 48.9067 25.0898C50.9636 25.609 58.0121 31.2642 59.718 31.2642C59.718 31.2642 60.4411 35.5022 60.8693 36.2178C61.2976 36.9335 60.4271 42.7571 60.4271 43.6131C60.4271 44.4761 60.4271 44.9041 60.7149 45.7672C60.7149 45.7672 61.1431 44.1885 61.2835 43.1851C61.424 42.1818 63.1299 39.5927 63.1299 39.5927C63.1299 39.5927 64.555 30.9766 64.2672 30.4012C63.9794 29.8259 65.6923 29.1102 63.1299 24.3671C60.5675 19.631 49.1875 12.7339 44.4909 12.1656C39.7943 11.5902 33.2513 12.1656 30.5485 19.631C30.5485 19.631 23.4369 21.2097 22.44 28.6752C21.4431 36.1407 26.9892 41.4591 26.9892 43.7535C26.9892 46.0478 28.0002 47.5 28.0002 47.5L27.9931 45.0515Z" fill="#404041"/>
<path d="M40.7911 43.6625C40.7911 43.6625 36.6701 42.5259 30.8011 43.4871C28.0351 43.9432 31.3276 49.1844 31.4119 49.2686C31.4961 49.3528 36.2349 50.0545 40.2645 49.1844C41.5422 48.9108 42.0196 43.5783 40.7911 43.6625Z" fill="#EAEAEA" fill-opacity="0.8"/>
<path fill-rule="evenodd" clip-rule="evenodd" d="M60.9998 44.5001C61.1261 44.8509 59.0651 45.0937 59.0651 45.0937C59.0651 45.0937 57.4715 49.7877 56.615 50.0262C55.7585 50.2578 47.3762 50.3209 46.8076 49.5982C46.3864 49.072 45.7756 47.1074 45.4737 46.097C44.2101 45.3323 43.0657 45.7603 42.2584 46.3496C41.9425 47.4091 41.3879 49.1071 41.0018 49.5982C40.4261 50.3209 32.0438 50.2648 31.1943 50.0262C30.3379 49.7947 28.7443 45.0937 28.7443 45.0937C28.7443 45.0937 27.4314 45.655 27.5578 45.3042C27.7684 44.7218 27.2489 43.6203 26.8347 42.9186C27.5438 43.5571 28.5407 43.4308 28.5407 43.4308C28.5407 43.4308 28.9408 42.659 30.2536 42.6169C30.6627 42.6041 31.1107 42.586 31.5881 42.5667L31.5881 42.5667C35.035 42.4274 40.0172 42.2261 42.9955 43.508C44.034 43.6563 44.2434 43.6168 44.756 43.5202L44.8208 43.508C47.7991 42.2261 52.7814 42.4274 56.2282 42.5667C56.7057 42.586 57.1536 42.6041 57.5627 42.6169C58.8685 42.659 59.2757 43.4308 59.2757 43.4308C59.2757 43.4308 60.2796 43.5571 60.9817 42.9186C60.614 43.515 60.7358 43.8238 60.9109 44.2678C60.9397 44.341 60.97 44.4178 60.9998 44.5001ZM40.7911 43.6625C40.7911 43.6625 36.6701 42.5259 30.8011 43.4871C28.0351 43.9432 31.3276 49.1844 31.4119 49.2686C31.4961 49.3528 36.2349 50.0545 40.2645 49.1844C41.5422 48.9108 42.0196 43.5783 40.7911 43.6625ZM57.0502 43.4871C51.1812 42.5259 47.0603 43.6625 47.0603 43.6625C45.8317 43.5783 46.3161 48.9108 47.5868 49.1844C51.6165 50.0545 56.3552 49.3528 56.4394 49.2686C56.5237 49.1844 59.8162 43.9432 57.0502 43.4871Z" fill="#404041"/>
<path d="M47.0603 43.6625C47.0603 43.6625 51.1812 42.5259 57.0502 43.4871C59.8162 43.9432 56.5237 49.1844 56.4394 49.2686C56.3552 49.3528 51.6165 50.0545 47.5868 49.1844C46.3161 48.9108 45.8317 43.5783 47.0603 43.6625Z" fill="#EAEAEA" fill-opacity="0.8"/>
<path d="M60.8343 42.3992C60.722 42.6097 60.5886 42.7781 60.4412 42.9114C60.7501 42.3922 60.9958 42.0975 60.8343 42.3992Z" fill="#A8A8A8"/>
<path d="M26.3012 42.9185C26.1538 42.7852 26.0204 42.6168 25.908 42.4063C25.7466 42.0976 25.9923 42.3923 26.3012 42.9185Z" fill="#A8A8A8"/>
</g>
</g>
<defs>
<linearGradient id="paint0_linear_6291_46702" x1="28.4333" y1="75.9347" x2="60.3062" y2="75.9347" gradientUnits="userSpaceOnUse">
<stop stop-color="#A1A1A1"/>
<stop offset="0.0577997" stop-color="#B2B2B2"/>
<stop offset="0.1872" stop-color="#D4D4D4"/>
<stop offset="0.3108" stop-color="#ECECEC"/>
<stop offset="0.4253" stop-color="#FAFAFA"/>
<stop offset="0.5215" stop-color="white"/>
<stop offset="0.6449" stop-color="#FCFCFB"/>
<stop offset="0.7549" stop-color="#F1F1F1"/>
<stop offset="0.8598" stop-color="#DFDFDE"/>
<stop offset="0.9609" stop-color="#C6C6C5"/>
<stop offset="1" stop-color="#BABAB9"/>
</linearGradient>
<radialGradient id="paint1_radial_6291_46702" cx="0" cy="0" r="1" gradientUnits="userSpaceOnUse" gradientTransform="translate(37.2684 80.8768) scale(8.39017 8.3906)">
<stop stop-color="#8A8A8A"/>
<stop offset="0.0928131" stop-color="#A0A0A0"/>
<stop offset="0.2404" stop-color="#BEBEBE"/>
<stop offset="0.3971" stop-color="#D5D5D5"/>
<stop offset="0.5649" stop-color="#E5E5E5"/>
<stop offset="0.7517" stop-color="#EFEFEF"/>
<stop offset="0.995" stop-color="#F2F2F2"/>
</radialGradient>
<radialGradient id="paint2_radial_6291_46702" cx="0" cy="0" r="1" gradientUnits="userSpaceOnUse" gradientTransform="translate(50.8739 80.3038) scale(8.74088 8.74134)">
<stop stop-color="#8A8A8A"/>
<stop offset="0.0928131" stop-color="#A0A0A0"/>
<stop offset="0.2404" stop-color="#BEBEBE"/>
<stop offset="0.3971" stop-color="#D5D5D5"/>
<stop offset="0.5649" stop-color="#E5E5E5"/>
<stop offset="0.7517" stop-color="#EFEFEF"/>
<stop offset="0.995" stop-color="#F2F2F2"/>
</radialGradient>
</defs>
</svg>
