<svg width="1336" height="306" viewBox="0 0 1336 306" fill="none" xmlns="http://www.w3.org/2000/svg">
<path opacity="0.3" fill-rule="evenodd" clip-rule="evenodd" d="M0 65.5685L55.6667 45.5326C111.333 25.4966 222.667 -14.5753 334 5.46065C445.333 25.4966 556.667 105.64 668 152.391C779.333 199.142 890.667 212.499 1002 192.463C1113.33 172.427 1224.67 118.998 1280.33 92.2831L1336 65.5685V306H1280.33C1224.67 306 1113.33 306 1002 306C890.667 306 779.333 306 668 306C556.667 306 445.333 306 334 306C222.667 306 111.333 306 55.6667 306H0V65.5685Z" fill="url(#paint0_linear)"/>
<defs>
<linearGradient id="paint0_linear" x1="61.444" y1="59.4653" x2="824.597" y2="539.714" gradientUnits="userSpaceOnUse">
<stop stop-color="#67BE9F"/>
<stop offset="0.895103" stop-color="#20A2A5"/>
</linearGradient>
</defs>
</svg>
