<?xml version="1.0" encoding="utf-8"?>
<!-- Generator: Adobe Illustrator 24.2.1, SVG Export Plug-In . SVG Version: 6.00 Build 0)  -->
<svg version="1.1" id="Capa_1" xmlns="http://www.w3.org/2000/svg" xmlns:xlink="http://www.w3.org/1999/xlink" x="0px" y="0px"
	 viewBox="0 0 1920 1080" style="enable-background:new 0 0 1920 1080;" xml:space="preserve">
<style type="text/css">
	.st0{fill:#3482FF;}
	.st1{fill:#7FB2FF;}
</style>
<g>
	<polygon class="st0" points="1809.9,185.8 1803,185.8 1803,178.9 1799.2,178.9 1799.2,185.8 1792.3,185.8 1792.3,189.5 
		1799.2,189.5 1799.2,196.5 1803,196.5 1803,189.5 1809.9,189.5 	"/>
	<polygon class="st1" points="1821.2,122.4 1818.4,119.5 1811,126.9 1803.5,119.5 1800.7,122.4 1808.1,129.8 1800.7,137.2 
		1803.5,140 1811,132.6 1818.4,140 1821.2,137.2 1813.8,129.8 	"/>
</g>
<g>
	<polygon class="st0" points="1696.9,803.8 1690,803.8 1690,796.9 1686.2,796.9 1686.2,803.8 1679.3,803.8 1679.3,807.5 
		1686.2,807.5 1686.2,814.5 1690,814.5 1690,807.5 1696.9,807.5 	"/>
	<polygon class="st1" points="1708.2,740.4 1705.4,737.5 1698,744.9 1690.5,737.5 1687.7,740.4 1695.1,747.8 1687.7,755.2 
		1690.5,758 1698,750.6 1705.4,758 1708.2,755.2 1700.8,747.8 	"/>
</g>
<g>
	<polygon class="st0" points="1007.9,579.8 1001,579.8 1001,572.9 997.2,572.9 997.2,579.8 990.3,579.8 990.3,583.5 997.2,583.5 
		997.2,590.5 1001,590.5 1001,583.5 1007.9,583.5 	"/>
	<polygon class="st1" points="1019.2,516.4 1016.4,513.5 1009,520.9 1001.5,513.5 998.7,516.4 1006.1,523.8 998.7,531.2 1001.5,534 
		1009,526.6 1016.4,534 1019.2,531.2 1011.8,523.8 	"/>
</g>
<g>
	<polygon class="st0" points="319.9,603.8 313,603.8 313,596.9 309.2,596.9 309.2,603.8 302.3,603.8 302.3,607.5 309.2,607.5 
		309.2,614.5 313,614.5 313,607.5 319.9,607.5 	"/>
	<polygon class="st1" points="331.2,540.4 328.4,537.5 321,544.9 313.5,537.5 310.7,540.4 318.1,547.8 310.7,555.2 313.5,558 
		321,550.6 328.4,558 331.2,555.2 323.8,547.8 	"/>
</g>
</svg>
