<?xml version="1.0" encoding="utf-8"?>
<!-- Generator: Adobe Illustrator 24.0.1, SVG Export Plug-In . SVG Version: 6.00 Build 0)  -->
<svg version="1.1" id="Capa_1" xmlns="http://www.w3.org/2000/svg" xmlns:xlink="http://www.w3.org/1999/xlink" x="0px" y="0px"
	 viewBox="0 0 1920 1080" style="enable-background:new 0 0 1920 1080;" xml:space="preserve">
<style type="text/css">
	.st0{opacity:0.3;fill-rule:evenodd;clip-rule:evenodd;fill:url(#SVGID_1_);enable-background:new    ;}
	.st1{opacity:0.6;fill-rule:evenodd;clip-rule:evenodd;fill:url(#SVGID_2_);enable-background:new    ;}
	.st2{opacity:0.2;fill:#C3E5D9;enable-background:new    ;}
	.st3{fill:#3482FF;}
	.st4{fill:#7FB2FF;}
</style>
<linearGradient id="SVGID_1_" gradientUnits="userSpaceOnUse" x1="253.7478" y1="619.2065" x2="1350.4945" y2="-70.9713" gradientTransform="matrix(1 0 0 -1 0 1082)">
	<stop  offset="0" style="stop-color:#BFFFFE"/>
	<stop  offset="0.8951" style="stop-color:#D9EBFF"/>
</linearGradient>
<path class="st0" d="M0,734.5l80-28.8c80-28.8,240-86.4,400-57.6s320,144,480,211.2s320,86.4,480,57.6c160-28.8,320-105.6,400-144
	l80-38.4V1080h-80c-80,0-240,0-400,0c-160,0-320,0-480,0s-320,0-480,0s-320,0-400,0H0V734.5z"/>
<linearGradient id="SVGID_2_" gradientUnits="userSpaceOnUse" x1="356.2516" y1="644.4294" x2="1322.8885" y2="-94.2217" gradientTransform="matrix(1 0 0 -1 0 1082)">
	<stop  offset="0" style="stop-color:#ABD0FF"/>
	<stop  offset="0.8951" style="stop-color:#ABD0FF"/>
</linearGradient>
<path class="st1" d="M0,717.8L80,761c80,43.1,240,129.3,400,112.1c160-17.2,320-138,480-120.7c160,17.2,320,172.5,480,189.7
	c160,17.2,320-103.5,400-163.8l80-60.4V1080h-80c-80,0-240,0-400,0s-320,0-480,0c-160,0-320,0-480,0c-160,0-320,0-400,0H0V717.8z"/>
<g>
	<path class="st2" d="M1035.7,258.9c32.4-19,46.3-46.3,62-55.4c15.6-9.1,52.9-20.7,88.6,40.2c35.7,61-3.2,95.7-20.4,105.8
		C1085.4,396.6,978.3,292.5,1035.7,258.9z"/>
	<path class="st2" d="M1649.9,364.2c32.4-19,46.3-46.3,62-55.4c15.6-9.1,52.9-20.7,88.6,40.2c35.7,61-3.2,95.7-20.4,105.8
		C1699.6,501.9,1592.5,397.8,1649.9,364.2z"/>
	<path class="st2" d="M135.6,273.4c61-35.7,87.2-87.1,116.6-104.3c29.4-17.2,99.6-39,166.7,75.7s-6,180.2-38.4,199.2
		C229.1,532.6,27.5,336.7,135.6,273.4z"/>
</g>
<g>
	<polygon class="st3" points="1809.9,185.8 1803,185.8 1803,178.9 1799.2,178.9 1799.2,185.8 1792.3,185.8 1792.3,189.5 
		1799.2,189.5 1799.2,196.5 1803,196.5 1803,189.5 1809.9,189.5 	"/>
	<polygon class="st4" points="1821.2,122.4 1818.4,119.5 1811,126.9 1803.5,119.5 1800.7,122.4 1808.1,129.8 1800.7,137.2 
		1803.5,140 1811,132.6 1818.4,140 1821.2,137.2 1813.8,129.8 	"/>
</g>
<g>
	<polygon class="st3" points="1696.9,803.8 1690,803.8 1690,796.9 1686.2,796.9 1686.2,803.8 1679.3,803.8 1679.3,807.5 
		1686.2,807.5 1686.2,814.5 1690,814.5 1690,807.5 1696.9,807.5 	"/>
	<polygon class="st4" points="1708.2,740.4 1705.4,737.5 1698,744.9 1690.5,737.5 1687.7,740.4 1695.1,747.8 1687.7,755.2 
		1690.5,758 1698,750.6 1705.4,758 1708.2,755.2 1700.8,747.8 	"/>
</g>
<g>
	<polygon class="st3" points="1007.9,579.8 1001,579.8 1001,572.9 997.2,572.9 997.2,579.8 990.3,579.8 990.3,583.5 997.2,583.5 
		997.2,590.5 1001,590.5 1001,583.5 1007.9,583.5 	"/>
	<polygon class="st4" points="1019.2,516.4 1016.4,513.5 1009,520.9 1001.5,513.5 998.7,516.4 1006.1,523.8 998.7,531.2 1001.5,534 
		1009,526.6 1016.4,534 1019.2,531.2 1011.8,523.8 	"/>
</g>
<g>
	<polygon class="st3" points="319.9,603.8 313,603.8 313,596.9 309.2,596.9 309.2,603.8 302.3,603.8 302.3,607.5 309.2,607.5 
		309.2,614.5 313,614.5 313,607.5 319.9,607.5 	"/>
	<polygon class="st4" points="331.2,540.4 328.4,537.5 321,544.9 313.5,537.5 310.7,540.4 318.1,547.8 310.7,555.2 313.5,558 
		321,550.6 328.4,558 331.2,555.2 323.8,547.8 	"/>
</g>
</svg>
