<svg width="20" height="20" viewBox="0 0 20 20" fill="none" xmlns="http://www.w3.org/2000/svg">
<g clip-path="url(#clip0)">
<path d="M13.6649 2.43001C13.2431 2.24576 12.7519 2.4383 12.5676 2.86006C12.3834 3.28182 12.5759 3.77307 12.9977 3.95733C15.7091 5.14187 17.4988 7.82365 17.4988 10.8338C17.4988 14.9757 14.1405 18.3338 9.99874 18.3338C5.85645 18.3338 2.49868 14.976 2.49868 10.8338C2.49868 7.82431 4.28776 5.14254 6.99841 3.95721C7.42009 3.77284 7.61248 3.28151 7.42806 2.85982C7.24368 2.43814 6.75235 2.24576 6.33067 2.43017C3.01857 3.87842 0.832031 7.15603 0.832031 10.8337C0.832031 15.8965 4.93601 20.0005 9.99878 20.0005C15.061 20.0005 19.1655 15.8962 19.1655 10.8337C19.1655 7.15517 16.9781 3.87741 13.6649 2.43001Z" fill="#0D8284"/>
<path d="M9.99739 9.16675C10.4576 9.16675 10.8307 8.79366 10.8307 8.33342V0.833366C10.8308 0.373089 10.4576 0 9.99739 0C9.53715 0 9.16406 0.373089 9.16406 0.833327V8.33339C9.16406 8.79362 9.53715 9.16675 9.99739 9.16675Z" fill="#0D8284"/>
</g>
<defs>
<clipPath id="clip0">
<rect width="20" height="20" fill="white"/>
</clipPath>
</defs>
</svg>
