<svg width="20" height="20" viewBox="0 0 20 20" fill="none" xmlns="http://www.w3.org/2000/svg">
<path d="M9.14184 18.4036H2.35747C2.1054 18.4036 1.87571 18.2868 1.72719 18.083C1.57864 17.8792 1.53774 17.6246 1.61493 17.3845C2.38571 14.9881 4.73634 13.3145 7.33118 13.3145C8.53856 13.3145 9.69802 13.6781 10.6842 14.3659C11.0375 14.6123 11.5235 14.5257 11.77 14.1724C12.0163 13.8192 11.9297 13.3331 11.5765 13.0867C11.0883 12.7462 10.5667 12.4684 10.0211 12.2564C10.747 11.5964 11.2286 10.6722 11.3122 9.6373C12.4129 8.56512 13.8556 7.97762 15.4022 7.97762C16.6096 7.97762 17.7691 8.34121 18.7553 9.02902C19.1085 9.27539 19.5946 9.18879 19.841 8.83555C20.0874 8.4823 20.0008 7.99625 19.6475 7.74984C19.1593 7.40934 18.6377 7.13156 18.0922 6.91949C18.8929 6.19145 19.3963 5.14191 19.3963 3.97699C19.3963 1.7841 17.6122 0 15.4193 0C13.2263 0 11.4423 1.7841 11.4423 3.97707C11.4423 5.13727 11.9416 6.18305 12.7368 6.91074C12.628 6.95262 12.52 6.99715 12.4127 7.04434C11.9248 7.25906 11.4658 7.52266 11.0392 7.83273C10.4506 6.37121 9.0179 5.33691 7.34821 5.33691C5.15524 5.33691 3.37118 7.12102 3.37118 9.31398C3.37118 10.4708 3.86766 11.5138 4.65868 12.2413C2.54352 13.0339 0.828484 14.7362 0.13028 16.907C-0.101282 17.627 0.0213741 18.3905 0.466843 19.0017C0.912234 19.6128 1.6013 19.9633 2.35751 19.9633H9.14188C9.57259 19.9633 9.92169 19.6142 9.92169 19.1835C9.92169 18.7529 9.57251 18.4036 9.14184 18.4036ZM15.4193 1.55961C16.7523 1.55961 17.8368 2.64406 17.8368 3.97703C17.8368 5.31 16.7523 6.39445 15.4193 6.39445C14.0864 6.39445 13.0019 5.31 13.0019 3.97703C13.0019 2.64406 14.0864 1.55961 15.4193 1.55961ZM7.34825 6.89648C8.68122 6.89648 9.76567 7.98094 9.76567 9.31391C9.76567 10.6469 8.68122 11.7313 7.34825 11.7313C6.01528 11.7313 4.93083 10.6469 4.93083 9.31391C4.93083 7.98094 6.01528 6.89648 7.34825 6.89648Z" fill="#0D8284"/>
<path d="M19.6547 12.7374C19.3045 12.4867 18.8174 12.5673 18.5667 12.9175L14.7229 18.2865C14.618 18.4082 14.4864 18.4345 14.4159 18.4392C14.3434 18.4442 14.2025 18.4348 14.0818 18.3198L11.5934 15.9304C11.2827 15.6321 10.7889 15.6422 10.4908 15.9528C10.1925 16.2634 10.2025 16.7571 10.5131 17.0554L13.004 19.4471C13.3771 19.8022 13.875 19.9998 14.3874 19.9998C14.4314 19.9998 14.4756 19.9983 14.5197 19.9954C15.0778 19.9582 15.5989 19.6868 15.9493 19.2508C15.9584 19.2395 15.9671 19.228 15.9756 19.2162L19.8349 13.8254C20.0856 13.4752 20.0049 12.9881 19.6547 12.7374Z" fill="#0D8284"/>
</svg>
