<?xml version="1.0" encoding="utf-8"?>
<!-- Generator: Adobe Illustrator 24.2.1, SVG Export Plug-In . SVG Version: 6.00 Build 0)  -->
<svg version="1.1" id="Capa_1" xmlns="http://www.w3.org/2000/svg" xmlns:xlink="http://www.w3.org/1999/xlink" x="0px" y="0px"
	 viewBox="0 0 1316 314" style="enable-background:new 0 0 1316 314;" xml:space="preserve">
<style type="text/css">
	.st0{opacity:0.13;fill:#ABD0FF;}
</style>
<path class="st0" d="M658.3,106.1c24-14.1,34.3-34.3,45.9-41.1c11.6-6.8,39.2-15.4,65.6,29.8c26.4,45.2-2.4,70.9-15.1,78.4
	C695.1,208.1,615.8,131,658.3,106.1z"/>
<path class="st0" d="M1173.3,164.1c24-14.1,34.3-34.3,45.9-41.1c11.6-6.8,39.2-15.4,65.6,29.8c26.5,45.2-2.4,70.9-15.1,78.4
	C1210.1,266.1,1130.8,189,1173.3,164.1z"/>
<path class="st0" d="M71.4,116.8c45.2-26.5,64.6-64.5,86.4-77.3c21.8-12.8,73.8-28.9,123.5,56.1s-4.5,133.5-28.4,147.6
	C140.7,308.9-8.6,163.7,71.4,116.8z"/>
</svg>
