<svg width="1316" height="314" viewBox="0 0 1316 314" fill="none" xmlns="http://www.w3.org/2000/svg">
<path opacity="0.2" d="M718.314 106.061C742.331 91.9969 752.644 71.7867 764.217 65.0098C775.79 58.2329 803.399 49.6427 829.842 94.799C856.286 139.955 827.469 165.729 814.74 173.183C755.135 208.091 675.78 130.969 718.314 106.061Z" fill="#C3E5D9"/>
<path opacity="0.2" d="M1173.31 184.061C1197.33 169.997 1207.64 149.787 1219.22 143.01C1230.79 136.233 1258.4 127.643 1284.84 172.799C1311.29 217.955 1282.47 243.729 1269.74 251.183C1210.14 286.091 1130.78 208.969 1173.31 184.061Z" fill="#C3E5D9"/>
<path opacity="0.2" d="M51.4157 116.824C96.6249 90.3492 116.039 52.3057 137.823 39.5489C159.608 26.792 211.579 10.6218 261.356 95.6239C311.133 180.626 256.889 229.142 232.928 243.174C120.728 308.885 -28.6498 163.71 51.4157 116.824Z" fill="#C3E5D9"/>
</svg>
