<svg width="55" height="54" viewBox="0 0 55 54" fill="none" xmlns="http://www.w3.org/2000/svg">
<g clip-path="url(#clip0)">
<path d="M50.3748 27.0005V27C50.3748 22.451 49.0259 18.0042 46.4986 14.2219C43.9714 10.4396 40.3792 7.49159 36.1765 5.75077C31.9738 4.00996 27.3493 3.55448 22.8877 4.44194C18.4262 5.3294 14.328 7.51994 11.1114 10.7365C7.89476 13.9532 5.70422 18.0514 4.81676 22.5129C3.9293 26.9745 4.38478 31.599 6.1256 35.8017C7.86641 40.0044 10.8144 43.5965 14.5967 46.1238C18.379 48.6511 22.8259 50 27.3748 50V49.5L27.3754 50C33.4732 49.9933 39.3193 47.568 43.631 43.2562C47.9428 38.9444 50.3681 33.0983 50.3748 27.0005ZM12.6522 4.96606C17.01 2.05425 22.1334 0.500053 27.3746 0.5C34.4005 0.507672 41.1365 3.30212 46.1046 8.27022C51.0728 13.2384 53.8672 19.9745 53.8748 27.0005C53.8747 32.2416 52.3205 37.3649 49.4088 41.7226C46.4969 46.0805 42.3582 49.4771 37.5159 51.4828C32.6737 53.4885 27.3454 54.0133 22.2049 52.9908C17.0644 51.9683 12.3426 49.4444 8.6365 45.7383C4.9304 42.0322 2.40652 37.3104 1.38402 32.1699C0.361507 27.0294 0.886295 21.7011 2.89202 16.8589C4.89774 12.0166 8.29431 7.87791 12.6522 4.96606Z" fill="#ff7800" stroke="#ff7800"/>
<path d="M22.6226 36.243C21.2006 36.243 19.8776 36.081 18.6536 35.757C17.4296 35.415 16.4306 34.938 15.6566 34.326C15.3866 34.128 15.1886 33.921 15.0626 33.705C14.9546 33.471 14.9006 33.183 14.9006 32.841C14.9006 32.391 15.0356 31.995 15.3056 31.653C15.5936 31.311 15.9176 31.14 16.2776 31.14C16.4756 31.14 16.6646 31.176 16.8446 31.248C17.0426 31.302 17.2766 31.41 17.5466 31.572C18.3206 32.058 19.1036 32.418 19.8956 32.652C20.6876 32.868 21.5606 32.976 22.5146 32.976C23.7026 32.976 24.6116 32.778 25.2416 32.382C25.8716 31.986 26.1866 31.419 26.1866 30.681C26.1866 30.123 25.8896 29.673 25.2956 29.331C24.7196 28.989 23.6846 28.665 22.1906 28.359C20.5166 28.017 19.1756 27.603 18.1676 27.117C17.1776 26.631 16.4486 26.028 15.9806 25.308C15.5306 24.588 15.3056 23.715 15.3056 22.689C15.3056 21.555 15.6296 20.538 16.2776 19.638C16.9436 18.72 17.8526 18.009 19.0046 17.505C20.1746 16.983 21.4886 16.722 22.9466 16.722C25.5026 16.722 27.6086 17.361 29.2646 18.639C29.5346 18.855 29.7236 19.08 29.8316 19.314C29.9576 19.53 30.0206 19.8 30.0206 20.124C30.0206 20.574 29.8766 20.97 29.5886 21.312C29.3186 21.654 29.0036 21.825 28.6436 21.825C28.4456 21.825 28.2566 21.798 28.0766 21.744C27.9146 21.69 27.6806 21.573 27.3746 21.393C26.6366 20.925 25.9526 20.574 25.3226 20.34C24.7106 20.106 23.9276 19.989 22.9736 19.989C21.8756 19.989 21.0116 20.205 20.3816 20.637C19.7516 21.051 19.4366 21.627 19.4366 22.365C19.4366 22.797 19.5536 23.157 19.7876 23.445C20.0396 23.715 20.4446 23.958 21.0026 24.174C21.5786 24.39 22.3886 24.615 23.4326 24.849C25.8806 25.389 27.6356 26.082 28.6976 26.928C29.7776 27.774 30.3176 28.935 30.3176 30.411C30.3176 31.563 29.9936 32.58 29.3456 33.462C28.7156 34.344 27.8156 35.028 26.6456 35.514C25.4936 36 24.1526 36.243 22.6226 36.243Z" fill="#ff7800"/>
<path d="M34.4554 36.891C34.3474 37.269 34.1494 37.548 33.8614 37.728C33.5914 37.926 33.2854 38.025 32.9434 38.025C32.5294 38.025 32.1604 37.881 31.8364 37.593C31.5124 37.323 31.3504 36.972 31.3504 36.54C31.3504 36.36 31.3774 36.171 31.4314 35.973L37.6144 16.533C37.7404 16.155 37.9384 15.876 38.2084 15.696C38.4964 15.498 38.8024 15.399 39.1264 15.399C39.5584 15.399 39.9364 15.543 40.2604 15.831C40.5844 16.101 40.7464 16.452 40.7464 16.884C40.7464 17.064 40.7194 17.253 40.6654 17.451L34.4554 36.891Z" fill="#ff7800"/>
</g>
<defs>
<clipPath id="clip0">
<rect width="54" height="54" fill="white" transform="translate(0.374817)"/>
</clipPath>
</defs>
</svg>
