<svg width="211" height="210" viewBox="0 0 211 210" fill="none" xmlns="http://www.w3.org/2000/svg">
<path d="M19.6282 84.8568C57.1106 62.9073 73.2065 31.3659 91.2676 20.7894C109.329 10.2129 152.418 -3.19362 193.687 67.2804C234.956 137.754 189.983 177.979 170.117 189.612C77.0942 244.092 -46.753 123.729 19.6282 84.8568Z" fill="#FFFBDB"/>
<g clip-path="url(#clip0)">
<path d="M36.4727 169.2H182.355C185.865 169.2 188.743 172 188.743 175.543V188.171C188.743 191.657 185.923 194.514 182.355 194.514H36.4727C32.9623 194.514 30.085 191.714 30.085 188.171V175.543C30.085 172 32.9623 169.2 36.4727 169.2Z" fill="#F9ED78"/>
<path d="M18.0001 126.4C18.0001 124.057 19.8991 122.171 22.2586 122.171L60.1821 122.343L60.4123 155.143H22.2586C19.8991 155.143 18.0001 153.257 18.0001 150.914V126.4Z" fill="#86BC9F"/>
<path d="M58.7436 122.343H196.569C198.928 122.343 200.828 124.228 200.828 126.571V151.086C200.828 153.428 198.928 155.314 196.569 155.314H58.7436V122.343Z" fill="#E1F2EC"/>
<path d="M179.938 145.143C179.305 145.029 178.672 144.857 178.096 144.629C177.521 144.343 177.003 144 176.6 143.6L177.233 142.629C177.29 142.571 177.348 142.457 177.463 142.4C177.578 142.343 177.636 142.343 177.751 142.343C177.866 142.343 177.981 142.4 178.154 142.457C178.269 142.514 178.441 142.629 178.614 142.743C178.787 142.857 179.017 142.971 179.247 143.086C179.477 143.2 179.765 143.314 180.053 143.371L180.398 139.6C179.995 139.486 179.592 139.371 179.19 139.2C178.787 139.029 178.441 138.857 178.154 138.629C177.866 138.4 177.578 138.057 177.406 137.657C177.233 137.257 177.118 136.8 177.118 136.229C177.118 135.829 177.175 135.371 177.348 134.971C177.521 134.571 177.751 134.171 178.096 133.886C178.441 133.543 178.844 133.314 179.305 133.086C179.765 132.857 180.34 132.743 180.974 132.743L181.089 131.657C181.089 131.543 181.146 131.429 181.261 131.314C181.376 131.2 181.491 131.143 181.664 131.143H182.412L182.24 132.8C182.815 132.914 183.333 133.086 183.793 133.314C184.254 133.543 184.599 133.829 184.944 134.114L184.426 134.857C184.369 134.971 184.254 135.029 184.196 135.086C184.139 135.143 184.024 135.143 183.908 135.143C183.851 135.143 183.736 135.143 183.621 135.086C183.506 135.029 183.391 134.971 183.218 134.914C183.045 134.857 182.93 134.743 182.7 134.686C182.527 134.629 182.297 134.514 182.124 134.514L181.837 138C182.24 138.114 182.642 138.286 183.045 138.4C183.448 138.571 183.793 138.743 184.139 138.971C184.484 139.2 184.714 139.486 184.944 139.829C185.117 140.171 185.232 140.629 185.232 141.143C185.232 141.657 185.117 142.171 184.944 142.629C184.772 143.086 184.484 143.486 184.196 143.829C183.851 144.171 183.448 144.457 182.93 144.686C182.412 144.914 181.894 145.029 181.261 145.086L181.146 146.343C181.146 146.457 181.089 146.571 180.974 146.686C180.858 146.8 180.743 146.857 180.571 146.857H179.823L179.938 145.143ZM183.218 141.6C183.218 141.371 183.16 141.2 183.103 141.029C183.045 140.857 182.93 140.743 182.757 140.571C182.642 140.457 182.47 140.343 182.297 140.229C182.124 140.114 181.894 140.057 181.664 140L181.376 143.429C181.952 143.371 182.412 143.143 182.757 142.857C183.045 142.514 183.218 142.114 183.218 141.6ZM179.074 136.057C179.074 136.286 179.132 136.457 179.19 136.629C179.247 136.8 179.362 136.914 179.477 137.086C179.592 137.2 179.765 137.314 179.938 137.429C180.11 137.543 180.34 137.6 180.513 137.714L180.801 134.571C180.513 134.629 180.225 134.686 179.995 134.8C179.765 134.914 179.592 135.029 179.477 135.143C179.362 135.257 179.247 135.429 179.19 135.6C179.132 135.714 179.074 135.886 179.074 136.057Z" fill="#4A8082"/>
<path d="M18.0001 81.6C18.0001 79.2571 19.8991 77.3714 22.2586 77.3714H58.7435V110.343H22.2586C19.8991 110.343 18.0001 108.457 18.0001 106.114V81.6Z" fill="#86BC9F"/>
<path d="M58.7436 77.2571H196.569C198.928 77.2571 200.828 79.1428 200.828 81.4857V106C200.828 108.343 198.928 110.229 196.569 110.229H58.7436V77.2571Z" fill="#E1F2EC"/>
<path d="M179.995 90.0571C179.938 90.1714 179.88 90.2857 179.765 90.3428C179.708 90.4 179.592 90.4 179.477 90.4C179.362 90.4 179.247 90.3428 179.075 90.2857C178.959 90.1714 178.787 90.1143 178.557 90C178.384 89.8857 178.154 89.7714 177.866 89.7143C177.636 89.6 177.291 89.6 176.945 89.6C176.6 89.6 176.37 89.6571 176.14 89.7143C175.909 89.7714 175.737 89.8857 175.564 90C175.392 90.1143 175.276 90.2857 175.219 90.5143C175.161 90.6857 175.104 90.9143 175.104 91.1428C175.104 91.4285 175.161 91.6571 175.334 91.8857C175.507 92.0571 175.737 92.2285 175.967 92.4C176.255 92.5143 176.542 92.6285 176.888 92.7428C177.233 92.8571 177.578 92.9714 177.924 93.0857C178.269 93.2 178.614 93.3714 178.959 93.4857C179.305 93.6571 179.592 93.8285 179.88 94.1143C180.168 94.3428 180.341 94.6285 180.513 95.0285C180.686 95.3714 180.743 95.8285 180.743 96.3428C180.743 96.9143 180.628 97.4285 180.456 97.8857C180.283 98.3428 179.995 98.8 179.65 99.1428C179.305 99.4857 178.844 99.7714 178.326 100C177.809 100.229 177.176 100.286 176.542 100.286C176.14 100.286 175.794 100.229 175.392 100.171C174.989 100.114 174.643 100 174.298 99.8285C173.953 99.7143 173.608 99.5428 173.32 99.3143C173.032 99.1428 172.744 98.9143 172.514 98.6857L173.147 97.6C173.205 97.5428 173.262 97.4285 173.377 97.4285C173.492 97.3714 173.55 97.3714 173.665 97.3714C173.78 97.3714 173.953 97.4285 174.126 97.5428C174.298 97.6571 174.471 97.7714 174.701 97.9428C174.931 98.0571 175.161 98.2285 175.507 98.3428C175.794 98.4571 176.197 98.5143 176.6 98.5143C177.233 98.5143 177.751 98.3428 178.096 98.0571C178.442 97.7714 178.614 97.3143 178.614 96.7428C178.614 96.4 178.557 96.1714 178.384 95.9428C178.211 95.7143 178.039 95.6 177.751 95.4285C177.463 95.3143 177.176 95.1428 176.83 95.0857C176.485 94.9714 176.14 94.9143 175.794 94.8C175.449 94.6857 175.104 94.5714 174.759 94.4C174.413 94.2285 174.126 94.0571 173.838 93.7714C173.55 93.5428 173.377 93.2 173.205 92.8C173.032 92.4 172.975 91.9428 172.975 91.3714C172.975 90.9143 173.09 90.5143 173.262 90.0571C173.435 89.6571 173.723 89.2571 174.068 88.9143C174.413 88.5714 174.816 88.3428 175.334 88.1143C175.852 87.9428 176.427 87.8285 177.06 87.8285C177.809 87.8285 178.442 87.9428 179.075 88.1714C179.708 88.4 180.226 88.6857 180.628 89.1428L179.995 90.0571ZM183.16 100.057C183.103 100.171 183.045 100.286 182.988 100.4C182.93 100.514 182.815 100.571 182.7 100.629C182.585 100.686 182.47 100.743 182.355 100.8C182.24 100.857 182.125 100.857 182.009 100.857H181.146L186.095 88.2857C186.21 88.0571 186.325 87.8857 186.498 87.7714C186.671 87.6571 186.901 87.6 187.131 87.6H187.994L183.16 100.057Z" fill="#4A8082"/>
<path d="M39.235 126.4C44.8746 126.4 49.4208 121.886 49.4208 116.286C49.4208 110.686 44.8746 106.171 39.235 106.171C33.5953 106.171 29.0491 110.686 29.0491 116.286C29.0491 121.886 33.5953 126.4 39.235 126.4Z" fill="white"/>
<path d="M39.2351 124.286C43.6662 124.286 47.2917 120.686 47.2917 116.286C47.2917 111.886 43.6662 108.286 39.2351 108.286C34.8039 108.286 31.1785 111.886 31.1785 116.286C31.1785 120.686 34.8039 124.286 39.2351 124.286Z" fill="#F9ED78"/>
<path d="M36.8755 120.286C36.9331 120.171 36.9331 120.114 36.9331 120C36.9331 119.886 36.8755 119.829 36.7605 119.771C36.0699 119.314 35.552 118.686 35.2642 117.943C34.9765 117.2 34.8614 116.4 35.034 115.6C35.2067 114.8 35.552 114.057 36.1274 113.486C36.7029 112.914 37.3935 112.457 38.1991 112.286L37.6237 113.314C37.5661 113.429 37.5661 113.543 37.5661 113.657C37.6237 113.771 37.6812 113.886 37.7388 113.886C37.8538 113.943 37.9689 113.943 38.084 113.943C38.1991 113.886 38.2567 113.829 38.3142 113.771L39.1774 112.286C39.2925 112.114 39.2925 111.886 39.235 111.657C39.1774 111.429 39.0623 111.257 38.8321 111.143L37.3359 110.286C37.2208 110.229 37.1057 110.229 36.9906 110.229C36.8755 110.286 36.818 110.343 36.7605 110.4C36.7029 110.514 36.7029 110.629 36.7029 110.743C36.7605 110.857 36.818 110.971 36.8755 110.971L37.7963 111.486C36.8755 111.714 36.0123 112.229 35.3793 112.971C34.7463 113.657 34.2859 114.571 34.1133 115.486C33.9406 116.457 34.0557 117.429 34.401 118.286C34.7463 119.143 35.3793 119.943 36.185 120.514C36.2425 120.571 36.3001 120.571 36.3576 120.571C36.4152 120.571 36.4727 120.571 36.5303 120.571C36.5878 120.571 36.6454 120.514 36.7029 120.514C36.818 120.4 36.818 120.343 36.8755 120.286Z" fill="#676767"/>
<path d="M41.6518 122.228C41.7093 122.114 41.7093 122 41.7093 121.886C41.6518 121.771 41.5943 121.657 41.5367 121.657L40.616 121.143C41.5367 120.914 42.3999 120.4 43.0329 119.657C43.666 118.971 44.1263 118.057 44.299 117.143C44.4716 116.171 44.3565 115.2 44.0112 114.343C43.666 113.486 43.0329 112.686 42.2273 112.114C42.1697 112.057 42.1122 112.057 42.0546 112.057C41.9971 112.057 41.9395 112.057 41.882 112.057C41.8244 112.057 41.7669 112.114 41.7093 112.114C41.6518 112.171 41.5943 112.171 41.5943 112.229C41.5367 112.343 41.5367 112.4 41.5367 112.514C41.5367 112.629 41.5943 112.686 41.7093 112.743C42.3999 113.2 42.9178 113.829 43.2056 114.571C43.4933 115.314 43.6084 116.114 43.4358 116.914C43.2631 117.714 42.9178 118.457 42.3424 119.029C41.7669 119.6 41.0763 120.057 40.2707 120.229L40.8461 119.2C40.9037 119.086 40.9037 118.971 40.9037 118.857C40.8461 118.743 40.7886 118.629 40.731 118.629C40.616 118.571 40.5009 118.571 40.3858 118.571C40.2707 118.629 40.2131 118.686 40.1556 118.743L39.2924 120.229C39.1773 120.4 39.1773 120.629 39.2348 120.857C39.2924 121.086 39.4075 121.257 39.6377 121.371L41.1339 122.228C41.249 122.286 41.3641 122.286 41.4792 122.286C41.5943 122.286 41.5943 122.343 41.6518 122.228Z" fill="#676767"/>
<path d="M117.672 91.8856C116.981 91.0856 116.924 90.3999 118.477 90.2856C121.873 89.9999 124.405 88.5142 124.808 87.6571C125.21 86.7999 124.117 85.9428 123.196 86.4571C122.448 86.8571 120.952 87.1999 119.859 87.3714C118.938 87.5428 118.017 87.5428 117.096 87.4285C116.291 87.3142 115.6 87.1428 114.967 87.0285C114.967 87.0285 111.342 86.2285 109.788 85.0285L102.134 93.1428L105.702 97.1428C105.702 97.1428 107.428 99.7142 110.478 99.3714C113.586 99.0856 117.672 96.8571 117.672 96.8571C118.247 95.9999 123.196 99.0285 124.808 100.171C126.361 101.314 127.57 101.028 127.512 99.9428C127.455 99.1999 122.678 95.5999 121.067 94.5142C120.261 93.9999 118.535 92.8571 117.672 91.8856Z" fill="#FFBE9D"/>
<path d="M113.183 98.9143C113.183 98.9714 112.953 99.0857 112.55 99.0286C112.147 99.0286 111.629 98.8571 111.111 98.5143C110.651 98.1714 110.306 97.6571 110.191 97.3143C110.076 96.9143 110.133 96.6857 110.133 96.6857C110.248 96.6857 110.421 97.6 111.284 98.2286C112.262 98.9143 113.183 98.8571 113.183 98.9143Z" fill="#EB996E"/>
<path d="M116.233 97.7714C116.233 97.8285 116.003 97.8857 115.657 97.8857C115.255 97.8857 114.737 97.7142 114.334 97.3714C113.873 97.0285 113.586 96.5714 113.471 96.2285C113.356 95.8857 113.356 95.6571 113.413 95.6571C113.528 95.6571 113.701 96.5142 114.564 97.1428C115.312 97.6571 116.233 97.6571 116.233 97.7714Z" fill="#EB996E"/>
<path d="M124.462 13.3143C124.808 20 132.979 29.0857 139.079 30.5714C142.302 31.3714 145.985 30.9714 148.517 33.1428C152.891 36.8 150.301 44.4 153.236 49.3143C155.02 52.3429 158.645 53.8286 160.66 56.6857C164.055 61.4286 161.753 68.6857 157.149 72.2286C152.545 75.7714 146.445 76.4571 140.633 76.2857C127.973 75.9429 114.967 71.9429 105.76 63.0286C101.444 58.8571 84.5822 45.8857 90.452 15.2" fill="#422E19"/>
<path d="M170.268 61.1592L122.043 46.9306C118.073 45.2163 115.023 44.8163 115.023 44.8163L98.7368 44.9306C96.55 44.9306 94.4208 45.3878 92.4642 46.2449L48.5557 60.7021C45.3331 61.7306 43.0887 65.0449 43.0887 68.8163C43.0887 73.4449 46.484 77.2163 50.6274 77.2163H70.884C70.8265 77.3878 70.7689 77.5021 70.7689 77.5021L141.264 77.7878L168.196 77.8449C172.34 77.8449 175.735 74.0163 175.735 69.3306C175.735 65.5021 173.491 62.1878 170.268 61.1592Z" fill="#20A2A5"/>
<path d="M160.602 66.1714C160.602 66.1714 160.429 66.1714 160.142 66.1714C159.796 66.1142 159.393 66.1142 158.875 66.0571C157.782 65.9428 156.228 65.7714 154.329 65.5428C150.474 65.1428 145.122 64.8571 139.194 64.9142C133.267 64.9714 127.915 65.4857 124.059 65.9428C122.16 66.1714 120.607 66.4 119.513 66.5714C118.995 66.6285 118.592 66.6857 118.247 66.7428C117.959 66.8 117.787 66.7999 117.787 66.7999C117.787 66.7999 117.902 66.7428 118.19 66.6857C118.535 66.6285 118.938 66.5142 119.398 66.4571C120.492 66.2285 121.988 66 123.944 65.7142C127.8 65.1428 133.152 64.6285 139.079 64.5714C145.007 64.5142 150.359 64.8571 154.272 65.3142C156.228 65.5428 157.782 65.7714 158.818 65.9428C159.336 66.0571 159.739 66.1142 160.026 66.1714C160.429 66.1142 160.602 66.1714 160.602 66.1714Z" fill="#36755D"/>
<g opacity="0.2">
<path opacity="0.2" d="M74.2813 66.0571L104.781 71.7714L101.271 77.4857H100.35L74.2813 66.0571Z" fill="black"/>
</g>
<path d="M48.615 76.1143C48.615 76.1143 103.745 100.286 103.457 99.7143C103.17 99.1429 112.205 83.3143 112.205 83.3143L67.548 61.3715L48.615 76.1143Z" fill="#20A2A5"/>
<path d="M73.8784 64.5143C73.8784 64.5143 74.2812 64.6857 75.0293 64.9714C75.835 65.3142 76.8133 65.8285 78.0793 66.4C80.6114 67.6 84.1218 69.3142 88.035 71.2C91.8906 73.0857 95.401 74.8571 97.9331 76.1142C99.1416 76.7428 100.12 77.2571 100.926 77.6571C101.616 78 102.019 78.2285 102.019 78.2857C102.019 78.3428 101.616 78.1142 100.868 77.8285C100.062 77.4857 99.084 76.9714 97.818 76.4C95.2859 75.2 91.7756 73.4857 87.8624 71.6C84.0067 69.7142 80.4963 67.9428 77.9642 66.6857C76.7557 66.0571 75.7774 65.5428 74.9718 65.1428C74.2812 64.8 73.8784 64.5714 73.8784 64.5143Z" fill="#36755D"/>
<g opacity="0.2">
<path opacity="0.2" d="M116.176 44.5714C115.255 47.0857 116.636 49.8285 117.959 52.1714C118.88 53.8285 119.801 55.4285 121.182 56.7999C122.506 58.1142 124.29 59.0857 126.189 59.0285C128.663 58.9714 130.908 57.1428 133.325 57.2571C134.993 57.3714 136.49 58.3428 137.871 59.2571C140.288 60.8571 142.762 62.4571 145.525 63.4857C148.287 64.4571 151.337 64.8571 154.099 63.9999C156.919 63.1428 159.393 60.9714 160.026 58.1714" fill="black"/>
</g>
<path d="M116.406 43.8285C116.521 40.8571 116.693 38.2285 116.693 38.2285C116.693 38.2285 123.311 37.3714 123.599 30.6857C123.887 23.9428 123.196 8.45711 123.196 8.45711L110.996 2.62854L97.8754 13.1428L99.9471 44C100.235 48.4571 104.09 51.8285 108.579 51.6571C112.838 51.4857 116.233 48.0571 116.406 43.8285Z" fill="#FFBE9D"/>
<path d="M122.103 20.6857C122.103 21.1428 121.758 21.5428 121.297 21.5428C120.837 21.5428 120.434 21.2 120.434 20.6857C120.434 20.2286 120.779 19.8286 121.24 19.8286C121.7 19.8286 122.045 20.1714 122.103 20.6857Z" fill="#422E19"/>
<path d="M122.909 18.8571C122.793 18.9714 122.16 18.4571 121.24 18.4C120.319 18.3428 119.628 18.8 119.571 18.6857C119.513 18.6286 119.628 18.4 119.916 18.2286C120.204 18 120.722 17.8286 121.24 17.8286C121.815 17.8286 122.276 18.1143 122.563 18.3428C122.851 18.6285 122.966 18.8 122.909 18.8571Z" fill="#422E19"/>
<path d="M112.032 20.6857C112.032 21.1428 111.687 21.5428 111.227 21.5428C110.766 21.5428 110.363 21.2 110.363 20.6857C110.363 20.2286 110.709 19.8286 111.169 19.8286C111.629 19.8286 112.032 20.1714 112.032 20.6857Z" fill="#422E19"/>
<path d="M112.838 19.0286C112.723 19.1429 112.09 18.6286 111.169 18.5714C110.248 18.5143 109.558 18.9714 109.5 18.8571C109.443 18.8 109.558 18.5714 109.845 18.4C110.133 18.1714 110.651 18 111.169 18C111.744 18 112.205 18.2857 112.493 18.5143C112.78 18.8 112.895 18.9714 112.838 19.0286Z" fill="#422E19"/>
<path d="M116.233 26.8C116.233 26.7429 116.808 26.6857 117.729 26.5715C117.959 26.5143 118.247 26.2857 118.305 26.1143C118.362 25.9429 118.362 25.7715 118.305 25.4857C118.132 24.8572 117.269 23.7715 117.039 23.1429C116.118 20.4572 115.945 18.8572 116.06 18.8C116.175 18.7429 116.521 20.9715 117.384 23.0857C117.729 23.8857 118.362 24.8572 118.592 25.4286C118.707 25.7143 118.765 25.9429 118.65 26.2857C118.592 26.4572 118.42 26.6857 118.19 26.8C118.017 26.8572 117.729 26.9143 117.614 26.9143C116.463 26.8572 116.233 26.8572 116.233 26.8Z" fill="#422E19"/>
<path d="M113.241 27.7143C112.32 27.0857 115.83 29.2 117.672 29.2C117.672 29.2 116.578 30.9143 114.679 30.1143C112.723 29.3143 113.241 27.7143 113.241 27.7143Z" fill="white"/>
<path d="M116.693 38.2857C116.693 38.2857 112.262 38.4 107.889 35.4285C107.889 35.4285 109.96 40.3428 116.578 39.9428L116.693 38.2857Z" fill="#EB996E"/>
<path d="M90.7397 19.8286C90.7397 25.6571 89.1859 41.0286 99.8897 43.1428L99.4868 21.9428C99.4868 21.9428 109.845 17.0857 111.572 7.02856L111.629 7.0857C112.32 8.62856 113.471 11.8857 112.78 14.5143L122.448 16.8571L123.542 17.8857C123.542 17.8857 126.994 10.4 120.319 3.59999C113.643 -3.20001 108.004 1.71427 104.436 1.31427C102.076 1.02856 93.8472 1.0857 90.5095 15.1428L90.7397 19.8286Z" fill="#422E19"/>
<path d="M99.7745 22.2286C98.8538 21.6572 97.6453 22.1143 96.8972 22.9143C95.7462 24.1143 95.5736 26.1143 96.4368 27.5429C97.3 28.9714 99.1415 29.7143 100.753 29.2572" fill="#FFBE9D"/>
<path d="M99.5445 27.2C99.5445 27.2571 99.2567 27.3143 98.7964 27.2C98.336 27.0857 97.6454 26.7428 97.3577 25.9428C97.2426 25.5428 97.2426 25.1428 97.4152 24.8571C97.5303 24.5143 97.7605 24.3428 97.9907 24.1714C98.3935 23.8857 98.7388 23.9428 98.7388 23.9428C98.7388 24 98.4511 24.1143 98.1633 24.4C97.8181 24.6857 97.5303 25.2 97.7605 25.8286C97.9332 26.4 98.5086 26.7428 98.9115 26.9143C99.2567 27.0857 99.5445 27.1428 99.5445 27.2Z" fill="#EB996E"/>
<path d="M98.6813 28.5143C98.1634 28.6286 97.9332 29.3143 98.2209 29.7143C98.5087 30.1143 99.2568 30.1143 99.487 29.6571C99.7747 29.2571 99.4294 28.5714 98.969 28.5143" fill="#E8505B"/>
<path d="M118.305 77.6571V66.6285C118.305 66.6285 101.789 70.0571 101.501 77.5428L118.305 77.6571Z" fill="#FFBE9D"/>
<path d="M116.578 42.7428C116.866 46.1143 118.42 49.3714 120.894 51.6571C123.369 53.9428 126.707 55.3143 130.16 55.3714C132.576 55.4286 135.166 54.8571 137.41 55.8286C139.367 56.6857 140.576 58.5714 142.129 60C145.697 63.4286 151.279 64.6857 155.998 63.0857C158.012 62.4 161.177 60.9714 161.523 58.9143C161.81 57.3143 159.854 55.7714 158.703 54.6286C157.552 53.4857 156.113 52.8 154.617 52.1143C142.82 46.6286 130.217 42.6286 117.211 41.9428" fill="#422E19"/>
<path d="M95.4584 183.943C95.516 183.943 95.516 183.943 95.5735 184L95.9188 184.343C95.6886 184.629 95.3433 184.857 94.998 185.029C94.6528 185.2 94.1924 185.257 93.732 185.257C93.2716 185.257 92.8688 185.2 92.5235 185.029C92.1782 184.857 91.8905 184.686 91.6027 184.4C91.3726 184.114 91.1424 183.829 91.0273 183.429C90.9122 183.029 90.7971 182.629 90.7971 182.171C90.7971 181.714 90.8546 181.314 91.0273 180.914C91.1999 180.514 91.3726 180.229 91.6603 179.943C91.948 179.657 92.2358 179.486 92.6386 179.314C93.0414 179.143 93.4443 179.086 93.9046 179.086C94.365 179.086 94.7103 179.143 95.0556 179.314C95.4009 179.429 95.6886 179.657 95.9188 179.886L95.631 180.286L95.5735 180.343C95.5735 180.343 95.516 180.343 95.4584 180.343C95.4009 180.343 95.4009 180.343 95.3433 180.286C95.2858 180.286 95.2282 180.229 95.1707 180.171C95.1131 180.114 95.0556 180.114 94.998 180.057C94.9405 180 94.8254 179.943 94.7103 179.943C94.5952 179.886 94.4801 179.886 94.365 179.829C94.2499 179.829 94.0773 179.771 93.9046 179.771C93.5593 179.771 93.2716 179.829 92.9839 179.943C92.6961 180.057 92.466 180.229 92.2933 180.4C92.1207 180.629 91.948 180.857 91.8329 181.143C91.7178 181.429 91.6603 181.771 91.6603 182.114C91.6603 182.514 91.7178 182.8 91.8329 183.143C91.948 183.429 92.0631 183.714 92.2933 183.886C92.466 184.114 92.6961 184.229 92.9839 184.343C93.2141 184.457 93.5018 184.514 93.7895 184.514C93.9622 184.514 94.1348 184.514 94.2499 184.457C94.4226 184.457 94.5377 184.4 94.6527 184.343C94.7678 184.286 94.8829 184.229 94.998 184.171C95.1131 184.114 95.2282 184 95.3433 183.943C95.4009 183.943 95.4009 183.943 95.4584 183.943ZM98.6235 180.857C98.9112 180.857 99.199 180.914 99.4867 181.029C99.7169 181.143 99.9471 181.257 100.12 181.486C100.292 181.657 100.407 181.886 100.523 182.171C100.638 182.457 100.695 182.743 100.695 183.086C100.695 183.429 100.638 183.714 100.523 184C100.407 184.286 100.292 184.514 100.12 184.686C99.9471 184.857 99.7169 185.029 99.4867 185.143C99.2565 185.257 98.9688 185.314 98.6235 185.314C98.2782 185.314 98.048 185.257 97.7603 185.143C97.5301 185.029 97.2999 184.914 97.1273 184.686C96.9546 184.514 96.8395 184.286 96.7244 184C96.6094 183.714 96.5518 183.429 96.5518 183.086C96.5518 182.743 96.6094 182.457 96.7244 182.171C96.8395 181.886 96.9546 181.657 97.1273 181.486C97.2999 181.314 97.5301 181.143 97.7603 181.029C97.9905 180.914 98.2782 180.857 98.6235 180.857ZM98.6235 184.629C99.0263 184.629 99.3716 184.514 99.6018 184.229C99.832 183.943 99.8895 183.543 99.8895 183.029C99.8895 182.514 99.7744 182.114 99.6018 181.829C99.3716 181.543 99.0839 181.429 98.6235 181.429C98.3933 181.429 98.2207 181.486 98.048 181.543C97.8754 181.6 97.7603 181.714 97.6452 181.886C97.5301 182 97.4726 182.171 97.415 182.4C97.3575 182.571 97.3575 182.8 97.3575 183.086C97.3575 183.314 97.3575 183.543 97.415 183.771C97.4726 183.943 97.5301 184.114 97.6452 184.286C97.7603 184.4 97.8754 184.514 98.048 184.571C98.2207 184.629 98.3933 184.629 98.6235 184.629ZM101.616 185.2V180.914H102.076C102.191 180.914 102.249 180.971 102.307 181.086L102.364 181.543C102.537 181.314 102.767 181.2 102.997 181.029C103.227 180.914 103.515 180.857 103.803 180.857C104.033 180.857 104.263 180.914 104.436 180.971C104.608 181.029 104.781 181.143 104.896 181.314C105.011 181.429 105.126 181.6 105.184 181.829C105.241 182 105.299 182.229 105.299 182.514V185.257H104.551V182.514C104.551 182.171 104.493 181.943 104.321 181.771C104.148 181.6 103.975 181.486 103.63 181.486C103.4 181.486 103.17 181.543 102.997 181.657C102.824 181.771 102.652 181.886 102.479 182.114V185.257H101.616V185.2ZM107.601 185.257C107.256 185.257 107.025 185.143 106.795 184.971C106.623 184.8 106.507 184.514 106.507 184.171V181.543H106.047C105.99 181.543 105.99 181.543 105.932 181.486C105.874 181.486 105.874 181.429 105.874 181.371V181.086L106.565 180.971L106.738 179.657C106.738 179.6 106.738 179.6 106.795 179.543C106.853 179.543 106.853 179.486 106.91 179.486H107.313V180.971H108.522V181.543H107.313V184.114C107.313 184.286 107.371 184.4 107.428 184.514C107.543 184.629 107.601 184.629 107.774 184.629C107.831 184.629 107.946 184.629 108.004 184.571C108.061 184.571 108.119 184.514 108.176 184.514C108.234 184.514 108.234 184.457 108.291 184.457C108.349 184.457 108.349 184.4 108.349 184.4C108.407 184.4 108.407 184.4 108.464 184.457L108.694 184.8C108.579 184.914 108.407 185.029 108.234 185.086C108.004 185.2 107.773 185.257 107.601 185.257ZM110.306 180.914V185.2H109.557V180.914H110.306ZM110.478 179.6C110.478 179.657 110.478 179.714 110.421 179.829C110.421 179.886 110.363 179.943 110.306 180C110.248 180.057 110.19 180.057 110.133 180.114C110.075 180.114 110.018 180.171 109.903 180.171C109.845 180.171 109.788 180.171 109.673 180.114C109.615 180.114 109.557 180.057 109.5 180C109.442 179.943 109.442 179.886 109.385 179.829C109.385 179.771 109.327 179.714 109.327 179.6C109.327 179.486 109.327 179.486 109.385 179.371C109.385 179.314 109.442 179.257 109.5 179.2C109.557 179.143 109.615 179.086 109.673 179.086C109.73 179.086 109.788 179.029 109.903 179.029C109.96 179.029 110.018 179.029 110.133 179.086C110.19 179.086 110.248 179.143 110.306 179.2C110.363 179.257 110.421 179.314 110.421 179.371C110.478 179.429 110.478 179.486 110.478 179.6ZM111.629 185.2V180.914H112.09C112.205 180.914 112.262 180.971 112.32 181.086L112.377 181.543C112.55 181.314 112.78 181.2 113.01 181.029C113.24 180.914 113.528 180.857 113.816 180.857C114.046 180.857 114.276 180.914 114.449 180.971C114.622 181.029 114.794 181.143 114.909 181.314C115.024 181.429 115.14 181.6 115.197 181.829C115.255 182 115.312 182.229 115.312 182.514V185.257H114.564V182.514C114.564 182.171 114.507 181.943 114.334 181.771C114.161 181.6 113.989 181.486 113.643 181.486C113.413 181.486 113.183 181.543 113.01 181.657C112.838 181.771 112.665 181.886 112.492 182.114V185.257H111.629V185.2ZM116.981 180.914V183.657C116.981 184 117.039 184.229 117.211 184.4C117.384 184.571 117.614 184.686 117.902 184.686C118.132 184.686 118.305 184.629 118.535 184.514C118.707 184.4 118.938 184.286 119.053 184.057V180.914H119.801V185.2H119.34C119.225 185.2 119.168 185.143 119.11 185.029L119.053 184.571C118.88 184.8 118.65 184.914 118.42 185.086C118.19 185.2 117.902 185.257 117.614 185.257C117.384 185.257 117.154 185.2 116.981 185.143C116.808 185.086 116.636 184.971 116.521 184.8C116.406 184.686 116.29 184.514 116.233 184.286C116.175 184.114 116.118 183.886 116.118 183.6V180.857H116.981V180.914ZM124.232 185.2H123.887C123.829 185.2 123.772 185.2 123.714 185.143C123.657 185.143 123.657 185.086 123.599 184.971L123.541 184.571C123.426 184.686 123.311 184.743 123.196 184.857C123.081 184.914 122.966 185.029 122.851 185.086C122.736 185.143 122.621 185.2 122.448 185.2C122.333 185.2 122.16 185.257 121.988 185.257C121.815 185.257 121.642 185.257 121.527 185.2C121.355 185.143 121.24 185.086 121.124 184.971C121.009 184.857 120.952 184.743 120.894 184.629C120.837 184.457 120.779 184.343 120.779 184.114C120.779 183.943 120.837 183.771 120.894 183.657C121.009 183.486 121.124 183.371 121.355 183.257C121.585 183.143 121.815 183.029 122.16 182.971C122.506 182.914 122.908 182.857 123.369 182.857V182.514C123.369 182.171 123.311 181.943 123.139 181.771C123.023 181.6 122.793 181.543 122.506 181.543C122.333 181.543 122.16 181.543 122.045 181.6C121.93 181.657 121.815 181.714 121.7 181.771C121.585 181.829 121.527 181.886 121.47 181.943C121.412 182 121.355 182 121.297 182C121.24 182 121.182 182 121.182 181.943C121.124 181.943 121.124 181.886 121.067 181.829L120.952 181.6C121.182 181.371 121.47 181.2 121.7 181.086C121.988 180.971 122.275 180.914 122.621 180.914C122.851 180.914 123.081 180.971 123.254 181.029C123.426 181.086 123.599 181.2 123.714 181.371C123.829 181.486 123.944 181.657 124.002 181.886C124.059 182.057 124.117 182.286 124.117 182.514V185.2H124.232ZM122.275 184.743C122.39 184.743 122.506 184.743 122.621 184.686C122.736 184.686 122.851 184.629 122.908 184.571C123.023 184.514 123.081 184.457 123.196 184.4C123.311 184.343 123.369 184.229 123.484 184.171V183.257C123.139 183.257 122.851 183.314 122.621 183.314C122.39 183.371 122.16 183.429 122.045 183.486C121.873 183.543 121.757 183.657 121.7 183.714C121.642 183.829 121.585 183.943 121.585 184.057C121.585 184.171 121.585 184.286 121.642 184.343C121.7 184.4 121.7 184.514 121.815 184.571C121.873 184.629 121.93 184.686 122.045 184.686C122.045 184.686 122.16 184.743 122.275 184.743ZM125.383 185.2V180.914H125.843C125.901 180.914 125.958 180.914 126.016 180.971C126.073 181.029 126.073 181.029 126.073 181.143L126.131 181.829C126.304 181.543 126.476 181.314 126.649 181.143C126.879 180.971 127.109 180.914 127.397 180.914C127.512 180.914 127.627 180.914 127.742 180.971C127.857 180.971 127.915 181.029 128.03 181.086L127.915 181.657C127.915 181.714 127.857 181.771 127.8 181.771C127.742 181.771 127.685 181.771 127.627 181.714C127.57 181.714 127.455 181.657 127.282 181.657C126.994 181.657 126.822 181.714 126.649 181.886C126.476 182.057 126.304 182.286 126.189 182.571V185.314H125.383V185.2Z" fill="#676767"/>
<path d="M144.011 182.093L150.865 199.106L153.687 194.666L157.646 199.674L162.374 195.341L157.866 191.15L162.007 188.415L144.011 182.093Z" fill="#0D8284"/>
</g>
<defs>
<clipPath id="clip0">
<rect width="183" height="216" fill="white" transform="translate(18.0001)"/>
</clipPath>
</defs>
</svg>
