<svg width="211" height="192" viewBox="0 0 211 192" fill="none" xmlns="http://www.w3.org/2000/svg">
<path d="M19.6282 72.8568C57.1105 50.9073 73.2064 19.3659 91.2675 8.78943C109.329 -1.78709 152.418 -15.1936 193.687 55.2804C234.956 125.754 189.983 165.979 170.117 177.612C77.0941 232.092 -46.753 111.729 19.6282 72.8568Z" fill="#FFFBDB"/>
<path d="M158.597 131.585V136.729C158.597 137.14 158.476 137.519 158.272 137.836C158.056 138.17 157.747 138.431 157.383 138.578C157.272 138.623 157.156 138.657 157.036 138.68C156.927 138.7 156.816 138.711 156.702 138.711H78.4096C77.4009 138.711 76.5693 137.873 76.5171 136.831C76.5171 136.797 76.5148 136.763 76.5148 136.729V131.585C76.5148 131.552 76.5148 131.518 76.5171 131.484C76.5693 130.442 77.4009 129.604 78.4096 129.604H156.702C156.816 129.604 156.927 129.615 157.036 129.635C157.156 129.658 157.272 129.692 157.383 129.737C157.747 129.884 158.056 130.144 158.272 130.479C158.476 130.796 158.597 131.175 158.597 131.585Z" fill="#FFEB4D"/>
<path d="M120.149 138.711H78.2047C77.305 138.711 76.5621 137.873 76.5166 136.831C76.5166 136.797 76.5144 136.763 76.5144 136.729V131.585C76.5144 131.552 76.5144 131.518 76.5166 131.484C76.5621 130.442 77.305 129.604 78.2047 129.604H114.998C115.587 132.285 116.957 135.993 120.149 138.711Z" fill="#EAB726"/>
<path d="M149.069 138.709H148.179V129.601H149.069V138.709Z" fill="#EAB726"/>
<path d="M146.058 138.709H145.167V129.601H146.058V138.709Z" fill="#EAB726"/>
<path d="M142.445 138.709H141.554V129.601H142.445V138.709Z" fill="#EAB726"/>
<path d="M136.908 138.709H136.018V129.601H136.908V138.709Z" fill="#EAB726"/>
<path d="M131.053 138.709H130.162V129.601H131.053V138.709Z" fill="#EAB726"/>
<path d="M122.079 138.709H121.188V129.601H122.079V138.709Z" fill="#EAB726"/>
<path d="M113.675 138.709H112.785V129.601H113.675V138.709Z" fill="#EAB726"/>
<path d="M106.171 138.709H105.281V129.601H106.171V138.709Z" fill="#EAB726"/>
<path d="M151.937 138.709H151.046V129.601H151.937V138.709Z" fill="#EAB726"/>
<path d="M153.83 138.709H152.94V129.601H153.83V138.709Z" fill="#EAB726"/>
<path d="M155.66 138.709H154.769V129.601H155.66V138.709Z" fill="#EAB726"/>
<path d="M157.036 129.636V138.681C156.927 138.701 156.815 138.712 156.702 138.712H156.145V129.605H156.702C156.815 129.605 156.927 129.616 157.036 129.636Z" fill="#EAB726"/>
<path d="M158.271 130.478V137.836C158.056 138.17 157.747 138.431 157.383 138.578V129.736C157.744 129.884 158.056 130.144 158.271 130.478Z" fill="#EAB726"/>
<path d="M150.225 122.477V127.621C150.225 128.031 150.104 128.411 149.9 128.728C149.684 129.062 149.375 129.322 149.012 129.47C148.9 129.515 148.784 129.549 148.664 129.571C148.555 129.591 148.444 129.603 148.33 129.603H70.0377C69.029 129.603 68.1975 128.765 68.1452 127.723C68.1452 127.689 68.1429 127.655 68.1429 127.621V122.477C68.1429 122.443 68.1429 122.409 68.1452 122.375C68.1975 121.33 69.029 120.495 70.0377 120.495H148.33C148.38 120.495 148.43 120.498 148.48 120.501C148.5 120.501 148.523 120.504 148.544 120.506C148.566 120.509 148.591 120.512 148.614 120.518C148.63 120.521 148.648 120.523 148.664 120.526C148.784 120.549 148.9 120.583 149.012 120.628C149.028 120.634 149.043 120.642 149.062 120.648C149.077 120.654 149.093 120.662 149.109 120.671C149.141 120.685 149.173 120.702 149.205 120.719C149.223 120.727 149.241 120.739 149.259 120.75C149.275 120.761 149.291 120.77 149.307 120.778C149.336 120.798 149.366 120.818 149.396 120.838C149.43 120.86 149.461 120.886 149.493 120.914C149.518 120.934 149.543 120.954 149.566 120.976C149.568 120.976 149.568 120.979 149.571 120.982C149.586 120.996 149.602 121.01 149.618 121.027C149.666 121.073 149.711 121.124 149.755 121.175C149.768 121.189 149.782 121.206 149.793 121.22C149.805 121.234 149.818 121.251 149.829 121.268C149.854 121.302 149.877 121.336 149.9 121.37C150.107 121.687 150.225 122.066 150.225 122.477Z" fill="#FFEB4D"/>
<path d="M111.78 129.603H69.8356C68.9336 129.603 68.193 128.765 68.1476 127.723C68.1476 127.689 68.1453 127.655 68.1453 127.621V122.477C68.1453 122.443 68.1453 122.409 68.1476 122.375C68.193 121.33 68.9359 120.495 69.8356 120.495H106.627C106.643 120.569 106.661 120.645 106.679 120.719C107.293 123.38 108.672 126.958 111.78 129.603Z" fill="#EAB726"/>
<path d="M140.698 129.6H139.807V120.493H140.698V129.6Z" fill="#EAB726"/>
<path d="M137.686 129.6H136.795V120.493H137.686V129.6Z" fill="#EAB726"/>
<path d="M134.075 129.6H133.184V120.493H134.075V129.6Z" fill="#EAB726"/>
<path d="M128.538 129.6H127.648V120.493H128.538V129.6Z" fill="#EAB726"/>
<path d="M122.684 129.6H121.793V120.493H122.684V129.6Z" fill="#EAB726"/>
<path d="M113.707 129.6H112.816V120.493H113.707V129.6Z" fill="#EAB726"/>
<path d="M105.303 129.6H104.413V120.493H105.303V129.6Z" fill="#EAB726"/>
<path d="M97.7997 129.6H96.9091V120.493H97.7997V129.6Z" fill="#EAB726"/>
<path d="M143.565 129.6H142.675V120.493H143.565V129.6Z" fill="#EAB726"/>
<path d="M145.461 129.6H144.57V120.493H145.461V129.6Z" fill="#EAB726"/>
<path d="M147.29 129.6H146.4V120.493H147.29V129.6Z" fill="#EAB726"/>
<path d="M148.664 120.527V129.573C148.555 129.592 148.444 129.604 148.33 129.604H147.773V120.496H148.33C148.444 120.496 148.555 120.505 148.664 120.527Z" fill="#EAB726"/>
<path d="M149.9 121.372V128.73C149.684 129.064 149.375 129.324 149.011 129.471V120.63C149.375 120.777 149.684 121.038 149.9 121.372Z" fill="#EAB726"/>
<path d="M154.271 113.593V118.737C154.271 119.148 154.15 119.527 153.946 119.844C153.73 120.178 153.421 120.438 153.057 120.586C152.946 120.631 152.83 120.665 152.71 120.688C152.601 120.707 152.489 120.719 152.376 120.719H74.0836C73.7701 120.719 73.4724 120.637 73.2111 120.495C72.6568 120.192 72.2615 119.609 72.1979 118.93C72.1956 118.901 72.1933 118.87 72.1911 118.842C72.1911 118.808 72.1888 118.774 72.1888 118.74V113.596C72.1888 113.562 72.1888 113.528 72.1911 113.494C72.2433 112.452 73.0749 111.614 74.0836 111.614H152.376C152.489 111.614 152.601 111.625 152.71 111.645C152.83 111.668 152.946 111.702 153.057 111.747C153.421 111.894 153.73 112.155 153.946 112.489C154.15 112.803 154.271 113.182 154.271 113.593Z" fill="#FFEB4D"/>
<path d="M115.823 120.719H73.8792C73.5975 120.719 73.3339 120.637 73.0999 120.495C72.6046 120.192 72.2525 119.609 72.1957 118.93C72.1934 118.901 72.1911 118.87 72.1889 118.842C72.1889 118.808 72.1866 118.774 72.1866 118.74V113.596C72.1866 113.562 72.1866 113.528 72.1889 113.494C72.2343 112.452 72.9772 111.614 73.8769 111.614H110.67C111.243 114.221 112.554 117.803 115.564 120.498C115.651 120.569 115.737 120.645 115.823 120.719Z" fill="#EAB726"/>
<path d="M144.744 120.717H143.854V111.61H144.744V120.717Z" fill="#EAB726"/>
<path d="M141.733 120.717H140.842V111.61H141.733V120.717Z" fill="#EAB726"/>
<path d="M138.119 120.717H137.228V111.61H138.119V120.717Z" fill="#EAB726"/>
<path d="M132.582 120.717H131.692V111.61H132.582V120.717Z" fill="#EAB726"/>
<path d="M126.728 120.717H125.837V111.61H126.728V120.717Z" fill="#EAB726"/>
<path d="M117.753 120.717H116.862V111.61H117.753V120.717Z" fill="#EAB726"/>
<path d="M109.35 120.717H108.459V111.61H109.35V120.717Z" fill="#EAB726"/>
<path d="M101.846 120.717H100.955V111.61H101.846V120.717Z" fill="#EAB726"/>
<path d="M147.611 120.717H146.721V111.61H147.611V120.717Z" fill="#EAB726"/>
<path d="M151.334 120.717H150.444V111.61H151.334V120.717Z" fill="#EAB726"/>
<path d="M152.71 111.644V120.689C152.601 120.709 152.489 120.72 152.376 120.72H151.819V111.613H152.376C152.489 111.613 152.601 111.624 152.71 111.644Z" fill="#EAB726"/>
<path d="M153.946 112.489V119.846C153.73 120.181 153.421 120.441 153.057 120.588V111.747C153.418 111.894 153.73 112.155 153.946 112.489Z" fill="#EAB726"/>
<path d="M156.145 104.485V109.629C156.145 110.039 156.025 110.419 155.82 110.736C155.604 111.07 155.295 111.33 154.932 111.477C154.821 111.523 154.705 111.557 154.584 111.579C154.475 111.599 154.364 111.611 154.25 111.611H75.9581C74.9494 111.611 74.1179 110.773 74.0656 109.731C74.0656 109.697 74.0633 109.663 74.0633 109.629V104.485C74.0633 104.451 74.0633 104.417 74.0656 104.383C74.1133 103.418 74.829 102.631 75.7332 102.517C75.8059 102.509 75.8809 102.503 75.9581 102.503H154.25C154.364 102.503 154.475 102.514 154.584 102.534C154.705 102.557 154.821 102.591 154.932 102.636C155.295 102.783 155.604 103.044 155.82 103.378C156.025 103.695 156.145 104.074 156.145 104.485Z" fill="#FFEB4D"/>
<path d="M117.7 111.611H75.7559C74.8562 111.611 74.1133 110.773 74.0678 109.731C74.0678 109.697 74.0656 109.663 74.0656 109.629V104.485C74.0656 104.451 74.0656 104.417 74.0678 104.383C74.1087 103.418 74.7494 102.631 75.5559 102.517C75.6218 102.509 75.6877 102.503 75.7559 102.503H112.549C112.549 102.509 112.552 102.514 112.552 102.517C113.142 105.195 114.51 108.896 117.7 111.611Z" fill="#EAB726"/>
<path d="M146.618 111.608H145.728V102.501H146.618V111.608Z" fill="#EAB726"/>
<path d="M143.607 111.608H142.716V102.501H143.607V111.608Z" fill="#EAB726"/>
<path d="M139.996 111.608H139.105V102.501H139.996V111.608Z" fill="#EAB726"/>
<path d="M134.459 111.608H133.568V102.501H134.459V111.608Z" fill="#EAB726"/>
<path d="M128.604 111.608H127.714V102.501H128.604V111.608Z" fill="#EAB726"/>
<path d="M119.627 111.608H118.737V102.501H119.627V111.608Z" fill="#EAB726"/>
<path d="M111.224 111.608H110.333V102.501H111.224V111.608Z" fill="#EAB726"/>
<path d="M103.72 111.608H102.83V102.501H103.72V111.608Z" fill="#EAB726"/>
<path d="M151.381 111.608H150.491V102.501H151.381V111.608Z" fill="#EAB726"/>
<path d="M154.584 102.536V111.581C154.475 111.601 154.364 111.612 154.25 111.612H153.694V102.504H154.25C154.366 102.502 154.475 102.513 154.584 102.536Z" fill="#EAB726"/>
<path d="M155.82 103.38V110.738C155.604 111.072 155.295 111.332 154.932 111.479V102.638C155.295 102.785 155.604 103.046 155.82 103.38Z" fill="#EAB726"/>
<path d="M150.388 95.3918V100.536C150.388 100.946 150.268 101.326 150.063 101.643C149.847 101.977 149.538 102.237 149.175 102.385C149.064 102.43 148.948 102.464 148.827 102.486C148.791 102.492 148.755 102.501 148.718 102.503C148.698 102.506 148.677 102.509 148.657 102.509C148.636 102.512 148.616 102.512 148.596 102.515C148.562 102.518 148.527 102.518 148.496 102.518H70.2033C69.1946 102.518 68.3631 101.68 68.3108 100.638C68.3085 100.604 68.3085 100.57 68.3085 100.536V95.3918C68.3085 95.3578 68.3085 95.3239 68.3108 95.2899C68.3108 95.2616 68.3131 95.2333 68.3154 95.2078C68.3903 94.3698 68.9719 93.6762 69.7353 93.4723C69.7535 93.4667 69.7739 93.461 69.7921 93.4582C69.9239 93.4271 70.0602 93.4101 70.201 93.4101H148.496C148.552 93.4101 148.609 93.4129 148.666 93.4186C148.691 93.4214 148.716 93.4242 148.741 93.4271C148.771 93.4327 148.8 93.4384 148.83 93.4412C148.95 93.4639 149.066 93.4978 149.177 93.5431C149.541 93.6903 149.85 93.9508 150.066 94.2849C150.27 94.602 150.388 94.9813 150.388 95.3918Z" fill="#FFEB4D"/>
<path d="M111.943 102.519H69.9988C69.0991 102.519 68.3562 101.681 68.3108 100.639C68.3085 100.605 68.3085 100.571 68.3085 100.538V95.3935C68.3085 95.3595 68.3085 95.3256 68.3108 95.2916C68.3108 95.2633 68.3131 95.235 68.3153 95.2095C68.3835 94.3517 68.9242 93.6468 69.6262 93.4628C69.6512 93.4543 69.6739 93.4486 69.6989 93.4457C69.7966 93.4259 69.8966 93.4146 69.9988 93.4146H106.792C106.797 93.4373 106.801 93.4571 106.806 93.4797C107.399 96.1522 108.769 99.8128 111.925 102.508C111.931 102.508 111.938 102.514 111.943 102.519Z" fill="#EAB726"/>
<path d="M140.863 102.516H139.973V93.4079H140.863V102.516Z" fill="#EAB726"/>
<path d="M137.853 102.516H136.962V93.4079H137.853V102.516Z" fill="#EAB726"/>
<path d="M134.238 102.516H133.348V93.4079H134.238V102.516Z" fill="#EAB726"/>
<path d="M128.702 102.516H127.811V93.4079H128.702V102.516Z" fill="#EAB726"/>
<path d="M122.847 102.516H121.956V93.4079H122.847V102.516Z" fill="#EAB726"/>
<path d="M113.873 102.516H112.982V93.4079H113.873V102.516Z" fill="#EAB726"/>
<path d="M105.469 102.516H104.579V93.4079H105.469V102.516Z" fill="#EAB726"/>
<path d="M97.9653 102.516H97.0747V93.4079H97.9653V102.516Z" fill="#EAB726"/>
<path d="M145.624 102.516H144.734V93.4079H145.624V102.516Z" fill="#EAB726"/>
<path d="M148.83 93.4402V102.485C148.721 102.505 148.609 102.517 148.496 102.517H147.939V93.4091H148.496C148.609 93.4062 148.721 93.4175 148.83 93.4402Z" fill="#EAB726"/>
<path d="M150.519 86.2955V91.7668C150.519 92.2034 150.398 92.6069 150.193 92.9442C149.976 93.2995 149.666 93.5765 149.301 93.7331C149.215 93.7723 149.123 93.8024 149.03 93.8235H149.028C149.003 93.8295 148.978 93.8355 148.952 93.8415C148.843 93.8626 148.731 93.8746 148.617 93.8746H70.0443C69.9623 93.8746 69.8779 93.8686 69.7981 93.8566C69.7662 93.8536 69.7343 93.8475 69.7046 93.8415C68.8496 93.6699 68.1907 92.8599 68.1451 91.8753C68.1451 91.8391 68.1428 91.8029 68.1428 91.7668V86.2955C68.1428 86.2594 68.1428 86.2232 68.1451 86.1871C68.1975 85.079 69.032 84.1877 70.0443 84.1877H148.617C148.667 84.1877 148.718 84.1907 148.768 84.1937C148.788 84.1967 148.811 84.1997 148.832 84.1997C148.854 84.2028 148.879 84.2057 148.902 84.2087C148.918 84.2118 148.936 84.2148 148.952 84.2178C149.073 84.2419 149.19 84.278 149.301 84.3262C149.317 84.3322 149.333 84.3413 149.351 84.3473C149.367 84.3533 149.383 84.3623 149.399 84.3714C149.431 84.3864 149.463 84.4045 149.495 84.4226C149.529 84.4436 149.564 84.4647 149.598 84.4888C149.627 84.5099 149.657 84.5279 149.687 84.552C149.721 84.5761 149.753 84.6032 149.785 84.6333C149.81 84.6544 149.835 84.6755 149.858 84.6996C149.86 84.6996 149.86 84.7026 149.862 84.7056C149.878 84.7207 149.894 84.7357 149.91 84.7538C149.958 84.802 150.004 84.8562 150.047 84.9104C150.061 84.9254 150.074 84.9435 150.086 84.9585C150.097 84.9766 150.111 84.9917 150.122 85.0097C150.147 85.0459 150.17 85.082 150.193 85.1181C150.4 85.4554 150.519 85.8619 150.519 86.2955Z" fill="#FFEB4D"/>
<path d="M111.754 93.8746H69.8343C69.8003 93.8746 69.7685 93.8747 69.7344 93.8717C69.6981 93.8687 69.6618 93.8656 69.6255 93.8596C68.8194 93.7362 68.1859 92.8991 68.145 91.8753C68.145 91.8391 68.1428 91.8029 68.1428 91.7668V86.2955C68.1428 86.2594 68.1428 86.2232 68.145 86.1871C68.1905 85.079 68.9329 84.1877 69.8321 84.1877H106.602C106.618 84.266 106.636 84.3473 106.654 84.4256C107.262 87.232 108.625 90.999 111.676 93.8054C111.704 93.8295 111.729 93.8536 111.754 93.8746Z" fill="#EAB726"/>
<path d="M141.333 93.8753H140.382V84.3678H141.333V93.8753Z" fill="#EAB726"/>
<path d="M138.117 93.8753H137.165V84.3678H138.117V93.8753Z" fill="#EAB726"/>
<path d="M134.259 93.8753H133.308V84.3678H134.259V93.8753Z" fill="#EAB726"/>
<path d="M128.347 93.8753H127.396V84.3678H128.347V93.8753Z" fill="#EAB726"/>
<path d="M122.094 93.8753H121.143V84.3678H122.094V93.8753Z" fill="#EAB726"/>
<path d="M112.507 93.8753H111.556V84.3678H112.507V93.8753Z" fill="#EAB726"/>
<path d="M105.303 93.2682H104.413V84.3661H105.303V93.2682Z" fill="#EAB726"/>
<path d="M97.7997 93.2682H96.9091V84.3661H97.7997V93.2682Z" fill="#EAB726"/>
<path d="M146.42 93.8753H145.469V84.3678H146.42V93.8753Z" fill="#EAB726"/>
<path d="M149.841 84.4V93.8425C149.724 93.8632 149.606 93.875 149.484 93.875H148.89V84.3675H149.484C149.606 84.3645 149.724 84.3763 149.841 84.4Z" fill="#EAB726"/>
<path d="M154.271 77.4669V82.611C154.271 83.0215 154.15 83.4008 153.946 83.7179C153.73 84.052 153.421 84.3124 153.057 84.4597C152.946 84.505 152.83 84.5389 152.71 84.5616C152.601 84.5814 152.489 84.5927 152.376 84.5927H74.0836C73.7701 84.5927 73.4724 84.5106 73.2111 84.3691C72.6568 84.0662 72.2615 83.4829 72.1979 82.8007C72.1956 82.7723 72.1933 82.7412 72.1911 82.7129C72.1911 82.6789 72.1888 82.6449 72.1888 82.611V77.4669C72.1888 77.433 72.1888 77.399 72.1911 77.365C72.2433 76.3232 73.0749 75.4852 74.0836 75.4852H152.376C152.489 75.4852 152.601 75.4965 152.71 75.5163C152.83 75.539 152.946 75.573 153.057 75.6183C153.421 75.7655 153.73 76.0259 153.946 76.36C154.15 76.6742 154.271 77.0564 154.271 77.4669Z" fill="#FFEB4D"/>
<path d="M115.994 84.795H73.4922C73.2067 84.795 72.9397 84.7077 72.7025 84.5571C72.2007 84.2349 71.8439 83.6146 71.7863 82.8889C71.784 82.8588 71.7817 82.8257 71.7794 82.7956C71.7794 82.7595 71.7771 82.7233 71.7771 82.6872V77.2158C71.7771 77.1797 71.7771 77.1436 71.7794 77.1074C71.8254 75.9993 72.5782 75.108 73.4899 75.108H110.772C111.353 77.8813 112.681 81.6905 115.731 84.5571C115.819 84.6354 115.906 84.7137 115.994 84.795Z" fill="#EAB726"/>
<path d="M144.745 84.5904H143.854V75.483H144.745V84.5904Z" fill="#EAB726"/>
<path d="M141.733 84.5904H140.843V75.483H141.733V84.5904Z" fill="#EAB726"/>
<path d="M138.119 84.5904H137.228V75.483H138.119V84.5904Z" fill="#EAB726"/>
<path d="M132.583 84.5904H131.692V75.483H132.583V84.5904Z" fill="#EAB726"/>
<path d="M126.728 84.5904H125.838V75.483H126.728V84.5904Z" fill="#EAB726"/>
<path d="M117.754 84.5904H116.863V75.483H117.754V84.5904Z" fill="#EAB726"/>
<path d="M109.35 84.5904H108.46V75.483H109.35V84.5904Z" fill="#EAB726"/>
<path d="M101.846 84.5904H100.955V75.483H101.846V84.5904Z" fill="#EAB726"/>
<path d="M149.505 84.5904H148.615V75.483H149.505V84.5904Z" fill="#EAB726"/>
<path d="M152.71 75.5165V84.5616C152.601 84.5814 152.49 84.5928 152.376 84.5928H151.819V75.4854H152.376C152.49 75.4826 152.601 75.4939 152.71 75.5165Z" fill="#EAB726"/>
<path d="M159.51 68.5566V73.5554C159.51 73.9543 159.393 74.3229 159.194 74.6311C158.984 74.9557 158.684 75.2088 158.331 75.3518C158.223 75.3959 158.11 75.4289 157.993 75.4509C157.887 75.4701 157.779 75.4811 157.668 75.4811H81.587C80.6068 75.4811 79.7987 74.6668 79.748 73.6544C79.748 73.6214 79.7458 73.5884 79.7458 73.5554V68.5566C79.7458 68.5236 79.7458 68.4906 79.748 68.4576C79.7943 67.5195 80.4876 66.7547 81.3685 66.6447C81.4391 66.6364 81.512 66.6309 81.587 66.6309H157.668C157.779 66.6309 157.887 66.6419 157.993 66.6611C158.11 66.6832 158.223 66.7162 158.331 66.7602C158.684 66.9032 158.984 67.1564 159.194 67.481C159.393 67.7891 159.51 68.1605 159.51 68.5566Z" fill="#FFEB4D"/>
<path d="M122.074 75.7383H80.1299C79.2303 75.7383 78.4874 74.9003 78.4419 73.8585C78.4419 73.8245 78.4397 73.7906 78.4397 73.7566V68.6126C78.4397 68.5786 78.4397 68.5447 78.4419 68.5107C78.4828 67.5453 79.1235 66.7583 79.93 66.6451C79.9959 66.6366 80.0618 66.6309 80.1299 66.6309H116.924C116.924 66.6366 116.926 66.6394 116.926 66.6451C117.514 69.326 118.884 73.0262 122.074 75.7383Z" fill="#EAB726"/>
<path d="M151.141 75.4839H150.25V66.3764H151.141V75.4839Z" fill="#EAB726"/>
<path d="M148.129 75.4839H147.239V66.3764H148.129V75.4839Z" fill="#EAB726"/>
<path d="M144.518 75.4839H143.628V66.3764H144.518V75.4839Z" fill="#EAB726"/>
<path d="M138.981 75.4839H138.091V66.3764H138.981V75.4839Z" fill="#EAB726"/>
<path d="M133.127 75.4839H132.237V66.3764H133.127V75.4839Z" fill="#EAB726"/>
<path d="M124.152 75.4839H123.261V66.3764H124.152V75.4839Z" fill="#EAB726"/>
<path d="M115.748 75.4839H114.858V66.3764H115.748V75.4839Z" fill="#EAB726"/>
<path d="M108.245 75.4839H107.354V66.3764H108.245V75.4839Z" fill="#EAB726"/>
<path d="M155.904 75.4839H155.013V66.3764H155.904V75.4839Z" fill="#EAB726"/>
<path d="M159.108 66.4054V75.4506C158.999 75.4704 158.888 75.4817 158.774 75.4817H158.217V66.3742H158.774C158.888 66.3742 158.999 66.3856 159.108 66.4054Z" fill="#EAB726"/>
<path d="M151.483 59.3158V64.5971C151.483 65.0186 151.36 65.4081 151.15 65.7336C150.928 66.0766 150.611 66.344 150.238 66.4952C150.123 66.5417 150.004 66.5765 149.881 66.5998C149.843 66.6056 149.806 66.6143 149.769 66.6172C149.738 66.623 149.708 66.623 149.678 66.6259C149.664 66.6259 149.647 66.6288 149.633 66.6288C149.603 66.6288 149.57 66.6318 149.538 66.6318H69.1566C68.1209 66.6318 67.2672 65.7714 67.2136 64.7018C67.2113 64.6669 67.2113 64.632 67.2113 64.5971V59.3158C67.2113 59.2809 67.2113 59.2461 67.2136 59.2112C67.2672 58.1415 68.1209 57.2812 69.1566 57.2812H149.54C149.575 57.2812 149.608 57.2812 149.643 57.2841C149.724 57.287 149.804 57.2986 149.883 57.3132C150.007 57.3364 150.126 57.3713 150.24 57.4178C150.298 57.441 150.354 57.4672 150.408 57.4963C150.443 57.5137 150.475 57.5312 150.508 57.5515C150.51 57.5515 150.515 57.5544 150.52 57.5573C150.552 57.5777 150.585 57.598 150.618 57.6213C150.625 57.6242 150.629 57.63 150.634 57.6329C150.664 57.6533 150.692 57.6765 150.72 57.6998C150.788 57.755 150.853 57.8131 150.914 57.8771C150.933 57.8974 150.951 57.9177 150.97 57.9381C150.972 57.941 150.977 57.9439 150.979 57.9497C150.991 57.9613 151.003 57.973 151.012 57.9875C151.014 57.9904 151.017 57.9933 151.019 57.9962C151.038 58.0195 151.059 58.0456 151.075 58.0718C151.103 58.1067 151.129 58.1444 151.152 58.1822C151.362 58.5049 151.483 58.8973 151.483 59.3158Z" fill="#FFEB4D"/>
<path d="M112.525 66.7129H68.6973C67.7573 66.7129 66.981 65.8373 66.9335 64.7487C66.9312 64.7132 66.9311 64.6777 66.9311 64.6422V59.2671C66.9311 59.2316 66.9312 59.1961 66.9335 59.1606C66.981 58.072 67.7573 57.1964 68.6973 57.1964H107.143C107.157 57.2674 107.174 57.3413 107.193 57.4153C107.832 60.193 109.268 63.9322 112.508 66.6981C112.513 66.704 112.52 66.71 112.525 66.7129Z" fill="#EAB726"/>
<path d="M141.338 66.63H140.424V57.2814H141.338V66.63Z" fill="#EAB726"/>
<path d="M138.247 66.63H137.333V57.2814H138.247V66.63Z" fill="#EAB726"/>
<path d="M134.537 66.63H133.623V57.2814H134.537V66.63Z" fill="#EAB726"/>
<path d="M128.854 66.63H127.94V57.2814H128.854V66.63Z" fill="#EAB726"/>
<path d="M122.845 66.63H121.931V57.2814H122.845V66.63Z" fill="#EAB726"/>
<path d="M113.633 66.63H112.719V57.2814H113.633V66.63Z" fill="#EAB726"/>
<path d="M105.007 66.63H104.092V57.2814H105.007V66.63Z" fill="#EAB726"/>
<path d="M97.3038 66.63H96.3896V57.2814H97.3038V66.63Z" fill="#EAB726"/>
<path d="M146.225 66.63H145.311V57.2814H146.225V66.63Z" fill="#EAB726"/>
<path d="M149.515 57.3132V66.5979C149.403 66.6182 149.289 66.6299 149.172 66.6299H148.601V57.2812H149.172C149.289 57.2812 149.403 57.2928 149.515 57.3132Z" fill="#EAB726"/>
<path d="M156.145 50.3685V55.5125C156.145 55.923 156.025 56.3024 155.82 56.6195C155.604 56.9536 155.295 57.214 154.932 57.3612C154.821 57.4065 154.705 57.4405 154.584 57.4632C154.475 57.483 154.364 57.4943 154.25 57.4943H75.9582C75.6537 57.4943 75.3674 57.4179 75.113 57.2848C74.5427 56.9847 74.1338 56.3902 74.0725 55.6966C74.0702 55.6711 74.0679 55.6428 74.0679 55.6145C74.0679 55.5805 74.0656 55.5465 74.0656 55.5125V50.3685C74.0656 50.3345 74.0656 50.3005 74.0679 50.2666C74.1156 49.3012 74.8313 48.5141 75.7355 48.4009C75.8082 48.3924 75.8832 48.3867 75.9604 48.3867H154.253C154.366 48.3867 154.478 48.3981 154.587 48.4179C154.707 48.4405 154.823 48.4745 154.934 48.5198C155.298 48.667 155.607 48.9275 155.823 49.2615C156.025 49.5758 156.145 49.958 156.145 50.3685Z" fill="#FFEB4D"/>
<path d="M117.7 57.4898H75.7559C75.4855 57.4898 75.2288 57.4134 75.0016 57.2803C74.4904 56.9802 74.1292 56.3857 74.0724 55.6921C74.0701 55.6666 74.0678 55.6383 74.0678 55.61C74.0678 55.576 74.0656 55.542 74.0656 55.5081V50.3641C74.0656 50.3301 74.0656 50.2961 74.0678 50.2622C74.1087 49.2968 74.7494 48.5097 75.5559 48.3965C75.6218 48.388 75.6877 48.3824 75.7559 48.3824H112.549C112.549 48.388 112.552 48.3937 112.552 48.3965C113.127 51.0067 114.442 54.588 117.459 57.2803C117.536 57.3511 117.618 57.4218 117.7 57.4898Z" fill="#EAB726"/>
<path d="M146.618 57.491H145.728V48.3835H146.618V57.491Z" fill="#EAB726"/>
<path d="M143.607 57.491H142.716V48.3835H143.607V57.491Z" fill="#EAB726"/>
<path d="M139.996 57.491H139.105V48.3835H139.996V57.491Z" fill="#EAB726"/>
<path d="M134.459 57.491H133.568V48.3835H134.459V57.491Z" fill="#EAB726"/>
<path d="M128.604 57.491H127.714V48.3835H128.604V57.491Z" fill="#EAB726"/>
<path d="M119.627 57.491H118.737V48.3835H119.627V57.491Z" fill="#EAB726"/>
<path d="M111.224 57.491H110.333V48.3835H111.224V57.491Z" fill="#EAB726"/>
<path d="M103.72 57.491H102.83V48.3835H103.72V57.491Z" fill="#EAB726"/>
<path d="M149.486 57.491H148.595V48.3835H149.486V57.491Z" fill="#EAB726"/>
<path d="M151.381 57.491H150.491V48.3835H151.381V57.491Z" fill="#EAB726"/>
<path d="M153.208 57.491H152.318V48.3835H153.208V57.491Z" fill="#EAB726"/>
<path d="M154.584 48.4135V57.4588C154.475 57.4786 154.364 57.4899 154.25 57.4899H153.694V48.3824H154.25C154.366 48.3824 154.475 48.3937 154.584 48.4135Z" fill="#EAB726"/>
<path d="M155.82 49.2602V56.6181C155.604 56.9522 155.295 57.2126 154.932 57.3599V48.5185C155.295 48.6629 155.604 48.9262 155.82 49.2602Z" fill="#EAB726"/>
<path d="M158.597 41.271V46.415C158.597 46.8255 158.476 47.2049 158.272 47.522C158.056 47.8561 157.747 48.1165 157.383 48.2637C157.272 48.309 157.156 48.343 157.036 48.3656C157 48.3713 156.963 48.3798 156.927 48.3826C156.906 48.3855 156.886 48.3883 156.866 48.3883C156.845 48.3911 156.825 48.3911 156.804 48.3939C156.77 48.3968 156.736 48.3968 156.704 48.3968H78.4119C77.4031 48.3968 76.5716 47.5588 76.5194 46.517C76.5194 46.483 76.5171 46.449 76.5171 46.415V41.271C76.5171 41.2371 76.5171 41.2031 76.5194 41.1691C76.5716 40.1273 77.4031 39.2893 78.4119 39.2893H156.704C156.818 39.2893 156.929 39.3006 157.038 39.3204C157.159 39.3431 157.274 39.3771 157.386 39.4224C157.749 39.5696 158.058 39.83 158.274 40.1641C158.476 40.4812 158.597 40.8634 158.597 41.271Z" fill="#FFEB4D"/>
<path d="M120.149 48.3968H78.2047C77.305 48.3968 76.5621 47.5588 76.5166 46.517C76.5166 46.483 76.5144 46.449 76.5144 46.415V41.271C76.5144 41.2371 76.5144 41.2031 76.5166 41.1691C76.5621 40.1273 77.305 39.2893 78.2047 39.2893H114.998C115.584 41.9675 116.95 45.6648 120.133 48.3826C120.137 48.3883 120.144 48.3939 120.149 48.3968Z" fill="#EAB726"/>
<path d="M149.07 48.3979H148.179V39.2904H149.07V48.3979Z" fill="#FF9F00"/>
<path d="M146.059 48.3979H145.168V39.2904H146.059V48.3979Z" fill="#FF9F00"/>
<path d="M142.444 48.3979H141.554V39.2904H142.444V48.3979Z" fill="#FF9F00"/>
<path d="M136.908 48.3979H136.017V39.2904H136.908V48.3979Z" fill="#EAB726"/>
<path d="M131.053 48.3979H130.163V39.2904H131.053V48.3979Z" fill="#EAB726"/>
<path d="M122.079 48.3979H121.188V39.2904H122.079V48.3979Z" fill="#EAB726"/>
<path d="M113.676 48.3979H112.785V39.2904H113.676V48.3979Z" fill="#EAB726"/>
<path d="M105.278 39.2893H106.169V48.3968H105.278V39.2893Z" fill="#EAB726"/>
<path d="M151.937 48.3979H151.047V39.2904H151.937V48.3979Z" fill="#EAB726"/>
<path d="M153.83 48.3979H152.94V39.2904H153.83V48.3979Z" fill="#EAB726"/>
<path d="M157.036 39.3204V48.3656C156.926 48.3855 156.815 48.3968 156.702 48.3968H156.145V39.2893H156.702C156.815 39.2893 156.926 39.3006 157.036 39.3204Z" fill="#EAB726"/>
<g clip-path="url(#clip0)">
<path d="M154.977 138.711C174.32 138.711 190 123.03 190 103.687C190 84.3442 174.32 68.6637 154.977 68.6637C135.634 68.6637 119.953 84.3442 119.953 103.687C119.953 123.03 135.634 138.711 154.977 138.711Z" fill="#46E6AD"/>
<path d="M190 103.687C190 122.95 174.24 138.71 154.977 138.71C143.813 138.71 133.963 133.676 127.615 125.577C133.525 130.392 141.186 133.238 149.504 133.238C168.767 133.238 184.528 117.477 184.528 98.2145C184.528 89.8965 181.682 82.2351 176.866 76.325C184.966 82.6727 190 92.523 190 103.687Z" fill="#33BC8C"/>
<path d="M174.021 93.6192L151.255 118.573C149.723 120.325 147.096 120.325 145.564 118.573L135.933 107.847C134.619 106.315 134.619 103.907 136.151 102.375C137.684 101.062 140.092 101.062 141.624 102.594L148.41 110.255L168.329 88.5846C169.862 87.0522 172.269 86.8334 173.802 88.3657C175.334 89.679 175.334 92.3058 174.021 93.6192Z" fill="white"/>
</g>
<path d="M50.3877 156H196.27C199.78 156 202.658 158.8 202.658 162.343V174.971C202.658 178.457 199.838 181.314 196.27 181.314H50.3877C46.8774 181.314 44 178.514 44 174.971V162.343C44 158.8 46.8774 156 50.3877 156Z" fill="#F9ED78"/>
<path d="M82.0158 173.715V171.01C82.0158 170.86 82.0191 170.715 82.0258 170.575C82.0324 170.432 82.0408 170.288 82.0508 170.145C82.0608 169.998 82.0724 169.848 82.0858 169.695C82.1024 169.542 82.1208 169.378 82.1408 169.205H82.7408C82.7608 169.378 82.7774 169.542 82.7908 169.695C82.8074 169.848 82.8208 169.998 82.8308 170.145C82.8408 170.288 82.8491 170.432 82.8558 170.575C82.8624 170.715 82.8658 170.86 82.8658 171.01V173.715H82.0158ZM81.8008 167.48C81.8008 167.39 81.8158 167.308 81.8458 167.235C81.8791 167.158 81.9241 167.092 81.9808 167.035C82.0374 166.978 82.1024 166.935 82.1758 166.905C82.2524 166.872 82.3358 166.855 82.4258 166.855C82.5124 166.855 82.5924 166.872 82.6658 166.905C82.7424 166.935 82.8091 166.978 82.8658 167.035C82.9224 167.092 82.9674 167.158 83.0008 167.235C83.0341 167.308 83.0508 167.39 83.0508 167.48C83.0508 167.567 83.0341 167.648 83.0008 167.725C82.9674 167.802 82.9224 167.868 82.8658 167.925C82.8091 167.982 82.7424 168.027 82.6658 168.06C82.5924 168.093 82.5124 168.11 82.4258 168.11C82.3358 168.11 82.2524 168.093 82.1758 168.06C82.1024 168.027 82.0374 167.982 81.9808 167.925C81.9241 167.868 81.8791 167.802 81.8458 167.725C81.8158 167.648 81.8008 167.567 81.8008 167.48ZM91.2303 168.42C91.2303 168.957 91.1453 169.45 90.9753 169.9C90.8053 170.347 90.5653 170.732 90.2553 171.055C89.9453 171.378 89.572 171.63 89.1353 171.81C88.702 171.987 88.222 172.075 87.6953 172.075C87.1686 172.075 86.6886 171.987 86.2553 171.81C85.822 171.63 85.4503 171.378 85.1403 171.055C84.8303 170.732 84.5903 170.347 84.4203 169.9C84.2503 169.45 84.1653 168.957 84.1653 168.42C84.1653 167.883 84.2503 167.392 84.4203 166.945C84.5903 166.495 84.8303 166.108 85.1403 165.785C85.4503 165.458 85.822 165.205 86.2553 165.025C86.6886 164.845 87.1686 164.755 87.6953 164.755C88.222 164.755 88.702 164.845 89.1353 165.025C89.572 165.205 89.9453 165.458 90.2553 165.785C90.5653 166.108 90.8053 166.495 90.9753 166.945C91.1453 167.392 91.2303 167.883 91.2303 168.42ZM90.2353 168.42C90.2353 167.98 90.1753 167.585 90.0553 167.235C89.9353 166.885 89.7653 166.59 89.5453 166.35C89.3253 166.107 89.0586 165.92 88.7453 165.79C88.432 165.66 88.082 165.595 87.6953 165.595C87.312 165.595 86.9636 165.66 86.6503 165.79C86.337 165.92 86.0686 166.107 85.8453 166.35C85.6253 166.59 85.4553 166.885 85.3353 167.235C85.2153 167.585 85.1553 167.98 85.1553 168.42C85.1553 168.86 85.2153 169.255 85.3353 169.605C85.4553 169.952 85.6253 170.247 85.8453 170.49C86.0686 170.73 86.337 170.915 86.6503 171.045C86.9636 171.172 87.312 171.235 87.6953 171.235C88.082 171.235 88.432 171.172 88.7453 171.045C89.0586 170.915 89.3253 170.73 89.5453 170.49C89.7653 170.247 89.9353 169.952 90.0553 169.605C90.1753 169.255 90.2353 168.86 90.2353 168.42ZM93.2055 170.78C93.3688 171 93.5471 171.155 93.7405 171.245C93.9338 171.335 94.1505 171.38 94.3905 171.38C94.8638 171.38 95.2271 171.212 95.4805 170.875C95.7338 170.538 95.8605 170.058 95.8605 169.435C95.8605 169.105 95.8305 168.822 95.7705 168.585C95.7138 168.348 95.6305 168.155 95.5205 168.005C95.4105 167.852 95.2755 167.74 95.1155 167.67C94.9555 167.6 94.7738 167.565 94.5705 167.565C94.2805 167.565 94.0255 167.632 93.8055 167.765C93.5888 167.898 93.3888 168.087 93.2055 168.33V170.78ZM93.1605 167.72C93.3738 167.457 93.6205 167.245 93.9005 167.085C94.1805 166.925 94.5005 166.845 94.8605 166.845C95.1538 166.845 95.4188 166.902 95.6555 167.015C95.8921 167.125 96.0938 167.29 96.2605 167.51C96.4271 167.727 96.5555 167.997 96.6455 168.32C96.7355 168.643 96.7805 169.015 96.7805 169.435C96.7805 169.808 96.7305 170.157 96.6305 170.48C96.5305 170.8 96.3855 171.078 96.1955 171.315C96.0088 171.548 95.7788 171.733 95.5055 171.87C95.2355 172.003 94.9305 172.07 94.5905 172.07C94.2805 172.07 94.0138 172.018 93.7905 171.915C93.5705 171.808 93.3755 171.662 93.2055 171.475V173.715H92.3105V166.935H92.8455C92.9721 166.935 93.0505 166.997 93.0805 167.12L93.1605 167.72ZM101.306 168.915C101.306 168.708 101.276 168.52 101.216 168.35C101.159 168.177 101.074 168.028 100.961 167.905C100.851 167.778 100.716 167.682 100.556 167.615C100.396 167.545 100.214 167.51 100.011 167.51C99.5843 167.51 99.2459 167.635 98.9959 167.885C98.7493 168.132 98.5959 168.475 98.5359 168.915H101.306ZM102.026 171.29C101.916 171.423 101.784 171.54 101.631 171.64C101.478 171.737 101.313 171.817 101.136 171.88C100.963 171.943 100.783 171.99 100.596 172.02C100.409 172.053 100.224 172.07 100.041 172.07C99.6909 172.07 99.3676 172.012 99.0709 171.895C98.7776 171.775 98.5226 171.602 98.3059 171.375C98.0926 171.145 97.9259 170.862 97.8059 170.525C97.6859 170.188 97.6259 169.802 97.6259 169.365C97.6259 169.012 97.6793 168.682 97.7859 168.375C97.8959 168.068 98.0526 167.803 98.2559 167.58C98.4593 167.353 98.7076 167.177 99.0009 167.05C99.2943 166.92 99.6243 166.855 99.9909 166.855C100.294 166.855 100.574 166.907 100.831 167.01C101.091 167.11 101.314 167.257 101.501 167.45C101.691 167.64 101.839 167.877 101.946 168.16C102.053 168.44 102.106 168.76 102.106 169.12C102.106 169.26 102.091 169.353 102.061 169.4C102.031 169.447 101.974 169.47 101.891 169.47H98.5059C98.5159 169.79 98.5593 170.068 98.6359 170.305C98.7159 170.542 98.8259 170.74 98.9659 170.9C99.1059 171.057 99.2726 171.175 99.4659 171.255C99.6593 171.332 99.8759 171.37 100.116 171.37C100.339 171.37 100.531 171.345 100.691 171.295C100.854 171.242 100.994 171.185 101.111 171.125C101.228 171.065 101.324 171.01 101.401 170.96C101.481 170.907 101.549 170.88 101.606 170.88C101.679 170.88 101.736 170.908 101.776 170.965L102.026 171.29ZM104.044 167.95C104.204 167.603 104.401 167.333 104.634 167.14C104.867 166.943 105.152 166.845 105.489 166.845C105.596 166.845 105.697 166.857 105.794 166.88C105.894 166.903 105.982 166.94 106.059 166.99L105.994 167.655C105.974 167.738 105.924 167.78 105.844 167.78C105.797 167.78 105.729 167.77 105.639 167.75C105.549 167.73 105.447 167.72 105.334 167.72C105.174 167.72 105.031 167.743 104.904 167.79C104.781 167.837 104.669 167.907 104.569 168C104.472 168.09 104.384 168.203 104.304 168.34C104.227 168.473 104.157 168.627 104.094 168.8V172H103.199V166.935H103.709C103.806 166.935 103.872 166.953 103.909 166.99C103.946 167.027 103.971 167.09 103.984 167.18L104.044 167.95ZM109.509 169.72C109.099 169.733 108.749 169.767 108.459 169.82C108.172 169.87 107.937 169.937 107.754 170.02C107.574 170.103 107.442 170.202 107.359 170.315C107.279 170.428 107.239 170.555 107.239 170.695C107.239 170.828 107.26 170.943 107.304 171.04C107.347 171.137 107.405 171.217 107.479 171.28C107.555 171.34 107.644 171.385 107.744 171.415C107.847 171.442 107.957 171.455 108.074 171.455C108.23 171.455 108.374 171.44 108.504 171.41C108.634 171.377 108.755 171.33 108.869 171.27C108.985 171.21 109.095 171.138 109.199 171.055C109.305 170.972 109.409 170.877 109.509 170.77V169.72ZM106.634 167.65C106.914 167.38 107.215 167.178 107.539 167.045C107.862 166.912 108.22 166.845 108.614 166.845C108.897 166.845 109.149 166.892 109.369 166.985C109.589 167.078 109.774 167.208 109.924 167.375C110.074 167.542 110.187 167.743 110.264 167.98C110.34 168.217 110.379 168.477 110.379 168.76V172H109.984C109.897 172 109.83 171.987 109.784 171.96C109.737 171.93 109.7 171.873 109.674 171.79L109.574 171.31C109.44 171.433 109.31 171.543 109.184 171.64C109.057 171.733 108.924 171.813 108.784 171.88C108.644 171.943 108.494 171.992 108.334 172.025C108.177 172.062 108.002 172.08 107.809 172.08C107.612 172.08 107.427 172.053 107.254 172C107.08 171.943 106.929 171.86 106.799 171.75C106.672 171.64 106.57 171.502 106.494 171.335C106.42 171.165 106.384 170.965 106.384 170.735C106.384 170.535 106.439 170.343 106.549 170.16C106.659 169.973 106.837 169.808 107.084 169.665C107.33 169.522 107.652 169.405 108.049 169.315C108.445 169.222 108.932 169.168 109.509 169.155V168.76C109.509 168.367 109.424 168.07 109.254 167.87C109.084 167.667 108.835 167.565 108.509 167.565C108.289 167.565 108.104 167.593 107.954 167.65C107.807 167.703 107.679 167.765 107.569 167.835C107.462 167.902 107.369 167.963 107.289 168.02C107.212 168.073 107.135 168.1 107.059 168.1C106.999 168.1 106.947 168.085 106.904 168.055C106.86 168.022 106.824 167.982 106.794 167.935L106.634 167.65ZM115.259 167.835C115.233 167.872 115.206 167.9 115.179 167.92C115.153 167.94 115.116 167.95 115.069 167.95C115.019 167.95 114.964 167.93 114.904 167.89C114.844 167.847 114.769 167.8 114.679 167.75C114.593 167.7 114.484 167.655 114.354 167.615C114.228 167.572 114.071 167.55 113.884 167.55C113.634 167.55 113.414 167.595 113.224 167.685C113.034 167.772 112.874 167.898 112.744 168.065C112.618 168.232 112.521 168.433 112.454 168.67C112.391 168.907 112.359 169.172 112.359 169.465C112.359 169.772 112.394 170.045 112.464 170.285C112.534 170.522 112.633 170.722 112.759 170.885C112.889 171.045 113.044 171.168 113.224 171.255C113.408 171.338 113.613 171.38 113.839 171.38C114.056 171.38 114.234 171.355 114.374 171.305C114.514 171.252 114.629 171.193 114.719 171.13C114.813 171.067 114.889 171.01 114.949 170.96C115.013 170.907 115.074 170.88 115.134 170.88C115.208 170.88 115.264 170.908 115.304 170.965L115.554 171.29C115.444 171.427 115.319 171.543 115.179 171.64C115.039 171.737 114.888 171.818 114.724 171.885C114.564 171.948 114.396 171.995 114.219 172.025C114.043 172.055 113.863 172.07 113.679 172.07C113.363 172.07 113.068 172.012 112.794 171.895C112.524 171.778 112.289 171.61 112.089 171.39C111.889 171.167 111.733 170.893 111.619 170.57C111.506 170.247 111.449 169.878 111.449 169.465C111.449 169.088 111.501 168.74 111.604 168.42C111.711 168.1 111.864 167.825 112.064 167.595C112.268 167.362 112.516 167.18 112.809 167.05C113.106 166.92 113.446 166.855 113.829 166.855C114.186 166.855 114.499 166.913 114.769 167.03C115.043 167.143 115.284 167.305 115.494 167.515L115.259 167.835ZM117.45 166.935V172H116.56V166.935H117.45ZM117.64 165.345C117.64 165.432 117.621 165.513 117.585 165.59C117.551 165.663 117.505 165.73 117.445 165.79C117.388 165.847 117.32 165.892 117.24 165.925C117.163 165.958 117.081 165.975 116.995 165.975C116.908 165.975 116.826 165.958 116.75 165.925C116.676 165.892 116.611 165.847 116.555 165.79C116.498 165.73 116.453 165.663 116.42 165.59C116.386 165.513 116.37 165.432 116.37 165.345C116.37 165.258 116.386 165.177 116.42 165.1C116.453 165.02 116.498 164.952 116.555 164.895C116.611 164.835 116.676 164.788 116.75 164.755C116.826 164.722 116.908 164.705 116.995 164.705C117.081 164.705 117.163 164.722 117.24 164.755C117.32 164.788 117.388 164.835 117.445 164.895C117.505 164.952 117.551 165.02 117.585 165.1C117.621 165.177 117.64 165.258 117.64 165.345ZM121.047 166.855C121.417 166.855 121.75 166.917 122.047 167.04C122.344 167.163 122.597 167.338 122.807 167.565C123.017 167.792 123.177 168.067 123.287 168.39C123.4 168.71 123.457 169.068 123.457 169.465C123.457 169.865 123.4 170.225 123.287 170.545C123.177 170.865 123.017 171.138 122.807 171.365C122.597 171.592 122.344 171.767 122.047 171.89C121.75 172.01 121.417 172.07 121.047 172.07C120.674 172.07 120.337 172.01 120.037 171.89C119.74 171.767 119.487 171.592 119.277 171.365C119.067 171.138 118.905 170.865 118.792 170.545C118.682 170.225 118.627 169.865 118.627 169.465C118.627 169.068 118.682 168.71 118.792 168.39C118.905 168.067 119.067 167.792 119.277 167.565C119.487 167.338 119.74 167.163 120.037 167.04C120.337 166.917 120.674 166.855 121.047 166.855ZM121.047 171.375C121.547 171.375 121.92 171.208 122.167 170.875C122.414 170.538 122.537 170.07 122.537 169.47C122.537 168.867 122.414 168.397 122.167 168.06C121.92 167.723 121.547 167.555 121.047 167.555C120.794 167.555 120.572 167.598 120.382 167.685C120.195 167.772 120.039 167.897 119.912 168.06C119.789 168.223 119.695 168.425 119.632 168.665C119.572 168.902 119.542 169.17 119.542 169.47C119.542 170.07 119.665 170.538 119.912 170.875C120.162 171.208 120.54 171.375 121.047 171.375ZM122.507 164.755L121.342 166.045C121.295 166.095 121.249 166.132 121.202 166.155C121.159 166.175 121.102 166.185 121.032 166.185H120.502L121.242 164.975C121.289 164.898 121.339 164.843 121.392 164.81C121.449 164.773 121.53 164.755 121.637 164.755H122.507ZM125.426 167.67C125.536 167.547 125.653 167.435 125.776 167.335C125.899 167.235 126.029 167.15 126.166 167.08C126.306 167.007 126.453 166.952 126.606 166.915C126.763 166.875 126.931 166.855 127.111 166.855C127.388 166.855 127.631 166.902 127.841 166.995C128.054 167.085 128.231 167.215 128.371 167.385C128.514 167.552 128.623 167.753 128.696 167.99C128.769 168.227 128.806 168.488 128.806 168.775V172H127.911V168.775C127.911 168.392 127.823 168.095 127.646 167.885C127.473 167.672 127.208 167.565 126.851 167.565C126.588 167.565 126.341 167.628 126.111 167.755C125.884 167.882 125.674 168.053 125.481 168.27V172H124.586V166.935H125.121C125.248 166.935 125.326 166.997 125.356 167.12L125.426 167.67ZM136.111 168.915C136.111 168.708 136.081 168.52 136.021 168.35C135.964 168.177 135.879 168.028 135.766 167.905C135.656 167.778 135.521 167.682 135.361 167.615C135.201 167.545 135.019 167.51 134.816 167.51C134.389 167.51 134.051 167.635 133.801 167.885C133.554 168.132 133.401 168.475 133.341 168.915H136.111ZM136.831 171.29C136.721 171.423 136.589 171.54 136.436 171.64C136.282 171.737 136.117 171.817 135.941 171.88C135.767 171.943 135.587 171.99 135.401 172.02C135.214 172.053 135.029 172.07 134.846 172.07C134.496 172.07 134.172 172.012 133.876 171.895C133.582 171.775 133.327 171.602 133.111 171.375C132.897 171.145 132.731 170.862 132.611 170.525C132.491 170.188 132.431 169.802 132.431 169.365C132.431 169.012 132.484 168.682 132.591 168.375C132.701 168.068 132.857 167.803 133.061 167.58C133.264 167.353 133.512 167.177 133.806 167.05C134.099 166.92 134.429 166.855 134.796 166.855C135.099 166.855 135.379 166.907 135.636 167.01C135.896 167.11 136.119 167.257 136.306 167.45C136.496 167.64 136.644 167.877 136.751 168.16C136.857 168.44 136.911 168.76 136.911 169.12C136.911 169.26 136.896 169.353 136.866 169.4C136.836 169.447 136.779 169.47 136.696 169.47H133.311C133.321 169.79 133.364 170.068 133.441 170.305C133.521 170.542 133.631 170.74 133.771 170.9C133.911 171.057 134.077 171.175 134.271 171.255C134.464 171.332 134.681 171.37 134.921 171.37C135.144 171.37 135.336 171.345 135.496 171.295C135.659 171.242 135.799 171.185 135.916 171.125C136.032 171.065 136.129 171.01 136.206 170.96C136.286 170.907 136.354 170.88 136.411 170.88C136.484 170.88 136.541 170.908 136.581 170.965L136.831 171.29ZM142.095 172H141.24C141.167 172 141.109 171.982 141.065 171.945C141.025 171.905 140.992 171.862 140.965 171.815L139.69 169.83C139.677 169.877 139.662 169.923 139.645 169.97C139.632 170.013 139.612 170.053 139.585 170.09L138.405 171.815C138.372 171.862 138.335 171.905 138.295 171.945C138.259 171.982 138.207 172 138.14 172H137.345L139.12 169.4L137.415 166.935H138.27C138.344 166.935 138.397 166.947 138.43 166.97C138.464 166.993 138.494 167.027 138.52 167.07L139.765 168.97C139.792 168.873 139.834 168.78 139.89 168.69L140.98 167.09C141.01 167.043 141.042 167.007 141.075 166.98C141.112 166.95 141.155 166.935 141.205 166.935H142.025L140.32 169.355L142.095 172ZM143.856 166.935V172H142.966V166.935H143.856ZM144.046 165.345C144.046 165.432 144.028 165.513 143.991 165.59C143.958 165.663 143.911 165.73 143.851 165.79C143.794 165.847 143.726 165.892 143.646 165.925C143.569 165.958 143.488 165.975 143.401 165.975C143.314 165.975 143.233 165.958 143.156 165.925C143.083 165.892 143.018 165.847 142.961 165.79C142.904 165.73 142.859 165.663 142.826 165.59C142.793 165.513 142.776 165.432 142.776 165.345C142.776 165.258 142.793 165.177 142.826 165.1C142.859 165.02 142.904 164.952 142.961 164.895C143.018 164.835 143.083 164.788 143.156 164.755C143.233 164.722 143.314 164.705 143.401 164.705C143.488 164.705 143.569 164.722 143.646 164.755C143.726 164.788 143.794 164.835 143.851 164.895C143.911 164.952 143.958 165.02 143.991 165.1C144.028 165.177 144.046 165.258 144.046 165.345ZM146.873 172.08C146.473 172.08 146.165 171.968 145.948 171.745C145.735 171.522 145.628 171.2 145.628 170.78V167.68H145.018C144.965 167.68 144.92 167.665 144.883 167.635C144.847 167.602 144.828 167.552 144.828 167.485V167.13L145.658 167.025L145.863 165.46C145.873 165.41 145.895 165.37 145.928 165.34C145.965 165.307 146.012 165.29 146.068 165.29H146.518V167.035H147.983V167.68H146.518V170.72C146.518 170.933 146.57 171.092 146.673 171.195C146.777 171.298 146.91 171.35 147.073 171.35C147.167 171.35 147.247 171.338 147.313 171.315C147.383 171.288 147.443 171.26 147.493 171.23C147.543 171.2 147.585 171.173 147.618 171.15C147.655 171.123 147.687 171.11 147.713 171.11C147.76 171.11 147.802 171.138 147.838 171.195L148.098 171.62C147.945 171.763 147.76 171.877 147.543 171.96C147.327 172.04 147.103 172.08 146.873 172.08ZM151.008 166.855C151.378 166.855 151.711 166.917 152.008 167.04C152.305 167.163 152.558 167.338 152.768 167.565C152.978 167.792 153.138 168.067 153.248 168.39C153.361 168.71 153.418 169.068 153.418 169.465C153.418 169.865 153.361 170.225 153.248 170.545C153.138 170.865 152.978 171.138 152.768 171.365C152.558 171.592 152.305 171.767 152.008 171.89C151.711 172.01 151.378 172.07 151.008 172.07C150.635 172.07 150.298 172.01 149.998 171.89C149.701 171.767 149.448 171.592 149.238 171.365C149.028 171.138 148.866 170.865 148.753 170.545C148.643 170.225 148.588 169.865 148.588 169.465C148.588 169.068 148.643 168.71 148.753 168.39C148.866 168.067 149.028 167.792 149.238 167.565C149.448 167.338 149.701 167.163 149.998 167.04C150.298 166.917 150.635 166.855 151.008 166.855ZM151.008 171.375C151.508 171.375 151.881 171.208 152.128 170.875C152.375 170.538 152.498 170.07 152.498 169.47C152.498 168.867 152.375 168.397 152.128 168.06C151.881 167.723 151.508 167.555 151.008 167.555C150.755 167.555 150.533 167.598 150.343 167.685C150.156 167.772 150 167.897 149.873 168.06C149.75 168.223 149.656 168.425 149.593 168.665C149.533 168.902 149.503 169.17 149.503 169.47C149.503 170.07 149.626 170.538 149.873 170.875C150.123 171.208 150.501 171.375 151.008 171.375ZM157.497 167.77C157.457 167.843 157.395 167.88 157.312 167.88C157.262 167.88 157.205 167.862 157.142 167.825C157.078 167.788 157 167.748 156.907 167.705C156.817 167.658 156.708 167.617 156.582 167.58C156.455 167.54 156.305 167.52 156.132 167.52C155.982 167.52 155.847 167.54 155.727 167.58C155.607 167.617 155.503 167.668 155.417 167.735C155.333 167.802 155.268 167.88 155.222 167.97C155.178 168.057 155.157 168.152 155.157 168.255C155.157 168.385 155.193 168.493 155.267 168.58C155.343 168.667 155.443 168.742 155.567 168.805C155.69 168.868 155.83 168.925 155.987 168.975C156.143 169.022 156.303 169.073 156.467 169.13C156.633 169.183 156.795 169.243 156.952 169.31C157.108 169.377 157.248 169.46 157.372 169.56C157.495 169.66 157.593 169.783 157.667 169.93C157.743 170.073 157.782 170.247 157.782 170.45C157.782 170.683 157.74 170.9 157.657 171.1C157.573 171.297 157.45 171.468 157.287 171.615C157.123 171.758 156.923 171.872 156.687 171.955C156.45 172.038 156.177 172.08 155.867 172.08C155.513 172.08 155.193 172.023 154.907 171.91C154.62 171.793 154.377 171.645 154.177 171.465L154.387 171.125C154.413 171.082 154.445 171.048 154.482 171.025C154.518 171.002 154.565 170.99 154.622 170.99C154.682 170.99 154.745 171.013 154.812 171.06C154.878 171.107 154.958 171.158 155.052 171.215C155.148 171.272 155.265 171.323 155.402 171.37C155.538 171.417 155.708 171.44 155.912 171.44C156.085 171.44 156.237 171.418 156.367 171.375C156.497 171.328 156.605 171.267 156.692 171.19C156.778 171.113 156.842 171.025 156.882 170.925C156.925 170.825 156.947 170.718 156.947 170.605C156.947 170.465 156.908 170.35 156.832 170.26C156.758 170.167 156.66 170.088 156.537 170.025C156.413 169.958 156.272 169.902 156.112 169.855C155.955 169.805 155.793 169.753 155.627 169.7C155.463 169.647 155.302 169.587 155.142 169.52C154.985 169.45 154.845 169.363 154.722 169.26C154.598 169.157 154.498 169.03 154.422 168.88C154.348 168.727 154.312 168.542 154.312 168.325C154.312 168.132 154.352 167.947 154.432 167.77C154.512 167.59 154.628 167.433 154.782 167.3C154.935 167.163 155.123 167.055 155.347 166.975C155.57 166.895 155.825 166.855 156.112 166.855C156.445 166.855 156.743 166.908 157.007 167.015C157.273 167.118 157.503 167.262 157.697 167.445L157.497 167.77ZM161.618 169.72C161.208 169.733 160.858 169.767 160.568 169.82C160.281 169.87 160.046 169.937 159.863 170.02C159.683 170.103 159.551 170.202 159.468 170.315C159.388 170.428 159.348 170.555 159.348 170.695C159.348 170.828 159.37 170.943 159.413 171.04C159.456 171.137 159.515 171.217 159.588 171.28C159.665 171.34 159.753 171.385 159.853 171.415C159.956 171.442 160.066 171.455 160.183 171.455C160.34 171.455 160.483 171.44 160.613 171.41C160.743 171.377 160.865 171.33 160.978 171.27C161.095 171.21 161.205 171.138 161.308 171.055C161.415 170.972 161.518 170.877 161.618 170.77V169.72ZM158.743 167.65C159.023 167.38 159.325 167.178 159.648 167.045C159.971 166.912 160.33 166.845 160.723 166.845C161.006 166.845 161.258 166.892 161.478 166.985C161.698 167.078 161.883 167.208 162.033 167.375C162.183 167.542 162.296 167.743 162.373 167.98C162.45 168.217 162.488 168.477 162.488 168.76V172H162.093C162.006 172 161.94 171.987 161.893 171.96C161.846 171.93 161.81 171.873 161.783 171.79L161.683 171.31C161.55 171.433 161.42 171.543 161.293 171.64C161.166 171.733 161.033 171.813 160.893 171.88C160.753 171.943 160.603 171.992 160.443 172.025C160.286 172.062 160.111 172.08 159.918 172.08C159.721 172.08 159.536 172.053 159.363 172C159.19 171.943 159.038 171.86 158.908 171.75C158.781 171.64 158.68 171.502 158.603 171.335C158.53 171.165 158.493 170.965 158.493 170.735C158.493 170.535 158.548 170.343 158.658 170.16C158.768 169.973 158.946 169.808 159.193 169.665C159.44 169.522 159.761 169.405 160.158 169.315C160.555 169.222 161.041 169.168 161.618 169.155V168.76C161.618 168.367 161.533 168.07 161.363 167.87C161.193 167.667 160.945 167.565 160.618 167.565C160.398 167.565 160.213 167.593 160.063 167.65C159.916 167.703 159.788 167.765 159.678 167.835C159.571 167.902 159.478 167.963 159.398 168.02C159.321 168.073 159.245 168.1 159.168 168.1C159.108 168.1 159.056 168.085 159.013 168.055C158.97 168.022 158.933 167.982 158.903 167.935L158.743 167.65ZM164.914 164.835V167.695C164.914 167.845 164.91 167.992 164.904 168.135C164.897 168.278 164.889 168.423 164.879 168.57C164.869 168.713 164.855 168.862 164.839 169.015C164.825 169.165 164.809 169.327 164.789 169.5H164.189C164.169 169.327 164.15 169.165 164.134 169.015C164.12 168.862 164.109 168.713 164.099 168.57C164.089 168.423 164.08 168.278 164.074 168.135C164.067 167.992 164.064 167.845 164.064 167.695V164.835H164.914ZM163.849 171.45C163.849 171.363 163.864 171.282 163.894 171.205C163.927 171.128 163.972 171.062 164.029 171.005C164.085 170.948 164.15 170.903 164.224 170.87C164.3 170.837 164.384 170.82 164.474 170.82C164.56 170.82 164.64 170.837 164.714 170.87C164.79 170.903 164.857 170.948 164.914 171.005C164.97 171.062 165.015 171.128 165.049 171.205C165.082 171.282 165.099 171.363 165.099 171.45C165.099 171.54 165.082 171.623 165.049 171.7C165.015 171.773 164.97 171.838 164.914 171.895C164.857 171.952 164.79 171.995 164.714 172.025C164.64 172.058 164.56 172.075 164.474 172.075C164.384 172.075 164.3 172.058 164.224 172.025C164.15 171.995 164.085 171.952 164.029 171.895C163.972 171.838 163.927 171.773 163.894 171.7C163.864 171.623 163.849 171.54 163.849 171.45Z" fill="#676767"/>
<defs>
<clipPath id="clip0">
<rect width="70.0467" height="70.0467" fill="white" transform="translate(119.953 68.6637)"/>
</clipPath>
</defs>
</svg>
