<?xml version="1.0" encoding="utf-8"?>
<!-- Generator: Adobe Illustrator 24.0.1, SVG Export Plug-In . SVG Version: 6.00 Build 0)  -->
<svg version="1.1" id="Capa_1" xmlns="http://www.w3.org/2000/svg" xmlns:xlink="http://www.w3.org/1999/xlink" x="0px" y="0px"
	 viewBox="0 0 677.8 681" style="enable-background:new 0 0 677.8 681;" xml:space="preserve">
<style type="text/css">
	.st0{opacity:0.4;fill:#C3E5D9;enable-background:new    ;}
	.st1{fill:#FFC5E6;}
	.st2{fill:none;}
	.st3{opacity:0.17;fill:#FF887C;}
	.st4{fill:#FD89C6;}
	.st5{fill:#0948F0;}
	.st6{fill:none;stroke:#FB8E77;stroke-linecap:round;stroke-miterlimit:10;}
	.st7{opacity:5.000000e-02;fill:#1B1B25;}
	.st8{fill:#1B1B25;}
	.st9{fill:#FEC29E;}
	.st10{opacity:0.35;fill:#1B1B25;}
	.st11{fill:#FD5C00;}
	.st12{fill:#FCF0E3;}
	.st13{fill:#FFFFFF;}
	.st14{fill:#3482FF;}
	.st15{fill:#7FB2FF;}
	.st16{enable-background:new    ;}
	.st17{fill:#93A09B;}
</style>
<path class="st0" d="M67.9,280.6c118-69.1,168.7-168.4,225.5-201.7C350.3,45.6,486,3.4,615.9,225.3
	c129.9,221.9-11.7,348.5-74.2,385.1C248.8,782-141.1,403,67.9,280.6z"/>
<g>
	<g>
		<g>
			<g>
				<g>
					<path class="st1" d="M251.6,166.7l0-0.1l17.9-62.2l-0.1-0.1c0.8-1.6,2.9-5,7.2-7.9c7.4-5.1,8.3-13.7,8.3-13.7
						c3.9-3.8,8.4-7.1,12.4-10.8c0.4-0.4,0.9-0.8,1-1.4c0.1-0.6-0.2-1.3-0.5-1.8c-2.1-3.1-5.9-3.5-9.1-2.1c-1.9,0.8-3.5,2-5.1,3.3
						c-0.7,0.6-3.3,2.3-4,3.4L293.8,43c1.3-2.7,0.4-5.8-1.8-6.8v0c-1.1-0.5-2.4-0.5-3.6,0.1c-0.7,0.3-1.4,0.9-2,1.6
						c0-0.2,0.1-0.4,0.1-0.4c-16.7-14-37.2,33.7-37.2,33.7l-5.8,13.8l-49.5,91.8c-7,13.3-1.6,29.8,11.9,36.4l0,0
						c0.2,0.1,0.4,0.2,0.6,0.3c4,2.3,8.6,3.6,13.5,3.6h97.4l21-49.9L251.6,166.7z M279.3,73.9L279.3,73.9
						C279.3,73.9,279.3,73.9,279.3,73.9L279.3,73.9z"/>
					<g>
						<path class="st2" d="M248.8,176.4l-2.5,8.7C247.2,182.1,248,179.2,248.8,176.4z"/>
						<path class="st3" d="M234.9,216.9C231.7,216.8,233.6,216.9,234.9,216.9L234.9,216.9z"/>
						<path class="st3" d="M234.9,216.9c0.4,0,0.8,0,0.8,0C235.4,217,235.1,216.9,234.9,216.9z"/>
						<path class="st4" d="M251.6,166.6l-2.8,9.9c-0.7,2.7-1.6,5.7-2.5,8.7l-3.4,11.9c-0.5,1.5-1.1,3-1.8,4.3
							c-2.9,8.8-5.4,15.6-5.4,15.6l35-50.2C262,166.8,260,166.6,251.6,166.6z"/>
						<path class="st3" d="M234.9,216.9C234.9,216.9,234.9,216.9,234.9,216.9C234.9,216.9,234.9,216.9,234.9,216.9z"/>
					</g>
					<path class="st4" d="M265.7,76.5c-0.1,0-0.3,0-0.4-0.1c-0.3-0.2-0.3-0.6-0.1-0.9c6.2-8.4,14.6-3.9,14.7-3.8
						c0.3,0.2,0.4,0.5,0.2,0.8c-0.2,0.3-0.5,0.4-0.8,0.2c-0.3-0.2-7.5-4.1-13.1,3.5C266.1,76.4,265.9,76.5,265.7,76.5z"/>
					<path class="st4" d="M286.7,37.7c-2.6,3.2-5,6.6-7.1,10.2c-1.1,1.8-2,3.6-2.8,5.5c-0.8,1.9-1.4,3.9-1.3,5.8l0,0
						c0,0.3-0.2,0.6-0.6,0.7c-0.3,0-0.6-0.2-0.7-0.6c0,0,0,0,0,0c-0.1-2.3,0.7-4.4,1.5-6.3c0.9-1.9,1.9-3.8,3-5.5
						c2.2-3.6,4.7-6.9,7.4-10.1c0.1-0.2,0.4-0.2,0.5,0C286.8,37.3,286.8,37.5,286.7,37.7L286.7,37.7z"/>
					<path class="st4" d="M282.4,35.9c-1.6,1.1-3.1,2.6-4.4,4.2c-1.3,1.6-2.5,3.3-3.5,5c-1,1.8-1.9,3.6-2.7,5.5
						c-0.4,0.9-0.7,1.9-1.1,2.9l-0.9,2.9l0,0c-0.1,0.3-0.4,0.5-0.8,0.4s-0.5-0.4-0.4-0.8c0,0,0,0,0,0l1-3c0.4-1,0.7-2,1.1-2.9
						c0.8-1.9,1.8-3.8,2.8-5.6c1.1-1.8,2.3-3.5,3.7-5.1c1.4-1.6,2.9-3,4.7-4.2c0.2-0.1,0.4-0.1,0.5,0.1
						C282.7,35.6,282.6,35.8,282.4,35.9L282.4,35.9z"/>
					<path class="st4" d="M275.7,36.4c-2.4,2.5-4.6,5.2-6.5,8c-0.9,1.4-1.8,2.9-2.6,4.4c-0.7,1.5-1.3,3.1-1.6,4.7l0,0
						c-0.1,0.3-0.4,0.6-0.7,0.5s-0.6-0.4-0.5-0.7c0,0,0,0,0,0c0.3-1.8,1-3.5,1.8-5c0.8-1.6,1.7-3.1,2.7-4.5c2-2.9,4.3-5.5,6.8-8
						c0.1-0.1,0.4-0.1,0.5,0C275.8,36,275.8,36.3,275.7,36.4L275.7,36.4z"/>
				</g>
				<g>
					<path class="st5" d="M476.4,257.3l-23.9-65.1c-2.8-14.3-16.4-25.1-32.8-25.1l-66.8-0.5l-75.2,0.3V217h23.3l-12,130.8l165.6,0.9
						l-0.9-88.5L476.4,257.3z"/>
					<path class="st6" d="M311.9,254.1"/>
				</g>
				<path class="st7" d="M352.8,167.1l0.1-0.6l-75.2,0.3V217h23.3l0.1-1.3C301.2,189.2,324.2,167.7,352.8,167.1z"/>
				<path class="st4" d="M257.8,94.5c0,0,4.2,35.9,4.5,35c0.2-0.9,7.2-25.2,7.2-25.2L257.8,94.5z"/>
			</g>
		</g>
	</g>
	<g>
		<g>
			<path class="st8" d="M356.4,276.1l-6.3-31.9l-4.9-24.6c-0.6-2.9-3.4-4.8-6.3-4.2l-24.4,4.8c-2.9,0.6-4.8,3.4-4.2,6.3l4.9,24.7
				l3.9,19.6l2.4,12.1c0.6,2.9,3.4,4.8,6.3,4.2l14.4-2.9l10-2C355,281.8,356.9,279,356.4,276.1z"/>
		</g>
		<g>
			<path class="st9" d="M486.3,305.4l-11-47.9l-50.1,6.1l2.7,12.2l-0.3-0.1l-54.4-13.5l0,0.1c-1.5-0.8-4.3-2.5-6.8-6.3
				c-4.6-6.8-12.2-7-12.2-7c-1.5-1.5-2.9-3.2-4.2-4.9l1.3,6.4l-0.3,0.2c-3.5,1.8-7.4,2.6-11.3,2.3c-7.2-0.6-19-1.5-23.9-1.9
				c-1.5-0.1-2.9,0.7-3.6,2c-7,14.7,23.1,28.2,29.9,31l0,0c0.1,0,0.2,0.1,0.2,0.1c0.1,0,0.2,0.1,0.3,0.1c0.1,0,0.2,0.1,0.3,0.1
				c0.1,0,0.2,0.1,0.2,0.1c0.1,0,0.1,0.1,0.2,0.1c0,0,0.1,0,0.1,0c0.1,0,0.1,0,0.1,0l11.8,4.4l93.2,45.9c0.9,0.4,1.7,0.8,2.6,1.1
				c4.5,2.1,9.7,2.7,14.9,1.5l0,0C480.6,334.5,489.6,320,486.3,305.4z"/>
			<path class="st3" d="M482.8,290l-57.5-26.4c1.9,8.4,0.8,4.7,2.5,12.1l3.9,1C448.2,277.8,482.8,290,482.8,290z"/>
		</g>
		<path class="st10" d="M420.6,264.2c-0.3,0-0.5-0.2-0.6-0.5l-7.2-34.8c-0.1-0.3,0.1-0.7,0.5-0.7c0.3-0.1,0.7,0.1,0.7,0.5l7.1,34.2
			l24.2-3.1c0.3,0,0.6,0.2,0.7,0.5c0,0.3-0.2,0.6-0.5,0.7L420.6,264.2C420.7,264.2,420.6,264.2,420.6,264.2z"/>
	</g>
	<g>
		<path class="st3" d="M483.2,291.9c0,0.2,0.1,0.4,0.1,0.5C483.2,292.4,483.2,292.2,483.2,291.9z"/>
		<path class="st3" d="M483.2,292.4C483.3,292.5,483.3,292.5,483.2,292.4L483.2,292.4z"/>
		<path class="st3" d="M482.8,290c0,0,0.1,0.7,0.3,1.3C483,290.9,482.9,290.5,482.8,290z"/>
		<path class="st3" d="M483,291.3c0.1,0.3,0.1,0.5,0.1,0.7C483.1,291.7,483.1,291.5,483,291.3z"/>
	</g>
	<g>
		<g>
			<path class="st11" d="M414.9,38c-1.5-10.5-11.1-18-21.7-16.8c-2.8,0.3-5.4,1.2-7.7,2.6c-3.4-5.6-9.8-9-16.8-8.2
				c-4,0.4-7.5,2.2-10.1,4.8c-3.8-1.9-8.2-2.8-12.8-2.3c-12.6,1.4-21.6,12.8-20.2,25.3c0.7,5.9,3.5,11,7.6,14.6l-4.7,24.9
				c-1.3,7.1,3.4,14,10.5,15.3l55.1,10.3c7.1,1.3,14-3.4,15.3-10.5l9-48.3C419.4,45.3,417.9,41,414.9,38z"/>
			<g>
				<path class="st12" d="M334.6,51.6c-0.2,0-0.4-0.1-0.5-0.3c-9.8-15.6,3.7-25.6,3.9-25.7c0.3-0.2,0.7-0.1,0.9,0.1
					c0.2,0.3,0.1,0.7-0.1,0.9c-0.5,0.4-12.8,9.4-3.5,24c0.2,0.3,0.1,0.7-0.2,0.9C334.8,51.6,334.7,51.6,334.6,51.6z"/>
			</g>
		</g>
		<g>
			<g>
				<path class="st1" d="M406,86.8l-1.2-0.2l-12.2-26.2c-3-0.4-5.8-1.5-8.2-3.2c-2.3,2.5-5.5,4.3-9.2,4.7c-4.4,0.5-8.6-1-11.7-3.8
					c-3.4,3-7.7,5-12.5,5.5c-5.5,0.6-10.8-0.8-15.1-3.6l-8.5,45.3c-1.2,6.3,0.1,12.4,3.1,17.5c3,7.5,9.5,13.3,17.8,15.2v29.9
					c0,10.4,8.5,18.9,18.9,18.9h6c10.4,0,18.9-8.5,18.9-18.9v-34c3.1-3.4,5.3-7.6,6.2-12.4l1.5-8.3l1.2,0.2
					c7.2,1.3,14.1-3.4,15.4-10.6l0.1-0.7C417.9,95,413.2,88.1,406,86.8z"/>
			</g>
			<path class="st4" d="M397,112.2l-1.1,5.9c-2.5,13.6-15.6,22.6-29.3,20l-19.2-3.6c-7.4-1.4-13.3-5.8-16.9-11.8
				c3.1,7.8,10,13.8,18.9,15.5l0.8,0.1c3.1,6.3,9.5,10.7,17,10.7h6c8.9,0,16.4-6.3,18.4-14.6c3.3-3.5,5.8-7.9,6.7-13l1.5-8.3
				L397,112.2z"/>
		</g>
		<g>
			<path class="st4" d="M407.1,104.5c-0.1,0-0.3,0-0.4-0.1l-4.8-3.7c-0.1-0.1-0.2-0.3-0.2-0.5c0-0.2,0.1-0.4,0.2-0.5l5.9-5.6
				c0.2-0.2,0.6-0.2,0.9,0c0.2,0.2,0.2,0.6,0,0.9l-5.4,5.1l4.2,3.3c0.3,0.2,0.3,0.6,0.1,0.9C407.4,104.4,407.3,104.5,407.1,104.5z"
				/>
			<g>
				<g>
					<g>
						<g>
							<path class="st8" d="M376.5,81.5c-0.9,0-1.9-0.6-2.8-1.1c-1-0.5-1.9-1-2.8-1.4c-0.9-0.4-1.9-0.8-2.9-1.2
								c-1-0.4-2-0.8-2.6-1.5c-0.6-0.7-0.5-1.7,0.9-2.4c1.3-0.7,4-0.8,6.8,0.5c2.8,1.3,4.4,3.5,4.7,4.9
								C378.1,80.8,377.4,81.5,376.5,81.5z"/>
						</g>
						<g>
							<path class="st8" d="M337.2,78.1c0.8,0.4,1.9,0.5,3,0.6c1.1,0.1,2.2,0.2,3.1,0.3c0.9,0.1,2,0.3,3.1,0.5
								c1.1,0.2,2.1,0.4,3,0.2c0.8-0.2,1.3-1,0.5-2.2c-0.8-1.2-2.9-2.6-6-3.1c-3.1-0.4-5.5,0.4-6.5,1.3
								C336.2,76.8,336.4,77.7,337.2,78.1z"/>
						</g>
					</g>
				</g>
				<path class="st8" d="M367.4,92.1L367.4,92.1c0.9,0.2,1.7-0.4,1.9-1.2l0.4-2c0.2-0.8-0.4-1.6-1.2-1.8l-0.1,0
					c-0.8-0.2-1.6,0.4-1.8,1.2l-0.4,2C366,91.1,366.6,91.9,367.4,92.1z"/>
				<path class="st8" d="M340.8,87.7L340.8,87.7c0.9,0.2,1.7-0.4,1.9-1.2l0.4-2c0.2-0.8-0.4-1.6-1.2-1.8l-0.1,0
					c-0.8-0.2-1.6,0.4-1.8,1.2l-0.4,2C339.4,86.8,340,87.6,340.8,87.7z"/>
				<path class="st4" d="M368.5,99.1l5.5,0.6c1,0.1,2-0.6,2.1-1.7l0-0.1c0.1-1-0.6-2-1.7-2.1l-5.5-0.6c-1-0.1-2,0.6-2.1,1.7l0,0.1
					C366.7,98.1,367.5,99,368.5,99.1z"/>
				<path class="st4" d="M332.4,93.5l5.5,0.6c1,0.1,2-0.6,2.1-1.7l0-0.1c0.1-1-0.6-2-1.7-2.1l-5.5-0.6c-1-0.1-2,0.6-2.1,1.7l0,0.1
					C330.7,92.4,331.4,93.3,332.4,93.5z"/>
				<path class="st4" d="M348.4,121.4c-0.2,0-0.4-0.1-0.5-0.3c-0.2-0.3-0.1-0.7,0.1-0.9c2.6-1.9,5.5-0.8,6.7,0
					c0.3,0.2,0.3,0.6,0.2,0.9c-0.2,0.3-0.6,0.3-0.9,0.2c-0.1-0.1-2.7-1.8-5.2,0C348.6,121.4,348.5,121.4,348.4,121.4z"/>
				<path class="st13" d="M352.6,103.9l14.5-2.1l-1.6,5c-1,3.2-4,5.4-7.4,5.4h0c-2.6,0-4.8-2-5.1-4.6L352.6,103.9z"/>
				<path class="st4" d="M356.3,98.8c-0.1,0-0.1,0-0.2,0l-4.5-1.2c-1.9-0.5-3.4-1.8-4.2-3.6c-0.8-1.8-0.7-3.8,0.3-5.5l6.8-12.3
					c0.2-0.3,0.5-0.4,0.8-0.2c0.3,0.2,0.4,0.5,0.2,0.8L348.8,89c-0.8,1.4-0.8,3-0.2,4.5c0.6,1.5,1.9,2.5,3.4,2.9l4.5,1.2
					c0.3,0.1,0.5,0.4,0.4,0.8C356.8,98.6,356.6,98.8,356.3,98.8z"/>
			</g>
		</g>
	</g>
</g>
<g>
	
		<image style="overflow:visible;opacity:7.000000e-02;" width="697" height="225" xlink:href="F867DAC8222D0D7D.png"  transform="matrix(1 0 0 1 8 345)">
	</image>
	<g>
		<g>
			<path class="st5" d="M62.8,411.4c0-7.4,6-13.3,13.4-13.3l119.4,0.5l0.7,103.3H76.2c-7.4,0-13.4-5.9-13.4-13.3V411.4z"/>
			<path class="st13" d="M191,398.7H625c7.4,0,13.4,5.9,13.4,13.3v77.2c0,7.4-6,13.3-13.4,13.3H191V398.7z"/>
		</g>
	</g>
</g>
<path class="st13" d="M128.6,470.4c-2-0.4-4-0.9-5.8-1.6c-1.8-0.9-3.4-2-4.7-3.2l2-3.1c0.2-0.2,0.4-0.5,0.7-0.7
	c0.4-0.2,0.5-0.2,0.9-0.2c0.4,0,0.7,0.2,1.3,0.4c0.4,0.2,0.9,0.5,1.4,0.9c0.5,0.4,1.3,0.7,2,1.1c0.7,0.4,1.6,0.7,2.5,0.9l1.1-11.9
	c-1.3-0.4-2.5-0.7-3.8-1.3c-1.3-0.5-2.4-1.1-3.3-1.8c-0.9-0.7-1.8-1.8-2.4-3.1c-0.5-1.3-0.9-2.7-0.9-4.5c0-1.3,0.2-2.7,0.7-4
	c0.5-1.3,1.3-2.5,2.4-3.4c1.1-1.1,2.4-1.8,3.8-2.5c1.4-0.7,3.3-1.1,5.3-1.1l0.4-3.4c0-0.4,0.2-0.7,0.5-1.1c0.4-0.4,0.7-0.5,1.3-0.5
	h2.4l-0.5,5.2c1.8,0.4,3.4,0.9,4.9,1.6c1.5,0.7,2.5,1.6,3.6,2.5l-1.6,2.3c-0.2,0.4-0.5,0.5-0.7,0.7c-0.2,0.2-0.5,0.2-0.9,0.2
	c-0.2,0-0.5,0-0.9-0.2c-0.4-0.2-0.7-0.4-1.3-0.5c-0.5-0.2-0.9-0.5-1.6-0.7c-0.5-0.2-1.3-0.5-1.8-0.5l-0.9,11
	c1.3,0.4,2.5,0.9,3.8,1.3c1.3,0.5,2.4,1.1,3.4,1.8c1.1,0.7,1.8,1.6,2.5,2.7c0.5,1.1,0.9,2.5,0.9,4.1c0,1.6-0.4,3.2-0.9,4.7
	c-0.5,1.4-1.4,2.7-2.4,3.8c-1.1,1.1-2.4,2-4,2.7c-1.6,0.7-3.3,1.1-5.3,1.3l-0.4,4c0,0.4-0.2,0.7-0.5,1.1c-0.4,0.4-0.7,0.5-1.3,0.5
	h-2.4L128.6,470.4z M138.9,459.3c0-0.7-0.2-1.3-0.4-1.8c-0.2-0.5-0.5-0.9-1.1-1.4c-0.4-0.4-0.9-0.7-1.4-1.1c-0.5-0.4-1.3-0.5-2-0.7
	l-0.9,10.8c1.8-0.2,3.3-0.9,4.3-1.8C138.4,462.2,138.9,460.9,138.9,459.3z M125.9,441.8c0,0.7,0.2,1.3,0.4,1.8
	c0.2,0.5,0.5,0.9,0.9,1.4c0.4,0.4,0.9,0.7,1.5,1.1c0.5,0.4,1.3,0.5,1.8,0.9l0.9-9.9c-0.9,0.2-1.8,0.4-2.5,0.7
	c-0.7,0.4-1.3,0.7-1.6,1.1c-0.4,0.4-0.7,0.9-0.9,1.4C126.1,440.8,125.9,441.3,125.9,441.8z"/>
<g>
	
		<image style="overflow:visible;opacity:7.000000e-02;" width="697" height="225" xlink:href="F867DAC8222D0D7F.png"  transform="matrix(1 0 0 1 8 203)">
	</image>
	<g>
		<g>
			<path class="st5" d="M62.8,270.4c0-7.4,6-13.3,13.4-13.3H191v103.8H76.2c-7.4,0-13.4-5.9-13.4-13.3V270.4z"/>
			<path class="st13" d="M191,256.7H625c7.4,0,13.4,5.9,13.4,13.3v77.2c0,7.4-6,13.3-13.4,13.3H191V256.7z"/>
		</g>
	</g>
</g>
<path class="st13" d="M128.8,297c-0.2,0.4-0.4,0.7-0.7,0.9c-0.2,0.2-0.5,0.2-0.9,0.2c-0.4,0-0.7-0.2-1.3-0.4
	c-0.4-0.4-0.9-0.5-1.6-0.9c-0.5-0.4-1.3-0.7-2.2-0.9c-0.7-0.4-1.8-0.4-2.9-0.4c-1.1,0-1.8,0.2-2.5,0.4c-0.7,0.2-1.3,0.5-1.8,0.9
	c-0.5,0.4-0.9,0.9-1.1,1.6c-0.2,0.5-0.4,1.3-0.4,2c0,0.9,0.2,1.6,0.7,2.3c0.5,0.5,1.3,1.1,2,1.6c0.9,0.4,1.8,0.7,2.9,1.1
	c1.1,0.4,2.2,0.7,3.3,1.1c1.1,0.4,2.2,0.9,3.3,1.3c1.1,0.5,2,1.1,2.9,2c0.9,0.7,1.5,1.6,2,2.9c0.5,1.1,0.7,2.5,0.7,4.1
	c0,1.8-0.4,3.4-0.9,4.9c-0.5,1.4-1.5,2.9-2.5,4c-1.1,1.1-2.5,2-4.2,2.7c-1.6,0.7-3.6,0.9-5.6,0.9c-1.3,0-2.4-0.2-3.6-0.4
	c-1.3-0.2-2.4-0.5-3.4-1.1c-1.1-0.4-2.2-0.9-3.1-1.6c-0.9-0.5-1.8-1.3-2.5-2l2-3.4c0.2-0.2,0.4-0.5,0.7-0.5c0.4-0.2,0.5-0.2,0.9-0.2
	c0.4,0,0.9,0.2,1.5,0.5c0.5,0.4,1.1,0.7,1.8,1.3c0.7,0.4,1.4,0.9,2.5,1.3c0.9,0.4,2.2,0.5,3.4,0.5c2,0,3.6-0.5,4.7-1.4
	c1.1-0.9,1.6-2.3,1.6-4.1c0-1.1-0.2-1.8-0.7-2.5c-0.5-0.7-1.1-1.1-2-1.6c-0.9-0.4-1.8-0.9-2.9-1.1c-1.1-0.4-2.2-0.5-3.3-0.9
	c-1.1-0.4-2.2-0.7-3.3-1.3c-1.1-0.5-2-1.1-2.9-2c-0.9-0.7-1.5-1.8-2-3.1c-0.5-1.3-0.7-2.7-0.7-4.5c0-1.4,0.4-2.7,0.9-4.1
	c0.5-1.3,1.5-2.5,2.5-3.6c1.1-1.1,2.4-1.8,4-2.5c1.6-0.5,3.4-0.9,5.4-0.9c2.4,0,4.4,0.4,6.3,1.1c2,0.7,3.6,1.6,4.9,3.1L128.8,297z
	 M138.8,328.5c-0.2,0.4-0.4,0.7-0.5,1.1c-0.2,0.4-0.5,0.5-0.9,0.7c-0.4,0.2-0.7,0.4-1.1,0.5c-0.4,0.2-0.7,0.2-1.1,0.2h-2.7
	l15.6-39.6c0.4-0.7,0.7-1.3,1.3-1.6c0.5-0.4,1.3-0.5,2-0.5h2.7L138.8,328.5z"/>
<path class="st13" d="M129.6,411.4c17.8,0,32.1-14.2,32.1-31.8s-14.3-31.8-32.1-31.8c-17.8,0-32.1,14.2-32.1,31.8
	S111.9,411.4,129.6,411.4z"/>
<path class="st11" d="M129.6,404.8c14,0,25.4-11.3,25.4-25.2c0-13.9-11.4-25.2-25.4-25.2c-14,0-25.4,11.3-25.4,25.2
	C104.3,393.4,115.7,404.8,129.6,404.8z"/>
<path class="st13" d="M122.2,392.2c0.2-0.4,0.2-0.5,0.2-0.9c0-0.4-0.2-0.5-0.5-0.7c-2.2-1.4-3.8-3.4-4.7-5.8
	c-0.9-2.3-1.3-4.9-0.7-7.4c0.5-2.5,1.6-4.9,3.4-6.7c1.8-1.8,4-3.2,6.5-3.8l-1.8,3.2c-0.2,0.4-0.2,0.7-0.2,1.1
	c0.2,0.4,0.4,0.7,0.5,0.7c0.4,0.2,0.7,0.2,1.1,0.2c0.4-0.2,0.5-0.4,0.7-0.5l2.7-4.7c0.4-0.5,0.4-1.3,0.2-2c-0.2-0.7-0.5-1.3-1.3-1.6
	l-4.7-2.7c-0.4-0.2-0.7-0.2-1.1-0.2c-0.4,0.2-0.5,0.4-0.7,0.5c-0.2,0.4-0.2,0.7-0.2,1.1c0.2,0.4,0.4,0.7,0.5,0.7l2.9,1.6
	c-2.9,0.7-5.6,2.3-7.6,4.7c-2,2.2-3.4,5-4,7.9c-0.5,3.1-0.2,6.1,0.9,8.8c1.1,2.7,3.1,5.2,5.6,7c0.2,0.2,0.4,0.2,0.5,0.2
	c0.2,0,0.4,0,0.5,0c0.2,0,0.4-0.2,0.5-0.2C122,392.5,122,392.4,122.2,392.2z"/>
<path class="st13" d="M137.2,398.3c0.2-0.4,0.2-0.7,0.2-1.1c-0.2-0.4-0.4-0.7-0.5-0.7l-2.9-1.6c2.9-0.7,5.6-2.3,7.6-4.7
	c2-2.2,3.4-5,4-7.9c0.5-3.1,0.2-6.1-0.9-8.8c-1.1-2.7-3.1-5.2-5.6-7c-0.2-0.2-0.4-0.2-0.5-0.2c-0.2,0-0.4,0-0.5,0
	c-0.2,0-0.4,0.2-0.5,0.2c-0.2,0.2-0.4,0.2-0.4,0.4c-0.2,0.4-0.2,0.5-0.2,0.9c0,0.4,0.2,0.5,0.5,0.7c2.2,1.4,3.8,3.4,4.7,5.8
	c0.9,2.3,1.3,4.9,0.7,7.4c-0.5,2.5-1.6,4.9-3.4,6.7c-1.8,1.8-4,3.2-6.5,3.8l1.8-3.2c0.2-0.4,0.2-0.7,0.2-1.1
	c-0.2-0.4-0.4-0.7-0.5-0.7c-0.4-0.2-0.7-0.2-1.1-0.2c-0.4,0.2-0.5,0.4-0.7,0.5l-2.7,4.7c-0.4,0.5-0.4,1.3-0.2,2
	c0.2,0.7,0.5,1.3,1.3,1.6l4.7,2.7c0.4,0.2,0.7,0.2,1.1,0.2C137.1,398.5,137.1,398.7,137.2,398.3z"/>
<g>
	<path class="st5" d="M560,626H141c-22.1,0-40-17.9-40-40v0c0-22.1,17.9-40,40-40h419c22.1,0,40,17.9,40,40v0
		C600,608.1,582.1,626,560,626z"/>
	<path class="st13" d="M306.6,592.6c0.2,0,0.2,0,0.4,0.2l1.1,1.1c-0.7,0.9-1.8,1.6-2.9,2.2c-1.1,0.5-2.5,0.7-4,0.7
		c-1.4,0-2.7-0.2-3.8-0.7c-1.1-0.5-2-1.1-2.9-2c-0.7-0.9-1.4-1.8-1.8-3.1c-0.4-1.3-0.7-2.5-0.7-4c0-1.4,0.2-2.7,0.7-4
		c0.5-1.3,1.1-2.2,2-3.1c0.9-0.9,1.8-1.4,3.1-2c1.3-0.5,2.5-0.7,4-0.7c1.4,0,2.5,0.2,3.6,0.7c1.1,0.4,2,1.1,2.7,1.8l-0.9,1.3
		l-0.2,0.2c0,0-0.2,0-0.4,0c-0.2,0-0.2,0-0.4-0.2c-0.2,0-0.4-0.2-0.5-0.4c-0.2-0.2-0.4-0.2-0.5-0.4c-0.2-0.2-0.5-0.4-0.9-0.4
		c-0.4-0.2-0.7-0.2-1.1-0.4c-0.4,0-0.9-0.2-1.4-0.2c-1.1,0-2,0.2-2.9,0.5c-0.9,0.4-1.6,0.9-2.2,1.4c-0.5,0.7-1.1,1.4-1.4,2.3
		c-0.4,0.9-0.5,2-0.5,3.1c0,1.3,0.2,2.2,0.5,3.2c0.4,0.9,0.7,1.8,1.4,2.3c0.5,0.7,1.3,1.1,2.2,1.4c0.7,0.4,1.6,0.5,2.5,0.5
		c0.5,0,1.1,0,1.4-0.2c0.5,0,0.9-0.2,1.3-0.4c0.4-0.2,0.7-0.4,1.1-0.5c0.4-0.2,0.7-0.5,1.1-0.7C306.5,592.6,306.5,592.6,306.6,592.6
		z M316.6,582.9c0.9,0,1.8,0.2,2.7,0.5c0.7,0.4,1.4,0.7,2,1.4c0.5,0.5,0.9,1.3,1.3,2.2c0.4,0.9,0.5,1.8,0.5,2.9s-0.2,2-0.5,2.9
		c-0.4,0.9-0.7,1.6-1.3,2.2c-0.5,0.5-1.3,1.1-2,1.4c-0.7,0.4-1.6,0.5-2.7,0.5c-1.1,0-1.8-0.2-2.7-0.5c-0.7-0.4-1.4-0.7-2-1.4
		c-0.5-0.5-0.9-1.3-1.3-2.2c-0.4-0.9-0.5-1.8-0.5-2.9s0.2-2,0.5-2.9c0.4-0.9,0.7-1.6,1.3-2.2c0.5-0.5,1.3-1.1,2-1.4
		C314.6,583.1,315.5,582.9,316.6,582.9z M316.6,594.8c1.3,0,2.4-0.4,3.1-1.3c0.7-0.9,0.9-2.2,0.9-3.8c0-1.6-0.4-2.9-0.9-3.8
		c-0.7-0.9-1.6-1.3-3.1-1.3c-0.7,0-1.3,0.2-1.8,0.4c-0.5,0.2-0.9,0.5-1.3,1.1c-0.4,0.4-0.5,0.9-0.7,1.6c-0.2,0.5-0.2,1.3-0.2,2.2
		c0,0.7,0,1.4,0.2,2.2c0.2,0.5,0.4,1.1,0.7,1.6c0.4,0.4,0.7,0.7,1.3,0.9C315.3,594.8,315.9,594.8,316.6,594.8z M326,596.6v-13.5h1.4
		c0.4,0,0.5,0.2,0.7,0.5l0.2,1.4c0.5-0.7,1.3-1.1,2-1.6c0.7-0.4,1.6-0.5,2.5-0.5c0.7,0,1.4,0.2,2,0.4c0.5,0.2,1.1,0.5,1.4,1.1
		c0.4,0.4,0.7,0.9,0.9,1.6c0.2,0.5,0.4,1.3,0.4,2.2v8.6h-2.4v-8.6c0-1.1-0.2-1.8-0.7-2.3c-0.5-0.5-1.1-0.9-2.2-0.9
		c-0.7,0-1.4,0.2-2,0.5c-0.5,0.4-1.1,0.7-1.6,1.4v9.9H326V596.6z M344.9,596.7c-1.1,0-1.8-0.4-2.5-0.9c-0.5-0.5-0.9-1.4-0.9-2.5V585
		H340c-0.2,0-0.2,0-0.4-0.2c-0.2,0-0.2-0.2-0.2-0.4v-0.9l2.2-0.4l0.5-4.1c0-0.2,0-0.2,0.2-0.4c0.2,0,0.2-0.2,0.4-0.2h1.3v4.7h3.8
		v1.8H344v8.1c0,0.5,0.2,0.9,0.4,1.3c0.4,0.4,0.5,0.4,1.1,0.4c0.2,0,0.5,0,0.7-0.2c0.2,0,0.4-0.2,0.5-0.2c0.2,0,0.2-0.2,0.4-0.2
		c0.2,0,0.2-0.2,0.2-0.2c0.2,0,0.2,0,0.4,0.2l0.7,1.1c-0.4,0.4-0.9,0.7-1.4,0.9C346.1,596.6,345.4,596.7,344.9,596.7z M353.4,583.1
		v13.5H351v-13.5H353.4z M353.9,578.9c0,0.2,0,0.4-0.2,0.7c0,0.2-0.2,0.4-0.4,0.5c-0.2,0.2-0.4,0.2-0.5,0.4c-0.2,0-0.4,0.2-0.7,0.2
		c-0.2,0-0.4,0-0.7-0.2c-0.2,0-0.4-0.2-0.5-0.4c-0.2-0.2-0.2-0.4-0.4-0.5c0-0.2-0.2-0.4-0.2-0.7c0-0.4,0-0.4,0.2-0.7
		c0-0.2,0.2-0.4,0.4-0.5c0.2-0.2,0.4-0.4,0.5-0.4c0.2,0,0.4-0.2,0.7-0.2c0.2,0,0.4,0,0.7,0.2c0.2,0,0.4,0.2,0.5,0.4
		c0.2,0.2,0.4,0.4,0.4,0.5C353.9,578.4,353.9,578.6,353.9,578.9z M357.5,596.6v-13.5h1.5c0.4,0,0.5,0.2,0.7,0.5l0.2,1.4
		c0.5-0.7,1.3-1.1,2-1.6c0.7-0.4,1.6-0.5,2.5-0.5c0.7,0,1.4,0.2,2,0.4c0.5,0.2,1.1,0.5,1.4,1.1c0.4,0.4,0.7,0.9,0.9,1.6
		c0.2,0.5,0.4,1.3,0.4,2.2v8.6h-2.4v-8.6c0-1.1-0.2-1.8-0.7-2.3c-0.5-0.5-1.1-0.9-2.2-0.9c-0.7,0-1.4,0.2-2,0.5
		c-0.5,0.4-1.1,0.7-1.6,1.4v9.9h-2.7V596.6z M374.4,583.1v8.6c0,1.1,0.2,1.8,0.7,2.3c0.5,0.5,1.3,0.9,2.2,0.9c0.7,0,1.3-0.2,2-0.5
		c0.5-0.4,1.3-0.7,1.6-1.4v-9.9h2.4v13.5h-1.5c-0.4,0-0.5-0.2-0.7-0.5l-0.2-1.4c-0.5,0.7-1.3,1.1-2,1.6c-0.7,0.4-1.6,0.5-2.5,0.5
		c-0.7,0-1.4-0.2-2-0.4c-0.5-0.2-1.1-0.5-1.4-1.1c-0.4-0.4-0.7-0.9-0.9-1.6c-0.2-0.5-0.4-1.3-0.4-2.2v-8.6h2.7V583.1z M397.2,596.6
		h-1.1c-0.2,0-0.4,0-0.5-0.2c-0.2,0-0.2-0.2-0.4-0.5l-0.2-1.3c-0.4,0.4-0.7,0.5-1.1,0.9c-0.4,0.2-0.7,0.5-1.1,0.7
		c-0.4,0.2-0.7,0.4-1.3,0.4c-0.4,0-0.9,0.2-1.4,0.2c-0.5,0-1.1,0-1.5-0.2c-0.5-0.2-0.9-0.4-1.3-0.7c-0.4-0.4-0.5-0.7-0.7-1.1
		c-0.2-0.5-0.4-0.9-0.4-1.6c0-0.5,0.2-1.1,0.4-1.4c0.4-0.5,0.7-0.9,1.5-1.3c0.7-0.4,1.4-0.7,2.5-0.9c1.1-0.2,2.4-0.4,3.8-0.4v-1.1
		c0-1.1-0.2-1.8-0.7-2.3c-0.4-0.5-1.1-0.7-2-0.7c-0.5,0-1.1,0-1.5,0.2c-0.4,0.2-0.7,0.4-1.1,0.5c-0.4,0.2-0.5,0.4-0.7,0.5
		c-0.2,0.2-0.4,0.2-0.5,0.2c-0.2,0-0.4,0-0.4-0.2c-0.2,0-0.2-0.2-0.4-0.4l-0.4-0.7c0.7-0.7,1.6-1.3,2.4-1.6c0.9-0.4,1.8-0.5,2.9-0.5
		c0.7,0,1.4,0.2,2,0.4c0.5,0.2,1.1,0.5,1.4,1.1c0.4,0.4,0.7,0.9,0.9,1.6c0.2,0.5,0.4,1.3,0.4,2v8.5H397.2z M391.1,595.1
		c0.4,0,0.7,0,1.1-0.2c0.4,0,0.7-0.2,0.9-0.4c0.4-0.2,0.5-0.4,0.9-0.5c0.4-0.2,0.5-0.5,0.9-0.7v-2.9c-1.1,0-2,0.2-2.7,0.2
		c-0.7,0.2-1.5,0.4-1.8,0.5c-0.5,0.2-0.9,0.5-1.1,0.7c-0.2,0.4-0.4,0.7-0.4,1.1c0,0.4,0,0.7,0.2,0.9c0.2,0.2,0.2,0.5,0.5,0.7
		c0.2,0.2,0.4,0.4,0.7,0.4C390.3,594.9,390.7,595.1,391.1,595.1z M400.9,596.6v-13.5h1.4c0.2,0,0.4,0,0.5,0.2
		c0.2,0.2,0.2,0.2,0.2,0.5l0.2,2.2c0.5-0.9,1.1-1.6,1.6-2.2c0.7-0.5,1.4-0.7,2.4-0.7c0.4,0,0.7,0,1.1,0.2c0.4,0,0.5,0.2,0.9,0.4
		l-0.4,1.8c0,0.2-0.2,0.4-0.4,0.4c-0.2,0-0.4,0-0.5-0.2c-0.2,0-0.5-0.2-1.1-0.2c-0.9,0-1.4,0.2-2,0.7c-0.5,0.5-1.1,1.3-1.4,2.2v8.6
		h-2.5V596.6z"/>
	<path class="st11" d="M459.5,586.8l21.6,53.6l8.9-14l12.5,15.8l14.9-13.6l-14.2-13.2l13-8.6L459.5,586.8z"/>
</g>
<g>
	<polygon class="st14" points="449.2,154.2 442.3,154.2 442.3,147.3 438.6,147.3 438.6,154.2 431.6,154.2 431.6,157.9 438.6,157.9 
		438.6,164.8 442.3,164.8 442.3,157.9 449.2,157.9 	"/>
	<polygon class="st15" points="460.5,90.7 457.7,87.9 450.3,95.3 442.9,87.9 440,90.7 447.5,98.1 440,105.5 442.9,108.4 450.3,101 
		457.7,108.4 460.5,105.5 453.1,98.1 	"/>
</g>
<g>
	<polygon class="st14" points="126,76.5 132.9,76.5 132.9,83.5 136.6,83.5 136.6,76.5 143.5,76.5 143.5,72.8 136.6,72.8 136.6,65.9 
		132.9,65.9 132.9,72.8 126,72.8 	"/>
	<polygon class="st15" points="114.6,140 117.5,142.8 124.9,135.4 132.3,142.8 135.1,140 127.7,132.6 135.1,125.2 132.3,122.3 
		124.9,129.7 117.5,122.3 114.6,125.2 122,132.6 	"/>
</g>
<g class="st16">
	<path class="st17" d="M234.6,301.3v3h-10.1v5h9v2.8h-9v5h10.4v3h-13.6v-18.9H234.6z"/>
	<path class="st17" d="M241.6,312.4v7.8h-3v-14.4h3v2.6c0.5-0.9,1.2-1.6,2-2.1c0.9-0.5,1.8-0.8,2.8-0.8c1.6,0,2.9,0.5,3.9,1.5
		s1.5,2.4,1.5,4.3v8.8h-3v-7.9c0-2.6-1.1-4-3.3-4c-1,0-2,0.3-2.7,1C242,310,241.6,311,241.6,312.4z"/>
	<path class="st17" d="M259.7,320.1l-5.8-14.4h3.1l4.4,10.9l4.4-10.9h3.1l-5.8,14.4H259.7z"/>
	<path class="st17" d="M271.3,305.8h3v14.4h-3V305.8z M274.3,303.9h-2.5l2.9-3.8l3,1.3L274.3,303.9z"/>
	<path class="st17" d="M290.4,320.1h-2.8v-1.9c-1.2,1.4-2.8,2.1-4.8,2.1c-1.5,0-2.7-0.4-3.7-1.3c-1-0.8-1.5-2-1.5-3.4
		s0.5-2.5,1.6-3.2s2.5-1.1,4.2-1.1h3.9v-0.5c0-1.9-1.1-2.9-3.2-2.9c-1.3,0-2.7,0.5-4.2,1.5l-1.4-1.9c1.7-1.4,3.7-2.1,5.9-2.1
		c1.7,0,3.1,0.4,4.1,1.3c1.1,0.9,1.6,2.2,1.6,4V320.1z M287.3,314.8v-1.2h-3.4c-2.2,0-3.3,0.7-3.3,2.1c0,0.7,0.3,1.2,0.8,1.6
		s1.3,0.6,2.3,0.6s1.8-0.3,2.5-0.8C287,316.4,287.3,315.7,287.3,314.8z"/>
	<path class="st17" d="M304.8,315.8c0,1.4-0.5,2.5-1.5,3.3c-1,0.8-2.3,1.2-3.8,1.2c-1,0-2.1-0.2-3.3-0.6c-1.1-0.4-2.1-0.9-3-1.6
		l1.5-2.3c1.7,1.3,3.3,1.9,4.9,1.9c0.7,0,1.2-0.2,1.6-0.5c0.4-0.3,0.6-0.7,0.6-1.2c0-0.7-1-1.4-2.9-1.9c-0.1-0.1-0.3-0.1-0.3-0.1
		c-3-0.8-4.5-2.2-4.5-4c0-1.3,0.5-2.4,1.6-3.2c1-0.8,2.4-1.2,4-1.2c1.7,0,3.2,0.5,4.7,1.5l-1.1,2.2c-1.2-0.8-2.4-1.2-3.8-1.2
		c-0.7,0-1.3,0.1-1.8,0.4c-0.5,0.3-0.7,0.7-0.7,1.2c0,0.5,0.2,0.8,0.7,1c0.3,0.2,0.8,0.3,1.4,0.5c0.6,0.1,1.1,0.3,1.6,0.4
		c0.4,0.1,0.9,0.3,1.3,0.5c0.4,0.2,0.9,0.4,1.4,0.8C304.3,313.5,304.8,314.5,304.8,315.8z"/>
</g>
<g class="st16">
	<path class="st17" d="M236.4,447.4c0,3.1-1.4,5.1-4.1,5.9l4.9,6.9h-4l-4.5-6.3h-4.2v6.3h-3.2v-18.9h7c2.9,0,4.9,0.5,6.2,1.5
		C235.8,443.7,236.4,445.2,236.4,447.4z M232.2,450.1c0.6-0.6,1-1.5,1-2.7c0-1.2-0.3-2.1-1-2.5s-1.9-0.7-3.6-0.7h-4v6.8h4
		C230.3,450.9,231.5,450.6,232.2,450.1z"/>
	<path class="st17" d="M254,454.3h-11.3c0.1,1,0.5,1.9,1.4,2.5c0.9,0.6,1.9,1,3,1c1.8,0,3.2-0.6,4.1-1.7l1.7,1.9
		c-1.5,1.6-3.6,2.4-6,2.4c-2,0-3.7-0.7-5.1-2c-1.4-1.3-2.1-3.1-2.1-5.4s0.7-4.1,2.2-5.4c1.4-1.3,3.1-2,5.1-2c2,0,3.6,0.6,5,1.8
		c1.4,1.2,2.1,2.8,2.1,4.9V454.3z M242.7,451.9h8.2c0-1.2-0.4-2.1-1.1-2.8c-0.8-0.6-1.7-1-2.8-1s-2.1,0.3-3,1
		C243.1,449.8,242.7,450.7,242.7,451.9z"/>
	<path class="st17" d="M263.6,460.3c-2,0-3.7-0.7-5.2-2s-2.2-3.1-2.2-5.3c0-2.2,0.8-4,2.3-5.4c1.5-1.4,3.3-2.1,5.5-2.1
		c2.2,0,4,0.7,5.5,2.2l-1.8,2.2c-1.2-1.1-2.5-1.6-3.8-1.6c-1.3,0-2.4,0.4-3.3,1.3c-0.9,0.8-1.4,1.9-1.4,3.2s0.5,2.4,1.4,3.4
		s2,1.4,3.4,1.4c1.3,0,2.6-0.6,3.8-1.8l1.8,1.9C268,459.5,265.9,460.3,263.6,460.3z"/>
	<path class="st17" d="M273,442.9c-0.4-0.4-0.6-0.8-0.6-1.4c0-0.5,0.2-1,0.6-1.3s0.8-0.6,1.4-0.6c0.5,0,1,0.2,1.4,0.6
		s0.6,0.8,0.6,1.3c0,0.5-0.2,1-0.6,1.4s-0.8,0.6-1.4,0.6C273.8,443.5,273.4,443.3,273,442.9z M275.9,460.1h-3v-14.4h3V460.1z"/>
	<path class="st17" d="M287.9,445.5c1.9,0,3.6,0.7,4.9,2c1.4,1.3,2.1,3.1,2.1,5.3s-0.7,4-2,5.4c-1.4,1.4-2.9,2.1-4.8,2.1
		s-3.4-0.8-4.9-2.4v2.2h-3v-20h3v8.2C284.4,446.5,286,445.5,287.9,445.5z M283.2,453c0,1.4,0.4,2.5,1.2,3.4c0.8,0.9,1.8,1.3,3,1.3
		s2.2-0.4,3.1-1.3c0.9-0.9,1.3-2,1.3-3.4s-0.4-2.5-1.3-3.4c-0.9-0.9-1.9-1.4-3.1-1.4c-1.2,0-2.2,0.5-3.1,1.4
		C283.6,450.5,283.2,451.6,283.2,453z"/>
	<path class="st17" d="M311.7,454.3h-11.3c0.1,1,0.5,1.9,1.4,2.5c0.9,0.6,1.9,1,3,1c1.8,0,3.2-0.6,4.1-1.7l1.7,1.9
		c-1.5,1.6-3.6,2.4-6,2.4c-2,0-3.7-0.7-5.1-2c-1.4-1.3-2.1-3.1-2.1-5.4s0.7-4.1,2.2-5.4c1.4-1.3,3.1-2,5.1-2c2,0,3.6,0.6,5,1.8
		c1.4,1.2,2.1,2.8,2.1,4.9V454.3z M300.5,451.9h8.2c0-1.2-0.4-2.1-1.1-2.8c-0.8-0.6-1.7-1-2.8-1s-2.1,0.3-3,1
		C300.9,449.8,300.5,450.7,300.5,451.9z"/>
	<path class="st17" d="M325.3,455.8c0,1.4-0.5,2.5-1.5,3.3c-1,0.8-2.3,1.2-3.8,1.2c-1,0-2.1-0.2-3.3-0.6c-1.1-0.4-2.1-0.9-3-1.6
		l1.5-2.3c1.7,1.3,3.3,1.9,4.9,1.9c0.7,0,1.2-0.2,1.6-0.5c0.4-0.3,0.6-0.7,0.6-1.2c0-0.7-1-1.4-2.9-1.9c-0.1-0.1-0.3-0.1-0.3-0.1
		c-3-0.8-4.5-2.2-4.5-4c0-1.3,0.5-2.4,1.6-3.2c1-0.8,2.4-1.2,4-1.2c1.7,0,3.2,0.5,4.7,1.5l-1.1,2.2c-1.2-0.8-2.4-1.2-3.8-1.2
		c-0.7,0-1.3,0.1-1.8,0.4c-0.5,0.3-0.7,0.7-0.7,1.2c0,0.5,0.2,0.8,0.7,1c0.3,0.2,0.8,0.3,1.4,0.5c0.6,0.1,1.1,0.3,1.6,0.4
		c0.4,0.1,0.9,0.3,1.3,0.5c0.4,0.2,0.9,0.4,1.4,0.8C324.8,453.5,325.3,454.5,325.3,455.8z"/>
</g>
</svg>
