<?xml version="1.0" encoding="utf-8"?>
<!-- Generator: Adobe Illustrator 24.0.1, SVG Export Plug-In . SVG Version: 6.00 Build 0)  -->
<svg version="1.1" id="Capa_1" xmlns="http://www.w3.org/2000/svg" xmlns:xlink="http://www.w3.org/1999/xlink" x="0px" y="0px"
	 viewBox="0 0 677.8 681" style="enable-background:new 0 0 677.8 681;" xml:space="preserve">
<style type="text/css">
	.st0{opacity:0.4;fill:#C3E5D9;enable-background:new    ;}
	.st1{fill:#7FB2FF;}
	.st2{fill:#ABD0FF;}
	.st3{fill:#FFEC66;}
	.st4{fill:#FFA600;}
	.st5{fill:#FFD766;}
	.st6{fill:#FFFFFF;}
	.st7{fill:#0948F0;}
	.st8{fill:#FD5C00;}
	.st9{fill:#FFC5E6;}
	.st10{fill:#002B9C;}
	.st11{fill:#00B7FF;}
	.st12{fill:#FFD165;}
	.st13{fill:#3482FF;}
</style>
<path class="st0" d="M67.9,280.6c118-69.1,168.7-168.4,225.5-201.7C350.3,45.6,486,3.4,615.9,225.3
	c129.9,221.9-11.7,348.5-74.2,385.1C248.8,782-141.1,403,67.9,280.6z"/>
<g>
	<g>
		<g>
			<g>
				<path class="st1" d="M246.6,529.2c0,0-86.8-42.8-101.8-65.1c-14.9-22.3,7-23.6,7-23.6s-38.7-37.7-33.3-53.6
					c5.5-15.9,25.8-0.7,25.8-0.7s-25.2-56.1-13.4-61.6c21.9-10.4,52.6,49.3,52.6,49.3s-6.6-25.9,8.5-25.1
					c22.7,1.3,21.8,59.9,21.8,59.9s2.6-22.5,16.3-15.2C254.6,406.6,246.6,529.2,246.6,529.2z"/>
			</g>
			<path class="st2" d="M235,384.5c-10.7-5.9-21.3,11.4-21.3,11.4s1.1-45.8-21.6-47.1c-15.1-0.8-8.5,25.1-8.5,25.1
				s-30.7-59.7-52.6-49.3l115.8,203.7C247.5,514.1,256.1,396.2,235,384.5z"/>
			<g>
				<path class="st1" d="M244.4,529.8c0,0-71,8.8-89.4,1c-18.4-7.9-5.2-17.6-5.2-17.6s-39.5-7.8-42.5-19.9
					c-3-12.1,15.8-10.9,15.8-10.9s-38.5-24.7-33.4-33c9.4-15.4,52.8,9.4,52.8,9.4s-14.6-13.5-4.9-19.1c14.7-8.4,37.9,28.5,37.9,28.5
					s-1.4-9.1,10.1-10.1C206.2,456.3,244.4,529.8,244.4,529.8z"/>
			</g>
			<path class="st2" d="M184.3,445.7c-11.5,1-11.3,12.2-11.3,12.2s-21.2-33.5-35.9-25.1c-9.7,5.6,1.8,24,1.8,24S99,434,89.6,449.4
				l155,80C239.3,520.2,203.6,444,184.3,445.7z"/>
		</g>
		<g>
			<path class="st3" d="M233.9,535.3h-71.6c-2.9,0-5.2-2.3-5.2-5.2l0,0c0-2.9,2.3-5.2,5.2-5.2h71.6c2.9,0,5.2,2.3,5.2,5.2l0,0
				C239.2,533,236.8,535.3,233.9,535.3z"/>
			<path class="st4" d="M232.5,524.9h-71.6c-2.9,0-5.2-2.3-5.2-5.2l0,0c0-2.9,2.3-5.2,5.2-5.2h71.6c2.9,0,5.2,2.3,5.2,5.2l0,0
				C237.7,522.6,235.4,524.9,232.5,524.9z"/>
			<path class="st5" d="M240.9,514.5h-71.6c-2.9,0-5.2-2.3-5.2-5.2l0,0c0-2.9,2.3-5.2,5.2-5.2h71.6c2.9,0,5.2,2.3,5.2,5.2l0,0
				C246.1,512.2,243.8,514.5,240.9,514.5z"/>
			<path class="st3" d="M232.2,504.1h-71.6c-2.9,0-5.2-2.3-5.2-5.2l0,0c0-2.9,2.3-5.2,5.2-5.2h71.6c2.9,0,5.2,2.3,5.2,5.2l0,0
				C237.4,501.7,235.1,504.1,232.2,504.1z"/>
			<path class="st4" d="M230.8,493.7h-71.6c-2.9,0-5.2-2.3-5.2-5.2l0,0c0-2.9,2.3-5.2,5.2-5.2h71.6c2.9,0,5.2,2.3,5.2,5.2l0,0
				C236,491.3,233.6,493.7,230.8,493.7z"/>
			<path class="st3" d="M239.2,483.3h-71.6c-2.9,0-5.2-2.3-5.2-5.2l0,0c0-2.9,2.3-5.2,5.2-5.2h71.6c2.9,0,5.2,2.3,5.2,5.2l0,0
				C244.4,480.9,242,483.3,239.2,483.3z"/>
		</g>
	</g>
	<g>
		<path class="st1" d="M356,537.5h198.4c15.6,0,28.3-12.7,28.3-28.3v-426c0-15.6-12.7-28.3-28.3-28.3H356
			c-15.6,0-28.3,12.7-28.3,28.3v426C327.7,524.8,340.4,537.5,356,537.5z"/>
		<path class="st6" d="M570.4,459.1V102.3c0-15-12.1-27.1-27.1-27.1H370.9c-15,0-27.1,12.1-27.1,27.1v356.8
			c0,15,12.1,27.1,27.1,27.1h172.4C558.3,486.2,570.4,474,570.4,459.1z"/>
	</g>
	<g>
		<path class="st7" d="M379.5,158.5c63.2-39,117.1-38.7,179.2-8.9c4,1.9,6.6,6,6.5,10.5l0,2.6c-0.1,7.9-8,13.3-15.4,10.6
			c-53.7-19.6-93.8-30-158.9,5.1c-7.2,3.9-15.9-0.8-16.8-8.9v0C373.6,165,375.7,160.8,379.5,158.5z"/>
		<path class="st7" d="M390.6,128.3l-33.8,51.8c-1,1.6,0,3.7,1.9,3.8l59.2,5.1c2.2,0.2,3.8-2.1,2.9-4.1
			c-14.2-18.2-22.4-37-25.9-56.3C394.1,126.9,391.7,126.7,390.6,128.3z"/>
	</g>
	<g>
		<path class="st8" d="M280.3,516c0,0-1.2,6.9-1.8,13.8c-0.2,2.7,1.8,5,4.5,5.1c9.1,0.4,28.6,1.1,35.6,0.8c1.1,0,1.7-1.1,1.3-2.1
			l0,0c-0.3-0.8-1-1.5-1.8-1.9l-32.2-14.8L280.3,516z"/>
		<path class="st9" d="M279.3,511.9l1,8.3c0,0,5.6,2.6,9.5-0.3l-2.3-9.2L279.3,511.9z"/>
		<path class="st10" d="M280,356.5c-0.4,2.2-2.3,107.8,9,155.1c0.2,0.8-0.2,1.6-0.9,1.9c-1.7,0.7-5.1,1.7-9.2,1.9
			c-1.3,0-2.4-0.8-2.7-2c-3.2-11-18.7-66-20.7-118.5c-2.3-58.7,0-2,0-2l1.3-36.3L280,356.5z"/>
		<path class="st8" d="M243.2,519.6c0,0-1.9,3.5-3.8,12.8c-0.3,1.7,0.8,3.3,2.5,3.4c3,0.3,7.6,0.7,11.4,0.7c1.7,0,3-1.5,2.8-3.2
			c-0.4-3.4-1.7-8.9-5.6-13.3L243.2,519.6z"/>
		<path class="st9" d="M241.5,509l2.3,12.5c0,0,2.3,1.7,6.8,0.5l-1.1-13.5L241.5,509z"/>
		<path class="st10" d="M235.3,359.7c-9.2,55.7,2,137.7,5.8,153.7c0.2,1,1,1.7,2,1.9c1.7,0.3,4.5,0.5,7.2-0.3
			c0.9-0.3,1.6-1.1,1.6-2.1c0.5-13-0.4-92.6,8.2-124.1c0.4-1.6,1.4-3,2.8-3.9l16.7-11.9l1.3-19.2L235.3,359.7z"/>
		<path class="st11" d="M289.7,256.1c0,0-42.4-10.6-72.1,5.1l17.7,98.4c0,0,28.1,2.3,45.6-3.3L289.7,256.1z"/>
		<path class="st9" d="M242.2,226.7l-3.2,27.9c-0.2,0.4-0.1,0.9,0.2,1.2c2.2,1.7,10.1,6.8,21.4,1.8c1.2-0.5,2.1-1.5,2.4-2.8
			l-4.6-24.2L242.2,226.7z"/>
		<g>
			<path class="st9" d="M268.2,212.1c0,0,4.1,20.2,0.9,26.9c-3.3,6.7-14.6,2.8-23-5.9l-1.5-20.9L268.2,212.1z"/>
			<path class="st8" d="M249.3,224c0.5-0.1,0.8-0.5,0.6-1c-0.4-1.4-1.1-4.1-1-6.2c0,0-1.4-1.6,5-1.2c6.3,0.3,15.8,0.7,19.1-3.8
				c3.3-4.4,2.1-18.1-8.3-10.5c-0.4,0.3-1,0.1-1.1-0.3c-0.8-2-3-6.3-8.2-5.6c-4.8,0.7-6.2,3.6-6.6,5.2c-0.1,0.5-0.6,0.7-1.1,0.5
				c-2-1-7.1-2.9-11,1.7c-3.3,3.8-2.7,6.6-1.9,8.2c0.3,0.5-0.1,1.1-0.7,1.1c-1.5,0-3.7,0.7-4.5,4c-1.1,4.6,4.1,5.7,5.6,6
				c0.2,0,0.5,0.2,0.6,0.4c0.8,1.7,4.7,9.2,10.6,11.7c0.5,0.2,1.1-0.2,1-0.7l-0.4-8.4c0-0.4,0.3-0.7,0.7-0.8L249.3,224z"/>
			<path class="st9" d="M250,225.4c0,0-5.3-6.5-6.9-2.8c-1.6,3.7,4.3,7.3,7.9,6.8L250,225.4z"/>
		</g>
		<path class="st9" d="M311.9,275.5c0,0,16,7.4,34.7-12.4c12.8-13.6,20.6-5.2,23.1,0.2c2.5,5.5-3.4,5-5.5,5c-2.1,0-2.3-6-6-5.1
			c-3.6,0.8-2.6-0.3-2.8,3.4c-0.2,3.7-19.8,44.9-44,24.8L311.9,275.5z"/>
		<path class="st11" d="M289.7,256.1l25.8,19.3c0,0,0.5,14.5-3,21.3l-28.7-7.1L289.7,256.1z"/>
		<path class="st9" d="M209.9,315.3c0,0,2.9,37,27.2,38.6c0,0,10.4-1,15,2.6c4.5,3.6,2.3,9,2.3,9l-19.6-2.4c0,0-28.1,4.7-45-42.3
			L209.9,315.3z"/>
		<path class="st11" d="M217.7,261.3c0,0-33.3,19.8-27.8,59.5c0,0,11.9,5.2,20.6-1.8c0,0,6.7-25.8,21.4-27.1L217.7,261.3z"/>
	</g>
	<g>
		<g>
			
				<ellipse transform="matrix(0.7071 -0.7071 0.7071 0.7071 -68.6969 383.0602)" class="st4" cx="428" cy="274.5" rx="46.7" ry="46.7"/>
			
				<ellipse transform="matrix(0.2669 -0.9637 0.9637 0.2669 49.2903 613.7079)" class="st12" cx="428" cy="274.5" rx="45.2" ry="45.2"/>
			<path class="st6" d="M390.8,256.7c-0.2,0-0.3,0-0.5-0.1c-0.5-0.3-0.7-0.9-0.4-1.4c7.3-14.5,21.9-23.5,38.2-23.5
				c2.6,0,5.2,0.2,7.7,0.7c0.5,0.1,0.9,0.6,0.8,1.2c-0.1,0.5-0.6,0.9-1.2,0.8c-2.4-0.4-4.9-0.7-7.3-0.7c-15.5,0-29.4,8.6-36.4,22.4
				C391.5,256.5,391.2,256.7,390.8,256.7z"/>
			
				<ellipse transform="matrix(0.9951 -9.853845e-02 9.853845e-02 0.9951 -25.0533 43.6165)" class="st3" cx="429" cy="275.4" rx="38.2" ry="38.2"/>
			<g>
				<path class="st4" d="M425.3,303.9v-4.2c-4.3-0.2-8.6-1.2-11.7-2.5c-1.1-0.5-1.6-1.7-1.3-2.8l1.1-3.9c0.4-1.4,1.9-2.2,3.3-1.6
					c3,1.3,6.8,2.3,10.8,2.3c4.2,0,7.3-1.4,7.3-4.3c0-2.6-2.4-4.2-8.2-5.7c-8.3-2.3-14.2-5.9-14.2-13.2c0-6.6,4.8-11.6,13.2-13v-4.2
					c0-1.3,1.1-2.4,2.4-2.4h2.4c1.3,0,2.4,1.1,2.4,2.4v3.7c4,0.2,6.9,0.8,9.3,1.7c1.2,0.4,1.8,1.7,1.5,2.9l-1,3.6
					c-0.4,1.4-1.9,2.1-3.2,1.6c-2.1-0.8-5.2-1.6-9.1-1.6c-5,0-6.4,2.1-6.4,3.9c0,2.3,3,3.8,9.4,5.8c9.2,2.8,13,6.6,13,13.5
					c0,6.3-4.7,12-13.7,13.4v4.7c0,1.3-1.1,2.4-2.4,2.4h-2.4C426.4,306.3,425.3,305.2,425.3,303.9z"/>
			</g>
		</g>
		<g>
			
				<ellipse transform="matrix(0.4601 -0.8879 0.8879 0.4601 -12.6275 625.2815)" class="st4" cx="507.8" cy="323" rx="29.2" ry="29.2"/>
			
				<ellipse transform="matrix(0.9239 -0.3827 0.3827 0.9239 -84.9617 218.9156)" class="st12" cx="507.8" cy="323" rx="28.2" ry="28.2"/>
			<path class="st6" d="M484.6,312.4c-0.2,0-0.3,0-0.5-0.1c-0.5-0.3-0.8-0.9-0.5-1.5c4.6-9.2,13.9-14.9,24.2-14.9
				c1.6,0,3.3,0.1,4.9,0.4c0.6,0.1,1,0.7,0.9,1.3c-0.1,0.6-0.7,1-1.3,0.9c-1.5-0.3-3-0.4-4.5-0.4c-9.5,0-18,5.3-22.3,13.7
				C485.3,312.2,485,312.4,484.6,312.4z"/>
			
				<ellipse transform="matrix(0.7071 -0.7071 0.7071 0.7071 -79.9351 454.2945)" class="st3" cx="508.4" cy="323.6" rx="23.9" ry="23.9"/>
			<g>
				<path class="st4" d="M506.1,341.4v-2.6c-2.7-0.1-5.4-0.7-7.3-1.6c-0.7-0.3-1-1.1-0.8-1.8l0.7-2.4c0.2-0.9,1.2-1.3,2.1-1
					c1.9,0.8,4.2,1.4,6.7,1.4c2.6,0,4.5-0.9,4.5-2.7c0-1.6-1.5-2.6-5.1-3.6c-5.2-1.4-8.9-3.7-8.9-8.2c0-4.1,3-7.2,8.2-8.1v-2.6
					c0-0.8,0.7-1.5,1.5-1.5h1.5c0.8,0,1.5,0.7,1.5,1.5v2.3c2.5,0.1,4.3,0.5,5.8,1c0.7,0.3,1.1,1.1,0.9,1.8l-0.6,2.2
					c-0.2,0.9-1.2,1.3-2,1c-1.3-0.5-3.2-1-5.7-1c-3.1,0-4,1.3-4,2.4c0,1.4,1.9,2.4,5.9,3.6c5.7,1.7,8.1,4.1,8.1,8.4
					c0,3.9-2.9,7.5-8.6,8.3v2.9c0,0.8-0.7,1.5-1.5,1.5h-1.5C506.8,342.9,506.1,342.2,506.1,341.4z"/>
			</g>
		</g>
		<g>
			
				<ellipse transform="matrix(0.5257 -0.8507 0.8507 0.5257 -89.4263 552.4734)" class="st4" cx="450.7" cy="356.4" rx="24.7" ry="24.7"/>
			
				<ellipse transform="matrix(0.9665 -0.2567 0.2567 0.9665 -76.3851 127.6326)" class="st12" cx="450.7" cy="356.4" rx="23.9" ry="23.9"/>
			<path class="st6" d="M431,347.4c-0.1,0-0.3,0-0.4-0.1c-0.5-0.2-0.6-0.8-0.4-1.2c3.9-7.8,11.8-12.6,20.5-12.6
				c1.4,0,2.8,0.1,4.1,0.4c0.5,0.1,0.8,0.6,0.7,1.1c-0.1,0.5-0.6,0.8-1.1,0.7c-1.2-0.2-2.5-0.3-3.8-0.3c-8,0-15.3,4.5-18.9,11.6
				C431.7,347.2,431.4,347.4,431,347.4z"/>
			
				<ellipse transform="matrix(0.6154 -0.7882 0.7882 0.6154 -107.8024 492.971)" class="st3" cx="451.3" cy="357" rx="20.2" ry="20.2"/>
			<g>
				<path class="st4" d="M449.3,372v-2.2c-2.3-0.1-4.6-0.6-6.2-1.3c-0.6-0.3-0.9-0.9-0.7-1.5l0.6-2c0.2-0.8,1-1.1,1.7-0.8
					c1.6,0.7,3.6,1.2,5.7,1.2c2.2,0,3.9-0.7,3.9-2.3c0-1.4-1.3-2.2-4.3-3c-4.4-1.2-7.5-3.1-7.5-7c0-3.5,2.5-6.1,7-6.9v-2.2
					c0-0.7,0.6-1.3,1.3-1.3h1.3c0.7,0,1.3,0.6,1.3,1.3v2c2.1,0.1,3.7,0.4,4.9,0.9c0.6,0.2,1,0.9,0.8,1.5l-0.5,1.9
					c-0.2,0.7-1,1.1-1.7,0.9c-1.1-0.4-2.7-0.9-4.8-0.9c-2.6,0-3.4,1.1-3.4,2.1c0,1.2,1.6,2,5,3.1c4.9,1.5,6.9,3.5,6.9,7.1
					c0,3.3-2.5,6.3-7.3,7.1v2.5c0,0.7-0.6,1.3-1.3,1.3h-1.3C449.9,373.3,449.3,372.7,449.3,372z"/>
			</g>
		</g>
		<g>
			
				<ellipse transform="matrix(0.9995 -3.120426e-02 3.120426e-02 0.9995 -7.107 16.3159)" class="st4" cx="519.2" cy="235.9" rx="38.3" ry="38.3"/>
			
				<ellipse transform="matrix(0.5257 -0.8507 0.8507 0.5257 45.602 553.5125)" class="st12" cx="519.2" cy="235.9" rx="37" ry="37"/>
			<path class="st6" d="M488.7,221.6c-0.2,0-0.3,0-0.5-0.1c-0.5-0.3-0.8-0.9-0.5-1.5c6-12,18.1-19.4,31.5-19.4
				c2.1,0,4.3,0.2,6.4,0.6c0.6,0.1,1,0.7,0.9,1.3c-0.1,0.6-0.7,1-1.3,0.9c-2-0.4-4-0.5-6-0.5c-12.6,0-23.9,7-29.5,18.2
				C489.5,221.4,489.1,221.6,488.7,221.6z"/>
			
				<ellipse transform="matrix(0.9853 -0.1707 0.1707 0.9853 -32.7629 92.2219)" class="st3" cx="520" cy="236.7" rx="31.3" ry="31.3"/>
			<g>
				<path class="st4" d="M516.9,259.9v-3.4c-3.6-0.1-7.1-1-9.6-2.1c-0.9-0.4-1.3-1.4-1.1-2.3l0.9-3.2c0.3-1.2,1.6-1.8,2.7-1.3
					c2.5,1,5.5,1.9,8.8,1.9c3.4,0,6-1.2,6-3.5c0-2.1-2-3.4-6.7-4.7c-6.8-1.9-11.7-4.8-11.7-10.8c0-5.4,3.9-9.5,10.8-10.6v-3.4
					c0-1.1,0.9-2,2-2h2c1.1,0,2,0.9,2,2v3.1c3.3,0.1,5.7,0.7,7.6,1.4c1,0.3,1.5,1.4,1.2,2.4l-0.8,2.9c-0.3,1.1-1.5,1.8-2.6,1.3
					c-1.7-0.7-4.2-1.3-7.4-1.3c-4.1,0-5.2,1.7-5.2,3.2c0,1.9,2.4,3.1,7.7,4.8c7.5,2.3,10.7,5.4,10.7,11c0,5.2-3.8,9.8-11.2,11v3.8
					c0,1.1-0.9,2-2,2h-2C517.8,261.9,516.9,261,516.9,259.9z"/>
			</g>
		</g>
	</g>
	<g>
		<path class="st7" d="M570.1,397.2c-55.2,49.7-108.3,59.1-174.7,40.9c-4.3-1.2-7.5-4.7-8.3-9.1l-0.4-2.5
			c-1.3-7.8,5.4-14.5,13.2-13.2c56.3,9.7,97.7,12.7,155.4-33.5c6.3-5.1,15.8-2.1,18.1,5.7l0,0C574.6,389.7,573.3,394.3,570.1,397.2z
			"/>
		<path class="st7" d="M564.5,428.9l24-57c0.7-1.7-0.7-3.6-2.5-3.4l-59.2,5.6c-2.2,0.2-3.4,2.7-2.1,4.5
			c17.2,15.4,28.7,32.4,35.5,50.7C561.3,431,563.8,430.7,564.5,428.9z"/>
	</g>
</g>
<g>
	<polygon class="st13" points="618.2,246.2 611.3,246.2 611.3,239.3 607.6,239.3 607.6,246.2 600.6,246.2 600.6,249.9 607.6,249.9 
		607.6,256.8 611.3,256.8 611.3,249.9 618.2,249.9 	"/>
	<polygon class="st1" points="629.5,182.7 626.7,179.9 619.3,187.3 611.9,179.9 609,182.7 616.5,190.1 609,197.5 611.9,200.4 
		619.3,193 626.7,200.4 629.5,197.5 622.1,190.1 	"/>
</g>
<g>
	<polygon class="st13" points="101,224.5 107.9,224.5 107.9,231.5 111.6,231.5 111.6,224.5 118.5,224.5 118.5,220.8 111.6,220.8 
		111.6,213.9 107.9,213.9 107.9,220.8 101,220.8 	"/>
	<polygon class="st1" points="89.6,288 92.5,290.8 99.9,283.4 107.3,290.8 110.1,288 102.7,280.6 110.1,273.2 107.3,270.3 
		99.9,277.7 92.5,270.3 89.6,273.2 97,280.6 	"/>
</g>
<g>
	<path class="st7" d="M548.4,626h-419c-22.1,0-40-17.9-40-40v0c0-22.1,17.9-40,40-40h419c22.1,0,40,17.9,40,40v0
		C588.4,608.1,570.5,626,548.4,626z"/>
	<path class="st6" d="M295,592.6c0.2,0,0.2,0,0.4,0.2l1.1,1.1c-0.7,0.9-1.8,1.6-2.9,2.2c-1.1,0.5-2.5,0.7-4,0.7
		c-1.4,0-2.7-0.2-3.8-0.7c-1.1-0.5-2-1.1-2.9-2c-0.7-0.9-1.4-1.8-1.8-3.1c-0.4-1.3-0.7-2.5-0.7-4c0-1.4,0.2-2.7,0.7-4
		c0.5-1.3,1.1-2.2,2-3.1c0.9-0.9,1.8-1.4,3.1-2c1.3-0.5,2.5-0.7,4-0.7c1.4,0,2.5,0.2,3.6,0.7c1.1,0.4,2,1.1,2.7,1.8l-0.9,1.3
		l-0.2,0.2c0,0-0.2,0-0.4,0c-0.2,0-0.2,0-0.4-0.2c-0.2,0-0.4-0.2-0.5-0.4c-0.2-0.2-0.4-0.2-0.5-0.4c-0.2-0.2-0.5-0.4-0.9-0.4
		c-0.4-0.2-0.7-0.2-1.1-0.4c-0.4,0-0.9-0.2-1.4-0.2c-1.1,0-2,0.2-2.9,0.5c-0.9,0.4-1.6,0.9-2.2,1.4c-0.5,0.7-1.1,1.4-1.4,2.3
		c-0.4,0.9-0.5,2-0.5,3.1c0,1.3,0.2,2.2,0.5,3.2c0.4,0.9,0.7,1.8,1.4,2.3c0.5,0.7,1.3,1.1,2.2,1.4c0.7,0.4,1.6,0.5,2.5,0.5
		c0.5,0,1.1,0,1.4-0.2c0.5,0,0.9-0.2,1.3-0.4c0.4-0.2,0.7-0.4,1.1-0.5c0.4-0.2,0.7-0.5,1.1-0.7C294.9,592.6,294.9,592.6,295,592.6z
		 M305,582.9c0.9,0,1.8,0.2,2.7,0.5c0.7,0.4,1.4,0.7,2,1.4c0.5,0.5,0.9,1.3,1.3,2.2c0.4,0.9,0.5,1.8,0.5,2.9s-0.2,2-0.5,2.9
		c-0.4,0.9-0.7,1.6-1.3,2.2c-0.5,0.5-1.3,1.1-2,1.4c-0.7,0.4-1.6,0.5-2.7,0.5s-1.8-0.2-2.7-0.5c-0.7-0.4-1.4-0.7-2-1.4
		c-0.5-0.5-0.9-1.3-1.3-2.2c-0.4-0.9-0.5-1.8-0.5-2.9s0.2-2,0.5-2.9c0.4-0.9,0.7-1.6,1.3-2.2c0.5-0.5,1.3-1.1,2-1.4
		C303,583.1,303.9,582.9,305,582.9z M305,594.8c1.3,0,2.4-0.4,3.1-1.3c0.7-0.9,0.9-2.2,0.9-3.8c0-1.6-0.4-2.9-0.9-3.8
		c-0.7-0.9-1.6-1.3-3.1-1.3c-0.7,0-1.3,0.2-1.8,0.4c-0.5,0.2-0.9,0.5-1.3,1.1c-0.4,0.4-0.5,0.9-0.7,1.6c-0.2,0.5-0.2,1.3-0.2,2.2
		c0,0.7,0,1.4,0.2,2.2c0.2,0.5,0.4,1.1,0.7,1.6c0.4,0.4,0.7,0.7,1.3,0.9C303.7,594.8,304.3,594.8,305,594.8z M314.4,596.6v-13.5h1.4
		c0.4,0,0.5,0.2,0.7,0.5l0.2,1.4c0.5-0.7,1.3-1.1,2-1.6c0.7-0.4,1.6-0.5,2.5-0.5c0.7,0,1.4,0.2,2,0.4c0.5,0.2,1.1,0.5,1.4,1.1
		c0.4,0.4,0.7,0.9,0.9,1.6c0.2,0.5,0.4,1.3,0.4,2.2v8.6h-2.4v-8.6c0-1.1-0.2-1.8-0.7-2.3c-0.5-0.5-1.1-0.9-2.2-0.9
		c-0.7,0-1.4,0.2-2,0.5c-0.5,0.4-1.1,0.7-1.6,1.4v9.9h-2.7V596.6z M333.3,596.7c-1.1,0-1.8-0.4-2.5-0.9c-0.5-0.5-0.9-1.4-0.9-2.5
		V585h-1.4c-0.2,0-0.2,0-0.4-0.2c-0.2,0-0.2-0.2-0.2-0.4v-0.9l2.2-0.4l0.5-4.1c0-0.2,0-0.2,0.2-0.4c0.2,0,0.2-0.2,0.4-0.2h1.3v4.7
		h3.8v1.8h-3.8v8.1c0,0.5,0.2,0.9,0.4,1.3c0.4,0.4,0.5,0.4,1.1,0.4c0.2,0,0.5,0,0.7-0.2c0.2,0,0.4-0.2,0.5-0.2
		c0.2,0,0.2-0.2,0.4-0.2c0.2,0,0.2-0.2,0.2-0.2c0.2,0,0.2,0,0.4,0.2l0.7,1.1c-0.4,0.4-0.9,0.7-1.4,0.9
		C334.5,596.6,333.8,596.7,333.3,596.7z M341.8,583.1v13.5h-2.4v-13.5H341.8z M342.3,578.9c0,0.2,0,0.4-0.2,0.7
		c0,0.2-0.2,0.4-0.4,0.5c-0.2,0.2-0.4,0.2-0.5,0.4c-0.2,0-0.4,0.2-0.7,0.2c-0.2,0-0.4,0-0.7-0.2c-0.2,0-0.4-0.2-0.5-0.4
		c-0.2-0.2-0.2-0.4-0.4-0.5c0-0.2-0.2-0.4-0.2-0.7c0-0.4,0-0.4,0.2-0.7c0-0.2,0.2-0.4,0.4-0.5c0.2-0.2,0.4-0.4,0.5-0.4
		c0.2,0,0.4-0.2,0.7-0.2c0.2,0,0.4,0,0.7,0.2c0.2,0,0.4,0.2,0.5,0.4c0.2,0.2,0.4,0.4,0.4,0.5C342.3,578.4,342.3,578.6,342.3,578.9z
		 M345.9,596.6v-13.5h1.5c0.4,0,0.5,0.2,0.7,0.5l0.2,1.4c0.5-0.7,1.3-1.1,2-1.6c0.7-0.4,1.6-0.5,2.5-0.5c0.7,0,1.4,0.2,2,0.4
		c0.5,0.2,1.1,0.5,1.4,1.1c0.4,0.4,0.7,0.9,0.9,1.6c0.2,0.5,0.4,1.3,0.4,2.2v8.6h-2.4v-8.6c0-1.1-0.2-1.8-0.7-2.3
		c-0.5-0.5-1.1-0.9-2.2-0.9c-0.7,0-1.4,0.2-2,0.5c-0.5,0.4-1.1,0.7-1.6,1.4v9.9h-2.7V596.6z M362.8,583.1v8.6c0,1.1,0.2,1.8,0.7,2.3
		c0.5,0.5,1.3,0.9,2.2,0.9c0.7,0,1.3-0.2,2-0.5c0.5-0.4,1.3-0.7,1.6-1.4v-9.9h2.4v13.5h-1.5c-0.4,0-0.5-0.2-0.7-0.5l-0.2-1.4
		c-0.5,0.7-1.3,1.1-2,1.6c-0.7,0.4-1.6,0.5-2.5,0.5c-0.7,0-1.4-0.2-2-0.4s-1.1-0.5-1.4-1.1c-0.4-0.4-0.7-0.9-0.9-1.6
		c-0.2-0.5-0.4-1.3-0.4-2.2v-8.6h2.7V583.1z M385.6,596.6h-1.1c-0.2,0-0.4,0-0.5-0.2c-0.2,0-0.2-0.2-0.4-0.5l-0.2-1.3
		c-0.4,0.4-0.7,0.5-1.1,0.9c-0.4,0.2-0.7,0.5-1.1,0.7c-0.4,0.2-0.7,0.4-1.3,0.4c-0.4,0-0.9,0.2-1.4,0.2c-0.5,0-1.1,0-1.5-0.2
		c-0.5-0.2-0.9-0.4-1.3-0.7c-0.4-0.4-0.5-0.7-0.7-1.1c-0.2-0.5-0.4-0.9-0.4-1.6c0-0.5,0.2-1.1,0.4-1.4c0.4-0.5,0.7-0.9,1.5-1.3
		c0.7-0.4,1.4-0.7,2.5-0.9c1.1-0.2,2.4-0.4,3.8-0.4v-1.1c0-1.1-0.2-1.8-0.7-2.3c-0.4-0.5-1.1-0.7-2-0.7c-0.5,0-1.1,0-1.5,0.2
		c-0.4,0.2-0.7,0.4-1.1,0.5c-0.4,0.2-0.5,0.4-0.7,0.5c-0.2,0.2-0.4,0.2-0.5,0.2c-0.2,0-0.4,0-0.4-0.2c-0.2,0-0.2-0.2-0.4-0.4
		l-0.4-0.7c0.7-0.7,1.6-1.3,2.4-1.6c0.9-0.4,1.8-0.5,2.9-0.5c0.7,0,1.4,0.2,2,0.4c0.5,0.2,1.1,0.5,1.4,1.1c0.4,0.4,0.7,0.9,0.9,1.6
		c0.2,0.5,0.4,1.3,0.4,2v8.5H385.6z M379.5,595.1c0.4,0,0.7,0,1.1-0.2c0.4,0,0.7-0.2,0.9-0.4c0.4-0.2,0.5-0.4,0.9-0.5
		c0.4-0.2,0.5-0.5,0.9-0.7v-2.9c-1.1,0-2,0.2-2.7,0.2c-0.7,0.2-1.5,0.4-1.8,0.5c-0.5,0.2-0.9,0.5-1.1,0.7c-0.2,0.4-0.4,0.7-0.4,1.1
		c0,0.4,0,0.7,0.2,0.9c0.2,0.2,0.2,0.5,0.5,0.7c0.2,0.2,0.4,0.4,0.7,0.4C378.7,594.9,379.1,595.1,379.5,595.1z M389.2,596.6v-13.5
		h1.4c0.2,0,0.4,0,0.5,0.2c0.2,0.2,0.2,0.2,0.2,0.5l0.2,2.2c0.5-0.9,1.1-1.6,1.6-2.2c0.7-0.5,1.4-0.7,2.4-0.7c0.4,0,0.7,0,1.1,0.2
		c0.4,0,0.5,0.2,0.9,0.4l-0.4,1.8c0,0.2-0.2,0.4-0.4,0.4c-0.2,0-0.4,0-0.5-0.2c-0.2,0-0.5-0.2-1.1-0.2c-0.9,0-1.4,0.2-2,0.7
		c-0.5,0.5-1.1,1.3-1.4,2.2v8.6h-2.5V596.6z"/>
	<path class="st8" d="M447.9,586.8l21.6,53.6l8.9-14l12.5,15.8l14.9-13.6l-14.2-13.2l13-8.6L447.9,586.8z"/>
</g>
</svg>
