<svg width="211" height="205" viewBox="0 0 211 205" fill="none" xmlns="http://www.w3.org/2000/svg">
<path d="M19.6282 85.8568C57.1105 63.9073 73.2064 32.3659 91.2675 21.7894C109.329 11.2129 152.418 -2.19362 193.687 68.2804C234.956 138.754 189.983 178.979 170.117 190.612C77.0941 245.092 -46.753 124.729 19.6282 85.8568Z" fill="#FFFBDB"/>
<path d="M39.3877 158H185.27C188.78 158 191.658 160.8 191.658 164.343V176.971C191.658 180.457 188.838 183.314 185.27 183.314H39.3877C35.8774 183.314 33 180.514 33 176.971V164.343C33 160.8 35.8774 158 39.3877 158Z" fill="#F9ED78"/>
<path d="M98.3732 172.743C98.4308 172.743 98.4308 172.743 98.4883 172.8L98.8336 173.143C98.6034 173.429 98.2581 173.657 97.9129 173.829C97.5676 174 97.1072 174.057 96.6468 174.057C96.1864 174.057 95.7836 174 95.4383 173.829C95.093 173.657 94.8053 173.486 94.5176 173.2C94.2874 172.914 94.0572 172.629 93.9421 172.229C93.827 171.829 93.7119 171.429 93.7119 170.971C93.7119 170.514 93.7695 170.114 93.9421 169.714C94.1147 169.314 94.2874 169.029 94.5751 168.743C94.8629 168.457 95.1506 168.286 95.5534 168.114C95.9563 167.943 96.3591 167.886 96.8195 167.886C97.2798 167.886 97.6251 167.943 97.9704 168.114C98.3157 168.229 98.6034 168.457 98.8336 168.686L98.5459 169.086L98.4883 169.143C98.4883 169.143 98.4308 169.143 98.3732 169.143C98.3157 169.143 98.3157 169.143 98.2581 169.086C98.2006 169.086 98.143 169.029 98.0855 168.971C98.028 168.914 97.9704 168.914 97.9129 168.857C97.8553 168.8 97.7402 168.743 97.6251 168.743C97.51 168.686 97.3949 168.686 97.2798 168.629C97.1647 168.629 96.9921 168.571 96.8195 168.571C96.4742 168.571 96.1864 168.629 95.8987 168.743C95.611 168.857 95.3808 169.029 95.2081 169.2C95.0355 169.429 94.8629 169.657 94.7478 169.943C94.6327 170.229 94.5751 170.571 94.5751 170.914C94.5751 171.314 94.6327 171.6 94.7478 171.943C94.8629 172.229 94.978 172.514 95.2081 172.686C95.3808 172.914 95.611 173.029 95.8987 173.143C96.1289 173.257 96.4166 173.314 96.7044 173.314C96.877 173.314 97.0496 173.314 97.1647 173.257C97.3374 173.257 97.4525 173.2 97.5676 173.143C97.6827 173.086 97.7978 173.029 97.9129 172.971C98.028 172.914 98.143 172.8 98.2581 172.743C98.3157 172.743 98.3157 172.743 98.3732 172.743ZM101.538 169.657C101.826 169.657 102.114 169.714 102.402 169.829C102.632 169.943 102.862 170.057 103.035 170.286C103.207 170.457 103.322 170.686 103.437 170.971C103.552 171.257 103.61 171.543 103.61 171.886C103.61 172.229 103.552 172.514 103.437 172.8C103.322 173.086 103.207 173.314 103.035 173.486C102.862 173.657 102.632 173.829 102.402 173.943C102.171 174.057 101.884 174.114 101.538 174.114C101.193 174.114 100.963 174.057 100.675 173.943C100.445 173.829 100.215 173.714 100.042 173.486C99.8695 173.314 99.7544 173.086 99.6393 172.8C99.5242 172.514 99.4666 172.229 99.4666 171.886C99.4666 171.543 99.5242 171.257 99.6393 170.971C99.7544 170.686 99.8695 170.457 100.042 170.286C100.215 170.114 100.445 169.943 100.675 169.829C100.905 169.714 101.193 169.657 101.538 169.657ZM101.538 173.429C101.941 173.429 102.286 173.314 102.517 173.029C102.747 172.743 102.804 172.343 102.804 171.829C102.804 171.314 102.689 170.914 102.517 170.629C102.286 170.343 101.999 170.229 101.538 170.229C101.308 170.229 101.136 170.286 100.963 170.343C100.79 170.4 100.675 170.514 100.56 170.686C100.445 170.8 100.387 170.971 100.33 171.2C100.272 171.371 100.272 171.6 100.272 171.886C100.272 172.114 100.272 172.343 100.33 172.571C100.387 172.743 100.445 172.914 100.56 173.086C100.675 173.2 100.79 173.314 100.963 173.371C101.136 173.429 101.308 173.429 101.538 173.429ZM104.531 174V169.714H104.991C105.106 169.714 105.164 169.771 105.221 169.886L105.279 170.343C105.452 170.114 105.682 170 105.912 169.829C106.142 169.714 106.43 169.657 106.718 169.657C106.948 169.657 107.178 169.714 107.351 169.771C107.523 169.829 107.696 169.943 107.811 170.114C107.926 170.229 108.041 170.4 108.099 170.629C108.156 170.8 108.214 171.029 108.214 171.314V174.057H107.466V171.314C107.466 170.971 107.408 170.743 107.235 170.571C107.063 170.4 106.89 170.286 106.545 170.286C106.315 170.286 106.085 170.343 105.912 170.457C105.739 170.571 105.567 170.686 105.394 170.914V174.057H104.531V174ZM110.516 174.057C110.17 174.057 109.94 173.943 109.71 173.772C109.537 173.6 109.422 173.314 109.422 172.971V170.343H108.962C108.904 170.343 108.904 170.343 108.847 170.286C108.789 170.286 108.789 170.229 108.789 170.171V169.886L109.48 169.771L109.652 168.457C109.652 168.4 109.652 168.4 109.71 168.343C109.768 168.343 109.768 168.286 109.825 168.286H110.228V169.771H111.436V170.343H110.228V172.914C110.228 173.086 110.285 173.2 110.343 173.314C110.458 173.429 110.516 173.429 110.688 173.429C110.746 173.429 110.861 173.429 110.919 173.371C110.976 173.371 111.034 173.314 111.091 173.314C111.149 173.314 111.149 173.257 111.206 173.257C111.264 173.257 111.264 173.2 111.264 173.2C111.321 173.2 111.321 173.2 111.379 173.257L111.609 173.6C111.494 173.714 111.321 173.829 111.149 173.886C110.919 174 110.688 174.057 110.516 174.057ZM113.22 169.714V174H112.472V169.714H113.22ZM113.393 168.4C113.393 168.457 113.393 168.514 113.335 168.629C113.335 168.686 113.278 168.743 113.22 168.8C113.163 168.857 113.105 168.857 113.048 168.914C112.99 168.914 112.933 168.971 112.818 168.971C112.76 168.971 112.702 168.971 112.587 168.914C112.53 168.914 112.472 168.857 112.415 168.8C112.357 168.743 112.357 168.686 112.3 168.629C112.3 168.571 112.242 168.514 112.242 168.4C112.242 168.286 112.242 168.286 112.3 168.171C112.3 168.114 112.357 168.057 112.415 168C112.472 167.943 112.53 167.886 112.587 167.886C112.645 167.886 112.702 167.829 112.818 167.829C112.875 167.829 112.933 167.829 113.048 167.886C113.105 167.886 113.163 167.943 113.22 168C113.278 168.057 113.335 168.114 113.335 168.171C113.393 168.229 113.393 168.286 113.393 168.4ZM114.544 174V169.714H115.004C115.119 169.714 115.177 169.771 115.235 169.886L115.292 170.343C115.465 170.114 115.695 170 115.925 169.829C116.155 169.714 116.443 169.657 116.731 169.657C116.961 169.657 117.191 169.714 117.364 169.771C117.536 169.829 117.709 169.943 117.824 170.114C117.939 170.229 118.054 170.4 118.112 170.629C118.169 170.8 118.227 171.029 118.227 171.314V174.057H117.479V171.314C117.479 170.971 117.421 170.743 117.249 170.571C117.076 170.4 116.903 170.286 116.558 170.286C116.328 170.286 116.098 170.343 115.925 170.457C115.752 170.571 115.58 170.686 115.407 170.914V174.057H114.544V174ZM119.896 169.714V172.457C119.896 172.8 119.953 173.029 120.126 173.2C120.299 173.372 120.529 173.486 120.817 173.486C121.047 173.486 121.219 173.429 121.45 173.314C121.622 173.2 121.852 173.086 121.968 172.857V169.714H122.716V174H122.255C122.14 174 122.083 173.943 122.025 173.829L121.968 173.371C121.795 173.6 121.565 173.714 121.335 173.886C121.104 174 120.817 174.057 120.529 174.057C120.299 174.057 120.069 174 119.896 173.943C119.723 173.886 119.551 173.771 119.435 173.6C119.32 173.486 119.205 173.314 119.148 173.086C119.09 172.914 119.033 172.686 119.033 172.4V169.657H119.896V169.714ZM127.147 174H126.802C126.744 174 126.686 174 126.629 173.943C126.571 173.943 126.571 173.886 126.514 173.772L126.456 173.371C126.341 173.486 126.226 173.543 126.111 173.657C125.996 173.714 125.881 173.829 125.766 173.886C125.651 173.943 125.535 174 125.363 174C125.248 174 125.075 174.057 124.902 174.057C124.73 174.057 124.557 174.057 124.442 174C124.269 173.943 124.154 173.886 124.039 173.772C123.924 173.657 123.867 173.543 123.809 173.429C123.752 173.257 123.694 173.143 123.694 172.914C123.694 172.743 123.752 172.571 123.809 172.457C123.924 172.286 124.039 172.171 124.269 172.057C124.5 171.943 124.73 171.829 125.075 171.771C125.42 171.714 125.823 171.657 126.284 171.657V171.314C126.284 170.971 126.226 170.743 126.053 170.571C125.938 170.4 125.708 170.343 125.42 170.343C125.248 170.343 125.075 170.343 124.96 170.4C124.845 170.457 124.73 170.514 124.615 170.571C124.5 170.629 124.442 170.686 124.385 170.743C124.327 170.8 124.269 170.8 124.212 170.8C124.154 170.8 124.097 170.8 124.097 170.743C124.039 170.743 124.039 170.686 123.982 170.629L123.867 170.4C124.097 170.171 124.385 170 124.615 169.886C124.902 169.771 125.19 169.714 125.535 169.714C125.766 169.714 125.996 169.771 126.169 169.829C126.341 169.886 126.514 170 126.629 170.171C126.744 170.286 126.859 170.457 126.917 170.686C126.974 170.857 127.032 171.086 127.032 171.314V174H127.147ZM125.19 173.543C125.305 173.543 125.42 173.543 125.535 173.486C125.651 173.486 125.766 173.429 125.823 173.371C125.938 173.314 125.996 173.257 126.111 173.2C126.226 173.143 126.284 173.029 126.399 172.971V172.057C126.053 172.057 125.766 172.114 125.535 172.114C125.305 172.171 125.075 172.229 124.96 172.286C124.787 172.343 124.672 172.457 124.615 172.514C124.557 172.629 124.5 172.743 124.5 172.857C124.5 172.971 124.5 173.086 124.557 173.143C124.615 173.2 124.615 173.314 124.73 173.371C124.787 173.429 124.845 173.486 124.96 173.486C124.96 173.486 125.075 173.543 125.19 173.543ZM128.298 174V169.714H128.758C128.816 169.714 128.873 169.714 128.931 169.771C128.988 169.829 128.988 169.829 128.988 169.943L129.046 170.629C129.219 170.343 129.391 170.114 129.564 169.943C129.794 169.771 130.024 169.714 130.312 169.714C130.427 169.714 130.542 169.714 130.657 169.771C130.772 169.771 130.83 169.829 130.945 169.886L130.83 170.457C130.83 170.514 130.772 170.571 130.715 170.571C130.657 170.571 130.6 170.571 130.542 170.514C130.485 170.514 130.369 170.457 130.197 170.457C129.909 170.457 129.736 170.514 129.564 170.686C129.391 170.857 129.219 171.086 129.103 171.371V174.114H128.298V174Z" fill="#676767"/>
<path d="M147 171L153.854 188.013L156.676 183.573L160.635 188.581L165.363 184.248L160.855 180.057L164.997 177.322L147 171Z" fill="#0D8284"/>
<g clip-path="url(#clip0)">
<rect x="74" y="8" width="74" height="121" fill="white"/>
<path fill-rule="evenodd" clip-rule="evenodd" d="M74.4119 144.55H149.256C152.084 144.55 154.383 142.264 154.37 139.44V5.0967C154.37 2.28612 152.084 0 149.243 0H74.4119C71.5847 0 69.2852 2.28612 69.2852 5.11015V139.453C69.2852 142.264 71.5712 144.55 74.4119 144.55ZM114.898 9.74954C114.898 9.42679 115.155 9.15784 115.479 9.15784H148.269V128.09H75.3989V9.15784H107.39C107.715 9.15784 107.972 9.42679 107.972 9.74954C107.972 11.9819 109.527 13.7839 111.435 13.7839C113.356 13.7839 114.898 11.9819 114.898 9.74954Z" fill="#20A2A5"/>
<path d="M116.454 135.997C116.454 138.539 114.384 140.583 111.841 140.583C109.284 140.583 107.228 138.525 107.228 135.997C107.228 133.456 109.298 131.412 111.841 131.412C114.384 131.398 116.454 133.456 116.454 135.997Z" fill="white"/>
</g>
<g clip-path="url(#clip1)">
<path d="M164.917 97.5042C178.229 91.7924 184.51 76.0754 178.945 62.3992C173.381 48.723 158.078 42.2667 144.765 47.9784C131.453 53.6902 125.172 69.4073 130.737 83.0834C136.302 96.7596 151.605 103.216 164.917 97.5042Z" fill="#EAB726"/>
<path d="M156.78 99.5552C156.408 99.6154 156.033 99.6695 155.656 99.7142C155.528 99.7287 155.4 99.7433 155.273 99.755C154.983 99.7847 154.695 99.8101 154.405 99.8314C140.576 100.782 128.317 90.4019 126.719 76.1046C125.193 62.4678 133.905 50.0496 146.588 46.9485C147.599 46.7004 148.636 46.5128 149.694 46.388C150.073 46.3425 150.453 46.3074 150.831 46.2794C151.198 46.2522 151.565 46.2333 151.93 46.2221C153.05 46.1883 154.156 46.2289 155.247 46.3401C156.869 46.503 158.454 46.8192 159.986 47.2801C164.737 48.7065 168.975 51.4922 172.221 55.2474C175.666 59.2302 177.994 64.3022 178.63 69.997C180.232 84.3342 170.524 97.3245 156.78 99.5552Z" fill="#FFEB4D"/>
<path d="M143.85 95.6305C141.829 94.7778 139.914 93.6272 138.156 92.1923C133.259 88.1966 130.17 82.4825 129.456 76.1018C128.743 69.7212 130.491 63.4369 134.38 58.408C138.268 53.3791 143.83 50.2074 150.041 49.4766C162.866 47.9673 174.496 57.4569 175.968 70.63C177.44 83.803 168.207 95.7473 155.383 97.2552C151.4 97.7216 147.457 97.1522 143.85 95.6305ZM161.323 51.7102C157.886 50.2602 154.058 49.6543 150.112 50.1179C144.068 50.829 138.656 53.9152 134.872 58.8079C131.089 63.7006 129.388 69.8163 130.082 76.0251C130.777 82.234 133.783 87.7943 138.547 91.6823C143.311 95.5703 149.266 97.3189 155.31 96.6078C167.788 95.1394 176.773 83.5182 175.34 70.7006C174.36 61.9371 168.758 54.847 161.323 51.7102Z" fill="#EAB726"/>
<path d="M150.182 61.1485V84.5948C150.182 86.684 148.538 88.3735 146.504 88.3735C144.471 88.3735 142.827 86.684 142.827 84.5948V61.1485C142.827 59.0592 144.471 57.3697 146.504 57.3697C148.538 57.3697 150.182 59.0592 150.182 61.1485Z" fill="#EAB726"/>
<path d="M153.646 76.199L150.734 71.3756V70.821C151.914 70.2407 152.906 69.5701 153.772 68.8091L153.646 76.199Z" fill="#EAB726"/>
<path d="M153.709 68.822C156.132 66.6812 157.424 63.8181 158.416 60.0522C158.83 58.4659 160.223 57.3697 161.817 57.3697C164.215 57.3697 165.909 59.7685 165.181 62.1157C163.512 67.4292 161.24 70.0472 158.692 72.072L165.658 82.9569C167.139 85.2783 165.52 88.3735 162.809 88.3735C161.629 88.3735 160.537 87.7416 159.922 86.7227L153.571 76.199L153.709 68.822Z" fill="#EAB726"/>
</g>
<g clip-path="url(#clip2)">
<path d="M80.048 97.5643C93.4305 91.8224 99.7443 76.0224 94.1502 62.274C88.5561 48.5257 73.1725 42.0352 59.7899 47.7771C46.4073 53.5191 40.0935 69.3191 45.6876 83.0674C51.2818 96.8158 66.6654 103.306 80.048 97.5643Z" fill="#EAB726"/>
<path d="M71.8677 99.6262C71.4936 99.6867 71.117 99.7411 70.7377 99.786C70.6092 99.8006 70.4807 99.8153 70.3533 99.827C70.0618 99.8569 69.772 99.8824 69.4805 99.9038C55.5785 100.859 43.255 90.4246 41.6479 76.0518C40.1141 62.343 48.872 49.8592 61.6218 46.7418C62.6388 46.4924 63.6806 46.3038 64.7446 46.1783C65.1259 46.1326 65.5079 46.0973 65.8871 46.0691C66.2562 46.0418 66.6252 46.0228 66.9927 46.0116C68.1182 45.9775 69.2302 46.0184 70.327 46.1301C71.9573 46.294 73.5506 46.6118 75.0906 47.0751C79.8666 48.509 84.1275 51.3094 87.3906 55.0845C90.8535 59.0883 93.1935 64.1871 93.833 69.9119C95.4436 84.3248 85.684 97.3836 71.8677 99.6262Z" fill="#FFEB4D"/>
<path d="M58.8698 95.6807C56.838 94.8235 54.9127 93.6669 53.1458 92.2244C48.223 88.2076 45.1172 82.4633 44.4001 76.049C43.6829 69.6347 45.4405 63.3172 49.3494 58.2617C53.2584 53.2063 58.8496 50.0178 65.0938 49.2832C77.9859 47.7659 89.6776 57.3056 91.1574 70.5482C92.6372 83.7908 83.3551 95.7981 70.4636 97.314C66.4596 97.7828 62.4955 97.2104 58.8698 95.6807ZM76.4348 51.5286C72.9799 50.071 69.1319 49.4619 65.1649 49.9279C59.0888 50.6427 53.648 53.7452 49.8445 58.6638C46.041 63.5823 44.3315 69.7303 45.0294 75.9719C45.7272 82.2135 48.7492 87.8032 53.5387 91.7117C58.3282 95.6202 64.314 97.3781 70.3901 96.6632C82.9337 95.187 91.9666 83.5045 90.5256 70.6192C89.5409 61.8095 83.9087 54.6819 76.4348 51.5286Z" fill="#EAB726"/>
</g>
<path d="M66.0522 83.8606C64.5471 83.6229 63.2137 83.2533 62.0519 82.7516C60.9165 82.2235 59.9924 81.735 59.2794 81.2861L61.4182 76.6521C61.6558 76.8106 62.0255 77.0482 62.5272 77.365C63.0553 77.6555 63.623 77.9459 64.2303 78.2364C64.864 78.5268 65.5109 78.7909 66.171 79.0285C66.8575 79.2398 67.4781 79.3454 68.0325 79.3454C69.0359 79.3454 69.762 79.1342 70.2109 78.7117C70.6598 78.2892 70.8842 77.7743 70.8842 77.167C70.8842 76.4013 70.5674 75.8336 69.9337 75.4639C69.3 75.0943 68.389 74.685 67.2008 74.2361C64.93 73.3912 63.2005 72.3746 62.0123 71.1864C60.8241 69.9718 60.23 68.3875 60.23 66.4335C60.23 65.6414 60.3752 64.9153 60.6657 64.2552C60.9561 63.5951 61.3654 63.001 61.8935 62.4729C62.4216 61.9184 63.0289 61.4563 63.7154 61.0866C64.4283 60.717 65.2073 60.4397 66.0522 60.2549V57.0071H71.0823V60.1757C72.4817 60.3869 73.7359 60.717 74.8449 61.1658C75.9803 61.6147 76.8913 62.0636 77.5778 62.5125L75.3598 66.79C74.9902 66.6052 74.5677 66.3939 74.0924 66.1563C73.6435 65.8923 73.155 65.6546 72.6269 65.4434C72.0989 65.2321 71.5576 65.0605 71.0031 64.9285C70.4486 64.7701 69.9073 64.6908 69.3792 64.6908C68.6134 64.6908 68.0193 64.8229 67.5969 65.0869C67.2008 65.3246 67.0028 65.7074 67.0028 66.2355C67.0028 66.8692 67.3592 67.4237 68.0722 67.899C68.7851 68.3479 69.9733 68.8892 71.6368 69.5229C73.7227 70.3414 75.241 71.3184 76.1916 72.4538C77.1685 73.5892 77.657 75.0546 77.657 76.8502C77.657 77.6423 77.5118 78.4212 77.2213 79.187C76.9309 79.9527 76.5084 80.6524 75.9539 81.2861C75.3994 81.9198 74.7129 82.4743 73.8944 82.9496C73.0758 83.3985 72.1385 83.7154 71.0823 83.9002V87.7817H66.0522V83.8606Z" fill="#EAB726"/>
<g clip-path="url(#clip3)">
<path d="M97.9727 43.4969C107.289 38.4897 114.959 38.9956 123.533 43.7557C124.087 44.066 124.414 44.6633 124.37 45.2951L124.343 45.6636C124.264 46.7836 123.1 47.4898 122.068 47.0389C114.602 43.7957 108.974 41.981 99.4264 46.4074C98.3779 46.8958 97.1661 46.1579 97.1164 45.0013C97.0878 44.3774 97.4184 43.7907 97.9727 43.4969Z" fill="#82B09C"/>
<path d="M99.8139 39.3069L94.5687 46.3703C94.41 46.5871 94.5373 46.8921 94.8004 46.9318L103.188 48.1544C103.499 48.2 103.746 47.8942 103.628 47.599C101.771 44.8947 100.751 42.1526 100.427 39.3884C100.327 39.1271 99.9777 39.0806 99.8139 39.3069Z" fill="url(#paint0_linear)"/>
<path d="M125.291 101.667C115.901 107.161 107.999 106.928 99.0081 102.354C98.4245 102.058 98.069 101.455 98.089 100.804L98.1027 100.425C98.1442 99.2707 99.3145 98.5023 100.39 98.9254C108.187 101.98 114.039 103.637 123.689 98.7286C124.754 98.1878 126.024 98.9031 126.116 100.089C126.168 100.728 125.846 101.344 125.291 101.667Z" fill="#82B09C"/>
<path d="M123.557 106.047L128.687 98.5875C128.841 98.361 128.699 98.0509 128.426 98.0205L119.763 97.0743C119.442 97.038 119.2 97.3631 119.327 97.6633C121.337 100.376 122.487 103.155 122.925 105.984C123.039 106.246 123.393 106.283 123.557 106.047Z" fill="#81AF9B"/>
</g>
<defs>
<linearGradient id="paint0_linear" x1="83.8254" y1="46.1004" x2="269.101" y2="20.6953" gradientUnits="userSpaceOnUse">
<stop stop-color="#86BC9F"/>
<stop offset="1" stop-color="#4C246D"/>
</linearGradient>
<clipPath id="clip0">
<rect width="85.098" height="144.55" fill="white" transform="translate(69.2852)"/>
</clipPath>
<clipPath id="clip1">
<rect width="54.7891" height="54.7891" fill="white" transform="translate(126.405 45.4633)"/>
</clipPath>
<clipPath id="clip2">
<rect width="55.0783" height="55.0783" fill="white" transform="translate(41.333 45.2488)"/>
</clipPath>
<clipPath id="clip3">
<rect width="35.4564" height="66.4808" fill="white" transform="translate(128.562 106.326) rotate(-178.657)"/>
</clipPath>
</defs>
</svg>
