<?xml version="1.0" encoding="utf-8"?>
<!-- Generator: Adobe Illustrator 24.2.1, SVG Export Plug-In . SVG Version: 6.00 Build 0)  -->
<svg version="1.1" id="Capa_1" xmlns="http://www.w3.org/2000/svg" xmlns:xlink="http://www.w3.org/1999/xlink" x="0px" y="0px"
	 viewBox="0 0 677.8 681" style="enable-background:new 0 0 677.8 681;" xml:space="preserve">
<style type="text/css">
	.st0{opacity:0.4;fill:#C3E5D9;enable-background:new    ;}
	.st1{fill:#3482FF;}
	.st2{fill:#7FB2FF;}
	.st3{fill:#0948F0;}
	.st4{fill:#FFFFFF;}
	.st5{fill:#FD5C00;}
	.st6{clip-path:url(#SVGID_2_);}
	.st7{clip-path:url(#SVGID_4_);}
	.st8{fill:#ABD0FF;}
	.st9{fill:#D8DEE8;}
	.st10{opacity:0.48;fill:#FFFFFF;}
	.st11{fill:url(#SVGID_5_);}
	.st12{fill:#D6DFED;}
	.st13{opacity:0.3;fill:#97A6B7;}
	.st14{fill:#FFA600;}
	.st15{fill:#FFEC66;}
	.st16{fill:url(#SVGID_6_);}
	.st17{opacity:0.3;fill:#FCB148;}
	.st18{opacity:0.4;fill:url(#SVGID_7_);}
	.st19{fill:#FFC5E6;}
	.st20{fill:#002B9C;}
	.st21{opacity:0.3;fill:url(#SVGID_8_);}
	.st22{opacity:0.3;fill:url(#SVGID_9_);}
</style>
<path class="st0" d="M67.9,280.6c118-69.1,168.7-168.4,225.5-201.7C350.3,45.6,486,3.4,615.9,225.3
	c129.9,221.9-11.7,348.5-74.2,385.1C248.8,782-141.1,403,67.9,280.6z"/>
<g>
	<polygon class="st1" points="622.2,179.2 615.3,179.2 615.3,172.3 611.6,172.3 611.6,179.2 604.6,179.2 604.6,182.9 611.6,182.9 
		611.6,189.8 615.3,189.8 615.3,182.9 622.2,182.9 	"/>
	<polygon class="st2" points="633.5,115.7 630.7,112.9 623.3,120.3 615.9,112.9 613,115.7 620.5,123.1 613,130.5 615.9,133.4 
		623.3,126 630.7,133.4 633.5,130.5 626.1,123.1 	"/>
</g>
<g>
	<polygon class="st1" points="86,110.5 92.9,110.5 92.9,117.5 96.6,117.5 96.6,110.5 103.5,110.5 103.5,106.8 96.6,106.8 96.6,99.9 
		92.9,99.9 92.9,106.8 86,106.8 	"/>
	<polygon class="st2" points="74.6,174 77.5,176.8 84.9,169.4 92.3,176.8 95.1,174 87.7,166.6 95.1,159.2 92.3,156.3 84.9,163.7 
		77.5,156.3 74.6,159.2 82,166.6 	"/>
</g>
<g>
	<path class="st3" d="M548.4,626h-419c-22.1,0-40-17.9-40-40v0c0-22.1,17.9-40,40-40h419c22.1,0,40,17.9,40,40v0
		C588.4,608.1,570.5,626,548.4,626z"/>
	<path class="st4" d="M295,592.6c0.2,0,0.2,0,0.4,0.2l1.1,1.1c-0.7,0.9-1.8,1.6-2.9,2.2c-1.1,0.5-2.5,0.7-4,0.7
		c-1.4,0-2.7-0.2-3.8-0.7c-1.1-0.5-2-1.1-2.9-2c-0.7-0.9-1.4-1.8-1.8-3.1c-0.4-1.3-0.7-2.5-0.7-4c0-1.4,0.2-2.7,0.7-4
		c0.5-1.3,1.1-2.2,2-3.1c0.9-0.9,1.8-1.4,3.1-2c1.3-0.5,2.5-0.7,4-0.7c1.4,0,2.5,0.2,3.6,0.7c1.1,0.4,2,1.1,2.7,1.8l-0.9,1.3
		l-0.2,0.2c0,0-0.2,0-0.4,0c-0.2,0-0.2,0-0.4-0.2c-0.2,0-0.4-0.2-0.5-0.4c-0.2-0.2-0.4-0.2-0.5-0.4c-0.2-0.2-0.5-0.4-0.9-0.4
		c-0.4-0.2-0.7-0.2-1.1-0.4c-0.4,0-0.9-0.2-1.4-0.2c-1.1,0-2,0.2-2.9,0.5c-0.9,0.4-1.6,0.9-2.2,1.4c-0.5,0.7-1.1,1.4-1.4,2.3
		c-0.4,0.9-0.5,2-0.5,3.1c0,1.3,0.2,2.2,0.5,3.2c0.4,0.9,0.7,1.8,1.4,2.3c0.5,0.7,1.3,1.1,2.2,1.4c0.7,0.4,1.6,0.5,2.5,0.5
		c0.5,0,1.1,0,1.4-0.2c0.5,0,0.9-0.2,1.3-0.4c0.4-0.2,0.7-0.4,1.1-0.5c0.4-0.2,0.7-0.5,1.1-0.7C294.9,592.6,294.9,592.6,295,592.6z
		 M305,582.9c0.9,0,1.8,0.2,2.7,0.5c0.7,0.4,1.4,0.7,2,1.4c0.5,0.5,0.9,1.3,1.3,2.2c0.4,0.9,0.5,1.8,0.5,2.9s-0.2,2-0.5,2.9
		c-0.4,0.9-0.7,1.6-1.3,2.2c-0.5,0.5-1.3,1.1-2,1.4c-0.7,0.4-1.6,0.5-2.7,0.5s-1.8-0.2-2.7-0.5c-0.7-0.4-1.4-0.7-2-1.4
		c-0.5-0.5-0.9-1.3-1.3-2.2c-0.4-0.9-0.5-1.8-0.5-2.9s0.2-2,0.5-2.9c0.4-0.9,0.7-1.6,1.3-2.2c0.5-0.5,1.3-1.1,2-1.4
		C303,583.1,303.9,582.9,305,582.9z M305,594.8c1.3,0,2.4-0.4,3.1-1.3c0.7-0.9,0.9-2.2,0.9-3.8c0-1.6-0.4-2.9-0.9-3.8
		c-0.7-0.9-1.6-1.3-3.1-1.3c-0.7,0-1.3,0.2-1.8,0.4c-0.5,0.2-0.9,0.5-1.3,1.1c-0.4,0.4-0.5,0.9-0.7,1.6c-0.2,0.5-0.2,1.3-0.2,2.2
		c0,0.7,0,1.4,0.2,2.2c0.2,0.5,0.4,1.1,0.7,1.6c0.4,0.4,0.7,0.7,1.3,0.9C303.7,594.8,304.3,594.8,305,594.8z M314.4,596.6v-13.5h1.4
		c0.4,0,0.5,0.2,0.7,0.5l0.2,1.4c0.5-0.7,1.3-1.1,2-1.6c0.7-0.4,1.6-0.5,2.5-0.5c0.7,0,1.4,0.2,2,0.4c0.5,0.2,1.1,0.5,1.4,1.1
		c0.4,0.4,0.7,0.9,0.9,1.6c0.2,0.5,0.4,1.3,0.4,2.2v8.6h-2.4v-8.6c0-1.1-0.2-1.8-0.7-2.3c-0.5-0.5-1.1-0.9-2.2-0.9
		c-0.7,0-1.4,0.2-2,0.5c-0.5,0.4-1.1,0.7-1.6,1.4v9.9h-2.7V596.6z M333.3,596.7c-1.1,0-1.8-0.4-2.5-0.9c-0.5-0.5-0.9-1.4-0.9-2.5
		V585h-1.4c-0.2,0-0.2,0-0.4-0.2c-0.2,0-0.2-0.2-0.2-0.4v-0.9l2.2-0.4l0.5-4.1c0-0.2,0-0.2,0.2-0.4c0.2,0,0.2-0.2,0.4-0.2h1.3v4.7
		h3.8v1.8h-3.8v8.1c0,0.5,0.2,0.9,0.4,1.3c0.4,0.4,0.5,0.4,1.1,0.4c0.2,0,0.5,0,0.7-0.2c0.2,0,0.4-0.2,0.5-0.2
		c0.2,0,0.2-0.2,0.4-0.2c0.2,0,0.2-0.2,0.2-0.2c0.2,0,0.2,0,0.4,0.2l0.7,1.1c-0.4,0.4-0.9,0.7-1.4,0.9
		C334.5,596.6,333.8,596.7,333.3,596.7z M341.8,583.1v13.5h-2.4v-13.5H341.8z M342.3,578.9c0,0.2,0,0.4-0.2,0.7
		c0,0.2-0.2,0.4-0.4,0.5c-0.2,0.2-0.4,0.2-0.5,0.4c-0.2,0-0.4,0.2-0.7,0.2c-0.2,0-0.4,0-0.7-0.2c-0.2,0-0.4-0.2-0.5-0.4
		c-0.2-0.2-0.2-0.4-0.4-0.5c0-0.2-0.2-0.4-0.2-0.7c0-0.4,0-0.4,0.2-0.7c0-0.2,0.2-0.4,0.4-0.5c0.2-0.2,0.4-0.4,0.5-0.4
		c0.2,0,0.4-0.2,0.7-0.2c0.2,0,0.4,0,0.7,0.2c0.2,0,0.4,0.2,0.5,0.4c0.2,0.2,0.4,0.4,0.4,0.5C342.3,578.4,342.3,578.6,342.3,578.9z
		 M345.9,596.6v-13.5h1.5c0.4,0,0.5,0.2,0.7,0.5l0.2,1.4c0.5-0.7,1.3-1.1,2-1.6c0.7-0.4,1.6-0.5,2.5-0.5c0.7,0,1.4,0.2,2,0.4
		c0.5,0.2,1.1,0.5,1.4,1.1c0.4,0.4,0.7,0.9,0.9,1.6c0.2,0.5,0.4,1.3,0.4,2.2v8.6h-2.4v-8.6c0-1.1-0.2-1.8-0.7-2.3
		c-0.5-0.5-1.1-0.9-2.2-0.9c-0.7,0-1.4,0.2-2,0.5c-0.5,0.4-1.1,0.7-1.6,1.4v9.9h-2.7V596.6z M362.8,583.1v8.6c0,1.1,0.2,1.8,0.7,2.3
		c0.5,0.5,1.3,0.9,2.2,0.9c0.7,0,1.3-0.2,2-0.5c0.5-0.4,1.3-0.7,1.6-1.4v-9.9h2.4v13.5h-1.5c-0.4,0-0.5-0.2-0.7-0.5l-0.2-1.4
		c-0.5,0.7-1.3,1.1-2,1.6c-0.7,0.4-1.6,0.5-2.5,0.5c-0.7,0-1.4-0.2-2-0.4s-1.1-0.5-1.4-1.1c-0.4-0.4-0.7-0.9-0.9-1.6
		c-0.2-0.5-0.4-1.3-0.4-2.2v-8.6h2.7V583.1z M385.6,596.6h-1.1c-0.2,0-0.4,0-0.5-0.2c-0.2,0-0.2-0.2-0.4-0.5l-0.2-1.3
		c-0.4,0.4-0.7,0.5-1.1,0.9c-0.4,0.2-0.7,0.5-1.1,0.7c-0.4,0.2-0.7,0.4-1.3,0.4c-0.4,0-0.9,0.2-1.4,0.2c-0.5,0-1.1,0-1.5-0.2
		c-0.5-0.2-0.9-0.4-1.3-0.7c-0.4-0.4-0.5-0.7-0.7-1.1c-0.2-0.5-0.4-0.9-0.4-1.6c0-0.5,0.2-1.1,0.4-1.4c0.4-0.5,0.7-0.9,1.5-1.3
		c0.7-0.4,1.4-0.7,2.5-0.9c1.1-0.2,2.4-0.4,3.8-0.4v-1.1c0-1.1-0.2-1.8-0.7-2.3c-0.4-0.5-1.1-0.7-2-0.7c-0.5,0-1.1,0-1.5,0.2
		c-0.4,0.2-0.7,0.4-1.1,0.5c-0.4,0.2-0.5,0.4-0.7,0.5c-0.2,0.2-0.4,0.2-0.5,0.2c-0.2,0-0.4,0-0.4-0.2c-0.2,0-0.2-0.2-0.4-0.4
		l-0.4-0.7c0.7-0.7,1.6-1.3,2.4-1.6c0.9-0.4,1.8-0.5,2.9-0.5c0.7,0,1.4,0.2,2,0.4c0.5,0.2,1.1,0.5,1.4,1.1c0.4,0.4,0.7,0.9,0.9,1.6
		c0.2,0.5,0.4,1.3,0.4,2v8.5H385.6z M379.5,595.1c0.4,0,0.7,0,1.1-0.2c0.4,0,0.7-0.2,0.9-0.4c0.4-0.2,0.5-0.4,0.9-0.5
		c0.4-0.2,0.5-0.5,0.9-0.7v-2.9c-1.1,0-2,0.2-2.7,0.2c-0.7,0.2-1.5,0.4-1.8,0.5c-0.5,0.2-0.9,0.5-1.1,0.7c-0.2,0.4-0.4,0.7-0.4,1.1
		c0,0.4,0,0.7,0.2,0.9c0.2,0.2,0.2,0.5,0.5,0.7c0.2,0.2,0.4,0.4,0.7,0.4C378.7,594.9,379.1,595.1,379.5,595.1z M389.2,596.6v-13.5
		h1.4c0.2,0,0.4,0,0.5,0.2c0.2,0.2,0.2,0.2,0.2,0.5l0.2,2.2c0.5-0.9,1.1-1.6,1.6-2.2c0.7-0.5,1.4-0.7,2.4-0.7c0.4,0,0.7,0,1.1,0.2
		c0.4,0,0.5,0.2,0.9,0.4l-0.4,1.8c0,0.2-0.2,0.4-0.4,0.4c-0.2,0-0.4,0-0.5-0.2c-0.2,0-0.5-0.2-1.1-0.2c-0.9,0-1.4,0.2-2,0.7
		c-0.5,0.5-1.1,1.3-1.4,2.2v8.6h-2.5V596.6z"/>
	<path class="st5" d="M447.9,586.8l21.6,53.6l8.9-14l12.5,15.8l14.9-13.6l-14.2-13.2l13-8.6L447.9,586.8z"/>
</g>
<g>
	<g>
		<g>
			<g>
				<defs>
					<path id="SVGID_1_" d="M400.7,409.3c-6.5-18-13.5-45.5-7.4-76.5c7-35.6,24.8-43.2,39.9-81.5c21.4-54.6-6-92.9,17.4-110.1
						c11.4-8.4,29.8-9,41.4-1.3c33,22,27.4,122.5-22.6,163.3c-22.6,18.4-42.9,17-59.6,40.4C395.1,364.3,397.1,391,400.7,409.3z"/>
				</defs>
				<use xlink:href="#SVGID_1_"  style="overflow:visible;fill:#ABD0FF;"/>
				<clipPath id="SVGID_2_">
					<use xlink:href="#SVGID_1_"  style="overflow:visible;"/>
				</clipPath>
				<g class="st6">
					<path class="st4" d="M395.6,363.8l-0.6-0.1c1.7-7.7,4.1-15.3,7.1-22.6c6.9-16.8,14.8-26.1,24.7-38c6.5-7.7,13.8-16.4,22.2-28.8
						c15.7-23.2,20.6-31.3,24.7-44.3c8.2-25.7,6.1-48.4,4.1-59.6c-2.8-16-8.7-31-17.4-44.8l0.5-0.3c8.8,13.9,14.7,29,17.5,45
						c2,11.3,4.1,34.1-4.1,59.9c-4.2,13-9,21.2-24.8,44.5c-8.4,12.4-15.8,21.2-22.3,28.9c-9.9,11.8-17.8,21.1-24.6,37.8
						C399.7,348.5,397.3,356.1,395.6,363.8z"/>
					<path class="st4" d="M478.2,212l0-0.5c-0.9-18.7-13.3-30.4-23.4-36.9c-11-7.1-22-9.8-22.1-9.8l0.1-0.6c0.1,0,11.2,2.8,22.3,9.9
						c10.2,6.6,22.5,18.2,23.7,36.9c1.9-1.2,10-6.6,17.1-16.2c7.5-10,15.4-26.8,10.7-49.8l0.6-0.1c4.7,23.2-3.3,40.2-10.8,50.3
						c-8.2,11-17.6,16.5-17.7,16.6L478.2,212z"/>
					<path class="st4" d="M475.5,272c-12.4,0-21.7-3.8-21.9-3.9l-0.2-0.1l0.1-0.2c4.2-18.5-0.4-31.9-5-39.8c-5-8.6-11-12.9-11.1-13
						l0.3-0.5c0.1,0,6.2,4.4,11.3,13.2c4.6,8,9.3,21.5,5.1,40c2.9,1.1,31.2,11.4,54.2-7.7l0.4,0.5C497.7,269.5,485.6,272,475.5,272z
						"/>
					<path class="st4" d="M454.9,307.9c-4.8,0-8.8-0.6-11.9-1.3c-8.9-2.1-13.5-6-13.6-6.1l-0.2-0.1l0.1-0.2
						c7.5-18.9-4.8-49-4.9-49.3l0.6-0.2c0.1,0.3,12.5,30.4,5,49.6c1.9,1.5,20,14.4,52.7,1.3l0.2,0.6
						C471.7,306.4,462.3,307.9,454.9,307.9z"/>
				</g>
			</g>
		</g>
		<g>
			<g>
				<defs>
					<path id="SVGID_3_" d="M343.2,448.6c-3.3-16.8-5.8-43.1,7.2-67.2c22.7-41.9,66.8-29.7,107.3-75.1c32.6-36.7,21.1-64,57.8-88.8
						c6.1-4.2,38.5-27,63.5-14.7c14.1,6.9,19.6,22,20.6,24.8c15.6,42.6-26.1,111.4-82.2,144c-32.3,18.8-43,13.3-100.2,35.8
						C383.7,420.7,358.7,437.2,343.2,448.6z"/>
				</defs>
				<use xlink:href="#SVGID_3_"  style="overflow:visible;fill:#7FB2FF;"/>
				<clipPath id="SVGID_4_">
					<use xlink:href="#SVGID_3_"  style="overflow:visible;"/>
				</clipPath>
				<g class="st7">
					<path class="st4" d="M338.9,469.1l-0.6-0.1c7.1-40.7,22.2-68.3,44.8-82.2c11.1-6.8,20-8.1,29.5-9.5c10.2-1.5,20.7-3,34.4-11.9
						c13.3-8.6,17.9-16.7,23.8-26.9c5.3-9.2,11.8-20.6,26.8-36c13.1-13.5,22.8-19.9,31.4-25.6c9.2-6.1,16.6-11,24.8-22.6
						c13.5-18.9,20.1-42.8,19.6-71.1l0.6,0c0.5,28.4-6.2,52.4-19.8,71.5c-8.3,11.7-15.7,16.6-25,22.7c-8.5,5.7-18.2,12.1-31.3,25.5
						c-14.9,15.3-21.5,26.7-26.7,35.9c-5.9,10.3-10.5,18.4-23.9,27.1c-13.8,9-24.4,10.5-34.7,12c-9.4,1.4-18.3,2.7-29.3,9.4
						C361,401.1,346,428.6,338.9,469.1z"/>
					<path class="st4" d="M525,280l0.1-0.4c0.2-0.6,16.5-57.2-4.9-79.7l0.4-0.4c6.2,6.6,13.2,20.4,10.7,48.8
						c-1.3,15.4-4.9,28.7-5.6,31.1c30.7-0.2,53.2-12.5,66.7-22.9c14.7-11.3,22.1-22.7,22.1-22.8l0.5,0.3c-0.1,0.1-7.5,11.6-22.3,23
						c-13.6,10.5-36.3,23-67.5,23L525,280z"/>
					<path class="st4" d="M528.3,327.7c-3.1,0-6-0.1-8.8-0.3c-21.5-1.4-36.3-7.3-36.5-7.4l-0.2-0.1l0.1-0.3
						c7.1-29.5-1.3-70.8-1.4-71.3l0.6-0.1c0.1,0.4,8.5,41.7,1.5,71.3c2,0.8,16.1,6,36.1,7.3c19.8,1.3,49.5-1.2,78.9-20.1l0.3,0.5
						C573.4,323.6,547.7,327.7,528.3,327.7z"/>
					<path class="st4" d="M503.1,396.7c-51.2,0-81.1-20.1-81.4-20.3l-0.3-0.2l0.2-0.3c21.3-27.8,11.2-72.3,11.1-72.7l0.6-0.1
						c0.1,0.4,10.2,44.9-11.1,73c3.3,2.1,36.7,22.7,91.4,19.8l0,0.6C510.1,396.6,506.6,396.7,503.1,396.7z"/>
				</g>
			</g>
		</g>
		<g>
			<g>
				<path class="st8" d="M321.8,448.9c9.2-7.1,24.2-17.3,44.7-25.3c36.4-14.2,53.5-7.1,68.6-23.1c15.6-16.6,4.7-32.1,23.4-50.7
					c1.6-1.6,21.7-21,40.7-14.6c13.3,4.5,18.9,19.2,21.5,26.1c10.2,26.8,6.1,68.4-22.2,89.7c-26.8,20.2-61.9,12.1-73,9.5
					c-19.5-4.7-24.4-12-44.2-16.2C357.1,439.1,335.7,444.1,321.8,448.9z"/>
			</g>
		</g>
	</g>
	<g>
		<g>
			<g>
				<path class="st8" d="M602.7,479.8l-478.2-4.1v12.2c0,3.3,2.1,6.1,4.9,6.6l135.2,24.1c1.6,0.3,3.2,0.4,4.9,0.2l328-27.5
					c2.9-0.2,5.2-3.1,5.2-6.5V479.8z"/>
				<g>
					<path class="st2" d="M426.7,460.2l-303.9,22.4c-5.4,0.4-9.9-3.9-9.9-9.5V246.8c0-5.6,4.4-10.2,9.9-10.2h303.9
						c4.5,0,8.1,4.1,8.1,9.2v204.6C434.8,455.5,431.2,459.9,426.7,460.2z"/>
					<path class="st4" d="M431.6,460.2l-303.9,22.4c-5.4,0.4-9.9-3.9-9.9-9.5V246.8c0-5.6,4.4-10.2,9.9-10.2h303.9
						c4.5,0,8.1,4.1,8.1,9.2v204.6C439.7,455.5,436.1,459.9,431.6,460.2z"/>
					<path class="st9" d="M422.1,445.8l-283.1,19.4c-4.4,0.3-8-3.2-8-7.8V259.3c0-4.6,3.6-8.4,8-8.4l283.1-1.2
						c3.7,0,6.7,3.4,6.7,7.6v180.5C428.8,441.9,425.8,445.5,422.1,445.8z"/>
					<path class="st4" d="M290.4,242.7c0,2.1-1.6,3.8-3.5,3.8c-1.9,0-3.5-1.7-3.5-3.8s1.6-3.8,3.5-3.8
						C288.8,238.9,290.4,240.6,290.4,242.7z"/>
					<path class="st10" d="M127.7,482.6l302.4-22.3l1.5-0.1c2.1-0.2,3.9-1.2,5.4-2.7c-21.8-1.2-35.3-8.9-44-16.9
						c-17.5-16-14.5-31.8-33.4-42.4c-23.5-13.1-42.1,3.5-59.9-12.9c-10.8-10-5.5-17.4-18.8-32.3c-14.8-16.5-24.4-10.9-39.2-25.8
						c-18.8-18.8-9.4-33.4-25.5-46.8c-19.6-16.3-40.8-1.2-59.4-16.9c-8-6.8-12.5-16.6-14.8-27h-14.2c-5.4,0-9.9,4.6-9.9,10.2v226.3
						C117.8,478.7,122.2,483,127.7,482.6z"/>
				</g>
				<linearGradient id="SVGID_5_" gradientUnits="userSpaceOnUse" x1="124.5435" y1="483.3317" x2="602.7146" y2="483.3317">
					<stop  offset="0.494" style="stop-color:#EBEFF2"/>
					<stop  offset="1" style="stop-color:#FFFFFF"/>
				</linearGradient>
				<path class="st11" d="M445.9,459l-321.4,23.5l140.1,25c1.6,0.3,3.2,0.4,4.9,0.2l333.2-27.9L451,459.1
					C449.3,458.9,447.6,458.8,445.9,459z"/>
				<polygon class="st12" points="171.4,482.7 439,462.8 521.8,474 256.5,495.3 				"/>
			</g>
		</g>
		<g>
			<path class="st13" d="M332.7,312c-9.2-29.4-38.7-46.4-65.9-38c-27.2,8.5-41.8,39.2-32.7,68.7c9.2,29.4,38.7,46.4,65.9,38
				C327.3,372.2,341.9,341.5,332.7,312z M290.1,348l0.2,8l-7.7,0.2l-0.2-7.5c-5.3-0.1-10.4-1.4-13.5-3.1l2.1-9.3
				c3.4,1.7,8,3.3,13.2,3.2c4.5-0.1,7.5-1.9,7.4-5.1c-0.1-3-2.6-4.8-8.5-6.7c-8.5-2.6-14.3-6.4-14.5-14.1c-0.2-6.9,4.6-12.5,13-14.3
				l-0.2-7.5l7.7-0.2l0.2,6.9c5.3,0.1,8.9,1.1,11.5,2.3l-2.1,9c-2.1-0.8-5.7-2.5-11.4-2.4c-5.1,0.1-6.7,2.4-6.7,4.6
				c0.1,2.6,2.9,4.2,9.6,6.6c9.5,3.1,13.3,7.3,13.5,14.4C303.9,340.1,299.1,346.2,290.1,348z"/>
			<path class="st13" d="M337.2,420.1c0,3.7-2.9,6.9-6.7,7.1l-93,5.1c-4.4,0.2-8.1-2.9-8.1-6.9V410c0-4.1,3.7-7.5,8.2-7.6l92.9-2.8
				c3.8-0.1,6.8,2.8,6.8,6.5V420.1z"/>
		</g>
	</g>
	<g>
		<path class="st14" d="M468,250.9c0,62.1-48.6,111-110.6,109.1c-64.6-2-118.9-57.8-118.9-124.5c0-66.8,54.3-115.2,118.9-108.5
			C419.4,133.4,468,188.8,468,250.9z"/>
		<path class="st15" d="M484.7,245.5c0,62.1-48.6,111-110.6,109.1c-64.6-2-118.9-57.8-118.9-124.5c0-66.8,54.3-115.2,118.9-108.5
			C436.2,128,484.7,183.4,484.7,245.5z"/>
		<linearGradient id="SVGID_6_" gradientUnits="userSpaceOnUse" x1="400.1575" y1="400.8842" x2="377.0969" y2="274.9052">
			<stop  offset="0" style="stop-color:#FCB148"/>
			<stop  offset="5.207239e-02" style="stop-color:#FDBA46"/>
			<stop  offset="0.1424" style="stop-color:#FFC244"/>
			<stop  offset="0.3183" style="stop-color:#FFC444"/>
			<stop  offset="0.4849" style="stop-color:#FDB946"/>
			<stop  offset="0.7754" style="stop-color:#F99C4D"/>
			<stop  offset="0.8658" style="stop-color:#F8924F"/>
			<stop  offset="1" style="stop-color:#F8924F"/>
		</linearGradient>
		<path class="st16" d="M479.9,245.2c0,59.4-46.5,106-105.8,104.1c-61.6-2-113.3-55.2-113.3-118.8c0-63.6,51.7-109.9,113.3-103.6
			C433.4,132.9,479.9,185.8,479.9,245.2z"/>
		<path class="st15" d="M476.4,245c0,57.4-45,102.4-102.3,100.5c-59.5-2-109.3-53.4-109.3-114.8s49.9-106.1,109.3-100
			C431.4,136.5,476.4,187.5,476.4,245z"/>
		<g>
			<path class="st14" d="M373.5,150.2L373.5,150.2c3,0.3,5.5,3,5.5,6.1v10.6c6.1,0.7,12.2,1.7,18.3,3.2c4.5,1.1,9,2.3,13.4,3.8
				c2.7,0.9,4.5,3.6,4.2,6.3l-1.3,13.3c-0.3,3.5-3.8,5.6-7.1,4.1c-2.9-1.3-5.9-2.4-9-3.4c-5.4-1.6-11-2.7-17-3.2l-1.6-0.1v30.3
				c15.9,4.5,27.6,10.4,35.1,18c7.5,7.5,11.3,16.8,11.3,28.1c0,12.1-4.1,21.8-12.5,29.2c-8.4,7.4-20.1,11.5-35.2,12.4v11.7
				c0,3.1-2.5,5.5-5.5,5.4l-0.1,0c-3.1-0.1-5.5-2.7-5.5-5.9v-11.5l-2.5-0.1c-7.1-0.3-13.9-1-20.4-2.2c-4.8-0.8-9.5-1.9-14.1-3.2
				c-2.8-0.8-4.7-3.4-4.4-6.3l1.5-17c0.3-3.7,4-5.8,7.5-4.4c4.1,1.6,8.2,3,12.4,4.1c6.5,1.7,13.1,2.8,19.8,3.3l0.1-33.7
				c-15.3-3.8-26.7-9.4-34.2-16.8c-7.5-7.4-11.3-17-11.3-28.6c0-12,4.1-21.3,12.3-27.7c8.1-6.5,19.7-9.7,34.6-9.7v-10.8
				C368,152.2,370.5,149.9,373.5,150.2z M368,190.6c-4.7,0.3-8.4,1.6-11,3.9c-2.6,2.3-4,5.3-4,9.1c0,3.6,1.2,6.6,3.7,9
				c2.4,2.4,6.2,4.3,11.3,5.8V190.6z M377.8,251.6v30.9c5.1,0,9.1-1.2,11.8-3.7c2.7-2.5,4.1-5.9,4.1-10.4c0-4.1-1.3-7.5-3.8-10.2
				C387.3,255.5,383.3,253.3,377.8,251.6z"/>
		</g>
		<path class="st17" d="M355.6,259c3.5-34.1,34.8-48.6,30.7-80c-2.5-19.3-17.2-35.7-33.5-48.4c-49.6,5.2-88,46.3-88,100
			c0,61.4,49.9,112.8,109.3,114.8c5.8,0.2,11.4-0.1,16.9-0.8C367.4,321.2,352.6,288.3,355.6,259z"/>
	</g>
	<g>
		<path class="st3" d="M462.6,174.1v0.5c-4.2-5.8-11.8-13.8-16.4-18.5c-0.1-0.2-0.2-0.4-0.3-0.6c-2.5-6.1-6-12.7-10.4-19.3
			c-4.4-6.6-10.1-13.1-16.7-19.1c-0.8-0.8-1.7-1.5-2.5-2.2c-0.4-0.4-0.9-0.7-1.3-1.1l-0.6-0.5c-0.2-0.2-0.5-0.3-0.7-0.5
			c-0.9-0.7-1.8-1.4-2.7-2.1l-0.7-0.5l-0.7-0.5c-0.5-0.3-0.9-0.7-1.4-1c-1.9-1.4-3.9-2.5-5.8-3.8c-1-0.6-2-1.2-3.1-1.7
			c-0.5-0.3-1-0.6-1.5-0.9c-0.5-0.3-1.1-0.5-1.6-0.8c-8.4-4.2-17.6-7.3-27-9c-1.2-0.2-2.4-0.4-3.5-0.6c-1.2-0.2-2.4-0.3-3.6-0.4
			l-1.8-0.2l-1.8-0.1l-1.8-0.1c-0.6,0-1.2-0.1-1.8-0.1c-1.2,0-2.4,0-3.6,0c-0.3,0-0.6,0-0.9,0l-0.8,0l-1.6,0.1l-1.6,0.1
			c-0.1,0-0.2,0-0.4,0l-1.6,0.1l-2.2,0.2l-1.6,0.1l-0.3,0l-0.1,0c0,0-0.6,0,0.4,0l-3.5,0.5c-0.6,0.1-1.2,0.1-1.7,0.3l-1.7,0.3
			l-1.7,0.3l-0.9,0.2c-0.3,0.1-0.6,0.1-0.8,0.2c-1.1,0.3-2.2,0.6-3.4,0.9c-0.6,0.1-1.1,0.3-1.7,0.5l-1.6,0.5l-1.6,0.5l-1.6,0.6
			c-1.1,0.4-2.1,0.8-3.2,1.2c-1,0.4-2.1,0.9-3.1,1.3c-8.2,3.6-15.5,8.3-21.7,13.7l-1.2,1l-1.1,1c-0.7,0.7-1.5,1.4-2.2,2.1
			c0,0-0.1,0.1-0.1,0.1c-1.4,1.4-2.8,2.8-4,4.2c-0.3,0.4-0.6,0.7-1,1.1l-0.5,0.5l-0.4,0.6c-0.6,0.7-1.2,1.5-1.8,2.2
			c-0.1,0.2-0.3,0.4-0.4,0.5l-0.4,0.6c-0.3,0.4-0.6,0.8-0.8,1.1c-0.5,0.8-1.1,1.5-1.6,2.3c-4,6.1-7.1,12.1-9.2,17.9
			c-2.1,5.8-3.4,11.2-4.1,16c-0.1,0.6-0.2,1.2-0.2,1.8c-0.1,0.6-0.2,1.1-0.2,1.7c-0.1,1.1-0.2,2.2-0.3,3.2c-0.1,1-0.1,2-0.1,3
			c0,0.5,0,0.9-0.1,1.4c0,0.5,0,0.9,0,1.3c0,0.9,0,1.7,0,2.4c0,0.2,0,0.3,0,0.5c0,0.1,0,0.3,0.1,0.4c0,0.3,0.1,0.2,0.1,0.5
			c0,0.2,0,0.3,0.1,0.3H303l-24.2,26.9l-56.4,61.6l-80.6-88.5h42.4c0.1,0,0.1-0.7,0.2-1.3c0.2-1.2,0.3-2.4,0.5-3.9
			c0.1-0.7,0.2-1.4,0.3-2.2c0.1-0.4,0.1-0.7,0.2-1.1c0.1-0.4,0.1-0.8,0.2-1.2c0.3-1.5,0.6-3,0.9-4.7c0.2-0.8,0.3-1.7,0.5-2.5
			c0.2-0.9,0.4-1.7,0.7-2.6c0.5-1.8,0.9-3.7,1.5-5.6c0.6-1.9,1.2-3.9,1.8-6c0.3-1,0.7-2.1,1.1-3.1c0.4-1,0.8-2.1,1.2-3.2
			c3.3-8.6,7.8-18,13.8-27.5c6-9.5,13.6-18.9,22.6-27.6c1.1-1.1,2.3-2.1,3.5-3.2c0.6-0.5,1.2-1.1,1.8-1.6l0.9-0.8l0.9-0.8
			c1.2-1,2.5-2,3.7-3.1l0.9-0.8l1-0.7c0.7-0.5,1.3-1,2-1.5c2.6-2,5.4-3.8,8.1-5.6c1.4-0.9,2.8-1.7,4.3-2.6c0.7-0.4,1.4-0.8,2.2-1.3
			c0.7-0.4,1.5-0.8,2.2-1.2c11.8-6.5,24.8-11.4,38.3-14.3c1.7-0.3,3.4-0.7,5.1-1c1.7-0.3,3.4-0.5,5.1-0.8l2.6-0.4l2.6-0.3l2.6-0.2
			c0.9-0.1,1.7-0.2,2.6-0.2c1.7-0.1,3.4-0.3,5.2-0.4c0.4,0,0.9-0.2,1.3-0.2h1.3l2.6,0.1l2.6,0.1c0.9,0,1.7,0.1,2.6,0.2l5.1,0.3
			c1.2,0,0.4,0,0.7,0l0.1,0l0.3,0l0.5,0.1l1.1,0.1l2.1,0.3l1.1,0.1l0.5,0.1l0.7,0.1l2.7,0.4l2.7,0.4l1.3,0.2
			c0.4,0.1,0.8,0.2,1.3,0.3c1.7,0.4,3.3,0.7,5,1.1c0.8,0.2,1.6,0.4,2.4,0.6l2.4,0.6l2.4,0.6l2.4,0.8c1.6,0.5,3.2,1,4.7,1.6
			c1.6,0.6,3.1,1.2,4.6,1.7c12.3,4.9,23.4,11.4,33.1,18.9c0.6,0.5,1.2,0.9,1.8,1.4c0.6,0.5,1.2,1,1.7,1.5c1.2,1,2.3,1.9,3.4,2.9
			c2.2,2.1,4.4,4,6.4,6.2c0.5,0.5,1,1,1.5,1.6l0.7,0.8l0.7,0.8c1,1.1,1.9,2.2,2.8,3.2l0.7,0.8l0.7,0.8c0.4,0.6,0.9,1.1,1.3,1.6
			c0.9,1.1,1.8,2.1,2.5,3.3c4.4,5.9,8.1,11.9,11.2,17.9c1.5,2.9,2.8,5.7,4,8.6c3.7,8.6,6,16.9,7.5,24.2c0.2,0.9,0.3,1.8,0.5,2.7
			c0.2,0.9,0.3,1.8,0.4,2.6c0.2,1.7,0.5,3.4,0.7,5c0.2,1.6,0.3,3.1,0.4,4.6c0.1,0.7,0.1,1.4,0.2,2.1c0,0.7,0.2,1.4,0.2,2
			C462.4,171.6,462.6,172.9,462.6,174.1z"/>
		<linearGradient id="SVGID_7_" gradientUnits="userSpaceOnUse" x1="358.6499" y1="168.4701" x2="415.8512" y2="90.0757">
			<stop  offset="3.597120e-03" style="stop-color:#6165D7"/>
			<stop  offset="1" style="stop-color:#AA80F9"/>
		</linearGradient>
		<path class="st18" d="M462.6,174.1v0.5c-4.2-5.8-11.8-13.8-16.4-18.5c-0.1-0.2-0.2-0.4-0.3-0.6c-2.5-6.1-6-12.7-10.4-19.3
			c-4.4-6.6-10.1-13.1-16.7-19.1c-0.8-0.8-1.7-1.5-2.5-2.2c-0.4-0.4-0.9-0.7-1.3-1.1l-0.6-0.5c-0.2-0.2-0.5-0.3-0.7-0.5
			c-0.9-0.7-1.8-1.4-2.7-2.1l-0.7-0.5l-0.7-0.5c-0.5-0.3-0.9-0.7-1.4-1c-1.9-1.4-3.9-2.5-5.8-3.8c-1-0.6-2-1.2-3.1-1.7
			c-0.5-0.3-1-0.6-1.5-0.9c-0.5-0.3-1.1-0.5-1.6-0.8c-8.4-4.2-17.6-7.3-27-9c-1.2-0.2-2.4-0.4-3.5-0.6c-1.2-0.2-2.4-0.3-3.6-0.4
			l-1.8-0.2l-1.8-0.1l-1.8-0.1c-0.6,0-1.2-0.1-1.8-0.1c-1.2,0-2.4,0-3.6,0c-0.3,0-0.6,0-0.9,0l-0.8,0l-1.6,0.1l-1.6,0.1
			c-0.1,0-0.2,0-0.4,0l-1.6,0.1l-2.2,0.2l-1.6,0.1l-0.3,0l-0.1,0c0,0-0.6,0,0.4,0l-3.5,0.5c-0.6,0.1-1.2,0.1-1.7,0.3l-1.7,0.3
			l-1.7,0.3l-0.9,0.2c-0.3,0.1-0.6,0.1-0.8,0.2c-1.1,0.3-2.2,0.6-3.4,0.9c-0.6,0.1-1.1,0.3-1.7,0.5l-1.6,0.5l-1.6,0.5l-1.6,0.6
			c-1.1,0.4-2.1,0.8-3.2,1.2c-1,0.4-2.1,0.9-3.1,1.3c-8.2,3.6-15.5,8.3-21.7,13.7l-1.2,1l-1.1,1c-0.7,0.7-1.5,1.4-2.2,2.1
			c0,0-0.1,0.1-0.1,0.1c17.9-22.2,46.9-36.6,79.7-36.6c33.5,0,63.2,15.1,80.9,38.2c1.5,2.9,2.8,5.7,4,8.6c3.7,8.6,6,16.9,7.5,24.2
			c0.2,0.9,0.3,1.8,0.5,2.7c0.2,0.9,0.3,1.8,0.4,2.6c0.2,1.7,0.5,3.4,0.7,5c0.2,1.6,0.3,3.1,0.4,4.6c0.1,0.7,0.1,1.4,0.2,2.1
			c0,0.7,0.2,1.4,0.2,2C462.4,171.6,462.6,172.9,462.6,174.1z"/>
	</g>
	<g>
		<path class="st19" d="M222.7,294.7c-0.9-0.7-2.1-1.9-2.7-3.6c-0.7-1.9-0.2-2.7-1.1-3.9c-1.2-1.5-3.5-2.1-5.1-1.4
			c-0.3,0.2-0.8,0.4-1,0.8c-0.7,1.2,0.9,3.3,2.2,4.4c1,0.8,1.4,0.8,2.4,1.5c1,0.7,2.2,1.9,3.2,4.1L222.7,294.7z"/>
		<path class="st19" d="M169.3,284.5c1.1-0.3,2.6-0.9,3.9-2.3c1.4-1.4,1.2-2.4,2.5-3.1c1.6-0.9,4.1-0.6,5.3,0.7
			c0.3,0.3,0.6,0.6,0.6,1.1c0.2,1.4-2.1,2.7-3.7,3.2c-1.2,0.4-1.6,0.2-2.8,0.5c-1.2,0.3-2.8,0.9-4.6,2.5L169.3,284.5z"/>
		<path class="st1" d="M174.4,286.3c0.7,3.4-2.9,6.4-5.6,9.3c-5.3,5.9-10.8,16.5-8.8,25.5c1.1,4.9,4.7,10.3,9.7,12.8
			c5.4,2.7,8.6,0.2,14.2,3.5c0.4,0.2,7.5,4.4,7.7,10.1c0.3,7-10,14.5-18.9,15c-16.1,1-35.6-20.4-34.7-41.7
			c1-23.2,25.9-41.6,33.1-38.5C172.3,282.9,174,284.4,174.4,286.3z"/>
		<polygon class="st19" points="181.6,526.2 182.2,532.1 179.4,531.6 177.6,526.1 		"/>
		<path class="st20" d="M164.9,417.7c0.3,10.4,1.6,19.3,3.1,26.6c1.7,7.8,2.6,9.2,3.1,14.6c1.1,11.8-2.7,13.5-3.4,26.8
			c-0.8,14.7,3.1,26.4,4.7,30.9c1.3,3.9,2.8,7,3.8,9.2c1.3,1.2,3.4,0.7,5.6,0.3c0.8-13.3,1.8-25.9,2.6-39.3
			c2.6-20.1,5.2-40.2,7.8-60.2C183.1,423.7,174,420.7,164.9,417.7z"/>
		
			<linearGradient id="SVGID_8_" gradientUnits="userSpaceOnUse" x1="-476.7775" y1="368.2661" x2="-481.4462" y2="473.3125" gradientTransform="matrix(0.9994 3.520000e-02 -3.520000e-02 0.9994 667.5008 77.735)">
			<stop  offset="0" style="stop-color:#311944"/>
			<stop  offset="1" style="stop-color:#893976"/>
		</linearGradient>
		<path class="st21" d="M181.9,526.2c0.8-13.3,1.8-25.9,2.6-39.3c2.6-20.1,5.2-40.2,7.8-60.2c-9.1-3-18.2-6-27.3-8.9
			c0,0.7,0.1,1.4,0.1,2c12.8,11.1,15.3,19.9,15.2,25.9c-0.2,7.3-4.1,10.9-3.4,21.4c0.6,7.5,2.8,8.9,2.8,15.7
			c0,8.8-3.8,13.7-5.6,18.7c-1.8,4.9-2.4,11.8,1,21.7c0.4,1,0.9,1.9,1.3,2.7C177.7,527.1,179.7,526.6,181.9,526.2z"/>
		<path class="st5" d="M180.6,534.1c-1.3-1.6-2.5-1.5-2.7-2.6c-0.2-0.9,0.4-1.9,1.2-2.3c1.1-0.5,2.4,0.4,2.7,0.6
			c2,1.4,1.4,3.5,3.3,4.4c0.4,0.2,1,0.4,1.6,1c0.3,0.3,0.9,0.9,0.8,1.4c-0.2,0.5-1.4,0.5-2.6,0.4c-1.4,0-2.1-0.1-2.8-0.5
			C181.3,535.9,181.6,535.3,180.6,534.1z"/>
		<polygon class="st19" points="183.3,483.9 178.2,485.9 176.7,483.5 180.7,480.8 		"/>
		<path class="st5" d="M175.5,487.1c0.3-2-0.6-2.8,0.1-3.7c0.5-0.7,1.6-1,2.5-0.7c1.1,0.5,1.4,2,1.4,2.4c0.4,2.4-1.6,3.4-1,5.4
			c0.1,0.4,0.4,1,0.4,1.9c0,0.4,0,1.3-0.5,1.5c-0.5,0.2-1.3-0.7-2.1-1.6c-0.9-1.1-1.4-1.6-1.5-2.4
			C174.6,488.9,175.3,488.7,175.5,487.1z"/>
		<path class="st20" d="M205.4,408.5c9.5,19.4,12.8,35.6,14,46.2c0.8,6.8,0.7,11-1.2,15.2c-7,15.1-31.5,16.1-35.2,16.2
			c-1.2-2.5-2.4-5-3.7-7.5c2.3-4.2,6.2-10,12.9-14.2c5.2-3.3,7.2-2.6,8.5-4.7c5.2-8.8-22.8-27.8-18.6-40.4
			C183.5,414.9,189.1,410.4,205.4,408.5z"/>
		<path class="st3" d="M184.8,338.6c10.3,1.8,18.1,3.6,21.6,9c3.7,5.7-2.2,10-3.8,22.5c-2.4,19.1,8.6,26.3,5.4,45.5
			c-0.5,3.1-1.3,5.9-2.1,8.3c-1.5,4.2-4.4,7.7-8.1,10.1c-2.8,1.8-6.3,3.6-10.3,5c-10.4,3.7-15.6,1.5-29.6,2.3
			c-23,1.3-26.4,8-36.8,3.9c-10.5-4.1-18.1-15.3-15.9-20.1c1.3-2.9,5.5-1.1,11.6-4.6c7.8-4.5,6.5-10.7,12.8-16
			c9.1-7.6,17.8,0.1,25.5-6.5c7.8-6.7,8.8-23,5.4-32.7c-2.2-6.3-2.2-13.2-3.8-19.7c-0.1-0.5-0.2-1.4,0.1-2.4
			c1.3-3.7,8.1-4.5,13.3-4.9C177.9,337.5,183.9,338.5,184.8,338.6z"/>
		
			<linearGradient id="SVGID_9_" gradientUnits="userSpaceOnUse" x1="-2099.6709" y1="142.8051" x2="-2052.2632" y2="240.2914" gradientTransform="matrix(-0.9781 -0.2085 -0.2085 0.9781 -1807.6355 -225.4535)">
			<stop  offset="0" style="stop-color:#FF9085"/>
			<stop  offset="1" style="stop-color:#FB6FBB"/>
		</linearGradient>
		<path class="st22" d="M122.2,438c3.2-2.1,1.5-8.1,6.2-11.3c4.4-3,7.8,0.9,14.2-1.1c8.3-2.5,7.8-10.5,15.8-13
			c5.7-1.8,7.4,1.8,15.6,2c8.2,0.2,19-3.2,25.8-11.9c2.9-3.7,4.5-7.6,5.4-11.3c2.2,7.1,4.6,13.9,2.9,24.3c-0.7,4.2-1.8,7.8-3,10.6
			c-1.1,2.6-2.9,4.9-5.2,6.5c-3.2,2.2-7.3,4.6-12.4,6.4c-10.4,3.7-15.6,1.5-29.6,2.3c-23,1.3-26.4,8-36.8,3.9
			c-6.7-2.6-12.2-8.2-14.7-13.1C115.4,438.8,119.9,439.6,122.2,438z"/>
		<path class="st19" d="M190.7,320.8c0,0,2.8,5.3,3,9.1c0.2,3.7-4,3.5-4,3.5l0.2,2.4c0.1,2,1.4,3.8,3.3,4.5l1.7,0.6
			c0,0-10.9,2.3-16.8-1.9l1.7-0.2c2.4-0.2,4.3-2.1,4.6-4.6l0.1-1C184.5,333.2,182.6,321.5,190.7,320.8z"/>
		<path class="st1" d="M217.5,295.8c-1.6,3,1.1,6.9,2.8,10.5c3.4,7.1,5.8,18.8,1.4,26.9c-2.4,4.4-7.3,8.6-12.8,9.7
			c-5.9,1.1-8.4-2.1-14.7-0.6c-0.5,0.1-8.5,2.2-10.2,7.6c-2.2,6.7,5.7,16.7,14,19.7c15.2,5.5,39.8-9.8,44.8-30.5
			c5.4-22.5-13.4-47.1-21.2-46.1C220.4,293.1,218.4,294.1,217.5,295.8z"/>
		<path class="st5" d="M189,326.1c-0.6,0-1-0.8-1.4-0.5c-0.4,0.2-0.4,1.3,0,2c0.3,0.6,0.8,0.9,1,1.1c-0.4,0.6-1,1.5-1.2,2.8
			c-0.5,2.7,0.9,4.9,1.5,6.1c2.7,5.7-1.5,14.8-6.1,19.4c-3.7,3.7-5.5,2.2-7.7,5.3c-4.3,5.9,1.6,12.4-0.6,20.4
			c-3.4,12.1-22.5,15.7-23.3,15.8c-0.3,0.1-0.5,0.1-0.8,0.1c-8.6,1.4-21.5,3.4-30.7-3.6c-6.8-5.3-10-14.4-9.5-22.5
			c0.1-2.1,0.8-10.2,7.3-16.7c1-1,7.2-7.2,15.5-7.3c4.4,0,5.3,1.5,8.7,0.6c4.6-1.3,7.5-5.5,9.2-8.1c3.2-4.8,1.9-5.8,4.3-8.2
			c4.6-4.6,10-1,14.8-5.1c4.8-4,1.9-9.5,6.6-12.9c4.8-3.6,14-2.3,15.9,1.9C194.4,320.2,190.8,326.3,189,326.1z"/>
	</g>
</g>
</svg>
