<?xml version="1.0" encoding="utf-8"?>
<!-- Generator: Adobe Illustrator 24.2.1, SVG Export Plug-In . SVG Version: 6.00 Build 0)  -->
<svg version="1.1" id="Capa_1" xmlns="http://www.w3.org/2000/svg" xmlns:xlink="http://www.w3.org/1999/xlink" x="0px" y="0px"
	 viewBox="0 0 70 70" style="enable-background:new 0 0 70 70;" xml:space="preserve">
<style type="text/css">
	.st0{clip-path:url(#SVGID_2_);}
	.st1{fill:#FFA600;}
	.st2{fill:#FFEC66;}
</style>
<g>
	<defs>
		<rect id="SVGID_1_" width="70" height="70"/>
	</defs>
	<clipPath id="SVGID_2_">
		<use xlink:href="#SVGID_1_"  style="overflow:visible;"/>
	</clipPath>
	<g class="st0">
		<path class="st1" d="M67.7,23.8c6.2,18-3.4,37.7-21.4,43.9c-18,6.2-37.7-3.4-43.9-21.4S5.7,8.6,23.8,2.3S61.4,5.7,67.7,23.8z"/>
		<path class="st2" d="M62.4,25.6c5.2,15.1-2.8,31.6-17.9,36.9c-15.1,5.2-31.6-2.8-36.9-17.9C2.4,29.4,10.4,12.9,25.5,7.7
			C40.7,2.4,57.2,10.5,62.4,25.6z"/>
		<g>
			<path class="st1" d="M32.6,55.5l0.1-4.9c-2.2-0.2-4.3-0.6-6.1-1.2c-1.5-0.5-2.3-2.1-1.9-3.6l0.1-0.2c0.5-1.6,2.2-2.6,3.8-2
				c1.6,0.6,3.5,1,5.5,1.1c2.9,0.1,4.9-1.1,4.9-3.1c0-1.9-1.6-3.2-5.3-4.5c-5.4-1.9-9.1-4.5-9-9.5c0.1-4.4,3.3-7.9,8.7-8.9l0.1-4.9
				l5,0.1l-0.1,4.4c1.9,0.1,3.4,0.4,4.6,0.7c1.5,0.4,2.4,2,2,3.6l0,0c-0.4,1.6-2.1,2.5-3.7,2c-1.2-0.4-2.7-0.6-4.4-0.7
				c-3.3-0.1-4.4,1.4-4.4,2.7c0,1.7,1.7,2.7,6.1,4.4c6.1,2.3,8.4,5.1,8.3,9.7c-0.1,4.5-3.3,8.3-9.2,9.3l-0.1,5.2L32.6,55.5z"/>
		</g>
	</g>
</g>
</svg>
