<svg width="163" height="54" viewBox="0 0 163 54" fill="none" xmlns="http://www.w3.org/2000/svg">
<g clip-path="url(#clip0)">
<path d="M79.25 23.9994C78.836 23.9994 78.5 24.3354 78.5 24.7494C78.5 27.6444 76.145 29.9994 73.25 29.9994H66V26.7494C66 26.0894 65.206 25.7554 64.732 26.2074L59.232 31.4574C59.084 31.5984 59 31.7944 59 31.9994C59 32.2044 59.084 32.4004 59.232 32.5414L64.732 37.7914C65.208 38.2454 66 37.9074 66 37.2494V33.9994H72.25C76.523 33.9994 80 30.5224 80 26.2494V24.7494C80 24.3354 79.664 23.9994 79.25 23.9994Z" fill="#20A2A5"/>
<path d="M70 16.75V20H63.75C59.477 20 56 23.477 56 27.75V29.25C56 29.664 56.336 30 56.75 30C57.164 30 57.5 29.664 57.5 29.25C57.5 26.355 59.855 24 62.75 24H70V27.25C70 27.907 70.791 28.248 71.268 27.792L76.768 22.542C76.916 22.401 77 22.205 77 22C77 21.795 76.916 21.599 76.768 21.458L71.268 16.208C70.791 15.754 70 16.092 70 16.75Z" fill="#20A2A5"/>
</g>
<rect x="9" y="5" width="26" height="43" rx="3" fill="#A5D8C6"/>
<rect x="9" y="11" width="26" height="30" fill="#E1F2EC"/>
<path d="M32.2664 5H11.7331C9.70907 5.00238 8.06879 6.64267 8.06641 8.66667V45.3333C8.06879 47.3573 9.70907 48.9976 11.7331 49H32.2664C34.2904 48.9976 35.9307 47.3573 35.9331 45.3333V8.66667C35.9307 6.64267 34.2904 5.00238 32.2664 5ZM34.4664 45.3333C34.4664 46.5484 33.4814 47.5333 32.2664 47.5333H11.7331C10.518 47.5333 9.53307 46.5484 9.53307 45.3333V41.6667H34.4664V45.3333ZM34.4664 40.2H9.53307V10.8667H34.4664V40.2ZM34.4664 9.4H9.53307V8.66667C9.53307 7.45163 10.518 6.46667 11.7331 6.46667H32.2664C33.4814 6.46667 34.4664 7.45163 34.4664 8.66667V9.4Z" fill="#0D8284"/>
<path d="M22.0008 42.4001C20.7857 42.4001 19.8008 43.3851 19.8008 44.6001C19.8008 45.8152 20.7857 46.8001 22.0008 46.8001C23.2158 46.8001 24.2008 45.8152 24.2008 44.6001C24.2008 43.3851 23.2158 42.4001 22.0008 42.4001ZM22.0008 45.3335C21.5958 45.3335 21.2674 45.0051 21.2674 44.6001C21.2674 44.1952 21.5958 43.8668 22.0008 43.8668C22.4058 43.8668 22.7341 44.1952 22.7341 44.6001C22.7341 45.0051 22.4058 45.3335 22.0008 45.3335Z" fill="#0D8284"/>
<path d="M22.7332 7.19983H21.2665C20.8616 7.19983 20.5332 7.52818 20.5332 7.93316C20.5332 8.33815 20.8616 8.6665 21.2665 8.6665H22.7332C23.1382 8.6665 23.4665 8.33815 23.4665 7.93316C23.4665 7.52818 23.1382 7.19983 22.7332 7.19983Z" fill="#0D8284"/>
<path d="M127.276 36C133.77 29.3726 133.77 18.6274 127.276 12C120.782 5.37259 110.253 5.37258 103.759 12C97.2645 18.6274 97.2645 29.3726 103.759 36C110.253 42.6274 120.782 42.6274 127.276 36Z" fill="#EAB726"/>
<path d="M116.559 40.7979C125.837 40.7979 133.529 33.2781 133.739 24.0019C133.948 14.7257 126.596 7.20581 117.318 7.20581C108.039 7.20581 100.348 14.7257 100.138 24.0019C99.9284 33.2781 107.28 40.7979 116.559 40.7979Z" fill="#FFEB4D"/>
<path d="M106.239 35.1462C103.382 32.2231 101.807 28.3352 101.807 24.2004C101.807 20.0657 103.381 16.1788 106.239 13.2557C109.097 10.3325 112.898 8.72156 116.941 8.72156C120.983 8.72156 124.783 10.3315 127.641 13.2557C130.499 16.1788 132.074 20.0667 132.074 24.2004C132.074 28.3341 130.5 32.222 127.641 35.1462C124.783 38.0694 120.982 39.6804 116.941 39.6804C112.898 39.6804 109.098 38.0694 106.239 35.1462ZM102.71 24.2015C102.71 32.2272 109.094 38.7571 116.941 38.7571C124.787 38.7571 131.171 32.2272 131.171 24.2015C131.171 16.1757 124.787 9.64581 116.941 9.64581C109.094 9.64581 102.71 16.1747 102.71 24.2015Z" fill="#EAB726"/>
<path d="M119.592 28.385C119.587 28.0488 119.536 27.7531 119.44 27.4978C119.343 27.2427 119.188 27.0118 118.975 26.8064C118.761 26.6001 118.487 26.411 118.151 26.2384C117.816 26.0657 117.407 25.8973 116.924 25.7335C116.094 25.4456 115.339 25.1415 114.661 24.8243C113.982 24.5062 113.399 24.1378 112.913 23.718C112.427 23.2983 112.046 22.8061 111.773 22.2403C111.5 21.6746 111.357 20.9996 111.346 20.2154C111.335 19.5357 111.444 18.9147 111.673 18.3524C111.901 17.79 112.23 17.2992 112.662 16.8786C113.094 16.4591 113.614 16.116 114.221 15.8503C114.829 15.5847 115.511 15.4118 116.268 15.3337L116.231 12.765L118.253 12.7464L118.291 15.3505C119.017 15.4398 119.677 15.6296 120.271 15.9201C120.865 16.2106 121.372 16.59 121.792 17.0581C122.212 17.5264 122.538 18.0821 122.771 18.7233C123.003 19.3656 123.126 20.086 123.138 20.8858L119.485 20.92C119.471 19.9604 119.252 19.2441 118.827 18.7714C118.404 18.2996 117.841 18.0666 117.143 18.0732C116.764 18.0767 116.438 18.134 116.166 18.2449C115.894 18.3548 115.67 18.5054 115.496 18.6944C115.322 18.8846 115.195 19.1074 115.115 19.3637C115.034 19.6201 114.996 19.897 115 20.1926C115.004 20.4881 115.05 20.7562 115.138 20.9958C115.225 21.2354 115.374 21.4556 115.583 21.6583C115.793 21.86 116.069 22.0498 116.414 22.2266C116.758 22.4034 117.184 22.5852 117.692 22.7729C118.513 23.0777 119.262 23.3909 119.937 23.7127C120.611 24.0346 121.192 24.4075 121.679 24.8313C122.165 25.2552 122.546 25.7494 122.819 26.3152C123.092 26.881 123.235 27.5517 123.247 28.3275C123.257 29.0313 123.147 29.6651 122.914 30.2269C122.682 30.7897 122.35 31.2767 121.918 31.6889C121.486 32.1011 120.962 32.4343 120.346 32.6875C119.731 32.9417 119.044 33.1079 118.287 33.187L118.322 35.5749L116.313 35.594L116.278 33.2174C115.577 33.1522 114.899 33.0024 114.242 32.7681C113.586 32.5339 113.001 32.1939 112.489 31.7462C111.978 31.2984 111.564 30.7331 111.252 30.0469C110.938 29.3619 110.774 28.5391 110.76 27.5795L114.413 27.5453C114.421 28.1134 114.506 28.5866 114.667 28.9652C114.828 29.3438 115.042 29.6464 115.306 29.8713C115.571 30.0971 115.87 30.2547 116.205 30.3428C116.539 30.432 116.879 30.4743 117.224 30.471C117.62 30.4673 117.967 30.4126 118.264 30.3057C118.562 30.1988 118.81 30.0523 119.009 29.8661C119.209 29.68 119.357 29.4608 119.455 29.2074C119.55 28.9564 119.596 28.6816 119.592 28.385Z" fill="#EAB726"/>
<path d="M154.136 41.1114C156.252 36.5177 154.279 31.003 149.73 28.7939C145.18 26.5848 139.776 28.5178 137.66 33.1115C135.544 37.7052 137.516 43.2199 142.066 45.429C146.616 47.6381 152.02 45.705 154.136 41.1114Z" fill="#EAB726"/>
<path d="M149.517 45.5406C154.279 43.8371 156.846 38.5656 155.251 33.7663C153.655 28.967 148.502 26.4573 143.74 28.1608C138.978 29.8643 136.411 35.1358 138.006 39.9352C139.601 44.7345 144.755 47.2441 149.517 45.5406Z" fill="#FFEB4D"/>
<path d="M143.183 44.5347C141.18 43.5591 139.658 41.8529 138.898 39.7308C138.139 37.6088 138.234 35.325 139.164 33.2998C140.094 31.2749 141.749 29.7503 143.824 29.0081C145.899 28.266 148.144 28.3946 150.148 29.3707C152.151 30.3462 153.673 32.0524 154.432 34.174C155.191 36.2955 155.097 38.5799 154.167 40.6055C153.237 42.6305 151.582 44.1551 149.508 44.8971C147.433 45.6392 145.187 45.5101 143.183 44.5347ZM139.362 39.5655C140.836 43.6845 145.311 45.8638 149.338 44.4232C153.365 42.9827 155.443 38.4593 153.969 34.3402C152.496 30.2212 148.021 28.0419 143.994 29.4825C139.967 30.923 137.889 35.4459 139.362 39.5655Z" fill="#EAB726"/>
<path d="M148.794 38.6142C148.73 38.4426 148.649 38.3002 148.553 38.1868C148.457 38.0736 148.335 37.9836 148.188 37.9172C148.04 37.8507 147.864 37.804 147.661 37.777C147.457 37.75 147.216 37.7386 146.938 37.7431C146.459 37.7478 146.016 37.7303 145.61 37.6921C145.203 37.6534 144.836 37.5714 144.51 37.4451C144.183 37.319 143.897 37.1363 143.653 36.8961C143.409 36.6559 143.212 36.3357 143.062 35.9353C142.932 35.5883 142.874 35.2496 142.888 34.9191C142.902 34.5886 142.981 34.2762 143.125 33.981C143.27 33.6864 143.473 33.4149 143.736 33.167C144 32.9191 144.318 32.7052 144.692 32.5261L144.201 31.2147L145.236 30.8337L145.733 32.1633C146.122 32.0759 146.496 32.0522 146.854 32.0922C147.213 32.1321 147.542 32.2338 147.844 32.3969C148.145 32.5603 148.415 32.7856 148.652 33.0718C148.889 33.3588 149.084 33.706 149.237 34.1144L147.369 34.8026C147.185 34.3127 146.942 33.9852 146.637 33.8205C146.333 33.6562 146.001 33.6398 145.644 33.7715C145.45 33.8429 145.293 33.9322 145.174 34.039C145.055 34.1453 144.967 34.2637 144.913 34.3926C144.858 34.5223 144.834 34.66 144.84 34.8062C144.845 34.9527 144.877 35.1017 144.933 35.2526C144.99 35.4036 145.063 35.5327 145.151 35.6396C145.24 35.7465 145.357 35.8322 145.502 35.8978C145.646 35.9629 145.823 36.0095 146.032 36.037C146.241 36.0646 146.493 36.0797 146.789 36.0827C147.266 36.0884 147.708 36.1117 148.113 36.1529C148.519 36.1943 148.885 36.2791 149.213 36.4072C149.54 36.5355 149.826 36.7193 150.07 36.9594C150.315 37.1996 150.511 37.5176 150.659 37.9137C150.794 38.273 150.853 38.6185 150.837 38.9495C150.822 39.281 150.741 39.592 150.595 39.8828C150.449 40.1736 150.241 40.4409 149.971 40.684C149.702 40.9273 149.38 41.1388 149.006 41.3183L149.462 42.5374L148.435 42.9161L147.98 41.7028C147.609 41.798 147.233 41.8456 146.853 41.8459C146.473 41.8462 146.111 41.7791 145.766 41.6432C145.421 41.5073 145.105 41.2931 144.819 40.9984C144.532 40.7044 144.297 40.3122 144.113 39.8223L145.982 39.134C146.09 39.4242 146.221 39.6514 146.373 39.8161C146.525 39.9808 146.69 40.097 146.868 40.1638C147.045 40.2311 147.227 40.2571 147.415 40.2408C147.603 40.2253 147.785 40.1847 147.962 40.1196C148.164 40.0449 148.332 39.9531 148.465 39.8438C148.598 39.7342 148.699 39.6135 148.767 39.4813C148.835 39.3491 148.871 39.2094 148.875 39.0614C148.877 38.9152 148.851 38.7657 148.794 38.6142Z" fill="#EAB726"/>
<defs>
<clipPath id="clip0">
<rect width="24" height="24" fill="white" transform="matrix(1 0 0 -1 56 39)"/>
</clipPath>
</defs>
</svg>
