<?xml version="1.0" encoding="utf-8"?>
<!-- Generator: Adobe Illustrator 24.2.1, SVG Export Plug-In . SVG Version: 6.00 Build 0)  -->
<svg version="1.1" id="Capa_1" xmlns="http://www.w3.org/2000/svg" xmlns:xlink="http://www.w3.org/1999/xlink" x="0px" y="0px"
	 viewBox="0 0 163 54" style="enable-background:new 0 0 163 54;" xml:space="preserve">
<style type="text/css">
	.st0{clip-path:url(#SVGID_2_);}
	.st1{fill:#002B9C;}
	.st2{fill:#0D8284;}
	.st3{fill:#0948F0;}
	.st4{opacity:0.3;fill:#C3E5D9;enable-background:new    ;}
	.st5{fill:#FFA600;}
	.st6{fill:#FFEC66;}
	.st7{fill:#7FB2FF;}
</style>
<g>
	<defs>
		<rect id="SVGID_1_" x="56" y="15" width="24" height="24"/>
	</defs>
	<clipPath id="SVGID_2_">
		<use xlink:href="#SVGID_1_"  style="overflow:visible;"/>
	</clipPath>
	<g class="st0">
		<path class="st1" d="M79.2,24c-0.4,0-0.8,0.3-0.8,0.8c0,2.9-2.4,5.2-5.2,5.2H66v-3.2c0-0.7-0.8-1-1.3-0.5l-5.5,5.2
			C59.1,31.6,59,31.8,59,32s0.1,0.4,0.2,0.5l5.5,5.2c0.5,0.5,1.3,0.1,1.3-0.5V34h6.2c4.3,0,7.8-3.5,7.8-7.8v-1.5
			C80,24.3,79.7,24,79.2,24z"/>
		<path class="st1" d="M70,16.8V20h-6.2c-4.3,0-7.8,3.5-7.8,7.8v1.5c0,0.4,0.3,0.8,0.8,0.8s0.8-0.3,0.8-0.8c0-2.9,2.4-5.2,5.2-5.2
			H70v3.2c0,0.7,0.8,1,1.3,0.5l5.5-5.2c0.1-0.1,0.2-0.3,0.2-0.5s-0.1-0.4-0.2-0.5l-5.5-5.2C70.8,15.8,70,16.1,70,16.8z"/>
	</g>
</g>
<path class="st2" d="M22.7,7.2h-1.5c-0.4,0-0.7,0.3-0.7,0.7c0,0.4,0.3,0.7,0.7,0.7h1.5c0.4,0,0.7-0.3,0.7-0.7
	C23.5,7.5,23.1,7.2,22.7,7.2z"/>
<g>
	<path class="st3" d="M12.5,49h18.1c1.4,0,2.6-1.2,2.6-2.6V7.6C33.1,6.2,32,5,30.6,5H12.5c-1.4,0-2.6,1.2-2.6,2.6v38.8
		C9.9,47.8,11.1,49,12.5,49z"/>
	<path class="st4" d="M32,41.9V9.3c0-1.4-1.1-2.5-2.5-2.5H13.8c-1.4,0-2.5,1.1-2.5,2.5v32.5c0,1.4,1.1,2.5,2.5,2.5h15.7
		C30.9,44.3,32,43.2,32,41.9z"/>
</g>
<g>
	<path class="st5" d="M132.4,18.2c3.1,8.9-1.7,18.6-10.6,21.7c-8.9,3.1-18.6-1.7-21.7-10.6c-3.1-8.9,1.7-18.6,10.6-21.7
		S129.3,9.3,132.4,18.2z"/>
	<path class="st6" d="M129.8,19.1c2.6,7.5-1.4,15.6-8.9,18.2c-7.5,2.6-15.6-1.4-18.2-8.9c-2.6-7.5,1.4-15.6,8.9-18.2
		C119.1,7.7,127.3,11.6,129.8,19.1z"/>
	<g>
		<path class="st5" d="M115.1,33.9l0-2.4c-1.1-0.1-2.1-0.3-3-0.6c-0.7-0.2-1.1-1-0.9-1.8l0-0.1c0.2-0.8,1.1-1.3,1.9-1
			c0.8,0.3,1.7,0.5,2.7,0.5c1.4,0,2.4-0.5,2.4-1.5c0-1-0.8-1.6-2.6-2.2c-2.7-1-4.5-2.2-4.4-4.7c0-2.2,1.6-3.9,4.3-4.4l0-2.4l2.5,0
			l0,2.2c0.9,0,1.7,0.2,2.3,0.4c0.8,0.2,1.2,1,1,1.8l0,0c-0.2,0.8-1,1.2-1.8,1c-0.6-0.2-1.3-0.3-2.2-0.4c-1.6,0-2.2,0.7-2.2,1.4
			c0,0.8,0.8,1.4,3,2.2c3,1.1,4.2,2.5,4.1,4.8c0,2.2-1.6,4.1-4.5,4.6l0,2.6L115.1,33.9z"/>
	</g>
</g>
<path class="st7" d="M21.7,47.9c-0.7,0-1.3-0.6-1.3-1.3c0-0.7,0.6-1.3,1.3-1.3c0.7,0,1.3,0.6,1.3,1.3C23,47.3,22.4,47.9,21.7,47.9z"
	/>
<g>
	<path class="st5" d="M150.4,29c4.5,2.3,6.4,7.8,4.1,12.3c-2.3,4.5-7.8,6.4-12.3,4.1c-4.5-2.3-6.4-7.8-4.1-12.3S145.8,26.7,150.4,29
		z"/>
	<path class="st6" d="M149.7,30.3c3.8,1.9,5.3,6.5,3.4,10.3c-1.9,3.8-6.5,5.3-10.3,3.4c-3.8-1.9-5.3-6.5-3.4-10.3
		S145.9,28.4,149.7,30.3z"/>
	<g>
		<path class="st5" d="M149.6,41.5l-0.9-0.9c-0.4,0.4-0.9,0.7-1.4,0.9c-0.4,0.2-0.8,0-1-0.3l0,0c-0.2-0.4-0.1-0.9,0.3-1.1
			c0.4-0.2,0.9-0.5,1.2-0.8c0.6-0.5,0.7-1.1,0.4-1.5c-0.3-0.4-0.9-0.3-1.8,0.1c-1.4,0.6-2.6,0.8-3.5-0.1c-0.8-0.9-0.9-2.1,0-3.3
			l-0.9-0.9l1-0.9l0.8,0.9c0.4-0.3,0.7-0.6,1-0.7c0.4-0.2,0.9-0.1,1.1,0.3l0,0c0.2,0.4,0.1,0.9-0.3,1.1c-0.3,0.2-0.6,0.4-1,0.7
			c-0.6,0.6-0.6,1.1-0.3,1.4c0.3,0.3,0.9,0.2,2-0.3c1.6-0.7,2.5-0.6,3.4,0.3c0.8,0.9,0.9,2.2,0,3.5l0.9,1L149.6,41.5z"/>
	</g>
</g>
</svg>
