<svg width="55" height="54" viewBox="0 0 55 54" fill="none" xmlns="http://www.w3.org/2000/svg">
<g clip-path="url(#clip0)">
<path d="M24.4274 25.9276C22.6229 27.7322 20.1762 28.7472 17.6243 28.75C15.7208 28.7499 13.8601 28.1854 12.2775 27.1279C10.6946 26.0703 9.46097 24.5671 8.73248 22.8083C8.00398 21.0496 7.81338 19.1143 8.18476 17.2473C8.55614 15.3802 9.47283 13.6652 10.8189 12.3191C12.165 10.973 13.88 10.0563 15.7471 9.68495C17.6141 9.31356 19.5494 9.50417 21.3081 10.2327C23.0669 10.9612 24.5701 12.1948 25.6277 13.7776C26.6852 15.3603 27.2497 17.221 27.2498 19.1245C27.247 21.6764 26.232 24.1231 24.4274 25.9276ZM28.8291 29.1374L28.8291 29.1374L28.8324 29.1344C31.0266 27.1716 33.742 25.8859 36.6508 25.4324C39.5596 24.979 42.5375 25.3771 45.225 26.5789C47.9125 27.7806 50.1947 29.7345 51.7961 32.2048C53.3975 34.6751 54.2497 37.5561 54.2498 40.5C54.2498 40.9641 54.0654 41.4093 53.7373 41.7374C53.4091 42.0656 52.9639 42.25 52.4998 42.25C52.0357 42.25 51.5906 42.0656 51.2624 41.7374C50.9342 41.4093 50.7498 40.9641 50.7498 40.5C50.7498 38.2319 50.0933 36.0122 48.8596 34.1089C47.6258 32.2057 45.8676 30.7002 43.7971 29.7741C41.7266 28.8481 39.4324 28.5411 37.1913 28.8902C34.9501 29.2393 32.858 30.2296 31.1673 31.7415L31.1672 31.7415L31.1636 31.7449C30.9928 31.9006 30.7928 32.0211 30.5752 32.0991C30.3576 32.1772 30.1267 32.2114 29.8959 32.1997C29.665 32.188 29.4387 32.1307 29.2301 32.0311C29.0215 31.9314 28.8347 31.7915 28.6805 31.6192C28.5263 31.447 28.4077 31.2459 28.3317 31.0276C28.2556 30.8093 28.2236 30.5781 28.2374 30.3473C28.2512 30.1165 28.3106 29.8908 28.4122 29.6831C28.5138 29.4754 28.6555 29.2899 28.8291 29.1374ZM40.1248 19.75C38.2212 19.75 36.3603 19.1855 34.7775 18.1279C33.1946 17.0703 31.961 15.5671 31.2325 13.8083C30.504 12.0496 30.3134 10.1143 30.6848 8.24726C31.0561 6.38019 31.9728 4.66518 33.3189 3.3191C34.665 1.97302 36.38 1.05633 38.2471 0.684946C40.1141 0.313563 42.0494 0.504171 43.8081 1.23266C45.5669 1.96116 47.0701 3.19482 48.1277 4.77764C49.1852 6.36031 49.7497 8.22099 49.7498 10.1245C49.747 12.6764 48.732 15.1231 46.9274 16.9276C45.123 18.732 42.6766 19.747 40.1248 19.75ZM17.6248 13C16.4134 13 15.2292 13.3592 14.2219 14.0323C13.2147 14.7053 12.4296 15.6619 11.9661 16.7811C11.5025 17.9003 11.3812 19.1318 11.6175 20.3199C11.8538 21.5081 12.4372 22.5994 13.2938 23.456C14.1504 24.3126 15.2418 24.896 16.4299 25.1323C17.618 25.3687 18.8496 25.2474 19.9688 24.7838C21.088 24.3202 22.0445 23.5351 22.7176 22.5279C23.3906 21.5206 23.7498 20.3364 23.7498 19.125C23.7498 17.5006 23.1045 15.9426 21.9558 14.794C20.8072 13.6453 19.2493 13 17.6248 13ZM33.9998 50.625V51.75C33.9998 52.2141 33.8154 52.6593 33.4873 52.9874C33.1591 53.3156 32.7139 53.5 32.2498 53.5C31.7857 53.5 31.3406 53.3156 31.0124 52.9874C30.6842 52.6593 30.4998 52.2141 30.4998 51.75V50.625C30.4998 47.2103 29.1433 43.9355 26.7288 41.521C24.3143 39.1065 21.0395 37.75 17.6248 37.75C14.2102 37.75 10.9353 39.1065 8.52082 41.521C6.10629 43.9355 4.74982 47.2103 4.74982 50.625V51.75C4.74982 52.2141 4.56544 52.6593 4.23725 52.9874C3.90907 53.3156 3.46395 53.5 2.99982 53.5C2.53569 53.5 2.09057 53.3156 1.76238 52.9874C1.43419 52.6593 1.24982 52.2141 1.24982 51.75V50.625C1.24982 46.2821 2.97504 42.117 6.04594 39.0461C9.11685 35.9752 13.2819 34.25 17.6248 34.25C21.9677 34.25 26.1328 35.9752 29.2037 39.0461C32.2746 42.117 33.9998 46.2821 33.9998 50.625ZM40.1248 4C38.9134 4 37.7292 4.35923 36.722 5.03225C35.7147 5.70528 34.9296 6.66187 34.4661 7.78107C34.0025 8.90027 33.8812 10.1318 34.1175 11.3199C34.3538 12.5081 34.9372 13.5994 35.7938 14.456C36.6504 15.3126 37.7418 15.896 38.9299 16.1323C40.118 16.3687 41.3496 16.2474 42.4688 15.7838C43.588 15.3202 44.5445 14.5351 45.2176 13.5279C45.8906 12.5206 46.2498 11.3364 46.2498 10.125C46.2498 8.50055 45.6045 6.94264 44.4558 5.79398C43.3072 4.64532 41.7493 4 40.1248 4Z" fill="#0D8284" stroke="#0D8284"/>
</g>
<defs>
<clipPath id="clip0">
<rect width="54" height="54" fill="white" transform="translate(0.749817)"/>
</clipPath>
</defs>
</svg>
