<?xml version="1.0" encoding="utf-8"?>
<!-- Generator: Adobe Illustrator 25.2.0, SVG Export Plug-In . SVG Version: 6.00 Build 0)  -->
<svg version="1.1" id="Capa_1" xmlns="http://www.w3.org/2000/svg" xmlns:xlink="http://www.w3.org/1999/xlink" x="0px" y="0px"
	 viewBox="0 0 450.5 450.5" style="enable-background:new 0 0 450.5 450.5;" xml:space="preserve">
<style type="text/css">
	.st0{display:none;}
	.st1{clip-path:url(#SVGID_2_);}
	.st2{fill:#FFB27D;}
	.st3{fill:#ED975D;}
	.st4{fill:#EB996E;}
	.st5{fill:#4C322C;}
	.st6{fill:#69BEA0;}
	.st7{fill:#263238;}
	.st8{fill:none;stroke:#664640;stroke-width:3.7797;stroke-linecap:round;stroke-linejoin:round;stroke-miterlimit:10;}
</style>
<g id="Background_Complete">
</g>
<g id="Background_Simple" class="st0">
</g>
<g id="Floor">
</g>
<g id="Screens">
</g>
<g id="Rocket">
</g>
<g id="Plant">
</g>
<g id="Chart">
</g>
<g id="Gears">
</g>
<g id="Character">
	<g>
		<g>
			<defs>
				<rect id="SVGID_1_" x="0.2" y="0.5" width="450.5" height="450.5"/>
			</defs>
			<clipPath id="SVGID_2_">
				<use xlink:href="#SVGID_1_"  style="overflow:visible;"/>
			</clipPath>
			<g class="st1">
				<g>
					<g>
						<path class="st2" d="M142.7,388.5c-1,6.4,17.4,37.7,45.1,63.3c2.8,2.6,91.2-0.3,91.2-0.3c-2.8-20-7-39.2-3.5-43.2
							c13.2-15.1,1.2-19.6,1.7-47.8c-1-5.4,0.1-35.1,4.6-69.7c0-0.1,0,0,0,0l-99.5-22.8l-11.6,10.9
							C168.6,352.5,145,373.6,142.7,388.5z"/>
						<path class="st3" d="M158.1,261.5c26.4,69.7,51,78.2,76.6,75.7c31-3,47.1-42,47.4-44.5c0-0.1,0-0.1,0-0.1L158.1,261.5z"/>
						<path class="st2" d="M236.1,323c-29.7,4.5-75.1-27.6-86.8-80c-19.1-85.5-39.5-142.3,42.5-157.9s103.3,15.3,114.4,43.3
							C317.2,156.5,320.2,310.3,236.1,323z"/>
					</g>
					<g>
						<g>
							<g>
								<g>
									<g>
										<g>
											<g>
												<g>
													<g>
														<g>
															<g>
																<path class="st2" d="M150.6,242.1c0,1-34.6,11.1-37.9-22.7c-3.3-33.8,31.9-26.2,32.8-25.9
																	C145.5,193.6,150.6,241.1,150.6,242.1z"/>
															</g>
														</g>
													</g>
												</g>
											</g>
										</g>
									</g>
								</g>
							</g>
						</g>
						<g>
							<g>
								<g>
									<g>
										<g>
											<g>
												<g>
													<g>
														<g>
															<g>
																<g>
																	<path class="st4" d="M137.6,232c-1,0.9-3,1.8-5.5,1.4c-5.2-1-9.5-7-10.4-13.8c-0.4-3.5,0.1-6.8,1.2-9.6
																		c1-2.8,3.2-5.4,5.9-5.8c1.3-0.2,2.6,0,3.5,0.6c0.9,0.6,1.4,1.3,1.6,2c0.4,1.4-0.2,2.1-0.3,2c-0.2,0,0-0.7-0.6-1.6
																		c-0.5-0.9-1.9-1.9-3.8-1.3c-1.8,0.5-3.3,2.4-4.2,4.9c-0.9,2.5-1.3,5.5-0.9,8.6c0.8,6.1,4.5,11.5,8.3,12.5
																		c1.9,0.5,3.6,0,4.6-0.5c1-0.6,1.4-1.1,1.6-1C138.8,230.3,138.7,231.1,137.6,232z"/>
																</g>
															</g>
														</g>
													</g>
												</g>
											</g>
										</g>
									</g>
								</g>
							</g>
						</g>
					</g>
					<g>
						<g>
							<g>
								<path class="st5" d="M320.1,106.1c-4.6-10.6-13.1-19.3-22.4-26.5c-20.1-15.5-45-25.6-70.8-26.8c-25.7-1.1-52.1,7-71.3,23.5
									c-15.3,13.2-25.7,31.4-30.8,50.6c-5.1,19.2-5.3,39.5-2.3,59.1c1.3,8.6,3.5,17.6,9.5,24.1c3.8,4.1,10.4,6.8,15,3.7
									c2.7-1.9,3.8-5.2,4.7-8.3c6.3-21.5,2.4-42.1,5.8-65.5c2.4-16.8,11.6-34.2,27.2-42c0.1-0.1,0.2-0.1,0.3-0.2
									c10.6-5.2,23.3-7.2,34.5-3.5c16.7,5.5,27.4,20.8,39.7,33c26.6,26.4,87.1,6.7,82.6-40.6"/>
							</g>
						</g>
					</g>
					<g>
						<g>
							<path class="st6" d="M414.2,451l-105.4-63.8l-31.6-26.9l0.7,25.8L246,450.5l-20.3,0l-71.3-90.2L141,387.2L29.7,452.1
								L414.2,451z"/>
						</g>
						<g>
							<g>
								<path class="st7" d="M256.3,442.6c3,0.9,7,2.9,9.8,6.1c0.5,0.5,1,1.1,1.4,1.7c2.1,2.9,16.9,0.4,17.1,0
									c6.9-16.9,11.9-32.3,15.8-43.5c3.9-11.5,6.4-18.6,7.1-18.5c0.7,0.1-0.6,7.3-3.6,18.9c-3,11.2-7.4,26.4-14.1,43.1
									c-0.3,0.6-23.5,2.9-25.4,0c-0.2-0.4-0.5-0.7-0.8-1.1c-4.7-6.3-12.7-7.4-12.3-7.7C251.4,441.6,253.3,441.7,256.3,442.6z"/>
							</g>
						</g>
						<g>
							<g>
								<path class="st7" d="M145.3,392.9c2.6,3,6.4,7.3,11,12.8c9.1,10.9,23,34.1,29.7,43.9c0.2,0.3,1.4,3.4,27.1,1.2
									c0.6-1.9,1.3-3.7,2.5-4.9c1.2-1.2,2.6-1.6,3.7-1.6c2.4,0.1,2.9,1.8,2.8,1.7c-0.1,0.2-0.8-1-2.7-0.8c-2,0-4,2.3-4.7,6.1
									c-15.6,3.7-31.3-0.3-31.6-0.6c-11.9-17.5-20.8-32.1-28.3-43.4c-4.4-5.6-7.9-10.2-10.2-13.4c-2.4-3.2-3.6-5-3.4-5.2
									S142.7,390,145.3,392.9z"/>
							</g>
						</g>
					</g>
				</g>
				<g>
					<path class="st5" d="M293.4,166.8c-9.5-11.2-22.2-9.3-31.1-9.2c-4.4,0.1-6.2-3.2-2.2-4.9c13.4-5.8,33.8,2,36.8,12
						C297.8,167.7,294.7,168.4,293.4,166.8z"/>
				</g>
				<g>
					<path class="st5" d="M170.6,167c8.5-11.4,20.9-9.8,30.4-11.1c4.4-0.6,6-3.5,1.9-5c-13.8-4.9-33.6,4.2-35.9,14.3
						C166.3,168.2,169.4,168.7,170.6,167z"/>
				</g>
				<path class="st8" d="M233.7,192.7c0,0-3.7,14.2,2.7,23.3c3.4,4.8,6.8,10.2,7.3,15.8c0.4,5-3.7,14.2-19.1,10.7"/>
				<path class="st8" d="M261.2,266.5c0,0-6.8,12.1-26.8,13.9c-10.5,0.9-21.6-5.2-27.5-14"/>
				
					<ellipse transform="matrix(0.225 -0.9744 0.9744 0.225 31.6677 405.8269)" class="st5" cx="270.9" cy="183" rx="10.8" ry="8.7"/>
				
					<ellipse transform="matrix(1 -6.814480e-03 6.814480e-03 1 -1.2424 1.3437)" class="st5" cx="196.6" cy="183" rx="8.7" ry="10.8"/>
			</g>
		</g>
	</g>
</g>
</svg>
