<?xml version="1.0" encoding="utf-8"?>
<!-- Generator: Adobe Illustrator 24.2.1, SVG Export Plug-In . SVG Version: 6.00 Build 0)  -->
<svg version="1.1" id="Capa_1" xmlns="http://www.w3.org/2000/svg" xmlns:xlink="http://www.w3.org/1999/xlink" x="0px" y="0px"
	 viewBox="0 0 450.5 450.5" style="enable-background:new 0 0 450.5 450.5;" xml:space="preserve">
<style type="text/css">
	.st0{display:none;}
	.st1{clip-path:url(#SVGID_2_);}
	.st2{fill:#333657;}
	.st3{fill:#272B44;}
	.st4{fill:#F7F3EB;}
	.st5{fill:#FBC4A1;}
	.st6{fill:#ED9269;}
	.st7{fill:#F4EEE2;}
	.st8{fill:#F16328;}
	.st9{fill:#FAC082;}
	.st10{fill:#502513;}
	.st11{fill:#1B283E;}
	.st12{fill:#FFFFFF;}
</style>
<g id="Background_Complete">
</g>
<g id="Background_Simple" class="st0">
</g>
<g id="Floor">
</g>
<g id="Screens">
</g>
<g id="Rocket">
</g>
<g id="Plant">
</g>
<g id="Chart">
</g>
<g id="Gears">
</g>
<g>
	<defs>
		<rect id="SVGID_1_" x="0.2" y="0.5" width="450.5" height="450.5"/>
	</defs>
	<clipPath id="SVGID_2_">
		<use xlink:href="#SVGID_1_"  style="overflow:visible;"/>
	</clipPath>
	<g class="st1">
		<path class="st2" d="M321.1,451h24.7c-3.5-6.3-5.7-10.1-5.7-10.1c-8.4-15-18-30.3-28.4-44.8c0,0,0,0,0,0l4.7,27.7L321.1,451z"/>
		<polygon class="st2" points="282.3,421.4 268.9,425.3 287.4,442.1 287.7,451 321.1,451 316.4,423.9 311.7,396.1 311.7,396.1 
			284.8,381.2 249.2,366.5 254.1,374.8 		"/>
		<path class="st2" d="M130.4,451h81.2l9.5-21.8h-18.1l-44.2-60.6l2.4-2.3c-11.8,7.4-22.1,13.8-22.1,13.8
			c-11.1,9.3-26.3,16.3-33,27.2l13.8,23L130.4,451z"/>
		<path class="st2" d="M104.2,411.3c-0.7,1.9-1.2,4-1.3,6.1c1.1-3.2,2.1-6.3,2.7-9.1C105,409.3,104.5,410.3,104.2,411.3z"/>
		<path class="st2" d="M130.4,451L120,430.2l-13.8-23l-0.4-0.6c-0.1,0.5-0.1,1.1-0.3,1.7c-0.5,2.9-1.5,6-2.7,9.1
			c-2.4,6.5-5.3,13.4-6,19c-0.5,4.8-1.1,9.6-1.8,14.5H130.4z"/>
		<polygon class="st3" points="203.1,429.2 221.1,429.2 211.6,451 242.4,451 213.6,399 223.2,405.1 165.9,361.5 161.2,366.2 
			158.8,368.6 		"/>
		<polygon class="st3" points="268.9,425.3 282.3,421.4 254.1,374.8 256.3,401.4 266.4,451 287.7,451 287.4,442.1 		"/>
		<polygon class="st4" points="239,401.4 232.5,392.4 223.2,405.1 213.6,399 242.4,451 248,451 239,401.4 		"/>
		<polygon class="st4" points="250.1,395.5 247,401.4 264.7,451 266.4,451 256.3,401.4 		"/>
		<path class="st5" d="M215.5,355.8l22.7,12.4l5.4-10.4l-2.7-34.3c-1.1,0.7-2.2,1.4-3.3,2C232.8,336,225.8,347.2,215.5,355.8z"/>
		<path class="st6" d="M215.5,355.8c10.3-8.5,17.3-19.7,22.1-30.4c-4.2,2.5-8.3,4.5-12.1,5.7c-4.9,1.6-18.9,0.8-23.7-0.9
			c-5.4-1.9-11.2-5.2-17-9.2V339L215.5,355.8z"/>
		<polygon class="st7" points="223.2,405.1 232.5,392.4 232,391.6 239,380.8 250.6,394.6 250.1,395.5 256.3,401.4 254.1,374.8 
			249.2,366.5 243.8,357.2 243.5,357.7 238.2,368.1 215.5,355.8 184.8,339 183.4,338.3 165.9,361.5 		"/>
		<polygon class="st8" points="247,401.4 250.1,395.5 250.6,394.6 239,380.8 232,391.6 232.5,392.4 239,401.4 		"/>
		<polygon class="st8" points="239,401.4 239,401.4 248,451 264.7,451 247,401.4 		"/>
		<path class="st6" d="M302,199.5c-1.3,5.7-2.1,11.5-2.1,17.4c0,1.1-0.3,1.9-0.7,2.5c-0.6,11.2-1.7,21.9-3.6,31.6
			c0.1,0.1,0.3,0.1,0.4,0.2c12.5,6.5,25.6-15.1,27.9-32c1.2-8.8-0.3-16.4-4-21.4C317.6,195.1,307.8,193.5,302,199.5z"/>
		<path class="st6" d="M314.8,193.5c-1.4-0.7-2.9-1.2-4.5-1.4c0,0,0,0,0,0C312,192.4,313.5,192.9,314.8,193.5z"/>
		<path class="st9" d="M302,199.5c5.9-6,15.6-4.4,17.9-1.7c0,0,0,0,0,0c0,0-1.4-2.6-5.1-4.4c-1.2-0.6-2.7-1.1-4.5-1.4c0,0,0,0,0,0
			c-2.4-0.4-4.7-0.2-6.4,0.2C303.1,194.7,302.5,197.1,302,199.5z"/>
		<path class="st6" d="M119.7,192.1c-1.7,0.2-3.3,0.7-4.7,1.5C116.2,192.9,117.8,192.4,119.7,192.1
			C119.7,192.1,119.7,192.1,119.7,192.1z"/>
		<path class="st6" d="M130.1,218.1c0,0-1.2-7.9-2.8-19.1c-6-5.4-15.2-3.7-17.3-1.1c-3.7,4.9-5.1,12.6-4,21.3
			c2.2,16.9,15.3,38.5,27.9,32c0.1-0.1,0.3-0.2,0.4-0.2c-1.9-9.5-3-19.8-3.6-30.7C130.4,219.7,130.2,219,130.1,218.1z"/>
		<path class="st9" d="M127.3,198.9c-0.3-2.1-0.6-4.3-0.9-6.6c-1.8-0.4-4.2-0.6-6.8-0.2c0,0,0,0,0,0c-1.9,0.3-3.4,0.8-4.7,1.5
			c-3.6,1.8-5,4.3-5,4.3c0,0,0,0,0,0C112.2,195.2,121.4,193.6,127.3,198.9z"/>
		<path class="st5" d="M270.3,119l-9.8,2c-31.1,6.2-55.3-0.2-86.4-1.7c-3.3-0.2-6.6-0.3-10-0.3c0.7,30.6-12.3,28.4-25.7,33.2
			c-0.9,6.4-1.5,13.1-2,19.8h26.9c0.6-0.4,1.2-0.7,1.8-0.9c1.9-0.5,7.6,0,13.5,0.9h72.1c4-0.5,7.5-0.7,8.9-0.3
			c0.2,0.1,0.5,0.2,0.7,0.3h34.1c-0.3-7.3-0.8-14.7-1.7-21.7C268.1,140.3,270.3,119,270.3,119z"/>
		<path class="st5" d="M225.5,331.1c3.8-1.3,7.9-3.2,12.1-5.7c1.1-0.6,2.2-1.3,3.3-2c16.5-10.6,33.9-28,41.8-39.2
			c6.3-9,10.3-20.3,12.9-33.2c1.9-9.7,3-20.3,3.6-31.6c-1.5,2.2-5,1-5-2.6c0-3.6,1.1-23.5,0.2-44.8h-34.1c4.3,1.9,9.1,9.7,10.8,14.3
			c0.2,0.6-10-7-14-6.7c-4,0.3-21.8,6.9-23.4,4.9c-1.5-2-3.5-9.2-3.5-9.2s11.7-2.3,20.4-3.3h-72.1c7.8,1.1,15.9,2.7,15.9,2.7
			s-1.9,7.2-3.5,9.2c-1.5,2-19.4-4.5-23.4-4.9c-4-0.3-14.2,7.3-14,6.7c1.5-4.2,5.7-11.1,9.7-13.7h-26.9c-1.5,22.5-0.7,44-0.8,46.1
			c-0.1,3.1-3.4,4-4.9,2.1c0.6,10.9,1.7,21.3,3.6,30.7c2.6,12.9,6.6,24.2,12.9,33.2c7.2,10.3,22.3,26.2,37.5,36.8
			c5.8,4,11.6,7.3,17,9.2C206.6,331.9,220.6,332.7,225.5,331.1z M193.9,273.2c10.9,1.7,29.3,3.1,41.3,1.3c1.1-0.2,1.6,0.1,0.4,0.6
			c-2.8,1.3-14.1,11.3-22.3,10.8c-8.2-0.5-16.6-10.7-19.6-12C192,273.1,192.6,273,193.9,273.2z M252.5,195.7c3.7,0,6.7,4,6.7,9
			c0,5-3,9-6.7,9c-3.7,0-6.7-4.1-6.7-9C245.8,199.8,248.8,195.7,252.5,195.7z M199.6,247.8c5.4-2.6,25.1-2.8,29.7,0
			c4.6,2.8-9.8,6.5-14.9,6.5C209.4,254.3,195.2,250.2,199.6,247.8z M172.1,195.1c3.7,0,6.7,4,6.7,9c0,5-3,9-6.7,9
			c-3.7,0-6.7-4.1-6.7-9C165.4,199.2,168.4,195.1,172.1,195.1z"/>
		<path class="st6" d="M214.5,254.3c5,0,19.5-3.7,14.9-6.5c-4.6-2.8-24.3-2.6-29.7,0C195.2,250.2,209.4,254.3,214.5,254.3z"/>
		<path class="st10" d="M165.1,171.1c-0.6,0.2-1.2,0.5-1.8,0.9c-4,2.6-8.2,9.5-9.7,13.7c-0.2,0.6,10-7,14-6.7
			c4,0.3,21.8,6.9,23.4,4.9c1.5-2,3.5-9.2,3.5-9.2s-8.1-1.6-15.9-2.7C172.7,171.1,167,170.5,165.1,171.1z"/>
		<path class="st11" d="M172.1,213.2c3.7,0,6.7-4.1,6.7-9c0-5-3-9-6.7-9c-3.7,0-6.7,4-6.7,9C165.4,209.1,168.4,213.2,172.1,213.2z"
			/>
		<path class="st10" d="M250.7,172c-8.8,1-20.4,3.3-20.4,3.3s1.9,7.2,3.5,9.2c1.5,2,19.4-4.5,23.4-4.9c4-0.3,14.2,7.3,14,6.7
			c-1.7-4.6-6.5-12.4-10.8-14.3c-0.2-0.1-0.5-0.2-0.7-0.3C258.1,171.3,254.7,171.5,250.7,172z"/>
		<path class="st11" d="M252.5,213.8c3.7,0,6.7-4.1,6.7-9c0-5-3-9-6.7-9c-3.7,0-6.7,4-6.7,9C245.8,209.7,248.8,213.8,252.5,213.8z"
			/>
		<path class="st12" d="M193.8,273.8c3,1.3,11.4,11.5,19.6,12c8.2,0.5,19.5-9.6,22.3-10.8c1.2-0.5,0.7-0.8-0.4-0.6
			c-12,1.8-30.4,0.4-41.3-1.3C192.6,273,192,273.1,193.8,273.8z"/>
		<path class="st10" d="M127.3,198.9c1.6,11.2,2.8,19.1,2.8,19.1c0,0.9,0.3,1.6,0.7,2.1c1.4,1.9,4.7,1,4.9-2.1
			c0.1-2.1-0.7-23.7,0.8-46.1c0.4-6.7,1.1-13.4,2-19.8c13.4-4.8,26.5-2.6,25.7-33.2c3.4,0,6.7,0.1,10,0.3
			c31.1,1.6,55.3,7.9,86.4,1.7l9.8-2c0,0-2.2,21.4,22.4,31.3c0.9,7,1.4,14.4,1.7,21.7c0.9,21.3-0.2,41.2-0.2,44.8
			c0,3.7,3.5,4.8,5,2.6c0.4-0.6,0.7-1.4,0.7-2.5c0-5.9,0.8-11.7,2.1-17.4c0.5-2.4,1.2-4.9,1.8-7.3c3-10.7,7.3-21.1,10.5-31.7
			c2.1-5.3,3.8-11,3.9-16.7c0.4-2.9,0.7-5.8,0.8-8.8c0.4-14.2-4.2-25.9-11.8-35.8c-8.8-47.5,10.2-54.4,10.2-54.4s-27-5.5-50.4,14.3
			c16.1-25.6,20.3-33.3,20.3-33.3s-29.2-6.1-64.3,28.9c-0.5,0-1,0-1.6-0.1c7.5-18.4,13.5-24.2,13.5-24.2s-72.6-3.6-99.9,52.7
			c-2.1,4.3-3.9,8.7-5.4,13.1c-7.5,13.5-10.9,30.1-9.1,49.5c1.3,13.7,3.7,31.9,5.7,46.7C126.7,194.6,127.1,196.8,127.3,198.9z"/>
	</g>
</g>
</svg>
