<svg width="754" height="292" viewBox="0 0 754 292" fill="none" xmlns="http://www.w3.org/2000/svg">
<mask id="mask0" mask-type="alpha" maskUnits="userSpaceOnUse" x="0" y="0" width="754" height="291">
<rect width="754" height="291" rx="20" fill="white"/>
</mask>
<g mask="url(#mask0)">
<path d="M132.764 556.661L836.629 363.455C836.629 363.455 948.236 155.036 852.745 89.4286C813.658 62.5742 729.569 34.9643 684.677 68.3002C651.539 92.907 641.261 94.5131 619.273 98.4364C619.273 98.4364 588.843 99.861 586.261 94.6297C569.702 61.0788 511.339 53.8787 468.302 51.5265C466.912 51.4498 465.519 51.3866 464.121 51.3367C396.009 48.8338 358.956 68.9349 329.768 95.1735C280.11 139.818 294.477 173.202 163.326 196.888C32.1755 220.577 46.6182 319.577 99.2126 357.599C173.838 411.549 15.9018 436.835 132.764 556.661Z" fill="#FFF394"/>
</g>
<path d="M456.182 154.045V177.741C456.182 182.279 452.467 185.99 447.929 185.99H430.941C426.403 185.99 422.688 182.279 422.688 177.741V154.045C422.688 149.507 426.403 145.795 430.941 145.795H447.929C452.467 145.797 456.182 149.509 456.182 154.045Z" fill="#FFBD80"/>
<path d="M456.182 154.045V167.246C456.182 171.782 452.467 175.495 447.929 175.495H430.941C426.403 175.495 422.688 171.782 422.688 167.246V154.045C422.688 149.507 426.403 145.795 430.941 145.795H447.929C452.467 145.797 456.182 149.509 456.182 154.045Z" fill="#FFD3AA"/>
<path d="M644.413 165.893C644.413 178.019 641.931 189.593 637.45 200.135C624.008 231.759 592.579 254.082 556.186 254.082H530.963C498.762 254.082 470.447 236.607 455.039 210.676C447.23 197.53 442.736 182.213 442.736 165.895C442.736 153.77 445.218 142.197 449.699 131.653C463.139 100.031 494.57 77.708 530.963 77.708H556.186C589.28 77.708 618.272 96.168 633.36 123.293C640.4 135.942 644.413 150.472 644.413 165.893Z" fill="#FFBD80"/>
<path d="M633.362 124.437C635.455 134.608 633.807 149.146 631.132 156.843C613.327 208.03 571.476 217.271 528.696 221.163C498.276 223.93 455.043 211.818 455.043 211.818C447.234 198.672 442.74 183.354 442.74 167.037C442.74 154.911 445.222 143.338 449.703 132.795C463.143 101.173 494.574 78.8496 530.967 78.8496H556.19C589.282 78.8515 618.274 97.3096 633.362 124.437Z" fill="#FFD3AA"/>
<path d="M520.563 99.7998H485.863C482.364 99.7998 479.527 97.676 479.527 95.0568V47.699C479.527 46.8913 479.783 46.1556 480.221 45.5179C481.917 43.0558 486.377 42.0411 489.696 43.9209C502.872 51.3847 524.456 67.6099 526.884 94.7352C527.13 97.4745 524.229 99.7998 520.563 99.7998Z" fill="#FFD3AA"/>
<path d="M487.274 99.8004H485.863C482.364 99.8004 479.527 97.6766 479.527 95.0574V47.6997C479.527 46.8919 479.783 46.1563 480.221 45.5186C480.369 45.6461 480.515 45.7866 480.65 45.9363C488.187 54.3243 499.051 70.8028 495.991 93.8856C495.543 97.2404 491.778 99.8004 487.274 99.8004Z" fill="#FFBD80"/>
<path d="M468.982 131.459C468.982 128.605 471.298 126.291 474.153 126.291C477.008 126.291 479.323 128.605 479.323 131.459C479.323 134.313 477.008 136.627 474.153 136.627C471.298 136.627 468.982 134.313 468.982 131.459Z" fill="#3F2A0B"/>
<path d="M571.117 216.643L562.888 270.056C561.795 274.193 564.916 278.244 569.197 278.244H590.824C595.46 278.244 599.708 275.656 601.83 271.536L635.444 204.519L571.117 216.643Z" fill="#FFBD80"/>
<path d="M521.969 222.877L528.273 270.707C529.365 274.618 526.246 278.448 521.969 278.448H500.361C495.729 278.448 491.485 276.002 489.364 272.106L454.748 211.455L487.871 219.451L521.969 222.877Z" fill="#FFBD80"/>
<path d="M665.431 191.007C664.934 191.007 664.437 190.944 663.943 190.813C660.108 189.804 657.914 185.227 658.216 178.869C658.512 172.636 661.121 166.054 665.378 160.812C667.262 158.492 669.435 156.462 671.861 154.743C670.716 152.856 669.171 151.047 667.092 149.488C663.558 146.838 659.906 146.074 655.928 147.154C645.236 150.056 636.175 165.331 635.441 167.048C635.108 167.967 634.102 168.457 633.17 168.146C632.223 167.83 631.711 166.808 632.027 165.86C632.345 164.908 634.993 160.348 638.686 155.832C645.125 147.962 650.734 144.978 654.305 143.864C659.603 142.209 664.636 143.128 669.261 146.597C671.556 148.318 673.453 150.409 674.925 152.815C678.594 150.773 682.727 149.353 687.223 148.618C688.21 148.457 689.138 149.124 689.299 150.109C689.46 151.095 688.793 152.024 687.807 152.185C683.681 152.862 679.902 154.165 676.564 156.045C677.588 158.516 678.239 161.242 678.494 164.181C679.02 170.233 677.805 176.841 675.158 182.307C672.468 187.876 668.919 191.005 665.431 191.007ZM673.464 158.05C671.499 159.501 669.731 161.187 668.185 163.091C664.405 167.747 662.088 173.56 661.827 179.041C661.62 183.39 662.868 186.793 664.864 187.318C666.879 187.846 669.775 185.14 671.907 180.734C674.243 175.907 675.36 169.837 674.896 164.494C674.729 162.573 674.326 160.327 673.464 158.05ZM635.456 167.004C635.452 167.015 635.448 167.026 635.444 167.035C635.45 167.024 635.452 167.013 635.456 167.004Z" fill="#FFBD80"/>
<path d="M492.64 172.555C492.64 172.555 489.124 177.503 485.899 177.574C482.674 177.642 477.768 175.279 477.768 175.279C477.768 175.279 474.807 168.685 476.816 166.104C476.816 166.104 478.831 165.22 480.936 166.781C481.299 167.05 481.665 167.389 482.027 167.824C482.537 168.438 483.112 168.787 483.719 168.971C486.02 169.671 488.752 168.025 489.772 169.614C490.37 170.537 491.017 171.231 491.552 171.718C492.181 172.278 492.64 172.555 492.64 172.555Z" fill="#79C7C9"/>
<path d="M446.789 208.255C446.789 208.255 459.22 178.147 481.596 177.572C481.596 177.572 502.252 179.866 503.398 208.255H446.789Z" fill="#79C7C9"/>
<path d="M475.465 178.492C475.465 178.492 484.434 180.484 487.202 179.313C487.202 179.313 487.619 175.564 483.842 176.089C481.257 176.449 479.574 175.207 478.582 174.703C477.182 173.992 475.094 176.923 475.465 178.492Z" fill="#1D9294"/>
<path d="M483.271 172.841C482.698 173.271 480.936 166.779 480.936 166.779C481.298 167.048 481.664 167.388 482.026 167.822C482.537 168.436 483.111 168.785 483.718 168.969C483.724 169.159 483.827 172.422 483.271 172.841Z" fill="#D2ECED"/>
<path d="M491.549 171.716C491.424 171.79 487.275 174.274 486.712 174.274C486.139 174.274 489.77 169.611 489.77 169.611C490.367 170.535 491.016 171.229 491.549 171.716Z" fill="#D2ECED"/>
<path d="M458.934 199.842C458.704 199.645 467.732 186.556 470.217 186.461C472.704 186.366 478.289 189.328 482.333 189.711C486.377 190.094 490.298 188.947 491.063 191.336C491.827 193.725 493.931 202.197 492.641 203.553C491.351 204.907 463.896 204.08 458.934 199.842Z" fill="#E1F2EC"/>
<path d="M504.09 273.329V276.956C504.09 277.245 504.005 277.513 503.861 277.736C503.709 277.972 503.491 278.155 503.234 278.259C503.156 278.291 503.074 278.315 502.989 278.331C502.912 278.345 502.834 278.353 502.754 278.353H447.553C446.841 278.353 446.255 277.762 446.218 277.028C446.218 277.004 446.217 276.98 446.217 276.956V273.329C446.217 273.305 446.217 273.281 446.218 273.257C446.255 272.522 446.841 271.932 447.553 271.932H502.754C502.834 271.932 502.912 271.94 502.989 271.954C503.074 271.97 503.156 271.994 503.234 272.025C503.491 272.129 503.709 272.313 503.861 272.548C504.005 272.772 504.09 273.039 504.09 273.329Z" fill="#FFEB4D"/>
<path d="M476.98 278.353H447.407C446.773 278.353 446.249 277.762 446.217 277.028C446.217 277.004 446.215 276.98 446.215 276.956V273.329C446.215 273.305 446.215 273.281 446.217 273.257C446.249 272.522 446.773 271.932 447.407 271.932H473.349C473.764 273.822 474.73 276.437 476.98 278.353Z" fill="#EAB726"/>
<path d="M497.37 278.351H496.742V271.929H497.37V278.351Z" fill="#EAB726"/>
<path d="M495.247 278.351H494.619V271.929H495.247V278.351Z" fill="#EAB726"/>
<path d="M492.7 278.351H492.072V271.929H492.7V278.351Z" fill="#EAB726"/>
<path d="M488.796 278.351H488.168V271.929H488.796V278.351Z" fill="#EAB726"/>
<path d="M484.669 278.351H484.041V271.929H484.669V278.351Z" fill="#EAB726"/>
<path d="M478.341 278.351H477.713V271.929H478.341V278.351Z" fill="#EAB726"/>
<path d="M472.417 278.351H471.789V271.929H472.417V278.351Z" fill="#EAB726"/>
<path d="M467.124 278.351H466.496V271.929H467.124V278.351Z" fill="#EAB726"/>
<path d="M499.394 278.351H498.766V271.929H499.394V278.351Z" fill="#EAB726"/>
<path d="M502.019 278.351H501.391V271.929H502.019V278.351Z" fill="#EAB726"/>
<path d="M503.859 272.547V277.735C503.707 277.971 503.489 278.154 503.233 278.258V272.024C503.488 272.128 503.707 272.312 503.859 272.547Z" fill="#EAB726"/>
<path d="M498.186 266.906V270.533C498.186 270.823 498.101 271.09 497.956 271.314C497.804 271.549 497.586 271.733 497.33 271.837C497.252 271.869 497.17 271.893 497.085 271.908C497.008 271.922 496.93 271.93 496.85 271.93H441.648C440.937 271.93 440.351 271.34 440.314 270.605C440.314 270.581 440.312 270.557 440.312 270.533V266.906C440.312 266.882 440.312 266.858 440.314 266.834C440.351 266.098 440.937 265.509 441.648 265.509H496.85C496.885 265.509 496.92 265.511 496.955 265.513C496.97 265.513 496.986 265.515 497 265.517C497.016 265.519 497.034 265.521 497.05 265.525C497.061 265.527 497.074 265.529 497.085 265.531C497.17 265.547 497.252 265.571 497.33 265.603C497.341 265.607 497.353 265.613 497.365 265.617C497.377 265.621 497.388 265.627 497.399 265.633C497.421 265.643 497.444 265.655 497.466 265.667C497.479 265.673 497.492 265.681 497.505 265.689C497.516 265.697 497.527 265.703 497.538 265.709C497.559 265.723 497.58 265.737 497.601 265.751C497.625 265.767 497.647 265.784 497.67 265.804C497.687 265.818 497.705 265.832 497.721 265.848C497.723 265.848 497.723 265.85 497.724 265.852C497.735 265.862 497.747 265.872 497.758 265.884C497.791 265.916 497.824 265.952 497.854 265.988C497.864 265.998 497.873 266.01 497.881 266.02C497.889 266.03 497.899 266.042 497.907 266.054C497.924 266.078 497.94 266.102 497.956 266.126C498.102 266.349 498.186 266.617 498.186 266.906Z" fill="#FFEB4D"/>
<path d="M471.08 271.93H441.507C440.871 271.93 440.349 271.34 440.317 270.605C440.317 270.581 440.315 270.557 440.315 270.533V266.906C440.315 266.882 440.315 266.858 440.317 266.834C440.349 266.098 440.872 265.509 441.507 265.509H467.447C467.458 265.561 467.471 265.615 467.484 265.667C467.916 267.543 468.889 270.066 471.08 271.93Z" fill="#EAB726"/>
<path d="M491.468 271.93H490.84V265.508H491.468V271.93Z" fill="#EAB726"/>
<path d="M489.345 271.93H488.717V265.508H489.345V271.93Z" fill="#EAB726"/>
<path d="M486.8 271.93H486.172V265.508H486.8V271.93Z" fill="#EAB726"/>
<path d="M482.895 271.93H482.268V265.508H482.895V271.93Z" fill="#EAB726"/>
<path d="M478.769 271.93H478.141V265.508H478.769V271.93Z" fill="#EAB726"/>
<path d="M472.438 271.93H471.811V265.508H472.438V271.93Z" fill="#EAB726"/>
<path d="M466.513 271.93H465.885V265.508H466.513V271.93Z" fill="#EAB726"/>
<path d="M461.222 271.93H460.594V265.508H461.222V271.93Z" fill="#EAB726"/>
<path d="M493.491 271.93H492.863V265.508H493.491V271.93Z" fill="#EAB726"/>
<path d="M496.116 271.93H495.488V265.508H496.116V271.93Z" fill="#EAB726"/>
<path d="M497.957 266.127V271.315C497.805 271.551 497.587 271.734 497.331 271.838V265.604C497.587 265.708 497.805 265.892 497.957 266.127Z" fill="#EAB726"/>
<path d="M501.039 260.643V264.27C501.039 264.559 500.954 264.827 500.81 265.05C500.658 265.286 500.44 265.469 500.184 265.573C500.105 265.605 500.023 265.629 499.939 265.645C499.862 265.659 499.783 265.667 499.703 265.667H444.502C444.281 265.667 444.071 265.609 443.887 265.509C443.496 265.296 443.217 264.884 443.172 264.405C443.171 264.385 443.169 264.364 443.167 264.344C443.167 264.32 443.166 264.296 443.166 264.272V260.645C443.166 260.621 443.166 260.597 443.167 260.573C443.204 259.838 443.791 259.248 444.502 259.248H499.703C499.783 259.248 499.862 259.256 499.939 259.27C500.023 259.285 500.105 259.309 500.184 259.341C500.44 259.445 500.658 259.629 500.81 259.864C500.954 260.086 501.039 260.353 501.039 260.643Z" fill="#FFEB4D"/>
<path d="M473.932 265.667H444.358C444.16 265.667 443.974 265.609 443.809 265.509C443.46 265.296 443.211 264.884 443.171 264.405C443.17 264.385 443.168 264.364 443.167 264.344C443.167 264.32 443.165 264.296 443.165 264.272V260.645C443.165 260.621 443.165 260.597 443.167 260.573C443.199 259.838 443.722 259.248 444.357 259.248H470.299C470.702 261.086 471.627 263.611 473.749 265.511C473.81 265.561 473.871 265.615 473.932 265.667Z" fill="#EAB726"/>
<path d="M494.323 265.667H493.695V259.246H494.323V265.667Z" fill="#EAB726"/>
<path d="M492.2 265.667H491.572V259.246H492.2V265.667Z" fill="#EAB726"/>
<path d="M489.651 265.667H489.023V259.246H489.651V265.667Z" fill="#EAB726"/>
<path d="M485.747 265.667H485.119V259.246H485.747V265.667Z" fill="#EAB726"/>
<path d="M481.62 265.667H480.992V259.246H481.62V265.667Z" fill="#EAB726"/>
<path d="M475.292 265.667H474.664V259.246H475.292V265.667Z" fill="#EAB726"/>
<path d="M469.366 265.667H468.738V259.246H469.366V265.667Z" fill="#EAB726"/>
<path d="M464.077 265.667H463.449V259.246H464.077V265.667Z" fill="#EAB726"/>
<path d="M496.345 265.667H495.717V259.246H496.345V265.667Z" fill="#EAB726"/>
<path d="M498.97 265.667H498.342V259.246H498.97V265.667Z" fill="#EAB726"/>
<path d="M500.811 259.867V265.054C500.658 265.29 500.441 265.474 500.184 265.577V259.344C500.439 259.448 500.658 259.631 500.811 259.867Z" fill="#EAB726"/>
<path d="M502.361 254.222V257.849C502.361 258.138 502.276 258.406 502.132 258.63C501.98 258.865 501.762 259.049 501.506 259.152C501.427 259.184 501.346 259.208 501.261 259.224C501.184 259.238 501.105 259.246 501.025 259.246H445.824C445.113 259.246 444.527 258.655 444.49 257.921C444.49 257.897 444.488 257.873 444.488 257.849V254.222C444.488 254.198 444.488 254.174 444.49 254.15C444.523 253.47 445.028 252.915 445.666 252.835C445.717 252.829 445.77 252.825 445.824 252.825H501.025C501.105 252.825 501.184 252.833 501.261 252.847C501.346 252.863 501.427 252.887 501.506 252.919C501.762 253.023 501.98 253.206 502.132 253.442C502.276 253.665 502.361 253.933 502.361 254.222Z" fill="#FFEB4D"/>
<path d="M475.254 259.246H445.681C445.046 259.246 444.522 258.655 444.49 257.921C444.49 257.897 444.489 257.873 444.489 257.849V254.222C444.489 254.198 444.489 254.174 444.49 254.15C444.519 253.47 444.971 252.915 445.54 252.835C445.586 252.829 445.633 252.825 445.681 252.825H471.623C471.623 252.829 471.624 252.833 471.624 252.835C472.041 254.723 473.005 257.332 475.254 259.246Z" fill="#EAB726"/>
<path d="M495.644 259.244H495.016V252.822H495.644V259.244Z" fill="#EAB726"/>
<path d="M493.521 259.244H492.893V252.822H493.521V259.244Z" fill="#EAB726"/>
<path d="M490.974 259.244H490.346V252.822H490.974V259.244Z" fill="#EAB726"/>
<path d="M487.069 259.244H486.441V252.822H487.069V259.244Z" fill="#EAB726"/>
<path d="M482.942 259.244H482.314V252.822H482.942V259.244Z" fill="#EAB726"/>
<path d="M476.612 259.244H475.984V252.822H476.612V259.244Z" fill="#EAB726"/>
<path d="M470.688 259.244H470.061V252.822H470.688V259.244Z" fill="#EAB726"/>
<path d="M465.397 259.244H464.77V252.822H465.397V259.244Z" fill="#EAB726"/>
<path d="M499.001 259.244H498.373V252.822H499.001V259.244Z" fill="#EAB726"/>
<path d="M501.26 252.846V259.224C501.183 259.238 501.104 259.246 501.024 259.246H500.632V252.824H501.024C501.106 252.822 501.183 252.83 501.26 252.846Z" fill="#EAB726"/>
<path d="M498.301 247.811V251.438C498.301 251.728 498.216 251.995 498.072 252.219C497.92 252.454 497.702 252.638 497.445 252.742C497.367 252.774 497.285 252.798 497.2 252.814C497.175 252.818 497.149 252.823 497.123 252.825C497.109 252.827 497.095 252.829 497.08 252.829C497.066 252.831 497.051 252.831 497.037 252.833C497.013 252.835 496.989 252.835 496.966 252.835H441.765C441.054 252.835 440.468 252.245 440.431 251.51C440.429 251.486 440.429 251.462 440.429 251.438V247.811C440.429 247.787 440.429 247.763 440.431 247.739C440.431 247.72 440.432 247.7 440.434 247.682C440.487 247.091 440.897 246.602 441.435 246.458C441.448 246.454 441.462 246.45 441.475 246.448C441.568 246.426 441.664 246.414 441.764 246.414H496.966C497.006 246.414 497.047 246.416 497.087 246.42C497.104 246.422 497.122 246.424 497.139 246.426C497.16 246.43 497.181 246.434 497.202 246.436C497.287 246.452 497.368 246.476 497.447 246.508C497.703 246.612 497.921 246.795 498.073 247.031C498.217 247.254 498.301 247.522 498.301 247.811Z" fill="#FFEB4D"/>
<path d="M471.195 252.834H441.622C440.988 252.834 440.464 252.244 440.432 251.509C440.43 251.485 440.43 251.461 440.43 251.437V247.81C440.43 247.786 440.43 247.762 440.432 247.738C440.432 247.718 440.433 247.699 440.435 247.681C440.483 247.076 440.864 246.579 441.359 246.449C441.377 246.443 441.393 246.439 441.411 246.437C441.479 246.423 441.55 246.415 441.622 246.415H467.564C467.567 246.431 467.57 246.445 467.574 246.461C467.992 248.345 468.958 250.926 471.182 252.826C471.187 252.826 471.192 252.83 471.195 252.834Z" fill="#EAB726"/>
<path d="M491.587 252.832H490.959V246.411H491.587V252.832Z" fill="#EAB726"/>
<path d="M489.464 252.832H488.836V246.411H489.464V252.832Z" fill="#EAB726"/>
<path d="M486.915 252.832H486.287V246.411H486.915V252.832Z" fill="#EAB726"/>
<path d="M483.011 252.832H482.383V246.411H483.011V252.832Z" fill="#EAB726"/>
<path d="M478.884 252.832H478.256V246.411H478.884V252.832Z" fill="#EAB726"/>
<path d="M472.556 252.832H471.928V246.411H472.556V252.832Z" fill="#EAB726"/>
<path d="M466.632 252.832H466.004V246.411H466.632V252.832Z" fill="#EAB726"/>
<path d="M461.341 252.832H460.713V246.411H461.341V252.832Z" fill="#EAB726"/>
<path d="M494.942 252.832H494.314V246.411H494.942V252.832Z" fill="#EAB726"/>
<path d="M497.203 246.436V252.813C497.126 252.827 497.048 252.835 496.968 252.835H496.575V246.414H496.968C497.048 246.412 497.126 246.42 497.203 246.436Z" fill="#EAB726"/>
<path d="M498.395 241.397V245.254C498.395 245.562 498.309 245.847 498.165 246.085C498.012 246.335 497.793 246.53 497.536 246.641C497.475 246.668 497.411 246.69 497.345 246.705H497.343C497.325 246.709 497.308 246.713 497.29 246.717C497.213 246.732 497.134 246.741 497.054 246.741H441.655C441.597 246.741 441.537 246.736 441.481 246.728C441.458 246.726 441.436 246.721 441.415 246.717C440.812 246.596 440.348 246.025 440.315 245.331C440.315 245.305 440.314 245.28 440.314 245.254V241.397C440.314 241.371 440.314 241.346 440.315 241.32C440.352 240.539 440.941 239.911 441.655 239.911H497.054C497.089 239.911 497.125 239.913 497.16 239.915C497.174 239.917 497.19 239.919 497.205 239.919C497.221 239.921 497.239 239.923 497.255 239.925C497.266 239.928 497.279 239.93 497.29 239.932C497.375 239.949 497.457 239.974 497.536 240.008C497.547 240.013 497.559 240.019 497.571 240.023C497.583 240.027 497.594 240.034 497.605 240.04C497.628 240.051 497.65 240.064 497.673 240.076C497.697 240.091 497.721 240.106 497.745 240.123C497.766 240.138 497.787 240.151 497.808 240.168C497.832 240.185 497.854 240.204 497.877 240.225C497.895 240.24 497.912 240.255 497.928 240.272C497.93 240.272 497.93 240.274 497.932 240.276C497.943 240.286 497.954 240.297 497.965 240.31C497.999 240.344 498.031 240.382 498.062 240.42C498.071 240.431 498.081 240.444 498.089 240.454C498.097 240.467 498.107 240.478 498.115 240.49C498.132 240.516 498.149 240.541 498.165 240.567C498.311 240.804 498.395 241.091 498.395 241.397Z" fill="#FFEB4D"/>
<path d="M471.062 246.741H441.507C441.483 246.741 441.46 246.741 441.436 246.739C441.411 246.736 441.385 246.734 441.359 246.73C440.791 246.643 440.344 246.053 440.316 245.331C440.316 245.305 440.314 245.28 440.314 245.254V241.397C440.314 241.371 440.314 241.346 440.316 241.32C440.348 240.539 440.871 239.911 441.505 239.911H467.43C467.441 239.966 467.454 240.023 467.467 240.078C467.896 242.057 468.856 244.713 471.008 246.692C471.027 246.709 471.045 246.726 471.062 246.741Z" fill="#EAB726"/>
<path d="M491.917 246.74H491.246V240.036H491.917V246.74Z" fill="#EAB726"/>
<path d="M489.651 246.74H488.98V240.036H489.651V246.74Z" fill="#EAB726"/>
<path d="M486.93 246.74H486.26V240.036H486.93V246.74Z" fill="#EAB726"/>
<path d="M482.76 246.74H482.09V240.036H482.76V246.74Z" fill="#EAB726"/>
<path d="M478.352 246.74H477.682V240.036H478.352V246.74Z" fill="#EAB726"/>
<path d="M471.593 246.74H470.922V240.036H471.593V246.74Z" fill="#EAB726"/>
<path d="M466.515 246.312H465.887V240.035H466.515V246.312Z" fill="#EAB726"/>
<path d="M461.224 246.312H460.596V240.035H461.224V246.312Z" fill="#EAB726"/>
<path d="M495.505 246.74H494.834V240.036H495.505V246.74Z" fill="#EAB726"/>
<path d="M497.916 240.058V246.716C497.834 246.731 497.75 246.739 497.665 246.739H497.245V240.035H497.665C497.75 240.033 497.834 240.042 497.916 240.058Z" fill="#EAB726"/>
<path d="M501.039 235.171V238.798C501.039 239.087 500.954 239.355 500.81 239.578C500.658 239.814 500.44 239.997 500.184 240.101C500.105 240.133 500.023 240.157 499.939 240.173C499.862 240.187 499.783 240.195 499.703 240.195H444.502C444.281 240.195 444.071 240.137 443.887 240.037C443.496 239.824 443.217 239.413 443.172 238.932C443.171 238.912 443.169 238.89 443.167 238.87C443.167 238.846 443.166 238.822 443.166 238.798V235.171C443.166 235.147 443.166 235.123 443.167 235.099C443.204 234.365 443.791 233.774 444.502 233.774H499.703C499.783 233.774 499.862 233.782 499.939 233.796C500.023 233.812 500.105 233.836 500.184 233.867C500.44 233.971 500.658 234.155 500.81 234.39C500.954 234.612 501.039 234.882 501.039 235.171Z" fill="#FFEB4D"/>
<path d="M474.051 240.338H444.084C443.883 240.338 443.695 240.277 443.528 240.171C443.174 239.943 442.922 239.506 442.882 238.994C442.88 238.973 442.878 238.95 442.877 238.929C442.877 238.903 442.875 238.878 442.875 238.852V234.994C442.875 234.969 442.875 234.944 442.877 234.918C442.909 234.137 443.44 233.508 444.083 233.508H470.369C470.779 235.464 471.715 238.149 473.866 240.171C473.927 240.226 473.989 240.281 474.051 240.338Z" fill="#EAB726"/>
<path d="M494.323 240.195H493.695V233.773H494.323V240.195Z" fill="#EAB726"/>
<path d="M492.2 240.195H491.572V233.773H492.2V240.195Z" fill="#EAB726"/>
<path d="M489.651 240.195H489.023V233.773H489.651V240.195Z" fill="#EAB726"/>
<path d="M485.749 240.195H485.121V233.773H485.749V240.195Z" fill="#EAB726"/>
<path d="M481.62 240.195H480.992V233.773H481.62V240.195Z" fill="#EAB726"/>
<path d="M475.292 240.195H474.664V233.773H475.292V240.195Z" fill="#EAB726"/>
<path d="M469.368 240.195H468.74V233.773H469.368V240.195Z" fill="#EAB726"/>
<path d="M464.077 240.195H463.449V233.773H464.077V240.195Z" fill="#EAB726"/>
<path d="M497.679 240.195H497.051V233.773H497.679V240.195Z" fill="#EAB726"/>
<path d="M499.939 233.797V240.174C499.863 240.188 499.784 240.196 499.704 240.196H499.312V233.775H499.704C499.784 233.773 499.863 233.781 499.939 233.797Z" fill="#EAB726"/>
<path d="M504.732 228.889V232.413C504.732 232.695 504.65 232.955 504.51 233.172C504.362 233.401 504.15 233.579 503.901 233.68C503.825 233.711 503.746 233.734 503.663 233.75C503.588 233.764 503.512 233.771 503.434 233.771H449.792C449.101 233.771 448.531 233.197 448.495 232.483C448.495 232.46 448.494 232.437 448.494 232.413V228.889C448.494 228.866 448.494 228.842 448.495 228.819C448.528 228.158 449.017 227.619 449.638 227.541C449.687 227.535 449.739 227.531 449.792 227.531H503.434C503.512 227.531 503.588 227.539 503.663 227.553C503.746 227.568 503.825 227.591 503.901 227.622C504.15 227.723 504.362 227.902 504.51 228.131C504.65 228.348 504.732 228.61 504.732 228.889Z" fill="#FFEB4D"/>
<path d="M478.338 233.953H448.765C448.13 233.953 447.606 233.362 447.574 232.627C447.574 232.603 447.573 232.579 447.573 232.555V228.928C447.573 228.905 447.573 228.881 447.574 228.857C447.603 228.176 448.055 227.621 448.624 227.541C448.67 227.535 448.716 227.531 448.765 227.531H474.706C474.706 227.535 474.708 227.537 474.708 227.541C475.123 229.432 476.089 232.04 478.338 233.953Z" fill="#EAB726"/>
<path d="M498.833 233.772H498.205V227.351H498.833V233.772Z" fill="#EAB726"/>
<path d="M496.71 233.772H496.082V227.351H496.71V233.772Z" fill="#EAB726"/>
<path d="M494.163 233.772H493.535V227.351H494.163V233.772Z" fill="#EAB726"/>
<path d="M490.259 233.772H489.631V227.351H490.259V233.772Z" fill="#EAB726"/>
<path d="M486.132 233.772H485.504V227.351H486.132V233.772Z" fill="#EAB726"/>
<path d="M479.804 233.772H479.176V227.351H479.804V233.772Z" fill="#EAB726"/>
<path d="M473.878 233.772H473.25V227.351H473.878V233.772Z" fill="#EAB726"/>
<path d="M468.587 233.772H467.959V227.351H468.587V233.772Z" fill="#EAB726"/>
<path d="M502.19 233.772H501.562V227.351H502.19V233.772Z" fill="#EAB726"/>
<path d="M504.449 227.372V233.75C504.372 233.764 504.294 233.771 504.214 233.771H503.821V227.35H504.214C504.294 227.35 504.372 227.358 504.449 227.372Z" fill="#EAB726"/>
<path d="M499.074 222.373V226.096C499.074 226.394 498.987 226.668 498.839 226.898C498.683 227.14 498.459 227.328 498.196 227.435C498.115 227.467 498.032 227.492 497.944 227.508C497.918 227.513 497.892 227.519 497.865 227.521C497.844 227.525 497.823 227.525 497.801 227.527C497.791 227.527 497.78 227.529 497.77 227.529C497.749 227.529 497.726 227.531 497.703 227.531H441.028C440.298 227.531 439.696 226.924 439.659 226.17C439.657 226.146 439.657 226.121 439.657 226.096V222.373C439.657 222.348 439.657 222.324 439.659 222.299C439.696 221.545 440.298 220.938 441.028 220.938H497.704C497.729 220.938 497.752 220.938 497.777 220.94C497.834 220.942 497.89 220.951 497.946 220.961C498.033 220.977 498.117 221.002 498.198 221.035C498.239 221.051 498.278 221.069 498.316 221.09C498.341 221.102 498.364 221.114 498.387 221.129C498.388 221.129 498.392 221.131 498.395 221.133C498.418 221.147 498.441 221.162 498.464 221.178C498.469 221.18 498.472 221.184 498.476 221.186C498.497 221.201 498.517 221.217 498.536 221.233C498.584 221.272 498.63 221.313 498.673 221.358C498.686 221.373 498.699 221.387 498.712 221.401C498.714 221.403 498.717 221.405 498.719 221.41C498.727 221.418 498.735 221.426 498.742 221.436C498.744 221.438 498.745 221.44 498.747 221.442C498.76 221.459 498.775 221.477 498.786 221.496C498.806 221.52 498.824 221.547 498.841 221.574C498.989 221.801 499.074 222.078 499.074 222.373Z" fill="#FFEB4D"/>
<path d="M471.605 227.59H440.704C440.041 227.59 439.494 226.973 439.461 226.205C439.459 226.18 439.459 226.155 439.459 226.13V222.341C439.459 222.316 439.459 222.291 439.461 222.266C439.494 221.498 440.041 220.881 440.704 220.881H467.811C467.821 220.931 467.833 220.983 467.846 221.035C468.296 222.993 469.309 225.63 471.594 227.58C471.597 227.584 471.602 227.588 471.605 227.59Z" fill="#EAB726"/>
<path d="M491.92 227.531H491.275V220.94H491.92V227.531Z" fill="#EAB726"/>
<path d="M489.74 227.531H489.096V220.94H489.74V227.531Z" fill="#EAB726"/>
<path d="M487.125 227.531H486.48V220.94H487.125V227.531Z" fill="#EAB726"/>
<path d="M483.119 227.531H482.475V220.94H483.119V227.531Z" fill="#EAB726"/>
<path d="M478.881 227.531H478.236V220.94H478.881V227.531Z" fill="#EAB726"/>
<path d="M472.387 227.531H471.742V220.94H472.387V227.531Z" fill="#EAB726"/>
<path d="M466.305 227.531H465.66V220.94H466.305V227.531Z" fill="#EAB726"/>
<path d="M460.873 227.531H460.229V220.94H460.873V227.531Z" fill="#EAB726"/>
<path d="M495.365 227.531H494.721V220.94H495.365V227.531Z" fill="#EAB726"/>
<path d="M497.686 220.961V227.507C497.607 227.521 497.526 227.53 497.444 227.53H497.041V220.938H497.444C497.526 220.938 497.607 220.946 497.686 220.961Z" fill="#EAB726"/>
<path d="M502.361 216.065V219.692C502.361 219.982 502.276 220.249 502.132 220.473C501.98 220.708 501.762 220.892 501.506 220.996C501.427 221.028 501.346 221.052 501.261 221.068C501.184 221.082 501.105 221.09 501.025 221.09H445.824C445.609 221.09 445.408 221.036 445.228 220.942C444.826 220.73 444.538 220.311 444.495 219.822C444.493 219.804 444.491 219.784 444.491 219.764C444.491 219.74 444.49 219.716 444.49 219.692V216.065C444.49 216.042 444.49 216.018 444.491 215.994C444.525 215.313 445.03 214.758 445.667 214.678C445.718 214.672 445.771 214.668 445.826 214.668H501.027C501.107 214.668 501.186 214.676 501.262 214.69C501.347 214.706 501.429 214.73 501.508 214.762C501.764 214.866 501.982 215.049 502.134 215.285C502.276 215.507 502.361 215.776 502.361 216.065Z" fill="#FFEB4D"/>
<path d="M475.254 221.086H445.681C445.49 221.086 445.309 221.032 445.149 220.939C444.788 220.727 444.534 220.308 444.494 219.819C444.492 219.801 444.49 219.781 444.49 219.761C444.49 219.737 444.489 219.713 444.489 219.689V216.062C444.489 216.038 444.489 216.014 444.49 215.99C444.519 215.31 444.971 214.755 445.54 214.675C445.586 214.669 445.633 214.665 445.681 214.665H471.623C471.623 214.669 471.624 214.673 471.624 214.675C472.029 216.515 472.957 219.04 475.084 220.939C475.139 220.989 475.196 221.038 475.254 221.086Z" fill="#EAB726"/>
<path d="M495.644 221.09H495.016V214.669H495.644V221.09Z" fill="#EAB726"/>
<path d="M493.521 221.09H492.893V214.669H493.521V221.09Z" fill="#EAB726"/>
<path d="M490.974 221.09H490.346V214.669H490.974V221.09Z" fill="#EAB726"/>
<path d="M487.069 221.09H486.441V214.669H487.069V221.09Z" fill="#EAB726"/>
<path d="M482.942 221.09H482.314V214.669H482.942V221.09Z" fill="#EAB726"/>
<path d="M476.612 221.09H475.984V214.669H476.612V221.09Z" fill="#EAB726"/>
<path d="M470.688 221.09H470.061V214.669H470.688V221.09Z" fill="#EAB726"/>
<path d="M465.397 221.09H464.77V214.669H465.397V221.09Z" fill="#EAB726"/>
<path d="M497.665 221.09H497.037V214.669H497.665V221.09Z" fill="#EAB726"/>
<path d="M500.29 221.09H499.662V214.669H500.29V221.09Z" fill="#EAB726"/>
<path d="M502.131 215.286V220.474C501.979 220.71 501.761 220.893 501.505 220.997V214.763C501.761 214.865 501.979 215.051 502.131 215.286Z" fill="#EAB726"/>
<path d="M504.09 209.651V213.278C504.09 213.568 504.005 213.835 503.861 214.059C503.709 214.294 503.491 214.478 503.234 214.582C503.156 214.614 503.074 214.638 502.989 214.654C502.964 214.658 502.938 214.664 502.912 214.666C502.898 214.668 502.884 214.67 502.869 214.67C502.855 214.672 502.84 214.672 502.826 214.674C502.802 214.676 502.778 214.676 502.755 214.676H447.554C446.843 214.676 446.257 214.085 446.22 213.35C446.22 213.326 446.218 213.302 446.218 213.278V209.651C446.218 209.627 446.218 209.603 446.22 209.58C446.257 208.845 446.843 208.254 447.554 208.254H502.755C502.836 208.254 502.914 208.262 502.991 208.276C503.076 208.292 503.158 208.316 503.236 208.348C503.492 208.452 503.71 208.635 503.862 208.871C504.005 209.094 504.09 209.364 504.09 209.651Z" fill="#FFEB4D"/>
<path d="M476.98 214.676H447.407C446.773 214.676 446.249 214.085 446.217 213.35C446.217 213.326 446.215 213.302 446.215 213.278V209.651C446.215 209.627 446.215 209.603 446.217 209.58C446.249 208.845 446.773 208.254 447.407 208.254H473.349C473.762 210.142 474.725 212.749 476.969 214.666C476.972 214.67 476.977 214.674 476.98 214.676Z" fill="#EAB726"/>
<path d="M497.372 214.679H496.744V208.258H497.372V214.679Z" fill="#EAB726"/>
<path d="M495.249 214.679H494.621V208.258H495.249V214.679Z" fill="#EAB726"/>
<path d="M492.7 214.679H492.072V208.258H492.7V214.679Z" fill="#EAB726"/>
<path d="M488.798 214.679H488.17V208.258H488.798V214.679Z" fill="#EAB726"/>
<path d="M484.669 214.679H484.041V208.258H484.669V214.679Z" fill="#EAB726"/>
<path d="M478.341 214.679H477.713V208.258H478.341V214.679Z" fill="#EAB726"/>
<path d="M472.417 214.679H471.789V208.258H472.417V214.679Z" fill="#EAB726"/>
<path d="M466.497 208.255H467.125V214.676H466.497V208.255Z" fill="#EAB726"/>
<path d="M500.729 214.679H500.102V208.258H500.729V214.679Z" fill="#EAB726"/>
<path d="M502.988 208.277V214.654C502.911 214.668 502.833 214.676 502.753 214.676H502.36V208.255H502.753C502.833 208.255 502.911 208.263 502.988 208.277Z" fill="#EAB726"/>
<path d="M614.601 134.694C613.546 133.948 611.15 132.31 611.026 132.674C610.936 132.937 611.065 133.384 611.352 133.848C609.903 133.309 608.434 132.954 604.957 133.62C604.262 133.753 603.629 134.15 603.248 134.745C602.893 135.297 602.761 135.987 603.649 136.539C605.424 137.642 604.908 136.981 607.374 138.588C609.84 140.194 612.86 140.603 614.664 139.477L617.086 139.074L617.388 135.093C617.383 135.09 616.002 134.927 614.601 134.694Z" fill="#FFBD80"/>
<path d="M678.039 101.308C678.039 101.308 672.332 108.075 665.063 105.246C665.063 105.246 663.5 101.466 663.478 98.681C663.475 98.3383 663.471 98.0053 663.466 97.6893C663.427 94.5515 663.322 92.7917 663.322 92.7917C663.322 92.7917 663.325 92.7917 663.33 92.7893C663.66 92.6508 674.44 88.2271 674.43 88.5941C674.245 97.0793 678.039 101.308 678.039 101.308Z" fill="#FFBD80"/>
<path d="M673.348 90.6172C672.307 92.5422 668.742 96.312 663.466 97.6877C663.427 94.5499 663.322 92.7901 663.322 92.7901C663.322 92.7901 663.325 92.7901 663.33 92.7877C663.626 92.7075 673.657 90.0509 673.348 90.6172Z" fill="#ED975D"/>
<path d="M661.063 92.4642C661.063 92.4642 673.187 95.3128 674.846 87.7392C676.504 80.1655 679.186 75.4332 671.517 73.2943C663.847 71.1554 661.705 73.7148 660.535 76.1089C659.366 78.5006 657.953 91.5284 661.063 92.4642Z" fill="#FFBD80"/>
<path d="M674.429 89.8032C674.594 89.9102 677.203 90.7098 682.142 80.8733C682.918 79.3299 683.445 75.9879 681.639 73.0372C679.832 70.0865 673.422 67.7653 668.097 66.7541C662.772 65.7455 661.492 68.7399 660.238 71.749C658.922 74.9087 655.119 77.5094 655.119 77.5094C659.713 80.0737 665.242 76.4059 667.158 77.0087C669.074 77.6115 669.75 80.6303 669.894 81.5976C670.037 82.565 670.259 83.3695 672.668 82.5042C675.078 81.6389 673.758 85.9167 673.371 86.7358C673.376 86.7383 673.048 88.9185 674.429 89.8032Z" fill="#3F2A0B"/>
<path d="M687.507 278.043H694.848C696.387 278.043 698.097 276.502 698.525 273.683C698.953 270.861 702.116 269.323 702.8 267.016C703.485 264.707 699.976 261.457 699.976 261.457L699.39 260.704L698.78 259.919L692.966 261.285C692.966 261.285 692.823 262.67 692.733 264.432C692.672 265.706 692.635 267.176 692.708 268.467C692.878 271.547 691.845 274.859 689.112 275.457C686.376 276.058 687.507 278.043 687.507 278.043Z" fill="#1D9294"/>
<path d="M654.559 278.668H674.017C674.204 278.631 674.345 278.59 674.43 278.549C675.729 277.9 675.322 272.927 675.167 271.391C675.138 271.106 675.116 270.939 675.116 270.939C675.116 270.939 668.273 265.467 667.332 269.658C667.303 269.789 667.269 269.918 667.232 270.042V270.044C666.046 273.962 660.735 275.744 657.669 276.24C655.322 276.621 654.714 277.987 654.559 278.668Z" fill="#1D9294"/>
<path d="M658.48 166.511C658.48 166.511 659.519 179.471 660.742 195.046C662.403 216.207 664.399 242.199 664.596 247.123C664.937 255.674 666.308 269.351 666.308 269.351C666.308 269.351 669.557 272.601 676.056 271.23C676.056 271.23 681.851 251.705 683.505 231.048C683.531 230.71 683.556 230.367 683.582 230.027C685.122 208.998 687.514 164.715 687.514 164.715L658.48 166.511Z" fill="#20A2A5"/>
<path d="M658.48 166.511C658.48 166.511 659.519 179.471 660.742 195.046L683.505 231.048C683.531 230.71 683.556 230.367 683.582 230.027C685.122 208.998 687.514 164.715 687.514 164.715L658.48 166.511Z" fill="#1D9294"/>
<path d="M664.953 163.745C664.953 163.745 675.472 207.099 683.502 231.048C691.531 254.996 691.872 266.59 691.872 266.59C691.872 266.59 700.973 264.813 701.958 263.041C701.958 263.041 705.075 222.025 698.887 210.303C695.39 203.68 695.981 188.331 695.981 181.338C695.981 168.383 691.935 155.518 691.935 155.518L664.953 163.745Z" fill="#20A2A5"/>
<path d="M705.94 159.522L706.136 162.541C706.136 162.541 704.145 167.903 709.726 170.654C709.726 170.654 712.113 171.616 712.211 169.759C712.308 167.9 712.002 168.6 712.196 165.982C712.391 163.365 711.36 160.893 709.628 160.059L708.208 158.421L705.94 159.522Z" fill="#FFBD80"/>
<path d="M708.118 161.722C706.044 162.388 705.713 162.238 705.713 162.238C705.713 162.238 695.622 143.875 694.601 142.195C693.579 140.513 673.178 121.603 673.178 121.603L678.42 102.062C678.42 102.062 701.626 132.096 704.13 136.405C708.271 143.527 710.698 160.067 710.698 160.067C710.698 160.067 709.747 161.2 708.118 161.722Z" fill="#FF912B"/>
<path d="M654.523 129.273C654.596 133.286 654.83 137.797 655.143 142.379C655.163 142.651 655.182 142.923 655.202 143.193C655.404 146.032 655.623 148.876 655.871 151.652C655.97 152.765 656.077 153.863 656.189 154.945L656.206 155.091C656.216 155.494 656.264 155.934 656.308 156.333C657.332 166.726 658.404 174.934 658.601 175.06C658.84 175.218 659.107 175.299 659.399 175.265C662.125 174.922 670.261 175.542 676.919 174.093C682.538 172.907 687.377 170.661 692.506 167.633C693.187 167.232 694.738 166.165 694.612 165.37C694.488 164.495 694.259 163.231 693.967 161.641C692.958 156.114 691.212 146.606 690.619 135.476C690.502 133.403 690.334 131.356 690.115 129.344C689.544 124.101 688.627 119.121 687.399 114.697C685.116 106.48 681.76 100.184 677.551 97.7222C677.002 97.4135 674.042 99.2972 671.324 101.04C668.814 102.649 666.171 103.094 663.601 102.868L661.339 105.369C658.599 108.553 655.683 112.789 654.886 118.812C654.825 119.257 654.774 119.731 654.733 120.232C654.516 122.689 654.463 125.795 654.523 129.273Z" fill="#FF912B"/>
<path d="M654.523 129.275C654.596 133.287 654.83 137.799 655.143 142.38C655.163 142.652 655.182 142.925 655.202 143.194C670.777 133.45 673.174 115.62 673.174 115.62C665.512 115.955 659.426 117.717 654.735 120.233C654.516 122.69 654.463 125.796 654.523 129.275Z" fill="#FC7600"/>
<path d="M615.175 136.949C615.014 134.64 616.211 134.256 616.211 134.256C616.211 134.256 639.693 130.002 641.69 129.375C643.686 128.748 660.754 111 660.754 111C660.754 111 667.297 103.626 672.654 105.254C677.309 106.669 679.13 110.3 679.747 113.757C680.487 117.876 678.585 122.023 675.015 124.213C667.003 129.125 650.959 138.806 647.18 139.912C638.772 142.376 616.179 140.109 616.179 140.109C616.179 140.109 615.301 138.762 615.175 136.949Z" fill="#FF912B"/>
<path d="M287.255 265.822C301.302 251.781 301.302 229.016 287.255 214.975C273.208 200.934 250.433 200.934 236.386 214.975C222.339 229.016 222.339 251.781 236.386 265.822C250.433 279.862 273.208 279.862 287.255 265.822Z" fill="#EAB726"/>
<path d="M277.938 272.618C277.494 272.888 277.045 273.151 276.587 273.403C276.431 273.488 276.276 273.573 276.121 273.654C275.766 273.842 275.412 274.024 275.054 274.202C257.925 282.612 237.03 276.157 227.718 259.272C218.835 243.168 223.61 223.221 238.184 212.745C239.346 211.908 240.571 211.134 241.855 210.426C242.315 210.171 242.781 209.929 243.247 209.697C243.701 209.471 244.159 209.256 244.619 209.051C246.028 208.423 247.457 207.895 248.903 207.462C251.051 206.816 253.231 206.379 255.416 206.15C262.193 205.433 269.009 206.669 275.054 209.626C281.468 212.761 287.013 217.831 290.722 224.556C300.059 241.489 294.306 262.666 277.938 272.618Z" fill="#FFEB4D"/>
<path d="M259.473 274.516C256.465 274.516 253.44 274.091 250.471 273.232C242.201 270.84 235.359 265.373 231.203 257.838C227.047 250.302 226.075 241.599 228.468 233.332C230.861 225.066 236.33 218.226 243.869 214.072C259.433 205.495 279.075 211.176 287.654 226.733C296.232 242.291 290.552 261.923 274.987 270.498C270.152 273.159 264.84 274.516 259.473 274.516ZM259.373 210.942C254.258 210.942 249.075 212.192 244.285 214.83C236.95 218.872 231.627 225.528 229.299 233.571C226.97 241.613 227.917 250.083 231.961 257.415C236.005 264.748 242.663 270.068 250.71 272.395C258.756 274.723 267.229 273.776 274.565 269.734C289.709 261.389 295.238 242.286 286.889 227.149C281.182 216.8 270.438 210.942 259.373 210.942Z" fill="#EAB726"/>
<path d="M275.277 245.414C275.207 245.236 275.13 245.066 275.053 244.896C274.469 243.615 273.744 242.575 272.872 241.78C271.886 240.883 270.742 240.208 269.437 239.761C268.132 239.312 266.678 239.038 265.074 238.941C263.469 238.841 261.72 238.821 259.833 238.873C258.666 238.908 257.668 238.887 256.839 238.813C256.013 238.738 255.308 238.585 254.732 238.353C254.154 238.121 253.686 237.804 253.326 237.4C252.965 236.999 252.669 236.508 252.433 235.926C252.197 235.346 252.062 234.77 252.027 234.199C251.992 233.629 252.076 233.087 252.282 232.573C252.487 232.062 252.82 231.588 253.284 231.153C253.746 230.718 254.357 230.345 255.12 230.037C256.522 229.467 257.834 229.48 259.05 230.074C260.266 230.668 261.256 231.909 262.02 233.791L269.348 230.817C268.71 229.25 267.91 227.922 266.949 226.842C265.99 225.761 264.906 224.924 263.701 224.334C262.497 223.744 261.186 223.4 259.764 223.298C258.345 223.199 256.87 223.348 255.341 223.75L253.266 218.641L249.209 220.288L251.256 225.326C249.791 226.086 248.551 226.968 247.531 227.974C246.514 228.983 245.731 230.072 245.184 231.244C244.635 232.418 244.349 233.65 244.322 234.94C244.295 236.23 244.552 237.543 245.095 238.877C245.721 240.415 246.524 241.633 247.511 242.532C248.497 243.43 249.638 244.099 250.941 244.54C252.242 244.981 253.699 245.246 255.308 245.331C256.918 245.418 258.671 245.416 260.562 245.325C261.66 245.263 262.613 245.269 263.421 245.344C264.229 245.418 264.927 245.574 265.515 245.81C266.104 246.048 266.593 246.379 266.982 246.806C267.372 247.232 267.701 247.775 267.968 248.435C268.204 249.017 268.32 249.595 268.318 250.173C268.316 250.75 268.188 251.301 267.927 251.827C267.668 252.353 267.28 252.84 266.763 253.287C266.245 253.734 265.59 254.117 264.794 254.443C264.103 254.724 263.386 254.908 262.644 255.002C261.902 255.093 261.179 255.02 260.475 254.784C259.769 254.55 259.108 254.124 258.495 253.504C257.879 252.887 257.345 252.02 256.891 250.906L249.564 253.875C250.328 255.757 251.289 257.253 252.445 258.354C253.601 259.458 254.867 260.247 256.243 260.721C257.618 261.197 259.056 261.404 260.556 261.342C262.056 261.282 263.539 261.038 265 260.609L266.891 265.27L270.922 263.635L269.021 258.951C270.485 258.193 271.739 257.317 272.783 256.325C273.75 255.407 274.506 254.422 275.053 253.362C275.097 253.277 275.14 253.19 275.182 253.103C275.735 251.947 276.029 250.721 276.064 249.427C276.102 248.133 275.839 246.795 275.277 245.414Z" fill="#EAB726"/>
<path d="M572.339 52.6697C580.013 44.9985 580.013 32.5611 572.339 24.8899C564.664 17.2187 552.221 17.2187 544.546 24.8899C536.872 32.5611 536.872 44.9985 544.546 52.6697C552.221 60.3408 564.664 60.3408 572.339 52.6697Z" fill="#EAB726"/>
<path d="M567.248 56.3821C567.005 56.5292 566.76 56.6729 566.51 56.8109C566.425 56.8573 566.34 56.9036 566.255 56.9478C566.062 57.0507 565.868 57.1503 565.672 57.2476C556.314 61.8419 544.898 58.3156 539.811 49.0906C534.957 40.2922 537.566 29.394 545.529 23.6706C546.164 23.2135 546.833 22.7904 547.534 22.4035C547.786 22.2643 548.04 22.1319 548.295 22.0052C548.543 21.8819 548.793 21.7643 549.044 21.6523C549.814 21.3095 550.595 21.021 551.385 20.7845C552.559 20.4315 553.749 20.1928 554.943 20.0673C558.646 19.6758 562.369 20.3512 565.672 21.9668C569.176 23.6796 572.206 26.4491 574.232 30.1237C579.334 39.3747 576.19 50.9449 567.248 56.3821Z" fill="#FFEB4D"/>
<path d="M557.159 57.4195C555.515 57.4195 553.863 57.1876 552.241 56.7181C547.722 55.4114 543.984 52.4246 541.713 48.3077C539.443 44.1907 538.912 39.4357 540.219 34.9194C541.527 30.4031 544.515 26.6663 548.634 24.3968C557.137 19.7108 567.868 22.8141 572.555 31.3138C577.242 39.8136 574.138 50.5398 565.635 55.2247C562.993 56.6785 560.091 57.4195 557.159 57.4195ZM557.104 22.6862C554.31 22.6862 551.478 23.3696 548.861 24.8109C544.853 27.0193 541.945 30.6554 540.673 35.0495C539.401 39.4436 539.918 44.0708 542.128 48.0769C544.337 52.083 547.975 54.9894 552.371 56.261C556.767 57.5326 561.396 57.0156 565.404 54.8072C573.678 50.2479 576.699 39.8113 572.137 31.5412C569.019 25.8868 563.149 22.6862 557.104 22.6862Z" fill="#EAB726"/>
<path d="M565.794 41.5202C565.755 41.4229 565.714 41.3301 565.672 41.2373C565.352 40.537 564.956 39.9691 564.48 39.5347C563.941 39.0448 563.316 38.676 562.603 38.4316C561.89 38.1861 561.096 38.0368 560.22 37.9836C559.342 37.9293 558.387 37.918 557.356 37.9463C556.719 37.9655 556.173 37.9542 555.721 37.9135C555.269 37.8727 554.884 37.789 554.569 37.6623C554.254 37.5356 553.998 37.3625 553.801 37.1419C553.604 36.9224 553.442 36.6543 553.313 36.3364C553.184 36.0196 553.11 35.7051 553.091 35.3928C553.072 35.0817 553.118 34.7853 553.23 34.5047C553.342 34.2253 553.525 33.9662 553.778 33.7286C554.031 33.491 554.365 33.2874 554.781 33.1188C555.547 32.8077 556.264 32.8145 556.928 33.1392C557.593 33.4639 558.134 34.1416 558.551 35.17L562.555 33.5454C562.206 32.6889 561.769 31.9637 561.244 31.3732C560.72 30.7826 560.128 30.3256 559.469 30.0031C558.812 29.6807 558.095 29.4929 557.319 29.4374C556.543 29.3831 555.737 29.4646 554.902 29.6841L553.768 26.8931L551.552 27.7925L552.67 30.545C551.87 30.9602 551.192 31.4422 550.635 31.992C550.079 32.543 549.652 33.1381 549.353 33.7784C549.053 34.4199 548.897 35.093 548.882 35.7979C548.867 36.5027 549.008 37.2199 549.304 37.9485C549.646 38.7891 550.085 39.4543 550.624 39.9453C551.163 40.4363 551.786 40.8018 552.498 41.0427C553.209 41.2837 554.005 41.4285 554.884 41.4749C555.764 41.5224 556.721 41.5213 557.754 41.4715C558.354 41.4376 558.875 41.441 559.316 41.4817C559.758 41.5224 560.139 41.6073 560.461 41.7363C560.782 41.8664 561.049 42.0474 561.262 42.2804C561.475 42.5135 561.655 42.8099 561.801 43.1708C561.93 43.4887 561.993 43.8043 561.992 44.12C561.991 44.4356 561.921 44.7366 561.778 45.0239C561.637 45.3113 561.425 45.5772 561.142 45.8215C560.859 46.0659 560.501 46.2752 560.067 46.4528C559.689 46.6067 559.297 46.7074 558.892 46.7583C558.487 46.808 558.092 46.7685 557.707 46.6395C557.321 46.5116 556.96 46.2786 556.625 45.9403C556.289 45.6032 555.997 45.1291 555.749 44.5205L551.745 46.1428C552.163 47.1712 552.688 47.988 553.32 48.5899C553.951 49.1929 554.643 49.624 555.395 49.883C556.146 50.1432 556.932 50.2564 557.751 50.2224C558.57 50.1896 559.381 50.0561 560.179 49.8219L561.212 52.3686L563.415 51.4748L562.376 48.9157C563.176 48.5017 563.861 48.0231 564.431 47.4812C564.96 46.98 565.373 46.4415 565.672 45.8623C565.695 45.8159 565.719 45.7684 565.742 45.7208C566.044 45.0895 566.205 44.4198 566.224 43.7127C566.244 43.0056 566.101 42.2748 565.794 41.5202Z" fill="#EAB726"/>
<path d="M291.149 115.75C291.039 115.309 300.73 120.127 301.221 120.672C305.767 125.71 304.47 132.287 301.87 132.351C300.202 132.392 300.525 135.163 300.525 135.163L281.944 127.307C281.944 127.305 284.182 114.265 291.149 115.75Z" fill="#3F2A0B"/>
<path d="M288.86 116.766C288.86 116.766 288.195 109.531 296.283 109.531C296.283 109.531 293.832 110.195 292.564 111.525C292.564 111.525 297.723 108.497 303.335 113.148C308.949 117.799 305.461 129.464 307.168 131.679C308.875 133.895 315.523 134.336 314.709 141.499C313.896 148.659 293.611 157.63 294.914 163.554C294.914 163.554 286.965 151.873 292.649 146.543C292.649 146.543 289.88 149.152 289.596 152.252C289.596 152.252 288.844 146.199 292.697 144.263C296.107 142.549 298.902 136.282 298.605 135.162C298.315 134.042 288.86 116.766 288.86 116.766Z" fill="#3F2A0B"/>
<path d="M296.204 150.803C297.451 144.8 305.238 142.938 308.922 147.839C309.584 148.722 310.051 149.763 310.202 150.993C311.043 157.806 300.144 185.558 298.584 188.072C295.742 192.646 279.011 208.328 279.011 208.328L275.926 206.46C275.926 206.46 287.795 186.376 289.632 184.498C291.756 182.326 293.836 162.2 296.204 150.803Z" fill="#F99352"/>
<path d="M280.182 206.47C280.182 206.47 275.68 203.517 273.977 203.706C272.274 203.896 267.341 205.315 267.281 206.039C267.221 206.764 272.775 207.216 273.148 207.613C273.521 208.009 277.294 210.527 278.661 209.738C280.03 208.947 280.182 206.47 280.182 206.47Z" fill="#ED985F"/>
<path d="M311.578 273.205L315.599 272.614C315.599 272.614 329.118 261.876 331.132 241.837C331.337 239.797 331.381 237.729 331.227 235.641C331.209 235.401 331.236 235.161 331.368 234.958C331.368 234.956 331.37 234.956 331.372 234.952C331.805 234.289 332.883 232.628 334.341 230.266C335.779 227.938 338.238 223.538 340.943 218.601C345.818 209.709 351.494 199.076 353.44 195.688C359.642 184.894 356.653 177.636 356.653 177.636C356.653 177.636 339.348 175.925 334.608 171.78L332.901 174.411C332.901 174.411 329.151 191.002 329.33 191.079C329.145 191.642 328.957 192.218 328.766 192.802C325.808 201.93 322.404 213.339 320.548 222.631C319.506 227.859 318.953 232.415 319.249 235.517C319.35 236.581 319.226 238.217 318.942 240.238C317.266 252.143 311.578 273.205 311.578 273.205Z" fill="#20A2A5"/>
<path d="M303.142 278.29H319.916C319.916 278.29 320.318 275.735 319.441 273.797C318.602 271.937 317.405 271.877 319.288 268.962C318.221 270.059 314.795 270.513 312.371 270.185C312.075 270.668 310.455 273.898 309.462 274.611C308.368 275.398 303.479 275.116 303.142 278.29Z" fill="#1D9294"/>
<path d="M328.764 192.8C330.229 200.878 333.691 214.321 340.941 218.601C345.816 209.709 351.492 199.076 353.438 195.688C359.64 184.894 356.651 177.636 356.651 177.636C356.651 177.636 339.346 175.925 334.606 171.78L332.899 174.411C332.899 174.411 329.15 191.002 329.328 191.079C329.141 191.64 328.955 192.216 328.764 192.8Z" fill="#1D9294"/>
<path d="M297.997 147.08C297.997 147.08 295.625 149.546 294.541 152.499C294.541 152.499 298.324 163.36 307.168 164.72C307.168 164.72 300.172 147.075 297.997 147.08Z" fill="#79C7C9"/>
<path d="M340.529 178.882L340.473 175.747C346.724 176.534 362.027 168.28 362.027 168.28C362.027 168.28 368.567 172.628 369.462 185.045C369.899 191.106 372.663 216.733 372.969 224.387C373.081 227.159 373.119 229.139 373.131 229.93C373.129 229.934 373.129 229.936 373.131 229.938C373.135 230.181 373.249 230.392 373.396 230.584C374.689 232.226 375.812 233.968 376.783 235.774C386.321 253.512 381.333 277.617 381.333 277.617L379.118 277.054C379.118 277.054 371.053 252.066 365.781 241.259C364.886 239.426 364.074 238 363.394 237.173C361.412 234.767 359.323 230.682 357.262 225.764C353.367 216.466 349.589 204.197 346.891 194.698C346.699 194.731 340.529 178.882 340.529 178.882Z" fill="#20A2A5"/>
<path d="M303.947 157.951C314.166 155.607 307.636 141.255 307.044 141.505C305.629 141.217 302.519 138.732 299.737 133.879L299.362 134.204L293.085 139.704C293.085 139.704 294.535 141.843 295.755 143.938C296.708 145.578 297.52 147.196 297.392 147.751C296.888 148.15 301.222 158.578 303.947 157.951Z" fill="#FFBD80"/>
<path d="M293.087 139.708C293.087 139.708 294.54 141.845 295.758 143.943C299.661 141.538 299.665 136.709 299.365 134.208L293.087 139.708Z" fill="#F99352"/>
<path d="M292.915 142.462C292.915 142.462 302.39 137.192 299.016 131.344C295.641 125.496 294.593 120.878 288.4 123.995C282.208 127.111 282.33 130.015 282.983 132.241C283.631 134.469 290.362 143.684 292.915 142.462Z" fill="#FFBD80"/>
<path d="M281.379 128.832C281.812 126.235 283.131 125.989 284.051 126.161C287.55 120.377 293.266 122.634 293.266 122.634C296.32 126.465 300.734 127.118 300.734 127.118C300.734 127.118 299.634 129.163 295.106 130.429C293.722 130.816 292.151 130.582 290.637 130.073C293.78 131.824 297.068 132.495 297.068 132.495C291.097 133.042 285.419 127.586 284.828 127.002C284.553 127.846 284.07 129.617 284.358 130.911C284.751 132.669 286.311 135.854 285.358 136.266C285.36 136.266 280.728 132.725 281.379 128.832Z" fill="#3F2A0B"/>
<path d="M367.991 278.29H384.765C384.765 278.29 385.167 275.735 384.291 273.796C383.452 271.937 382.136 271.09 382.451 268.839C381.384 269.937 379.648 271.165 377.222 270.839C376.926 271.322 375.304 273.898 374.312 274.61C373.218 275.397 368.329 275.116 367.991 278.29Z" fill="#1D9294"/>
<path d="M302.747 169.329C304.905 170.083 307.934 170.495 311.033 170.831C315.444 171.311 319.997 171.64 322.384 172.593C323.254 172.941 323.836 173.367 324.018 173.916C325.052 177.024 329.61 181.82 329.61 181.82C358.82 180.491 362.027 168.28 362.027 168.28C342.373 145.437 309.098 138.825 309.098 138.825C309.098 138.825 306.722 137.819 300.735 142.573C296.741 145.748 297.267 146.965 297.267 146.965C297.267 146.965 296.395 167.116 302.747 169.329Z" fill="#C3E5D9"/>
<path d="M311.033 170.833C315.444 171.314 319.997 171.643 322.384 172.595C323.359 158.034 316.484 147.082 316.484 147.082C316.484 147.082 312 165.321 311.033 170.833Z" fill="#79C7C9"/>
<path d="M306.495 144.261C306.495 144.261 317.549 145.353 318.436 152.534C319.322 159.713 307.837 188.958 306.192 191.607C303.198 196.427 285.564 212.954 285.564 212.954L282.314 210.985C282.314 210.985 294.821 189.822 296.758 187.84C299.799 184.73 302.751 146.748 306.495 144.261Z" fill="#FFBD80"/>
<path d="M318.115 156.853C318.086 157.016 307.912 160.174 301.365 156.853C301.365 156.853 299.965 141.753 307.781 142.573C315.598 143.393 320.226 145.853 320.423 149.595C320.619 153.335 318.115 156.853 318.115 156.853Z" fill="#C3E5D9"/>
<path d="M286.568 210.855C286.568 210.855 282.603 207.214 280.89 207.127C279.179 207.04 274.082 207.645 273.906 208.351C273.73 209.057 279.139 210.397 279.444 210.848C279.748 211.3 283.065 214.391 284.542 213.832C286.019 213.275 286.568 210.855 286.568 210.855Z" fill="#FFB27D"/>
<path d="M611.676 133.28C611.955 133.131 612.209 132.952 612.435 132.747L612.438 132.744C612.608 132.592 612.761 132.426 612.902 132.244L613.604 131.491L613.455 131.316C615.108 127.592 612.868 120.277 607.504 113.087C601.02 104.397 592.381 99.1182 587.999 101.103L587.793 100.859L586.804 101.941C586.753 101.994 586.704 102.047 586.659 102.102L586.63 102.132L586.625 102.141C586.397 102.414 586.202 102.719 586.04 103.058L586.038 103.063C584.279 106.75 586.509 114.142 591.932 121.41C598.533 130.264 607.374 135.577 611.676 133.28Z" fill="#EAB726"/>
<path d="M608.541 111.936C615.147 120.787 617.012 129.829 612.713 132.126C608.411 134.425 599.57 129.11 592.964 120.259C586.359 111.408 584.493 102.366 588.793 100.069C593.095 97.7697 601.938 103.082 608.541 111.936Z" fill="#FFEB4D"/>
<path d="M594.104 119.74C596.873 123.345 600.161 126.374 603.364 128.27C606.642 130.211 609.468 130.739 611.32 129.756C612.266 129.256 612.897 128.409 613.199 127.24C614.091 123.782 611.923 117.972 607.671 112.437C604.903 108.832 601.615 105.802 598.411 103.906C595.134 101.965 592.307 101.437 590.455 102.42C589.51 102.921 588.878 103.768 588.577 104.936C588.419 105.545 588.358 106.229 588.386 106.969C588.512 110.436 590.6 115.182 594.104 119.74ZM612.515 127.113C612.265 128.079 611.758 128.774 611.002 129.172C609.409 130.017 606.768 129.476 603.755 127.693C600.623 125.837 597.399 122.864 594.679 119.324C591.288 114.911 589.211 110.203 589.089 106.889C589.064 106.221 589.119 105.607 589.258 105.066C589.508 104.1 590.018 103.407 590.771 103.008C592.364 102.162 595.005 102.703 598.018 104.487C601.15 106.342 604.374 109.316 607.094 112.855C610.485 117.268 612.562 121.977 612.684 125.29C612.709 125.959 612.654 126.572 612.515 127.113Z" fill="#EAB726"/>
<path d="M598.041 111.938C597.995 111.735 597.997 111.556 598.043 111.407C598.089 111.259 598.179 111.143 598.318 111.061C598.456 110.977 598.647 110.938 598.886 110.939C599.095 110.942 599.322 110.98 599.564 111.055C599.805 111.13 600.052 111.262 600.309 111.45C600.563 111.636 600.819 111.886 601.075 112.196C601.331 112.505 601.576 112.891 601.816 113.351L604.041 113.369C603.637 112.589 603.196 111.919 602.722 111.359C602.248 110.799 601.761 110.333 601.264 109.963C600.767 109.594 600.267 109.31 599.768 109.111C599.269 108.912 598.792 108.782 598.336 108.722L597.336 106.791L596.113 106.78L597.12 108.72C596.687 108.775 596.336 108.902 596.064 109.098C595.792 109.297 595.609 109.561 595.512 109.889C595.419 110.218 595.414 110.609 595.504 111.064C595.595 111.517 595.788 112.031 596.083 112.604C596.411 113.233 596.773 113.782 597.176 114.245C597.576 114.708 598.015 115.113 598.487 115.464C598.959 115.815 599.47 116.124 600.015 116.394C600.56 116.664 601.148 116.927 601.777 117.185C602.166 117.344 602.503 117.496 602.785 117.643C603.067 117.79 603.315 117.948 603.528 118.117C603.74 118.282 603.921 118.464 604.075 118.66C604.226 118.855 604.364 119.073 604.49 119.313C604.616 119.554 604.706 119.779 604.762 119.986C604.819 120.194 604.834 120.373 604.804 120.526C604.774 120.678 604.7 120.796 604.578 120.884C604.457 120.971 604.282 121.012 604.051 121.011C603.624 121.008 603.185 120.812 602.731 120.423C602.277 120.034 601.848 119.45 601.444 118.669L599.219 118.651C599.556 119.3 599.928 119.887 600.336 120.412C600.743 120.936 601.17 121.392 601.622 121.778C602.073 122.164 602.539 122.477 603.023 122.721C603.507 122.965 603.988 123.126 604.472 123.21L605.569 125.326L606.8 125.337L605.717 123.25C606.15 123.196 606.495 123.063 606.759 122.855C607.02 122.647 607.197 122.376 607.291 122.04C607.381 121.704 607.383 121.308 607.29 120.855C607.197 120.4 607.007 119.899 606.721 119.346C606.39 118.709 606.025 118.158 605.625 117.698C605.225 117.237 604.789 116.829 604.317 116.483C603.845 116.137 603.337 115.828 602.789 115.564C602.241 115.297 601.656 115.041 601.028 114.796C600.664 114.656 600.344 114.514 600.067 114.37C599.79 114.225 599.543 114.067 599.327 113.896C599.112 113.726 598.92 113.537 598.758 113.329C598.592 113.12 598.439 112.879 598.299 112.607C598.17 112.364 598.086 112.143 598.041 111.938Z" fill="#EAB726"/>
<path opacity="0.5" d="M161.567 260.701C161.567 260.701 163.473 244.377 171.655 234.634C172.742 233.34 174.824 234.164 174.789 235.87C174.788 235.899 174.788 235.927 174.787 235.957C174.68 238.869 165.519 251.152 161.567 260.701Z" fill="#69BEA0"/>
<path opacity="0.5" d="M160.655 265.408C160.655 265.408 168.866 248.13 182.89 240.489C183.746 240.024 184.904 240.192 185.478 240.91C185.852 241.378 186.018 242.107 185.6 243.247C184.482 246.285 168.84 256.515 160.655 265.408Z" fill="#69BEA0"/>
<path opacity="0.5" d="M159.695 261.59C159.695 261.59 158.149 248.348 151.511 240.444C150.63 239.394 148.941 240.063 148.969 241.447C148.97 241.47 148.97 241.493 148.971 241.517C149.057 243.88 156.489 253.844 159.695 261.59Z" fill="#69BEA0"/>
<path opacity="0.5" d="M160.436 265.409C160.436 265.409 153.775 251.392 142.397 245.194C141.703 244.816 140.764 244.953 140.299 245.535C139.995 245.915 139.86 246.506 140.199 247.431C141.107 249.896 153.796 258.194 160.436 265.409Z" fill="#69BEA0"/>
</svg>
