<?xml version="1.0" encoding="utf-8"?>
<!-- Generator: Adobe Illustrator 24.2.1, SVG Export Plug-In . SVG Version: 6.00 Build 0)  -->
<svg version="1.1" id="Capa_1" xmlns="http://www.w3.org/2000/svg" xmlns:xlink="http://www.w3.org/1999/xlink" x="0px" y="0px"
	 viewBox="0 0 264 178" style="enable-background:new 0 0 264 178;" xml:space="preserve">
<style type="text/css">
	.st0{clip-path:url(#SVGID_2_);fill:#ABD5FF;}
	.st1{fill:#6DA2E2;}
	.st2{fill:#E4F1F7;}
	.st3{fill:#FFEC66;}
	.st4{fill:#FFA600;}
	.st5{fill:#FFD766;}
	.st6{fill:#FD5C00;}
	.st7{fill:#F47458;}
	.st8{fill:#E09613;}
	.st9{fill:#0948F0;}
	.st10{fill:#002B9C;}
	.st11{fill:#F7AB08;}
	.st12{fill:#FAE0B2;}
	.st13{fill:#F7A491;}
</style>
<g>
	<defs>
		<rect id="SVGID_1_" x="38.8" y="106" width="225.2" height="72"/>
	</defs>
	<clipPath id="SVGID_2_">
		<use xlink:href="#SVGID_1_"  style="overflow:visible;"/>
	</clipPath>
	<path class="st0" d="M-31.6,323.7L279,349.6c0,0,119.1-85.9,113-135.8c-2.5-20.5-19.7-49.2-47.7-40.2c-20.7,6.6-24.8,5.6-33.6,3.8
		c0,0-10.7-4.6-9.5-7.7c7.7-19.9-9-33.8-22.4-42.5c-0.4-0.3-0.9-0.6-1.3-0.8c-21.7-13.2-42-9.6-62-1.4
		c-34.1,13.9-42.4,33.3-95.4,22.2c-53-11-87.1,41.6-84.5,70.1C39.1,257.5-23.5,242.6-31.6,323.7z"/>
</g>
<g>
	<ellipse class="st1" cx="172.1" cy="168.1" rx="89.7" ry="5.4"/>
	<g>
		<polygon class="st2" points="183.9,124.2 192.5,101.1 183.7,105.6 173.4,101.1 		"/>
		<g>
			<path class="st3" d="M142.6,143.6h-29.9c-1.2,0-2.2-0.9-2.2-2l0,0c0-1.1,1-2,2.2-2h29.9c1.2,0,2.2,0.9,2.2,2l0,0
				C144.8,142.6,143.8,143.6,142.6,143.6z"/>
			<path class="st4" d="M142.1,139.5H112c-1.1,0-2-0.9-2-2l0,0c0-1.1,0.9-2,2-2h30.1c1.1,0,2,0.9,2,2l0,0
				C144.2,138.6,143.2,139.5,142.1,139.5z"/>
			<path class="st3" d="M145.5,135.4h-29.9c-1.2,0-2.2-0.9-2.2-2l0,0c0-1.1,1-2,2.2-2h29.9c1.2,0,2.2,0.9,2.2,2l0,0
				C147.7,134.5,146.7,135.4,145.5,135.4z"/>
		</g>
		<g>
			<path class="st3" d="M135.3,168.1h-28.1c-1.1,0-2-0.9-2-2l0,0c0-1.1,0.9-2,2-2h28.1c1.1,0,2,0.9,2,2l0,0
				C137.3,167.1,136.4,168.1,135.3,168.1z"/>
			<path class="st4" d="M134.7,164h-28.1c-1.1,0-2-0.9-2-2l0,0c0-1.1,0.9-2,2-2h28.1c1.1,0,2,0.9,2,2l0,0
				C136.7,163.1,135.8,164,134.7,164z"/>
			<path class="st5" d="M138,159.9h-28.1c-1.1,0-2-0.9-2-2l0,0c0-1.1,0.9-2,2-2H138c1.1,0,2,0.9,2,2l0,0
				C140,159,139.1,159.9,138,159.9z"/>
			<path class="st3" d="M134.6,155.8h-28.1c-1.1,0-2-0.9-2-2l0,0c0-1.1,0.9-2,2-2h28.1c1.1,0,2,0.9,2,2l0,0
				C136.6,154.9,135.7,155.8,134.6,155.8z"/>
			<path class="st4" d="M134,151.7h-28.1c-1.1,0-2-0.9-2-2l0,0c0-1.1,0.9-2,2-2H134c1.1,0,2,0.9,2,2l0,0
				C136,150.8,135.1,151.7,134,151.7z"/>
			<path class="st5" d="M137.3,147.6h-28.1c-1.1,0-2-0.9-2-2l0,0c0-1.1,0.9-2,2-2h28.1c1.1,0,2,0.9,2,2l0,0
				C139.3,146.7,138.4,147.6,137.3,147.6z"/>
		</g>
		<g>
			<path class="st4" d="M191.2,78.6c3.7,5.2,2.4,12.4-2.8,16.1c-5.2,3.7-12.4,2.4-16.1-2.8c-3.7-5.2-2.4-12.4,2.8-16.1
				C180.4,72.1,187.6,73.4,191.2,78.6z"/>
			<path class="st3" d="M189.7,79.7c3.1,4.4,2,10.4-2.4,13.5s-10.4,2-13.5-2.4s-2-10.4,2.4-13.5C180.6,74.2,186.6,75.3,189.7,79.7z"
				/>
			<g>
				<path class="st4" d="M182.9,92l-0.4-1.6c-0.7,0.2-1.4,0.2-2,0.2c-0.5,0-0.9-0.5-0.9-1v-0.1c0-0.6,0.5-1,1.1-1
					c0.6,0,1.2,0,1.9-0.2c0.9-0.2,1.5-0.8,1.3-1.5c-0.2-0.6-0.8-0.9-2.1-1c-1.9-0.1-3.3-0.6-3.8-2.2c-0.4-1.5,0.3-2.9,2-3.7
					l-0.4-1.6l1.6-0.4l0.4,1.5c0.6-0.1,1.1-0.2,1.6-0.2c0.5,0,1,0.4,1,1l0,0c0,0.6-0.4,1-1,1c-0.4,0-0.9,0-1.5,0.2
					c-1.1,0.3-1.3,0.8-1.1,1.3c0.2,0.5,0.8,0.7,2.4,0.9c2.1,0.2,3.2,0.8,3.6,2.3c0.4,1.5-0.3,3-2.1,3.8l0.5,1.7L182.9,92z"/>
			</g>
		</g>
		<g>
			<path class="st6" d="M185.6,122.5l-28.3,3.9c-1.1,0.2-2.2-0.7-2.4-1.8l0,0c-0.2-1.1,0.7-2.2,1.8-2.4l28.3-3.9
				c1.1-0.2,2.2,0.7,2.4,1.8l0,0C187.5,121.2,186.8,122.3,185.6,122.5z"/>
			<g>
				<path class="st6" d="M200.7,127.1l-28.6-0.7c-1.1,0-2-1-2-2.1l0,0c0-1.1,1-2,2.1-2l28.6,0.7c1.1,0,2,1,2,2.1l0,0
					C202.8,126.3,201.8,127.2,200.7,127.1z"/>
				<path class="st7" d="M200.7,127.2C200.7,127.2,200.7,127.2,200.7,127.2l-28.7-0.7c-1.2,0-2.1-1-2.1-2.2c0-1.1,1-2.1,2.1-2.1
					c0,0,0,0,0.1,0l28.6,0.7c1.2,0,2.1,1,2.1,2.2C202.8,126.3,201.9,127.2,200.7,127.2z M172.1,122.4c-1.1,0-2,0.9-2,2
					c0,1.1,0.9,2,2,2.1l28.6,0.7c0,0,0,0,0,0c1.1,0,2-0.9,2-2c0-1.1-0.9-2-2-2.1L172.1,122.4C172.1,122.4,172.1,122.4,172.1,122.4z"
					/>
			</g>
			<path class="st8" d="M182.5,132.8l-26.7-10.3c-1.1-0.4-1.6-1.6-1.2-2.7l0,0c0.4-1.1,1.6-1.6,2.7-1.2l26.7,10.3
				c1.1,0.4,1.6,1.6,1.2,2.7l0,0C184.7,132.6,183.5,133.2,182.5,132.8z"/>
			<path class="st4" d="M196.5,134.1l-26.7-10.3c-1.1-0.4-1.6-1.6-1.2-2.7l0,0c0.4-1.1,1.6-1.6,2.7-1.2l26.7,10.3
				c1.1,0.4,1.6,1.6,1.2,2.7l0,0C198.7,133.9,197.5,134.5,196.5,134.1z"/>
			<g>
				<path class="st9" d="M219.1,168.1c2.2-3.8,3.6-9.8,3.4-13c-0.5-7.3-13.3-18.8-13.4-26.1c-0.1-3,5.1-10.8,5.1-10.8l-37.4,13.4
					l-37.2-13.4c0,0,5.1,7.8,5.1,10.8c-0.1,7.3-12.9,18.9-13.4,26.1c-0.2,3.2,1.2,9.2,3.4,13H219.1z"/>
				<g>
					<path class="st6" d="M176.8,131.6l-37.2-13.4c0,0,1.7,2.6,3.2,5.4L176.8,131.6z"/>
					<path class="st10" d="M222.5,155.1c-0.5-7.3-13.3-18.8-13.4-26.1c-0.1-3,5.1-10.8,5.1-10.8l-15.1,5.4c-1.1,2-2,4.2-1.9,5.4
						c0.1,7.3,12.9,18.9,13.4,26.1c0.2,3.2-1.2,9.2-3.4,13h11.9C221.3,164.3,222.8,158.3,222.5,155.1z"/>
				</g>
				<g>
					<g>
						<g>
							<path class="st3" d="M176.8,133.6l-40.9-14.9c-0.9-0.3-1.3-1.3-1-2.1s1.3-1.3,2.1-1l39.8,14.5l41-15c0.9-0.3,1.8,0.1,2.1,1
								s-0.1,1.8-1,2.1L176.8,133.6z"/>
						</g>
					</g>
					<path class="st3" d="M181.8,132.2c0,2.7-2.2,4.9-4.9,4.9s-4.9-2.2-4.9-4.9s2.2-4.9,4.9-4.9
						C179.6,127.4,181.8,129.5,181.8,132.2z"/>
					<path class="st8" d="M178.9,132.2c0,1.1-0.9,2-2,2c-1.1,0-2-0.9-2-2c0-1.1,0.9-2,2-2S178.9,131.1,178.9,132.2z"/>
					<g>
						<path class="st4" d="M132.7,120l-0.4-0.7c0.1-0.1,3.3-1.9,5.2-1.9v0.8C135.8,118.1,132.7,119.9,132.7,120z"/>
					</g>
					<g>
						<path class="st11" d="M222.6,120.1c0,0-3.2-2.8-5.1-2.8v-0.8c2.3,0,5.6,2.9,5.7,3L222.6,120.1z"/>
					</g>
					<path class="st12" d="M225.1,120.1c0,1.4-1.1,2.5-2.5,2.5c-1.4,0-2.5-1.1-2.5-2.5s1.1-2.5,2.5-2.5
						C224,117.6,225.1,118.7,225.1,120.1z"/>
					<path class="st4" d="M134.8,120.1c0,1.4-1.1,2.5-2.5,2.5c-1.4,0-2.5-1.1-2.5-2.5s1.1-2.5,2.5-2.5
						C133.7,117.6,134.8,118.7,134.8,120.1z"/>
				</g>
			</g>
		</g>
		<g>
			<g>
				<g>
					<path class="st4" d="M221.2,48.8c3.6,5.1,2.4,12.1-2.8,15.7c-5.1,3.6-12.1,2.4-15.7-2.8c-3.6-5.1-2.4-12.1,2.8-15.7
						C210.6,42.5,217.6,43.7,221.2,48.8z"/>
					<path class="st3" d="M219.7,49.8c3,4.3,2,10.2-2.3,13.2c-4.3,3-10.2,2-13.2-2.3c-3-4.3-2-10.2,2.3-13.2
						C210.8,44.5,216.7,45.6,219.7,49.8z"/>
					<g>
						<path class="st4" d="M213.1,61.9l-0.4-1.5c-0.7,0.2-1.4,0.2-2,0.2c-0.5,0-0.9-0.4-0.9-1v-0.1c0-0.6,0.5-1,1-1
							c0.6,0,1.2,0,1.8-0.2c0.9-0.2,1.5-0.8,1.3-1.4c-0.2-0.6-0.8-0.9-2.1-0.9c-1.9-0.1-3.3-0.6-3.7-2.2c-0.4-1.4,0.3-2.8,2-3.6
							l-0.4-1.5l1.6-0.4l0.4,1.4c0.6-0.1,1.1-0.2,1.5-0.2c0.5,0,1,0.4,1,1l0,0c0,0.6-0.4,1-1,1c-0.4,0-0.9,0-1.5,0.2
							c-1.1,0.3-1.3,0.8-1.1,1.3c0.2,0.5,0.8,0.7,2.3,0.9c2.1,0.2,3.1,0.8,3.5,2.3c0.4,1.4-0.3,2.9-2,3.8l0.4,1.6L213.1,61.9z"/>
					</g>
				</g>
			</g>
			<path class="st13" d="M213.9,66.6l1.4-1.2c0,0-0.7-0.8-0.4-0.9c0.4-0.2,1.2,0.7,1.1,0.9s-0.9,1-0.9,1L213.9,66.6z"/>
		</g>
	</g>
</g>
</svg>
