<svg width="555" height="342" viewBox="0 0 555 342" fill="none" xmlns="http://www.w3.org/2000/svg">
<path d="M500.67 292.714C500.925 301.024 501.884 309.205 502.523 317.514C502.651 319.176 503.61 319.624 504.888 319.943C509.171 321.158 513.389 322.628 517.416 324.545C518.886 325.248 520.293 326.016 521.379 327.166C523.488 329.339 522.977 330.873 519.909 331.704C518.183 331.576 516.457 331.512 514.732 331.768C507.829 331.832 500.989 330.426 494.214 329.339C491.018 328.828 489.932 326.271 492.296 324.034C495.94 320.455 494.598 317.131 493.127 313.488C491.785 310.164 491.018 306.584 489.292 303.389C486.863 300.64 486.416 297.061 485.266 293.801C478.938 276.351 472.674 258.838 466.474 241.324C465.77 239.343 464.236 237.361 465.515 234.996C468.263 234.613 471.012 235.38 473.632 235.763C478.171 236.466 482.453 235.635 486.8 234.741C491.018 233.91 493.639 231.289 494.981 227.262C495.812 237.617 496.707 247.972 497.538 258.326C498.688 269.896 499.647 281.273 500.67 292.714Z" fill="#EC1B24"/>
<path d="M495.109 227.326C494.853 231.864 493.447 233.654 488.781 235.188C481.047 237.745 473.377 241.26 465.579 239.087C462.511 236.53 461.935 229.052 461.744 225.409C466.026 224.258 470.5 224.386 474.911 223.683C480.599 222.788 486.16 221.446 491.466 219.4C492.552 218.953 493.575 218.442 494.789 218.506C494.917 221.446 494.981 224.386 495.109 227.326Z" fill="#D21821"/>
<path d="M497.985 119.752C497.602 120.839 497.218 121.862 496.835 122.948C495.748 124.482 496.643 125.761 497.41 127.039C499.072 129.851 501.309 132.28 502.715 135.284C511.024 148.196 519.206 161.235 527.387 174.21C528.538 176 529.816 177.023 529.305 177.982C528.794 179.004 529.177 178.621 528.41 179.707C527.899 180.474 526.94 181.753 526.237 183.159C520.868 193.833 515.563 204.572 510.194 215.31C509.938 215.885 509.746 216.524 509.554 217.099C508.979 218.57 508.148 219.912 507.509 221.318C507.125 222.149 506.486 222.341 505.847 221.446C503.482 216.524 500.542 215.821 496.259 218.953C490.762 222.98 490.443 228.541 495.428 234.357C500.286 239.982 503.226 240.493 509.81 236.786C512.047 235.508 514.156 233.91 515.627 231.928C520.229 225.728 526.045 220.743 531.286 215.182C539.021 206.936 545.988 198.116 550.462 187.569C550.654 187.186 550.973 186.866 551.229 186.547C554.361 178.685 554.489 171.015 551.037 163.089C545.924 151.072 540.682 139.375 535.697 127.359C535.313 126.4 534.482 125.058 533.843 124.227C528.794 118.73 524.447 113.488 517.672 110.165C510.769 106.777 503.866 108.886 500.094 115.662C499.327 116.94 498.56 118.282 497.985 119.752Z" fill="#FCBF7D"/>
<path d="M514.54 108.439C520.804 111.187 522.274 111.826 527.26 117.132C527.324 117.196 527.387 117.259 527.387 117.323C528.985 118.857 532.245 121.925 533.268 123.523C533.332 123.587 533.396 123.715 533.396 123.779C534.227 127.358 525.278 133.814 523.616 137.266C523.297 138.033 522.913 138.736 522.53 139.439C519.653 144.169 518.055 148.132 514.54 151.583C513.645 145.959 512.814 140.334 511.728 134.773C510.257 127.167 508.084 119.816 505.208 112.593C504.952 111.89 504.377 111.187 504.441 110.42C504.505 109.973 504.952 109.781 505.336 109.525C506.614 108.95 511.791 107.608 514.54 108.439Z" fill="#D1153A"/>
<path d="M222.115 173.827C218.472 173.124 216.043 174.977 213.486 177.342C203.579 186.611 194.311 196.454 186.641 207.703C175.263 224.386 159.22 233.398 139.853 237.234C115.756 242.027 92.3615 238.32 69.4789 230.394C44.1034 221.638 21.796 207.703 1.91754 189.679C1.47011 189.231 0.894852 188.975 0 188.336C1.85362 187.314 3.1959 187.825 4.47426 187.953C20.7094 189.103 36.3693 186.93 51.0705 179.643C66.9221 171.782 77.4686 159.126 83.6048 142.699C87.4398 132.408 91.5945 122.309 97.2832 112.849C107.382 96.1665 122.147 87.0263 141.451 85.0448C145.158 84.6613 148.865 84.086 152.508 83.5108C164.078 81.6571 169.447 76.2241 171.236 64.6549C171.939 60.3724 171.556 56.1539 170.405 51.9992C167.273 41.0053 159.667 37.5537 149.376 42.3476C148.737 42.4754 148.545 42.2197 148.737 41.6445C161.649 29.4361 176.414 20.4876 194.119 17.1639C207.67 14.6072 220.837 16.0773 233.492 21.5103C251.39 29.1805 269.99 34.23 289.037 37.7455C290.571 38.0011 292.169 38.3846 293.767 37.8733C303.291 38.7682 312.687 40.7496 322.275 41.3888C334.611 42.2197 346.883 43.3703 359.219 43.1785C361.009 43.1785 362.863 42.9867 364.588 43.562C366.442 44.6486 365.227 45.9909 364.716 47.1414C363.182 50.4012 361.904 53.725 360.945 57.2405C360.114 60.3724 360.434 63.3127 361.904 66.189C364.716 71.8777 367.592 77.5664 370.469 83.2551C373.984 91.7562 375.902 100.449 373.409 109.589C372.45 113.233 370.98 116.62 368.807 119.624C366.506 123.14 364.077 126.591 360.881 129.34C359.794 130.299 358.58 131.577 357.238 129.596C356.854 128.637 356.854 127.614 356.79 126.591C356.982 124.994 356.471 123.46 356.087 121.862C354.745 115.853 350.91 112.657 344.965 111.507C339.532 110.484 334.163 110.548 328.794 111.635C321.38 112.53 314.732 115.853 308.149 118.985C285.458 129.787 263.15 141.229 242.377 155.546C235.474 160.34 228.635 165.262 222.307 170.823C221.476 171.59 220.645 172.357 219.494 172.74C220.581 172.74 221.923 171.973 222.115 173.827Z" fill="#EC1941"/>
<path d="M367.848 119.624C374.368 109.398 375.199 98.6593 371.108 87.3458C370.597 85.9396 370.149 84.5334 369.702 83.1272C369.19 81.7849 369.318 80.4427 369.638 79.1004C375.135 55.8982 386.065 35.8279 404.09 20.0401C412.782 12.4339 422.626 6.48953 433.748 3.03796C435.218 2.59053 436.943 3.22971 438.094 1.88743C462.319 -2.65075 485.01 0.736909 505.655 14.8628C522.338 26.3041 534.355 41.5805 542.92 59.7332C542.28 58.6466 544.006 61.5229 545.157 64.0157C550.206 74.9457 553.019 85.62 554.617 97.5088C554.936 100.002 554.68 101.983 555 105.115C555 106.393 554.808 107.16 554.872 108.247C556.087 143.338 546.627 174.658 521.443 200.161C514.604 207.128 506.614 212.561 497.793 216.716C496.771 217.227 495.62 217.547 494.853 218.506C490.059 221.638 484.498 222.724 479.065 223.875C473.377 225.089 467.496 225.217 461.744 226.304C459.954 226.559 455.608 227.135 450.302 227.326C450.366 226.176 456.438 224.961 458.164 224.833C444.933 224.706 432.789 220.615 421.667 213.84C390.028 194.6 373.601 165.39 367.72 129.596C367.209 126.272 365.867 122.884 367.848 119.624Z" fill="#FCB921"/>
<path d="M327.196 125.121C320.229 139.822 338.062 154.651 321.763 166.348C322.53 171.206 331.543 178.301 297.538 177.278C295.749 177.214 295.94 177.662 289.229 177.662C267.753 177.662 246.276 176.256 224.864 174.338C223.905 174.274 223.01 174.019 222.051 173.827C221.22 172.612 219.814 173.507 218.664 172.868C228.954 163.664 240.012 155.866 251.517 148.451C263.214 140.973 275.295 134.07 287.759 127.934C299.903 121.989 322.466 109.397 337.807 110.165C338.829 109.909 335.186 114.703 332.693 115.534C332.182 119.305 329.625 121.031 327.644 123.843C327.26 124.61 327.772 124.482 327.196 125.121Z" fill="#D1143A"/>
<path d="M384.403 311.059C382.677 316.172 380.951 321.286 379.098 326.335C378.458 328.061 379.673 328.572 380.568 329.403C383.572 332.216 383.444 333.686 379.993 335.795C373.345 339.758 365.994 341.164 358.388 341.867C357.877 341.931 357.302 341.931 356.79 341.803C354.745 341.356 352.252 341.036 351.805 338.544C351.357 336.243 353.722 335.476 355.32 334.581C359.667 332.088 364.46 330.618 369.318 329.339C371.3 328.828 372.067 327.869 372.195 325.824C372.578 320.966 373.153 316.108 373.665 311.251C375.135 299.554 376.605 287.857 378.011 276.16C380.248 257.24 382.421 238.384 384.659 219.464C384.722 218.953 384.978 218.442 385.106 217.93C387.151 218.378 387.727 220.487 389.197 221.638C394.374 225.409 400.191 226.879 406.391 227.262C407.861 227.326 409.395 227.007 410.673 227.965C411.632 229.691 410.737 231.289 410.354 232.887C408.628 239.598 406.327 246.118 404.154 252.638C398.273 270.854 392.265 289.007 386.256 307.16C385.937 308.566 385.745 310.164 384.403 311.059Z" fill="#EC1B24"/>
<path d="M348.673 139.822C350.718 137.138 353.594 135.348 355.895 132.983C356.79 132.088 357.621 131.194 357.813 129.915C359.219 130.618 359.603 129.212 360.306 128.573C363.246 126.016 365.483 122.756 367.784 119.624C367.145 126.719 369.063 133.431 370.533 140.206C374.368 157.272 381.399 173.06 392.265 186.802C406.391 204.699 423.904 217.739 446.595 222.724C450.686 223.619 454.841 224.514 459.315 224.322C458.036 225.409 459.123 224.514 457.973 225.473C457.717 225.664 457.461 225.856 457.205 225.984C455.288 226.815 453.37 226.815 452.028 227.007C440.395 228.541 429.018 227.071 417.832 223.683C416.426 223.235 414.956 222.916 413.613 222.277C412.719 221.765 412.655 220.871 412.91 220.04C415.084 213.712 411.568 209.493 407.477 205.594C404.473 202.718 400.766 200.8 396.931 199.202C391.626 197.029 389.389 197.988 387.279 203.229C387.087 203.74 386.832 204.188 386.32 204.508C374.048 194.217 365.1 181.369 358.197 167.052C357.557 165.773 357.43 164.111 355.959 163.344C352.316 155.866 349.823 148.068 348.673 139.822Z" fill="#D89116"/>
<path d="M365.1 44.1372C360.753 44.1372 356.343 44.2651 351.996 44.1372C340.044 43.7537 328.155 42.9228 316.202 41.7723C309.363 41.1331 302.652 39.599 295.813 39.0877C294.854 39.0238 294.151 38.7042 293.703 37.8733C324.256 21.1907 356.918 13.904 391.626 16.205C392.009 17.2277 391.306 17.803 390.603 18.3143C381.207 24.9618 373.601 33.3351 366.953 42.6671C366.57 43.2424 366.122 44.0094 365.1 44.1372Z" fill="#D1143A"/>
<path d="M365.1 44.1372C371.939 33.9104 380.056 24.8979 390.092 17.6752C390.667 17.2917 391.114 16.6525 391.626 16.1412C397.25 13.2649 402.62 9.8772 408.564 7.57615C418.088 3.93283 427.931 2.20704 438.03 1.88745C438.03 2.59055 437.774 2.91014 436.752 3.16581C431.894 4.31634 427.228 6.04212 422.754 8.34317C405.496 17.2917 392.457 30.5227 382.805 47.2692C376.797 57.6239 372.77 68.7457 370.085 80.3788C369.894 81.2736 369.766 82.2324 369.574 83.1911C366.506 77.2468 363.438 71.3024 360.498 65.2941C358.388 60.9477 359.922 56.7291 361.328 52.6383C362.415 49.6981 363.885 46.9496 365.1 44.1372Z" fill="#D89116"/>
<path d="M348.673 139.823C350.59 145.895 352.508 151.903 354.361 157.975C354.873 159.765 356.599 161.171 355.959 163.344C344.262 171.845 330.904 175.489 316.65 176.511C315.563 176 313.837 177.215 313.198 175.105C312.559 173.124 313.71 172.229 314.924 171.142C325.279 161.555 335.57 151.967 345.86 142.315C346.755 141.484 347.778 140.653 348.673 139.823Z" fill="#D1143A"/>
<path d="M386.32 204.507C386.96 196.07 391.753 196.198 397.57 198.627C402.747 200.8 407.541 203.677 411.121 208.279C414.317 212.369 415.595 216.588 413.23 221.51C412.207 225.153 412.399 230.714 409.906 232.248C402.3 232.44 395.78 227.326 389.389 222.724C387.535 221.382 386.065 219.912 385.106 217.93C385.553 213.456 385.937 208.982 386.32 204.507Z" fill="#D21821"/>
<path d="M148.673 41.5804C148.865 41.8361 149.121 42.0279 149.312 42.2835C148.865 43.1145 148.226 43.498 147.075 43.4341C147.139 42.3475 147.842 41.9 148.673 41.5804Z" fill="#F593A6"/>
<path d="M218.919 135.476C210.738 140.973 202.492 146.406 194.375 151.903C182.038 160.212 170.405 169.481 160.306 180.41C155.512 185.588 151.869 191.532 148.545 197.732C146.436 201.631 144.519 205.658 142.345 209.621C137.488 218.57 130.521 223.619 120.166 225.089C100.223 227.965 81.1758 224.961 62.5117 217.994C51.8374 213.967 41.9302 208.407 32.4064 202.207C28.8909 199.905 25.6311 197.157 22.2434 194.6C23.0104 193.13 24.2249 193.705 25.1836 193.705C42.6333 193.194 58.9323 189.295 73.25 178.749C79.3861 174.21 84.3717 168.65 88.4624 162.322C89.613 160.532 90.2522 160.148 92.0419 161.619C96.7079 165.454 102.333 167.116 108.213 167.435C124.193 168.266 139.469 164.942 154.682 160.148C176.414 153.309 197.251 144.297 217.641 134.262C218.28 133.814 218.983 133.686 219.494 134.39C219.878 134.773 219.367 135.22 218.919 135.476Z" fill="#D6153A"/>
<path d="M290.124 79.8035C251.773 80.187 213.486 79.2283 175.711 87.9211C180.377 82.4881 184.467 76.9272 185.937 69.8323C187.408 62.6735 185.682 56.2178 181.655 50.0817C187.28 53.7889 192.713 57.4962 198.785 60.1807C211.313 65.6137 224.16 68.0426 237.839 65.4859C243.592 64.3993 249.536 64.7828 255.48 65.6137C267.433 67.2117 278.043 71.9416 288.27 77.886C288.718 78.1417 289.165 78.4613 289.549 78.7809C289.804 78.9087 289.868 79.2283 290.124 79.8035Z" fill="#D6153A"/>
<path d="M218.919 135.476C219.622 133.942 218.472 134.262 217.641 134.198C222.115 131.897 226.589 129.596 231 127.359C227.484 130.746 223.266 133.239 218.919 135.476Z" fill="#DE173D"/>
<path d="M514.796 331.768C516.521 330.618 518.247 330.682 519.973 331.704C518.247 332.216 516.521 332.152 514.796 331.768Z" fill="#EC0A14"/>
<path d="M393.415 161.043C391.626 158.934 391.114 156.313 390.092 153.884C383.124 137.394 380.376 120.136 381.399 102.303C381.91 92.4593 383.955 82.8077 387.087 73.4756C389.836 67.6591 392.009 61.523 395.461 56.0899C398.72 50.0816 402.939 44.8404 407.541 39.9187C409.139 37.9372 410.865 36.0197 412.974 34.6135C414.189 34.23 414.956 33.2712 415.723 32.3764C425.183 25.5371 435.537 20.7433 447.17 19.0175C465.834 16.2051 482.9 20.6154 498.305 31.2898C517.544 44.6486 529.049 63.3127 535.058 85.6201C541.258 108.631 540.427 131.385 531.734 153.565C523.233 175.233 509.171 191.98 487.311 201.248C480.599 204.124 473.568 205.402 466.282 206.042C446.275 207.703 429.529 200.225 414.253 188.208C413.741 187.825 413.358 187.314 412.91 186.802C409.395 183.479 406.135 179.899 403.259 175.936C399.36 171.398 396.547 166.093 393.415 161.043Z" fill="#FCAF16"/>
<path d="M413.23 35.1887C411.248 36.6588 409.587 38.3207 408.116 40.3021C407.349 40.7496 406.838 40.7496 406.838 39.663C417.96 27.3268 431.255 18.9535 447.873 15.9494C466.41 12.5617 483.348 16.4607 498.944 26.368C511.344 34.2938 520.996 45.0321 528.474 57.8157C535.697 70.1518 540.171 83.5107 542.216 97.5088C545.476 119.624 542.728 140.909 533.332 161.363C525.47 178.429 513.901 192.171 497.282 201.248C484.562 208.215 471.012 210.835 456.438 209.11C442.376 207.448 430.168 201.759 419.174 193.258C416.618 191.276 413.741 189.487 411.952 186.61C411.952 185.524 412.463 185.524 413.23 185.971C417.001 190.126 421.731 192.938 426.461 195.687C435.921 201.12 446.02 204.635 457.142 205.275C473.185 206.169 487.63 202.079 500.734 192.811C520.548 178.876 530.711 159.126 536.016 136.179C538.381 125.761 538.509 115.214 537.678 104.795C536.336 88.1767 531.286 72.5168 522.338 58.1353C513.645 44.2011 502.459 33.0155 487.567 26.0484C464.109 15.1184 441.354 16.5246 419.622 30.9701C418.407 31.801 417.065 32.5041 415.851 33.2712C414.892 33.7825 414.125 34.5495 413.23 35.1887Z" fill="#E99C19"/>
<path d="M406.838 39.5991C407.094 40.1105 407.605 40.2383 408.116 40.2383C403.642 45.2239 399.104 50.2095 395.972 56.2178C395.397 56.4096 395.141 56.1539 395.333 55.5786C398.145 49.5703 402.236 44.393 406.838 39.5991Z" fill="#ECA019"/>
<path d="M395.333 55.5786C395.525 55.7704 395.78 56.026 395.972 56.2178C393.224 61.523 390.092 66.7003 388.11 72.3891C387.982 72.8365 387.407 73.0921 387.024 73.4757C389.197 67.2756 391.178 60.9477 395.333 55.5786Z" fill="#F4AB1A"/>
<path d="M393.415 161.043C393.991 161.618 394.885 162.066 395.205 162.769C397.378 167.499 400.958 171.334 403.642 175.744C403.578 176.128 403.387 176.32 403.003 176.384C398.657 171.973 395.908 166.604 393.415 161.043Z" fill="#F3A91A"/>
<path d="M403.003 176.384C403.195 176.192 403.45 175.936 403.642 175.744C406.838 179.196 409.523 183.031 413.23 185.971C412.719 185.971 412.207 186.099 411.952 186.61C408.372 183.734 405.368 180.346 403.003 176.384Z" fill="#EDA219"/>
<path d="M443.271 53.661C443.271 53.4693 443.271 53.2136 443.271 53.0218C444.358 51.9991 445.636 51.296 447.17 51.1682C446.148 52.4466 444.869 53.3414 443.271 53.661Z" fill="#F2AA26"/>
<path d="M413.23 35.1888C413.805 34.1661 414.508 33.3352 415.787 33.2712C415.211 34.2939 414.508 35.1249 413.23 35.1888Z" fill="#ECA019"/>
<path d="M355.256 114.319C355.959 114.958 356.599 115.598 357.302 116.237C357.429 116.365 357.941 116.812 358.069 117.004C358.964 118.985 358.964 118.985 358.9 120.327C358.708 123.204 358.005 126.016 357.877 128.956C357.813 130.107 357.749 131.321 357.621 132.472C356.151 146.981 354.809 161.491 353.403 175.936C353.275 177.47 353.339 178.365 353.978 178.685C355.128 179.324 356.023 180.41 356.662 181.561C356.982 182.2 357.685 182.775 358.516 183.415C368.168 190.509 377.755 197.732 387.343 204.891C387.854 205.275 388.302 205.786 388.749 206.233C389.9 207.256 391.242 208.087 392.52 209.046C393.287 209.621 393.927 209.557 394.054 208.406C393.991 202.973 396.228 200.992 401.469 201.823C408.244 202.91 410.993 207.767 409.139 215.182C407.349 222.405 404.921 224.194 397.442 223.811C394.885 223.683 392.265 223.235 390.028 222.085C383.125 218.633 375.646 216.78 368.487 214.159C357.813 210.26 347.714 205.53 338.893 198.244C338.765 198.116 338.638 198.052 338.446 197.988C337.871 197.732 337.295 197.285 336.784 196.837C331.031 191.404 327.772 184.885 327.26 176.639C326.429 163.6 325.087 150.625 324 137.649C323.936 136.563 323.873 135.732 324.064 134.453C326.046 127.295 328.539 120.327 333.077 114.319C337.743 108.183 344.838 106.969 351.229 111.251C352.444 112.082 353.658 112.913 354.809 113.872C355.001 114.127 355.128 114.255 355.256 114.319Z" fill="#FCBF7D"/>
<path d="M496.387 64.2074C494.406 76.9271 490.379 90.4138 481.622 101.791C478.362 106.074 478.171 104.604 481.558 109.142C489.804 120.136 497.921 131.193 506.103 142.251C509.49 146.853 511.152 151.839 509.107 157.783C505.464 168.266 494.47 168.905 488.909 160.851C482.261 151.328 475.55 141.868 468.902 132.344C463.278 124.226 457.653 116.045 452.092 107.799C450.941 106.138 450.814 104.987 452.859 103.453C458.42 99.2984 462.447 93.4179 465.707 86.7705C469.733 78.3972 471.651 69.3208 472.418 60.0527C473.057 51.9352 479.832 46.1825 486.033 47.0135C492.36 47.8444 496.962 54.428 496.387 64.2074Z" fill="#E99C19"/>
<path d="M420.133 69.257C420.58 62.9292 423.073 58.6466 427.867 56.2817C432.469 53.9806 436.816 54.9394 440.587 58.391C444.23 61.7147 445.061 66.5725 445.636 71.622C447.426 88.752 449.344 105.818 451.325 122.948C452.667 134.517 454.201 146.086 455.416 157.72C456.566 168.841 448.832 177.278 439.564 174.594C434.706 173.188 430.935 168.266 430.168 160.915C429.082 149.602 427.548 138.352 426.269 127.039C425.183 117.707 424.288 108.375 423.265 98.9789C422.242 89.7747 421.22 80.5066 420.197 71.3024C420.133 70.4715 420.133 69.6405 420.133 69.257Z" fill="#E99C19"/>
</svg>