<?xml version="1.0" encoding="utf-8"?>
<!-- Generator: Adobe Illustrator 24.2.1, SVG Export Plug-In . SVG Version: 6.00 Build 0)  -->
<svg version="1.1" id="Capa_1" xmlns="http://www.w3.org/2000/svg" xmlns:xlink="http://www.w3.org/1999/xlink" x="0px" y="0px"
	 viewBox="0 0 754 292" style="enable-background:new 0 0 754 292;" xml:space="preserve">
<style type="text/css">
	.st0{fill:#FFFFFF;filter:url(#Adobe_OpacityMaskFilter);}
	.st1{mask:url(#mask0_2_);}
	.st2{fill:#97CBFF;}
	.st3{fill:#6DA2E2;}
	.st4{fill:#E4F1F7;}
	.st5{fill:#FFEC66;}
	.st6{fill:#FFA600;}
	.st7{fill:#FFD766;}
	.st8{fill:#FD5C00;}
	.st9{fill:#F47458;}
	.st10{fill:#E09613;}
	.st11{fill:#0948F0;}
	.st12{fill:#002B9C;}
	.st13{fill:#F7AB08;}
	.st14{fill:#FAE0B2;}
	.st15{fill:#FFC5E6;}
	.st16{fill:#02235E;}
	.st17{fill:#FF5C53;}
	.st18{fill:#F7A491;}
</style>
<defs>
	<filter id="Adobe_OpacityMaskFilter" filterUnits="userSpaceOnUse" x="71.1" y="62.1" width="830.3" height="505.5">
		<feColorMatrix  type="matrix" values="1 0 0 0 0  0 1 0 0 0  0 0 1 0 0  0 0 0 1 0"/>
	</filter>
</defs>
<mask maskUnits="userSpaceOnUse" x="71.1" y="62.1" width="830.3" height="505.5" id="mask0_2_">
	<path class="st0" d="M30,11h714c11,0,20,9,20,20v251c0,11-9,20-20,20H30c-11,0-20-9-20-20V31C10,20,19,11,30,11z"/>
</mask>
<g class="st1">
	<path class="st2" d="M142.8,567.7l703.9-193.2c0,0,111.6-208.4,16.1-274C823.7,73.6,739.6,46,694.7,79.3
		c-33.1,24.6-43.4,26.2-65.4,30.1c0,0-30.4,1.4-33-3.8c-16.6-33.6-74.9-40.8-118-43.1c-1.4-0.1-2.8-0.1-4.2-0.2
		C406,59.8,369,79.9,339.8,106.2c-49.7,44.6-35.3,78-166.4,101.7C42.2,231.6,56.6,330.6,109.2,368.6
		C183.8,422.5,25.9,447.8,142.8,567.7z"/>
</g>
<g>
	<ellipse class="st3" cx="523.2" cy="264.8" rx="179.9" ry="10.9"/>
	<g>
		<polygon class="st4" points="546.9,176.8 564.1,130.4 546.5,139.6 525.7,130.4 		"/>
		<g>
			<path class="st5" d="M464,215.7H404c-2.4,0-4.4-1.8-4.4-4.1l0,0c0-2.2,1.9-4.1,4.4-4.1H464c2.4,0,4.4,1.8,4.4,4.1l0,0
				C468.3,213.8,466.4,215.7,464,215.7z"/>
			<path class="st6" d="M463,207.4h-60.4c-2.2,0-4.1-1.8-4.1-4.1l0,0c0-2.2,1.8-4.1,4.1-4.1H463c2.2,0,4.1,1.8,4.1,4.1l0,0
				C467.1,205.6,465.3,207.4,463,207.4z"/>
			<path class="st5" d="M469.8,199.2h-59.9c-2.4,0-4.4-1.8-4.4-4.1l0,0c0-2.2,1.9-4.1,4.4-4.1h59.9c2.4,0,4.4,1.8,4.4,4.1l0,0
				C474.2,197.4,472.2,199.2,469.8,199.2z"/>
		</g>
		<g>
			<path class="st5" d="M449.3,264.8h-56.4c-2.2,0-4.1-1.8-4.1-4.1l0,0c0-2.2,1.8-4.1,4.1-4.1h56.4c2.2,0,4.1,1.8,4.1,4.1l0,0
				C453.3,262.9,451.5,264.8,449.3,264.8z"/>
			<path class="st6" d="M448.1,256.6h-56.4c-2.2,0-4.1-1.8-4.1-4.1l0,0c0-2.2,1.8-4.1,4.1-4.1h56.4c2.2,0,4.1,1.8,4.1,4.1l0,0
				C452.2,254.8,450.3,256.6,448.1,256.6z"/>
			<path class="st7" d="M454.7,248.4h-56.4c-2.2,0-4.1-1.8-4.1-4.1l0,0c0-2.2,1.8-4.1,4.1-4.1h56.4c2.2,0,4.1,1.8,4.1,4.1l0,0
				C458.8,246.6,457,248.4,454.7,248.4z"/>
			<path class="st5" d="M447.9,240.2h-56.4c-2.2,0-4.1-1.8-4.1-4.1l0,0c0-2.2,1.8-4.1,4.1-4.1h56.4c2.2,0,4.1,1.8,4.1,4.1l0,0
				C452,238.4,450.1,240.2,447.9,240.2z"/>
			<path class="st6" d="M446.7,232h-56.4c-2.2,0-4.1-1.8-4.1-4.1l0,0c0-2.2,1.8-4.1,4.1-4.1h56.4c2.2,0,4.1,1.8,4.1,4.1l0,0
				C450.8,230.2,449,232,446.7,232z"/>
			<path class="st7" d="M453.4,223.8h-56.4c-2.2,0-4.1-1.8-4.1-4.1l0,0c0-2.2,1.8-4.1,4.1-4.1h56.4c2.2,0,4.1,1.8,4.1,4.1l0,0
				C457.4,222,455.6,223.8,453.4,223.8z"/>
		</g>
		<g>
			<path class="st6" d="M561.5,85.3c7.3,10.5,4.8,24.9-5.7,32.2c-10.5,7.3-24.9,4.8-32.2-5.7s-4.8-24.9,5.7-32.2
				C539.7,72.3,554.2,74.8,561.5,85.3z"/>
			<path class="st5" d="M558.5,87.4c6.2,8.8,4,20.8-4.7,27c-8.8,6.2-20.8,4-27-4.7c-6.2-8.8-4-20.8,4.7-27
				C540.2,76.5,552.3,78.6,558.5,87.4z"/>
			<g>
				<path class="st6" d="M544.8,112.2l-0.9-3.1c-1.4,0.3-2.9,0.4-4.1,0.4c-1.1-0.1-1.9-0.9-1.9-1.9v-0.1c0-1.1,0.9-2.1,2.1-2
					c1.2,0.1,2.4,0,3.7-0.4c1.9-0.5,3-1.6,2.6-2.9c-0.3-1.2-1.6-1.7-4.3-1.9c-3.9-0.2-6.7-1.2-7.5-4.4c-0.8-2.9,0.6-5.7,4-7.3
					l-0.9-3.1l3.2-0.9l0.8,2.9c1.2-0.2,2.2-0.4,3.1-0.4c1.1,0,1.9,0.9,2,1.9l0,0c0,1.1-0.9,2-2,2c-0.8,0-1.9,0.1-3,0.4
					c-2.1,0.6-2.6,1.7-2.3,2.6c0.3,1.1,1.6,1.5,4.7,1.7c4.3,0.3,6.3,1.7,7.2,4.7c0.8,2.9-0.6,6-4.2,7.7l0.9,3.4L544.8,112.2z"/>
			</g>
		</g>
		<g>
			<path class="st8" d="M550.3,173.3l-56.9,7.8c-2.3,0.3-4.4-1.3-4.7-3.5l0,0c-0.3-2.3,1.3-4.4,3.5-4.7l56.9-7.8
				c2.3-0.3,4.4,1.3,4.7,3.5l0,0C554.1,170.9,552.6,173,550.3,173.3z"/>
			<g>
				<path class="st8" d="M580.5,182.7l-57.4-1.3c-2.3-0.1-4.1-2-4.1-4.3l0,0c0.1-2.3,2-4.1,4.3-4.1l57.4,1.3c2.3,0.1,4.1,2,4.1,4.3
					l0,0C584.7,180.9,582.8,182.7,580.5,182.7z"/>
				<path class="st9" d="M580.6,182.8c-0.1,0-0.1,0-0.1,0l-57.4-1.3c-2.4-0.1-4.2-2-4.2-4.4c0.1-2.3,2-4.2,4.3-4.2
					c0.1,0,0.1,0,0.1,0l57.4,1.3c2.4,0.1,4.2,2,4.2,4.4C584.8,180.9,582.9,182.8,580.6,182.8z M523.1,173.2c-2.2,0-4,1.8-4,4
					c-0.1,2.2,1.7,4.1,4,4.2l57.4,1.3c0.1,0,0.1,0,0.1,0c2.2,0,4-1.8,4-4c0.1-2.2-1.7-4.1-4-4.2L523.1,173.2
					C523.2,173.2,523.2,173.2,523.1,173.2z"/>
			</g>
			<path class="st10" d="M544,193.9l-53.6-20.7c-2.2-0.8-3.2-3.2-2.4-5.4l0,0c0.8-2.2,3.2-3.2,5.4-2.4l53.6,20.7
				c2.2,0.8,3.2,3.2,2.4,5.4l0,0C548.5,193.7,546.1,194.7,544,193.9z"/>
			<path class="st6" d="M572,196.5l-53.6-20.7c-2.2-0.8-3.2-3.2-2.4-5.4l0,0c0.8-2.2,3.2-3.2,5.4-2.4l53.6,20.7
				c2.2,0.8,3.2,3.2,2.4,5.4l0,0C576.6,196.3,574.2,197.4,572,196.5z"/>
			<g>
				<path class="st11" d="M617.5,264.8c4.4-7.5,7.3-19.6,6.8-26c-1-14.6-26.7-37.8-26.9-52.5c-0.1-6,10.2-21.6,10.2-21.6l-75,26.8
					l-74.7-26.8c0,0,10.3,15.7,10.2,21.6c-0.2,14.7-25.9,37.8-26.9,52.5c-0.4,6.3,2.5,18.4,6.8,26H617.5z"/>
				<g>
					<path class="st8" d="M532.6,191.6l-74.7-26.8c0,0,3.5,5.3,6.3,10.9L532.6,191.6z"/>
					<path class="st12" d="M624.4,238.8c-1-14.6-26.7-37.8-26.9-52.5c-0.1-6,10.2-21.6,10.2-21.6l-30.2,10.8
						c-2.1,4-3.9,8.3-3.9,10.8c0.2,14.7,25.9,37.8,26.9,52.5c0.4,6.3-2.5,18.4-6.8,26h23.9C621.9,257.2,624.8,245.1,624.4,238.8z"/>
				</g>
				<g>
					<g>
						<g>
							<path class="st5" d="M532.6,195.6l-82.1-30c-1.7-0.6-2.6-2.6-2-4.3c0.6-1.7,2.6-2.6,4.3-2l79.8,29.1l82.3-30.2
								c1.7-0.6,3.7,0.2,4.3,2c0.6,1.7-0.2,3.7-2,4.3L532.6,195.6z"/>
						</g>
					</g>
					<path class="st5" d="M542.6,192.9c0,5.4-4.4,9.8-9.8,9.8c-5.4,0-9.8-4.4-9.8-9.8c0-5.4,4.4-9.8,9.8-9.8
						C538.2,183.1,542.6,187.5,542.6,192.9z"/>
					<path class="st10" d="M536.8,192.9c0,2.2-1.7,4-4,4c-2.2,0-4-1.7-4-4c0-2.2,1.7-4,4-4S536.8,190.7,536.8,192.9z"/>
					<g>
						<path class="st6" d="M444.1,168.3l-0.8-1.4c0.2-0.2,6.7-3.9,10.4-3.9v1.6C450.3,164.6,444.2,168.2,444.1,168.3z"/>
					</g>
					<g>
						<path class="st13" d="M624.4,168.5c-0.1-0.1-6.4-5.6-10.3-5.6v-1.6c4.6,0,11.1,5.8,11.4,6L624.4,168.5z"/>
					</g>
					<path class="st14" d="M629.5,168.5c0,2.8-2.2,5-5,5s-5-2.2-5-5c0-2.8,2.2-5,5-5S629.5,165.8,629.5,168.5z"/>
					<path class="st6" d="M448.3,168.5c0,2.8-2.2,5-5,5c-2.8,0-5-2.2-5-5c0-2.8,2.2-5,5-5C446,163.5,448.3,165.8,448.3,168.5z"/>
				</g>
			</g>
		</g>
		<g>
			<g>
				<g>
					<path class="st15" d="M635.2,249c0,0-0.6,7-0.1,9.3c0.2,1.2,1.6,3.7,1,4.9s-1.3,1.4-1.3,1.4l-16.1,0.2c-0.9,0-0.3-0.6,0.4-1.1
						c1.2-0.8,2.1-1.4,5.8-3.2c0.2-0.1,1.1-0.7,1.4-0.9c0.8-0.5,1.6-1.2,2.3-2c1.2-1.2,1.2-7.4,1.2-7.4L635.2,249z"/>
					<path class="st16" d="M622.6,156.2c0,0-6.9-3.4-5.6,4c1.3,7.4,11.5,91,11.5,91l9.5,0.5c0,0,1.2-27.9,0.9-31.9
						c-0.2-4-1.9-10.2-1.9-10.2l-0.8-24.7l-9-30.5L622.6,156.2z"/>
					<path class="st8" d="M626.2,259.7c4.3,1.1,7.4,0.4,9.2-0.4c0.4,1.2,1.1,2.9,0.7,3.8c-0.4,1.1-0.9,1.6-1.4,1.6
						c-3.9,0.1-14.3,0-17.3,0c-0.4,0-0.6-0.5-0.4-0.8C617.8,263.1,625.9,259.9,626.2,259.7z"/>
					<path class="st15" d="M617,106c0,0-5.8-11.3-6.8-15.4c-0.9-4.2-4-25-3.8-26.3s5.2-4.5,4.6-5.7c-0.6-1.1-5.4-1.1-6.5-1.1
						c-1.1,0.1-3.3,0.7-4.2,1.5c-0.9,0.7,1.1,25.8,1.6,31.1c0.6,5.4,7.9,22,7.9,22L617,106z"/>
					<g>
						<path class="st15" d="M662.6,193.8c0,0,4.9-5,5.9-7.1c0.6-1.1,1.1-3.9,2.3-4.4c1.2-0.5,1.9-0.2,1.9-0.2l12.7,10
							c0.7,0.6-0.1,0.6-1,0.6c-1.4-0.1-2.5-0.2-6.5-1.2c-0.2-0.1-1.3-0.2-1.7-0.2c-0.9-0.1-2.1-0.1-3,0.1c-1.7,0.2-5.7,5-5.7,5
							L662.6,193.8z"/>
						<path class="st8" d="M676.3,191.1c-2.6-3.5-5.5-4.9-7.3-5.5c0.4-1.2,0.9-2.9,1.7-3.4c1-0.6,1.7-0.5,2.1-0.2
							c3.1,2.4,11.2,8.9,13.5,10.7c0.3,0.2,0.2,0.7-0.2,0.9C685,193.7,676.7,191.2,676.3,191.1z"/>
						<path class="st8" d="M662.7,102.5c-3-6.3-9.6-9.8-16.1-8.1c-2.3-3.1-5.9-5.4-9.6-5.8c-7.3-1.1-16.9,2.6-15.9,10.2
							c-2.3,5.4-1.7,12.8,2.9,16.4c-0.9,7,6.2,13.3,14.6,12.4c3.4,4.7,9.2,7.4,14.7,6.3c1.3-0.2,3.3-0.7,3.7-0.7
							c-0.4-0.1,9.6,6.5,16.4-5.2C680.4,116.3,673.5,103,662.7,102.5z"/>
						<path class="st12" d="M619.8,158.9c0,0,15.6-6.9,15.8-6.1c1.9,6.3,8,4.2,11.6,15.3c1.5,4.6,3,35.4,3,35.4s6.2-5.1,14.9-14
							c0.7-0.7,7.3,5.6,7.3,5.6c-17.4,23.5-24.9,24.7-27.8,23.4c-6-2.7-18.9-41.1-18.8-41.1C624.2,174.3,619.8,158.9,619.8,158.9z"
							/>
						<path class="st15" d="M645.6,115.5c0,0,22.5,0,27.3-0.3c4.4-0.2,21.6,0.2,22.3,0.1c0.7-0.1,5.2-7.7,5.8-6.8
							c0.7,0.8-2.5,3.7-1.5,4.5c1,0.7,11.7-0.9,11.6-0.1c-0.2,1.5-6.5,1.3-6.5,2c0,0.7,6.5-0.4,7,0.8c0.4,1.2-6.3,0.5-6.5,1
							c-0.2,0.6,6.2,1.5,5.6,2.6c-0.4,0.6-5.8-1-5.7-0.2c0,0.8,4,2.7,3.5,3.4c-0.5,0.6-3.1-2-5.4-2.1c-2.3-0.1-3.9-1.2-7.6-0.2
							c-1.8,0.5-15.6,2.2-27.2,3.2c-11.9,1-21.7,1.4-21.7,1.4L645.6,115.5z"/>
						<path class="st11" d="M612.2,131.4c-0.3-3.6,0.4-6.4,0.6-7.6c-1.1-3.7-3.4-11.8-4.2-13.3c0,0,3.9-7.5,7.9-7.5
							c0,0,4.1,9.2,7.3,10.9c0.1,0,1.1,0.5,1.6,0.5c3,0,13.7-0.4,15.7-0.4l-1.1,15.1c-7.7,15.1-5.7,23.1-2.7,26.1
							c1.4,1.4-19.3,7-20.2,5C615.9,157.9,612.8,138.7,612.2,131.4z"/>
						<path class="st11" d="M635.6,114.5c2-0.9,16.2-0.5,16.2-0.5s2,9.9,0.4,12.3c0,0-12.8,1.9-12.4,2.9L635.6,114.5z"/>
						<path class="st15" d="M631.9,108.2c0,0-0.2,5.4,0,7.7c0.2,2.2-2.3,7.5-7.1,7.7c-4.8,0.1-0.7-5-0.3-7.3
							c0.4-2.2,0.9-10.9,0.9-10.9L631.9,108.2z"/>
						<path class="st9" d="M625.5,105.3c0,0-0.1,2-0.3,4.4c1.5,1.8,3.8,2.7,6.7,1.6c0-1.7,0.1-3,0.1-3L625.5,105.3z"/>
						<path class="st15" d="M632.3,92.1c0,0,2.7,0.8,4.2,3.5c1.5,2.7,2.2,10.4-3.7,13.6c-5.8,3.2-9.8-2.2-9.6-7.1
							C623.5,97.2,625,90.7,632.3,92.1z"/>
						<path class="st15" d="M622.1,100.5c0.4,1.2,1.3,2,2,1.8c0.7-0.2,0.9-1.4,0.6-2.6c-0.4-1.2-1.3-2-2-1.8
							C622,98.1,621.7,99.2,622.1,100.5z"/>
						<path class="st17" d="M631.5,91.8c0,0,3,8.1,6,9c3,0.9,2.7,4.9,2.7,4.9s0.6-9.1-2.2-11.4C635.2,92,631.5,91.8,631.5,91.8z"/>
						<path class="st15" d="M636.1,102.4c-0.5,1.2-0.2,2.6,0.6,2.9c0.9,0.3,1.9-0.4,2.4-1.7c0.5-1.2,0.2-2.6-0.6-2.9
							C637.7,100.4,636.6,101.2,636.1,102.4z"/>
					</g>
					<path class="st9" d="M599.6,60.9c0,0,6.6,0.3,7.3,0.3c0.7,0,3-2.3,3-2.3L599.6,60.9z"/>
				</g>
				<g>
					<path class="st6" d="M621.6,25.6c7.2,10.3,4.7,24.3-5.5,31.5c-10.3,7.2-24.3,4.7-31.5-5.5c-7.2-10.3-4.7-24.3,5.5-31.5
						C600.3,12.8,614.5,15.3,621.6,25.6z"/>
					<path class="st5" d="M618.6,27.6c6,8.6,4,20.5-4.7,26.4c-8.6,6-20.5,4-26.4-4.7c-6-8.6-4-20.5,4.7-26.4
						C600.8,17,612.7,19,618.6,27.6z"/>
					<g>
						<path class="st6" d="M605.3,51.9l-0.8-3c-1.4,0.3-2.8,0.4-4,0.4c-1-0.1-1.8-0.9-1.8-1.9v-0.1c0-1.1,0.9-2.1,2.1-1.9
							c1.1,0.1,2.4,0,3.7-0.4c1.9-0.5,2.9-1.6,2.6-2.9c-0.3-1.2-1.6-1.7-4.2-1.9c-3.7-0.2-6.5-1.2-7.4-4.4c-0.7-2.9,0.6-5.6,3.9-7.2
							l-0.8-3l3.2-0.9l0.7,2.9c1.2-0.2,2.2-0.4,3-0.4c1.1,0,1.9,0.9,1.9,1.9l0,0c0,1.1-0.9,2-2,1.9c-0.8,0-1.8,0.1-2.9,0.4
							c-2.1,0.6-2.6,1.7-2.3,2.6c0.3,1.1,1.6,1.4,4.6,1.7c4.2,0.3,6.2,1.7,7,4.5c0.7,2.9-0.6,5.8-4.1,7.5l0.9,3.3L605.3,51.9z"/>
					</g>
				</g>
			</g>
			<path class="st18" d="M606.9,61.2l2.7-2.4c0,0-1.3-1.6-0.7-1.8c0.9-0.5,2.4,1.4,2.2,1.8c-0.1,0.4-1.7,1.9-1.7,1.9L606.9,61.2z"/>
		</g>
	</g>
</g>
</svg>
