<?xml version="1.0" encoding="utf-8"?>
<!-- Generator: Adobe Illustrator 24.0.1, SVG Export Plug-In . SVG Version: 6.00 Build 0)  -->
<svg version="1.1" id="Capa_1" xmlns="http://www.w3.org/2000/svg" xmlns:xlink="http://www.w3.org/1999/xlink" x="0px" y="0px"
	 viewBox="0 0 800.2 479.3" style="enable-background:new 0 0 800.2 479.3;" xml:space="preserve">
<style type="text/css">
	.st0{fill:#ABD0FF;}
	.st1{fill:#FFFFFF;}
	.st2{fill:#7FB2FF;}
	.st3{fill:#EC9F90;}
	.st4{fill:#002B9C;}
	.st5{fill:#FFA600;}
	.st6{fill:#FFD165;}
	.st7{fill:#0948F0;}
	.st8{fill:#FD5C00;}
	.st9{fill:#FFC5E6;}
	.st10{fill:#3482FF;}
	.st11{fill:#FFB0A3;}
	.st12{fill:#0037E6;}
	.st13{fill:#FFEC66;}
	.st14{fill:#FD89C6;}
</style>
<g>
	<ellipse class="st0" cx="412.7" cy="455.8" rx="387.5" ry="23.5"/>
	<g>
		<g>
			<path id="_x3C_Group_x3E__24_" class="st1" d="M503.8,446.7H352.3c-18.8,0-34.1-15.3-34.1-34.1V50.1c0-18.8,15.3-34.1,34.1-34.1
				h151.5c18.8,0,34.1,15.3,34.1,34.1v362.5C537.9,431.4,522.6,446.7,503.8,446.7z"/>
			<path class="st2" d="M521.7,455.4H334.3c-13.7,0-24.9-11.2-24.9-24.9V32.1c0-13.7,11.2-24.9,24.9-24.9h187.4
				c13.7,0,24.9,11.2,24.9,24.9v398.4C546.6,444.2,535.5,455.4,521.7,455.4z M334.3,24.6c-4.1,0-7.5,3.4-7.5,7.5v398.4
				c0,4.1,3.3,7.5,7.5,7.5h187.4c4.1,0,7.5-3.3,7.5-7.5V32.1c0-4.1-3.3-7.5-7.5-7.5H334.3z"/>
			<path id="_x3C_Group_x3E__23_" class="st2" d="M447.9,32.9h-44.5c-4.5,0-8.1-3.6-8.1-8.1v-3.1c0-4.5,3.6-8.1,8.1-8.1h44.5
				c4.5,0,8.1,3.6,8.1,8.1v3.1C456,29.3,452.4,32.9,447.9,32.9z"/>
		</g>
		<g>
			<path id="_x3C_Group_x3E__22_" class="st0" d="M96.1,114.9c1.7,6.4,1.9,12.9,2.2,19.4c1.2,22.8,4.1,45.5,8.6,68.1
				c0.5,2.4,1,4.9,1.5,7.3c1.8,8.4,3.9,16.8,6.2,25.2c0.1,0.2,0.1,0.5,0.2,0.7c2.4,8.5,6.3,17.7,20.4,22.6c3.2,1.1,6-0.2,8.5-2.6
				c1.1-1,2.1-2.3,3-3.7c3.9-5.8,6.4-13.7,7.4-15.8c4.3-9.8,7.1-19.7,5.6-29.5c-1.6-10.2-7.6-20-9.6-30.2c-1.7-8.9-0.3-18,1.5-27
				c1.9-9.6,4.3-19.3,3.7-28.8c-0.9-15-8.9-29.5-16.9-43.8c-5-8.9-10-17.9-15.1-26.8c-8-13.8-16.5-27.5-26.2-41
				C94.1,4.8,89.1,0,80,0c0,16,0,32,0,48.1c0,2,0,4,0,6c0,10,0,20,3.1,29.7C86.4,94.3,93.3,104.4,96.1,114.9z"/>
			<path id="_x3C_Group_x3E__21_" class="st2" d="M91.3,27.6c10,15.6,20,52.4,28.9,94.1c7,33,13.3,69,18.3,100.1
				c2,12.2,3.7,23.7,5.2,33.9c1.1-1,2.1-2.3,3-3.7c-1.5-10.1-3.3-21.4-5.2-33.4c-2-12.1-4.1-24.9-6.4-38c-3.6-20.6-7.2-39.3-10.7-56
				c-10.7-50.9-20.7-83.9-30-98.4c-0.4-0.6-1.4-0.8-2.3-0.4C91.3,26.1,90.9,27,91.3,27.6z"/>
			<path id="_x3C_Group_x3E__20_" class="st2" d="M81.8,144.7c5.9,17.2,6.3,34.5,10.9,51.8c4,14.9,11.1,29.7,17.7,44.4
				c15.2,33.7,31.5,71.9,25.1,105.2c-1.8,9.4-8.2,16-22,13.9c-0.9-0.1-1.7-0.3-2.6-0.5c-1.1-0.2-2.2-0.5-3.3-0.8
				c-17.6-5.1-26.3-20.6-32.1-31.7c-6.6-12.6-13.1-25.2-19.2-37.8c-4.5-9.2-8.7-18.6-9.5-27.9c-0.6-7.3,1-14.3,0.6-21.5
				c-1.3-25.4-26.4-50.6-29.5-76.2c-1.4-11.4,1.6-22.4,0.5-33.9c-1.1-11.1-6.1-22.3-9.8-33.4C1.2,74.2-1.5,51.9,0.8,30.4
				C0.9,28.6,3.9,28,6,29.3c4.8,3,8,7.5,10.9,11.6C28.6,58,40.3,75.1,52,92.1C63.8,109.3,75.7,126.7,81.8,144.7z"/>
			<path id="_x3C_Group_x3E__19_" class="st0" d="M11.1,46.8c0.4,0.9,36.7,87.7,70,181.7C122.3,345,141.1,420.9,137,454.3
				c-1.2-0.1-2.4-0.3-3.6-0.5c4.3-32.1-14.8-109.3-55.6-224.6C44.5,135.4,8.2,48.6,7.9,47.8c-0.4-1,0-2,0.9-2.3
				C9.6,45.2,10.7,45.8,11.1,46.8z"/>
		</g>
		<path id="_x3C_Group_x3E__18_" class="st2" d="M581.1,331.5c4.5-20.3,15.2-37.4,18.2-58.4c2.9-19.8-1.2-42.5,0.9-62.7
			c3.5-34.3,24.3-60.3,23.9-96.2c-0.2-14.8-4-30.8-4-45.5c0-17.8,5.6-33.2,14.1-46.5c1.2-1.8,5.4,0.1,5.9,2.8
			c2.9,14.7,4.5,29,6.1,43.3c2.5,22.7,5.1,45.5,7.6,68.2c2.1,18.8,4.2,37.9,1.3,54.7c-2,11.5-6.3,21.9-7.1,34
			c-1.3,20,7.1,43.7,3.7,62.8c-2.8,15.5-13.2,26.7-16.5,41.9c-4.9,22.6,6.1,52.7-4.7,71.8c-7.2,12.7-25.2,8.2-37.3-8.4
			C577.9,372.3,577.5,348.2,581.1,331.5z"/>
		<path id="_x3C_Group_x3E__17_" class="st0" d="M634.4,333.8c7.9-9,18.6-16.5,22.4-27.9c3.4-10.2,1.1-23.2,0.6-35.4
			c-1.6-39.4,15.8-69.4,33.7-98.7c20-32.9,40.8-65.5,67.6-94.4c1.3-1.4,7.5,2.1,7.3,4.1l-4.5,40c-3.2,28.9-6.4,57.9-14.4,84.4
			c-14.2,47.6-43.5,87.2-53.2,137.2c-3.2,16.6-4.4,34.3-9.8,49.8c-4.1,11.7-11.1,38.5-35.8,36.2c-29.6-2.8-29.7-32.2-30.3-42.7
			C616.9,365.5,622.3,347.6,634.4,333.8z"/>
		<path id="_x3C_Group_x3E__16_" class="st0" d="M605.9,396.3c0.6,0,1.2-0.6,1.4-1.4c12.1-64.9,20-128.7,27.7-193.9
			c0-0.1,0-0.2,0-0.3v-6.5l0.1-1.7c0.5-5.8,1-11.3,1-17.4c2.5-29.2,4.7-63.4,1.1-96.4c-0.1-1-0.8-1.7-1.6-1.6
			c-0.8,0.1-1.3,1.1-1.2,2.1c3.5,32.6,1.4,66.6-1.1,95.5c0,0.1,0,0.1,0,0.2c0,5.9-0.5,11.3-1,17.1l-0.2,1.8c0,0.1,0,0.1,0,0.2v6.5
			c-7.7,65-15.6,128.8-27.6,193.5c-0.2,1,0.3,2,1,2.2C605.7,396.2,605.8,396.3,605.9,396.3z"/>
		<path id="_x3C_Group_x3E__15_" class="st2" d="M639.5,420.7c0.7,0,1.3-0.6,1.4-1.4c0.7-7,2.5-13.7,4.2-20.1
			c1.5-5.6,3.1-11.4,3.9-17.3c13.2-41.1,29.5-89.9,50-139.4c0,0,0,0,0-0.1c0.6-1.6,1-3.1,1.4-4.5c0.4-1.4,0.8-2.7,1.4-4.2
			c3.6-8.5,7.1-17,10.6-25.4c14-33.6,28.5-68.3,43.4-102.1c0.3-0.8,0.1-1.7-0.6-2.1c-0.7-0.4-1.5-0.1-1.9,0.7
			C738.5,138.7,724,173.4,710,207c-3.5,8.5-7.1,17-10.6,25.5c0,0,0,0.1,0,0.1c-0.6,1.6-1,3.1-1.4,4.5c-0.4,1.4-0.8,2.7-1.4,4.2
			c-20.6,49.7-36.9,98.6-50.2,139.8c0,0.1-0.1,0.2-0.1,0.3c-0.8,5.7-2.2,11.2-3.8,17c-1.8,6.6-3.6,13.4-4.3,20.7
			c-0.1,0.9,0.5,1.6,1.2,1.7C639.4,420.7,639.5,420.7,639.5,420.7z"/>
		<g>
			<path class="st3" d="M514.9,320.7c0,0-17.3,3.7-20.2,5.2c-2.9,1.6-4.6,6.6-4.6,6.6l4.6,3.8l8.9-5.5c0,0,8.5,2.8,12.9-0.7
				S514.9,320.7,514.9,320.7z"/>
			<path class="st4" d="M563.4,260.5c-12.7-4.7-13.4,5.4-13.4,5.4s-2.3,20.4-0.4,37l-34.7,17.8l1.6,9.4c0,0,43.3-4.9,47.7-9.8
				c3.8-4.3,7.3-36.1,8.1-43l0,0C572.2,277.3,576.1,265.2,563.4,260.5z"/>
		</g>
		<g>
			
				<ellipse transform="matrix(0.7071 -0.7071 0.7071 0.7071 -69.0051 418.8266)" class="st5" cx="471.1" cy="292.7" rx="66.4" ry="66.4"/>
			<circle class="st6" cx="462.1" cy="294.1" r="66.4"/>
			<path class="st5" d="M482.8,346.7c-5.6,2.1-11.5,3.3-17.6,3.5c-15,0.6-29.4-4.7-40.4-14.9c-11-10.2-17.5-24.1-18.1-39.1
				c-0.6-15,4.7-29.4,14.9-40.4c10.2-11,24.1-17.5,39.1-18.1c15-0.6,29.4,4.7,40.4,14.9c11,10.2,17.5,24.1,18.1,39.1
				c0.6,15-4.7,29.4-14.9,40.4C498.2,338.7,490.9,343.7,482.8,346.7z M443.3,242.1c-8,3-15.2,7.9-21.2,14.3
				c-10.1,10.9-15.3,25.1-14.7,39.9c0.6,14.8,6.9,28.5,17.8,38.6c10.9,10.1,25.1,15.3,39.9,14.7c14.8-0.6,28.5-6.9,38.6-17.8
				c10.1-10.9,15.3-25.1,14.7-39.9l0.3,0l-0.3,0c-0.6-14.8-6.9-28.5-17.8-38.6c-10.9-10.1-25.1-15.3-39.9-14.7
				C454.7,238.8,448.8,240,443.3,242.1z"/>
			<path class="st5" d="M482.1,317.3c-13.5,5.1-25,1.5-32.4-8.8l30.6-11.5l-2.7-7.3l-31.7,11.9c-0.3-0.7-0.6-1.4-0.9-2.2
				c-0.1-0.2-0.2-0.5-0.2-0.7l32.9-12.4l-2.7-7.3l-32.1,12.1c-2.2-14.3,4.8-25.3,18.5-30.5c5.8-2.2,11.1-2.8,15.1-2.4l-0.6-8.1
				c-2.8-0.3-9-0.1-17.6,3.1c-18.6,7-28,23.1-24.9,41.4l-7.3,2.8l2.7,7.3l6.6-2.5c0.1,0.3,0.2,0.7,0.3,1c0.2,0.7,0.5,1.2,0.8,1.9
				l-7.7,2.9l2.7,7.3l8.6-3.2c9.8,15.5,26.4,19.7,43.1,13.4c8.4-3.2,14.4-7.3,17.1-10.2l-4.5-6.4C492.6,312,487.5,315.2,482.1,317.3
				z"/>
		</g>
		<path id="_x3C_Group_x3E__14_" class="st7" d="M659.8,456.3h-55.7c-16.8,0-30.4-19.5-30.4-43.6v-43.6h117.1l-0.5,43.6
			C690.3,436.8,676.7,456.3,659.8,456.3z"/>
		<g>
			<path class="st8" d="M566.1,458.1h-26.7c-1.1,0-1.6-1.2-0.9-1.9l13.2-11.9l-1.2-5.5l10.4-1.3l1.6,6.6L566.1,458.1z"/>
			<polygon class="st9" points="562.6,444 551.8,444.3 550,436 561.2,434.9 			"/>
			<path class="st8" d="M642.9,458.1h-26.7c-1.1,0-1.6-1.3-0.9-2.1l13.2-12.9l-1.2-6l10.4-1.4l1.6,7.1L642.9,458.1z"/>
			<polygon class="st9" points="639.4,442.9 628.5,443.1 627.3,437.1 637.8,435.8 			"/>
			<path class="st10" d="M605.9,303.1l0.7,0.6c0,0,12.5,22.2,11.9,41.3c-0.6,19.1,2.6,33.8,2.6,33.8l21.9,53.8c0,0-8.1,8.7-16.6,6.2
				L600,388.6L586.1,348c0,0-17.6,24.2-28.5,33.2c0,0,4.5,11.7,8.5,54.2c0,0-15.5,3.6-19.3,1.9L534.9,379l34.9-57.4l-4.6-11.6
				L605.9,303.1z"/>
			<path class="st7" d="M616.2,318.4c0,0-27.8,11-48.4,5.3l-20.2-48.4c0,0-4.3-14.7,6.7-22.3c11-7.7,27.4-1.9,37.6,19.3
				C602.1,293.5,616.2,318.4,616.2,318.4z"/>
			<path class="st3" d="M511,303.2c0,0-17.7-0.8-20.9,0c-3.2,0.8-6.1,5.3-6.1,5.3l3.5,4.8l10-3.1c0,0,7.6,4.8,12.7,2.5
				C515.3,310.3,511,303.2,511,303.2z"/>
			<path class="st8" d="M541.5,227.1c0,0-5.8,0.6-7.2-5.7c-1.4-6.4,2.4-10.2,7.2-8.3c0,0-2.1-7.3,5.3-7c7.5,0.3,10.3,6.1,10.3,6.1
				s8.6-4.8,12.4,4.5c3.8,9.2-4.5,23.9-4.5,23.9l-6.4,4.6L541.5,227.1z"/>
			<path class="st9" d="M540.6,224.3l-2.2,22l8.1,1.1l3.8,9.6c0,0,9.6,0.6,11.8-5.7l-5.7-10c0,0,7.7-8.1,0.3-8.8l-3.2,2.1
				c0,0-3.7-1.1-1.3-6.5C554.6,222.6,540.6,224.3,540.6,224.3z"/>
			<path class="st10" d="M573,257c-11.2-7.7-14.3,1.8-14.3,1.8s-7.3,19.1-9.6,35.7l-38.1,8.6l-0.8,9.5c0,0,43.2,6,48.6,2.4
				c4.8-3.2,16.1-33.1,18.6-39.6l0,0C577.4,275.5,584.2,264.7,573,257z"/>
		</g>
		<polygon class="st10" points="736.7,385.1 729.8,385.1 729.8,378.2 726.1,378.2 726.1,385.1 719.2,385.1 719.2,388.9 726.1,388.9 
			726.1,395.8 729.8,395.8 729.8,388.9 736.7,388.9 		"/>
		<polygon class="st2" points="748.1,321.7 745.2,318.9 737.8,326.3 730.4,318.9 727.6,321.7 735,329.1 727.6,336.5 730.4,339.4 
			737.8,332 745.2,339.4 748.1,336.5 740.6,329.1 		"/>
		<polygon class="st1" points="600,20.8 591.3,20.8 591.3,12.1 586.5,12.1 586.5,20.8 577.8,20.8 577.8,25.6 586.5,25.6 586.5,34.3 
			591.3,34.3 591.3,25.6 600,25.6 		"/>
		<g>
			<path class="st11" d="M324.7,251.9c0,0,10.8-14.9,22.1-13.1l6.5,2.8c0,0-0.7,4-4.8,3.2c-4-0.8-6.8,0.6-6.8,0.6l-6.9,6.7
				L324.7,251.9z"/>
			<path class="st12" d="M264.6,254.9l36.1,3.7l27.6-12.9l6.5,6.4c0,0-22.6,19.3-28.3,20.9c-5.7,1.6-42.4-2.6-42.4-2.6
				s-7.6-1.5-8.9-9.4C253.8,253.1,264.6,254.9,264.6,254.9z"/>
			<g>
				<g>
					
						<ellipse transform="matrix(0.9874 -0.1585 0.1585 0.9874 -37.0285 61.225)" class="st5" cx="365.3" cy="262.7" rx="66.4" ry="66.4"/>
					
						<ellipse transform="matrix(0.993 -0.1178 0.1178 0.993 -28.1789 43.7982)" class="st13" cx="356.5" cy="260.3" rx="66.4" ry="66.4"/>
					<path class="st5" d="M335.2,312.4c-27.9-11.9-41.5-44.1-30.2-72.5c5.5-14,16.2-24.9,30-30.9c13.8-6,29.1-6.2,43-0.6
						c14,5.5,24.9,16.2,30.9,30c6,13.8,6.2,29.1,0.6,43c-11.4,28.8-44.2,43-73,31.5C336.1,312.7,335.7,312.6,335.2,312.4z
						 M379.1,209.6c-0.4-0.2-0.9-0.4-1.3-0.5c-13.8-5.5-28.9-5.2-42.5,0.6c-13.6,5.9-24.1,16.7-29.6,30.5
						c-11.1,28,2.2,59.8,29.8,71.6c0.4,0.2,0.9,0.4,1.3,0.5c28.5,11.3,60.8-2.7,72.1-31.1c5.5-13.8,5.2-28.9-0.6-42.5
						C402.6,225.5,392.3,215.2,379.1,209.6z"/>
					<g>
						<path class="st5" d="M338.3,298.1l4.1-9.6c-5.5-2.4-10.4-6.6-12.7-10.4l5-5.4c2.4,3.7,6.6,7.6,11.9,9.9
							c6.7,2.9,12.9,0.9,15.2-4.5c2.2-5.2-0.1-10-5.9-15.8c-8.1-7.9-12.2-14.8-8.7-23.1c3.4-7.9,11.5-11.5,20.8-9.2l4.1-9.6l5.9,2.5
							l-3.9,9.2c5.6,2.6,8.8,5.8,10.9,8.6l-5,5.2c-1.5-2-4.5-5.7-10.6-8.3c-7.3-3.1-11.9,0.1-13.5,3.9c-2.1,4.9,0.4,8.9,7.2,15.8
							c8.1,8.1,10.9,15.2,7.3,23.6c-3.2,7.5-11.4,12.3-21.9,9.7l-4.2,9.9L338.3,298.1z"/>
					</g>
				</g>
				<g>
					<path class="st9" d="M227,456.2h22.8c0,0-1.2-4.6-6.1-5.5c-2-0.4-3.6-1.4-4.8-2.6c-1.8-1.7-2.8-3.5-2.8-3.5s12.7-47.2,18-63.3
						l-11.2-12.6l-6.7,6.3c0,0-4.8,44.2-10.5,69.4c-0.6,2.6-1.2,5-1.8,7.1C223.2,453.8,224.8,456.2,227,456.2z"/>
					<path class="st9" d="M273.9,393.3l8.7,52.5l1.2,7.2c0.3,1.9,1.8,3.2,3.5,3.2h17.8c0,0,0.4-4.6-5.4-5.8
						c-1.2-0.3-2.3-0.8-3.3-1.5h0c-3.5-2.6-5.1-7.7-5.1-10c0-2.9-1.7-52.3-1.7-52.3L273.9,393.3z"/>
					<path class="st4" d="M255.2,199.2c0,0,19,0.1,19.4,11.6c0.3,11.5-8.9,25.6-7,30.4c1.9,4.8,1.6,31.4-24.4,33.8
						c-26.1,2.5-29.7-15.2-22.1-28.4C228.6,233.3,242.8,201.9,255.2,199.2z"/>
					<path class="st7" d="M284.5,292.6l3.8,23.8l6.4,76.9c0,0-27.8,21.3-57,9.7c0,0-8.4-6.6-19-5l25.9-80.1c0,0,6.7-23.6,14.3-26.8
						C271.9,285.6,284.5,292.6,284.5,292.6z"/>
					<path class="st4" d="M248.6,269.1l10.2,21.8c0,0,15.2,5.7,25.7,1.5l2.5-22.6c0,0-4.2-6.2-9-13c-3.1-4.4-12.8-5.2-16.9-1.7
						L248.6,269.1z"/>
					<path class="st11" d="M314.6,277.2c0,0,15.4-10.1,25.3-4.6l5.1,4.9c0,0-2.1,3.5-5.6,1.4c-3.5-2.1-6.6-1.8-6.6-1.8l-8.8,3.9
						L314.6,277.2z"/>
					<path class="st8" d="M281.6,442.1l9.9,0.2c0.4,0.3,0.9-0.2,1.5-0.2l12.6,12.1c0.8,0.7,0.2,1.9-0.9,1.9h-24.6L281.6,442.1z"/>
					<path class="st8" d="M225.6,442.1l9.9,0.2c0.4,0.3,0.9-0.2,1.5-0.2l12.6,12.1c0.8,0.7,0.2,1.9-0.9,1.9h-26L225.6,442.1z"/>
					<path class="st9" d="M274.5,210.8c0,0,2.1,4.3,2.9,16.5c0.9,12.2-0.7,11.3-0.7,11.3l-6,1.9l-3,14.1l-15.3,2.2
						c0,0,8.3-5.4,8.6-16.3c0.3-10.9-5.8-5.7-4.5-13.6c1.3-7.9,5.1,0.3,5.1,0.3S271.9,224.6,274.5,210.8z"/>
					<path class="st10" d="M263.5,255.7l26.2,19.4l30.4-2.4l3.8,8.3c0,0-27.9,10.1-33.9,9.6c-5.9-0.5-38.7-17.3-38.7-17.3
						s-4.9-3.9-5.1-12c-0.1-7.1,5-8.5,9.2-8.4C258.3,253,261.1,254,263.5,255.7z"/>
				</g>
			</g>
		</g>
		<g>
			<path class="st14" d="M188.5,309.6v9.8l-3.8,7.3l-0.7-15.3c0,0-3.9-3.3-2.2-7.4C183.4,300,188.5,309.6,188.5,309.6z"/>
			<path class="st4" d="M176,231.5c-12.4,0.7-2.7,13.5-2.7,13.5s10.6,15.5,21.9,25.9l-13.5,33.2l6.7,5.5c0,0,27.1-29.4,27.3-35.3
				c0.1-5.3-20.8-31.4-24.4-36.6l0,0C191.3,237.7,184.8,231,176,231.5z"/>
			<g>
				<path class="st8" d="M174.3,441.9l9.9,0.2c0.4,0.3,0.9-0.2,1.5-0.2l12.6,12.1c0.8,0.7,0.2,1.9-0.9,1.9h-23.9L174.3,441.9z"/>
				<path class="st8" d="M131.2,441.9l9.9,0.2c0.4,0.3,0.9-0.2,1.5-0.2l12.6,12.1c0.8,0.7,0.2,1.9-0.9,1.9h-23.9L131.2,441.9z"/>
				<polygon class="st10" points="183.2,295 190.3,441.9 172.5,443.3 166.6,372.4 163.7,332 156.9,368.5 145.3,442.8 129.6,442.8 
					135.2,364.5 139.3,301.3 				"/>
				<path class="st8" d="M150.1,216.3l-6.1-1.2l-4.2-21.8c0,0,2.9-12.7,10.3-12c7.3,0.7,17.4-5.6,22.3-1.9c4.2,3.1,3.6,20.8-7.4,22
					L150.1,216.3z"/>
				<path class="st7" d="M129.1,237.7c0,0,22.8-10.5,54.1-5.3v56.5c0,0,2.4,7.6,1.2,9.9c0,0-24.5,12.6-48.7,6.5c0,0-1.7-5,1.2-10.2
					C136.9,295.2,137.2,252.4,129.1,237.7z"/>
				<path class="st9" d="M150,203.4c0,0-3.4-2.1-4,0c-0.6,2.1-0.9,5.6,2,5.4l2.2,5.4l-2.3,18.4c0,0,7.4,6,14.5-1l0.6-13.1l7.1-2.9
					l-3.4-20.6c0,0-6.5,5.9-12.7,0l-1.2,11.8l-2.5,0.3L150,203.4z"/>
			</g>
			<path class="st4" d="M129.1,237.7c0,0-18.4,35-10.8,60.7c0,0,14.8,13.5,51.9-9.4l-3.5-11.6l-32.3,5.4
				C134.3,282.9,141.5,247.5,129.1,237.7z"/>
			<path class="st9" d="M166.7,277.4c0,0,5-3,10.8-4c5.8-1,0,2,0,2s5.1-1.7,11.1-2.2c6-0.5-7.1,12.1-7.1,12.1l-11.7,2.3L166.7,277.4
				z"/>
		</g>
		<polygon class="st7" points="477.4,87.4 477.2,87.6 477.2,99.5 377,99.5 377,116.3 477.2,116.3 477.2,128.3 477.4,128.5 
			499.4,107.9 		"/>
		<polygon class="st7" points="378.3,174.6 378.6,174.4 378.6,162.5 478.7,162.5 478.7,145.7 378.6,145.7 378.6,133.7 378.3,133.5 
			356.4,154 		"/>
	</g>
</g>
</svg>
