<svg width="264" height="178" viewBox="0 0 264 178" fill="none" xmlns="http://www.w3.org/2000/svg">
<mask id="mask0" mask-type="alpha" maskUnits="userSpaceOnUse" x="0" y="0" width="264" height="178">
<rect width="264" height="178" rx="10" fill="white"/>
</mask>
<g mask="url(#mask0)">
<path d="M43.5424 464.757L313.209 308.593C313.209 308.593 361.9 170.103 328.38 132.554C314.659 117.184 284.134 103.414 266.234 126.816C253.02 144.09 249.123 145.593 240.77 149.121C240.77 149.121 229.342 151.44 228.551 148.213C223.478 127.517 201.893 125.612 185.877 126.099C185.36 126.114 184.841 126.138 184.32 126.171C158.932 127.722 144.405 142.295 132.615 160.431C112.554 191.287 116.813 211.978 66.9773 233.199C17.1416 254.421 19.2389 317.083 37.6383 338.971C63.7449 370.029 3.83913 393.513 43.5424 464.757Z" fill="#FFF394"/>
</g>
<path d="M151.365 102.944V113.814C151.365 115.896 149.661 117.598 147.579 117.598H139.786C137.704 117.598 136 115.896 136 113.814V102.944C136 100.862 137.704 99.1595 139.786 99.1595H147.579C149.661 99.1604 151.365 100.863 151.365 102.944Z" fill="#FFBD80"/>
<path d="M151.365 102.944V109C151.365 111.08 149.661 112.784 147.579 112.784H139.786C137.704 112.784 136 111.08 136 109V102.944C136 100.862 137.704 99.1595 139.786 99.1595H147.579C149.661 99.1604 151.365 100.863 151.365 102.944Z" fill="#FFD3AA"/>
<path d="M237.713 108.38C237.713 113.942 236.574 119.252 234.519 124.087C228.353 138.595 213.935 148.835 197.24 148.835H185.67C170.898 148.835 157.909 140.819 150.841 128.923C147.259 122.893 145.197 115.866 145.197 108.381C145.197 102.818 146.336 97.5094 148.391 92.6728C154.557 78.1666 168.975 67.9262 185.67 67.9262H197.24C212.422 67.9262 225.721 76.3944 232.643 88.8377C235.872 94.64 237.713 101.306 237.713 108.38Z" fill="#FFBD80"/>
<path d="M232.643 89.3623C233.604 94.0284 232.848 100.697 231.62 104.228C223.453 127.71 204.254 131.948 184.629 133.734C170.675 135.003 150.842 129.447 150.842 129.447C147.26 123.416 145.199 116.39 145.199 108.904C145.199 103.342 146.337 98.0331 148.393 93.1966C154.558 78.6903 168.977 68.45 185.671 68.45H197.242C212.422 68.4508 225.722 76.9182 232.643 89.3623Z" fill="#FFD3AA"/>
<path d="M180.899 78.0595H164.98C163.376 78.0595 162.074 77.0853 162.074 75.8838V54.1592C162.074 53.7886 162.191 53.4511 162.392 53.1586C163.17 52.0292 165.216 51.5637 166.739 52.426C172.783 55.8499 182.685 63.293 183.798 75.7362C183.911 76.9928 182.58 78.0595 180.899 78.0595Z" fill="#FFD3AA"/>
<path d="M165.628 78.0598H164.981C163.376 78.0598 162.074 77.0855 162.074 75.884V54.1594C162.074 53.7889 162.191 53.4514 162.392 53.1589C162.46 53.2174 162.527 53.2818 162.589 53.3505C166.047 57.1984 171.031 64.7576 169.627 75.3464C169.421 76.8854 167.694 78.0598 165.628 78.0598Z" fill="#FFBD80"/>
<path d="M157.237 92.5826C157.237 91.2734 158.299 90.2118 159.609 90.2118C160.919 90.2118 161.981 91.2734 161.981 92.5826C161.981 93.8918 160.919 94.9534 159.609 94.9534C158.299 94.9534 157.237 93.8918 157.237 92.5826Z" fill="#3F2A0B"/>
<path d="M204.09 131.659L200.315 156.161C199.813 158.059 201.245 159.917 203.209 159.917H213.13C215.257 159.917 217.205 158.73 218.179 156.84L233.599 126.097L204.09 131.659Z" fill="#FFBD80"/>
<path d="M181.544 134.519L184.436 156.46C184.937 158.254 183.506 160.011 181.544 160.011H171.632C169.507 160.011 167.56 158.889 166.587 157.102L150.708 129.28L165.902 132.947L181.544 134.519Z" fill="#FFBD80"/>
<path d="M247.355 119.899C247.127 119.899 246.898 119.87 246.672 119.81C244.913 119.347 243.907 117.248 244.045 114.331C244.181 111.472 245.377 108.452 247.33 106.048C248.195 104.983 249.191 104.052 250.304 103.264C249.779 102.398 249.07 101.568 248.117 100.853C246.496 99.6372 244.82 99.287 242.995 99.7822C238.091 101.113 233.934 108.121 233.597 108.908C233.444 109.33 232.983 109.555 232.555 109.412C232.121 109.267 231.886 108.798 232.031 108.363C232.177 107.927 233.392 105.835 235.086 103.763C238.04 100.153 240.613 98.7842 242.251 98.2729C244.681 97.514 246.99 97.9355 249.112 99.527C250.164 100.316 251.035 101.275 251.71 102.379C253.393 101.442 255.289 100.791 257.351 100.454C257.804 100.38 258.23 100.686 258.304 101.138C258.378 101.59 258.071 102.017 257.619 102.09C255.727 102.401 253.993 102.998 252.462 103.861C252.932 104.994 253.23 106.245 253.347 107.593C253.588 110.369 253.031 113.401 251.817 115.908C250.583 118.463 248.955 119.898 247.355 119.899ZM251.04 104.781C250.138 105.446 249.327 106.22 248.618 107.093C246.884 109.229 245.821 111.896 245.702 114.41C245.607 116.405 246.179 117.966 247.094 118.207C248.019 118.449 249.348 117.208 250.326 115.186C251.397 112.973 251.909 110.188 251.696 107.737C251.62 106.856 251.435 105.825 251.04 104.781ZM233.604 108.888C233.602 108.893 233.601 108.898 233.599 108.902C233.601 108.897 233.602 108.892 233.604 108.888Z" fill="#FFBD80"/>
<path d="M167.725 112.846C167.725 112.846 166.159 115.05 164.722 115.081C163.286 115.112 161.102 114.059 161.102 114.059C161.102 114.059 159.783 111.122 160.677 109.973C160.677 109.973 161.575 109.58 162.512 110.275C162.674 110.395 162.837 110.546 162.998 110.739C163.225 111.013 163.481 111.168 163.752 111.25C164.777 111.562 165.993 110.829 166.448 111.536C166.714 111.947 167.002 112.257 167.24 112.474C167.52 112.723 167.725 112.846 167.725 112.846Z" fill="#79C7C9"/>
<path d="M147.305 128.746C147.305 128.746 152.841 115.337 162.806 115.081C162.806 115.081 172.006 116.103 172.516 128.746H147.305Z" fill="#79C7C9"/>
<path d="M160.076 115.49C160.076 115.49 164.07 116.378 165.303 115.856C165.303 115.856 165.489 114.186 163.807 114.42C162.655 114.581 161.906 114.028 161.464 113.803C160.841 113.486 159.91 114.792 160.076 115.49Z" fill="#1D9294"/>
<path d="M163.553 112.973C163.298 113.164 162.513 110.273 162.513 110.273C162.674 110.393 162.837 110.544 162.998 110.737C163.226 111.011 163.482 111.166 163.752 111.248C163.755 111.333 163.8 112.786 163.553 112.973Z" fill="#D2ECED"/>
<path d="M167.239 112.472C167.183 112.505 165.336 113.612 165.085 113.612C164.83 113.612 166.447 111.535 166.447 111.535C166.713 111.946 167.002 112.255 167.239 112.472Z" fill="#D2ECED"/>
<path d="M152.713 124.998C152.611 124.91 156.632 119.081 157.738 119.039C158.846 118.997 161.333 120.316 163.134 120.486C164.935 120.657 166.682 120.146 167.022 121.21C167.363 122.274 168.299 126.047 167.725 126.651C167.151 127.254 154.923 126.885 152.713 124.998Z" fill="#E1F2EC"/>
<path d="M172.823 157.727V159.342C172.823 159.471 172.785 159.59 172.721 159.69C172.653 159.794 172.556 159.876 172.442 159.922C172.407 159.937 172.371 159.947 172.333 159.954C172.299 159.961 172.264 159.964 172.228 159.964H147.644C147.327 159.964 147.066 159.701 147.05 159.374C147.05 159.363 147.049 159.353 147.049 159.342V157.727C147.049 157.716 147.049 157.705 147.05 157.695C147.066 157.368 147.327 157.104 147.644 157.104H172.228C172.264 157.104 172.299 157.108 172.333 157.114C172.371 157.121 172.407 157.132 172.442 157.146C172.556 157.192 172.653 157.274 172.721 157.379C172.785 157.479 172.823 157.598 172.823 157.727Z" fill="#FFEB4D"/>
<path d="M160.75 159.964H147.58C147.297 159.964 147.064 159.701 147.05 159.374C147.05 159.363 147.049 159.353 147.049 159.342V157.727C147.049 157.716 147.049 157.705 147.05 157.695C147.064 157.368 147.297 157.104 147.58 157.104H159.133C159.318 157.946 159.748 159.111 160.75 159.964Z" fill="#EAB726"/>
<path d="M169.832 159.964H169.552V157.105H169.832V159.964Z" fill="#EAB726"/>
<path d="M168.886 159.964H168.606V157.105H168.886V159.964Z" fill="#EAB726"/>
<path d="M167.752 159.964H167.472V157.105H167.752V159.964Z" fill="#EAB726"/>
<path d="M166.013 159.964H165.733V157.105H166.013V159.964Z" fill="#EAB726"/>
<path d="M164.175 159.964H163.895V157.105H164.175V159.964Z" fill="#EAB726"/>
<path d="M161.357 159.964H161.077V157.105H161.357V159.964Z" fill="#EAB726"/>
<path d="M158.718 159.964H158.438V157.105H158.718V159.964Z" fill="#EAB726"/>
<path d="M156.361 159.964H156.082V157.105H156.361V159.964Z" fill="#EAB726"/>
<path d="M170.732 159.964H170.453V157.105H170.732V159.964Z" fill="#EAB726"/>
<path d="M171.901 159.964H171.621V157.105H171.901V159.964Z" fill="#EAB726"/>
<path d="M172.721 157.38V159.691C172.653 159.796 172.556 159.878 172.442 159.924V157.148C172.556 157.194 172.653 157.276 172.721 157.38Z" fill="#EAB726"/>
<path d="M170.194 154.867V156.482C170.194 156.611 170.157 156.73 170.092 156.83C170.025 156.934 169.928 157.016 169.813 157.062C169.778 157.077 169.742 157.087 169.704 157.094C169.67 157.101 169.635 157.104 169.599 157.104H145.015C144.698 157.104 144.437 156.841 144.421 156.514C144.421 156.503 144.42 156.493 144.42 156.482V154.867C144.42 154.856 144.42 154.845 144.421 154.835C144.437 154.507 144.698 154.244 145.015 154.244H169.599C169.615 154.244 169.631 154.245 169.646 154.246C169.653 154.246 169.66 154.247 169.666 154.248C169.674 154.249 169.681 154.25 169.689 154.252C169.694 154.252 169.699 154.253 169.704 154.254C169.742 154.261 169.778 154.272 169.813 154.286C169.818 154.288 169.823 154.291 169.829 154.292C169.834 154.294 169.839 154.297 169.844 154.3C169.854 154.304 169.864 154.309 169.874 154.315C169.88 154.317 169.885 154.321 169.891 154.324C169.896 154.328 169.901 154.331 169.906 154.333C169.915 154.34 169.925 154.346 169.934 154.352C169.945 154.359 169.955 154.367 169.965 154.376C169.972 154.382 169.98 154.388 169.987 154.396C169.988 154.396 169.988 154.396 169.989 154.397C169.994 154.402 169.999 154.406 170.004 154.412C170.019 154.426 170.033 154.442 170.047 154.458C170.051 154.462 170.055 154.468 170.059 154.472C170.062 154.476 170.067 154.482 170.07 154.487C170.078 154.498 170.085 154.508 170.092 154.519C170.157 154.619 170.194 154.738 170.194 154.867Z" fill="#FFEB4D"/>
<path d="M158.122 157.104H144.951C144.668 157.104 144.436 156.841 144.421 156.514C144.421 156.503 144.421 156.493 144.421 156.482V154.867C144.421 154.856 144.421 154.845 144.421 154.835C144.436 154.507 144.669 154.244 144.951 154.244H156.504C156.509 154.268 156.515 154.292 156.521 154.315C156.713 155.15 157.146 156.274 158.122 157.104Z" fill="#EAB726"/>
<path d="M167.202 157.104H166.923V154.244H167.202V157.104Z" fill="#EAB726"/>
<path d="M166.257 157.104H165.978V154.244H166.257V157.104Z" fill="#EAB726"/>
<path d="M165.123 157.104H164.843V154.244H165.123V157.104Z" fill="#EAB726"/>
<path d="M163.385 157.104H163.105V154.244H163.385V157.104Z" fill="#EAB726"/>
<path d="M161.546 157.104H161.267V154.244H161.546V157.104Z" fill="#EAB726"/>
<path d="M158.728 157.104H158.448V154.244H158.728V157.104Z" fill="#EAB726"/>
<path d="M156.089 157.104H155.809V154.244H156.089V157.104Z" fill="#EAB726"/>
<path d="M153.732 157.104H153.453V154.244H153.732V157.104Z" fill="#EAB726"/>
<path d="M168.103 157.104H167.824V154.244H168.103V157.104Z" fill="#EAB726"/>
<path d="M169.273 157.104H168.993V154.244H169.273V157.104Z" fill="#EAB726"/>
<path d="M170.092 154.521V156.831C170.025 156.936 169.927 157.018 169.813 157.064V154.288C169.927 154.334 170.025 154.416 170.092 154.521Z" fill="#EAB726"/>
<path d="M171.465 152.078V153.693C171.465 153.822 171.427 153.941 171.363 154.041C171.295 154.145 171.198 154.227 171.084 154.273C171.049 154.288 171.013 154.298 170.975 154.305C170.941 154.312 170.906 154.315 170.87 154.315H146.286C146.187 154.315 146.094 154.289 146.012 154.245C145.838 154.15 145.714 153.967 145.694 153.753C145.693 153.745 145.692 153.735 145.691 153.726C145.691 153.715 145.691 153.704 145.691 153.694V152.079C145.691 152.068 145.691 152.057 145.691 152.047C145.708 151.719 145.969 151.456 146.286 151.456H170.87C170.906 151.456 170.941 151.46 170.975 151.466C171.013 151.473 171.049 151.484 171.084 151.498C171.198 151.544 171.295 151.626 171.363 151.731C171.427 151.83 171.465 151.949 171.465 152.078Z" fill="#FFEB4D"/>
<path d="M159.393 154.315H146.222C146.133 154.315 146.051 154.289 145.977 154.245C145.822 154.15 145.711 153.967 145.693 153.753C145.693 153.745 145.692 153.735 145.691 153.726C145.691 153.715 145.69 153.704 145.69 153.694V152.079C145.69 152.068 145.69 152.057 145.691 152.047C145.705 151.719 145.939 151.456 146.221 151.456H157.775C157.954 152.275 158.366 153.4 159.311 154.246C159.338 154.268 159.365 154.292 159.393 154.315Z" fill="#EAB726"/>
<path d="M168.473 154.316H168.194V151.456H168.473V154.316Z" fill="#EAB726"/>
<path d="M167.528 154.316H167.249V151.456H167.528V154.316Z" fill="#EAB726"/>
<path d="M166.393 154.316H166.114V151.456H166.393V154.316Z" fill="#EAB726"/>
<path d="M164.655 154.316H164.375V151.456H164.655V154.316Z" fill="#EAB726"/>
<path d="M162.817 154.316H162.537V151.456H162.817V154.316Z" fill="#EAB726"/>
<path d="M159.998 154.316H159.719V151.456H159.998V154.316Z" fill="#EAB726"/>
<path d="M157.36 154.316H157.08V151.456H157.36V154.316Z" fill="#EAB726"/>
<path d="M155.003 154.316H154.724V151.456H155.003V154.316Z" fill="#EAB726"/>
<path d="M169.374 154.316H169.095V151.456H169.374V154.316Z" fill="#EAB726"/>
<path d="M170.543 154.316H170.264V151.456H170.543V154.316Z" fill="#EAB726"/>
<path d="M171.363 151.733V154.043C171.295 154.148 171.198 154.23 171.084 154.276V151.5C171.197 151.546 171.295 151.628 171.363 151.733Z" fill="#EAB726"/>
<path d="M172.054 149.218V150.833C172.054 150.962 172.016 151.081 171.952 151.18C171.884 151.285 171.787 151.367 171.673 151.413C171.638 151.427 171.601 151.438 171.564 151.445C171.529 151.451 171.494 151.455 171.459 151.455H146.875C146.558 151.455 146.297 151.192 146.28 150.865C146.28 150.854 146.28 150.843 146.28 150.833V149.218C146.28 149.207 146.28 149.196 146.28 149.186C146.295 148.882 146.52 148.635 146.804 148.6C146.827 148.597 146.85 148.595 146.875 148.595H171.459C171.494 148.595 171.529 148.599 171.564 148.605C171.601 148.612 171.638 148.623 171.673 148.637C171.787 148.683 171.884 148.765 171.952 148.87C172.016 148.97 172.054 149.089 172.054 149.218Z" fill="#FFEB4D"/>
<path d="M159.981 151.455H146.811C146.528 151.455 146.295 151.192 146.281 150.865C146.281 150.854 146.28 150.843 146.28 150.833V149.218C146.28 149.207 146.28 149.196 146.281 149.186C146.294 148.882 146.495 148.635 146.748 148.6C146.769 148.597 146.789 148.595 146.811 148.595H158.364C158.364 148.597 158.365 148.599 158.365 148.6C158.55 149.441 158.98 150.603 159.981 151.455Z" fill="#EAB726"/>
<path d="M169.062 151.455H168.782V148.595H169.062V151.455Z" fill="#EAB726"/>
<path d="M168.116 151.455H167.836V148.595H168.116V151.455Z" fill="#EAB726"/>
<path d="M166.982 151.455H166.702V148.595H166.982V151.455Z" fill="#EAB726"/>
<path d="M165.244 151.455H164.964V148.595H165.244V151.455Z" fill="#EAB726"/>
<path d="M163.405 151.455H163.125V148.595H163.405V151.455Z" fill="#EAB726"/>
<path d="M160.586 151.455H160.307V148.595H160.586V151.455Z" fill="#EAB726"/>
<path d="M157.948 151.455H157.668V148.595H157.948V151.455Z" fill="#EAB726"/>
<path d="M155.592 151.455H155.312V148.595H155.592V151.455Z" fill="#EAB726"/>
<path d="M170.557 151.455H170.278V148.595H170.557V151.455Z" fill="#EAB726"/>
<path d="M171.563 148.605V151.445C171.529 151.451 171.494 151.455 171.458 151.455H171.283V148.595H171.458C171.495 148.594 171.529 148.598 171.563 148.605Z" fill="#EAB726"/>
<path d="M170.245 146.363V147.978C170.245 148.107 170.207 148.226 170.143 148.325C170.075 148.43 169.978 148.512 169.864 148.558C169.829 148.573 169.793 148.583 169.755 148.59C169.744 148.592 169.732 148.595 169.721 148.596C169.714 148.597 169.708 148.598 169.702 148.598C169.695 148.598 169.689 148.598 169.682 148.599C169.672 148.6 169.661 148.6 169.651 148.6H145.067C144.75 148.6 144.489 148.337 144.472 148.01C144.472 147.999 144.472 147.989 144.472 147.978V146.363C144.472 146.352 144.472 146.341 144.472 146.331C144.472 146.322 144.473 146.313 144.474 146.305C144.497 146.042 144.68 145.824 144.92 145.76C144.925 145.758 144.932 145.756 144.938 145.755C144.979 145.746 145.022 145.74 145.066 145.74H169.651C169.669 145.74 169.687 145.741 169.704 145.743C169.712 145.744 169.72 145.745 169.728 145.746C169.737 145.747 169.746 145.749 169.756 145.75C169.794 145.757 169.83 145.768 169.865 145.782C169.979 145.828 170.076 145.91 170.144 146.015C170.208 146.115 170.245 146.234 170.245 146.363Z" fill="#FFEB4D"/>
<path d="M158.174 148.599H145.003C144.721 148.599 144.487 148.336 144.473 148.009C144.472 147.998 144.472 147.988 144.472 147.977V146.362C144.472 146.351 144.472 146.34 144.473 146.33C144.473 146.321 144.474 146.312 144.475 146.304C144.496 146.035 144.666 145.813 144.886 145.755C144.894 145.753 144.901 145.751 144.909 145.75C144.94 145.744 144.971 145.74 145.003 145.74H156.557C156.558 145.747 156.559 145.754 156.561 145.761C156.747 146.6 157.177 147.749 158.168 148.596C158.17 148.596 158.172 148.597 158.174 148.599Z" fill="#EAB726"/>
<path d="M167.254 148.598H166.975V145.739H167.254V148.598Z" fill="#EAB726"/>
<path d="M166.309 148.598H166.029V145.739H166.309V148.598Z" fill="#EAB726"/>
<path d="M165.174 148.598H164.894V145.739H165.174V148.598Z" fill="#EAB726"/>
<path d="M163.435 148.598H163.156V145.739H163.435V148.598Z" fill="#EAB726"/>
<path d="M161.597 148.598H161.317V145.739H161.597V148.598Z" fill="#EAB726"/>
<path d="M158.779 148.598H158.5V145.739H158.779V148.598Z" fill="#EAB726"/>
<path d="M156.14 148.598H155.861V145.739H156.14V148.598Z" fill="#EAB726"/>
<path d="M153.784 148.598H153.504V145.739H153.784V148.598Z" fill="#EAB726"/>
<path d="M168.749 148.598H168.47V145.739H168.749V148.598Z" fill="#EAB726"/>
<path d="M169.756 145.749V148.589C169.722 148.595 169.687 148.599 169.651 148.599H169.476V145.739H169.651C169.687 145.738 169.722 145.742 169.756 145.749Z" fill="#EAB726"/>
<path d="M170.287 143.505V145.223C170.287 145.36 170.249 145.487 170.184 145.593C170.116 145.705 170.019 145.792 169.904 145.841C169.877 145.853 169.848 145.862 169.819 145.869H169.818C169.811 145.871 169.803 145.873 169.795 145.875C169.76 145.881 169.725 145.885 169.69 145.885H145.017C144.991 145.885 144.965 145.883 144.94 145.879C144.93 145.879 144.92 145.877 144.911 145.875C144.642 145.821 144.435 145.567 144.421 145.257C144.421 145.246 144.42 145.235 144.42 145.223V143.505C144.42 143.494 144.42 143.483 144.421 143.471C144.437 143.123 144.699 142.843 145.017 142.843H169.69C169.705 142.843 169.721 142.844 169.737 142.845C169.743 142.846 169.75 142.847 169.757 142.847C169.764 142.848 169.772 142.849 169.779 142.85C169.784 142.851 169.79 142.852 169.795 142.853C169.833 142.86 169.869 142.872 169.904 142.887C169.909 142.889 169.914 142.892 169.92 142.893C169.925 142.895 169.93 142.898 169.935 142.901C169.945 142.906 169.955 142.911 169.965 142.917C169.976 142.924 169.987 142.93 169.997 142.938C170.007 142.945 170.016 142.95 170.025 142.958C170.036 142.965 170.046 142.974 170.056 142.983C170.064 142.99 170.072 142.997 170.079 143.004C170.08 143.004 170.08 143.005 170.08 143.006C170.085 143.011 170.09 143.015 170.095 143.021C170.11 143.036 170.125 143.053 170.138 143.07C170.143 143.075 170.147 143.081 170.151 143.085C170.154 143.091 170.158 143.096 170.162 143.102C170.17 143.113 170.177 143.124 170.184 143.136C170.249 143.241 170.287 143.369 170.287 143.505Z" fill="#FFEB4D"/>
<path d="M158.114 145.885H144.951C144.941 145.885 144.931 145.885 144.92 145.884C144.909 145.883 144.897 145.882 144.886 145.88C144.633 145.842 144.434 145.579 144.421 145.257C144.421 145.246 144.42 145.235 144.42 145.223V143.505C144.42 143.494 144.42 143.483 144.421 143.471C144.435 143.123 144.668 142.843 144.951 142.843H156.497C156.502 142.868 156.507 142.894 156.513 142.918C156.704 143.799 157.132 144.982 158.09 145.863C158.099 145.871 158.106 145.879 158.114 145.885Z" fill="#EAB726"/>
<path d="M167.402 145.886H167.104V142.9H167.402V145.886Z" fill="#EAB726"/>
<path d="M166.392 145.886H166.094V142.9H166.392V145.886Z" fill="#EAB726"/>
<path d="M165.181 145.886H164.882V142.9H165.181V145.886Z" fill="#EAB726"/>
<path d="M163.325 145.886H163.026V142.9H163.325V145.886Z" fill="#EAB726"/>
<path d="M161.361 145.886H161.062V142.9H161.361V145.886Z" fill="#EAB726"/>
<path d="M158.351 145.886H158.052V142.9H158.351V145.886Z" fill="#EAB726"/>
<path d="M156.089 145.695H155.809V142.899H156.089V145.695Z" fill="#EAB726"/>
<path d="M153.733 145.695H153.453V142.899H153.733V145.695Z" fill="#EAB726"/>
<path d="M169 145.886H168.701V142.9H169V145.886Z" fill="#EAB726"/>
<path d="M170.074 142.911V145.876C170.037 145.882 170 145.886 169.962 145.886H169.775V142.9H169.962C170 142.899 170.037 142.903 170.074 142.911Z" fill="#EAB726"/>
<path d="M171.465 140.734V142.349C171.465 142.478 171.427 142.597 171.363 142.697C171.295 142.802 171.198 142.884 171.084 142.93C171.049 142.944 171.013 142.955 170.975 142.962C170.941 142.968 170.906 142.972 170.87 142.972H146.286C146.187 142.972 146.094 142.946 146.012 142.901C145.838 142.806 145.714 142.623 145.694 142.409C145.693 142.4 145.692 142.39 145.691 142.381C145.691 142.371 145.691 142.36 145.691 142.349V140.734C145.691 140.723 145.691 140.713 145.691 140.702C145.708 140.375 145.969 140.112 146.286 140.112H170.87C170.906 140.112 170.941 140.115 170.975 140.122C171.013 140.129 171.049 140.139 171.084 140.154C171.198 140.2 171.295 140.282 171.363 140.386C171.427 140.485 171.465 140.605 171.465 140.734Z" fill="#FFEB4D"/>
<path d="M159.446 143.034H146.1C146.01 143.034 145.927 143.007 145.852 142.96C145.695 142.859 145.583 142.664 145.564 142.436C145.564 142.426 145.563 142.416 145.562 142.407C145.562 142.395 145.562 142.384 145.562 142.372V140.654C145.562 140.643 145.562 140.632 145.562 140.62C145.577 140.272 145.813 139.993 146.099 139.993H157.806C157.988 140.863 158.406 142.06 159.363 142.96C159.391 142.984 159.418 143.009 159.446 143.034Z" fill="#EAB726"/>
<path d="M168.474 142.972H168.194V140.112H168.474V142.972Z" fill="#EAB726"/>
<path d="M167.528 142.972H167.249V140.112H167.528V142.972Z" fill="#EAB726"/>
<path d="M166.393 142.972H166.114V140.112H166.393V142.972Z" fill="#EAB726"/>
<path d="M164.655 142.972H164.375V140.112H164.655V142.972Z" fill="#EAB726"/>
<path d="M162.817 142.972H162.537V140.112H162.817V142.972Z" fill="#EAB726"/>
<path d="M159.998 142.972H159.719V140.112H159.998V142.972Z" fill="#EAB726"/>
<path d="M157.36 142.972H157.08V140.112H157.36V142.972Z" fill="#EAB726"/>
<path d="M155.003 142.972H154.724V140.112H155.003V142.972Z" fill="#EAB726"/>
<path d="M169.969 142.972H169.689V140.112H169.969V142.972Z" fill="#EAB726"/>
<path d="M170.975 140.125V142.965C170.941 142.972 170.906 142.975 170.87 142.975H170.695V140.115H170.87C170.906 140.114 170.941 140.118 170.975 140.125Z" fill="#EAB726"/>
<path d="M173.11 137.934V139.504C173.11 139.629 173.073 139.745 173.011 139.842C172.945 139.944 172.851 140.023 172.74 140.068C172.706 140.082 172.67 140.092 172.634 140.099C172.6 140.105 172.566 140.109 172.532 140.109H148.642C148.334 140.109 148.08 139.853 148.064 139.535C148.064 139.525 148.064 139.514 148.064 139.504V137.934C148.064 137.924 148.064 137.914 148.064 137.903C148.079 137.609 148.297 137.369 148.573 137.334C148.595 137.331 148.618 137.33 148.642 137.33H172.532C172.566 137.33 172.6 137.333 172.634 137.339C172.67 137.346 172.706 137.357 172.74 137.37C172.851 137.415 172.945 137.495 173.011 137.597C173.073 137.693 173.11 137.81 173.11 137.934Z" fill="#FFEB4D"/>
<path d="M161.355 140.19H148.184C147.902 140.19 147.669 139.926 147.654 139.599C147.654 139.589 147.654 139.578 147.654 139.567V137.952C147.654 137.941 147.654 137.931 147.654 137.92C147.667 137.617 147.868 137.37 148.122 137.334C148.142 137.332 148.163 137.33 148.184 137.33H159.738C159.738 137.332 159.738 137.332 159.738 137.334C159.923 138.176 160.353 139.338 161.355 140.19Z" fill="#EAB726"/>
<path d="M170.483 140.108H170.203V137.248H170.483V140.108Z" fill="#EAB726"/>
<path d="M169.537 140.108H169.258V137.248H169.537V140.108Z" fill="#EAB726"/>
<path d="M168.403 140.108H168.124V137.248H168.403V140.108Z" fill="#EAB726"/>
<path d="M166.664 140.108H166.385V137.248H166.664V140.108Z" fill="#EAB726"/>
<path d="M164.826 140.108H164.546V137.248H164.826V140.108Z" fill="#EAB726"/>
<path d="M162.008 140.108H161.728V137.248H162.008V140.108Z" fill="#EAB726"/>
<path d="M159.369 140.108H159.09V137.248H159.369V140.108Z" fill="#EAB726"/>
<path d="M157.013 140.108H156.733V137.248H157.013V140.108Z" fill="#EAB726"/>
<path d="M171.978 140.108H171.698V137.248H171.978V140.108Z" fill="#EAB726"/>
<path d="M172.984 137.259V140.099C172.95 140.105 172.915 140.109 172.879 140.109H172.704V137.249H172.879C172.915 137.249 172.95 137.253 172.984 137.259Z" fill="#EAB726"/>
<path d="M170.589 135.034V136.692C170.589 136.824 170.55 136.947 170.484 137.049C170.415 137.157 170.315 137.241 170.198 137.288C170.162 137.303 170.125 137.314 170.086 137.321C170.074 137.323 170.062 137.325 170.051 137.326C170.041 137.328 170.031 137.328 170.022 137.329C170.018 137.329 170.012 137.33 170.008 137.33C169.999 137.33 169.988 137.331 169.978 137.331H144.738C144.413 137.331 144.145 137.061 144.128 136.725C144.127 136.714 144.127 136.703 144.127 136.692V135.034C144.127 135.023 144.127 135.012 144.128 135.001C144.145 134.665 144.413 134.395 144.738 134.395H169.979C169.99 134.395 170 134.395 170.011 134.396C170.037 134.397 170.062 134.4 170.086 134.405C170.125 134.412 170.163 134.423 170.198 134.438C170.217 134.445 170.234 134.453 170.251 134.462C170.262 134.468 170.272 134.473 170.283 134.48C170.283 134.48 170.285 134.481 170.286 134.481C170.297 134.488 170.307 134.494 170.317 134.502C170.319 134.502 170.321 134.504 170.322 134.505C170.332 134.512 170.341 134.519 170.349 134.526C170.371 134.544 170.391 134.562 170.41 134.582C170.416 134.588 170.422 134.595 170.428 134.601C170.428 134.602 170.43 134.603 170.431 134.605C170.434 134.608 170.438 134.612 170.441 134.617C170.442 134.617 170.442 134.618 170.443 134.619C170.449 134.627 170.456 134.635 170.461 134.643C170.469 134.654 170.478 134.666 170.485 134.678C170.551 134.779 170.589 134.902 170.589 135.034Z" fill="#FFEB4D"/>
<path d="M158.356 137.357H144.594C144.299 137.357 144.055 137.082 144.04 136.741C144.039 136.729 144.039 136.718 144.039 136.707V135.019C144.039 135.008 144.039 134.997 144.04 134.986C144.055 134.644 144.299 134.369 144.594 134.369H156.666C156.671 134.391 156.676 134.415 156.682 134.438C156.882 135.31 157.333 136.484 158.351 137.353C158.352 137.355 158.354 137.356 158.356 137.357Z" fill="#EAB726"/>
<path d="M167.403 137.331H167.116V134.396H167.403V137.331Z" fill="#EAB726"/>
<path d="M166.433 137.331H166.146V134.396H166.433V137.331Z" fill="#EAB726"/>
<path d="M165.268 137.331H164.98V134.396H165.268V137.331Z" fill="#EAB726"/>
<path d="M163.483 137.331H163.196V134.396H163.483V137.331Z" fill="#EAB726"/>
<path d="M161.596 137.331H161.309V134.396H161.596V137.331Z" fill="#EAB726"/>
<path d="M158.704 137.331H158.417V134.396H158.704V137.331Z" fill="#EAB726"/>
<path d="M155.995 137.331H155.708V134.396H155.995V137.331Z" fill="#EAB726"/>
<path d="M153.576 137.331H153.289V134.396H153.576V137.331Z" fill="#EAB726"/>
<path d="M168.938 137.331H168.651V134.396H168.938V137.331Z" fill="#EAB726"/>
<path d="M169.971 134.405V137.32C169.936 137.327 169.9 137.33 169.864 137.33H169.684V134.395H169.864C169.9 134.395 169.936 134.398 169.971 134.405Z" fill="#EAB726"/>
<path d="M172.054 132.225V133.84C172.054 133.969 172.016 134.088 171.952 134.188C171.884 134.293 171.787 134.374 171.673 134.421C171.638 134.435 171.601 134.445 171.564 134.453C171.529 134.459 171.494 134.462 171.459 134.462H146.875C146.779 134.462 146.689 134.438 146.609 134.397C146.43 134.302 146.302 134.116 146.282 133.898C146.282 133.89 146.281 133.881 146.281 133.872C146.281 133.861 146.28 133.851 146.28 133.84V132.225C146.28 132.214 146.28 132.203 146.281 132.193C146.296 131.89 146.521 131.643 146.805 131.607C146.828 131.604 146.851 131.603 146.875 131.603H171.459C171.495 131.603 171.53 131.606 171.564 131.612C171.602 131.619 171.639 131.63 171.673 131.644C171.788 131.691 171.885 131.772 171.952 131.877C172.016 131.976 172.054 132.096 172.054 132.225Z" fill="#FFEB4D"/>
<path d="M159.981 134.46H146.811C146.726 134.46 146.645 134.436 146.574 134.394C146.413 134.3 146.3 134.114 146.282 133.896C146.281 133.888 146.281 133.879 146.281 133.87C146.281 133.859 146.28 133.849 146.28 133.838V132.223C146.28 132.212 146.28 132.201 146.281 132.191C146.294 131.888 146.495 131.64 146.748 131.605C146.769 131.602 146.789 131.6 146.811 131.6H158.364C158.364 131.602 158.365 131.604 158.365 131.605C158.545 132.425 158.958 133.549 159.906 134.394C159.93 134.417 159.956 134.439 159.981 134.46Z" fill="#EAB726"/>
<path d="M169.062 134.461H168.783V131.602H169.062V134.461Z" fill="#EAB726"/>
<path d="M168.117 134.461H167.837V131.602H168.117V134.461Z" fill="#EAB726"/>
<path d="M166.982 134.461H166.703V131.602H166.982V134.461Z" fill="#EAB726"/>
<path d="M165.245 134.461H164.965V131.602H165.245V134.461Z" fill="#EAB726"/>
<path d="M163.406 134.461H163.126V131.602H163.406V134.461Z" fill="#EAB726"/>
<path d="M160.587 134.461H160.308V131.602H160.587V134.461Z" fill="#EAB726"/>
<path d="M157.948 134.461H157.668V131.602H157.948V134.461Z" fill="#EAB726"/>
<path d="M155.592 134.461H155.312V131.602H155.592V134.461Z" fill="#EAB726"/>
<path d="M169.963 134.461H169.683V131.602H169.963V134.461Z" fill="#EAB726"/>
<path d="M171.132 134.461H170.852V131.602H171.132V134.461Z" fill="#EAB726"/>
<path d="M171.952 131.877V134.188C171.884 134.293 171.787 134.375 171.673 134.421V131.645C171.787 131.69 171.884 131.773 171.952 131.877Z" fill="#EAB726"/>
<path d="M172.823 129.368V130.983C172.823 131.112 172.785 131.231 172.721 131.331C172.653 131.436 172.556 131.517 172.442 131.564C172.407 131.578 172.371 131.588 172.333 131.596C172.322 131.597 172.31 131.6 172.299 131.601C172.292 131.602 172.286 131.603 172.28 131.603C172.273 131.604 172.267 131.604 172.26 131.604C172.25 131.605 172.239 131.605 172.229 131.605H147.645C147.328 131.605 147.067 131.342 147.051 131.015C147.051 131.004 147.05 130.994 147.05 130.983V129.368C147.05 129.357 147.05 129.347 147.051 129.336C147.067 129.009 147.328 128.746 147.645 128.746H172.229C172.265 128.746 172.3 128.749 172.334 128.755C172.372 128.762 172.408 128.773 172.443 128.787C172.557 128.834 172.654 128.915 172.722 129.02C172.785 129.12 172.823 129.24 172.823 129.368Z" fill="#FFEB4D"/>
<path d="M160.75 131.605H147.58C147.297 131.605 147.064 131.342 147.05 131.015C147.05 131.004 147.049 130.994 147.049 130.983V129.368C147.049 129.357 147.049 129.347 147.05 129.336C147.064 129.009 147.297 128.746 147.58 128.746H159.133C159.317 129.587 159.746 130.748 160.745 131.601C160.747 131.603 160.749 131.604 160.75 131.605Z" fill="#EAB726"/>
<path d="M169.832 131.608H169.553V128.748H169.832V131.608Z" fill="#EAB726"/>
<path d="M168.887 131.608H168.607V128.748H168.887V131.608Z" fill="#EAB726"/>
<path d="M167.752 131.608H167.473V128.748H167.752V131.608Z" fill="#EAB726"/>
<path d="M166.014 131.608H165.734V128.748H166.014V131.608Z" fill="#EAB726"/>
<path d="M164.175 131.608H163.895V128.748H164.175V131.608Z" fill="#EAB726"/>
<path d="M161.357 131.608H161.078V128.748H161.357V131.608Z" fill="#EAB726"/>
<path d="M158.718 131.608H158.438V128.748H158.718V131.608Z" fill="#EAB726"/>
<path d="M156.082 128.746H156.361V131.606H156.082V128.746Z" fill="#EAB726"/>
<path d="M171.327 131.608H171.047V128.748H171.327V131.608Z" fill="#EAB726"/>
<path d="M172.333 128.757V131.598C172.299 131.604 172.264 131.607 172.229 131.607H172.054V128.748H172.229C172.264 128.748 172.299 128.751 172.333 128.757Z" fill="#EAB726"/>
<path d="M201.907 58.2404C205.819 54.3301 205.819 47.9904 201.907 44.0801C197.995 40.1699 191.652 40.1699 187.74 44.0801C183.828 47.9904 183.828 54.3301 187.74 58.2404C191.652 62.1506 197.995 62.1506 201.907 58.2404Z" fill="#EAB726"/>
<path d="M199.312 60.1327C199.188 60.2077 199.063 60.281 198.935 60.3513C198.892 60.375 198.849 60.3986 198.806 60.4211C198.707 60.4736 198.608 60.5243 198.509 60.5739C193.738 62.9158 187.919 61.1183 185.326 56.416C182.852 51.9312 184.182 46.376 188.241 43.4586C188.564 43.2256 188.905 43.01 189.263 42.8127C189.391 42.7418 189.521 42.6743 189.651 42.6098C189.777 42.5469 189.905 42.4869 190.033 42.4298C190.425 42.2551 190.823 42.108 191.226 41.9875C191.824 41.8076 192.431 41.6859 193.04 41.6219C194.927 41.4224 196.825 41.7667 198.509 42.5902C200.295 43.4632 201.839 44.875 202.872 46.748C205.472 51.4635 203.87 57.3612 199.312 60.1327Z" fill="#FFEB4D"/>
<path d="M194.169 60.6609C193.331 60.6609 192.489 60.5427 191.662 60.3034C189.359 59.6373 187.453 58.1149 186.296 56.0163C185.139 53.9178 184.868 51.494 185.534 49.1919C186.201 46.8898 187.724 44.985 189.823 43.8282C194.158 41.4396 199.628 43.0214 202.017 47.354C204.406 51.6866 202.824 57.1541 198.49 59.5421C197.143 60.2832 195.664 60.6609 194.169 60.6609ZM194.141 42.9562C192.717 42.9562 191.273 43.3045 189.939 44.0392C187.896 45.1649 186.414 47.0184 185.766 49.2582C185.117 51.498 185.381 53.8566 186.507 55.8987C187.633 57.9407 189.488 59.4222 191.728 60.0704C193.969 60.7186 196.329 60.455 198.372 59.3293C202.589 57.0053 204.129 51.6854 201.804 47.4699C200.215 44.5877 197.223 42.9562 194.141 42.9562Z" fill="#EAB726"/>
<path d="M198.571 52.5562C198.551 52.5066 198.53 52.4593 198.509 52.412C198.346 52.0551 198.144 51.7656 197.901 51.5441C197.626 51.2944 197.308 51.1064 196.944 50.9818C196.581 50.8567 196.176 50.7806 195.729 50.7535C195.282 50.7258 194.795 50.72 194.27 50.7345C193.945 50.7443 193.667 50.7385 193.436 50.7177C193.206 50.697 193.01 50.6543 192.849 50.5897C192.688 50.5251 192.558 50.4369 192.458 50.3244C192.357 50.2126 192.275 50.0759 192.209 49.9138C192.143 49.7524 192.106 49.592 192.096 49.4329C192.086 49.2743 192.11 49.1232 192.167 48.9802C192.224 48.8377 192.317 48.7057 192.446 48.5846C192.575 48.4635 192.745 48.3597 192.957 48.2738C193.348 48.1152 193.713 48.1186 194.052 48.2841C194.39 48.4496 194.666 48.7951 194.879 49.3193L196.92 48.4912C196.742 48.0546 196.519 47.685 196.252 47.3839C195.984 47.0829 195.683 46.8499 195.347 46.6856C195.012 46.5212 194.647 46.4255 194.251 46.3972C193.856 46.3696 193.445 46.4111 193.019 46.523L192.441 45.1003L191.311 45.5587L191.881 46.9618C191.473 47.1734 191.128 47.4191 190.844 47.6994C190.561 47.9802 190.343 48.2836 190.19 48.61C190.037 48.9369 189.958 49.2801 189.95 49.6393C189.943 49.9986 190.014 50.3642 190.165 50.7356C190.34 51.1641 190.564 51.5032 190.838 51.7534C191.113 52.0037 191.431 52.19 191.794 52.3128C192.156 52.4357 192.561 52.5095 193.01 52.5331C193.458 52.5573 193.946 52.5568 194.473 52.5314C194.779 52.5141 195.044 52.5158 195.269 52.5366C195.494 52.5573 195.688 52.6006 195.852 52.6663C196.016 52.7327 196.152 52.8249 196.261 52.9437C196.369 53.0625 196.461 53.2136 196.535 53.3976C196.601 53.5596 196.633 53.7205 196.633 53.8814C196.632 54.0423 196.597 54.1957 196.524 54.3422C196.452 54.4886 196.344 54.6242 196.2 54.7487C196.055 54.8733 195.873 54.98 195.652 55.0705C195.459 55.1489 195.259 55.2003 195.053 55.2262C194.846 55.2516 194.645 55.2314 194.449 55.1657C194.252 55.1005 194.068 54.9817 193.897 54.8093C193.726 54.6374 193.577 54.3958 193.451 54.0855L191.41 54.9125C191.623 55.4367 191.89 55.8531 192.212 56.1599C192.534 56.4672 192.887 56.687 193.27 56.819C193.653 56.9516 194.053 57.0093 194.471 56.992C194.889 56.9753 195.302 56.9072 195.709 56.7879L196.235 58.086L197.358 57.6304L196.828 56.3259C197.236 56.1149 197.585 55.8709 197.876 55.5947C198.146 55.3392 198.356 55.0647 198.509 54.7695C198.521 54.7458 198.533 54.7216 198.544 54.6974C198.698 54.3756 198.78 54.0342 198.79 53.6738C198.8 53.3134 198.727 52.9408 198.571 52.5562Z" fill="#EAB726"/>
<path d="M236.59 62.0676C236.736 61.9885 236.869 61.8951 236.988 61.7889L236.989 61.7875C237.078 61.7089 237.159 61.6234 237.234 61.5307L237.603 61.1438L237.527 61.0597C238.412 59.1805 237.308 55.5916 234.583 52.1238C231.289 47.9321 226.852 45.4737 224.565 46.5407L224.46 46.4234L223.939 46.9791C223.912 47.0064 223.887 47.0334 223.863 47.0617L223.848 47.0774L223.845 47.0815C223.725 47.2214 223.621 47.3763 223.535 47.5476L223.534 47.5504C222.594 49.4131 223.692 53.04 226.448 56.5461C229.801 60.8171 234.342 63.2882 236.59 62.0676Z" fill="#EAB726"/>
<path d="M235.111 51.5373C238.467 55.8067 239.364 60.2593 237.118 61.4798C234.87 62.7016 230.329 60.2292 226.973 55.9598C223.617 51.6904 222.72 47.2378 224.966 46.0174C227.214 44.7955 231.756 47.2665 235.111 51.5373Z" fill="#FFEB4D"/>
<path d="M227.528 55.793C228.932 57.385 230.615 58.6791 232.266 59.4371C233.955 60.2131 235.425 60.3362 236.403 59.7837C236.902 59.5021 237.242 59.0698 237.412 58.4994C237.918 56.811 236.852 54.1407 234.695 51.6964C233.291 50.1044 231.608 48.8103 229.957 48.0523C228.268 47.2763 226.798 47.1532 225.82 47.7057C225.321 47.9873 224.981 48.4195 224.811 48.99C224.721 49.2875 224.682 49.6158 224.688 49.9672C224.714 51.6138 225.75 53.7805 227.528 55.793ZM237.057 58.4697C236.916 58.9415 236.643 59.2958 236.244 59.5196C235.402 59.9948 234.029 59.8572 232.476 59.1442C230.862 58.4021 229.213 57.1319 227.833 55.5688C226.113 53.6201 225.082 51.4707 225.055 49.8973C225.05 49.58 225.086 49.2852 225.165 49.0211C225.306 48.5493 225.58 48.196 225.978 47.9713C226.819 47.496 228.192 47.6337 229.745 48.3467C231.359 49.0887 233.009 50.3589 234.389 51.922C236.109 53.8708 237.14 56.0201 237.166 57.5935C237.172 57.9108 237.136 58.2057 237.057 58.4697Z" fill="#EAB726"/>
<path d="M229.649 51.8851C229.628 51.7887 229.63 51.7019 229.656 51.6276C229.682 51.5533 229.732 51.4927 229.805 51.4468C229.879 51.3996 229.98 51.3717 230.106 51.3609C230.217 51.3527 230.336 51.3606 230.462 51.386C230.589 51.4114 230.717 51.464 230.85 51.5433C230.982 51.6216 231.114 51.731 231.246 51.8694C231.377 52.0078 231.502 52.1835 231.623 52.396L232.795 52.3015C232.591 51.9413 232.367 51.637 232.123 51.3871C231.88 51.1372 231.628 50.9336 231.371 50.7774C231.113 50.6211 230.853 50.5064 230.592 50.4331C230.332 50.3599 230.082 50.3186 229.842 50.3106L229.337 49.42L228.693 49.4712L229.201 50.3663C228.972 50.4127 228.786 50.491 228.64 50.5988C228.494 50.7078 228.395 50.8443 228.34 51.0083C228.287 51.1721 228.28 51.362 228.323 51.5788C228.365 51.7943 228.461 52.0348 228.61 52.299C228.775 52.5893 228.96 52.8389 229.167 53.0448C229.373 53.2509 229.599 53.4273 229.844 53.5758C230.089 53.7242 230.355 53.8504 230.639 53.956C230.923 54.0617 231.23 54.1624 231.558 54.2582C231.761 54.3173 231.937 54.3758 232.084 54.434C232.231 54.4923 232.36 54.5573 232.47 54.6292C232.58 54.6998 232.673 54.7794 232.752 54.8677C232.83 54.9549 232.9 55.0546 232.964 55.1654C233.027 55.2762 233.072 55.3813 233.099 55.4793C233.127 55.5773 233.132 55.6639 233.115 55.7393C233.098 55.8146 233.057 55.8751 232.992 55.9233C232.927 55.9715 232.834 55.9993 232.713 56.0094C232.488 56.0277 232.259 55.953 232.024 55.7854C231.789 55.6179 231.569 55.3541 231.366 54.9939L230.193 55.0884C230.363 55.3879 230.553 55.6555 230.761 55.8911C230.97 56.1267 231.19 56.328 231.424 56.4945C231.657 56.661 231.899 56.7912 232.151 56.8871C232.404 56.983 232.655 57.039 232.909 57.0571L233.463 58.0334L234.112 57.9815L233.565 57.019C233.794 56.9726 233.977 56.8923 234.119 56.7789C234.259 56.6658 234.355 56.5262 234.408 56.3586C234.46 56.1913 234.465 55.9992 234.422 55.7839C234.378 55.5673 234.284 55.3328 234.139 55.0779C233.972 54.7841 233.786 54.5335 233.58 54.3286C233.375 54.1237 233.149 53.9458 232.905 53.7999C232.66 53.6539 232.396 53.5275 232.11 53.4246C231.825 53.3204 231.519 53.2232 231.191 53.1336C231.001 53.0824 230.834 53.0287 230.689 52.9713C230.545 52.9138 230.417 52.8487 230.305 52.7759C230.193 52.703 230.095 52.6206 230.011 52.5268C229.927 52.4332 229.849 52.3235 229.778 52.1977C229.713 52.0859 229.671 51.9828 229.649 51.8851Z" fill="#EAB726"/>
</svg>
