<?xml version="1.0" encoding="utf-8"?>
<!-- Generator: Adobe Illustrator 24.2.1, SVG Export Plug-In . SVG Version: 6.00 Build 0)  -->
<svg version="1.1" id="Capa_1" xmlns="http://www.w3.org/2000/svg" xmlns:xlink="http://www.w3.org/1999/xlink" x="0px" y="0px"
	 viewBox="0 0 21 21" style="enable-background:new 0 0 21 21;" xml:space="preserve">
<style type="text/css">
	.st0{fill:#00BB2D;}
</style>
<path class="st0" d="M15.3,12.5L15.3,12.5c-1.9-0.9-2.1-1-2.4-0.6c-0.2,0.3-0.7,0.8-0.8,1c-0.2,0.2-0.3,0.2-0.6,0.1
	c-0.3-0.1-1.1-0.4-2.1-1.3C8.7,11,8.1,10.1,8,9.8C7.7,9.4,8.3,9.3,8.8,8.4c0.1-0.2,0-0.3,0-0.5C8.7,7.8,8.1,6.5,7.9,6
	C7.7,5.5,7.5,5.6,7.3,5.6c-0.5,0-0.9,0-1.2,0.3C4.7,7.4,5.1,9,6.3,10.7c2.4,3.1,3.6,3.7,6,4.5c0.6,0.2,1.2,0.2,1.6,0.1
	c0.5-0.1,1.5-0.6,1.8-1.2c0.2-0.6,0.2-1.1,0.2-1.2C15.8,12.7,15.6,12.6,15.3,12.5z"/>
<path class="st0" d="M18,3C11.2-3.5,0.1,1.2,0.1,10.4c0,1.8,0.5,3.6,1.4,5.2L0,21l5.5-1.4c6.9,3.7,15.5-1.2,15.5-9.1
	C21,7.6,19.9,5,18,3L18,3z M19.3,10.4c0,6.7-7.3,10.8-13.1,7.4l-0.3-0.2l-3.3,0.9l0.9-3.2L3.2,15C-0.4,9.2,3.7,1.7,10.6,1.7
	c2.3,0,4.5,0.9,6.1,2.5C18.3,5.9,19.3,8.1,19.3,10.4z"/>
</svg>
