<svg width="21" height="21" viewBox="0 0 21 21" fill="none" xmlns="http://www.w3.org/2000/svg">
<path d="M15.3176 12.5187L15.3097 12.5844C13.3856 11.6254 13.1843 11.4976 12.9359 11.8704C12.7635 12.1285 12.2612 12.7139 12.1099 12.8871C11.9567 13.0577 11.8045 13.0709 11.5446 12.9527C11.2821 12.8215 10.4395 12.5459 9.44205 11.6534C8.66507 10.9578 8.14358 10.1047 7.98958 9.84218C7.73321 9.39944 8.26958 9.33644 8.75782 8.41246C8.84532 8.22871 8.80069 8.08434 8.73594 7.95397C8.67032 7.82272 8.14796 6.5365 7.92921 6.02376C7.71921 5.51277 7.50309 5.57752 7.34122 5.57752C6.83723 5.53377 6.46887 5.54077 6.14425 5.87851C4.73203 7.43073 5.08815 9.03195 6.2965 10.7347C8.67119 13.8426 9.93642 14.4148 12.2499 15.2093C12.8746 15.4079 13.4442 15.3799 13.8948 15.3152C14.3971 15.2356 15.4409 14.6843 15.6588 14.0675C15.8819 13.4506 15.8819 12.9387 15.8163 12.8206C15.7515 12.7025 15.58 12.6369 15.3176 12.5187Z" fill="#0D8284"/>
<path d="M17.9546 3.01819C11.2269 -3.48555 0.092748 1.23148 0.0883731 10.4065C0.0883731 12.2405 0.568738 14.029 1.48397 15.6083L0 20.9999L5.54301 19.5545C12.4597 23.2906 20.996 18.3295 20.9995 10.4118C20.9995 7.63284 19.9146 5.01752 17.9415 3.05231L17.9546 3.01819ZM19.2513 10.3829C19.2461 17.0616 11.9146 21.2327 6.11612 17.8237L5.80113 17.6365L2.51995 18.4896L3.3993 15.3003L3.19018 14.9722C-0.418241 9.22793 3.72742 1.72059 10.5628 1.72059C12.885 1.72059 15.0646 2.6262 16.706 4.26679C18.3466 5.89338 19.2513 8.07296 19.2513 10.3829Z" fill="#0D8284"/>
</svg>
